<?xml version="1.0" encoding="UTF-8"?>
<!-- Generator: visioncortex VTracer 0.6.12 -->
<svg version="1.1" xmlns="http://www.w3.org/2000/svg" width="255" height="276">
<path d="M0 0 C0.247 0.002 0.247 0.002 1.496 0.012 C1.974 0.008 2.453 0.004 2.945 0 C3.183 0.001 3.183 0.001 4.387 0.004 C4.815 0.005 5.243 0.006 5.685 0.007 C7.246 0.137 7.246 0.137 9.585 0.632 C12.294 1.196 14.916 1.306 17.676 1.348 C18.722 1.373 19.767 1.4 20.813 1.427 C21.083 1.434 21.083 1.434 22.45 1.467 C32.015 1.722 41.2 2.294 50.506 4.691 C52.387 5.173 54.276 5.61 56.168 6.047 C66.169 8.434 74.142 10.968 80.672 19.34 C82.426 21.342 84.279 22.729 86.434 24.262 C91.708 28.085 95.586 33.023 99.668 38.051 C101.28 40.028 102.933 41.859 104.77 43.629 C107.584 46.372 109.811 49.469 112.121 52.637 C117.184 59.471 117.184 59.471 121.121 61.762 C125.212 64.239 126.035 68.055 127.324 72.418 C127.894 74.335 128.587 75.661 129.78 77.252 C132.008 80.91 131.658 84.854 131.618 89.007 C131.621 89.899 131.625 90.792 131.629 91.684 C131.639 94.098 131.629 96.511 131.616 98.925 C131.605 101.462 131.609 103.999 131.611 106.535 C131.612 110.799 131.601 115.063 131.582 119.326 C131.561 124.235 131.558 129.143 131.564 134.051 C131.57 138.793 131.564 143.535 131.553 148.277 C131.548 150.285 131.547 152.292 131.549 154.3 C131.551 156.674 131.543 159.047 131.527 161.421 C131.521 162.692 131.524 163.963 131.528 165.234 C131.463 172.391 130.852 179.982 126.434 185.887 C126.303 186.072 126.303 186.072 125.639 187.008 C120.203 194.504 120.203 194.504 116.664 195.648 C115.246 196.137 115.246 196.137 114.246 197.949 C113.916 198.671 113.586 199.393 113.246 200.137 C112.331 201.604 111.381 202.813 110.246 204.137 C109.586 204.137 108.926 204.137 108.246 204.137 C107.798 205.068 107.354 206.002 106.932 206.945 C106.118 208.36 105.158 209.274 103.965 210.387 C101.122 213.163 98.884 216.239 96.559 219.449 C93.006 224.238 89.382 227.999 84.582 231.52 C81.685 233.667 80.029 235.752 78.23 238.898 C76.592 240.959 74.391 241.553 71.969 242.422 C70.217 243.149 69.145 243.939 67.746 245.199 C61.775 250.25 52.671 249.772 45.246 250.242 C44.618 250.284 43.989 250.326 43.342 250.369 C29.607 251.269 15.886 251.479 2.125 251.452 C-1.173 251.446 -4.47 251.464 -7.768 251.487 C-10.355 251.501 -12.943 251.502 -15.53 251.499 C-16.748 251.5 -17.967 251.505 -19.185 251.515 C-20.867 251.527 -22.548 251.521 -24.23 251.509 C-24.719 251.517 -25.207 251.524 -25.71 251.532 C-31.395 251.446 -34.994 248.107 -38.934 244.32 C-40.779 243.12 -42.012 242.797 -44.129 242.312 C-48.24 241.227 -50.232 239.1 -52.879 235.887 C-53.31 235.391 -53.741 234.895 -54.185 234.384 C-56.33 231.902 -58.37 229.355 -60.379 226.762 C-62.732 223.839 -65.677 222.242 -68.883 220.363 C-71.387 218.722 -73.337 216.793 -74.754 214.137 C-74.754 213.477 -74.754 212.817 -74.754 212.137 C-75.705 211.695 -76.656 211.254 -77.609 210.816 C-80.982 208.814 -82.735 205.381 -84.066 201.824 C-86.523 195.723 -91.253 190.253 -97.34 187.633 C-98.273 187.305 -99.217 187.005 -100.168 186.734 C-103.396 185.743 -103.396 185.743 -104.391 184.055 C-106.043 179.201 -106.169 174.336 -106.316 169.262 C-106.351 168.272 -106.387 167.282 -106.424 166.292 C-106.502 164.113 -106.573 161.935 -106.641 159.756 C-106.74 156.527 -106.851 153.298 -106.963 150.069 C-107.084 146.55 -107.2 143.031 -107.316 139.512 C-107.339 138.842 -107.361 138.172 -107.384 137.482 C-107.449 135.521 -107.51 133.559 -107.57 131.598 C-107.59 130.969 -107.611 130.341 -107.631 129.693 C-107.721 126.624 -107.759 123.569 -107.693 120.499 C-107.47 109.951 -107.47 109.951 -110.254 105.074 C-113.415 98.566 -114.021 92.155 -112.242 85.109 C-111.545 83.332 -110.732 81.775 -109.754 80.137 C-109.367 79.469 -108.98 78.801 -108.582 78.113 C-107.355 76.076 -106.107 74.092 -104.754 72.137 C-104.487 71.743 -104.221 71.349 -103.947 70.943 C-101.619 67.745 -99.008 65.847 -95.679 63.751 C-90.103 60.227 -86.079 57.45 -84.066 51.012 C-81.958 44.277 -78.019 41.738 -72.205 38.081 C-69.821 36.529 -67.599 34.787 -65.379 33.012 C-64.961 32.681 -64.544 32.349 -64.114 32.008 C-61.282 29.708 -59.047 27.22 -56.84 24.309 C-55.63 23.003 -54.739 22.572 -53.066 22.012 C-50.127 20.899 -50.082 19.876 -48.754 17.137 C-47.587 16.304 -46.372 15.662 -45.109 14.984 C-43.142 13.754 -41.703 12.137 -40.16 10.418 C-35.269 5.961 -30.409 5.544 -24.004 5.137 C-15.822 4.608 -7.401 0.02 0 0 Z " fill="#22353E" transform="translate(122.75390625,9.86328125)"/>
<path d="M0 0 C0.247 0.002 0.247 0.002 1.496 0.012 C1.974 0.008 2.453 0.004 2.945 0 C3.183 0.001 3.183 0.001 4.387 0.004 C4.815 0.005 5.243 0.006 5.685 0.007 C7.246 0.137 7.246 0.137 9.585 0.632 C12.294 1.196 14.916 1.306 17.676 1.348 C18.722 1.373 19.767 1.4 20.813 1.427 C21.083 1.434 21.083 1.434 22.45 1.467 C32.015 1.722 41.2 2.294 50.506 4.691 C52.387 5.173 54.276 5.61 56.168 6.047 C66.169 8.434 74.142 10.968 80.672 19.34 C82.426 21.342 84.279 22.729 86.434 24.262 C91.708 28.085 95.586 33.023 99.668 38.051 C101.28 40.028 102.933 41.859 104.77 43.629 C107.584 46.372 109.811 49.469 112.121 52.637 C117.184 59.471 117.184 59.471 121.121 61.762 C125.212 64.239 126.035 68.055 127.324 72.418 C127.894 74.335 128.587 75.661 129.78 77.252 C132.008 80.91 131.658 84.854 131.618 89.007 C131.621 89.899 131.625 90.792 131.629 91.684 C131.639 94.098 131.629 96.511 131.616 98.925 C131.605 101.462 131.609 103.999 131.611 106.535 C131.612 110.799 131.601 115.063 131.582 119.326 C131.561 124.235 131.558 129.143 131.564 134.051 C131.57 138.793 131.564 143.535 131.553 148.277 C131.548 150.285 131.547 152.292 131.549 154.3 C131.551 156.674 131.543 159.047 131.527 161.421 C131.521 162.692 131.524 163.963 131.528 165.234 C131.463 172.391 130.852 179.982 126.434 185.887 C126.303 186.072 126.303 186.072 125.639 187.008 C120.203 194.504 120.203 194.504 116.664 195.648 C115.246 196.137 115.246 196.137 114.246 197.949 C113.916 198.671 113.586 199.393 113.246 200.137 C112.331 201.604 111.381 202.813 110.246 204.137 C109.586 204.137 108.926 204.137 108.246 204.137 C107.798 205.068 107.354 206.002 106.932 206.945 C106.118 208.36 105.158 209.274 103.965 210.387 C101.122 213.163 98.884 216.239 96.559 219.449 C93.006 224.238 89.382 227.999 84.582 231.52 C81.685 233.667 80.029 235.752 78.23 238.898 C76.592 240.959 74.391 241.553 71.969 242.422 C70.217 243.149 69.145 243.939 67.746 245.199 C61.775 250.25 52.671 249.772 45.246 250.242 C44.618 250.284 43.989 250.326 43.342 250.369 C29.607 251.269 15.886 251.479 2.125 251.452 C-1.173 251.446 -4.47 251.464 -7.768 251.487 C-10.355 251.501 -12.943 251.502 -15.53 251.499 C-16.748 251.5 -17.967 251.505 -19.185 251.515 C-20.867 251.527 -22.548 251.521 -24.23 251.509 C-24.719 251.517 -25.207 251.524 -25.71 251.532 C-31.395 251.446 -34.994 248.107 -38.934 244.32 C-40.779 243.12 -42.012 242.797 -44.129 242.312 C-48.24 241.227 -50.232 239.1 -52.879 235.887 C-53.31 235.391 -53.741 234.895 -54.185 234.384 C-56.33 231.902 -58.37 229.355 -60.379 226.762 C-62.732 223.839 -65.677 222.242 -68.883 220.363 C-71.387 218.722 -73.337 216.793 -74.754 214.137 C-74.754 213.477 -74.754 212.817 -74.754 212.137 C-75.705 211.695 -76.656 211.254 -77.609 210.816 C-80.982 208.814 -82.735 205.381 -84.066 201.824 C-86.523 195.723 -91.253 190.253 -97.34 187.633 C-98.273 187.305 -99.217 187.005 -100.168 186.734 C-103.396 185.743 -103.396 185.743 -104.391 184.055 C-106.043 179.201 -106.169 174.336 -106.316 169.262 C-106.351 168.272 -106.387 167.282 -106.424 166.292 C-106.502 164.113 -106.573 161.935 -106.641 159.756 C-106.74 156.527 -106.851 153.298 -106.963 150.069 C-107.084 146.55 -107.2 143.031 -107.316 139.512 C-107.339 138.842 -107.361 138.172 -107.384 137.482 C-107.449 135.521 -107.51 133.559 -107.57 131.598 C-107.59 130.969 -107.611 130.341 -107.631 129.693 C-107.721 126.624 -107.759 123.569 -107.693 120.499 C-107.47 109.951 -107.47 109.951 -110.254 105.074 C-113.415 98.566 -114.021 92.155 -112.242 85.109 C-111.545 83.332 -110.732 81.775 -109.754 80.137 C-109.367 79.469 -108.98 78.801 -108.582 78.113 C-107.355 76.076 -106.107 74.092 -104.754 72.137 C-104.487 71.743 -104.221 71.349 -103.947 70.943 C-101.619 67.745 -99.008 65.847 -95.679 63.751 C-90.103 60.227 -86.079 57.45 -84.066 51.012 C-81.958 44.277 -78.019 41.738 -72.205 38.081 C-69.821 36.529 -67.599 34.787 -65.379 33.012 C-64.961 32.681 -64.544 32.349 -64.114 32.008 C-61.282 29.708 -59.047 27.22 -56.84 24.309 C-55.63 23.003 -54.739 22.572 -53.066 22.012 C-50.127 20.899 -50.082 19.876 -48.754 17.137 C-47.587 16.304 -46.372 15.662 -45.109 14.984 C-43.142 13.754 -41.703 12.137 -40.16 10.418 C-35.269 5.961 -30.409 5.544 -24.004 5.137 C-15.822 4.608 -7.401 0.02 0 0 Z M-90.229 78.242 C-99.528 100.198 -96.643 128.141 -94.387 151.273 C-94.346 151.702 -94.305 152.13 -94.262 152.572 C-93.988 155.383 -93.656 158.182 -93.29 160.983 C-93.212 161.684 -93.134 162.386 -93.054 163.108 C-92.783 164.926 -92.513 166.462 -91.754 168.137 C-90.552 168.924 -89.471 169.233 -88.087 169.608 C-85.394 170.676 -83.954 173.321 -82.303 175.596 C-81.427 176.75 -80.548 177.902 -79.667 179.052 C-79.201 179.663 -78.735 180.273 -78.255 180.902 C-59.476 205.15 -38.267 229.054 -6.455 233.368 C-0.109 234.152 6.232 234.382 12.621 234.387 C13.074 234.388 13.527 234.39 13.993 234.391 C42.216 234.406 62.092 225.796 82.053 205.958 C92.52 195.383 102.197 183.941 111.073 172.005 C111.451 171.508 111.828 171.01 112.217 170.497 C112.539 170.063 112.861 169.629 113.193 169.181 C114.246 168.137 114.246 168.137 115.825 167.673 C116.294 167.496 116.763 167.319 117.246 167.137 C117.786 165.857 117.786 165.857 118.017 164.2 C118.11 163.572 118.202 162.943 118.298 162.296 C118.382 161.601 118.467 160.905 118.555 160.188 C118.651 159.456 118.748 158.724 118.848 157.969 C123.054 124.379 125.948 87.82 104.235 59.618 C85.276 35.592 60.137 18.411 29.464 14.472 C-17.8 8.937 -62.003 29.394 -90.229 78.242 Z " fill="#3F3E37" transform="translate(122.75390625,9.86328125)"/>
<path d="M0 0 C24.916 10.631 49.325 33.303 60.016 58.401 C68.544 79.922 65.86 106.746 63.633 129.258 C63.612 129.469 63.612 129.469 63.509 130.536 C63.234 133.306 62.901 136.065 62.536 138.825 C62.458 139.513 62.38 140.201 62.3 140.911 C61.612 145.471 61.612 145.471 59.946 146.911 C59.088 147.379 58.216 147.822 57.333 148.242 C54.767 149.701 53.263 152.228 51.549 154.573 C50.673 155.727 49.794 156.879 48.913 158.029 C48.447 158.637 47.981 159.245 47.502 159.871 C28.655 184.103 7.516 207.92 -24.338 212.188 C-30.693 212.963 -37.041 213.187 -43.438 213.188 C-43.664 213.188 -43.664 213.188 -44.811 213.191 C-72.78 213.181 -92.607 204.88 -112.401 185.179 C-121.147 176.327 -129.297 166.822 -136.874 156.955 C-137.332 156.36 -137.79 155.765 -138.262 155.151 C-139.108 154.044 -139.943 152.929 -140.766 151.805 C-143.59 148.075 -143.59 148.075 -146.188 147.6 C-146.487 147.501 -146.487 147.501 -148 147 C-148.937 144.737 -149.143 142.379 -149.422 139.96 C-149.519 139.218 -149.616 138.476 -149.716 137.711 C-150.023 135.221 -150.29 132.731 -150.535 130.234 C-150.556 130.019 -150.556 130.019 -150.664 128.931 C-153.841 96.099 -154.984 63.123 -133.268 36.26 C-102.553 -0.81 -57.336 -15.934 0 0 Z M-101.188 23.625 C-101.528 23.968 -101.869 24.312 -102.221 24.666 C-106.373 29.125 -108.116 34.463 -108.188 40.562 C-108.126 41.367 -108.064 42.171 -108 43 C-108.218 42.995 -108.218 42.995 -109.32 42.973 C-112.449 43.128 -114.364 43.44 -116.766 45.555 C-122.102 51.798 -122.102 51.798 -122.141 56.047 C-122.16 56.645 -122.179 57.243 -122.199 57.859 C-122.233 59.104 -122.251 60.349 -122.254 61.594 C-122.451 66.44 -122.451 66.44 -124.142 68.165 C-124.594 68.552 -125.046 68.94 -125.511 69.339 C-129.764 74.253 -128.61 81.036 -128.488 87.148 C-128.479 88.53 -128.472 89.911 -128.467 91.293 C-128.448 94.913 -128.399 98.533 -128.343 102.153 C-128.292 105.853 -128.269 109.553 -128.244 113.254 C-128.191 120.503 -128.105 127.751 -128 135 C-127.34 135 -126.68 135 -126 135 C-125.896 135.563 -125.791 136.127 -125.684 136.707 C-124.702 140.001 -122.626 141.505 -120.062 143.688 C-119.607 144.09 -119.151 144.493 -118.682 144.908 C-113.836 149.144 -110.485 149.183 -104.125 149.188 C-103.309 149.2 -102.493 149.212 -101.652 149.225 C-100.862 149.227 -100.072 149.228 -99.258 149.23 C-98.537 149.235 -97.817 149.239 -97.075 149.243 C-94.671 148.962 -93.069 148.235 -91 147 C-90.172 145.711 -90.172 145.711 -89.75 144.375 C-89.502 143.591 -89.255 142.808 -89 142 C-88.447 142.321 -87.895 142.643 -87.325 142.974 C-84.88 144.191 -82.493 144.346 -79.797 144.414 C-79.314 144.433 -78.832 144.453 -78.334 144.473 C-76.806 144.532 -75.278 144.579 -73.75 144.625 C-72.708 144.663 -71.667 144.702 -70.625 144.742 C-68.084 144.838 -65.542 144.922 -63 145 C-63 146.98 -63 148.96 -63 151 C-63.701 150.896 -64.403 150.791 -65.125 150.684 C-72.648 149.915 -72.648 149.915 -75.081 151.867 C-76.062 153.018 -76.945 154.199 -77.812 155.438 C-80.816 159.665 -80.816 159.665 -83.624 160.46 C-86.097 160.761 -88.501 160.836 -90.99 160.75 C-94.993 160.652 -97.024 161.257 -100.048 163.936 C-103.251 167.516 -102.361 173.092 -102.136 177.592 C-101.844 180.613 -100.753 182.601 -99 185 C-98.695 185.435 -98.389 185.871 -98.074 186.32 C-96.231 188.546 -94.797 189.817 -91.936 190.474 C-89.339 190.673 -86.783 190.711 -84.18 190.695 C-83.186 190.706 -82.192 190.72 -81.197 190.736 C-78.507 190.771 -75.817 190.775 -73.127 190.77 C-70.875 190.769 -68.624 190.783 -66.373 190.796 C-61.058 190.826 -55.743 190.829 -50.428 190.817 C-44.958 190.804 -39.489 190.839 -34.019 190.898 C-29.312 190.946 -24.605 190.963 -19.897 190.956 C-17.09 190.952 -14.284 190.96 -11.477 190.999 C-8.835 191.034 -6.196 191.03 -3.553 190.996 C-2.589 190.991 -1.624 190.998 -0.659 191.021 C3.351 191.109 7.017 191.094 10.143 188.282 C14.016 184.247 16.1 180.515 16.125 174.812 C16.166 174.223 16.208 173.633 16.25 173.025 C16.414 168.931 15.632 166.166 13 163 C11.555 161.511 10.63 161.048 8.564 160.89 C7.414 160.874 6.263 160.87 5.112 160.875 C-3.446 160.875 -3.446 160.875 -6.406 158.195 C-7.661 156.817 -8.726 155.357 -9.766 153.812 C-11 152 -11 152 -13 151 C-14.723 150.929 -16.404 150.906 -18.125 150.938 C-18.359 150.94 -18.359 150.94 -19.543 150.951 C-20.695 150.963 -21.848 150.981 -23 151 C-23 149.02 -23 147.04 -23 145 C-22.677 144.99 -22.677 144.99 -21.044 144.94 C-18.636 144.864 -16.228 144.775 -13.82 144.683 C-12.781 144.644 -11.741 144.61 -10.701 144.578 C-9.201 144.532 -7.702 144.474 -6.203 144.414 C-5.743 144.403 -5.282 144.391 -4.807 144.379 C-1.663 144.237 0.336 143.55 3 142 C3.083 142.598 3.165 143.196 3.25 143.812 C4.008 146.022 4.678 147.041 6.578 148.383 C9.815 149.788 13.474 149.425 16.938 149.375 C17.337 149.381 17.337 149.381 19.357 149.41 C26.354 149.375 29.732 147.509 34.59 142.684 C34.973 142.293 35.356 141.902 35.75 141.5 C36.148 141.109 36.547 140.719 36.957 140.316 C37.337 139.934 37.718 139.551 38.109 139.156 C38.449 138.814 38.789 138.472 39.14 138.119 C41.435 135.134 41.166 131.655 41.193 128.063 C41.201 127.468 41.209 126.872 41.218 126.259 C41.242 124.291 41.259 122.323 41.273 120.355 C41.276 120.019 41.276 120.019 41.29 118.314 C41.316 114.747 41.336 111.181 41.35 107.614 C41.363 104.668 41.391 101.723 41.432 98.777 C41.482 95.214 41.506 91.651 41.513 88.088 C41.52 86.733 41.535 85.379 41.559 84.025 C41.759 72.1 41.759 72.1 38.498 68.349 C38.271 68.155 38.271 68.155 37.124 67.172 C35.258 65.226 35.501 63.074 35.511 60.493 C35.528 59.856 35.545 59.219 35.562 58.562 C35.458 53.894 35.362 50.387 32.438 46.625 C29.069 43.421 25.531 42.92 21 43 C21.023 42.408 21.046 41.817 21.07 41.207 C21.088 40.417 21.106 39.627 21.125 38.812 C21.148 38.035 21.171 37.258 21.195 36.457 C20.792 31.389 18.595 28.077 15.25 24.375 C14.928 23.993 14.605 23.612 14.273 23.219 C10.985 19.522 6.943 16.963 1.92 16.612 C0.841 16.592 -0.238 16.59 -1.316 16.602 C-1.895 16.599 -2.474 16.596 -3.071 16.593 C-4.285 16.591 -5.499 16.596 -6.714 16.609 C-8.562 16.625 -10.408 16.609 -12.256 16.59 C-13.443 16.592 -14.63 16.596 -15.816 16.602 C-16.362 16.595 -16.908 16.589 -17.471 16.583 C-21.976 16.665 -24.941 18.184 -28.293 21.141 C-30.341 23.681 -31.095 25.385 -31.496 28.641 C-32.002 30.499 -32.002 30.499 -33 32 C-35.853 32.896 -38.535 32.816 -41.476 32.595 C-42.868 32.501 -44.242 32.491 -45.637 32.488 C-48.367 32.392 -50.471 32.099 -53 31 C-54.588 28.763 -55.432 26.757 -56.225 24.16 C-57.603 20.319 -60.501 18.75 -64 17 C-65.225 16.86 -65.225 16.86 -66.61 16.839 C-67.131 16.829 -67.652 16.82 -68.189 16.81 C-68.751 16.806 -69.312 16.801 -69.891 16.797 C-70.182 16.794 -70.182 16.794 -71.655 16.78 C-72.889 16.77 -74.123 16.764 -75.357 16.76 C-77.229 16.75 -79.101 16.719 -80.973 16.688 C-82.174 16.681 -83.376 16.676 -84.578 16.672 C-85.131 16.66 -85.685 16.647 -86.255 16.634 C-92.302 16.668 -96.994 19.399 -101.188 23.625 Z " fill="#4C626C" transform="translate(179,31)"/>
<path d="M0 0 C0.637 -0.01 1.275 -0.019 1.931 -0.029 C2.618 -0.028 3.304 -0.027 4.011 -0.026 C4.717 -0.03 5.422 -0.035 6.148 -0.039 C7.638 -0.045 9.129 -0.045 10.619 -0.041 C12.909 -0.038 15.197 -0.061 17.486 -0.087 C18.932 -0.089 20.378 -0.09 21.824 -0.089 C22.513 -0.098 23.201 -0.107 23.91 -0.117 C24.227 -0.113 24.227 -0.113 25.832 -0.098 C26.392 -0.098 26.952 -0.099 27.53 -0.1 C27.966 0.024 28.402 0.147 28.851 0.275 C30.045 2.704 29.9 4.838 29.73 7.505 C29.682 8.308 29.634 9.11 29.584 9.937 C29.527 10.779 29.471 11.62 29.414 12.462 C29.361 13.316 29.308 14.169 29.256 15.023 C29.126 17.107 28.989 19.191 28.851 21.275 C32.481 21.275 36.111 21.275 39.851 21.275 C39.521 19.625 39.191 17.975 38.851 16.275 C42.249 15.717 44.832 15.69 47.875 17.435 C51.411 20.257 51.411 20.257 52.851 22.275 C52.851 23.925 52.851 25.575 52.851 27.275 C47.571 27.275 42.291 27.275 36.851 27.275 C38.501 27.605 40.151 27.935 41.851 28.275 C41.851 28.935 41.851 29.595 41.851 30.275 C42.55 30.24 43.249 30.205 43.969 30.169 C44.888 30.141 45.807 30.114 46.726 30.087 C47.187 30.062 47.647 30.037 48.121 30.011 C49.469 29.982 49.469 29.982 51.851 30.275 C52.181 30.77 52.181 30.77 53.851 33.275 C52.201 33.44 52.201 33.44 43.851 34.275 C43.851 34.605 43.851 34.935 43.851 35.275 C45.666 35.44 45.666 35.44 54.851 36.275 C54.851 38.915 54.851 41.555 54.851 44.275 C50.561 44.275 46.271 44.275 41.851 44.275 C42.016 45.1 42.016 45.1 42.851 49.275 C44.158 49.842 44.158 49.842 45.793 49.763 C46.376 49.747 46.959 49.731 47.56 49.714 C48.172 49.672 48.784 49.63 49.414 49.587 C50.029 49.565 50.645 49.542 51.279 49.519 C52.806 49.46 54.327 49.377 55.851 49.275 C56.495 55.357 56.495 55.357 54.844 57.712 C53.55 58.951 52.219 60.118 50.851 61.275 C49.506 62.6 48.802 63.585 47.851 65.275 C48.004 67.213 48.265 68.476 48.851 70.275 C48.978 70.808 49.104 71.342 49.234 71.892 C49.305 72.161 49.305 72.161 49.664 73.525 C49.794 74.025 49.924 74.525 50.058 75.04 C50.32 75.448 50.582 75.855 50.851 76.275 C51.19 76.319 51.19 76.319 52.902 76.544 C53.224 76.665 53.224 76.665 54.851 77.275 C55.458 79.409 55.316 81.511 55.226 83.712 C55.225 84.311 55.224 84.91 55.222 85.527 C55.134 89.901 55.134 89.901 54.04 91.346 C52.469 92.573 51.531 92.528 49.549 92.535 C49.208 92.539 49.208 92.539 47.484 92.557 C47.111 92.556 47.111 92.556 45.22 92.549 C44.827 92.552 44.827 92.552 42.835 92.565 C40.676 92.578 38.517 92.579 36.358 92.576 C34.556 92.575 32.755 92.58 30.953 92.585 C26.703 92.596 22.453 92.596 18.203 92.59 C13.817 92.584 9.431 92.597 5.044 92.618 C1.279 92.636 -2.485 92.642 -6.25 92.638 C-8.499 92.636 -10.748 92.639 -12.997 92.653 C-15.504 92.668 -18.011 92.659 -20.518 92.647 C-21.265 92.655 -22.012 92.662 -22.782 92.67 C-23.463 92.663 -24.145 92.656 -24.847 92.649 C-25.439 92.649 -26.032 92.649 -26.643 92.649 C-28.149 92.275 -28.149 92.275 -29.341 90.841 C-30.205 89.166 -30.384 88.222 -30.344 86.357 C-30.338 85.825 -30.331 85.293 -30.324 84.745 C-30.308 84.198 -30.291 83.651 -30.274 83.087 C-30.265 82.528 -30.256 81.97 -30.246 81.394 C-30.223 80.021 -30.187 78.648 -30.149 77.275 C-27.839 77.275 -25.529 77.275 -23.149 77.275 C-23.149 75.625 -23.149 73.975 -23.149 72.275 C-22.489 72.275 -21.829 72.275 -21.149 72.275 C-21.236 70.793 -21.342 69.317 -21.461 67.837 C-21.484 67.416 -21.506 66.995 -21.53 66.562 C-21.637 65.341 -21.637 65.341 -22.149 63.275 C-23.524 62.654 -23.524 62.654 -25.149 62.275 C-27.745 60.095 -29.772 57.705 -30.645 54.392 C-30.777 52.482 -30.765 51.089 -30.149 49.275 C-28.922 48.332 -27.941 48 -26.438 47.661 C-25.149 47.275 -25.149 47.275 -23.149 45.275 C-25.459 44.945 -27.769 44.615 -30.149 44.275 C-30.149 41.635 -30.149 38.995 -30.149 36.275 C-25.859 36.275 -21.569 36.275 -17.149 36.275 C-17.149 35.615 -17.149 34.955 -17.149 34.275 C-20.779 33.945 -24.409 33.615 -28.149 33.275 C-27.819 32.285 -27.489 31.295 -27.149 30.275 C-26.025 29.934 -26.025 29.934 -24.645 29.982 C-24.152 29.991 -23.659 30.001 -23.151 30.011 C-22.634 30.036 -22.118 30.061 -21.586 30.087 C-21.326 30.094 -21.326 30.094 -20.01 30.128 C-18.722 30.164 -17.435 30.217 -16.149 30.275 C-16.149 29.285 -16.149 28.295 -16.149 27.275 C-19.779 27.275 -23.409 27.275 -27.149 27.275 C-27.149 21.535 -27.149 21.535 -24.649 18.962 C-22.047 16.528 -20.329 15.893 -16.774 15.9 C-15.563 15.995 -14.352 16.11 -13.149 16.275 C-13.149 17.925 -13.149 19.575 -13.149 21.275 C-10.179 21.275 -7.209 21.275 -4.149 21.275 C-4.244 19.926 -4.339 18.578 -4.438 17.189 C-4.523 15.882 -4.605 14.574 -4.686 13.267 C-4.744 12.359 -4.806 11.451 -4.872 10.543 C-4.967 9.238 -5.047 7.933 -5.125 6.626 C-5.151 6.233 -5.151 6.233 -5.284 4.246 C-5.149 2.275 -5.149 2.275 -4.337 1.169 C-2.804 0.016 -1.907 0.016 0 0 Z " fill="#4B6C70" transform="translate(123.148681640625,73.725341796875)"/>
<path d="M0 0 C0.995 -0.014 1.991 -0.028 2.986 -0.041 C3.509 -0.048 4.033 -0.055 4.573 -0.063 C7.498 -0.094 10.416 -0.079 13.34 -0.002 C19.981 0.152 26.472 0.076 33.076 -0.623 C68.355 -4.338 68.355 -4.338 81.394 5.788 C90.866 13.558 99.137 22.925 106.773 32.476 C110.077 36.603 113.399 40.304 117.489 43.675 C120.438 46.107 122.796 48.87 125.248 51.787 C128.127 55.115 131.339 58.14 134.516 61.181 C134.97 61.623 135.424 62.066 135.892 62.521 C136.298 62.91 136.704 63.299 137.122 63.7 C139.657 66.712 140.499 69.525 140.697 73.408 C140.74 74.23 140.783 75.052 140.828 75.898 C140.836 76.11 140.836 76.11 140.881 77.182 C140.935 78.468 141.005 79.753 141.078 81.039 C141.407 87.927 141.407 87.927 140.736 90.857 C140.045 93.939 140.606 96.574 141.091 99.658 C141.221 101.64 141.145 102.781 140.748 104.654 C139.956 108.846 140.39 113.04 140.656 117.267 C141.121 124.702 141.44 131.901 140.404 139.307 C140.352 139.878 140.301 140.449 140.248 141.037 C140.578 141.367 140.908 141.697 141.248 142.037 C141.182 143.694 140.883 145.268 140.591 146.9 C140.248 149.037 140.248 149.037 140.154 151.268 C139.589 157.446 137.156 160.715 132.881 165.126 C132.346 165.691 131.81 166.256 131.259 166.839 C129.6 168.583 127.927 170.312 126.248 172.037 C125.999 172.293 125.999 172.293 124.741 173.588 C121.332 177.085 117.884 180.541 114.427 183.99 C113.35 185.068 112.274 186.145 111.197 187.223 C108.972 189.45 106.745 191.674 104.517 193.898 C101.66 196.749 98.808 199.605 95.956 202.462 C93.748 204.674 91.538 206.883 89.327 209.092 C88.273 210.145 87.219 211.199 86.167 212.254 C84.708 213.716 83.245 215.174 81.782 216.632 C81.35 217.066 80.918 217.5 80.473 217.947 C80.274 218.145 80.274 218.145 79.268 219.144 C78.924 219.488 78.58 219.831 78.225 220.185 C76.306 221.858 74.615 222.188 72.166 222.354 C71.864 222.374 71.864 222.374 70.339 222.48 C69.711 222.52 69.083 222.559 68.435 222.6 C67.818 222.643 67.201 222.686 66.566 222.73 C63.835 222.913 61.125 223.06 58.388 223.033 C56.248 223.037 56.248 223.037 54.81 223.537 C52.361 224.321 49.798 224.297 47.248 224.037 C46.918 223.707 46.588 223.377 46.248 223.037 C44.318 222.96 42.423 222.946 40.494 222.975 C39.249 222.984 38.004 222.993 36.76 223.002 C36.096 223.008 35.433 223.014 34.749 223.021 C30.498 223.054 26.246 223.043 21.994 223.039 C21.624 223.039 21.624 223.039 19.754 223.038 C19.011 223.037 18.268 223.037 17.502 223.036 C15.259 223.037 13.015 223.046 10.772 223.056 C7.146 223.069 3.521 223.044 -0.105 222.994 C-1.483 222.981 -2.861 222.98 -4.24 222.992 C-11.567 223.049 -17.08 223 -22.563 217.743 C-24.239 215.948 -25.034 214.349 -25.752 212.037 C-26.696 211.565 -27.643 211.099 -28.607 210.67 C-29.929 209.94 -30.781 209.117 -31.831 208.029 C-32.268 207.582 -32.705 207.134 -33.156 206.673 C-33.683 206.133 -34.21 205.593 -34.752 205.037 C-36.165 203.617 -37.584 202.202 -39.002 200.787 C-39.784 200.006 -40.565 199.225 -41.346 198.443 C-41.742 198.048 -42.138 197.652 -42.545 197.244 C-47.614 192.175 -52.683 187.106 -57.752 182.037 C-57.957 181.832 -57.957 181.832 -58.994 180.796 C-59.781 180.009 -60.566 179.221 -61.35 178.432 C-62.432 177.356 -63.523 176.293 -64.624 175.236 C-64.945 174.924 -65.266 174.612 -65.597 174.291 C-66.233 173.672 -66.873 173.058 -67.518 172.448 C-68.301 171.682 -69.031 170.862 -69.752 170.037 C-69.752 169.377 -69.752 168.717 -69.752 168.037 C-71.067 167.335 -72.405 166.674 -73.752 166.037 C-76.982 163.911 -79.174 161.558 -80.752 158.037 C-81.31 155.198 -81.388 152.386 -81.459 149.498 C-81.491 148.627 -81.524 147.757 -81.557 146.886 C-81.983 134.445 -81.822 121.983 -81.752 109.537 C-81.729 105.194 -81.708 100.851 -81.697 96.508 C-81.69 94.793 -81.678 93.078 -81.665 91.363 C-81.661 90.316 -81.658 89.269 -81.655 88.223 C-81.65 87.754 -81.644 87.286 -81.639 86.803 C-81.639 84.064 -81.978 81.664 -82.752 79.037 C-82.092 79.037 -81.432 79.037 -80.752 79.037 C-80.768 78.634 -80.784 78.231 -80.8 77.815 C-80.863 75.973 -80.902 74.13 -80.94 72.287 C-80.965 71.653 -80.99 71.019 -81.016 70.365 C-81.099 65.058 -81.099 65.058 -79.366 62.584 C-77.752 61.037 -77.752 61.037 -75.752 61.037 C-75.752 60.377 -75.752 59.717 -75.752 59.037 C-74.512 57.761 -73.291 56.622 -71.94 55.475 C-71.584 55.158 -71.227 54.842 -70.86 54.516 C-68.109 52.138 -68.109 52.138 -66.116 51.572 C-64.338 50.874 -64.142 49.938 -63.405 48.254 C-61.986 45.608 -59.771 43.484 -57.752 41.287 C-57.301 40.781 -56.85 40.274 -56.385 39.752 C-55.95 39.274 -55.514 38.795 -55.065 38.303 C-54.867 38.085 -54.867 38.085 -53.866 36.983 C-52.752 36.037 -52.752 36.037 -50.752 36.037 C-50.308 35.081 -49.866 34.123 -49.432 33.162 C-48.634 31.841 -47.808 31.197 -46.565 30.287 C-43.748 28.185 -41.608 25.688 -39.34 23.03 C-37.707 21.122 -36.057 19.288 -34.252 17.537 C-32.484 15.821 -30.863 14.025 -29.27 12.145 C-28.078 10.749 -26.854 9.384 -25.625 8.021 C-24.817 7.11 -24.045 6.168 -23.276 5.225 C-19.227 0.906 -15.344 0.3 -9.698 0.091 C-7.812 0.057 -5.927 0.044 -4.041 0.042 C-2.694 0.037 -1.347 0.02 0 0 Z M-74.228 64.142 C-83.526 86.098 -80.641 114.041 -78.385 137.174 C-78.344 137.602 -78.303 138.031 -78.261 138.472 C-77.987 141.283 -77.654 144.083 -77.288 146.884 C-77.21 147.585 -77.133 148.286 -77.053 149.009 C-76.781 150.827 -76.512 152.363 -75.752 154.037 C-74.55 154.824 -73.469 155.134 -72.086 155.509 C-69.392 156.576 -67.953 159.221 -66.301 161.497 C-65.425 162.65 -64.546 163.802 -63.665 164.952 C-63.2 165.563 -62.734 166.174 -62.254 166.803 C-43.475 191.051 -22.266 214.954 9.547 219.268 C15.893 220.052 22.233 220.282 28.623 220.287 C29.075 220.289 29.528 220.29 29.994 220.292 C58.218 220.306 78.093 211.697 98.055 191.858 C108.521 181.284 118.198 169.842 127.075 157.906 C127.452 157.408 127.83 156.91 128.219 156.397 C128.541 155.963 128.863 155.529 129.194 155.082 C130.248 154.037 130.248 154.037 131.826 153.573 C132.295 153.396 132.764 153.219 133.248 153.037 C133.787 151.757 133.787 151.757 134.019 150.1 C134.111 149.472 134.204 148.844 134.299 148.196 C134.384 147.501 134.469 146.805 134.556 146.089 C134.653 145.357 134.75 144.624 134.849 143.87 C139.055 110.279 141.949 73.721 120.237 45.518 C101.277 21.493 76.139 4.311 45.465 0.372 C-1.799 -5.163 -46.002 15.294 -74.228 64.142 Z " fill="#1D2E34" transform="translate(106.75244140625,23.962890625)"/>
<path d="M0 0 C15.84 0 31.68 0 48 0 C48 2.64 48 5.28 48 8 C53.94 8 59.88 8 66 8 C63.928 14.215 63.323 14.979 58.461 18.312 C57 20 57 20 57 26 C35.22 26 13.44 26 -9 26 C-9.33 23.69 -9.66 21.38 -10 19 C-11.594 17.18 -11.594 17.18 -13.5 15.875 C-17.232 13.29 -16.989 13.056 -18 8 C-12.06 8 -6.12 8 0 8 C0 5.36 0 2.72 0 0 Z " fill="#B8E9E6" transform="translate(112,116)"/>
<path d="M0 0 C0.637 -0.01 1.275 -0.019 1.931 -0.029 C2.274 -0.028 2.274 -0.028 4.011 -0.026 C4.717 -0.03 5.422 -0.035 6.148 -0.039 C7.638 -0.045 9.129 -0.045 10.619 -0.041 C12.909 -0.038 15.197 -0.061 17.486 -0.087 C18.932 -0.089 20.378 -0.09 21.824 -0.089 C22.513 -0.098 23.201 -0.107 23.91 -0.117 C24.227 -0.113 24.227 -0.113 25.832 -0.098 C26.392 -0.098 26.952 -0.099 27.53 -0.1 C27.966 0.024 28.402 0.147 28.851 0.275 C30.045 2.704 29.9 4.838 29.73 7.505 C29.682 8.308 29.634 9.11 29.584 9.937 C29.527 10.779 29.471 11.62 29.414 12.462 C29.361 13.316 29.308 14.169 29.256 15.023 C29.126 17.107 28.989 19.191 28.851 21.275 C32.481 21.275 36.111 21.275 39.851 21.275 C39.521 19.625 39.191 17.975 38.851 16.275 C41.314 15.816 43.4 15.703 45.851 16.275 C48.329 18.283 50.28 20.473 51.851 23.275 C51.521 23.935 51.191 24.595 50.851 25.275 C49.377 25.467 49.377 25.467 47.508 25.407 C47.173 25.409 47.173 25.409 45.48 25.415 C44.061 25.405 42.641 25.371 41.222 25.314 C39.195 25.345 39.195 25.345 35.851 26.275 C35.521 28.915 35.191 31.555 34.851 34.275 C20.001 34.275 5.151 34.275 -10.149 34.275 C-10.479 31.635 -10.809 28.995 -11.149 26.275 C-13.932 25.394 -15.401 25.192 -18.211 25.275 C-18.543 25.269 -18.543 25.269 -20.221 25.24 C-21.867 25.216 -23.504 25.229 -25.149 25.275 C-25.331 20.693 -25.331 20.693 -24.555 18.911 C-22.791 17.063 -21.697 16.341 -19.102 16.029 C-17.101 16.025 -15.141 16.101 -13.149 16.275 C-13.149 17.925 -13.149 19.575 -13.149 21.275 C-10.179 21.275 -7.209 21.275 -4.149 21.275 C-4.244 19.926 -4.339 18.578 -4.438 17.189 C-4.523 15.882 -4.605 14.574 -4.686 13.267 C-4.744 12.359 -4.806 11.451 -4.872 10.543 C-4.967 9.238 -5.047 7.933 -5.125 6.626 C-5.151 6.233 -5.151 6.233 -5.284 4.246 C-5.149 2.275 -5.149 2.275 -4.337 1.169 C-2.804 0.016 -1.907 0.016 0 0 Z " fill="#7D9FA4" transform="translate(123.148681640625,73.725341796875)"/>
<path d="M0 0 C23.1 0 46.2 0 70 0 C70 1.65 70 3.3 70 5 C72.31 5 74.62 5 77 5 C76.859 6.626 76.712 8.25 76.562 9.875 C76.523 10.335 76.484 10.795 76.443 11.27 C76.237 13.461 75.995 15.01 75 17 C73.63 17.249 73.63 17.249 71.849 17.247 C71.513 17.249 71.513 17.249 69.81 17.26 C69.067 17.254 68.324 17.249 67.559 17.243 C66.78 17.245 66.001 17.247 65.199 17.249 C63.058 17.252 60.918 17.246 58.777 17.236 C56.541 17.227 54.304 17.229 52.068 17.229 C48.312 17.228 44.556 17.219 40.8 17.206 C36.453 17.19 32.105 17.185 27.758 17.186 C23.582 17.186 19.406 17.181 15.23 17.173 C13.451 17.169 11.671 17.167 9.891 17.167 C7.408 17.166 4.925 17.156 2.441 17.145 C1.699 17.146 0.956 17.146 0.19 17.147 C-0.483 17.142 -1.156 17.138 -1.849 17.134 C-2.143 17.133 -2.143 17.133 -3.63 17.129 C-5 17 -5 17 -6 16 C-6.205 14.877 -6.205 14.877 -6.316 13.496 C-6.358 13.003 -6.4 12.51 -6.443 12.002 C-6.483 11.486 -6.522 10.969 -6.562 10.438 C-6.606 9.917 -6.649 9.397 -6.693 8.861 C-6.8 7.575 -6.9 6.287 -7 5 C-4.69 5 -2.38 5 0 5 C0 3.35 0 1.7 0 0 Z " fill="#BDE9E7" transform="translate(101,147)"/>
<path d="M0 0 C2.757 0.057 5.504 0.023 8.26 -0.035 C26.005 -0.349 26.005 -0.349 30.528 3.579 C32.093 5.288 33.368 7.113 34.639 9.046 C35.863 10.9 36.226 11.267 38.363 12.218 C40.427 12.494 42.293 12.546 44.37 12.429 C44.708 12.43 44.708 12.43 46.415 12.437 C48.052 12.437 49.673 12.383 51.308 12.304 C51.081 14.909 50.672 17.049 49.308 19.304 C46.479 20.435 43.578 20.261 40.575 20.209 C39.662 20.219 38.749 20.231 37.835 20.247 C35.353 20.279 32.873 20.266 30.391 20.244 C27.796 20.226 25.202 20.243 22.607 20.254 C18.248 20.266 13.891 20.25 9.533 20.216 C4.491 20.178 -0.548 20.191 -5.59 20.229 C-9.915 20.261 -14.24 20.265 -18.565 20.247 C-21.15 20.236 -23.734 20.235 -26.319 20.258 C-28.749 20.278 -31.177 20.264 -33.607 20.224 C-34.5 20.214 -35.393 20.217 -36.285 20.232 C-38.894 20.273 -41.253 20.279 -43.692 19.304 C-45.056 17.049 -45.466 14.909 -45.692 12.304 C-45.451 12.315 -45.451 12.315 -44.23 12.37 C-42.236 12.447 -40.25 12.436 -38.255 12.429 C-37.567 12.465 -36.879 12.501 -36.171 12.538 C-33.692 12.492 -31.987 12.28 -29.692 11.304 C-28.718 10.166 -27.935 8.958 -27.11 7.708 C-20.749 -1.617 -10.18 -0.214 0 0 Z " fill="#7A969B" transform="translate(132.6923828125,190.6962890625)"/>
<path d="M0 0 C0.462 -0.001 0.925 -0.003 1.401 -0.005 C30.396 -0.016 50.877 9.053 71.43 29.35 C81.823 39.784 91.436 51.001 100.406 62.673 C100.84 63.237 101.274 63.8 101.721 64.38 C102.108 64.896 102.496 65.412 102.895 65.944 C103.231 66.392 103.568 66.84 103.915 67.301 C104.625 68.5 104.625 68.5 104.625 70.5 C102.91 71.456 102.91 71.456 100.625 71.5 C98.768 70.017 97.47 68.105 96.072 66.198 C95.149 65.003 94.223 63.811 93.295 62.62 C92.802 61.98 92.309 61.34 91.801 60.681 C72.832 36.257 50.801 10.601 18.657 6.161 C12.471 5.384 6.293 5.172 0.062 5.188 C-0.378 5.187 -0.819 5.187 -1.272 5.187 C-28.843 5.252 -48.18 14.015 -67.631 33.374 C-76.405 42.249 -84.586 51.772 -92.198 61.659 C-92.659 62.254 -93.121 62.849 -93.596 63.463 C-94.449 64.572 -95.291 65.69 -96.119 66.819 C-98.88 70.428 -98.88 70.428 -101.654 70.833 C-102.222 70.723 -102.79 70.613 -103.375 70.5 C-102.775 66.427 -100.663 63.811 -98.226 60.63 C-97.788 60.054 -97.35 59.478 -96.899 58.885 C-70.88 25.128 -44.591 0.042 0 0 Z " fill="#748991" transform="translate(135.375,23.5)"/>
<path d="M0 0 C1.797 1.297 1.797 1.297 2.797 2.297 C4.89 2.568 7.001 2.529 9.109 2.547 C9.691 2.568 10.273 2.588 10.873 2.609 C14.89 2.646 16.852 2.06 19.797 -0.703 C20.111 0.526 20.423 1.755 20.734 2.984 C20.908 3.669 21.082 4.353 21.262 5.059 C21.438 5.797 21.615 6.536 21.797 7.297 C21.952 7.7 22.107 8.102 22.267 8.517 C22.725 9.897 22.945 10.846 22.797 12.297 C21.405 14.246 19.579 15.56 17.672 16.984 C17.134 17.407 16.597 17.83 16.043 18.266 C14.898 19.162 13.746 20.05 12.589 20.931 C10.791 22.301 9.015 23.696 7.242 25.098 C-2.247 32.547 -2.247 32.547 -6.203 34.297 C-9.821 29.09 -10.977 24.796 -10.953 18.484 C-10.953 17.698 -10.952 16.911 -10.952 16.101 C-10.697 9.595 -8.82 5.338 -4.344 0.656 C-2.501 -0.855 -2.457 -0.784 0 0 Z " fill="#BCE3E2" transform="translate(92.203125,55.703125)"/>
<path d="M0 0 C0.352 0.487 0.704 0.975 1.066 1.477 C3.915 3.721 6.412 3.44 9.938 3.375 C10.558 3.387 11.179 3.398 11.818 3.41 C15.902 3.384 18.018 2.825 21 0 C25.094 3.212 29.268 6.822 30.475 12.062 C31.148 18.584 31.296 25.45 28.021 31.292 C27 32 27 32 25.289 31.857 C20.167 29.939 15.667 26.596 11.108 23.619 C9.826 22.789 8.537 21.97 7.24 21.164 C5.365 19.996 3.516 18.796 1.668 17.586 C1.085 17.231 0.502 16.877 -0.099 16.512 C-1.7 15.43 -2.877 14.575 -4 13 C-4.313 9.324 -3.231 5.76 -1.438 2.562 C-1.303 2.316 -1.303 2.316 -0.621 1.066 C-0.416 0.714 -0.211 0.363 0 0 Z " fill="#BBE2E1" transform="translate(160,55)"/>
<path d="M0 0 C0.33 0 0.66 0 1 0 C1 2.64 1 5.28 1 8 C-1.805 8.165 -1.805 8.165 -16 9 C-13.965 14.088 -13.419 14.78 -9.242 17.398 C-8 19 -8 19 -8 26 C12.79 26 33.58 26 55 26 C54.34 27.32 53.68 28.64 53 30 C55.31 30 57.62 30 60 30 C60 30.33 60 30.66 60 31 C36.9 31 13.8 31 -10 31 C-10 32.65 -10 34.3 -10 36 C-10.99 36.165 -10.99 36.165 -16 37 C-15.67 40.3 -15.34 43.6 -15 47 C-1.8 47.165 -1.8 47.165 65 48 C65.33 44.37 65.66 40.74 66 37 C66.33 37 66.66 37 67 37 C67.054 38.792 67.094 40.583 67.125 42.375 C67.142 42.883 67.159 43.391 67.176 43.914 C67.182 44.404 67.189 44.894 67.195 45.398 C67.206 45.849 67.216 46.299 67.227 46.763 C66.918 48.444 66.335 48.948 65 50 C63.494 50.254 63.494 50.254 61.698 50.261 C61.016 50.268 60.335 50.275 59.633 50.282 C59.259 50.281 59.259 50.281 57.369 50.275 C56.976 50.277 56.976 50.277 54.984 50.29 C52.825 50.304 50.666 50.304 48.507 50.302 C46.705 50.301 44.903 50.305 43.101 50.31 C38.852 50.321 34.602 50.322 30.352 50.316 C25.966 50.31 21.579 50.322 17.193 50.343 C13.428 50.361 9.663 50.367 5.899 50.364 C3.649 50.362 1.4 50.364 -0.849 50.378 C-3.356 50.393 -5.862 50.384 -8.369 50.372 C-9.116 50.38 -9.863 50.388 -10.633 50.395 C-10.974 50.392 -10.974 50.392 -12.698 50.374 C-13.291 50.374 -13.884 50.375 -14.494 50.375 C-16 50 -16 50 -17.192 48.567 C-18.056 46.892 -18.235 45.947 -18.195 44.082 C-18.189 43.55 -18.182 43.019 -18.176 42.471 C-18.167 42.197 -18.167 42.197 -18.125 40.812 C-18.116 40.254 -18.107 39.695 -18.098 39.119 C-18.074 37.746 -18.038 36.373 -18 35 C-15.69 35 -13.38 35 -11 35 C-11 33.35 -11 31.7 -11 30 C-10.34 30 -9.68 30 -9 30 C-9.087 28.518 -9.194 27.042 -9.312 25.562 C-9.335 25.142 -9.358 24.721 -9.381 24.287 C-9.488 23.066 -9.488 23.066 -10 21 C-11.375 20.379 -11.375 20.379 -13 20 C-14.387 18.836 -14.387 18.836 -15.688 17.375 C-16.124 16.908 -16.561 16.442 -17.012 15.961 C-18 14 -18 14 -18 7 C-12.06 7 -6.12 7 0 7 C0 4.69 0 2.38 0 0 Z " fill="#6A9798" transform="translate(111,116)"/>
<path d="M0 0 C0.33 0 0.66 0 1 0 C1.164 10.944 1.287 21.888 1.363 32.833 C1.399 37.916 1.448 42.998 1.528 48.081 C1.598 52.514 1.643 56.946 1.659 61.379 C1.668 63.725 1.689 66.068 1.74 68.413 C2.095 85.35 2.095 85.35 -1.821 89.479 C-2.795 90.377 -3.797 91.211 -4.837 92.033 C-6.67 93.558 -8.274 95.292 -9.923 97.011 C-12.429 99.617 -14.995 102.162 -17.551 104.719 C-18.657 105.828 -19.763 106.938 -20.869 108.047 C-23.171 110.355 -25.475 112.661 -27.781 114.966 C-30.444 117.629 -33.102 120.298 -35.758 122.969 C-38.325 125.551 -40.898 128.128 -43.474 130.702 C-44.565 131.795 -45.655 132.889 -46.743 133.985 C-48.255 135.507 -49.774 137.023 -51.294 138.537 C-51.744 138.992 -52.193 139.447 -52.656 139.916 C-53.069 140.325 -53.483 140.734 -53.908 141.156 C-54.087 141.335 -54.087 141.335 -54.993 142.241 C-56 143 -56 143 -58 143 C-59.063 144.938 -59.063 144.938 -60 147 C-61 148 -61 148 -62.848 148.098 C-63.213 148.092 -63.213 148.092 -65.062 148.062 C-65.796 148.053 -66.529 148.044 -67.285 148.035 C-67.851 148.024 -68.417 148.012 -69 148 C-69 146 -69 146 -68.172 144.924 C-66.845 143.878 -65.883 143.605 -64.247 143.222 C-60.253 141.968 -57.897 139.409 -55.042 136.449 C-54.761 136.166 -54.761 136.166 -53.34 134.734 C-52.126 133.51 -50.919 132.281 -49.716 131.047 C-47.814 129.096 -45.897 127.159 -43.978 125.225 C-40.257 121.469 -36.55 117.699 -32.845 113.926 C-28.12 109.116 -23.388 104.312 -18.642 99.523 C-16.736 97.598 -14.837 95.665 -12.945 93.727 C-12.051 92.814 -11.154 91.905 -10.256 90.997 C-9.161 89.89 -8.071 88.777 -6.987 87.659 C-6.504 87.173 -6.02 86.688 -5.522 86.188 C-5.314 85.976 -5.314 85.976 -4.258 84.9 C-2.726 83.804 -1.844 83.812 0 84 C0.047 74.369 0.082 64.738 0.104 55.107 C0.114 50.635 0.128 46.163 0.151 41.692 C0.171 37.795 0.184 33.899 0.188 30.003 C0.191 27.938 0.198 25.874 0.211 23.81 C0.226 21.509 0.228 19.208 0.227 16.906 C0.231 16.562 0.231 16.562 0.249 14.821 C0.246 14.197 0.243 13.573 0.241 12.93 C0.241 12.657 0.241 12.657 0.246 11.279 C0.165 10.857 0.084 10.435 0 10 C-0.33 9.835 -0.33 9.835 -2 9 C-1.34 9 -0.68 9 0 9 C0 6.03 0 3.06 0 0 Z " fill="#2A393F" transform="translate(240,93)"/>
<path d="M0 0 C1.134 1.813 1.134 1.813 2 4 C1.298 5.498 1.298 5.498 -0.136 6.996 C-0.407 7.286 -0.678 7.577 -0.957 7.875 C-1.955 8.933 -2.977 9.966 -4 11 C-4.846 11.876 -5.691 12.752 -6.535 13.629 C-9.604 16.798 -12.71 19.93 -15.82 23.059 C-16.384 23.626 -16.947 24.193 -17.527 24.778 C-20.194 27.464 -22.864 30.147 -25.536 32.828 C-28.608 35.91 -31.672 39 -34.728 42.097 C-37.391 44.793 -40.064 47.478 -42.741 50.159 C-43.874 51.297 -45.004 52.439 -46.13 53.584 C-47.7 55.178 -49.282 56.759 -50.868 58.338 C-51.099 58.575 -51.099 58.575 -52.269 59.778 C-55.477 62.934 -55.477 62.934 -58.321 63.291 C-58.875 63.195 -59.429 63.099 -60 63 C-59.575 58.508 -56.564 56.163 -53.47 53.13 C-52.895 52.554 -52.319 51.978 -51.726 51.384 C-50.152 49.81 -48.569 48.244 -46.985 46.681 C-45.328 45.043 -43.681 43.397 -42.032 41.752 C-38.911 38.64 -35.782 35.536 -32.65 32.434 C-29.085 28.902 -25.527 25.361 -21.971 21.82 C-14.657 14.537 -7.332 7.265 0 0 Z " fill="#6D828B" transform="translate(92,31)"/>
<path d="M0 0 C1.32 0 2.64 0 4 0 C4 0.66 4 1.32 4 2 C4.699 1.965 5.397 1.93 6.117 1.895 C7.036 1.866 7.956 1.839 8.875 1.812 C9.105 1.8 9.105 1.8 10.27 1.736 C11.617 1.707 11.617 1.707 14 2 C14.33 2.495 14.33 2.495 16 5 C12.7 5.33 9.4 5.66 6 6 C6 6.33 6 6.66 6 7 C9.63 7.33 13.26 7.66 17 8 C17 10.64 17 13.28 17 16 C12.71 16 8.42 16 4 16 C4.33 17.65 4.66 19.3 5 21 C6.307 21.568 6.307 21.568 7.941 21.488 C8.525 21.472 9.108 21.456 9.709 21.439 C10.321 21.398 10.932 21.356 11.562 21.312 C11.87 21.301 11.87 21.301 13.428 21.244 C14.954 21.185 16.476 21.103 18 21 C18.643 27.082 18.643 27.082 16.992 29.438 C15.699 30.676 14.367 31.844 13 33 C11.654 34.325 10.95 35.311 10 37 C10.153 38.937 10.413 40.202 11 42 C11.126 42.522 11.253 43.044 11.383 43.582 C12.445 47.551 12.445 47.551 14.02 48.824 C15.125 49.375 15.125 49.375 17 50 C14.69 50 12.38 50 10 50 C10 48.02 10 46.04 10 44 C7.69 44 5.38 44 3 44 C3.812 42 3.812 42 5 40 C6.574 39.875 6.574 39.875 8 40 C7.835 39.648 7.67 39.296 7.5 38.934 C6.875 37.062 6.665 35.963 7 34 C8.581 32.29 10.147 30.91 12.016 29.537 C12.379 29.264 12.743 28.992 13.117 28.711 C13.453 28.477 13.79 28.243 14.136 28.001 C15 27 15 27 16 23 C10.39 22.67 4.78 22.34 -1 22 C-1.375 16.125 -1.375 16.125 -1.478 14.282 C-1.514 13.799 -1.549 13.317 -1.586 12.82 C-1.617 12.328 -1.649 11.836 -1.681 11.329 C-2.071 9.703 -2.741 9.064 -4 8 C-3.519 7.908 -3.038 7.817 -2.543 7.723 C-2.288 7.603 -2.288 7.603 -1 7 C-0.488 5.371 -0.488 5.371 -0.312 3.438 C-0.28 3.117 -0.28 3.117 -0.113 1.496 C-0.095 1.249 -0.095 1.249 0 0 Z " fill="#456367" transform="translate(161,102)"/>
<path d="M0 0 C28.38 0 56.76 0 86 0 C86 0.99 86 1.98 86 3 C85 4 85 4 83.549 4.123 C83.237 4.123 83.237 4.123 81.653 4.12 C80.936 4.122 80.22 4.123 79.481 4.124 C79.086 4.123 79.086 4.123 77.084 4.114 C76.246 4.113 75.409 4.113 74.571 4.114 C72.292 4.114 70.013 4.108 67.735 4.101 C65.355 4.095 62.975 4.095 60.596 4.093 C56.087 4.09 51.579 4.082 47.07 4.072 C41.939 4.061 36.807 4.055 31.675 4.05 C21.117 4.04 10.558 4.022 0 4 C0 2.68 0 1.36 0 0 Z " fill="#889BA2" transform="translate(93,31)"/>
<path d="M0 0 C5.94 0 11.88 0 18 0 C17.67 0.165 17.67 0.165 16 1 C15.892 2.699 15.909 4.222 16.023 5.91 C16.048 6.397 16.073 6.884 16.099 7.386 C16.182 8.945 16.278 10.504 16.375 12.062 C16.433 13.118 16.491 14.173 16.547 15.229 C16.687 17.82 16.84 20.41 17 23 C8.703 23.885 8.703 23.885 5.031 21.976 C1.933 19.226 0.668 16.807 0.195 12.695 C0.138 11.173 0.121 9.649 0.125 8.125 C0.084 5.444 0.042 2.762 0 0 Z " fill="#BCE2E2" transform="translate(62,146)"/>
<path d="M0 0 C5.94 0 11.88 0 18 0 C17.67 0.66 17.34 1.32 17 2 C16.909 3.171 16.868 4.345 16.859 5.52 C16.84 6.212 16.821 6.905 16.801 7.619 C16.767 9.069 16.749 10.52 16.746 11.971 C16.622 15.491 16.329 18.206 14.078 21.012 C10.847 23.843 7.065 23.427 3.012 23.176 C2.348 23.118 1.684 23.06 1 23 C1.003 22.687 1.003 22.687 1.016 21.104 C1.034 18.782 1.045 16.46 1.055 14.138 C1.06 13.133 1.067 12.128 1.075 11.123 C1.088 9.678 1.093 8.234 1.098 6.789 C1.103 6.34 1.108 5.891 1.113 5.428 C1.114 3.229 1.002 2.005 0 0 Z " fill="#BCE3E2" transform="translate(192,146)"/>
<path d="M0 0 C6.6 0 13.2 0 20 0 C19.34 5.94 18.68 11.88 18 18 C12.39 18 6.78 18 1 18 C0.67 12.06 0.34 6.12 0 0 Z " fill="#BDE4E3" transform="translate(62,117)"/>
<path d="M0 0 C6.27 0 12.54 0 19 0 C18.67 5.94 18.34 11.88 18 18 C12.72 18 7.44 18 2 18 C1.34 12.06 0.68 6.12 0 0 Z " fill="#BEE6E5" transform="translate(190,117)"/>
<path d="M0 0 C1.939 -0.041 3.877 -0.083 5.875 -0.125 C6.483 -0.143 7.092 -0.161 7.718 -0.18 C7.959 -0.183 7.959 -0.183 9.18 -0.195 C9.672 -0.206 10.164 -0.216 10.671 -0.227 C12 0 12 0 13.162 0.808 C14.265 2.376 14.244 3.357 14.23 5.266 C14.229 5.909 14.227 6.552 14.225 7.215 C14.212 7.886 14.2 8.558 14.188 9.25 C14.187 9.906 14.186 10.562 14.186 11.238 C14.15 15.25 13.802 19.069 13 23 C14.587 22.939 16.165 22.852 17.75 22.75 C18.193 22.736 18.637 22.722 19.094 22.707 C22.158 22.482 24.188 21.706 26.254 19.377 C27.844 16.442 27.602 13.076 27.625 9.812 C27.65 8.361 27.684 6.909 27.727 5.457 C27.733 4.817 27.738 4.178 27.745 3.519 C27.829 3.018 27.913 2.516 28 2 C28.66 1.67 29.32 1.34 30 1 C31.106 17.834 31.106 17.834 27.875 22.562 C24.154 25.977 19.445 25.55 14.675 25.36 C13.115 25.263 11.557 25.134 10 25 C10.33 21.04 10.66 17.08 11 13 C7.37 13 3.74 13 0 13 C0 8.71 0 4.42 0 0 Z " fill="#394E55" transform="translate(180,146)"/>
<path d="M0 0 C5.61 0 11.22 0 17 0 C17 5.61 17 11.22 17 17 C11.72 17 6.44 17 1 17 C0.67 11.39 0.34 5.78 0 0 Z " fill="#7C9CA1" transform="translate(127,170)"/>
<path d="M0 0 C24.746 -0.355 49.51 0.46 74.248 1.037 C74.248 1.367 74.248 1.697 74.248 2.037 C73.828 1.998 73.408 1.959 72.976 1.919 C59.416 0.679 45.858 -0.084 32.248 -0.463 C31.733 -0.478 31.219 -0.493 30.688 -0.508 C5.334 -1.215 -16.453 -1.087 -35.93 16.981 C-39.251 20.207 -42.347 23.601 -45.377 27.1 C-45.626 27.386 -45.626 27.386 -46.883 28.836 C-52.96 35.921 -58.558 43.285 -63.752 51.037 C-63.875 48.217 -63.875 48.217 -62.774 46.595 C-62.326 46.108 -61.878 45.621 -61.417 45.119 C-60.929 44.587 -60.442 44.056 -59.94 43.508 C-59.424 42.961 -58.909 42.413 -58.377 41.85 C-57.87 41.291 -57.362 40.732 -56.838 40.156 C-54.012 37.11 -54.012 37.11 -52.752 36.037 C-52.092 36.037 -51.432 36.037 -50.752 36.037 C-50.308 35.081 -49.866 34.123 -49.432 33.162 C-48.634 31.841 -47.808 31.197 -46.565 30.287 C-43.748 28.185 -41.608 25.688 -39.34 23.03 C-37.707 21.122 -36.057 19.288 -34.252 17.537 C-32.484 15.821 -30.863 14.025 -29.27 12.145 C-28.078 10.749 -26.854 9.384 -25.625 8.021 C-24.817 7.11 -24.045 6.168 -23.276 5.225 C-19.227 0.906 -15.344 0.3 -9.698 0.091 C-7.812 0.057 -5.927 0.044 -4.041 0.042 C-2.694 0.037 -1.347 0.02 0 0 Z M-66.752 51.037 C-66.092 51.367 -65.432 51.697 -64.752 52.037 C-69.702 56.987 -74.652 61.937 -79.752 67.037 C-79.752 63.996 -79.646 63.246 -77.752 61.037 C-77.092 61.037 -76.432 61.037 -75.752 61.037 C-75.752 60.377 -75.752 59.717 -75.752 59.037 C-74.468 57.77 -73.199 56.622 -71.815 55.475 C-71.077 54.848 -70.338 54.222 -69.6 53.596 C-69.295 53.339 -69.295 53.339 -67.752 52.037 C-67.422 51.707 -67.092 51.377 -66.752 51.037 Z " fill="#232B2B" transform="translate(106.75244140625,23.962890625)"/>
<path d="M0 0 C3.375 3.375 3.375 3.375 3.399 6.512 C3.411 7.214 3.424 7.917 3.437 8.641 C3.435 9.406 3.434 10.171 3.432 10.96 C3.443 11.77 3.453 12.58 3.463 13.414 C3.491 15.631 3.5 17.847 3.506 20.064 C3.515 22.383 3.542 24.701 3.566 27.019 C3.61 31.407 3.638 35.795 3.661 40.183 C3.688 45.179 3.732 50.176 3.778 55.172 C3.871 65.448 3.942 75.724 4 86 C2.68 86 1.36 86 0 86 C0 57.62 0 29.24 0 0 Z " fill="#3D5057" transform="translate(31,92)"/>
<path d="M0 0 C0.66 0 1.32 0 2 0 C2 27.39 2 54.78 2 83 C1.01 83 0.02 83 -1 83 C-1.023 72.326 -1.041 61.652 -1.052 50.977 C-1.057 46.021 -1.064 41.066 -1.075 36.11 C-1.085 31.791 -1.092 27.473 -1.094 23.155 C-1.095 20.867 -1.098 18.579 -1.106 16.292 C-1.114 13.741 -1.114 11.191 -1.114 8.641 C-1.117 7.878 -1.121 7.115 -1.124 6.328 C-1.123 5.637 -1.122 4.946 -1.12 4.233 C-1.121 3.63 -1.122 3.026 -1.123 2.404 C-1 1 -1 1 0 0 Z " fill="#3F5158" transform="translate(238,94)"/>
<path d="M0 0 C21.45 0 42.9 0 65 0 C65 0.33 65 0.66 65 1 C63.042 1.174 61.084 1.339 59.125 1.5 C58.832 1.524 58.832 1.524 57.348 1.647 C52.849 1.993 48.433 2.024 43.926 1.84 C41.637 2.03 41.533 2.444 40 4 C39.142 4.039 38.284 4.068 37.426 4.09 C36.096 4.312 36.096 4.312 35 5 C34.158 7.819 34.21 10.637 34.188 13.562 C34.126 16.347 34.064 19.131 34 22 C27.73 22 21.46 22 15 22 C14.75 12.562 14.75 12.562 14.702 9.584 C14.672 8.815 14.641 8.046 14.609 7.254 C14.588 6.463 14.567 5.672 14.546 4.858 C14.366 4.245 14.186 3.632 14 3 C12.123 2.254 12.123 2.254 10 2 C9.547 1.932 9.094 1.864 8.628 1.795 C8.23 1.758 7.832 1.721 7.422 1.684 C6.984 1.642 6.545 1.6 6.094 1.557 C5.872 1.537 5.872 1.537 4.75 1.438 C4.291 1.394 3.832 1.351 3.359 1.307 C2.24 1.202 1.12 1.1 0 1 C0 0.67 0 0.34 0 0 Z M16 4 C16.33 9.61 16.66 15.22 17 21 C22.28 21 27.56 21 33 21 C33 15.39 33 9.78 33 4 C27.39 4 21.78 4 16 4 Z " fill="#425C61" transform="translate(111,166)"/>
<path d="M0 0 C0.33 0 0.66 0 1 0 C1.055 0.937 1.093 1.875 1.125 2.812 C1.148 3.335 1.171 3.857 1.195 4.395 C0.943 6.467 0.361 7.419 -1 9 C-2.709 9.375 -2.709 9.375 -4.796 9.374 C-5.191 9.378 -5.191 9.378 -7.192 9.395 C-8.069 9.388 -8.947 9.38 -9.824 9.372 C-10.747 9.375 -11.671 9.378 -12.594 9.383 C-15.102 9.393 -17.61 9.383 -20.118 9.37 C-22.741 9.359 -25.364 9.363 -27.987 9.365 C-32.392 9.366 -36.797 9.355 -41.202 9.336 C-46.298 9.315 -51.393 9.312 -56.488 9.318 C-61.386 9.323 -66.285 9.318 -71.183 9.307 C-73.269 9.302 -75.355 9.301 -77.441 9.303 C-79.897 9.305 -82.353 9.297 -84.809 9.281 C-85.711 9.277 -86.613 9.276 -87.515 9.279 C-88.745 9.282 -89.975 9.272 -91.204 9.261 C-91.549 9.26 -91.549 9.26 -93.291 9.254 C-95 9 -95 9 -96.225 8.078 C-97.274 6.619 -97.202 5.651 -97.125 3.875 C-97.107 3.336 -97.089 2.797 -97.07 2.242 C-97.047 1.832 -97.024 1.422 -97 1 C-96.67 1.165 -96.67 1.165 -95 2 C-94.722 3.694 -94.911 5.274 -95 7 C-82.909 7.01 -70.818 6.985 -58.727 6.92 C-53.113 6.89 -47.499 6.872 -41.885 6.88 C-36.992 6.887 -32.101 6.873 -27.208 6.834 C-24.617 6.814 -22.026 6.804 -19.435 6.82 C-16.996 6.834 -14.56 6.82 -12.122 6.785 C-11.226 6.777 -10.33 6.779 -9.434 6.793 C-6.853 6.828 -4.456 6.839 -2 6 C-0.918 4.413 -0.553 3.171 -0.227 1.285 C-0.152 0.861 -0.077 0.437 0 0 Z " fill="#43575C" transform="translate(184,203)"/>
<path d="M0 0 C2.357 2.357 2.288 2.963 2.449 6.176 C2.471 6.583 2.493 6.99 2.515 7.409 C2.559 8.271 2.598 9.132 2.633 9.994 C2.687 11.298 2.757 12.601 2.83 13.904 C3.178 20.819 3.178 20.819 2.488 23.828 C1.796 26.906 2.359 29.541 2.844 32.621 C2.974 34.603 2.898 35.744 2.5 37.617 C1.709 41.809 2.142 46.003 2.409 50.229 C2.873 57.665 3.192 64.864 2.156 72.27 C2.105 72.841 2.053 73.412 2 74 C2.33 74.33 2.66 74.66 3 75 C2.914 76.348 2.914 76.348 2.625 78.062 C2.18 80.85 1.782 83.635 1.438 86.438 C1.354 87.117 1.27 87.796 1.184 88.496 C1.153 88.744 1.153 88.744 1 90 C0.67 90 0.34 90 0 90 C0 60.3 0 30.6 0 0 Z " fill="#2C302D" transform="translate(245,91)"/>
<path d="M0 0 C0.99 0 1.98 0 3 0 C3 0.66 3 1.32 3 2 C3.808 1.942 4.616 1.884 5.449 1.824 C13.761 1.403 13.761 1.403 16.945 2.938 C18.811 4.643 19.807 5.734 20.195 8.281 C20.167 9.942 20.061 10.705 19 12 C15.993 12.68 12.996 12.465 9.938 12.312 C9.075 12.287 8.212 12.265 7.35 12.244 C5.232 12.185 3.116 12.095 1 12 C0.67 8.04 0.34 4.08 0 0 Z " fill="#79979D" transform="translate(190,99)"/>
<path d="M0 0 C0.99 0 1.98 0 3 0 C3 3.96 3 7.92 3 12 C0.453 12.115 -2.087 12.214 -4.635 12.275 C-5.502 12.3 -6.368 12.334 -7.234 12.377 C-9.883 12.506 -12.405 12.587 -15 12 C-16.065 10.703 -16.175 9.941 -16.204 8.276 C-15.799 5.744 -14.659 4.678 -12.809 3 C-9.744 1.305 -6.554 1.269 -3.109 1.141 C-1 1 -1 1 0 0 Z " fill="#79979D" transform="translate(78,99)"/>
<path d="M0 0 C0.41 -0 0.82 -0.001 1.242 -0.001 C2.595 0.001 3.947 0.016 5.3 0.032 C6.239 0.035 7.178 0.038 8.117 0.04 C10.586 0.048 13.055 0.068 15.524 0.09 C18.045 0.11 20.565 0.119 23.085 0.129 C28.03 0.151 32.973 0.185 37.917 0.227 C37.917 2.537 37.917 4.847 37.917 7.227 C40.227 7.227 42.537 7.227 44.917 7.227 C44.587 7.887 44.257 8.547 43.917 9.227 C42.359 9.493 42.359 9.493 40.48 9.477 C40.171 9.48 40.171 9.48 38.609 9.493 C36.917 9.227 36.917 9.227 35.757 8.461 C34.917 7.227 34.917 7.227 34.623 5.177 C34.39 4.533 34.157 3.89 33.917 3.227 C32.13 2.757 32.13 2.757 29.789 2.801 C29.578 2.803 29.578 2.803 28.511 2.81 C27.124 2.824 25.741 2.869 24.355 2.915 C23.401 2.934 22.447 2.951 21.494 2.968 C19.089 3.017 16.685 3.093 14.281 3.18 C13 3.224 11.719 3.26 10.438 3.294 C8.263 3.356 6.091 3.441 3.917 3.54 C3.279 3.562 2.64 3.584 1.982 3.607 C-2.081 3.85 -4.811 4.787 -8.083 7.227 C-5.408 -0.032 -5.408 -0.032 0 0 Z " fill="#D3F5F2" transform="translate(122.08251953125,116.77294921875)"/>
<path d="M0 0 C3.3 0 6.6 0 10 0 C10 4.95 10 9.9 10 15 C3.066 15.098 3.066 15.098 1 15 C0 14 0 14 -0.114 12.601 C-0.111 12.311 -0.111 12.311 -0.098 10.84 C-0.094 10.211 -0.091 9.583 -0.088 8.936 C-0.08 8.276 -0.071 7.617 -0.062 6.938 C-0.058 6.274 -0.053 5.611 -0.049 4.928 C-0.037 3.285 -0.019 1.643 0 0 Z " fill="#3F535A" transform="translate(194,84)"/>
<path d="M0 0 C6.241 -0.116 12.482 -0.205 18.723 -0.259 C21.622 -0.285 24.519 -0.321 27.417 -0.377 C30.211 -0.431 33.005 -0.461 35.8 -0.474 C36.869 -0.484 37.937 -0.502 39.005 -0.529 C40.498 -0.565 41.987 -0.57 43.48 -0.568 C43.925 -0.586 44.371 -0.604 44.829 -0.622 C46.057 -0.601 46.057 -0.601 48 0 C48.743 1.713 48.833 3.104 49 5 C48.34 4.67 47.68 4.34 47 4 C45.473 3.881 43.987 3.815 42.458 3.795 C42 3.785 41.541 3.775 41.068 3.765 C39.554 3.733 38.039 3.708 36.523 3.684 C35.473 3.663 34.422 3.642 33.371 3.621 C30.606 3.565 27.84 3.516 25.075 3.468 C22.253 3.418 19.431 3.362 16.609 3.307 C11.073 3.199 5.537 3.098 0 3 C0 2.01 0 1.02 0 0 Z " fill="#859EA3" transform="translate(112,192)"/>
<path d="M0 0 C2.778 2.403 4.583 5.513 5.348 9.086 C5.409 11.108 5.111 11.855 3.871 13.481 C0.286 16.913 -3.795 19.716 -7.877 22.519 C-11.108 24.748 -14.165 27.201 -17.25 29.625 C-18.295 30.432 -19.342 31.237 -20.391 32.039 C-20.824 32.371 -21.258 32.703 -21.704 33.045 C-23.107 34.078 -24.544 35.044 -26 36 C-30.493 29.595 -32.994 25.061 -32 17 C-31.916 16.146 -31.834 15.292 -31.754 14.438 C-31.542 12.286 -31.284 10.143 -31 8 C-30.34 8.33 -29.68 8.66 -29 9 C-28.836 10.579 -28.836 10.579 -28.945 12.605 C-28.97 13.342 -28.994 14.079 -29.02 14.838 C-29.089 16.385 -29.167 17.932 -29.254 19.479 C-29.412 24.828 -28.532 27.932 -25 32 C-24.216 31.4 -23.432 30.8 -22.648 30.199 C-22.133 29.805 -21.617 29.41 -21.086 29.003 C-19.934 28.117 -18.785 27.228 -17.638 26.335 C-14.456 23.859 -11.247 21.452 -7.949 19.133 C-7.3 18.661 -6.65 18.19 -5.981 17.704 C-4.718 16.788 -3.439 15.892 -2.144 15.02 C-0.444 13.763 0.843 12.772 2 11 C1.9 8.401 0.993 6.371 0 4 C-0.125 1.563 -0.125 1.563 0 0 Z " fill="#60797A" transform="translate(112,57)"/>
<path d="M0 0 C0.33 0 0.66 0 1 0 C1 1.65 1 3.3 1 5 C-4.28 5 -9.56 5 -15 5 C-15 6.444 -15 7.888 -15 9.375 C-15 12.917 -15 16.458 -15 20 C-16.169 19.72 -17.336 19.425 -18.5 19.125 C-19.15 18.963 -19.799 18.8 -20.469 18.633 C-20.974 18.424 -21.479 18.215 -22 18 C-22 17.34 -22 16.68 -22 16 C-24.97 15.67 -27.94 15.34 -31 15 C-28 12 -28 12 -26.65 11.659 C-26.205 11.675 -25.759 11.691 -25.301 11.707 C-24.814 11.717 -24.328 11.726 -23.826 11.736 C-23.576 11.749 -23.576 11.749 -22.312 11.812 C-21.801 11.826 -21.29 11.84 -20.764 11.854 C-19.509 11.889 -18.254 11.943 -17 12 C-17.012 11.434 -17.023 10.868 -17.035 10.285 C-17.044 9.552 -17.053 8.818 -17.062 8.062 C-17.074 7.332 -17.086 6.601 -17.098 5.848 C-17 4 -17 4 -16 3 C-14.525 2.934 -14.525 2.934 -12.656 3.008 C-12.322 3.016 -12.322 3.016 -10.629 3.059 C-9.209 3.103 -7.79 3.155 -6.371 3.215 C-5.702 3.229 -5.033 3.243 -4.344 3.258 C-3.727 3.28 -3.11 3.302 -2.475 3.325 C-1.988 3.218 -1.501 3.11 -1 3 C-0.354 1.484 -0.354 1.484 0 0 Z " fill="#466468" transform="translate(175,96)"/>
<path d="M0 0 C0.33 0 0.66 0 1 0 C1 2.64 1 5.28 1 8 C2.217 7.979 3.434 7.959 4.688 7.938 C7.957 7.932 10.836 8.209 14 9 C12.917 11.618 11.801 13.784 9.418 15.473 C6.148 16.689 2.429 16.198 -1 16 C-1 18.31 -1 20.62 -1 23 C-2.65 23 -4.3 23 -6 23 C-5.418 19.894 -4.551 18.312 -2.438 16 C1.241 11.17 0.426 5.759 0 0 Z " fill="#416467" transform="translate(112,100)"/>
<path d="M0 0 C6.93 0 13.86 0 21 0 C21 6.93 21 13.86 21 21 C14.4 21 7.8 21 1 21 C0.67 14.07 0.34 7.14 0 0 Z M1 1 C1.66 6.94 2.32 12.88 3 19 C8.28 19 13.56 19 19 19 C19.33 13.06 19.66 7.12 20 1 C13.73 1 7.46 1 1 1 Z " fill="#6E898B" transform="translate(189,116)"/>
<path d="M0 0 C15.84 0 31.68 0 48 0 C48 0.33 48 0.66 48 1 C36.12 1.33 24.24 1.66 12 2 C12 2.33 12 2.66 12 3 C11.457 3.003 10.915 3.005 10.355 3.008 C9.64 3.046 8.925 3.085 8.188 3.125 C7.48 3.148 6.772 3.171 6.043 3.195 C4 4 4 4 3.374 5.38 C3.179 5.925 2.983 6.47 2.781 7.031 C2.065 8.668 2.065 8.668 1 10 C-1.907 10.783 -4.703 10.566 -7.688 10.375 C-8.086 10.361 -8.086 10.361 -10.104 10.293 C-12.072 10.222 -14.035 10.124 -16 10 C-15.67 9.34 -15.34 8.68 -15 8 C-13.51 7.773 -13.51 7.773 -11.621 7.805 C-11.284 7.808 -11.284 7.808 -9.58 7.824 C-8.873 7.841 -8.166 7.858 -7.438 7.875 C-6.727 7.884 -6.016 7.893 -5.283 7.902 C-3.522 7.926 -1.761 7.962 0 8 C0 5.36 0 2.72 0 0 Z " fill="#C2E5E3" transform="translate(112,116)"/>
<path d="M0 0 C0.66 0.33 1.32 0.66 2 1 C2.243 2.395 2.243 2.395 2.23 4.168 C2.229 4.814 2.227 5.461 2.225 6.127 C2.212 6.807 2.2 7.487 2.188 8.188 C2.187 8.848 2.186 9.509 2.186 10.189 C2.15 14.218 1.807 18.052 1 22 C2.587 21.939 4.165 21.852 5.75 21.75 C6.193 21.736 6.637 21.722 7.094 21.707 C10.158 21.482 12.188 20.706 14.254 18.377 C15.844 15.442 15.602 12.076 15.625 8.812 C15.65 7.361 15.684 5.909 15.727 4.457 C15.733 3.817 15.738 3.178 15.745 2.519 C15.829 2.018 15.913 1.516 16 1 C16.66 0.67 17.32 0.34 18 0 C19.106 16.834 19.106 16.834 15.875 21.562 C12.154 24.977 7.445 24.55 2.675 24.36 C1.114 24.262 -0.442 24.145 -2 24 C-1.923 23.602 -1.923 23.602 -1.535 21.586 C-0.819 17.29 -0.649 12.97 -0.438 8.625 C-0.394 7.785 -0.351 6.945 -0.307 6.105 C-0.201 4.07 -0.099 2.035 0 0 Z " fill="#6F8A8D" transform="translate(192,147)"/>
<path d="M0 0 C4.62 0 9.24 0 14 0 C14 2.64 14 5.28 14 8 C9.38 8 4.76 8 0 8 C0 5.36 0 2.72 0 0 Z " fill="#7B9CA0" transform="translate(93,110)"/>
<path d="M0 0 C6.93 0 13.86 0 21 0 C20.67 6.93 20.34 13.86 20 21 C13.4 21 6.8 21 0 21 C0 14.73 0 8.46 0 2 C0.33 2 0.66 2 1 2 C1 7.61 1 13.22 1 19 C6.61 19 12.22 19 18 19 C17.938 12.75 17.938 12.75 17.91 10.804 C17.907 10.286 17.905 9.768 17.902 9.234 C17.9 8.973 17.9 8.973 17.886 7.647 C18 6 18 6 19 2 C12.73 1.67 6.46 1.34 0 1 C0 0.67 0 0.34 0 0 Z " fill="#678183" transform="translate(62,116)"/>
<path d="M0 0 C0.452 0.348 0.904 0.695 1.37 1.053 C6.598 5.028 11.953 8.78 17.411 12.434 C18.832 13.388 20.247 14.352 21.662 15.316 C22.573 15.928 23.483 16.538 24.395 17.148 C24.604 17.292 24.604 17.292 25.664 18.019 C27.343 19.131 28.709 19.954 30.714 20.271 C32 20 32 20 33.18 18.516 C34.62 15.135 34.208 11.347 34.125 7.75 C34.116 7.005 34.107 6.26 34.098 5.492 C34.074 3.661 34.041 1.831 34 0 C34.66 0 35.32 0 36 0 C36.1 2.453 36.172 4.906 36.22 7.361 C36.249 8.599 36.3 9.837 36.352 11.074 C36.427 15.739 36.166 19.355 33.188 23.108 C32.796 23.403 32.404 23.697 32 24 C29.657 23.664 28.886 23.289 27 22 C26.5 21.671 25.999 21.342 25.484 21.003 C23.772 19.831 22.104 18.611 20.438 17.375 C16.828 14.731 13.228 12.108 9.453 9.703 C8.902 9.351 8.351 8.998 7.783 8.635 C6.743 7.977 5.697 7.327 4.644 6.689 C4.178 6.392 3.711 6.095 3.23 5.789 C2.822 5.539 2.414 5.288 1.993 5.03 C0.56 3.543 0.38 1.989 0 0 Z " fill="#627C7D" transform="translate(155,66)"/>
<path d="M0 0 C4.29 0 8.58 0 13 0 C13 2.64 13 5.28 13 8 C8.71 8 4.42 8 0 8 C0 5.36 0 2.72 0 0 Z " fill="#7FA1A4" transform="translate(165,110)"/>
<path d="M0 0 C0.33 0 0.66 0 1 0 C1.004 0.459 1.008 0.917 1.012 1.389 C1.046 3.49 1.116 5.588 1.188 7.688 C1.193 8.409 1.199 9.13 1.205 9.873 C1.358 13.592 1.656 16.152 4.219 18.969 C6.806 21.167 8.973 21.768 12.312 21.812 C12.767 21.838 13.221 21.863 13.689 21.889 C14.792 21.947 15.896 21.976 17 22 C16.929 21.664 16.857 21.328 16.783 20.982 C15.926 16.511 15.884 12.166 15.938 7.625 C15.942 6.889 15.947 6.153 15.951 5.395 C15.963 3.596 15.979 1.798 16 0 C16.66 0 17.32 0 18 0 C18.33 7.92 18.66 15.84 19 24 C16.979 24.124 14.957 24.248 12.875 24.375 C12.251 24.43 11.627 24.484 10.984 24.541 C7.42 24.645 5.325 23.887 2.594 21.562 C-0.377 18.233 -0.634 15.432 -0.527 11.074 C-0.477 10.266 -0.427 9.458 -0.375 8.625 C-0.345 7.785 -0.317 6.945 -0.293 6.105 C-0.223 4.068 -0.124 2.035 0 0 Z " fill="#688284" transform="translate(62,147)"/>
<path d="M0 0 C3 3 3 3 3.361 4.538 C3.354 5.082 3.347 5.626 3.341 6.186 C3.34 6.807 3.34 7.427 3.34 8.066 C3.324 8.729 3.309 9.392 3.293 10.074 C3.289 10.758 3.284 11.442 3.28 12.146 C3.263 14.327 3.226 16.507 3.188 18.688 C3.172 20.167 3.159 21.647 3.146 23.127 C3.113 26.752 3.063 30.376 3 34 C2.01 34 1.02 34 0 34 C0 22.78 0 11.56 0 0 Z " fill="#374A51" transform="translate(31,92)"/>
<path d="M0 0 C0 1.65 0 3.3 0 5 C2.97 5 5.94 5 9 5 C9 5.33 9 5.66 9 6 C7.515 6.165 7.515 6.165 0 7 C0 7.33 0 7.66 0 8 C-1.814 8.108 -3.622 8.187 -5.438 8.25 C-5.696 8.267 -5.696 8.267 -7.002 8.352 C-8.435 8.389 -9.621 8.396 -11 8 C-11.938 6.125 -11.938 6.125 -12 4 C-10.003 -1.095 -4.547 -0.397 0 0 Z " fill="#79949A" transform="translate(110,90)"/>
<path d="M0 0 C21.45 0 42.9 0 65 0 C65 0.33 65 0.66 65 1 C63.042 1.174 61.084 1.339 59.125 1.5 C58.832 1.524 58.832 1.524 57.348 1.647 C52.849 1.993 48.433 2.024 43.926 1.84 C41.723 2.023 41.403 2.413 40 4 C37.875 3.688 37.875 3.688 36 3 C36 2.67 36 2.34 36 2 C35.811 2.001 35.811 2.001 34.857 2.007 C30.915 2.029 26.972 2.044 23.03 2.055 C21.561 2.06 20.091 2.067 18.622 2.075 C16.504 2.088 14.387 2.093 12.27 2.098 C11.617 2.103 10.965 2.108 10.293 2.113 C6.724 2.114 3.454 1.94 0 1 C0 0.67 0 0.34 0 0 Z " fill="#3F5F62" transform="translate(111,166)"/>
<path d="M0 0 C2.31 0 4.62 0 7 0 C7 3.96 7 7.92 7 12 C4.69 12 2.38 12 0 12 C0 8.04 0 4.08 0 0 Z " fill="#779399" transform="translate(69,85)"/>
<path d="M0 0 C2.97 0 5.94 0 9 0 C8.67 3.63 8.34 7.26 8 11 C5.69 11 3.38 11 1 11 C0.67 7.37 0.34 3.74 0 0 Z " fill="#7B989D" transform="translate(181,146)"/>
<path d="M0 0 C2.97 0 5.94 0 9 0 C8.67 3.63 8.34 7.26 8 11 C5.69 11 3.38 11 1 11 C0.67 7.37 0.34 3.74 0 0 Z " fill="#7E9A9F" transform="translate(82,146)"/>
<path d="M0 0 C2.771 -0.058 5.541 -0.094 8.312 -0.125 C9.098 -0.142 9.884 -0.159 10.693 -0.176 C11.451 -0.182 12.208 -0.189 12.988 -0.195 C13.685 -0.206 14.381 -0.216 15.099 -0.227 C17.263 0.031 18.283 0.702 20 2 C21.387 2.344 21.387 2.344 22.688 2.5 C23.069 2.582 23.069 2.582 25 3 C25 3.66 25 4.32 25 5 C26.094 5.379 26.094 5.379 27.5 5.562 C28.906 5.754 28.906 5.754 30 6 C30 6.33 30 6.66 30 7 C24.315 7.399 20.014 6.805 15 4 C14.67 3.67 14.34 3.34 14 3 C12.709 2.934 12.709 2.934 11.094 3.008 C10.515 3.025 9.936 3.041 9.34 3.059 C8.113 3.103 6.886 3.155 5.66 3.215 C5.371 3.222 5.371 3.222 3.906 3.258 C3.373 3.28 2.84 3.302 2.291 3.325 C1.865 3.218 1.439 3.11 1 3 C0.318 1.484 0.318 1.484 0 0 Z " fill="#4E777A" transform="translate(128,109)"/>
<path d="M0 0 C2.64 0 5.28 0 8 0 C7.67 3.96 7.34 7.92 7 12 C5.02 12 3.04 12 1 12 C0.67 8.04 0.34 4.08 0 0 Z " fill="#7E9CA2" transform="translate(195,85)"/>
<path d="M0 0 C2 4 2 4 2 14 C-4.93 14 -11.86 14 -19 14 C-19 12.02 -19 10.04 -19 8 C-18.918 8.652 -18.836 9.304 -18.752 9.976 C-18.504 10.644 -18.256 11.312 -18 12 C-16.234 12.454 -16.234 12.454 -13.965 12.391 C-13.56 12.384 -13.56 12.384 -11.514 12.352 C-10.655 12.318 -9.796 12.284 -8.938 12.25 C-8.075 12.23 -7.212 12.212 -6.35 12.195 C-4.233 12.148 -2.116 12.076 0 12 C0 8.04 0 4.08 0 0 Z " fill="#43585E" transform="translate(81,99)"/>
<path d="M0 0 C0.33 0.165 0.33 0.165 2 1 C2.149 2.744 2.187 4.325 2.125 6.062 C2.116 6.535 2.107 7.007 2.098 7.494 C2.074 8.663 2.038 9.832 2 11 C4.545 11.074 7.09 11.129 9.635 11.165 C10.502 11.18 11.368 11.2 12.234 11.226 C13.477 11.263 14.721 11.278 15.965 11.293 C16.714 11.309 17.463 11.324 18.234 11.341 C18.525 11.284 18.525 11.284 20 11 C20.752 9.482 20.752 9.482 21 8 C21 9.65 21 11.3 21 13 C14.07 13 7.14 13 0 13 C0 8.71 0 4.42 0 0 Z " fill="#485D63" transform="translate(189,100)"/>
<path d="M0 0 C1.529 0.005 3.058 0 4.587 -0.006 C9.468 -0.009 14.105 0.099 18.899 1.13 C18.899 1.46 18.899 1.79 18.899 2.13 C18.438 2.125 17.976 2.12 17.501 2.115 C9.025 2.032 0.555 2.028 -7.913 2.443 C-8.563 2.465 -9.214 2.488 -9.884 2.511 C-14.007 2.75 -16.786 3.639 -20.101 6.13 C-19.414 2.784 -19.414 2.784 -18.101 1.13 C-12.522 -0.612 -5.816 -0.024 0 0 Z " fill="#C6F0EE" transform="translate(134.1005859375,117.86962890625)"/>
<path d="M0 0 C0.413 0.364 0.825 0.727 1.25 1.102 C2.482 2.174 3.722 3.224 4.98 4.266 C6.308 5.373 7.426 6.458 8.613 7.734 C13.977 12.913 19.334 12.537 26.478 12.482 C30.965 12.333 34.85 11.742 39 10 C37.159 12.713 36.006 13.803 32.736 14.443 C30.404 14.661 28.079 14.697 25.738 14.686 C24.264 14.687 22.801 14.747 21.328 14.811 C16.007 14.908 12.484 14.313 8.484 10.633 C7.281 9.453 6.145 8.238 5 7 C4.006 6.056 3.008 5.117 2 4.188 C0.812 3.043 0.812 3.043 0 2 C0 1.34 0 0.68 0 0 Z " fill="#758A91" transform="translate(51,167)"/>
<path d="M0 0 C0.66 0.33 1.32 0.66 2 1 C0.989 2.238 -0.033 3.465 -1.062 4.688 C-1.338 5.027 -1.613 5.367 -1.896 5.717 C-5.227 9.633 -9.184 13.743 -14.483 14.444 C-16.771 14.622 -19.043 14.614 -21.335 14.542 C-22.763 14.5 -24.185 14.501 -25.613 14.508 C-32.498 14.429 -32.498 14.429 -34.79 12.471 C-35.189 11.985 -35.589 11.5 -36 11 C-35.426 11.161 -34.851 11.322 -34.26 11.487 C-30.549 12.329 -26.853 12.226 -23.062 12.25 C-22.663 12.26 -22.663 12.26 -20.643 12.312 C-15.051 12.35 -11.892 11.692 -7.811 7.894 C-6.202 6.295 -4.666 4.635 -3.131 2.965 C-2.942 2.767 -2.942 2.767 -1.988 1.766 C-1.654 1.402 -1.319 1.039 -0.974 0.665 C-0.652 0.446 -0.331 0.226 0 0 Z " fill="#72878E" transform="translate(219,167)"/>
<path d="M0 0 C0.33 0 0.66 0 1 0 C1 2.64 1 5.28 1 8 C2.217 7.979 3.434 7.959 4.688 7.938 C7.957 7.932 10.836 8.209 14 9 C12.582 12.426 11.226 14.103 8 16 C5.75 16.188 5.75 16.188 4 16 C4.283 15.184 4.577 14.373 4.875 13.562 C5.037 13.11 5.2 12.658 5.367 12.191 C6 11 6 11 8 10 C5.36 9.67 2.72 9.34 0 9 C0 6.03 0 3.06 0 0 Z " fill="#4C7174" transform="translate(112,100)"/>
<path d="M0 0 C4.62 0 9.24 0 14 0 C14 1.32 14 2.64 14 4 C9.38 4 4.76 4 0 4 C0 2.68 0 1.36 0 0 Z " fill="#738B90" transform="translate(64,140)"/>
<path d="M0 0 C4.62 0 9.24 0 14 0 C14 1.32 14 2.64 14 4 C9.38 4 4.76 4 0 4 C0 2.68 0 1.36 0 0 Z " fill="#728C90" transform="translate(194,140)"/>
<path d="M0 0 C0 0.33 0 0.66 0 1 C-6.6 1 -13.2 1 -20 1 C-14.389 -4.611 -6.921 -3.356 0 0 Z " fill="#59888B" transform="translate(150,115)"/>
<path d="M0 0 C0.66 0.33 1.32 0.66 2 1 C1.871 2.164 1.871 2.164 1.438 3.625 C0.633 7.592 1.815 10.661 4 14 C5.36 15.103 6.302 15.473 8 16 C5.69 16 3.38 16 1 16 C1 14.02 1 12.04 1 10 C-1.31 10 -3.62 10 -6 10 C-5.188 8 -5.188 8 -4 6 C-2.375 5.75 -2.375 5.75 -1 6 C-1.021 5.196 -1.041 4.391 -1.062 3.562 C-1.098 2.191 -1.098 2.191 -1 1 C-0.67 0.67 -0.34 0.34 0 0 Z " fill="#416367" transform="translate(170,136)"/>
<path d="M0 0 C6.27 0 12.54 0 19 0 C19 7 19 7 16.812 9.434 C15.892 10.124 14.953 10.792 14 11.438 C13.523 11.787 13.046 12.137 12.555 12.498 C11.383 13.353 10.2 14.185 9 15 C8.906 13.592 8.906 13.592 9 12 C10.679 10.356 12.499 9.016 14.371 7.598 C16 6 16 6 17 2 C11.39 1.67 5.78 1.34 0 1 C0 0.67 0 0.34 0 0 Z " fill="#739091" transform="translate(160,123)"/>
<path d="M0 0 C0.33 0 0.66 0 1 0 C1 2.64 1 5.28 1 8 C-1.805 8.165 -1.805 8.165 -16 9 C-13.75 14.625 -13.75 14.625 -12.375 16.812 C-12.115 17.231 -11.854 17.65 -11.586 18.082 C-11.489 18.233 -11.489 18.233 -11 19 C-11.66 19.33 -12.32 19.66 -13 20 C-14.289 19.031 -14.289 19.031 -15.625 17.5 C-16.071 17.015 -16.517 16.531 -16.977 16.031 C-18 14 -18 14 -18 7 C-12.06 7 -6.12 7 0 7 C0 4.69 0 2.38 0 0 Z " fill="#718E8F" transform="translate(111,116)"/>
<path d="M0 0 C2.772 2.374 4.499 5.586 5.32 9.109 C5.419 11.181 5.084 11.891 3.808 13.561 C0.126 17.134 -4.276 20.918 -9 23 C-10.716 22.622 -10.716 22.622 -12 22 C-11.565 21.703 -11.131 21.407 -10.683 21.101 C-9.075 19.984 -7.487 18.844 -5.909 17.685 C-5.223 17.189 -4.53 16.703 -3.831 16.228 C-1.581 14.693 0.405 13.223 2 11 C1.983 8.352 1.058 6.387 0 4 C-0.125 1.562 -0.125 1.562 0 0 Z " fill="#6D8889" transform="translate(112,57)"/>
<path d="M0 0 C2 2 2 2 2.195 4.164 C2.184 4.57 2.184 4.57 2.125 6.625 C2.107 7.442 2.089 8.26 2.07 9.102 C2.047 9.728 2.024 10.355 2 11 C4.31 11 6.62 11 9 11 C9 7.7 9 4.4 9 1 C9.33 1 9.66 1 10 1 C10 4.96 10 8.92 10 13 C6.7 13 3.4 13 0 13 C0 8.71 0 4.42 0 0 Z " fill="#455B60" transform="translate(81,146)"/>
<path d="M0 0 C1.265 1.797 2.137 3.134 1.781 5.379 C1.046 7.077 0.507 7.903 -1 9 C-4.041 9.435 -6.949 9.288 -10 9 C-8.849 7.103 -7.685 5.455 -6 4 C-3.933 3.571 -2.079 3.688 0 4 C0 2.68 0 1.36 0 0 Z " fill="#355358" transform="translate(107,114)"/>
<path d="M0 0 C0 0.99 0 1.98 0 3 C-0.449 2.979 -0.898 2.958 -1.361 2.937 C-3.386 2.854 -5.411 2.801 -7.438 2.75 C-7.791 2.733 -7.791 2.733 -9.58 2.648 C-11.467 2.612 -13.156 2.591 -15 3 C-15.973 5.016 -15.973 5.016 -16 7 C-16.66 5.02 -17.32 3.04 -18 1 C-12.06 0.67 -6.12 0.34 0 0 Z " fill="#8CA6AB" transform="translate(105,202)"/>
<path d="M0 0 C0.573 0.004 1.146 0.008 1.736 0.013 C3.56 0.03 5.383 0.067 7.207 0.105 C8.446 0.121 9.685 0.134 10.924 0.146 C13.956 0.18 16.988 0.231 20.02 0.293 C20.02 0.623 20.02 0.953 20.02 1.293 C18.062 1.467 16.103 1.632 14.145 1.793 C13.851 1.817 13.851 1.817 12.368 1.94 C7.868 2.286 3.452 2.317 -1.055 2.133 C-3.258 2.316 -3.575 2.709 -4.98 4.293 C-7.105 3.918 -7.105 3.918 -8.98 3.293 C-6.322 -0.205 -4.078 -0.114 0 0 Z " fill="#334D53" transform="translate(155.98046875,165.70703125)"/>
<path d="M0 0 C2.97 0 5.94 0 9 0 C8.67 3.63 8.34 7.26 8 11 C6.02 11 4.04 11 2 11 C2 10.67 2 10.34 2 10 C3.65 10 5.3 10 7 10 C7 7.69 7 5.38 7 3 C6.235 3.049 6.235 3.049 2.41 3.293 C1.945 3.196 1.479 3.1 1 3 C0.67 2.01 0.34 1.02 0 0 Z " fill="#85A0A5" transform="translate(181,146)"/>
<path d="M0 0 C0.66 0 1.32 0 2 0 C2.414 1.094 2.414 1.094 2.625 2.5 C2.7 2.964 2.775 3.428 2.852 3.906 C2.901 4.267 2.95 4.628 3 5 C2.01 5 1.02 5 0 5 C0 3.35 0 1.7 0 0 Z " fill="#999791" transform="translate(240,256)"/>
<path d="M0 0 C1.32 0 2.64 0 4 0 C3.688 1.5 3.688 1.5 3 3 C1.438 3.188 1.438 3.188 0 3 C0 2.01 0 1.02 0 0 Z " fill="#7F7C74" transform="translate(243,261)"/>
<path d="M0 0 C0.99 0.33 1.98 0.66 3 1 C2.67 1.66 2.34 2.32 2 3 C1.34 3 0.68 3 0 3 C0 2.01 0 1.02 0 0 Z " fill="#7E7B73" transform="translate(240,265)"/>
<path d="M0 0 C0.99 0 1.98 0 3 0 C3 0.66 3 1.32 3 2 C2.01 2 1.02 2 0 2 C0 1.34 0 0.68 0 0 Z " fill="#A09E99" transform="translate(236,261)"/>
</svg>
