<?xml version="1.0" encoding="UTF-8"?>
<!-- Generator: visioncortex VTracer 0.6.12 -->
<svg version="1.1" xmlns="http://www.w3.org/2000/svg" width="249" height="249">
<path d="M0 0 C0.238 -0.019 0.238 -0.019 1.445 -0.113 C3.375 -0.162 4.813 -0.149 6.271 1.21 C8.976 5.348 8.72 9.378 8.562 14.188 C8.556 14.582 8.556 14.582 8.521 16.576 C8.486 18.51 8.437 20.442 8.375 22.375 C8.802 22.376 9.23 22.378 9.67 22.379 C14.132 22.399 18.593 22.453 23.054 22.528 C24.718 22.553 26.38 22.565 28.044 22.571 C30.441 22.58 32.835 22.621 35.23 22.668 C35.97 22.664 36.71 22.66 37.472 22.656 C41.232 22.762 43.544 23.08 46.334 25.723 C48.998 28.664 49.246 31.522 49.375 35.375 C49.417 36.193 49.459 37.011 49.502 37.854 C49.607 40.139 49.651 42.422 49.67 44.71 C49.682 45.661 49.702 46.611 49.732 47.561 C49.774 48.953 49.791 50.342 49.801 51.734 C49.815 52.554 49.83 53.373 49.845 54.218 C49.325 56.604 48.614 57.39 46.626 58.784 C45.375 59.375 45.375 59.375 43.27 59.705 C42.645 59.926 42.019 60.147 41.375 60.375 C40.854 62.101 40.854 62.101 40.826 64.372 C40.815 64.785 40.805 65.199 40.795 65.624 C40.767 66.996 40.769 68.366 40.773 69.738 C40.766 70.691 40.757 71.644 40.747 72.597 C40.733 74.599 40.733 76.6 40.744 78.602 C40.755 81.162 40.721 83.719 40.675 86.279 C40.645 88.25 40.644 90.22 40.65 92.191 C40.649 93.134 40.639 94.077 40.618 95.019 C40.479 102.43 40.479 102.43 42.689 104.762 C44.295 105.798 44.295 105.798 45.893 106.55 C47.707 107.56 48.396 108.562 49.375 110.375 C49.662 112.405 49.662 112.405 49.719 114.734 C49.747 115.603 49.774 116.472 49.802 117.341 C49.813 117.795 49.825 118.249 49.836 118.716 C49.902 121.112 50.021 123.505 50.133 125.898 C50.249 128.418 50.363 130.937 50.433 133.458 C50.82 145.354 56.039 154.99 61.356 165.374 C68.345 179.068 68.345 179.068 68.75 185.812 C68.774 186.09 68.774 186.09 68.898 187.496 C67.996 190.736 66.283 192.694 63.375 194.375 C59.911 194.979 56.562 194.85 53.062 194.688 C52.122 194.662 51.181 194.64 50.24 194.619 C47.95 194.564 45.663 194.478 43.375 194.375 C43.436 195.166 43.496 195.956 43.559 196.771 C43.786 199.758 44.009 202.746 44.229 205.734 C44.325 207.017 44.422 208.3 44.521 209.582 C45.006 215.918 45.465 222.245 45.516 228.602 C45.522 229.044 45.529 229.486 45.536 229.942 C45.527 232.865 45.068 235.049 43.422 237.473 C40.534 239.962 37.692 240.626 33.961 240.634 C33.75 240.636 33.75 240.636 32.683 240.644 C31.3 240.653 29.918 240.647 28.535 240.641 C27.566 240.642 26.598 240.644 25.629 240.646 C23.602 240.649 21.576 240.645 19.549 240.636 C16.962 240.624 14.376 240.631 11.789 240.643 C9.789 240.65 7.789 240.648 5.79 240.643 C4.836 240.641 3.883 240.643 2.93 240.648 C-2.919 240.67 -7.515 240.564 -12.445 237.094 C-14.114 234.663 -13.819 232.676 -13.5 229.875 C-13.447 229.301 -13.394 228.726 -13.34 228.134 C-13.167 226.336 -12.976 224.541 -12.777 222.746 C-12.604 221.189 -12.437 219.632 -12.27 218.075 C-11.42 210.171 -10.533 202.272 -9.625 194.375 C-10.169 194.401 -10.713 194.427 -11.274 194.454 C-13.321 194.54 -15.365 194.603 -17.413 194.65 C-18.294 194.675 -19.175 194.709 -20.055 194.752 C-24.547 194.969 -28.446 195.019 -32.242 192.293 C-34.207 190.321 -35.055 188.842 -35.277 186.059 C-34.87 181.59 -32.546 178.149 -30.188 174.438 C-26.95 169.327 -24.062 164.628 -24.625 158.375 C-25.578 155.547 -26.955 153.107 -28.5 150.562 C-29.249 149.265 -29.996 147.967 -30.742 146.668 C-31.078 146.106 -31.415 145.544 -31.761 144.966 C-33.203 142.311 -33.752 140.139 -33.758 137.125 C-33.759 136.517 -33.76 135.908 -33.762 135.281 C-33.758 134.652 -33.754 134.023 -33.75 133.375 C-33.754 132.746 -33.758 132.117 -33.762 131.469 C-33.76 130.86 -33.759 130.252 -33.758 129.625 C-33.757 129.073 -33.756 128.522 -33.754 127.953 C-33.625 126.375 -33.625 126.375 -33.13 124.95 C-32.475 122.908 -32.462 121.061 -32.414 118.918 C-32.386 118.044 -32.357 117.169 -32.328 116.295 C-32.287 114.933 -32.25 113.571 -32.224 112.208 C-32.108 106.704 -31.772 102.11 -28.625 97.375 C-29.045 97.417 -29.464 97.458 -29.896 97.501 C-32.569 97.725 -34.73 97.739 -36.875 96 C-39.201 93.241 -39.63 89.839 -40.155 86.367 C-40.452 84.435 -40.779 82.514 -41.137 80.592 C-42.643 72.192 -42.966 63.941 -42.941 55.417 C-42.937 53.179 -42.961 50.943 -42.986 48.705 C-43.041 36.461 -41.429 27.121 -33.625 17.375 C-33.356 17.032 -33.087 16.69 -32.811 16.336 C-24.946 6.627 -12.409 0.375 0 0 Z M-16.625 91.375 C-17.875 92.25 -17.875 92.25 -18.625 93.375 C-16.75 94.5 -16.75 94.5 -14.625 95.375 C-13.375 94.5 -13.375 94.5 -12.625 93.375 C-14.5 92.25 -14.5 92.25 -16.625 91.375 Z " fill="#2D221B" transform="translate(69.625,0.625)"/>
<path d="M0 0 C5.063 3.46 10.367 6.146 15.942 8.692 C22.632 11.845 26.925 15.943 29.635 22.921 C31.769 29.597 31.198 38.152 28.358 44.519 C26.703 46.832 24.802 48.82 22.795 50.831 C21.792 51.867 20.791 52.905 19.792 53.945 C19.57 54.168 19.57 54.168 18.449 55.301 C16.473 57.506 16.227 59.197 16.184 62.056 C16.171 62.782 16.157 63.508 16.143 64.256 C16.133 65.045 16.123 65.834 16.112 66.648 C16.087 67.906 16.063 69.164 16.038 70.423 C15.978 73.51 15.927 76.597 15.881 79.684 C15.137 128.015 15.137 128.015 -0.615 143.569 C-9.736 152.001 -20.897 157.404 -33.424 157.317 C-44.359 156.644 -55.873 150.097 -63.455 142.269 C-75.492 128.211 -76.767 110.393 -76.649 92.79 C-76.635 90.058 -76.643 87.326 -76.649 84.594 C-76.651 82.255 -76.637 79.918 -76.591 77.579 C-76.254 59.486 -76.254 59.486 -81.955 53.027 C-83.1 51.847 -84.271 50.722 -85.489 49.618 C-91.131 44.238 -93.386 38.58 -93.653 30.836 C-93.596 24.097 -91.334 18.171 -86.552 13.441 C-82.177 9.728 -77.007 6.522 -71.767 4.206 C-69.272 3.039 -67.424 1.509 -65.375 -0.291 C-46.551 -16.564 -19.406 -13.305 0 0 Z " fill="#1E1510" transform="translate(209.64208984375,51.481201171875)"/>
<path d="M0 0 C0.33 0 0.66 0 1 0 C1.013 0.362 1.013 0.362 1.078 2.195 C1.359 7.542 1.666 11.387 5.059 15.73 C6.665 17.896 7.073 19.29 7 22 C4.956 24.012 2.857 25 0 25 C1.005 30.713 2.376 35.278 5.195 40.371 C6 42 6 42 6 44 C7.966 43.754 7.966 43.754 10 43 C10.519 41.247 10.519 41.247 10.546 38.939 C10.556 38.52 10.567 38.1 10.577 37.668 C10.607 36.277 10.608 34.887 10.609 33.496 C10.624 32.533 10.641 31.571 10.659 30.608 C10.703 28.071 10.723 25.535 10.738 22.998 C10.758 20.411 10.8 17.824 10.84 15.236 C10.915 10.158 10.965 5.079 11 0 C11.163 0.18 11.163 0.18 11.988 1.094 C12.207 1.326 12.207 1.326 13.312 2.5 C13.742 2.964 14.171 3.428 14.613 3.906 C16.28 5.221 16.93 5.206 19 5 C19.97 5.026 20.941 5.057 21.911 5.092 C22.471 5.112 23.032 5.132 23.609 5.152 C24.206 5.174 24.803 5.196 25.418 5.219 C25.727 5.23 25.727 5.23 27.288 5.286 C29.255 5.357 31.221 5.428 33.188 5.5 C34.523 5.548 35.858 5.596 37.193 5.645 C40.462 5.762 43.731 5.881 47 6 C47 6.33 47 6.66 47 7 C38.09 7 29.18 7 20 7 C20 19.87 20 32.74 20 46 C28.91 46 37.82 46 47 46 C47 34.78 47 23.56 47 12 C51.935 12 51.935 12 54.21 13.909 C55.893 16.233 55.604 19.091 55.609 21.855 C55.626 22.517 55.642 23.179 55.659 23.86 C55.708 25.97 55.729 28.078 55.75 30.188 C55.778 31.619 55.808 33.051 55.84 34.482 C55.914 37.988 55.963 41.494 56 45 C58.97 45.33 61.94 45.66 65 46 C64.67 46.165 64.67 46.165 63 47 C63 47.825 63 48.65 63 49.5 C63 50.325 63 51.15 63 52 C60.56 53.22 59.268 53.02 56.557 52.84 C55.626 52.784 54.694 52.729 53.763 52.676 C53.269 52.647 52.775 52.618 52.266 52.588 C49.074 52.422 45.878 52.356 42.682 52.282 C39.882 52.211 37.097 52.1 34.303 51.893 C33.753 51.856 33.202 51.82 32.635 51.782 C31.618 51.713 30.601 51.632 29.586 51.535 C23.631 51.154 19.283 52.684 13 54 C9.04 61.59 5.08 69.18 1 77 C27.4 77 53.8 77 81 77 C81 75.35 81 73.7 81 72 C81.66 71.67 82.32 71.34 83 71 C83.33 71.66 83.66 72.32 84 73 C86.062 73.125 86.062 73.125 88 73 C88 73.99 88 74.98 88 76 C88.66 75.34 89.32 74.68 90 74 C90 74.66 90 75.32 90 76 C90.66 76 91.32 76 92 76 C92.137 77.059 92.233 78.123 92.312 79.188 C92.371 79.779 92.429 80.371 92.488 80.98 C91.837 83.676 90.771 85.118 88.749 86.999 C85.092 89.092 80.768 88.502 76.688 88.312 C75.747 88.287 74.806 88.265 73.865 88.244 C71.575 88.189 69.288 88.103 67 88 C67.061 88.791 67.121 89.581 67.184 90.396 C67.411 93.383 67.634 96.371 67.854 99.359 C67.95 100.642 68.047 101.925 68.146 103.207 C68.631 109.543 69.09 115.87 69.141 122.227 C69.147 122.669 69.154 123.111 69.161 123.567 C69.152 126.49 68.693 128.674 67.047 131.098 C64.159 133.587 61.317 134.251 57.586 134.259 C57.375 134.261 57.375 134.261 56.308 134.269 C54.925 134.278 53.543 134.272 52.16 134.266 C51.191 134.267 50.223 134.269 49.254 134.271 C47.227 134.274 45.201 134.27 43.174 134.261 C40.587 134.249 38.001 134.256 35.414 134.268 C33.414 134.275 31.414 134.273 29.415 134.268 C28.461 134.266 27.508 134.268 26.555 134.273 C20.706 134.295 16.11 134.189 11.18 130.719 C9.511 128.288 9.806 126.301 10.125 123.5 C10.178 122.926 10.231 122.351 10.285 121.759 C10.458 119.961 10.649 118.166 10.848 116.371 C11.021 114.814 11.188 113.257 11.355 111.7 C12.205 103.796 13.092 95.897 14 88 C13.456 88.026 12.912 88.052 12.351 88.079 C10.304 88.165 8.26 88.228 6.212 88.275 C5.331 88.3 4.45 88.334 3.57 88.377 C-0.922 88.594 -4.821 88.644 -8.617 85.918 C-10.582 83.946 -11.43 82.467 -11.652 79.684 C-11.245 75.215 -8.921 71.774 -6.562 68.062 C-3.325 62.952 -0.437 58.253 -1 52 C-1.953 49.172 -3.33 46.732 -4.875 44.188 C-5.624 42.89 -6.371 41.592 -7.117 40.293 C-7.453 39.731 -7.79 39.169 -8.136 38.591 C-10.235 34.725 -10.183 31.248 -10.188 26.938 C-10.2 26.3 -10.212 25.663 -10.225 25.006 C-10.227 24.394 -10.228 23.783 -10.23 23.152 C-10.235 22.595 -10.239 22.038 -10.243 21.465 C-10 20 -10 20 -9.111 18.74 C-8.744 18.496 -8.378 18.252 -8 18 C-7.34 18.33 -6.68 18.66 -6 19 C-6.33 18.34 -6.66 17.68 -7 17 C-7.168 15.527 -7.168 15.527 -7.188 13.938 C-7.202 13.41 -7.216 12.883 -7.23 12.34 C-7.154 11.898 -7.078 11.456 -7 11 C-6.34 10.67 -5.68 10.34 -5 10 C-5 11.32 -5 12.64 -5 14 C-3.563 14.125 -3.563 14.125 -2 14 C-1.059 12.117 -0.835 11.208 -0.684 9.18 C-0.642 8.645 -0.6 8.11 -0.557 7.559 C-0.517 7.003 -0.478 6.447 -0.438 5.875 C-0.394 5.312 -0.351 4.748 -0.307 4.168 C-0.201 2.779 -0.099 1.39 0 0 Z " fill="#231913" transform="translate(46,107)"/>
<path d="M0 0 C1.261 0.132 2.522 0.271 3.782 0.414 C4.133 0.452 4.133 0.452 5.909 0.646 C9.209 1.205 11.94 2.567 14.875 4.125 C15.478 4.434 16.081 4.743 16.702 5.062 C20.874 7.255 24.675 9.759 28.442 12.58 C31.26 14.638 34.035 15.95 37.312 17.125 C42.355 18.948 45.898 21.418 48.312 26.312 C49.583 30.234 49.909 34.693 48.383 38.566 C46.15 42.193 43.009 45.136 39.906 48.021 C36.842 50.925 33.968 54.195 33.621 58.564 C33.604 59.482 33.603 60.4 33.615 61.318 C33.61 61.825 33.604 62.331 33.599 62.853 C33.589 63.946 33.586 65.039 33.589 66.132 C33.594 67.875 33.58 69.618 33.561 71.361 C33.524 75.074 33.51 78.787 33.5 82.5 C33.488 86.781 33.466 91.062 33.42 95.343 C33.407 97.037 33.411 98.729 33.415 100.422 C33.388 106.096 32.897 111.432 31.639 116.975 C31.519 117.5 31.4 118.026 31.277 118.568 C28.649 129.136 21.577 137.09 12.375 142.641 C11.505 143.124 10.63 143.598 9.75 144.062 C9.35 144.279 8.95 144.495 8.538 144.718 C5.887 145.994 3.873 146.239 1.07 145.591 C0.894 145.493 0.894 145.493 0 145 C-0.544 142.889 -0.657 141.509 -0.601 139.375 C-0.606 138.782 -0.61 138.189 -0.614 137.578 C-0.623 135.577 -0.595 133.577 -0.568 131.576 C-0.566 130.147 -0.567 128.719 -0.57 127.29 C-0.571 123.399 -0.542 119.509 -0.507 115.619 C-0.476 111.558 -0.473 107.496 -0.467 103.435 C-0.453 96.615 -0.422 89.794 -0.377 82.974 C-0.331 75.948 -0.296 68.922 -0.275 61.896 C-0.273 61.463 -0.272 61.03 -0.271 60.584 C-0.264 58.413 -0.258 56.241 -0.252 54.07 C-0.2 36.046 -0.111 18.023 0 0 Z " fill="#A29E97" transform="translate(180,50)"/>
<path d="M0 0 C-0.33 14.52 -0.66 29.04 -1 44 C1.815 42.123 3.09 41.13 4 38 C4.368 35.422 4.507 32.85 4.625 30.25 C4.644 29.901 4.644 29.901 4.742 28.137 C4.836 26.425 4.922 24.713 5 23 C9.677 22.977 14.353 22.959 19.03 22.948 C21.201 22.943 23.372 22.936 25.544 22.925 C28.038 22.912 30.533 22.907 33.027 22.902 C33.81 22.897 34.592 22.892 35.398 22.887 C36.119 22.887 36.839 22.887 37.582 22.886 C38.219 22.884 38.856 22.882 39.513 22.88 C41 23 41 23 42 24 C42 28.95 42 33.9 42 39 C36.225 39.165 36.225 39.165 7 40 C7.99 40.66 8.98 41.32 10 42 C9.787 43.904 8.867 45.266 8 47 C9.98 47 11.96 47 14 47 C14 47.33 14 47.66 14 48 C10.7 48 7.4 48 4 48 C4 63.51 4 79.02 4 95 C7.96 95 11.92 95 16 95 C15.208 99.927 15.208 99.927 13 102 C8.612 102.875 3.985 102.366 -0.444 101.998 C-2 102 -2 102 -4 103 C-5.07 102.004 -5.07 102.004 -6.125 100.562 C-6.302 100.326 -6.302 100.326 -7.195 99.129 C-7.461 98.756 -7.726 98.384 -8 98 C-8.001 98.511 -8.003 99.023 -8.004 99.55 C-8.022 104.362 -8.064 109.173 -8.132 113.985 C-8.166 116.46 -8.191 118.933 -8.196 121.407 C-8.2 123.794 -8.228 126.179 -8.273 128.566 C-8.286 129.477 -8.291 130.389 -8.286 131.301 C-8.276 133.937 -8.279 136.454 -9 139 C-10.332 140.055 -11.11 140.219 -12.798 140.251 C-14 140 -14 140 -15.118 139.015 C-15.344 138.504 -15.569 137.992 -15.801 137.465 C-16.055 136.902 -16.31 136.339 -16.572 135.76 C-16.694 135.459 -16.694 135.459 -17.312 133.938 C-17.576 133.363 -17.84 132.789 -18.111 132.197 C-19.704 128.527 -20.801 125.014 -20 121 C-18.977 119.758 -18.977 119.758 -17.625 119.125 C-17.184 118.901 -16.743 118.676 -16.289 118.445 C-15 118 -15 118 -13 118 C-14.451 113.889 -16.485 110.552 -19 107 C-19.413 107.681 -19.825 108.361 -20.25 109.062 C-21.066 110.176 -21.066 110.176 -22 111 C-24.188 110.75 -24.188 110.75 -26 110 C-26 111.65 -26 113.3 -26 115 C-27.487 114.78 -27.487 114.78 -29 114 C-29.261 112.374 -29.307 111.139 -29.215 109.52 C-29.198 109.069 -29.181 108.619 -29.163 108.154 C-29.123 107.197 -29.074 106.239 -29.019 105.282 C-28.939 103.836 -28.894 102.391 -28.854 100.943 C-28.596 94.812 -27.455 90.455 -23 86 C-21.587 85.844 -20.166 85.749 -18.746 85.684 C-18.326 85.663 -17.905 85.642 -17.472 85.621 C-16.128 85.555 -14.783 85.496 -13.438 85.438 C-12.527 85.394 -11.616 85.351 -10.705 85.307 C-8.47 85.199 -6.235 85.098 -4 85 C-4.615 84.356 -5.234 83.716 -5.855 83.078 C-6.2 82.721 -6.544 82.365 -6.899 81.997 C-9.826 79.346 -12.839 78.904 -16.688 79 C-17.269 79.041 -17.85 79.082 -18.449 79.125 C-20 79 -20 79 -21.23 78.102 C-21.484 77.738 -21.738 77.375 -22 77 C-21.625 75.375 -21.625 75.375 -21 74 C-21.66 74 -22.32 74 -23 74 C-23 74.66 -23 75.32 -23 76 C-23.66 76 -24.32 76 -25 76 C-25.688 74.563 -25.688 74.563 -26 73 C-25.835 72.835 -25.835 72.835 -25 72 C-25.33 72 -25.66 72 -26 72 C-26.055 71.597 -26.111 71.194 -26.168 70.778 C-26.422 68.935 -26.68 67.093 -26.938 65.25 C-27.025 64.616 -27.112 63.982 -27.201 63.328 C-27.288 62.709 -27.375 62.091 -27.465 61.453 C-27.543 60.888 -27.622 60.322 -27.703 59.739 C-28 58 -28 58 -28.521 56.172 C-29.141 53.36 -29.181 50.672 -29.203 47.801 C-29.209 47.206 -29.215 46.612 -29.22 45.999 C-29.23 44.743 -29.236 43.486 -29.24 42.23 C-29.25 40.336 -29.281 38.443 -29.312 36.549 C-29.401 26.594 -28.361 18.352 -21.16 10.922 C-15.782 5.899 -7.643 0 0 0 Z " fill="#211813" transform="translate(66,11)"/>
<path d="M0 0 C0.238 -0.019 0.238 -0.019 1.445 -0.113 C3.375 -0.162 4.813 -0.149 6.271 1.21 C8.976 5.348 8.72 9.378 8.562 14.188 C8.556 14.582 8.556 14.582 8.521 16.576 C8.486 18.51 8.437 20.442 8.375 22.375 C8.802 22.376 9.23 22.378 9.67 22.379 C14.132 22.399 18.593 22.453 23.054 22.528 C24.718 22.553 26.38 22.565 28.044 22.571 C30.441 22.58 32.835 22.621 35.23 22.668 C35.97 22.664 36.71 22.66 37.472 22.656 C41.232 22.762 43.544 23.08 46.334 25.723 C48.996 28.664 49.263 31.52 49.375 35.375 C49.406 36.198 49.438 37.021 49.47 37.87 C49.541 40.169 49.561 42.465 49.56 44.765 C49.563 46.203 49.581 47.639 49.6 49.076 C49.603 49.995 49.605 50.913 49.605 51.832 C49.61 52.657 49.614 53.482 49.618 54.331 C49.375 56.375 49.375 56.375 48.618 57.495 C46.818 58.769 45.426 58.57 43.25 58.5 C42.888 58.491 42.888 58.491 41.055 58.445 C40.5 58.422 39.946 58.399 39.375 58.375 C39.482 64.338 39.595 70.301 39.714 76.264 C39.77 79.033 39.823 81.802 39.872 84.571 C39.92 87.242 39.972 89.914 40.028 92.585 C40.048 93.605 40.067 94.625 40.084 95.645 C40.108 97.072 40.138 98.498 40.17 99.925 C40.177 100.332 40.177 100.332 40.217 102.388 C40.375 104.375 40.375 104.375 41.375 106.375 C39.725 106.375 38.075 106.375 36.375 106.375 C36.375 105.715 36.375 105.055 36.375 104.375 C36.066 104.561 36.066 104.561 34.5 105.5 C33.799 105.789 33.097 106.078 32.375 106.375 C31.268 105.706 31.268 105.706 30.375 104.375 C30.056 102.402 30.056 102.402 29.961 99.957 C29.942 99.511 29.922 99.065 29.902 98.606 C29.841 97.133 29.795 95.661 29.75 94.188 C29.712 93.165 29.674 92.143 29.635 91.121 C29.249 80.209 29.276 69.292 29.375 58.375 C29.103 58.378 29.103 58.378 27.726 58.391 C25.68 58.408 23.633 58.421 21.587 58.43 C20.706 58.435 19.826 58.442 18.945 58.45 C13.986 58.498 9.248 58.39 4.375 57.375 C4.733 56.171 5.091 54.966 5.449 53.762 C5.375 52.375 5.375 52.375 2.375 49.375 C14.255 49.375 26.135 49.375 38.375 49.375 C38.21 46.9 38.21 46.9 37.375 34.375 C25.495 34.045 13.615 33.715 1.375 33.375 C1.375 38.325 1.375 43.275 1.375 48.375 C-2.625 54.375 -2.625 54.375 -5.625 55.375 C-5.517 49.951 -5.405 44.526 -5.286 39.102 C-5.231 36.583 -5.177 34.065 -5.128 31.546 C-5.08 29.114 -5.028 26.683 -4.972 24.251 C-4.952 23.324 -4.933 22.397 -4.916 21.47 C-4.892 20.17 -4.862 18.871 -4.83 17.571 C-4.815 16.832 -4.799 16.092 -4.783 15.33 C-4.635 13.503 -4.293 12.072 -3.625 10.375 C-13.264 14.207 -24.866 19.308 -29.463 29.174 C-32.02 36.05 -32.091 42.6 -32 49.875 C-31.997 50.489 -31.995 51.103 -31.992 51.736 C-31.943 61.379 -31.179 70.52 -28.9 79.918 C-28.612 81.444 -28.581 82.825 -28.625 84.375 C-28.625 85.035 -28.625 85.695 -28.625 86.375 C-27.965 86.375 -27.305 86.375 -26.625 86.375 C-26.625 85.715 -26.625 85.055 -26.625 84.375 C-25.965 84.375 -25.305 84.375 -24.625 84.375 C-24.563 85.035 -24.501 85.695 -24.438 86.375 C-24.169 87.035 -23.901 87.695 -23.625 88.375 C-22.289 88.5 -22.289 88.5 -20.562 88.375 C-16.013 88.102 -12.285 89.706 -8.625 92.375 C-7.898 94.012 -7.898 94.012 -7.625 95.375 C-12.216 96.671 -16.795 96.846 -21.534 97.097 C-22.595 97.158 -23.656 97.227 -24.716 97.304 C-26.258 97.417 -27.8 97.503 -29.344 97.582 C-29.814 97.621 -30.284 97.661 -30.768 97.701 C-32.813 97.78 -34.106 97.737 -35.815 96.544 C-38.623 93.847 -39.347 91.559 -39.941 87.697 C-40.308 85.322 -40.697 82.955 -41.137 80.592 C-42.643 72.192 -42.966 63.941 -42.941 55.417 C-42.937 53.179 -42.961 50.943 -42.986 48.705 C-43.041 36.461 -41.429 27.121 -33.625 17.375 C-33.356 17.032 -33.087 16.69 -32.811 16.336 C-24.946 6.627 -12.409 0.375 0 0 Z M-16.625 91.375 C-17.875 92.25 -17.875 92.25 -18.625 93.375 C-16.75 94.5 -16.75 94.5 -14.625 95.375 C-13.375 94.5 -13.375 94.5 -12.625 93.375 C-14.5 92.25 -14.5 92.25 -16.625 91.375 Z " fill="#1E150E" transform="translate(69.625,0.625)"/>
<path d="M0 0 C0.33 0 0.66 0 1 0 C1.013 0.362 1.013 0.362 1.078 2.195 C1.359 7.542 1.666 11.387 5.059 15.73 C6.665 17.896 7.073 19.29 7 22 C4.956 24.012 2.857 25 0 25 C1.005 30.713 2.376 35.278 5.195 40.371 C6 42 6 42 6 44 C7.966 43.754 7.966 43.754 10 43 C10.519 41.247 10.519 41.247 10.546 38.939 C10.556 38.52 10.567 38.1 10.577 37.668 C10.607 36.277 10.608 34.887 10.609 33.496 C10.624 32.533 10.641 31.571 10.659 30.608 C10.703 28.071 10.723 25.535 10.738 22.998 C10.758 20.411 10.8 17.824 10.84 15.236 C10.915 10.158 10.965 5.079 11 0 C11.163 0.18 11.163 0.18 11.988 1.094 C12.207 1.326 12.207 1.326 13.312 2.5 C13.742 2.964 14.171 3.428 14.613 3.906 C16.28 5.221 16.93 5.206 19 5 C19.97 5.026 20.941 5.057 21.911 5.092 C22.471 5.112 23.032 5.132 23.609 5.152 C24.206 5.174 24.803 5.196 25.418 5.219 C25.727 5.23 25.727 5.23 27.288 5.286 C29.255 5.357 31.221 5.428 33.188 5.5 C34.523 5.548 35.858 5.596 37.193 5.645 C40.462 5.762 43.731 5.881 47 6 C47 6.33 47 6.66 47 7 C38.09 7 29.18 7 20 7 C20 19.87 20 32.74 20 46 C28.91 46 37.82 46 47 46 C47 34.78 47 23.56 47 12 C51.935 12 51.935 12 54.21 13.909 C55.893 16.233 55.604 19.091 55.609 21.855 C55.626 22.517 55.642 23.179 55.659 23.86 C55.708 25.97 55.729 28.078 55.75 30.188 C55.778 31.619 55.808 33.051 55.84 34.482 C55.914 37.988 55.963 41.494 56 45 C58.97 45.33 61.94 45.66 65 46 C64.67 46.165 64.67 46.165 63 47 C63 47.825 63 48.65 63 49.5 C63 50.325 63 51.15 63 52 C60.56 53.22 59.268 53.02 56.557 52.84 C55.626 52.784 54.694 52.729 53.763 52.676 C53.269 52.647 52.775 52.618 52.266 52.588 C49.074 52.422 45.878 52.356 42.682 52.282 C39.882 52.211 37.097 52.1 34.303 51.893 C33.753 51.856 33.202 51.82 32.635 51.782 C31.618 51.713 30.601 51.632 29.586 51.535 C23.631 51.154 19.283 52.684 13 54 C9.04 61.59 5.08 69.18 1 77 C27.4 77 53.8 77 81 77 C81 75.35 81 73.7 81 72 C81.66 71.67 82.32 71.34 83 71 C83.33 71.66 83.66 72.32 84 73 C86.062 73.125 86.062 73.125 88 73 C88 73.99 88 74.98 88 76 C88.66 75.34 89.32 74.68 90 74 C90.33 75.65 90.66 77.3 91 79 C90.505 79.165 90.505 79.165 88 80 C88.248 80.784 88.495 81.567 88.75 82.375 C89.172 83.711 89.172 83.711 89 85 C85.959 86.921 83.785 87.204 80.234 86.977 C79.796 86.952 79.358 86.927 78.906 86.901 C77.52 86.819 76.135 86.722 74.75 86.625 C73.805 86.567 72.859 86.509 71.914 86.453 C69.609 86.314 67.304 86.161 65 86 C68.75 83.125 68.75 83.125 71 82 C70.05 81.444 69.089 80.906 68.125 80.375 C67.591 80.073 67.058 79.772 66.508 79.461 C66.01 79.309 65.513 79.157 65 79 C64.311 79.644 63.647 80.314 63 81 C61.273 81.195 61.273 81.195 59.375 81.125 C58.743 81.107 58.112 81.089 57.461 81.07 C56.979 81.047 56.497 81.024 56 81 C56 81.33 56 81.66 56 82 C55.533 81.991 55.066 81.982 54.584 81.973 C50.171 81.893 45.758 81.832 41.343 81.793 C39.074 81.772 36.806 81.744 34.537 81.698 C32.345 81.655 30.154 81.631 27.962 81.62 C26.724 81.61 25.485 81.578 24.247 81.547 C18.687 81.545 18.687 81.545 16.655 82.891 C15.603 83.978 15.603 83.978 14.798 85.067 C13.599 86.469 12.152 86.674 10.379 86.905 C7.748 87.086 5.137 87.184 2.5 87.188 C1.944 87.2 1.389 87.212 0.816 87.225 C-3.282 87.239 -6.781 86.742 -10.114 84.126 C-11.631 82.199 -11.417 80.36 -11.347 77.984 C-10.69 74.229 -8.581 71.238 -6.562 68.062 C-3.325 62.952 -0.437 58.253 -1 52 C-1.953 49.172 -3.33 46.732 -4.875 44.188 C-5.624 42.89 -6.371 41.592 -7.117 40.293 C-7.453 39.731 -7.79 39.169 -8.136 38.591 C-10.235 34.725 -10.183 31.248 -10.188 26.938 C-10.2 26.3 -10.212 25.663 -10.225 25.006 C-10.227 24.394 -10.228 23.783 -10.23 23.152 C-10.235 22.595 -10.239 22.038 -10.243 21.465 C-10 20 -10 20 -9.111 18.74 C-8.744 18.496 -8.378 18.252 -8 18 C-7.34 18.33 -6.68 18.66 -6 19 C-6.33 18.34 -6.66 17.68 -7 17 C-7.168 15.527 -7.168 15.527 -7.188 13.938 C-7.202 13.41 -7.216 12.883 -7.23 12.34 C-7.154 11.898 -7.078 11.456 -7 11 C-6.34 10.67 -5.68 10.34 -5 10 C-5 11.32 -5 12.64 -5 14 C-3.563 14.125 -3.563 14.125 -2 14 C-1.059 12.117 -0.835 11.208 -0.684 9.18 C-0.642 8.645 -0.6 8.11 -0.557 7.559 C-0.517 7.003 -0.478 6.447 -0.438 5.875 C-0.394 5.312 -0.351 4.748 -0.307 4.168 C-0.201 2.779 -0.099 1.39 0 0 Z " fill="#19100A" transform="translate(46,107)"/>
<path d="M0 0 C1.184 0.855 1.184 0.855 2.438 2.188 C2.643 2.401 2.643 2.401 3.684 3.48 C5.213 5.246 6.599 7.131 8 9 C15.26 9.33 22.52 9.66 30 10 C30 36.4 30 62.8 30 90 C21.781 88.356 12.468 83.101 7.273 76.316 C0.553 65.082 -1.12 53.055 -1.387 40.293 C-1.412 39.161 -1.438 38.028 -1.464 36.896 C-1.517 34.535 -1.566 32.174 -1.613 29.813 C-1.673 26.782 -1.748 23.751 -1.825 20.72 C-1.882 18.388 -1.931 16.055 -1.977 13.723 C-2 12.604 -2.027 11.486 -2.057 10.367 C-2.098 8.812 -2.126 7.256 -2.151 5.7 C-2.166 5.236 -2.181 4.772 -2.196 4.294 C-2.209 3.016 -2.209 3.016 -2 1 C-1.34 0.67 -0.68 0.34 0 0 Z " fill="#A29D96" transform="translate(144,107)"/>
<path d="M0 0 C2.97 0.99 5.94 1.98 9 3 C11.749 3.221 14.215 3.339 16.938 3.25 C17.596 3.245 18.254 3.24 18.932 3.234 C23.687 3.156 23.687 3.156 26 2 C27.508 1.902 27.508 1.902 29.125 1.938 C29.664 1.947 30.203 1.956 30.758 1.965 C30.963 1.971 30.963 1.971 32 2 C32.07 7.121 32.123 12.242 32.155 17.364 C32.171 19.743 32.192 22.123 32.226 24.502 C32.449 40.267 32.523 56.084 20.961 68.219 C15.298 73.759 8.115 79 0 79 C0 52.93 0 26.86 0 0 Z " fill="#FAFBF8" transform="translate(181,117)"/>
<path d="M0 0 C0 19.14 0 38.28 0 58 C-5.61 58 -11.22 58 -17 58 C-21 54 -21 54 -22 52 C-23.843 52.341 -25.586 52.859 -27.358 53.464 C-29.005 53.908 -30.294 54.124 -32 54 C-34.123 52.665 -35.559 50.876 -37.125 48.938 C-37.541 48.459 -37.958 47.98 -38.387 47.486 C-39.637 46.022 -40.825 44.525 -42 43 C-42.194 42.756 -42.194 42.756 -43.177 41.52 C-45.909 37.83 -46.629 34.993 -46.5 30.438 C-46.515 29.886 -46.531 29.335 -46.547 28.768 C-46.511 25.011 -45.634 22.804 -43.105 20.016 C-41.602 18.634 -40.115 17.766 -38.25 16.938 C-37.547 16.61 -36.845 16.283 -36.121 15.945 C-35.421 15.633 -34.721 15.321 -34 15 C-28.044 12.344 -22.927 8.997 -17.656 5.173 C-11.288 0.611 -8.503 0 0 0 Z " fill="#F7F7F4" transform="translate(173,51)"/>
<path d="M0 0 C0.816 0.283 1.627 0.577 2.438 0.875 C2.89 1.037 3.342 1.2 3.809 1.367 C5 2 5 2 6 4 C6.259 6.577 6.231 9.162 6.25 11.75 C6.271 12.454 6.291 13.158 6.312 13.883 C6.315 14.23 6.315 14.23 6.328 15.984 C6.337 16.611 6.347 17.237 6.356 17.882 C5.627 22.219 3.918 25.535 0.336 28.142 C-3.751 31.117 -7.569 34.293 -8.606 39.469 C-9.56 46.085 -9.239 52.877 -9.044 59.537 C-8.929 63.865 -8.909 68.195 -8.884 72.524 C-8.878 73.575 -8.87 74.627 -8.86 75.679 C-8.753 88.125 -10.135 100.814 -16 112 C-16.199 112.382 -16.399 112.764 -16.604 113.158 C-22.658 124.292 -34.084 131.767 -45.965 135.641 C-48.714 136.126 -51.4 136.262 -54.188 136.312 C-54.733 136.342 -55.279 136.371 -55.842 136.4 C-57.334 136.424 -58.57 136.433 -60 136 C-60.863 133.98 -60.863 133.98 -61 132 C-60.01 132 -59.02 132 -58 132 C-58.33 130.35 -58.66 128.7 -59 127 C-58.34 127 -57.68 127 -57 127 C-57.03 126.593 -57.06 126.186 -57.091 125.767 C-58.209 109.836 -58.12 93.916 -58.069 77.955 C-58.058 74.34 -58.054 70.726 -58.049 67.111 C-58.038 60.074 -58.021 53.037 -58 46 C-57.67 46 -57.34 46 -57 46 C-57 50.95 -57 55.9 -57 61 C-55.35 60.34 -53.7 59.68 -52 59 C-51.67 80.45 -51.34 101.9 -51 124 C-45.53 123.219 -42.766 122.804 -38.5 119.938 C-38.031 119.629 -37.562 119.321 -37.078 119.004 C-26.721 111.918 -22.649 102.759 -20.288 90.765 C-19.59 86.489 -19.629 82.191 -19.681 77.869 C-19.7 76.139 -19.697 74.411 -19.688 72.68 C-19.666 67.774 -19.677 62.867 -19.715 57.961 C-19.737 54.93 -19.73 51.901 -19.705 48.871 C-19.701 47.73 -19.709 46.589 -19.728 45.449 C-19.846 38.365 -19.209 33.983 -14.488 28.535 C-13.997 28.029 -13.506 27.522 -13 27 C-12.634 26.605 -12.268 26.209 -11.89 25.802 C-11.041 24.92 -10.148 24.082 -9.25 23.25 C-6.564 20.758 -4.152 18.441 -3.912 14.59 C-3.958 12.469 -4.087 10.361 -4.254 8.246 C-4.318 6.739 -4.359 5.466 -4 4 C-1.992 2.758 -1.992 2.758 0 2 C0 1.34 0 0.68 0 0 Z " fill="#18100B" transform="translate(232,71)"/>
<path d="M0 0 C-0.108 5.572 -0.22 11.144 -0.339 16.716 C-0.395 19.303 -0.448 21.89 -0.497 24.478 C-0.545 26.974 -0.597 29.47 -0.653 31.966 C-0.673 32.919 -0.692 33.872 -0.709 34.825 C-0.733 36.159 -0.763 37.492 -0.795 38.826 C-0.81 39.585 -0.826 40.345 -0.842 41.127 C-1 43 -1 43 -2 45 C-2.158 46.228 -2.158 46.228 -2.205 47.614 C-2.225 48.134 -2.245 48.655 -2.266 49.191 C-2.274 49.47 -2.274 49.47 -2.316 50.883 C-2.337 51.457 -2.358 52.031 -2.379 52.623 C-2.445 54.457 -2.504 56.291 -2.562 58.125 C-2.606 59.369 -2.649 60.612 -2.693 61.855 C-2.8 64.903 -2.902 67.952 -3 71 C-3.375 70.93 -3.375 70.93 -5.27 70.573 C-6.266 70.389 -7.262 70.204 -8.258 70.02 C-8.75 69.927 -9.242 69.834 -9.749 69.738 C-16.316 68.527 -20.331 68.282 -26 72 C-26.055 71.597 -26.111 71.194 -26.168 70.778 C-26.422 68.935 -26.68 67.093 -26.938 65.25 C-27.025 64.616 -27.112 63.982 -27.201 63.328 C-27.288 62.709 -27.375 62.091 -27.465 61.453 C-27.543 60.888 -27.622 60.322 -27.703 59.739 C-28 58 -28 58 -28.521 56.172 C-29.141 53.36 -29.181 50.672 -29.203 47.801 C-29.209 47.206 -29.215 46.612 -29.22 45.999 C-29.23 44.743 -29.236 43.486 -29.24 42.23 C-29.25 40.336 -29.281 38.443 -29.312 36.549 C-29.401 26.594 -28.361 18.352 -21.16 10.922 C-15.782 5.899 -7.643 0 0 0 Z " fill="#F7F8F4" transform="translate(66,11)"/>
<path d="M0 0 C0.964 -0.074 1.93 -0.117 2.896 -0.133 C3.427 -0.165 3.958 -0.196 4.505 -0.228 C6.253 -0.321 7.999 -0.367 9.749 -0.405 C10.05 -0.414 10.05 -0.414 11.573 -0.46 C14.761 -0.555 17.949 -0.616 21.139 -0.647 C23.765 -0.678 26.378 -0.768 29 -0.914 C49.581 -2.037 49.581 -2.037 54.619 1.711 C60.482 7.516 62.529 16.122 64.46 23.849 C38.39 23.849 12.32 23.849 -14.54 23.849 C-3.936 1.316 -3.936 1.316 0 0 Z " fill="#FAFAF8" transform="translate(61.539703369140625,159.15061950683594)"/>
<path d="M0 0 C3.314 1.225 5.94 2.53 8.812 4.625 C13.663 8.047 18.947 10.54 24.327 13.02 C31.123 16.256 35.514 20.288 38.277 27.402 C40.411 34.078 39.84 42.633 37 49 C35.345 51.314 33.444 53.301 31.438 55.312 C30.435 56.349 29.433 57.386 28.434 58.426 C28.212 58.65 28.212 58.65 27.092 59.782 C25.115 61.987 24.869 63.678 24.826 66.537 C24.813 67.263 24.799 67.989 24.786 68.737 C24.775 69.526 24.765 70.316 24.754 71.129 C24.729 72.387 24.705 73.646 24.68 74.904 C24.62 77.991 24.569 81.078 24.523 84.165 C23.779 132.496 23.779 132.496 8.027 148.05 C-1.094 156.482 -12.255 161.886 -24.782 161.798 C-35.717 161.125 -47.231 154.578 -54.812 146.75 C-68.159 131.164 -68.202 111.02 -68.062 91.688 C-68.057 90.446 -68.053 89.204 -68.049 87.963 C-68.038 84.975 -68.021 81.988 -68 79 C-67.67 79 -67.34 79 -67 79 C-66.67 85.93 -66.34 92.86 -66 100 C-65.34 100 -64.68 100 -64 100 C-63.856 99.505 -63.711 99.01 -63.562 98.5 C-63.377 98.005 -63.191 97.51 -63 97 C-62.01 97 -61.02 97 -60 97 C-59.67 89.41 -59.34 81.82 -59 74 C-58.67 74 -58.34 74 -58 74 C-57.994 74.449 -57.988 74.899 -57.982 75.362 C-57.924 79.656 -57.851 83.949 -57.764 88.242 C-57.72 90.448 -57.681 92.653 -57.654 94.859 C-57.527 104.86 -57.219 114.429 -54 124 C-53.847 124.465 -53.693 124.929 -53.535 125.408 C-49.499 137.463 -42.497 142.388 -31.531 148.263 C-30 149 -30 149 -27 150 C-27 144.06 -27 138.12 -27 132 C-26.67 132 -26.34 132 -26 132 C-25.975 134.614 -25.957 137.229 -25.945 139.843 C-25.94 140.73 -25.933 141.618 -25.925 142.505 C-25.831 152.33 -25.831 152.33 -27 156 C-27.66 156.33 -28.32 156.66 -29 157 C-29.125 158.562 -29.125 158.562 -29 160 C-17.026 159.449 -8.036 156.559 2 150 C2.406 149.737 2.812 149.473 3.23 149.202 C13.639 142.17 17.681 128.882 19.998 117.196 C21.106 110.812 21.173 104.601 21.09 98.141 C21.081 97.085 21.072 96.029 21.064 94.973 C21.024 90.635 20.977 86.298 20.832 81.961 C20.218 62.641 20.218 62.641 24.672 56.99 C27.137 54.384 29.863 52.273 32.728 50.132 C35.257 47.882 35.826 45.257 36.275 42.011 C36.303 39.965 36.322 37.921 36.312 35.875 C36.329 35.16 36.345 34.444 36.361 33.707 C36.367 27.902 36.367 27.902 34.48 26.008 C33.992 25.675 33.503 25.343 33 25 C32.67 25.66 32.34 26.32 32 27 C30.688 27.125 30.688 27.125 29 27 C28.68 27.041 28.68 27.041 27.062 27.25 C24.741 26.969 24.636 26.787 23.211 25.121 C20.934 22.741 18.625 21.879 15.562 20.812 C8.267 18.054 2.219 13.631 -4 9 C-3.835 8.849 -3.835 8.849 -3 8.086 C-2 7 -2 7 -2 5.625 C-2 3.388 -1.065 1.931 0 0 Z " fill="#1C140E" transform="translate(201,47)"/>
<path d="M0 0 C0.238 -0.019 0.238 -0.019 1.445 -0.113 C3.438 -0.163 4.794 -0.099 6.371 1.187 C9.284 5.159 8.707 9.996 8.562 14.688 C8.547 15.532 8.534 16.376 8.521 17.221 C8.486 19.273 8.437 21.324 8.375 23.375 C7.385 23.375 6.395 23.375 5.375 23.375 C5.21 20.9 5.21 20.9 4.375 8.375 C3.385 9.365 2.395 10.355 1.375 11.375 C0.715 11.375 0.055 11.375 -0.625 11.375 C-0.584 11.849 -0.542 12.324 -0.5 12.812 C-0.541 13.328 -0.583 13.844 -0.625 14.375 C-1.285 14.705 -1.945 15.035 -2.625 15.375 C-3.039 17.004 -3.039 17.004 -3.25 18.938 C-3.325 19.578 -3.4 20.219 -3.477 20.879 C-3.526 21.373 -3.575 21.866 -3.625 22.375 C-3.955 22.375 -4.285 22.375 -4.625 22.375 C-4.652 20.938 -4.671 19.5 -4.688 18.062 C-4.699 17.262 -4.711 16.461 -4.723 15.637 C-4.636 13.63 -4.381 12.215 -3.625 10.375 C-13.264 14.207 -24.866 19.308 -29.463 29.174 C-32.02 36.05 -32.091 42.6 -32 49.875 C-31.997 50.489 -31.995 51.103 -31.992 51.736 C-31.943 61.379 -31.179 70.52 -28.9 79.918 C-28.612 81.444 -28.581 82.825 -28.625 84.375 C-28.625 85.035 -28.625 85.695 -28.625 86.375 C-27.965 86.375 -27.305 86.375 -26.625 86.375 C-26.625 85.715 -26.625 85.055 -26.625 84.375 C-25.965 84.375 -25.305 84.375 -24.625 84.375 C-24.563 85.035 -24.501 85.695 -24.438 86.375 C-24.169 87.035 -23.901 87.695 -23.625 88.375 C-22.289 88.5 -22.289 88.5 -20.562 88.375 C-16.013 88.102 -12.285 89.706 -8.625 92.375 C-7.898 94.012 -7.898 94.012 -7.625 95.375 C-12.216 96.671 -16.795 96.846 -21.534 97.097 C-22.595 97.158 -23.656 97.227 -24.716 97.304 C-26.258 97.417 -27.8 97.503 -29.344 97.582 C-29.814 97.621 -30.284 97.661 -30.768 97.701 C-32.813 97.78 -34.106 97.737 -35.815 96.544 C-38.623 93.847 -39.347 91.559 -39.941 87.697 C-40.308 85.322 -40.697 82.955 -41.137 80.592 C-42.643 72.192 -42.966 63.941 -42.941 55.417 C-42.937 53.179 -42.961 50.943 -42.986 48.705 C-43.041 36.461 -41.429 27.121 -33.625 17.375 C-33.356 17.032 -33.087 16.69 -32.811 16.336 C-24.946 6.627 -12.409 0.375 0 0 Z M-16.625 91.375 C-17.875 92.25 -17.875 92.25 -18.625 93.375 C-16.75 94.5 -16.75 94.5 -14.625 95.375 C-13.375 94.5 -13.375 94.5 -12.625 93.375 C-14.5 92.25 -14.5 92.25 -16.625 91.375 Z " fill="#20150F" transform="translate(69.625,0.625)"/>
<path d="M0 0 C10.56 0 21.12 0 32 0 C32.437 12.125 32.437 12.125 32.568 15.852 C32.606 16.883 32.645 17.914 32.684 18.945 C32.7 19.435 32.717 19.925 32.734 20.429 C32.984 26.969 33.533 33.462 34 40 C21.46 40 8.92 40 -4 40 C-2.563 27.313 -2.563 27.313 -2.115 23.4 C-1.995 22.325 -1.874 21.25 -1.754 20.176 C-1.694 19.659 -1.635 19.143 -1.573 18.611 C-0.884 12.413 -0.479 6.23 0 0 Z " fill="#A6A19A" transform="translate(70,190)"/>
<path d="M0 0 C9.57 0 19.14 0 29 0 C29 15.18 29 30.36 29 46 C19.43 46 9.86 46 0 46 C0 30.82 0 15.64 0 0 Z " fill="#A5A19A" transform="translate(70,59)"/>
<path d="M0 0 C8.91 0 17.82 0 27 0 C27 12.87 27 25.74 27 39 C18.09 39 9.18 39 0 39 C0 26.13 0 13.26 0 0 Z " fill="#A29C94" transform="translate(66,114)"/>
<path d="M0 0 C0.634 0.273 1.268 0.547 1.922 0.829 C2.5 2.607 2.5 2.607 2.602 4.907 C2.623 5.315 2.644 5.724 2.666 6.144 C2.707 7.012 2.738 7.879 2.761 8.747 C2.796 10.062 2.864 11.371 2.938 12.684 C3.143 17.187 3.071 20.796 0.922 24.829 C0.757 24.499 0.757 24.499 -0.078 22.829 C-1.42 23.127 -2.752 23.469 -4.078 23.829 C-5.297 23.789 -6.516 23.748 -7.732 23.661 C-10.555 23.48 -13.145 23.362 -15.734 24.657 C-20.438 28.959 -22.124 35.721 -23.078 41.829 C-22.583 41.994 -22.583 41.994 -20.078 42.829 C-21.117 45.115 -22.524 46.362 -24.703 47.516 C-26.297 47.997 -26.297 47.997 -28.078 47.829 C-30.87 45.837 -33.017 43.504 -35.2 40.873 C-36.078 39.829 -36.078 39.829 -37.477 38.411 C-40.369 35.077 -40.479 31.508 -40.578 27.266 C-40.597 26.712 -40.616 26.157 -40.635 25.586 C-40.577 21.834 -39.711 19.632 -37.184 16.845 C-35.68 15.462 -34.193 14.594 -32.328 13.766 C-31.637 13.449 -30.946 13.132 -30.234 12.805 C-29.523 12.483 -28.811 12.161 -28.078 11.829 C-26.659 11.104 -25.243 10.375 -23.828 9.641 C-20.371 7.848 -17.209 6.881 -13.328 6.641 C-9.861 6.14 -7.506 4.093 -4.97 1.824 C-3.178 0.304 -2.381 -0.196 0 0 Z " fill="#F9F9F6" transform="translate(167.078125,54.17138671875)"/>
<path d="M0 0 C0.33 0 0.66 0 1 0 C1.01 0.279 1.01 0.279 1.06 1.69 C1.249 6.76 1.48 11.825 1.773 16.89 C1.892 18.959 2.001 21.024 2.066 23.096 C2.431 34.491 7.193 43.65 12.273 53.617 C13.186 55.41 14.095 57.204 15 59 C15.215 59.427 15.43 59.854 15.651 60.294 C16.253 61.505 16.836 62.723 17.414 63.945 C17.746 64.634 18.078 65.322 18.42 66.032 C19.122 68.416 18.893 69.701 18 72 C16.438 72.75 16.438 72.75 15 73 C15.082 72.526 15.165 72.051 15.25 71.562 C15.168 71.047 15.085 70.531 15 70 C13.062 69.25 13.062 69.25 11 69 C10 70 10 70 9.635 71.54 C9.53 71.781 9.53 71.781 9 73 C7.628 73.369 7.628 73.369 5.843 73.361 C5.168 73.365 4.494 73.369 3.799 73.373 C3.054 73.362 2.31 73.352 1.543 73.341 C1.153 73.341 1.153 73.341 -0.822 73.342 C-2.967 73.34 -5.111 73.325 -7.256 73.304 C-9.495 73.285 -11.735 73.284 -13.974 73.28 C-18.217 73.271 -22.46 73.246 -26.703 73.216 C-31.532 73.183 -36.361 73.166 -41.191 73.151 C-51.127 73.12 -61.064 73.067 -71 73 C-71 72.67 -71 72.34 -71 72 C-44.93 72 -18.86 72 8 72 C4.37 64.74 0.74 57.48 -3 50 C-5.64 49.67 -8.28 49.34 -11 49 C-10.34 48.67 -9.68 48.34 -9 48 C-8.805 46.809 -8.805 46.809 -8.875 45.438 C-8.916 44.633 -8.958 43.829 -9 43 C-9.494 42.939 -9.987 42.879 -10.496 42.816 C-11.137 42.733 -11.777 42.649 -12.438 42.562 C-13.076 42.481 -13.714 42.4 -14.371 42.316 C-16 42 -16 42 -17 41 C-17.127 39.833 -17.127 39.833 -17.129 38.351 C-17.133 37.797 -17.136 37.242 -17.139 36.67 C-17.137 36.066 -17.135 35.462 -17.133 34.84 C-17.134 34.217 -17.135 33.593 -17.136 32.951 C-17.136 31.625 -17.135 30.3 -17.13 28.974 C-17.125 26.97 -17.13 24.967 -17.137 22.963 C-17.14 16.573 -17.105 10.313 -16 4 C-14.02 4 -12.04 4 -10 4 C-9.99 4.302 -9.99 4.302 -9.94 5.829 C-9.028 32.7 -9.028 32.7 -6 41 C-5.752 40.505 -5.505 40.01 -5.25 39.5 C-4.838 39.005 -4.425 38.51 -4 38 C-3.319 38.021 -2.639 38.041 -1.938 38.062 C-1.298 38.042 -0.659 38.021 0 38 C1.114 35.035 0.985 32.636 0.566 29.539 C-0.16 23.482 -0.111 17.467 -0.062 11.375 C-0.057 10.264 -0.053 9.154 -0.049 8.043 C-0.038 5.362 -0.021 2.681 0 0 Z " fill="#27201B" transform="translate(118,111)"/>
<path d="M0 0 C1.566 -0.125 1.566 -0.125 3 0 C5.179 24.791 5.179 24.791 5.375 32.812 C5.401 33.301 5.427 33.79 5.453 34.294 C5.468 36.851 4.952 38.389 3.289 40.262 C0.209 43.372 -4.713 43.116 -8.807 43.139 C-9.397 43.137 -9.986 43.135 -10.594 43.133 C-10.908 43.133 -10.908 43.133 -12.497 43.136 C-13.825 43.136 -15.153 43.135 -16.48 43.13 C-18.466 43.125 -20.452 43.13 -22.438 43.137 C-28.77 43.141 -35.086 43.029 -41.406 42.617 C-41.958 42.587 -42.51 42.556 -43.078 42.525 C-44.604 42.41 -44.604 42.41 -47 42 C-47.33 41.34 -47.66 40.68 -48 40 C-47.34 40 -46.68 40 -46 40 C-45.944 39.76 -45.944 39.76 -45.66 38.543 C-45.442 38.034 -45.224 37.525 -45 37 C-43.377 36.598 -42.08 36.401 -40.438 36.312 C-40.013 36.278 -39.588 36.244 -39.15 36.209 C-38.101 36.126 -37.051 36.062 -36 36 C-36.361 35.867 -36.722 35.734 -37.094 35.598 C-37.558 35.421 -38.022 35.244 -38.5 35.062 C-38.964 34.888 -39.428 34.714 -39.906 34.535 C-40.267 34.359 -40.628 34.182 -41 34 C-41 33.67 -41 33.34 -41 33 C-28.79 33 -16.58 33 -4 33 C-4.33 32.34 -4.66 31.68 -5 31 C-5.098 29.123 -5.14 27.283 -5.133 25.406 C-5.134 24.859 -5.135 24.312 -5.136 23.748 C-5.136 22.591 -5.135 21.434 -5.13 20.278 C-5.125 18.507 -5.13 16.736 -5.137 14.965 C-5.136 13.841 -5.135 12.717 -5.133 11.594 C-5.135 11.064 -5.137 10.533 -5.139 9.987 C-5.124 7.635 -5.067 6.134 -4 4 C-3.34 4 -2.68 4 -2 4 C-1.691 3.34 -1.381 2.68 -1.062 2 C-0.887 1.67 -0.887 1.67 0 0 Z " fill="#1A110B" transform="translate(108,197)"/>
<path d="M0 0 C3.314 1.225 5.94 2.53 8.812 4.625 C13.663 8.047 18.947 10.54 24.327 13.02 C31.123 16.256 35.514 20.288 38.277 27.402 C40.411 34.078 39.84 42.633 37 49 C35.345 51.314 33.444 53.301 31.438 55.312 C30.435 56.349 29.433 57.386 28.434 58.426 C27.991 58.873 27.548 59.321 27.092 59.782 C25.115 61.987 24.869 63.678 24.826 66.537 C24.813 67.263 24.799 67.989 24.786 68.737 C24.775 69.526 24.765 70.316 24.754 71.129 C24.729 72.387 24.705 73.646 24.68 74.904 C24.62 77.991 24.569 81.078 24.523 84.165 C23.779 132.496 23.779 132.496 8.027 148.05 C-3 158.244 -14.668 161.849 -29.495 161.306 C-31.26 160.947 -31.879 160.377 -33 159 C-32.568 159.021 -32.135 159.042 -31.69 159.063 C-22.6 159.445 -15.039 159.496 -7 155 C-6.575 154.77 -6.15 154.539 -5.712 154.302 C-2.719 152.663 0.16 150.89 3 149 C3.577 148.622 4.155 148.245 4.75 147.855 C14.803 140.446 18.362 126.615 20.386 114.958 C21.202 109.349 21.163 103.797 21.09 98.141 C21.081 97.085 21.072 96.029 21.064 94.973 C21.024 90.635 20.977 86.298 20.832 81.961 C20.218 62.641 20.218 62.641 24.672 56.99 C27.137 54.384 29.863 52.273 32.728 50.132 C35.257 47.882 35.826 45.257 36.275 42.011 C36.303 39.965 36.322 37.921 36.312 35.875 C36.329 35.16 36.345 34.444 36.361 33.707 C36.367 27.902 36.367 27.902 34.48 26.008 C33.992 25.675 33.503 25.343 33 25 C32.67 25.66 32.34 26.32 32 27 C30.688 27.125 30.688 27.125 29 27 C28.68 27.041 28.68 27.041 27.062 27.25 C24.741 26.969 24.636 26.787 23.211 25.121 C20.934 22.741 18.625 21.879 15.562 20.812 C8.267 18.054 2.219 13.631 -4 9 C-3.67 8.698 -3.34 8.397 -3 8.086 C-2 7 -2 7 -2 5.625 C-2 3.388 -1.065 1.931 0 0 Z " fill="#1C140F" transform="translate(201,47)"/>
<path d="M0 0 C4.319 2.334 8.077 4.669 9.796 9.458 C10.611 14.24 10.72 19.751 8.109 23.958 C5.376 27.241 2.989 29.166 -1.313 29.739 C-6.201 29.936 -10.263 29.51 -14.204 26.458 C-17.31 23.291 -19.345 20.357 -19.516 15.833 C-19.428 10.454 -17.602 5.984 -13.883 2.067 C-9.828 -1.08 -4.81 -2.166 0 0 Z " fill="#211813" transform="translate(203.20361328125,71.5419921875)"/>
<path d="M0 0 C0.33 0 0.66 0 1 0 C1.071 5.33 1.123 10.66 1.155 15.991 C1.171 18.468 1.192 20.944 1.226 23.421 C1.464 40.909 1.05 58.925 -9 74 C-9.99 73.34 -10.98 72.68 -12 72 C-11.67 71.835 -11.67 71.835 -10 71 C-11 69 -11 69 -12.41 68.367 C-12.955 68.205 -13.501 68.042 -14.062 67.875 C-14.61 67.707 -15.158 67.54 -15.723 67.367 C-15.933 67.307 -15.933 67.307 -17 67 C-16.873 66.787 -16.873 66.787 -16.23 65.707 C-9.516 53.51 -9.489 40.13 -9.33 26.565 C-9.3 24.238 -9.254 21.911 -9.209 19.584 C-9.124 15.056 -9.056 10.528 -9 6 C-8.67 6 -8.34 6 -8 6 C-7.67 10.95 -7.34 15.9 -7 21 C-6.67 18.69 -6.34 16.38 -6 14 C-5.34 13.67 -4.68 13.34 -4 13 C-3.711 13.495 -3.423 13.99 -3.125 14.5 C-2.754 14.995 -2.382 15.49 -2 16 C-1.34 16 -0.68 16 0 16 C0 10.72 0 5.44 0 0 Z " fill="#1F1711" transform="translate(222,114)"/>
<path d="M0 0 C11.55 0 23.1 0 35 0 C35 4.95 35 9.9 35 15 C23.45 15 11.9 15 0 15 C0 10.05 0 5.1 0 0 Z " fill="#A8A49D" transform="translate(72,34)"/>
<path d="M0 0 C1.184 0.855 1.184 0.855 2.438 2.188 C2.643 2.401 2.643 2.401 3.684 3.48 C5 5 5 5 6.277 7.057 C7.625 8.854 7.921 8.981 10.268 9.546 C11.14 9.586 12.014 9.607 12.887 9.609 C13.297 9.625 13.706 9.641 14.129 9.657 C15.648 9.709 17.168 9.728 18.688 9.75 C22.091 9.832 25.494 9.915 29 10 C29 18.25 29 26.5 29 35 C27 33 27 33 26.805 31.273 C26.828 30.647 26.851 30.02 26.875 29.375 C26.893 28.743 26.911 28.112 26.93 27.461 C26.953 26.979 26.976 26.497 27 26 C26.529 26.03 26.059 26.059 25.574 26.09 C25.055 26.06 24.535 26.031 24 26 C23.608 25.526 23.216 25.051 22.812 24.562 C19.935 22.082 16.728 21.869 13 22 C10.323 22.87 8.672 24.228 6.844 26.328 C5.703 28.589 6.003 30.017 6.375 32.5 C6.738 35.03 7.082 37.442 7 40 C6.34 40 5.68 40 5 40 C4.67 40.165 4.67 40.165 3 41 C2.815 30.442 2.815 30.442 4 26 C3.34 26 2.68 26 2 26 C0.133 24.516 -0.856 23.509 -1.512 21.195 C-1.913 16.464 -2.118 11.747 -2.188 7 C-2.201 6.424 -2.214 5.848 -2.227 5.254 C-2.228 4.717 -2.229 4.179 -2.23 3.625 C-2.235 3.143 -2.239 2.661 -2.243 2.164 C-2.163 1.78 -2.083 1.396 -2 1 C-1.34 0.67 -0.68 0.34 0 0 Z " fill="#ABA69F" transform="translate(144,107)"/>
<path d="M0 0 C0.248 0.33 0.495 0.66 0.75 1 C2.498 2.398 3.826 2.145 6 2 C6 2.99 6 3.98 6 5 C6.66 4.34 7.32 3.68 8 3 C8.165 3.825 8.165 3.825 9 8 C8.01 8.33 7.02 8.66 6 9 C6.248 9.784 6.495 10.567 6.75 11.375 C7.172 12.711 7.172 12.711 7 14 C3.959 15.921 1.785 16.204 -1.766 15.977 C-2.204 15.952 -2.642 15.927 -3.094 15.901 C-4.48 15.819 -5.865 15.722 -7.25 15.625 C-8.195 15.567 -9.141 15.509 -10.086 15.453 C-12.391 15.314 -14.696 15.161 -17 15 C-13.25 12.125 -13.25 12.125 -11 11 C-11.95 10.444 -12.911 9.906 -13.875 9.375 C-14.409 9.073 -14.942 8.772 -15.492 8.461 C-15.99 8.309 -16.487 8.157 -17 8 C-17.689 8.644 -18.353 9.314 -19 10 C-20.727 10.195 -20.727 10.195 -22.625 10.125 C-23.257 10.107 -23.888 10.089 -24.539 10.07 C-24.78 10.059 -24.78 10.059 -26 10 C-26 10.33 -26 10.66 -26 11 C-36.56 11 -47.12 11 -58 11 C-58 10.67 -58 10.34 -58 10 C-58.686 10.005 -59.373 10.01 -60.08 10.016 C-62.625 10.034 -65.171 10.045 -67.717 10.055 C-68.819 10.06 -69.921 10.067 -71.022 10.075 C-72.606 10.088 -74.19 10.093 -75.773 10.098 C-76.266 10.103 -76.759 10.108 -77.267 10.113 C-79.553 10.114 -80.922 10.039 -83 9 C-83 8.01 -83 7.02 -83 6 C-55.94 6 -28.88 6 -1 6 C-1 4.35 -1 2.7 -1 1 C-0.67 0.67 -0.34 0.34 0 0 Z " fill="#160B05" transform="translate(128,178)"/>
<path d="M0 0 C1.5 0.375 1.5 0.375 3 1 C3 1.66 3 2.32 3 3 C2.34 3 1.68 3 1 3 C1.06 4.816 1.147 6.624 1.25 8.438 C1.264 8.954 1.278 9.47 1.293 10.002 C1.387 11.446 1.485 12.646 2 14 C4.047 14.848 4.047 14.848 6 15 C6.082 14.34 6.165 13.68 6.25 13 C6.498 12.34 6.745 11.68 7 11 C8.981 10.649 8.981 10.649 11 11 C11.729 12.513 11.729 12.513 12.047 14.613 C12.108 14.99 12.108 14.99 12.418 16.896 C12.528 17.694 12.637 18.491 12.75 19.312 C12.875 20.098 13 20.884 13.129 21.693 C13.612 24.815 14.074 27.837 14 31 C14 31.66 14 32.32 14 33 C14.66 33 15.32 33 16 33 C16 32.34 16 31.68 16 31 C16.66 31 17.32 31 18 31 C18.062 31.66 18.124 32.32 18.188 33 C18.456 33.66 18.724 34.32 19 35 C20.336 35.125 20.336 35.125 22.062 35 C26.612 34.727 30.34 36.331 34 39 C34.727 40.637 34.727 40.637 35 42 C30.409 43.296 25.83 43.471 21.091 43.722 C20.03 43.783 18.969 43.852 17.909 43.929 C16.367 44.042 14.825 44.128 13.281 44.207 C12.811 44.246 12.341 44.286 11.857 44.326 C9.812 44.405 8.519 44.362 6.81 43.169 C4.36 40.816 3.419 38.994 2.875 35.562 C2.804 35.132 2.734 34.702 2.661 34.258 C2.509 33.326 2.365 32.392 2.227 31.458 C1.997 29.982 1.722 28.521 1.438 27.055 C-0.233 18.04 -0.214 9.144 0 0 Z M26 38 C24.75 38.875 24.75 38.875 24 40 C25.875 41.125 25.875 41.125 28 42 C29.25 41.125 29.25 41.125 30 40 C28.125 38.875 28.125 38.875 26 38 Z " fill="#211914" transform="translate(27,54)"/>
<path d="M0 0 C3.556 0.556 3.556 0.556 5 2 C5.148 3.786 5.235 5.539 5.281 7.328 C5.3 7.869 5.318 8.41 5.337 8.968 C5.396 10.729 5.448 12.489 5.5 14.25 C5.573 16.632 5.65 19.013 5.73 21.395 C5.75 21.975 5.77 22.556 5.79 23.154 C5.966 27.935 6.305 32.703 7.047 37.433 C7.207 38.777 7.207 38.777 7 41 C5.769 42.359 4.607 43.054 3 44 C2.67 43.67 2.34 43.34 2 43 C0 44 0 44 -1 46 C-1.491 44.838 -1.967 43.67 -2.438 42.5 C-2.571 42.175 -2.571 42.175 -3.246 40.531 C-5.596 33.512 -5.126 25.804 -5.062 18.5 C-5.057 17.477 -5.053 16.453 -5.049 15.43 C-5.038 12.953 -5.021 10.477 -5 8 C-4.34 8 -3.68 8 -3 8 C-2.875 6.562 -2.875 6.562 -3 5 C-3.66 4.67 -4.32 4.34 -5 4 C-4.67 3.34 -4.34 2.68 -4 2 C-3 2 -2 2 -1 2 C-0.67 1.34 -0.34 0.68 0 0 Z " fill="#1D1711" transform="translate(113,107)"/>
<path d="M0 0 C0.457 2.896 -0.835 4.466 -2.332 6.793 C-3.145 8.263 -3.261 9.345 -3 11 C-2.763 10.907 -2.763 10.907 -1.562 10.438 C-1.047 10.293 -0.531 10.149 0 10 C0.33 10.33 0.66 10.66 1 11 C0.92 12.377 0.772 13.749 0.598 15.117 C-0.208 22.1 -0.35 29.104 -0.562 36.125 C-0.606 37.477 -0.649 38.828 -0.693 40.18 C-0.799 43.453 -0.901 46.726 -1 50 C-1.99 49.67 -2.98 49.34 -4 49 C-4.33 50.32 -4.66 51.64 -5 53 C-8.422 52.784 -8.422 52.784 -10 52 C-10.711 50.18 -10.515 48.423 -10.375 46.5 C-10.361 45.988 -10.347 45.476 -10.332 44.949 C-10.183 41.183 -10.183 41.183 -9 40 C-9.162 39.872 -9.162 39.872 -9.981 39.223 C-12.037 36.756 -11.335 33.07 -11.312 30 C-11.307 29.23 -11.301 28.46 -11.295 27.666 C-11.074 17.237 -8.102 8.445 -0.816 0.75 C-0.547 0.503 -0.278 0.255 0 0 Z " fill="#17100A" transform="translate(38,16)"/>
<path d="M0 0 C0.33 0 0.66 0 1 0 C1.137 1.059 1.233 2.123 1.312 3.188 C1.371 3.779 1.429 4.371 1.488 4.98 C0.837 7.676 -0.229 9.118 -2.251 10.999 C-5.908 13.092 -10.232 12.502 -14.312 12.312 C-15.253 12.287 -16.194 12.265 -17.135 12.244 C-19.425 12.189 -21.712 12.103 -24 12 C-23.939 12.791 -23.879 13.581 -23.816 14.396 C-23.589 17.383 -23.366 20.371 -23.146 23.359 C-23.05 24.642 -22.953 25.925 -22.854 27.207 C-22.369 33.543 -21.91 39.87 -21.859 46.227 C-21.853 46.669 -21.846 47.111 -21.839 47.567 C-21.848 50.49 -22.307 52.674 -23.953 55.098 C-26.841 57.587 -29.683 58.251 -33.414 58.259 C-33.836 58.262 -34.257 58.266 -34.692 58.269 C-36.075 58.278 -37.457 58.272 -38.84 58.266 C-39.809 58.267 -40.777 58.269 -41.746 58.271 C-43.773 58.274 -45.799 58.27 -47.826 58.261 C-50.413 58.249 -52.999 58.256 -55.586 58.268 C-57.586 58.275 -59.586 58.273 -61.585 58.268 C-62.539 58.266 -63.492 58.268 -64.445 58.273 C-73.96 58.309 -73.96 58.309 -78 56 C-78.33 55.34 -78.66 54.68 -79 54 C-78.623 54.154 -78.246 54.307 -77.858 54.466 C-75.342 55.189 -72.878 55.364 -70.273 55.551 C-69.705 55.593 -69.137 55.634 -68.552 55.678 C-62.233 56.105 -55.918 56.186 -49.586 56.185 C-47.606 56.188 -45.625 56.206 -43.645 56.225 C-42.359 56.228 -41.074 56.23 -39.789 56.23 C-39.499 56.234 -39.499 56.234 -38.034 56.252 C-33.888 56.229 -29.816 55.715 -26 54 C-24.782 51.563 -24.809 49.536 -24.812 46.875 C-24.812 46.335 -24.811 45.796 -24.811 45.24 C-24.93 35.144 -26.076 25.048 -27 15 C-28.438 15.375 -28.438 15.375 -30 16 C-30.33 16.66 -30.66 17.32 -31 18 C-31.66 18 -32.32 18 -33 18 C-33.33 22.95 -33.66 27.9 -34 33 C-34.33 33 -34.66 33 -35 33 C-35 24.42 -35 15.84 -35 7 C-45.56 7 -56.12 7 -67 7 C-67 6.67 -67 6.34 -67 6 C-66.621 5.99 -66.241 5.979 -65.85 5.969 C-61.892 5.86 -57.933 5.746 -53.975 5.628 C-52.499 5.584 -51.023 5.543 -49.546 5.503 C-47.421 5.445 -45.297 5.381 -43.172 5.316 C-42.514 5.3 -41.857 5.283 -41.18 5.266 C-37.978 5.163 -35.088 4.943 -32 4 C-24.899 2.37 -24.899 2.37 -21.312 4.5 C-20.538 4.994 -19.765 5.492 -19 6 C-20.32 6.99 -21.64 7.98 -23 9 C-20.251 9.198 -17.501 9.381 -14.75 9.562 C-13.973 9.619 -13.195 9.675 -12.395 9.732 C-11.64 9.781 -10.886 9.829 -10.109 9.879 C-9.418 9.926 -8.727 9.973 -8.015 10.022 C-5.864 9.999 -4.059 9.6 -2 9 C-2.33 8.01 -2.33 8.01 -4 3 C-2.68 3 -1.36 3 0 3 C0 2.01 0 1.02 0 0 Z " fill="#2D221B" transform="translate(137,183)"/>
<path d="M0 0 C3.201 0.12 5.107 0.77 7.575 2.953 C10.127 6.021 10.727 8.614 10.411 12.559 C9.469 16.427 7.278 18.491 4.137 20.766 C0.398 21.941 -3.125 22.343 -6.765 20.66 C-9.46 18.94 -11.561 17.341 -13.05 14.453 C-13.331 11.01 -12.946 7.695 -10.898 4.855 C-9.667 3.631 -8.413 2.526 -7.05 1.453 C-5.252 -0.345 -2.431 0.028 0 0 Z " fill="#1D1713" transform="translate(159.05029296875,76.546875)"/>
<path d="M0 0 C2.919 0.96 4.4 2.365 6.16 4.848 C7.698 8.136 7.811 11.143 7.008 14.66 C5.513 17.483 3.861 19.234 1.008 20.66 C-3.234 21.329 -6.843 21.25 -10.43 18.723 C-13.415 15.844 -14.091 12.88 -14.301 8.812 C-13.871 5.812 -12.71 4.517 -10.414 2.633 C-9.945 2.312 -9.476 1.991 -8.992 1.66 C-8.52 1.288 -8.049 0.915 -7.562 0.531 C-4.982 -0.9 -2.835 -0.455 0 0 Z " fill="#211913" transform="translate(162.9921875,128.33984375)"/>
<path d="M0 0 C0.625 1.875 0.625 1.875 1 4 C0.062 5.25 0.062 5.25 -1 6 C-0.01 5.67 0.98 5.34 2 5 C2 18.53 2 32.06 2 46 C1.67 46 1.34 46 1 46 C1 43.69 1 41.38 1 39 C-2.022 40.007 -2.886 40.79 -5 43 C-5.33 43 -5.66 43 -6 43 C-6.306 37.162 -6.584 31.324 -6.815 25.482 C-6.927 22.671 -7.059 19.862 -7.214 17.053 C-7.314 15.119 -7.373 13.185 -7.438 11.25 C-7.484 10.542 -7.53 9.835 -7.578 9.106 C-7.619 7.219 -7.645 5.775 -7 4 C-5.461 3.054 -4.168 2.696 -2.395 2.378 C-1.934 2.253 -1.474 2.128 -1 2 C-0.67 1.34 -0.34 0.68 0 0 Z " fill="#170F0A" transform="translate(140,105)"/>
<path d="M0 0 C2.64 0 5.28 0 8 0 C8 14.19 8 28.38 8 43 C6.68 43 5.36 43 4 43 C2.995 41.902 2.995 41.902 2.297 40.367 C2.039 39.808 1.781 39.248 1.516 38.672 C1.263 38.079 1.01 37.486 0.75 36.875 C0.482 36.305 0.214 35.735 -0.062 35.148 C-1.694 31.485 -2.81 28.027 -2 24 C-0.977 22.758 -0.977 22.758 0.375 22.125 C0.816 21.901 1.257 21.676 1.711 21.445 C3 21 3 21 5 21 C4.732 20.257 4.464 19.515 4.188 18.75 C4.037 18.332 3.886 17.915 3.73 17.484 C3 16 3 16 1.438 14.219 C-0.6 11.584 -0.337 8.953 -0.188 5.75 C-0.174 5.196 -0.16 4.641 -0.146 4.07 C-0.111 2.713 -0.058 1.356 0 0 Z " fill="#F2F2EF" transform="translate(48,108)"/>
<path d="M0 0 C2.775 1.501 4.59 3.18 6 6 C6.6 9.44 6.906 12.643 4.906 15.637 C2.331 18.027 -0.036 19.331 -3.562 19.625 C-6.945 19.348 -8.868 18.114 -11.055 15.559 C-12.726 12.802 -13.264 10.206 -13 7 C-12.101 4.404 -10.623 2.654 -8.75 0.688 C-5.834 -0.458 -3.075 -0.566 0 0 Z " fill="#181310" transform="translate(199,129)"/>
<path d="M0 0 C0.33 0 0.66 0 1 0 C1.004 0.226 1.004 0.226 1.025 1.369 C1.103 5.677 1.191 9.986 1.288 14.294 C1.337 16.507 1.383 18.721 1.422 20.935 C1.467 23.495 1.522 26.054 1.586 28.613 C1.596 29.028 1.606 29.443 1.617 29.87 C1.764 35.334 2.15 40.606 3.496 45.916 C3.78 47.091 3.78 47.091 4 49 C3.052 50.275 3.052 50.275 2 51 C2 50.34 2 49.68 2 49 C-2.459 49.482 -2.459 49.482 -4 50.957 C-4.719 51.935 -5.366 52.965 -6 54 C-7.321 49.035 -8.184 44.178 -8.562 39.062 C-8.583 38.783 -8.583 38.783 -8.69 37.369 C-9.139 30.81 -9.11 24.258 -9.062 17.688 C-9.057 16.446 -9.053 15.204 -9.049 13.963 C-9.038 10.975 -9.021 7.988 -9 5 C-8.67 5 -8.34 5 -8 5 C-7.67 11.93 -7.34 18.86 -7 26 C-6.34 26 -5.68 26 -5 26 C-4.856 25.505 -4.711 25.01 -4.562 24.5 C-4.377 24.005 -4.191 23.51 -4 23 C-3.01 23 -2.02 23 -1 23 C-0.67 15.41 -0.34 7.82 0 0 Z " fill="#2A211A" transform="translate(142,121)"/>
<path d="M0 0 C1.98 0 3.96 0 6 0 C6.02 0.588 6.04 1.176 6.06 1.781 C6.472 13.633 7.119 25.274 9 37 C5.7 37 2.4 37 -1 37 C-1.025 33.016 -1.043 29.033 -1.055 25.049 C-1.06 23.697 -1.067 22.346 -1.075 20.994 C-1.166 6.583 -1.166 6.583 0 0 Z " fill="#EEEDEB" transform="translate(102,115)"/>
<path d="M0 0 C0.33 0.165 0.33 0.165 2 1 C1.869 1.144 1.869 1.144 1.206 1.87 C0.01 3.183 -1.183 4.497 -2.375 5.812 C-2.787 6.264 -3.2 6.716 -3.625 7.182 C-4.025 7.623 -4.424 8.065 -4.836 8.52 C-5.203 8.923 -5.569 9.326 -5.947 9.741 C-8.17 12.398 -9.247 14.122 -9.287 17.651 C-9.294 18.014 -9.294 18.014 -9.328 19.85 C-9.333 20.634 -9.338 21.419 -9.344 22.227 C-9.366 23.483 -9.389 24.739 -9.411 25.995 C-9.449 28.205 -9.474 30.415 -9.5 32.625 C-10.111 83.388 -10.111 83.388 -25.973 99.05 C-37 109.244 -48.668 112.849 -63.495 112.306 C-65.26 111.947 -65.879 111.377 -67 110 C-66.568 110.021 -66.135 110.042 -65.69 110.063 C-56.6 110.445 -49.039 110.496 -41 106 C-40.575 105.77 -40.15 105.539 -39.712 105.302 C-36.719 103.663 -33.84 101.89 -31 100 C-30.423 99.622 -29.845 99.245 -29.25 98.855 C-19.197 91.446 -15.638 77.615 -13.614 65.958 C-12.798 60.349 -12.837 54.797 -12.91 49.141 C-12.919 48.085 -12.928 47.029 -12.936 45.973 C-12.976 41.635 -13.023 37.298 -13.168 32.961 C-13.81 12.75 -13.81 12.75 -7.731 6.008 C-2.713 1.248 -2.713 1.248 0 0 Z " fill="#55534E" transform="translate(235,96)"/>
<path d="M0 0 C0.33 0 0.66 0 1 0 C1 4.95 1 9.9 1 15 C12.55 15 24.1 15 36 15 C36 10.38 36 5.76 36 1 C36.33 1 36.66 1 37 1 C37 5.95 37 10.9 37 16 C31.225 16.165 31.225 16.165 2 17 C2.99 17.66 3.98 18.32 5 19 C4.787 20.904 3.867 22.266 3 24 C4.98 24 6.96 24 9 24 C9 24.33 9 24.66 9 25 C8.29 24.977 7.579 24.954 6.848 24.93 C5.919 24.911 4.991 24.893 4.062 24.875 C3.594 24.858 3.125 24.841 2.643 24.824 C1.285 24.805 1.285 24.805 -1 25 C-1.33 25.66 -1.66 26.32 -2 27 C-2.33 26.67 -2.66 26.34 -3 26 C-2.984 26.722 -2.969 27.444 -2.952 28.187 C-2.898 30.858 -2.864 33.528 -2.835 36.199 C-2.82 37.356 -2.8 38.514 -2.774 39.671 C-2.737 41.331 -2.72 42.991 -2.707 44.652 C-2.692 45.172 -2.676 45.692 -2.66 46.228 C-2.659 47.683 -2.659 47.683 -3 50 C-4.518 50.834 -4.518 50.834 -6 51 C-7.072 47.523 -7.118 44.345 -7.062 40.75 C-7.058 40.196 -7.053 39.641 -7.049 39.07 C-7.037 37.713 -7.019 36.357 -7 35 C-7.33 35 -7.66 35 -8 35 C-8.146 32.897 -8.234 30.794 -8.312 28.688 C-8.354 28.093 -8.396 27.498 -8.439 26.885 C-8.488 25.13 -8.473 23.694 -8 22 C-6.817 20.948 -5.654 20.356 -4.233 19.668 C-2.135 18.531 -1.707 17.235 -1 15 C-0.642 12.421 -0.493 9.85 -0.375 7.25 C-0.336 6.553 -0.298 5.855 -0.258 5.137 C-0.164 3.425 -0.078 1.713 0 0 Z " fill="#312721" transform="translate(71,34)"/>
<path d="M0 0 C0.715 0.009 1.431 0.018 2.168 0.027 C2.439 0.033 2.439 0.033 3.812 0.062 C3.863 4.262 3.898 8.461 3.922 12.66 C3.932 14.088 3.946 15.516 3.963 16.943 C3.988 18.999 3.999 21.054 4.008 23.109 C4.018 23.745 4.028 24.381 4.039 25.035 C4.04 28.626 3.742 31.005 1.812 34.062 C1.812 33.403 1.812 32.743 1.812 32.062 C1.214 31.939 0.616 31.815 0 31.688 C-2.971 30.839 -3.544 29.609 -5.188 27.062 C-3.868 27.062 -2.548 27.062 -1.188 27.062 C-0.05 19.387 -0.08 11.804 -0.188 4.062 C-3.821 4.618 -6.118 5.433 -9.188 7.562 C-12.266 9.586 -14.531 10.72 -18.188 11.062 C-18.331 9.674 -18.331 9.674 -18.188 8.062 C-17.225 7.095 -17.225 7.095 -15.887 6.273 C-15.404 5.972 -14.921 5.67 -14.424 5.359 C-13.913 5.055 -13.402 4.751 -12.875 4.438 C-12.375 4.126 -11.876 3.814 -11.361 3.492 C-7.458 1.094 -4.664 -0.076 0 0 Z " fill="#EDEEE9" transform="translate(169.1875,50.9375)"/>
<path d="M0 0 C0.33 0 0.66 0 1 0 C1.137 1.059 1.233 2.123 1.312 3.188 C1.371 3.779 1.429 4.371 1.488 4.98 C0.837 7.676 -0.229 9.118 -2.251 10.999 C-5.908 13.092 -10.232 12.502 -14.312 12.312 C-15.253 12.287 -16.194 12.265 -17.135 12.244 C-19.425 12.189 -21.712 12.103 -24 12 C-23.939 12.791 -23.879 13.581 -23.816 14.396 C-23.589 17.383 -23.366 20.371 -23.146 23.359 C-23.05 24.642 -22.953 25.925 -22.854 27.207 C-22.369 33.543 -21.91 39.87 -21.859 46.227 C-21.853 46.669 -21.846 47.111 -21.839 47.567 C-21.848 50.49 -22.307 52.674 -23.953 55.098 C-26.841 57.587 -29.683 58.251 -33.414 58.259 C-33.836 58.262 -34.257 58.266 -34.692 58.269 C-36.075 58.278 -37.457 58.272 -38.84 58.266 C-39.809 58.267 -40.777 58.269 -41.746 58.271 C-43.773 58.274 -45.799 58.27 -47.826 58.261 C-50.413 58.249 -52.999 58.256 -55.586 58.268 C-57.586 58.275 -59.586 58.273 -61.585 58.268 C-62.539 58.266 -63.492 58.268 -64.445 58.273 C-73.96 58.309 -73.96 58.309 -78 56 C-78.33 55.34 -78.66 54.68 -79 54 C-78.623 54.154 -78.246 54.307 -77.858 54.466 C-75.342 55.189 -72.878 55.364 -70.273 55.551 C-69.705 55.593 -69.137 55.634 -68.552 55.678 C-62.233 56.105 -55.918 56.186 -49.586 56.185 C-47.606 56.188 -45.625 56.206 -43.645 56.225 C-42.359 56.228 -41.074 56.23 -39.789 56.23 C-39.499 56.234 -39.499 56.234 -38.034 56.252 C-33.888 56.229 -29.816 55.715 -26 54 C-24.868 51.736 -24.879 50.521 -24.886 48.009 C-24.887 47.189 -24.887 46.368 -24.887 45.522 C-24.892 44.627 -24.897 43.731 -24.902 42.836 C-24.904 41.92 -24.906 41.003 -24.907 40.087 C-24.91 37.677 -24.92 35.267 -24.931 32.857 C-24.942 30.397 -24.946 27.937 -24.951 25.477 C-24.962 20.651 -24.979 15.826 -25 11 C-24.445 10.975 -23.891 10.95 -23.319 10.924 C-21.247 10.829 -19.174 10.729 -17.102 10.628 C-16.208 10.585 -15.314 10.543 -14.419 10.503 C-13.128 10.444 -11.838 10.381 -10.547 10.316 C-9.772 10.28 -8.997 10.243 -8.198 10.205 C-6.043 10.004 -4.082 9.583 -2 9 C-2.33 8.01 -2.33 8.01 -4 3 C-2.68 3 -1.36 3 0 3 C0 2.01 0 1.02 0 0 Z " fill="#696562" transform="translate(137,183)"/>
<path d="M0 0 C0 5.94 0 11.88 0 18 C-5 15 -5 15 -5.812 13.312 C-5.874 12.879 -5.936 12.446 -6 12 C-6.66 13.32 -7.32 14.64 -8 16 C-8.17 15.82 -8.17 15.82 -9.031 14.906 C-12.981 11.124 -12.981 11.124 -16.145 10.738 C-17.553 10.787 -18.961 10.878 -20.363 11.02 C-20.903 11.013 -21.444 11.007 -22 11 C-22.33 10.34 -22.66 9.68 -23 9 C-22.434 9.035 -21.868 9.07 -21.285 9.105 C-20.552 9.133 -19.818 9.16 -19.062 9.188 C-18.332 9.222 -17.601 9.257 -16.848 9.293 C-16.238 9.196 -15.628 9.1 -15 9 C-14.344 7.523 -14.344 7.523 -14 6 C-13.008 5.643 -12.008 5.307 -11 5 C-11 4.34 -11 3.68 -11 3 C-13.31 3 -15.62 3 -18 3 C-18 2.67 -18 2.34 -18 2 C-17.651 1.97 -17.651 1.97 -15.883 1.816 C-14.964 1.732 -14.044 1.647 -13.125 1.562 C-12.665 1.523 -12.205 1.484 -11.73 1.443 C-7.329 1.029 -4.758 0 0 0 Z " fill="#EFEFEB" transform="translate(213,119)"/>
<path d="M0 0 C0.33 0 0.66 0 1 0 C1.02 0.605 1.04 1.209 1.06 1.833 C1.137 4.103 1.225 6.373 1.317 8.643 C1.355 9.62 1.39 10.598 1.422 11.575 C1.584 16.539 1.758 21.122 3.599 25.801 C4.197 27.59 3.99 29.05 3.625 30.875 C3.57 31.173 3.57 31.173 3.289 32.68 C3.194 33.115 3.098 33.551 3 34 C2.34 34 1.68 34 1 34 C1.33 35.32 1.66 36.64 2 38 C3.65 37.34 5.3 36.68 7 36 C7.124 38.526 7.214 41.052 7.275 43.581 C7.3 44.44 7.334 45.3 7.377 46.159 C7.438 47.394 7.464 48.631 7.488 49.867 C7.514 50.611 7.541 51.354 7.568 52.121 C7.474 52.431 7.474 52.431 7 54 C5.35 54.66 3.7 55.32 2 56 C2 51.05 2 46.1 2 41 C-0.31 41 -2.62 41 -5 41 C-5 40.67 -5 40.34 -5 40 C-3.35 40 -1.7 40 0 40 C-0.66 39.67 -1.32 39.34 -2 39 C-2 38.34 -2 37.68 -2 37 C-1.34 37 -0.68 37 0 37 C0 36.01 0 35.02 0 34 C-5.61 34 -11.22 34 -17 34 C-17 33.67 -17 33.34 -17 33 C-11.39 33 -5.78 33 0 33 C0 22.11 0 11.22 0 0 Z " fill="#211710" transform="translate(173,76)"/>
<path d="M0 0 C2.187 0.965 3.643 2.02 5 4 C5.789 6.956 5.731 9.599 4.301 12.34 C2.529 14.44 0.792 15.294 -1.938 15.562 C-5.168 15.324 -6.988 13.888 -9.082 11.496 C-10.362 9.411 -10.65 7.848 -10.418 5.426 C-8.954 0.432 -4.839 -1.201 0 0 Z " fill="#F1F1EE" transform="translate(201,79)"/>
<path d="M0 0 C0.248 0.33 0.495 0.66 0.75 1 C2.498 2.398 3.826 2.145 6 2 C6 2.99 6 3.98 6 5 C6.66 4.34 7.32 3.68 8 3 C8.33 4.65 8.66 6.3 9 8 C8.01 8.33 7.02 8.66 6 9 C6.248 9.784 6.495 10.567 6.75 11.375 C7.172 12.711 7.172 12.711 7 14 C3.959 15.921 1.785 16.204 -1.766 15.977 C-2.204 15.952 -2.642 15.927 -3.094 15.901 C-4.48 15.819 -5.865 15.722 -7.25 15.625 C-8.195 15.567 -9.141 15.509 -10.086 15.453 C-12.391 15.314 -14.696 15.161 -17 15 C-13.25 12.125 -13.25 12.125 -11 11 C-11.33 10.34 -11.66 9.68 -12 9 C-4.702 7.667 -4.702 7.667 -1 9 C-1.012 8.434 -1.023 7.868 -1.035 7.285 C-1.044 6.552 -1.053 5.818 -1.062 5.062 C-1.074 4.332 -1.086 3.601 -1.098 2.848 C-1 1 -1 1 0 0 Z " fill="#1A110B" transform="translate(128,178)"/>
<path d="M0 0 C0.33 0 0.66 0 1 0 C1.025 2.614 1.043 5.229 1.055 7.843 C1.06 8.73 1.067 9.618 1.075 10.505 C1.169 20.33 1.169 20.33 0 24 C-0.66 24.33 -1.32 24.66 -2 25 C-2 25.66 -2 26.32 -2 27 C-6.701 27.403 -9.872 26.521 -14 24.312 C-14.521 24.044 -15.042 23.775 -15.579 23.498 C-19.478 21.426 -22.851 19.121 -26 16 C-24.562 15.938 -24.562 15.938 -23 16 C-22.67 16.33 -22.34 16.66 -22 17 C-21.34 15.68 -20.68 14.36 -20 13 C-18.938 14.312 -18.938 14.312 -18 16 C-18.375 17.688 -18.375 17.688 -19 19 C-17.188 19.75 -17.188 19.75 -15 20 C-13.718 18.619 -12.933 17.579 -12 16 C-11.34 15.01 -10.68 14.02 -10 13 C-6.7 14.65 -3.4 16.3 0 18 C0 12.06 0 6.12 0 0 Z " fill="#2A231D" transform="translate(174,179)"/>
<path d="M0 0 C2.492 1.202 3.835 2.486 5 5 C5.378 7.724 5.305 10.272 5 13 C4.651 12.905 4.301 12.809 3.941 12.711 C3.714 12.656 3.714 12.656 2.562 12.375 C2.11 12.259 1.658 12.143 1.191 12.023 C0.995 12.02 0.995 12.02 0 12 C-0.33 12.66 -0.66 13.32 -1 14 C-2.184 11.632 -2.522 9.598 -3 7 C-5.84 7.406 -7.217 8.071 -9.062 10.188 C-10.059 11.281 -10.059 11.281 -11 12 C-12.625 11.188 -12.625 11.188 -14 10 C-14.33 10.165 -14.33 10.165 -16 11 C-15.89 7.431 -15.728 4.163 -13.062 1.562 C-9.165 -1.051 -4.431 -0.821 0 0 Z " fill="#18120E" transform="translate(163,77)"/>
<path d="M0 0 C3.174 3.779 6.142 8.3 5.875 13.375 C5 15 5 15 3.438 15.75 C2.963 15.833 2.489 15.915 2 16 C2.082 15.526 2.165 15.051 2.25 14.562 C2.168 14.047 2.085 13.531 2 13 C0.062 12.25 0.062 12.25 -2 12 C-3 13 -3 13 -3.365 14.54 C-3.47 14.781 -3.47 14.781 -4 16 C-5.372 16.369 -5.372 16.369 -7.157 16.361 C-7.495 16.363 -7.495 16.363 -9.201 16.373 C-9.946 16.362 -10.69 16.352 -11.457 16.341 C-11.847 16.341 -11.847 16.341 -13.822 16.342 C-15.967 16.34 -18.111 16.325 -20.256 16.304 C-22.495 16.285 -24.735 16.284 -26.974 16.28 C-31.217 16.271 -35.46 16.246 -39.703 16.216 C-44.532 16.183 -49.361 16.166 -54.191 16.151 C-64.127 16.12 -74.064 16.067 -84 16 C-84 15.67 -84 15.34 -84 15 C-57.93 15 -31.86 15 -5 15 C-5.33 14.175 -5.33 14.175 -7 10 C-6.01 10 -5.02 10 -4 10 C-4 9.34 -4 8.68 -4 8 C-3.505 7.691 -3.01 7.381 -2.5 7.062 C-2.005 6.712 -1.51 6.361 -1 6 C-0.875 4.563 -0.875 4.563 -1 3 C-0.5 1.312 -0.5 1.312 0 0 Z " fill="#58524D" transform="translate(131,168)"/>
<path d="M0 0 C0.33 0 0.66 0 1 0 C1.013 0.362 1.013 0.362 1.078 2.195 C1.36 7.548 1.68 11.373 5.051 15.734 C6.734 17.978 7.224 19.157 7 22 C5.334 23.267 3.663 24.136 1.762 25.008 C-0.178 26.1 -0.93 27.077 -2 29 C-2.648 28.21 -3.293 27.418 -3.938 26.625 C-4.297 26.184 -4.657 25.743 -5.027 25.289 C-6 24 -6 24 -7 22 C-7.66 21.67 -8.32 21.34 -9 21 C-8.67 20.01 -8.34 19.02 -8 18 C-7.34 18.33 -6.68 18.66 -6 19 C-6.33 18.34 -6.66 17.68 -7 17 C-7.168 15.527 -7.168 15.527 -7.188 13.938 C-7.202 13.41 -7.216 12.883 -7.23 12.34 C-7.192 12.119 -7.192 12.119 -7 11 C-6.34 10.67 -5.68 10.34 -5 10 C-5 11.32 -5 12.64 -5 14 C-3.563 14.125 -3.563 14.125 -2 14 C-1.059 12.117 -0.835 11.208 -0.684 9.18 C-0.642 8.645 -0.6 8.11 -0.557 7.559 C-0.517 7.003 -0.478 6.447 -0.438 5.875 C-0.394 5.312 -0.351 4.748 -0.307 4.168 C-0.201 2.779 -0.099 1.39 0 0 Z " fill="#170F0B" transform="translate(46,107)"/>
<path d="M0 0 C4.525 1.164 6.404 3.277 8.93 7.16 C13.091 14.314 13.164 23.303 11.125 31.25 C10.633 32.891 10.633 32.891 10 34 C9.34 34 8.68 34 8 34 C8.16 33.343 8.32 32.685 8.484 32.008 C9.218 28.317 9.223 24.627 9.25 20.875 C9.271 20.16 9.291 19.444 9.312 18.707 C9.351 13.593 9.351 13.593 8.314 11.841 C7.484 11.008 7.484 11.008 6 10 C5.67 10.66 5.34 11.32 5 12 C3.688 12.125 3.688 12.125 2 12 C1.68 12.041 1.68 12.041 0.062 12.25 C-2.569 11.931 -3.27 11.002 -4.984 9.09 C-6.491 7.474 -8.206 6.282 -10 5 C-8.73 3.914 -8.73 3.914 -7 3 C-5.176 3.461 -5.176 3.461 -3.312 4.375 C-3.001 4.523 -3.001 4.523 -1.426 5.273 C-0.955 5.513 -0.485 5.753 0 6 C0 4.02 0 2.04 0 0 Z " fill="#2F2822" transform="translate(228,62)"/>
<path d="M0 0 C0.33 0 0.66 0 1 0 C1 6.93 1 13.86 1 21 C1.66 21 2.32 21 3 21 C3 16.05 3 11.1 3 6 C3.33 6 3.66 6 4 6 C4.896 10.418 5.135 14.648 5.098 19.148 C5.096 19.806 5.095 20.463 5.093 21.141 C5.088 23.219 5.075 25.297 5.062 27.375 C5.057 28.793 5.053 30.211 5.049 31.629 C5.038 35.086 5.021 38.543 5 42 C3.02 41.67 1.04 41.34 -1 41 C-0.34 40.34 0.32 39.68 1 39 C1.66 39.33 2.32 39.66 3 40 C2.67 37.03 2.34 34.06 2 31 C1.67 31.33 1.34 31.66 1 32 C0.34 31.67 -0.32 31.34 -1 31 C-1.247 29.792 -1.247 29.792 -1.243 28.256 C-1.246 27.682 -1.249 27.108 -1.252 26.516 C-1.245 25.894 -1.238 25.271 -1.23 24.629 C-1.23 23.991 -1.23 23.354 -1.229 22.697 C-1.226 21.346 -1.218 19.995 -1.206 18.644 C-1.188 16.575 -1.185 14.505 -1.186 12.436 C-1.181 11.125 -1.175 9.814 -1.168 8.504 C-1.167 7.883 -1.166 7.262 -1.165 6.622 C-1.158 6.045 -1.152 5.468 -1.145 4.873 C-1.141 4.366 -1.138 3.858 -1.134 3.335 C-1 2 -1 2 0 0 Z " fill="#AEA8A2" transform="translate(94,63)"/>
<path d="M0 0 C13.86 0 27.72 0 42 0 C41.34 0.33 40.68 0.66 40 1 C40 1.66 40 2.32 40 3 C39.01 3 38.02 3 37 3 C37.165 3.33 37.165 3.33 38 5 C33.71 5 29.42 5 25 5 C25 4.67 25 4.34 25 4 C24.314 4.005 23.627 4.01 22.92 4.016 C20.375 4.034 17.829 4.045 15.283 4.055 C14.181 4.06 13.079 4.067 11.978 4.075 C10.394 4.088 8.81 4.093 7.227 4.098 C6.734 4.103 6.241 4.108 5.733 4.113 C3.447 4.114 2.078 4.039 0 3 C0 2.01 0 1.02 0 0 Z " fill="#0D0602" transform="translate(45,184)"/>
<path d="M0 0 C1.65 0 3.3 0 5 0 C4.837 1.27 4.674 2.539 4.512 3.809 C4.673 4.202 4.834 4.595 5 5 C5.795 5.117 6.591 5.235 7.41 5.355 C8.786 5.564 8.786 5.564 10 6 C10.907 7.783 11.347 8.976 11.75 10.875 C11.974 11.768 12.198 12.661 12.422 13.555 C12.519 13.976 12.617 14.397 12.717 14.831 C13.061 16.252 13.508 17.624 14 19 C13.01 19 12.02 19 11 19 C11 17.68 11 16.36 11 15 C9.162 15.426 7.527 15.866 6 17 C5.841 18.816 6.351 20.316 7 22 C6.01 22.33 5.02 22.66 4 23 C-0.484 15.433 -0.479 8.616 0 0 Z " fill="#231915" transform="translate(36,127)"/>
<path d="M0 0 C0.33 0.165 0.33 0.165 2 1 C4.114 0.79 6.187 0.506 8.279 0.141 C10.775 -0.202 11.765 -0.174 13.824 1.348 C15 3 15 3 14.875 5.062 C13.864 7.301 12.989 7.674 11 9 C10.856 9.701 10.711 10.403 10.562 11.125 C10.377 11.744 10.191 12.363 10 13 C7.891 13.603 6.648 13.285 4.66 12.41 C2.15 10.832 1.157 9.662 0.461 6.73 C0.213 4.48 0.053 2.263 0 0 Z " fill="#251D18" transform="translate(149,135)"/>
<path d="M0 0 C2.003 1.084 3.547 2.237 5 4 C5.816 6.841 5.88 9.619 5.938 12.562 C5.979 13.33 6.021 14.098 6.064 14.889 C6.307 21.07 6.307 21.07 4 24 C3.34 23.67 2.68 23.34 2 23 C1.67 28.61 1.34 34.22 1 40 C0.67 40 0.34 40 0 40 C-0.612 29.772 -1.103 19.561 -1.125 9.312 C-1.13 8.494 -1.134 7.675 -1.139 6.831 C-1.137 6.078 -1.135 5.326 -1.133 4.551 C-1.132 3.887 -1.131 3.224 -1.129 2.54 C-1 1 -1 1 0 0 Z " fill="#140D07" transform="translate(174,56)"/>
<path d="M0 0 C5.201 -0.765 8.741 -0.039 13.062 2.812 C13.468 3.073 13.874 3.334 14.293 3.602 C15.41 4.395 15.41 4.395 17 6 C16.871 7.699 16.871 7.699 16 9 C15.34 9 14.68 9 14 9 C13.67 11.97 13.34 14.94 13 18 C13.66 18 14.32 18 15 18 C15 18.99 15 19.98 15 21 C13 20.438 13 20.438 11 19 C10.875 17.414 10.875 17.414 11 15.562 C11.174 12.216 11.174 12.216 9.438 10.062 C6.56 8.359 3.222 8.756 0 9 C0.586 5.191 0.586 5.191 1 4 C1.66 3.67 2.32 3.34 3 3 C2.505 2.876 2.01 2.752 1.5 2.625 C1.005 2.419 0.51 2.213 0 2 C0 1.34 0 0.68 0 0 Z " fill="#251E18" transform="translate(194,71)"/>
<path d="M0 0 C0.66 0 1.32 0 2 0 C2.386 2.505 2.743 5.013 3.074 7.526 C3.191 8.379 3.315 9.232 3.447 10.083 C4.544 17.2 4.544 17.2 3.154 19.244 C2.047 20.074 2.047 20.074 0 21 C-0.33 20.67 -0.66 20.34 -1 20 C-3 21 -3 21 -4 23 C-6.138 19.533 -6.25 16.767 -6.125 12.75 C-6.116 12.196 -6.107 11.641 -6.098 11.07 C-6.074 9.713 -6.038 8.357 -6 7 C-5.362 7.02 -5.362 7.02 -2.173 7.122 C-1.98 7.102 -1.98 7.102 -1 7 C0.38 4.877 0.085 2.474 0 0 Z " fill="#140E09" transform="translate(116,130)"/>
<path d="M0 0 C0.33 0 0.66 0 1 0 C1.05 2.49 1.086 4.98 1.11 7.471 C1.12 8.316 1.133 9.162 1.151 10.008 C1.175 11.229 1.185 12.45 1.195 13.672 C1.206 14.405 1.216 15.138 1.227 15.894 C0.968 18.299 0.192 19.913 -1 22 C-1 21.34 -1 20.68 -1 20 C-2.438 19.812 -2.438 19.812 -4 20 C-4.562 21.5 -4.562 21.5 -5 23 C-5.66 23 -6.32 23 -7 23 C-7.379 24.094 -7.379 24.094 -7.562 25.5 C-7.754 26.906 -7.754 26.906 -8 28 C-8.33 28 -8.66 28 -9 28 C-9.093 24.008 -9.1 20.038 -8.688 16.062 C-8.629 15.497 -8.571 14.931 -8.512 14.348 C-8.427 14.125 -8.427 14.125 -8 13 C-6.453 12.402 -6.453 12.402 -5 12 C-5.021 11.505 -5.041 11.01 -5.062 10.5 C-5.042 10.005 -5.021 9.51 -5 9 C-4.34 8.918 -3.68 8.835 -3 8.75 C-2.34 8.502 -1.68 8.255 -1 8 C-0.729 6.148 -0.816 4.458 -0.957 2.594 C-0.971 2.068 -0.985 1.542 -1 1 C-0.67 0.67 -0.34 0.34 0 0 Z " fill="#150C07" transform="translate(74,3)"/>
<path d="M0 0 C0.66 0.33 1.32 0.66 2 1 C1.738 1.287 1.476 1.574 1.206 1.87 C0.01 3.183 -1.183 4.497 -2.375 5.812 C-2.787 6.264 -3.2 6.716 -3.625 7.182 C-4.025 7.623 -4.424 8.065 -4.836 8.52 C-5.203 8.923 -5.569 9.326 -5.947 9.741 C-8.222 12.46 -9.247 14.201 -9.303 17.81 C-9.32 18.568 -9.336 19.326 -9.353 20.107 C-9.362 20.922 -9.37 21.738 -9.379 22.578 C-9.395 23.431 -9.412 24.285 -9.43 25.138 C-9.476 27.384 -9.511 29.63 -9.543 31.877 C-9.594 35.457 -9.66 39.037 -9.731 42.618 C-9.753 43.858 -9.77 45.098 -9.786 46.338 C-9.867 50.968 -10.208 55.436 -11 60 C-11.33 60 -11.66 60 -12 60 C-12.281 53.95 -12.492 47.902 -12.622 41.846 C-12.684 39.033 -12.768 36.224 -12.905 33.413 C-13.889 12.784 -13.889 12.784 -7.751 5.97 C-2.738 1.238 -2.738 1.238 0 0 Z " fill="#83817E" transform="translate(235,96)"/>
<path d="M0 0 C0.412 0.41 0.825 0.82 1.25 1.242 C5.562 5.265 9.022 7.099 15 8 C14.354 8.134 13.708 8.268 13.043 8.406 C12.369 8.602 11.695 8.798 11 9 C10.312 10.5 10.312 10.5 10 12 C9.67 12.33 9.34 12.66 9 13 C9.99 13.33 10.98 13.66 12 14 C11.34 14.33 11.34 14.33 8 16 C7.752 15.484 7.505 14.969 7.25 14.438 C6.838 13.963 6.425 13.489 6 13 C4.25 13.25 4.25 13.25 2 14 C0.003 14.532 -1.926 15.018 -4 15 C-5.375 13.562 -5.375 13.562 -6 12 C-5.578 11.807 -5.157 11.613 -4.723 11.414 C-4.175 11.154 -3.627 10.893 -3.062 10.625 C-2.517 10.37 -1.972 10.115 -1.41 9.852 C0 9 0 9 1 7 C0.34 6.67 -0.32 6.34 -1 6 C-1.75 4.062 -1.75 4.062 -2 2 C-1.016 0.871 -1.016 0.871 0 0 Z " fill="#EBEBE6" transform="translate(145,90)"/>
<path d="M0 0 C5.101 0.453 9.459 1.19 13.145 5.02 C13.145 5.68 13.145 6.34 13.145 7.02 C10.116 8.11 7.014 8.251 3.828 8.406 C3.579 8.419 3.579 8.419 2.32 8.484 C1.274 8.535 0.227 8.585 -0.819 8.632 C-2.417 8.707 -4.014 8.798 -5.611 8.889 C-6.631 8.937 -7.652 8.985 -8.672 9.031 C-9.147 9.06 -9.622 9.089 -10.111 9.119 C-12.997 9.229 -14.638 8.904 -16.855 7.02 C-16.525 6.36 -16.195 5.7 -15.855 5.02 C-15.525 5.35 -15.195 5.68 -14.855 6.02 C-12.454 6.471 -10.254 6.49 -7.855 6.02 C-5.845 4.606 -4.376 2.936 -2.855 1.02 C-1.855 0.02 -1.855 0.02 0 0 Z M4.145 3.02 C2.895 3.895 2.895 3.895 2.145 5.02 C4.02 6.145 4.02 6.145 6.145 7.02 C7.395 6.145 7.395 6.145 8.145 5.02 C6.27 3.895 6.27 3.895 4.145 3.02 Z " fill="#6A6761" transform="translate(48.85546875,88.98046875)"/>
<path d="M0 0 C2.169 1.285 2.522 2.479 3.195 4.844 C3.688 6 3.688 6 5.688 7 C5.664 8.629 5.664 8.629 5.312 10.562 C5.257 10.883 5.257 10.883 4.977 12.504 C4.929 12.751 4.929 12.751 4.688 14 C2.879 14.25 2.879 14.25 0.688 14 C-0.538 12.658 -1.426 11.515 -2.375 10 C-4.854 6.107 -4.854 6.107 -6.922 5.625 C-8.312 6 -8.312 6 -9.5 8 C-9.768 8.66 -10.036 9.32 -10.312 10 C-10.972 9.67 -11.632 9.34 -12.312 9 C-11.982 8.34 -11.653 7.68 -11.312 7 C-11.106 6.361 -10.9 5.721 -10.688 5.062 C-8.282 1.454 -4.272 0 0 0 Z " fill="#1D1713" transform="translate(150.3125,102)"/>
<path d="M0 0 C-0.33 12.87 -0.66 25.74 -1 39 C-1.33 39 -1.66 39 -2 39 C-2.33 28.77 -2.66 18.54 -3 8 C-3.33 10.31 -3.66 12.62 -4 15 C-4.33 15 -4.66 15 -5 15 C-5 12.03 -5 9.06 -5 6 C-5.66 6.66 -6.32 7.32 -7 8 C-7 8.66 -7 9.32 -7 10 C-9 10 -9 10 -10.125 9 C-10.414 8.67 -10.703 8.34 -11 8 C-11.289 8.33 -11.578 8.66 -11.875 9 C-13 10 -13 10 -15 10 C-15.953 8.695 -15.953 8.695 -16 7 C-14.436 5.633 -12.603 4.79 -10.75 3.875 C-10.498 3.743 -10.498 3.743 -9.223 3.074 C-3.277 0 -3.277 0 0 0 Z " fill="#E5E4E0" transform="translate(66,11)"/>
<path d="M0 0 C0 1.32 0 2.64 0 4 C-0.66 4 -1.32 4 -2 4 C-2 4.66 -2 5.32 -2 6 C-3.098 6.391 -3.098 6.391 -4.508 6.695 C-5.892 7.196 -5.892 7.196 -7 8 C-7.554 10.326 -7.191 12.526 -6.875 14.875 C-6.813 15.5 -6.751 16.125 -6.688 16.77 C-6.409 19.401 -6.048 21.833 -5.32 24.383 C-5.267 24.65 -5.267 24.65 -5 26 C-5.66 26.33 -6.32 26.66 -7 27 C-10.79 23.294 -11.431 19.525 -11.5 14.438 C-11.518 13.884 -11.536 13.33 -11.555 12.759 C-11.501 8.986 -10.591 6.881 -8.114 4.044 C-5.738 1.816 -3.311 0 0 0 Z " fill="#EFEFEA" transform="translate(138,67)"/>
<path d="M0 0 C-0.33 0.66 -0.66 1.32 -1 2 C-1.66 2 -2.32 2 -3 2 C-3.492 3.32 -3.492 3.32 -3.875 5.125 C-4.829 8.815 -6.219 12.299 -9 15 C-10.566 15.16 -10.566 15.16 -12 15 C-12.33 15 -12.66 15 -13 15 C-13.558 6.669 -13.558 6.669 -10.91 3.035 C-10.61 2.694 -10.309 2.352 -10 2 C-9.855 1.834 -9.855 1.834 -9.121 0.996 C-6.205 -1.725 -3.504 -0.969 0 0 Z " fill="#1A120C" transform="translate(198,73)"/>
<path d="M0 0 C0.33 0 0.66 0 1 0 C1.046 5.198 1.082 10.396 1.104 15.594 C1.114 18.008 1.128 20.421 1.151 22.835 C1.173 25.162 1.185 27.49 1.19 29.818 C1.193 30.707 1.201 31.597 1.211 32.486 C1.226 33.729 1.227 34.972 1.227 36.215 C1.231 36.923 1.236 37.631 1.241 38.361 C1.161 38.902 1.082 39.443 1 40 C0.67 40.165 0.67 40.165 -1 41 C-1.33 38.03 -1.66 35.06 -2 32 C-5 32 -5 32 -7 33 C-6.236 29.305 -6.236 29.305 -4.957 27.648 C-3.369 24.913 -4.016 22.129 -4.223 19.059 C-4.149 18.379 -4.076 17.7 -4 17 C-3.01 16.34 -2.02 15.68 -1 15 C-1 17.64 -1 20.28 -1 23 C-0.67 15.41 -0.34 7.82 0 0 Z " fill="#99928E" transform="translate(173,117)"/>
<path d="M0 0 C0 6.93 0 13.86 0 21 C-0.99 21 -1.98 21 -3 21 C-5.652 17.541 -5.333 13.575 -5.312 9.375 C-5.329 8.694 -5.345 8.014 -5.361 7.312 C-5.362 6.66 -5.363 6.008 -5.363 5.336 C-5.366 4.743 -5.369 4.151 -5.372 3.541 C-5 2 -5 2 -3.602 0.792 C-2 0 -2 0 0 0 Z " fill="#1C110B" transform="translate(180,130)"/>
<path d="M0 0 C2 2.75 2 2.75 2 5 C-10.54 5 -23.08 5 -36 5 C-35.67 3.68 -35.34 2.36 -35 1 C-34.34 1 -33.68 1 -33 1 C-33 1.66 -33 2.32 -33 3 C-32.599 2.97 -32.198 2.939 -31.785 2.908 C-23.16 2.273 -14.618 1.867 -5.967 2.125 C-5.329 2.137 -4.692 2.148 -4.035 2.16 C-3.472 2.177 -2.909 2.194 -2.328 2.211 C-1.89 2.141 -1.452 2.072 -1 2 C-0.67 1.34 -0.34 0.68 0 0 Z " fill="#948B86" transform="translate(102,225)"/>
<path d="M0 0 C0.33 0 0.66 0 1 0 C1.137 1.059 1.233 2.123 1.312 3.188 C1.371 3.779 1.429 4.371 1.488 4.98 C0.837 7.676 -0.229 9.118 -2.251 10.999 C-5.908 13.092 -10.232 12.502 -14.312 12.312 C-15.253 12.287 -16.194 12.265 -17.135 12.244 C-19.425 12.189 -21.712 12.103 -24 12 C-23.964 12.605 -23.929 13.209 -23.892 13.833 C-23.761 16.102 -23.638 18.372 -23.518 20.643 C-23.465 21.62 -23.41 22.598 -23.352 23.575 C-23.042 28.842 -22.82 33.809 -24 39 C-24.33 39 -24.66 39 -25 39 C-25 29.76 -25 20.52 -25 11 C-15.75 10.562 -15.75 10.562 -12.854 10.432 C-12.474 10.413 -12.474 10.413 -10.547 10.316 C-9.772 10.28 -8.997 10.243 -8.198 10.205 C-6.043 10.004 -4.082 9.583 -2 9 C-2.66 7.02 -3.32 5.04 -4 3 C-2.68 3 -1.36 3 0 3 C0 2.01 0 1.02 0 0 Z " fill="#4B4844" transform="translate(137,183)"/>
<path d="M0 0 C0.33 0 0.66 0 1 0 C1.02 0.605 1.04 1.209 1.06 1.833 C1.137 4.103 1.225 6.373 1.317 8.643 C1.355 9.62 1.39 10.598 1.422 11.575 C1.584 16.539 1.758 21.122 3.599 25.801 C4.197 27.59 3.99 29.05 3.625 30.875 C3.57 31.173 3.57 31.173 3.289 32.68 C3.194 33.115 3.098 33.551 3 34 C2.34 34 1.68 34 1 34 C1 35.65 1 37.3 1 39 C0.01 39 -0.98 39 -2 39 C-2 38.34 -2 37.68 -2 37 C-1.34 37 -0.68 37 0 37 C0 36.01 0 35.02 0 34 C-5.61 34 -11.22 34 -17 34 C-17 33.67 -17 33.34 -17 33 C-11.39 33 -5.78 33 0 33 C0 22.11 0 11.22 0 0 Z " fill="#3A3632" transform="translate(173,76)"/>
<path d="M0 0 C0.33 0 0.66 0 1 0 C1.33 6.93 1.66 13.86 2 21 C2.66 21 3.32 21 4 21 C4.144 20.505 4.289 20.01 4.438 19.5 C4.623 19.005 4.809 18.51 5 18 C6.535 17.906 6.535 17.906 8 18 C8.76 24.012 8.76 24.012 6.957 26.355 C3.701 29 3.701 29 1 29 C0.023 27.046 -0.123 26.377 -0.114 24.294 C-0.113 23.754 -0.113 23.214 -0.113 22.657 C-0.108 22.077 -0.103 21.496 -0.098 20.898 C-0.096 20.302 -0.095 19.706 -0.093 19.091 C-0.088 17.186 -0.075 15.28 -0.062 13.375 C-0.057 12.083 -0.053 10.792 -0.049 9.5 C-0.038 6.333 -0.021 3.167 0 0 Z " fill="#231A14" transform="translate(133,126)"/>
<path d="M0 0 C2.885 1.154 5.284 2.38 7 5 C7.151 7.493 6.866 9.655 6 12 C3.831 13.609 2.681 14 0 14 C-1.329 11.46 -1.149 8.672 -1.125 5.875 C-1.129 5.42 -1.133 4.965 -1.137 4.496 C-1.127 1.127 -1.127 1.127 0 0 Z " fill="#1D130B" transform="translate(94,118)"/>
<path d="M0 0 C0.227 1.233 0.45 2.468 0.621 3.711 C1 5 1 5 1.996 5.875 C3.546 7.612 3.43 9.347 3.625 11.625 C3.7 12.442 3.775 13.26 3.852 14.102 C3.876 14.415 3.876 14.415 4 16 C3.34 16 2.68 16 2 16 C2 16.66 2 17.32 2 18 C1.34 18 0.68 18 0 18 C-0.33 18.99 -0.66 19.98 -1 21 C-1.33 18.69 -1.66 16.38 -2 14 C-2.33 14 -2.66 14 -3 14 C-3.058 11.854 -3.094 9.709 -3.125 7.562 C-3.142 6.951 -3.159 6.339 -3.176 5.709 C-3.182 5.126 -3.189 4.542 -3.195 3.941 C-3.206 3.402 -3.216 2.863 -3.227 2.307 C-3.152 1.876 -3.077 1.444 -3 1 C-1 0 -1 0 0 0 Z " fill="#9C9892" transform="translate(145,107)"/>
<path d="M0 0 C0.33 0 0.66 0 1 0 C1.308 1.542 1.568 3.073 1.812 4.625 C2.601 9.151 4.011 12.43 7 16 C3.125 14.125 3.125 14.125 2 13 C1.67 19.6 1.34 26.2 1 33 C0.67 33 0.34 33 0 33 C-0.02 32.622 -0.04 32.244 -0.06 31.854 C-0.156 30.131 -0.265 28.41 -0.375 26.688 C-0.406 26.093 -0.437 25.498 -0.469 24.885 C-0.775 20.318 -0.775 20.318 -2.062 18.5 C-3.653 15.955 -2.938 13.204 -2.625 10.312 C-2.568 9.706 -2.512 9.099 -2.453 8.475 C-2.312 6.982 -2.161 5.491 -2 4 C-1.34 4 -0.68 4 0 4 C0 2.68 0 1.36 0 0 Z " fill="#B1ACA7" transform="translate(183,83)"/>
<path d="M0 0 C0.871 2.059 1.181 3.453 0.469 5.602 C-0.972 8.641 -0.972 8.641 -2 10 C-2.66 10 -3.32 10 -4 10 C-4 11.32 -4 12.64 -4 14 C-4.66 14 -5.32 14 -6 14 C-6 18.29 -6 22.58 -6 27 C-6.33 27 -6.66 27 -7 27 C-7 18.75 -7 10.5 -7 2 C-5.02 1.67 -3.04 1.34 -1 1 C-0.67 0.67 -0.34 0.34 0 0 Z " fill="#9C9892" transform="translate(187,73)"/>
<path d="M0 0 C0.992 0.742 0.992 0.742 2 2 C2.195 3.945 2.195 3.945 2.125 6.125 C2.107 6.849 2.089 7.574 2.07 8.32 C2.059 8.597 2.059 8.597 2 10 C1.856 9.825 1.856 9.825 1.125 8.938 C0.754 8.628 0.382 8.319 0 8 C-0.33 8.165 -0.33 8.165 -2 9 C-3.438 9.168 -3.438 9.168 -5 9.188 C-5.516 9.202 -6.031 9.216 -6.562 9.23 C-8 9 -8 9 -9.199 8.117 C-10 7 -10 7 -9.812 4.938 C-9 3 -9 3 -7.562 2.188 C-6 2 -6 2 -4 3 C-3.67 2.34 -3.34 1.68 -3 1 C-2.01 1.33 -1.02 1.66 0 2 C0 1.34 0 0.68 0 0 Z " fill="#6F6B68" transform="translate(203,133)"/>
<path d="M0 0 C0.983 0.739 0.983 0.739 2 2 C2.259 3.892 2.259 3.892 2.266 6.176 C2.267 6.379 2.267 6.379 2.271 7.409 C2.273 8.271 2.269 9.132 2.261 9.994 C2.25 11.298 2.261 12.6 2.273 13.904 C2.281 18.321 2.17 22.073 0 26 C-0.33 26 -0.66 26 -1 26 C-1.025 23.422 -1.043 20.845 -1.055 18.267 C-1.06 17.393 -1.067 16.519 -1.075 15.646 C-1.127 10.35 -0.957 5.223 0 0 Z " fill="#16100A" transform="translate(214,137)"/>
<path d="M0 0 C0.33 0 0.66 0 1 0 C1.051 4.057 1.086 8.113 1.11 12.17 C1.12 13.55 1.134 14.929 1.151 16.308 C1.175 18.294 1.187 20.28 1.195 22.266 C1.206 22.879 1.216 23.493 1.227 24.125 C1.228 27.665 0.889 29.981 -1 33 C-1 32.34 -1 31.68 -1 31 C-1.598 30.876 -2.196 30.752 -2.812 30.625 C-5.783 29.776 -6.357 28.547 -8 26 C-7.402 26.021 -6.804 26.041 -6.188 26.062 C-2.586 25.96 -2.586 25.96 -1 25 C-0.65 23.05 -0.511 21.395 -0.488 19.434 C-0.479 19.157 -0.479 19.157 -0.434 17.756 C-0.38 15.983 -0.346 14.211 -0.312 12.438 C-0.279 11.238 -0.245 10.038 -0.209 8.838 C-0.124 5.892 -0.057 2.946 0 0 Z " fill="#DDDDD9" transform="translate(172,52)"/>
<path d="M0 0 C2.456 3.467 1.89 6.02 1.215 10.102 C1 12 1 12 1.625 14.375 C1.749 14.911 1.873 15.447 2 16 C0.523 17.102 0.523 17.102 -1 18 C-1.505 16.397 -2.004 14.793 -2.5 13.188 C-2.643 12.736 -2.786 12.284 -2.934 11.818 C-3.959 8.474 -4.501 6.217 -3.125 2.875 C-2 1 -2 1 0 0 Z " fill="#EEEFEB" transform="translate(186,129)"/>
<path d="M0 0 C3.936 3.936 3.936 3.936 4.114 6.879 C4.111 7.251 4.111 7.251 4.098 9.133 C4.096 9.536 4.096 9.536 4.088 11.574 C4.08 12.424 4.071 13.275 4.062 14.125 C4.057 14.983 4.053 15.841 4.049 16.699 C4.037 18.8 4.021 20.9 4 23 C3.01 23 2.02 23 1 23 C0.67 15.41 0.34 7.82 0 0 Z " fill="#736E6B" transform="translate(74,1)"/>
<path d="M0 0 C0.33 0 0.66 0 1 0 C1.05 2.559 1.086 5.118 1.11 7.678 C1.12 8.545 1.133 9.412 1.151 10.279 C1.266 16.127 0.739 21.385 -1 27 C-1.66 26.67 -2.32 26.34 -3 26 C-3.227 24.51 -3.227 24.51 -3.195 22.621 C-3.189 21.948 -3.182 21.274 -3.176 20.58 C-3.159 19.873 -3.142 19.166 -3.125 18.438 C-3.116 17.727 -3.107 17.016 -3.098 16.283 C-3.074 14.522 -3.041 12.761 -3 11 C-2.67 11 -2.34 11 -2 11 C-1.67 12.65 -1.34 14.3 -1 16 C-0.67 10.72 -0.34 5.44 0 0 Z " fill="#E2E1DE" transform="translate(212,141)"/>
<path d="M0 0 C0.66 0 1.32 0 2 0 C2 2.31 2 4.62 2 7 C2.99 7 3.98 7 5 7 C5 9.97 5 12.94 5 16 C4.67 16 4.34 16 4 16 C3.628 14.677 3.294 13.343 3 12 C2.951 12.398 2.902 12.797 2.852 13.207 C2.777 13.737 2.702 14.267 2.625 14.812 C2.555 15.335 2.486 15.857 2.414 16.395 C2 18 2 18 0 21 C0 14.07 0 7.14 0 0 Z " fill="#110905" transform="translate(175,165)"/>
<path d="M0 0 C-2.051 1.066 -3.793 1.956 -6.062 2.438 C-8 3 -8 3 -9.375 4.5 C-11.654 6.604 -13.927 7.034 -17 7 C-18.875 6.062 -18.875 6.062 -20 5 C-19.67 4.34 -19.34 3.68 -19 3 C-17.682 2.61 -16.343 2.29 -15 2 C-14.104 1.647 -13.208 1.293 -12.312 0.938 C-8.294 -0.457 -4.199 -0.168 0 0 Z " fill="#170E08" transform="translate(71,187)"/>
<path d="M0 0 C0.258 0.165 0.258 0.165 1.562 1 C4.947 2.704 9.144 2.554 12.715 1.488 C13.139 1.327 13.563 1.166 14 1 C14 1.66 14 2.32 14 3 C13.34 3 12.68 3 12 3 C11.856 3.32 11.856 3.32 11.125 4.938 C10 7 10 7 8.312 7.812 C5.115 8.072 2.144 7.574 -1 7 C-1 6.34 -1 5.68 -1 5 C0.32 5.33 1.64 5.66 3 6 C3 5.01 3 4.02 3 3 C2.01 3 1.02 3 0 3 C0 2.01 0 1.02 0 0 Z " fill="#E8E8E4" transform="translate(188,145)"/>
<path d="M0 0 C1.98 0 3.96 0 6 0 C6 2.97 6 5.94 6 9 C5.01 8.835 5.01 8.835 0 8 C0 5.36 0 2.72 0 0 Z " fill="#D0CFCA" transform="translate(102,115)"/>
<path d="M0 0 C0.33 0 0.66 0 1 0 C1.206 19.632 1.206 19.632 0 27 C-0.66 27 -1.32 27 -2 27 C-2.402 17.899 -1.18 9.009 0 0 Z " fill="#ACA7A2" transform="translate(70,198)"/>
<path d="M0 0 C0.33 0 0.66 0 1 0 C1 3.96 1 7.92 1 12 C0.34 12 -0.32 12 -1 12 C-1.625 13.5 -1.625 13.5 -2 15 C-2.11 14.613 -2.219 14.227 -2.332 13.828 C-3.137 11.185 -3.886 8.926 -5.625 6.75 C-7 5 -7 5 -7 3 C-6.01 3.165 -6.01 3.165 -1 4 C-0.856 3.34 -0.711 2.68 -0.562 2 C-0.377 1.34 -0.191 0.68 0 0 Z " fill="#E6E6E2" transform="translate(55,115)"/>
<path d="M0 0 C0.66 0.33 1.32 0.66 2 1 C2.259 2.902 2.259 2.902 2.266 5.367 C2.267 5.585 2.267 5.585 2.271 6.687 C2.273 7.61 2.269 8.533 2.261 9.456 C2.25 10.863 2.261 12.269 2.273 13.676 C2.272 14.573 2.27 15.47 2.266 16.367 C2.263 17.183 2.261 17.999 2.259 18.839 C1.984 21.135 1.441 22.226 0 24 C-0.648 18.123 -1.103 12.291 -1.125 6.375 C-1.13 5.855 -1.134 5.334 -1.139 4.798 C-1.124 1.124 -1.124 1.124 0 0 Z " fill="#140B08" transform="translate(100,69)"/>
<path d="M0 0 C2.125 0.938 2.125 0.938 4 2 C0.082 5.541 -4.234 7.776 -9 10 C-9.676 8.637 -9.676 8.637 -10 7 C-8.855 5.832 -8.855 5.832 -7.188 4.812 C-6.645 4.468 -6.102 4.124 -5.543 3.77 C-4 3 -4 3 -2 3 C-2 2.34 -2 1.68 -2 1 C-1.34 0.67 -0.68 0.34 0 0 Z " fill="#E7E8E4" transform="translate(194,186)"/>
<path d="M0 0 C1.875 1 1.875 1 2.387 2.156 C2.682 3.474 2.898 4.649 2.875 6 C1.54 7.335 0.737 7.227 -1.125 7.312 C-2.746 7.289 -2.746 7.289 -4.125 7 C-5.188 5.188 -5.188 5.188 -5.125 3 C-3.582 0.644 -2.846 0 0 0 Z " fill="#E0E0DA" transform="translate(159.125,83)"/>
<path d="M0 0 C2.006 0.323 3.579 0.739 5.312 1.812 C6 3 6 3 5.938 5.125 C5.628 5.744 5.319 6.363 5 7 C3.293 7.434 1.718 7.354 0 7 C-1 6 -1 6 -1.133 4.844 C-1.13 4.4 -1.128 3.957 -1.125 3.5 C-1.128 3.057 -1.13 2.613 -1.133 2.156 C-1 1 -1 1 0 0 Z " fill="#D3D1CC" transform="translate(158,135)"/>
<path d="M0 0 C2.15 -0.098 3.004 0.002 5 1 C5.258 0.99 5.258 0.99 6.562 0.938 C7.037 0.958 7.511 0.979 8 1 C8.33 1.66 8.66 2.32 9 3 C11.062 4.125 11.062 4.125 13 5 C11.02 5.33 9.04 5.66 7 6 C7 5.34 7 4.68 7 4 C5.68 4 4.36 4 3 4 C2.875 5.438 2.875 5.438 3 7 C3.66 7.33 4.32 7.66 5 8 C3.625 8.188 3.625 8.188 2 8 C0.21 6.21 -0.118 4.757 -0.125 2.312 C-0.084 1.549 -0.042 0.786 0 0 Z " fill="#2A241F" transform="translate(146,86)"/>
<path d="M0 0 C0.33 0 0.66 0 1 0 C1 8.58 1 17.16 1 26 C0.01 26 -0.98 26 -2 26 C-1.832 25.29 -1.665 24.579 -1.492 23.848 C-1.286 22.919 -1.08 21.991 -0.875 21.062 C-0.763 20.594 -0.651 20.125 -0.535 19.643 C-0.242 18.285 -0.242 18.285 0 16 C-0.66 15.67 -1.32 15.34 -2 15 C-2.043 13.51 -2.043 13.51 -1.758 11.621 C-1.661 10.948 -1.564 10.274 -1.465 9.58 C-1.353 8.873 -1.241 8.166 -1.125 7.438 C-1.073 7.082 -1.073 7.082 -0.809 5.283 C-0.548 3.521 -0.278 1.76 0 0 Z " fill="#AFA8A4" transform="translate(173,171)"/>
<path d="M0 0 C5.94 0.33 11.88 0.66 18 1 C18 1.33 18 1.66 18 2 C12.72 2 7.44 2 2 2 C2 2.66 2 3.32 2 4 C2.66 4.33 3.32 4.66 4 5 C3.34 5 2.68 5 2 5 C2 5.66 2 6.32 2 7 C2.66 7.33 3.32 7.66 4 8 C2.35 8 0.7 8 -1 8 C-0.67 5.36 -0.34 2.72 0 0 Z " fill="#120C06" transform="translate(155,109)"/>
<path d="M0 0 C0.66 0.33 1.32 0.66 2 1 C2 1.66 2 2.32 2 3 C2.454 2.773 2.907 2.546 3.375 2.312 C3.643 2.261 3.643 2.261 5 2 C6.188 3.438 6.188 3.438 7 5 C6.24 5.7 5.467 6.384 4.688 7.062 C4.258 7.445 3.829 7.828 3.387 8.223 C2 9 2 9 0.332 8.621 C-0.108 8.416 -0.547 8.211 -1 8 C-0.907 7.794 -0.907 7.794 -0.438 6.75 C0.111 4.556 -0.425 3.155 -1 1 C-0.67 0.67 -0.34 0.34 0 0 Z " fill="#251D19" transform="translate(204,91)"/>
<path d="M0 0 C0 1.32 0 2.64 0 4 C-0.66 4 -1.32 4 -2 4 C-2 4.66 -2 5.32 -2 6 C-2.988 6.703 -2.988 6.703 -4.312 7.25 C-4.742 7.441 -5.171 7.632 -5.613 7.828 C-7 8 -7 8 -8.668 7.047 C-8.888 6.874 -8.888 6.874 -10 6 C-8.713 4.994 -7.421 3.995 -6.125 3 C-5.943 2.857 -5.943 2.857 -5.02 2.133 C-2.227 0 -2.227 0 0 0 Z " fill="#E5E3E1" transform="translate(138,67)"/>
</svg>
