<?xml version="1.0" encoding="UTF-8"?>
<!-- Generator: visioncortex VTracer 0.6.12 -->
<svg version="1.1" xmlns="http://www.w3.org/2000/svg" width="255" height="255">
<path d="M0 0 C0.391 -0.004 0.391 -0.004 2.367 -0.025 C4.941 -0.05 7.514 -0.066 10.088 -0.081 C10.979 -0.086 11.869 -0.091 12.76 -0.097 C16.465 -0.118 20.17 -0.137 23.875 -0.148 C29.165 -0.165 34.454 -0.198 39.744 -0.255 C43.476 -0.294 47.207 -0.313 50.939 -0.318 C53.163 -0.322 55.386 -0.334 57.61 -0.366 C60.092 -0.402 62.573 -0.398 65.055 -0.391 C65.783 -0.407 66.511 -0.423 67.261 -0.44 C71.952 -0.383 74.468 0.691 77.964 3.827 C80.09 6.402 80.218 8.783 80.226 12.044 C80.228 12.433 80.228 12.433 80.239 14.401 C80.238 15.259 80.238 16.117 80.237 16.975 C80.24 17.882 80.244 18.789 80.247 19.696 C80.256 22.157 80.259 24.618 80.259 27.079 C80.26 28.618 80.262 30.157 80.265 31.697 C80.274 37.072 80.278 42.448 80.277 47.823 C80.277 52.825 80.287 57.826 80.303 62.828 C80.316 67.129 80.322 71.43 80.321 75.73 C80.321 78.296 80.323 80.861 80.334 83.427 C80.344 85.843 80.344 88.258 80.337 90.674 C80.336 91.557 80.338 92.439 80.344 93.322 C80.376 98.333 80.069 102.559 78.092 107.193 C75.204 114.712 75.712 122.716 75.636 130.659 C75.465 145.64 75.465 145.64 72.092 150.193 C68.8 152.742 63.972 152.639 60.092 153.193 C59.762 163.423 59.432 173.653 59.092 184.193 C60.742 184.523 62.392 184.853 64.092 185.193 C66.823 187.241 67.45 188.911 68.092 192.193 C68.206 193.955 68.279 195.677 68.295 197.439 C68.301 197.932 68.307 198.425 68.312 198.933 C68.322 199.971 68.328 201.009 68.332 202.047 C68.342 203.623 68.373 205.197 68.405 206.773 C68.504 216.16 68.504 216.16 65.092 220.193 C64.819 220.556 64.546 220.92 64.265 221.295 C62.475 222.666 60.951 222.455 58.722 222.468 C58.281 222.473 57.84 222.478 57.386 222.483 C55.927 222.497 54.469 222.496 53.01 222.494 C51.994 222.498 50.977 222.502 49.961 222.507 C47.828 222.514 45.695 222.514 43.562 222.509 C40.839 222.503 38.116 222.52 35.392 222.543 C33.291 222.558 31.19 222.558 29.089 222.555 C28.085 222.556 27.082 222.561 26.079 222.571 C16.383 222.657 16.383 222.657 12.092 219.193 C10.798 217.899 10.961 217.373 10.947 215.573 C10.94 215.025 10.934 214.477 10.927 213.913 C10.926 213.318 10.925 212.724 10.924 212.111 C10.922 211.806 10.922 211.806 10.914 210.261 C10.909 208.965 10.907 207.67 10.907 206.374 C10.905 204.399 10.886 202.424 10.867 200.449 C10.864 199.19 10.863 197.932 10.862 196.673 C10.854 196.085 10.847 195.496 10.84 194.889 C10.858 191.53 10.983 188.956 13.092 186.193 C14.108 185.706 15.14 185.252 16.183 184.824 C18.936 183.576 18.936 183.576 19.614 181.913 C19.771 180.277 19.742 178.739 19.643 177.099 C19.632 176.511 19.621 175.923 19.61 175.318 C19.57 173.441 19.489 171.568 19.405 169.693 C19.347 167.818 19.298 165.943 19.253 164.068 C19.222 162.903 19.182 161.737 19.133 160.572 C19.035 157.896 18.96 155.691 20.092 153.193 C19.428 153.216 18.764 153.239 18.08 153.263 C7.92 153.523 7.92 153.523 5.092 151.193 C0.84 145.165 1.532 137.284 1.405 130.255 C1.371 128.986 1.337 127.718 1.301 126.449 C1.217 123.364 1.15 120.279 1.092 117.193 C-0.336 117.524 -0.336 117.524 -1.908 118.193 C-3.968 121.689 -4.281 126.084 -4.513 130.06 C-4.551 130.613 -4.589 131.166 -4.627 131.735 C-4.906 136.2 -5.009 140.666 -5.084 145.138 C-5.096 145.808 -5.108 146.478 -5.12 147.169 C-5.169 149.925 -5.216 152.68 -5.234 155.436 C-5.249 157.483 -5.289 159.529 -5.334 161.576 C-5.332 162.198 -5.33 162.819 -5.328 163.46 C-5.445 167.578 -5.445 167.578 -6.704 169.252 C-10.134 172.071 -13.959 171.728 -18.158 171.693 C-18.951 171.687 -19.743 171.681 -20.56 171.676 C-32.04 171.336 -43.427 168.324 -51.848 160.211 C-52.99 159.114 -54.17 158.066 -55.353 157.013 C-72.473 141.332 -78.814 120.766 -79.908 98.193 C-80.226 89.656 -80.332 81.11 -80.47 72.568 C-80.48 71.974 -80.49 71.38 -80.5 70.768 C-80.589 65.331 -80.675 59.895 -80.753 54.458 C-80.837 48.628 -80.931 42.798 -81.062 36.968 C-81.144 33.263 -81.203 29.558 -81.249 25.853 C-81.271 24.383 -81.302 22.914 -81.343 21.445 C-81.396 19.442 -81.418 17.442 -81.431 15.439 C-81.454 14.871 -81.477 14.302 -81.5 13.717 C-81.483 10.463 -80.868 8.77 -78.625 6.365 C-75.09 2.973 -70.979 3.049 -66.361 3.111 C-66.09 3.113 -66.09 3.113 -64.719 3.12 C-63.548 3.128 -62.377 3.137 -61.206 3.148 C-59.352 3.166 -57.499 3.176 -55.645 3.184 C-50.377 3.209 -45.108 3.244 -39.84 3.289 C-36.613 3.316 -33.386 3.333 -30.159 3.344 C-28.931 3.35 -27.702 3.36 -26.474 3.374 C-24.758 3.393 -23.042 3.4 -21.326 3.404 C-20.819 3.413 -20.313 3.422 -19.791 3.431 C-16.776 3.422 -15.321 2.91 -12.908 1.193 C-8.639 -0 -4.411 0.026 0 0 Z " fill="#1B110B" transform="translate(91.907958984375,21.80712890625)"/>
<path d="M0 0 C0.264 -0.004 0.264 -0.004 1.602 -0.025 C3.353 -0.05 5.103 -0.066 6.854 -0.081 C7.453 -0.086 8.052 -0.091 8.669 -0.097 C11.838 -0.123 15.008 -0.143 18.178 -0.157 C20.798 -0.171 23.418 -0.198 26.038 -0.239 C29.204 -0.289 32.37 -0.313 35.537 -0.32 C36.741 -0.327 37.946 -0.342 39.15 -0.366 C40.841 -0.398 42.528 -0.398 44.219 -0.391 C44.712 -0.407 45.205 -0.423 45.713 -0.44 C48.693 -0.387 50.36 0.348 52.61 2.327 C55.26 5.29 55.526 7.758 55.479 11.625 C55.491 12.251 55.503 12.876 55.515 13.52 C55.549 15.582 55.548 17.642 55.546 19.705 C55.561 21.157 55.579 22.608 55.599 24.06 C55.635 27.109 55.655 30.158 55.663 33.207 C55.672 37.061 55.708 40.914 55.753 44.768 C56.057 70.604 56.057 70.604 55.421 82.9 C55.404 83.234 55.404 83.234 55.32 84.925 C54.897 91.347 53.212 97.25 50.803 103.193 C50.628 103.641 50.453 104.088 50.273 104.55 C46.247 114.55 39.133 121.869 30.322 127.866 C25.158 131.463 20.699 135.813 16.194 140.182 C5.799 150.215 5.799 150.215 1.038 150.787 C0.218 150.756 -0.602 150.725 -1.447 150.693 C-1.867 150.695 -2.287 150.698 -2.72 150.701 C-4.818 150.635 -6.08 150.275 -7.794 149.061 C-9.796 146.395 -9.753 144.091 -9.874 140.828 C-9.89 140.518 -9.89 140.518 -9.974 138.945 C-10.284 132.641 -10.352 126.335 -10.358 120.025 C-10.362 118.779 -10.367 117.534 -10.373 116.289 C-10.386 112.957 -10.392 109.625 -10.397 106.293 C-10.4 104.206 -10.404 102.119 -10.408 100.032 C-10.422 93.486 -10.432 86.939 -10.435 80.393 C-10.44 72.863 -10.458 65.333 -10.486 57.803 C-10.508 51.956 -10.518 46.109 -10.519 40.261 C-10.521 36.779 -10.526 33.296 -10.544 29.813 C-10.561 26.547 -10.563 23.281 -10.554 20.015 C-10.553 18.819 -10.558 17.623 -10.568 16.427 C-10.58 14.792 -10.574 13.157 -10.564 11.521 C-10.572 11.051 -10.58 10.581 -10.588 10.097 C-10.536 6.577 -9.467 3.911 -7.197 1.193 C-4.751 -0.03 -2.67 0.023 0 0 Z " fill="#FAFAF8" transform="translate(187.196533203125,22.80712890625)"/>
<path d="M0 0 C25.41 0 50.82 0 77 0 C77.04 22.529 77.04 22.529 77.049 31.943 C77.055 38.453 77.062 44.963 77.075 51.472 C77.085 56.213 77.092 60.953 77.094 65.693 C77.095 68.204 77.098 70.715 77.106 73.227 C77.112 75.588 77.115 77.949 77.113 80.311 C77.113 81.18 77.115 82.048 77.119 82.917 C77.124 84.099 77.122 85.281 77.12 86.463 C77.121 87.126 77.122 87.789 77.123 88.471 C77 90 77 90 76 91 C70.217 92.484 63.94 92.225 58.009 92.354 C55.523 92.41 53.038 92.48 50.552 92.549 C45.943 92.678 41.333 92.8 36.723 92.899 C33.498 92.968 30.274 93.056 27.051 93.155 C25.834 93.189 24.617 93.217 23.4 93.237 C14.615 93.389 5.836 94.192 -0.938 100.438 C-6.136 106.426 -7.114 111.974 -7.562 119.75 C-7.606 120.447 -7.649 121.145 -7.693 121.863 C-7.799 123.575 -7.901 125.288 -8 127 C-11.53 125.556 -13.3 123.812 -15.438 120.688 C-15.735 120.253 -16.033 119.819 -16.34 119.371 C-21.375 111.677 -24.593 103.361 -24.469 94.121 C-23.895 91.524 -23.187 89.566 -21 88 C-18.674 87.398 -16.394 87.349 -14 87.312 C-12.75 87.27 -11.5 87.225 -10.25 87.176 C-9.974 87.17 -9.974 87.17 -8.578 87.142 C-6.804 86.982 -5.59 86.826 -4 86 C-2.036 83.067 -1.703 80.416 -1.734 76.973 C-1.732 76.502 -1.731 76.031 -1.729 75.546 C-1.727 74.555 -1.731 73.564 -1.739 72.573 C-1.75 71.07 -1.739 69.568 -1.727 68.064 C-1.728 67.096 -1.73 66.128 -1.734 65.16 C-1.73 64.717 -1.726 64.274 -1.722 63.818 C-1.771 60.484 -2.516 57.999 -4 55 C-6.181 53.91 -7.465 53.824 -9.879 53.719 C-10.635 53.681 -11.391 53.644 -12.17 53.605 C-13.769 53.535 -15.368 53.465 -16.967 53.395 C-17.722 53.357 -18.476 53.32 -19.254 53.281 C-19.948 53.251 -20.642 53.221 -21.358 53.189 C-23 53 -23 53 -24 52 C-24.088 50.421 -24.116 48.887 -24.098 47.309 C-24.096 46.844 -24.095 46.379 -24.093 45.9 C-24.088 44.413 -24.075 42.925 -24.062 41.438 C-24.057 40.43 -24.053 39.423 -24.049 38.416 C-24.038 35.944 -24.021 33.472 -24 31 C-23.41 30.991 -22.82 30.981 -22.212 30.972 C-20.013 30.928 -17.817 30.866 -15.62 30.792 C-14.671 30.764 -13.721 30.743 -12.771 30.729 C-11.402 30.707 -10.036 30.661 -8.668 30.609 C-8.257 30.599 -8.257 30.599 -6.177 30.546 C-4 30 -4 30 -1 26 C-0.67 17.42 -0.34 8.84 0 0 Z " fill="#A7A29A" transform="translate(84,32)"/>
<path d="M0 0 C18.15 0 36.3 0 55 0 C55 6.27 55 12.54 55 19 C45.812 19.188 45.812 19.188 42.945 19.208 C39.26 19.344 35.929 19.48 32.918 21.773 C29.749 25.654 30.335 30.984 30.458 35.729 C30.5 37.43 30.499 39.128 30.492 40.83 C30.558 52.003 30.558 52.003 34 56 C36.181 57.09 37.465 57.176 39.879 57.281 C40.257 57.3 40.257 57.3 42.17 57.395 C43.769 57.465 45.368 57.535 46.967 57.605 C47.344 57.624 47.344 57.624 49.254 57.719 C49.948 57.749 50.642 57.779 51.358 57.811 C53 58 53 58 54 59 C54.114 60.674 54.114 60.674 54.098 62.816 C54.094 63.58 54.091 64.344 54.088 65.131 C54.084 65.532 54.084 65.532 54.062 67.562 C54.058 68.369 54.053 69.175 54.049 70.006 C54.037 72.004 54.021 74.002 54 76 C53.203 76.037 52.407 76.075 51.586 76.113 C44.772 76.506 39.597 77.023 34.188 81.5 C30.232 86.496 31.464 95.035 32 101 C33.444 109.628 37.92 117.025 43 124 C43.317 124.448 43.634 124.896 43.96 125.358 C46.122 128.269 47.826 129.562 51.25 130.938 C53.359 132.133 53.359 132.133 55 134 C56.036 138.554 55.485 143.396 55 148 C42.649 148.71 33.275 145.459 23.977 137.254 C21.851 135.285 19.906 133.181 18 131 C17.812 130.785 17.812 130.785 16.858 129.695 C10.97 122.808 7.05 115.874 4.599 107.131 C4.289 106.029 3.977 104.926 3.641 103.832 C0.852 94.734 0.527 86.027 0.488 76.562 C0.471 74.991 0.453 73.419 0.434 71.848 C0.391 68.15 0.362 64.452 0.339 60.754 C0.309 56.209 0.258 51.665 0.209 47.121 C0.046 31.414 0 15.709 0 0 Z " fill="#FBFBF9" transform="translate(21,35)"/>
<path d="M0 0 C0 0.33 0 0.66 0 1 C-1.98 1 -3.96 1 -6 1 C-6.144 1.969 -6.289 2.939 -6.438 3.938 C-6.875 6.875 -6.875 6.875 -8 8 C4.21 8.165 4.21 8.165 66 9 C66 9.33 66 9.66 66 10 C40.92 10 15.84 10 -10 10 C-10 18.58 -10 27.16 -10 36 C-14 41 -14 41 -16.29 41.568 C-17.107 41.541 -17.924 41.515 -18.766 41.488 C-19.568 41.476 -20.37 41.463 -21.196 41.45 C-22.204 41.405 -23.212 41.359 -24.25 41.312 C-27.468 41.209 -30.685 41.106 -34 41 C-33.67 47.93 -33.34 54.86 -33 62 C-24.75 62.312 -24.75 62.312 -22.171 62.388 C-15.912 62.693 -15.912 62.693 -13.516 64.293 C-10.776 67.379 -10.835 71.054 -10.797 75.027 C-10.791 75.498 -10.785 75.969 -10.78 76.454 C-10.77 77.445 -10.764 78.436 -10.76 79.427 C-10.75 80.93 -10.719 82.432 -10.688 83.936 C-10.587 92.878 -10.587 92.878 -13.164 96.209 C-15.767 98.671 -19.322 98.119 -22.688 98.062 C-23.199 98.058 -23.71 98.053 -24.236 98.049 C-25.491 98.037 -26.745 98.019 -28 98 C-28 97.67 -28 97.34 -28 97 C-27.518 96.997 -27.036 96.995 -26.539 96.992 C-24.532 96.869 -22.892 96.695 -21 96 C-19.694 93.988 -19.461 92.406 -19 90 C-22.96 90 -26.92 90 -31 90 C-31 89.67 -31 89.34 -31 89 C-27.04 89 -23.08 89 -19 89 C-19.33 83.39 -19.66 77.78 -20 72 C-28.187 71.813 -28.187 71.813 -30.739 71.792 C-34.581 71.633 -37.144 71.366 -39.988 68.637 C-43.042 65.181 -43.175 61.831 -43.238 57.414 C-43.246 56.875 -43.254 56.336 -43.263 55.781 C-43.277 54.643 -43.287 53.505 -43.295 52.367 C-43.307 51.209 -43.327 50.051 -43.357 48.894 C-43.634 38.037 -43.634 38.037 -41.105 34.773 C-38.485 32.204 -36.243 31.878 -32.648 31.902 C-31.882 31.905 -31.115 31.907 -30.326 31.91 C-29.352 31.919 -28.378 31.928 -27.375 31.938 C-25.828 31.948 -25.828 31.948 -18 32 C-18 25.73 -18 19.46 -18 13 C-36.15 13 -54.3 13 -73 13 C-72.67 19.6 -72.34 26.2 -72 33 C-71.918 38.051 -71.844 43.094 -71.831 48.145 C-71.821 51.259 -71.795 54.372 -71.771 57.486 C-71.726 63.225 -71.688 68.964 -71.674 74.703 C-71.664 78.752 -71.634 82.802 -71.593 86.851 C-71.581 88.368 -71.575 89.884 -71.578 91.4 C-71.597 108.609 -68.536 126.495 -57.009 139.831 C-55.944 141.065 -54.904 142.319 -53.863 143.574 C-44.292 154.889 -34.606 159.612 -19.934 160.886 C-17.541 161.047 -16.183 161.092 -14 160 C-14 160.66 -14 161.32 -14 162 C-13.01 161.67 -12.02 161.34 -11 161 C-11.103 160.68 -11.103 160.68 -11.625 159.062 C-11.749 158.382 -11.873 157.701 -12 157 C-11.34 156.67 -10.68 156.34 -10 156 C-9.724 154.547 -9.724 154.547 -9.685 152.661 C-9.664 151.957 -9.644 151.252 -9.622 150.526 C-9.608 149.76 -9.593 148.993 -9.578 148.203 C-9.522 146.589 -9.465 144.974 -9.406 143.359 C-9.322 140.808 -9.248 138.256 -9.197 135.703 C-9.147 133.243 -9.05 130.786 -8.953 128.328 C-8.947 127.57 -8.94 126.811 -8.933 126.03 C-8.79 122.923 -8.651 120.815 -6.672 118.337 C-5.154 116.996 -3.83 115.873 -2 115 C-1.34 115.33 -0.68 115.66 0 116 C-0.619 116.206 -1.237 116.412 -1.875 116.625 C-3.312 117.345 -3.895 117.79 -4.624 119.241 C-5.759 122.803 -6.387 126.139 -6.605 129.867 C-6.643 130.42 -6.681 130.973 -6.72 131.542 C-6.999 136.007 -7.101 140.473 -7.176 144.945 C-7.188 145.615 -7.2 146.286 -7.212 146.976 C-7.261 149.732 -7.308 152.487 -7.326 155.243 C-7.341 157.29 -7.381 159.336 -7.426 161.383 C-7.424 162.005 -7.422 162.626 -7.42 163.267 C-7.537 167.385 -7.537 167.385 -8.796 169.059 C-12.226 171.878 -16.051 171.535 -20.25 171.5 C-21.043 171.494 -21.835 171.489 -22.652 171.483 C-34.132 171.143 -45.519 168.131 -53.94 160.019 C-55.082 158.921 -56.262 157.873 -57.445 156.82 C-74.565 141.139 -80.906 120.573 -82 98 C-82.318 89.463 -82.424 80.917 -82.562 72.375 C-82.572 71.781 -82.582 71.187 -82.592 70.575 C-82.681 65.138 -82.767 59.702 -82.845 54.265 C-82.929 48.435 -83.023 42.605 -83.154 36.775 C-83.237 33.07 -83.295 29.366 -83.341 25.66 C-83.363 24.191 -83.395 22.721 -83.435 21.252 C-83.488 19.249 -83.51 17.249 -83.523 15.246 C-83.546 14.678 -83.569 14.109 -83.592 13.524 C-83.575 10.27 -82.96 8.577 -80.717 6.172 C-77.182 2.781 -73.071 2.857 -68.453 2.918 C-68.182 2.92 -68.182 2.92 -66.811 2.928 C-65.64 2.935 -64.469 2.944 -63.298 2.955 C-61.444 2.973 -59.591 2.983 -57.737 2.991 C-52.469 3.016 -47.201 3.051 -41.932 3.096 C-38.705 3.123 -35.478 3.14 -32.251 3.151 C-31.023 3.157 -29.794 3.167 -28.566 3.181 C-26.85 3.2 -25.134 3.207 -23.418 3.211 C-22.911 3.22 -22.405 3.229 -21.883 3.238 C-18.936 3.23 -17.302 2.831 -15 1 C-10.137 -0.474 -5.032 -0.088 0 0 Z " fill="#221914" transform="translate(94,22)"/>
<path d="M0 0 C0.264 -0.004 0.264 -0.004 1.602 -0.025 C3.353 -0.05 5.103 -0.066 6.854 -0.081 C7.453 -0.086 8.052 -0.091 8.669 -0.097 C11.838 -0.123 15.008 -0.143 18.178 -0.157 C20.798 -0.171 23.418 -0.198 26.038 -0.239 C29.204 -0.289 32.37 -0.313 35.537 -0.32 C36.741 -0.327 37.946 -0.342 39.15 -0.366 C40.841 -0.398 42.528 -0.398 44.219 -0.391 C44.712 -0.407 45.205 -0.423 45.713 -0.44 C48.693 -0.387 50.36 0.348 52.61 2.327 C55.26 5.29 55.526 7.758 55.479 11.625 C55.491 12.251 55.503 12.876 55.515 13.52 C55.549 15.582 55.548 17.642 55.546 19.705 C55.561 21.157 55.579 22.608 55.599 24.06 C55.635 27.109 55.655 30.158 55.663 33.207 C55.672 37.061 55.708 40.914 55.753 44.768 C56.057 70.604 56.057 70.604 55.421 82.9 C55.404 83.234 55.404 83.234 55.32 84.925 C54.897 91.347 53.212 97.25 50.803 103.193 C50.628 103.641 50.453 104.088 50.273 104.55 C46.247 114.55 39.133 121.869 30.322 127.866 C25.158 131.463 20.699 135.813 16.194 140.182 C5.799 150.215 5.799 150.215 1.038 150.787 C0.218 150.756 -0.602 150.725 -1.447 150.693 C-1.867 150.695 -2.287 150.698 -2.72 150.701 C-4.818 150.635 -6.08 150.275 -7.794 149.061 C-9.796 146.395 -9.753 144.091 -9.874 140.828 C-9.89 140.518 -9.89 140.518 -9.974 138.945 C-10.284 132.641 -10.352 126.335 -10.358 120.025 C-10.362 118.779 -10.367 117.534 -10.373 116.289 C-10.386 112.957 -10.392 109.625 -10.397 106.293 C-10.4 104.206 -10.404 102.119 -10.408 100.032 C-10.422 93.486 -10.432 86.939 -10.435 80.393 C-10.44 72.863 -10.458 65.333 -10.486 57.803 C-10.508 51.956 -10.518 46.109 -10.519 40.261 C-10.521 36.779 -10.526 33.296 -10.544 29.813 C-10.561 26.547 -10.563 23.281 -10.554 20.015 C-10.553 18.819 -10.558 17.623 -10.568 16.427 C-10.58 14.792 -10.574 13.157 -10.564 11.521 C-10.572 11.051 -10.58 10.581 -10.588 10.097 C-10.536 6.577 -9.467 3.911 -7.197 1.193 C-4.751 -0.03 -2.67 0.023 0 0 Z M-0.197 10.193 C-0.197 52.433 -0.197 94.673 -0.197 138.193 C4.289 135.95 4.289 135.95 5.671 134.416 C5.992 134.073 6.313 133.73 6.643 133.376 C6.814 133.191 6.814 133.191 7.678 132.255 C11.437 128.329 15.489 124.991 19.803 121.693 C32.407 111.96 41.24 102.466 43.803 86.193 C44.309 80.31 44.154 74.392 44.096 68.494 C44.089 66.805 44.086 65.117 44.084 63.429 C44.074 59.47 44.05 55.511 44.02 51.552 C43.982 46.592 43.966 41.632 43.95 36.671 C43.921 27.845 43.861 19.019 43.803 10.193 C29.283 10.193 14.763 10.193 -0.197 10.193 Z " fill="#1B100B" transform="translate(187.196533203125,22.80712890625)"/>
<path d="M0 0 C9.9 0 19.8 0 30 0 C30 6.27 30 12.54 30 19 C20.812 19.188 20.812 19.188 17.945 19.208 C14.26 19.344 10.929 19.48 7.918 21.773 C4.749 25.654 5.335 30.984 5.458 35.729 C5.5 37.43 5.499 39.128 5.492 40.83 C5.558 52.003 5.558 52.003 9 56 C11.181 57.09 12.465 57.176 14.879 57.281 C15.257 57.3 15.257 57.3 17.17 57.395 C18.769 57.465 20.368 57.535 21.967 57.605 C22.344 57.624 22.344 57.624 24.254 57.719 C24.948 57.749 25.642 57.779 26.358 57.811 C28 58 28 58 29 59 C29.114 60.674 29.114 60.674 29.098 62.816 C29.094 63.58 29.091 64.344 29.088 65.131 C29.08 65.933 29.071 66.736 29.062 67.562 C29.058 68.369 29.053 69.175 29.049 70.006 C29.037 72.004 29.021 74.002 29 76 C28.203 76.037 27.407 76.075 26.586 76.113 C19.772 76.506 14.597 77.023 9.188 81.5 C5.232 86.496 6.464 95.035 7 101 C8.444 109.628 12.92 117.025 18 124 C18.317 124.448 18.634 124.896 18.96 125.358 C21.122 128.269 22.826 129.562 26.25 130.938 C28.359 132.133 28.359 132.133 30 134 C31.036 138.554 30.485 143.396 30 148 C23.656 148.234 18.131 147.918 12 146 C15.328 144.994 18.314 144.879 21.75 144.938 C22.257 144.942 22.763 144.947 23.285 144.951 C24.523 144.963 25.762 144.981 27 145 C27.312 143.625 27.312 143.625 27 142 C25.823 141.503 24.639 141.017 23.43 140.604 C20.856 139.517 18.969 137.628 16.938 135.75 C16.517 135.38 16.096 135.01 15.662 134.629 C9.7 129.212 7.384 123.987 5.875 116.125 C5.561 114.586 5.246 113.047 4.93 111.508 C4.778 110.75 4.626 109.993 4.469 109.212 C4.029 107.138 3.52 105.097 2.98 103.047 C1.811 98.455 1.094 93.812 0.438 89.125 C0.373 88.668 0.309 88.211 0.242 87.74 C-1.042 78.508 -1.792 69.322 -2 60 C-2.011 59.536 -2.022 59.072 -2.033 58.594 C-2.476 38.975 -1.322 19.581 0 0 Z " fill="#A39F98" transform="translate(46,35)"/>
<path d="M0 0 C2.64 0 5.28 0 8 0 C9.185 -0.099 10.369 -0.199 11.59 -0.301 C15.046 -0.429 18.289 -0.364 21 2 C23.218 7.254 22.313 13.852 22.098 19.44 C21.962 23.404 22.042 27.359 22.121 31.324 C22.556 55.626 22.507 79.401 6 99 C4.64 100.903 3.309 102.824 1.98 104.75 C1.657 105.162 1.333 105.575 1 106 C0.67 106 0.34 106 0 106 C0 71.02 0 36.04 0 0 Z " fill="#A6A29A" transform="translate(187,43)"/>
<path d="M0 0 C0.264 -0.004 0.264 -0.004 1.602 -0.025 C3.353 -0.05 5.103 -0.066 6.854 -0.081 C7.453 -0.086 8.052 -0.091 8.669 -0.097 C11.838 -0.123 15.008 -0.143 18.178 -0.157 C20.798 -0.171 23.418 -0.198 26.038 -0.239 C29.204 -0.289 32.37 -0.313 35.537 -0.32 C36.741 -0.327 37.946 -0.342 39.15 -0.366 C40.841 -0.398 42.528 -0.398 44.219 -0.391 C44.712 -0.407 45.205 -0.423 45.713 -0.44 C48.693 -0.387 50.36 0.348 52.61 2.327 C55.26 5.29 55.526 7.758 55.479 11.625 C55.491 12.251 55.503 12.876 55.515 13.52 C55.549 15.582 55.548 17.642 55.546 19.705 C55.561 21.157 55.579 22.608 55.599 24.06 C55.635 27.109 55.655 30.158 55.663 33.207 C55.672 37.061 55.708 40.914 55.753 44.768 C56.057 70.604 56.057 70.604 55.421 82.9 C55.404 83.234 55.404 83.234 55.32 84.925 C54.897 91.347 53.212 97.25 50.803 103.193 C50.628 103.641 50.453 104.088 50.273 104.55 C46.247 114.55 39.133 121.869 30.322 127.866 C25.158 131.463 20.699 135.813 16.194 140.182 C5.68 150.33 5.68 150.33 0.932 150.681 C0.076 150.649 -0.781 150.591 -1.634 150.505 C-1.857 150.494 -1.857 150.494 -2.984 150.437 C-4.056 150.379 -5.127 150.29 -6.197 150.193 C-6.197 149.863 -6.197 149.533 -6.197 149.193 C-5.935 149.209 -5.935 149.209 -4.615 149.291 C4.27 149.15 9.581 143.425 15.565 137.427 C16.621 136.332 17.675 135.235 18.729 134.138 C21.53 131.395 24.704 129.083 27.803 126.693 C40.7 116.7 50.41 104.893 52.803 88.193 C52.937 85.861 52.93 83.535 52.917 81.199 C52.917 80.516 52.917 79.833 52.917 79.128 C52.917 76.883 52.909 74.638 52.901 72.392 C52.899 70.83 52.898 69.268 52.897 67.705 C52.893 64.022 52.886 60.339 52.875 56.656 C52.863 52.048 52.858 47.44 52.852 42.832 C52.842 34.619 52.825 26.406 52.803 18.193 C52.517 18.51 52.231 18.827 51.936 19.154 C50.382 20.58 48.839 20.786 46.803 21.193 C46.473 19.543 46.143 17.893 45.803 16.193 C45.473 19.163 45.143 22.133 44.803 25.193 C44.473 25.193 44.143 25.193 43.803 25.193 C43.803 20.243 43.803 15.293 43.803 10.193 C29.283 10.193 14.763 10.193 -0.197 10.193 C0.133 52.763 0.463 95.333 0.803 139.193 C0.143 139.193 -0.517 139.193 -1.197 139.193 C-1.362 132.263 -1.362 132.263 -2.197 97.193 C-2.527 98.513 -2.857 99.833 -3.197 101.193 C-3.857 101.193 -4.517 101.193 -5.197 101.193 C-5.197 101.853 -5.197 102.513 -5.197 103.193 C-5.857 102.863 -6.517 102.533 -7.197 102.193 C-7.778 100.213 -7.934 98.248 -8.197 96.193 C-8.527 98.503 -8.857 100.813 -9.197 103.193 C-9.527 103.193 -9.857 103.193 -10.197 103.193 C-10.267 90.632 -10.32 78.071 -10.352 65.51 C-10.367 59.678 -10.388 53.845 -10.423 48.013 C-10.453 42.928 -10.472 37.844 -10.479 32.76 C-10.483 30.068 -10.492 27.377 -10.514 24.686 C-10.534 22.15 -10.54 19.615 -10.536 17.079 C-10.537 16.151 -10.543 15.223 -10.554 14.294 C-10.654 5.861 -10.654 5.861 -8.036 2.051 C-5.758 -0.278 -3.012 0.026 0 0 Z " fill="#1C120C" transform="translate(187.196533203125,22.80712890625)"/>
<path d="M0 0 C0 9.9 0 19.8 0 30 C-5.95 30.595 -11.6 31.156 -17.537 31.113 C-17.965 31.111 -18.394 31.108 -18.836 31.106 C-19.055 31.104 -19.055 31.104 -20.164 31.098 C-21.091 31.096 -22.019 31.094 -22.946 31.093 C-25.35 31.09 -27.753 31.08 -30.156 31.069 C-33.06 31.056 -35.964 31.052 -38.867 31.046 C-43.245 31.037 -47.622 31.017 -52 31 C-52 21.1 -52 11.2 -52 1 C-16.287 -0.148 -16.287 -0.148 0 0 Z " fill="#A6A39C" transform="translate(156,133)"/>
<path d="M0 0 C2.821 1.594 2.821 1.594 3.589 3.334 C4.056 5.228 4.129 6.899 4.134 8.851 C4.136 9.24 4.136 9.24 4.147 11.209 C4.146 12.066 4.146 12.924 4.145 13.782 C4.148 14.689 4.152 15.596 4.155 16.503 C4.164 18.964 4.167 21.425 4.167 23.886 C4.168 25.425 4.17 26.965 4.173 28.504 C4.182 33.879 4.186 39.255 4.185 44.631 C4.185 49.632 4.195 54.634 4.211 59.635 C4.224 63.936 4.229 68.237 4.229 72.537 C4.229 75.103 4.231 77.669 4.242 80.234 C4.252 82.65 4.252 85.065 4.245 87.481 C4.243 88.364 4.246 89.246 4.252 90.129 C4.284 95.14 3.976 99.366 2 104 C-0.888 111.519 -0.38 119.524 -0.456 127.466 C-0.627 142.447 -0.627 142.447 -4 147 C-7.292 149.55 -12.12 149.446 -16 150 C-16.33 160.23 -16.66 170.46 -17 181 C-17.66 181 -18.32 181 -19 181 C-19.33 173.74 -19.66 166.48 -20 159 C-20.99 159 -21.98 159 -23 159 C-23.562 157.563 -23.562 157.563 -24 156 C-24.66 155.67 -25.32 155.34 -26 155 C-26 152.584 -25.598 152.598 -24 151 C-24 150.34 -24 149.68 -24 149 C-24.66 149 -25.32 149 -26 149 C-26.015 149.414 -26.029 149.827 -26.044 150.253 C-26.119 152.128 -26.215 154.001 -26.312 155.875 C-26.335 156.526 -26.358 157.177 -26.381 157.848 C-26.655 162.677 -26.655 162.677 -28.543 164.445 C-29.024 164.628 -29.505 164.811 -30 165 C-29.34 165 -28.68 165 -28 165 C-26.577 170.849 -27.348 176.06 -28 182 C-34.27 182 -40.54 182 -47 182 C-47 175.4 -47 168.8 -47 162 C-45.35 162.289 -43.7 162.577 -42 162.875 C-41.478 162.961 -40.956 163.047 -40.418 163.136 C-39.187 163.367 -39.187 163.367 -37 164 C-37 164.66 -37 165.32 -37 166 C-35.68 166 -34.36 166 -33 166 C-32.835 165.01 -32.835 165.01 -32 160 C-32.412 159.876 -32.412 159.876 -34.5 159.25 C-38.535 157.918 -42.242 155.965 -46 154 C-46.33 154.99 -46.66 155.98 -47 157 C-47.992 156.227 -47.992 156.227 -49 155 C-49.195 153.273 -49.195 153.273 -49.125 151.375 C-49.116 151.059 -49.116 151.059 -49.07 149.461 C-49.047 148.979 -49.024 148.497 -49 148 C-49.153 148.072 -49.153 148.072 -49.926 148.438 C-53.479 149.879 -56.772 150.219 -60.562 150.25 C-61.021 150.259 -61.48 150.268 -61.952 150.277 C-65.257 150.249 -68.121 149.684 -71 148 C-75.583 142.917 -74.279 134.331 -74 128 C-73.67 128 -73.34 128 -73 128 C-73.016 128.358 -73.031 128.717 -73.048 129.086 C-73.11 130.703 -73.149 132.32 -73.188 133.938 C-73.213 134.501 -73.238 135.065 -73.264 135.646 C-73.291 137.154 -73.303 138.523 -73 140 C-71.516 140.75 -71.516 140.75 -70 141 C-69.856 141.681 -69.711 142.361 -69.562 143.062 C-69.47 143.382 -69.47 143.382 -69 145 C-66.938 145.25 -66.938 145.25 -65 145 C-65 145.66 -65 146.32 -65 147 C-62.607 147.288 -60.376 147.469 -58 147 C-57.024 145.706 -56.724 144.671 -56.387 143.094 C-56.259 142.733 -56.131 142.372 -56 142 C-55.34 142 -54.68 142 -54 142 C-54 141.34 -54 140.68 -54 140 C-57.3 140 -60.6 140 -64 140 C-64 139.67 -64 139.34 -64 139 C-55.585 138.835 -55.585 138.835 -13 138 C-13.66 138.33 -13.66 138.33 -17 140 C-16.34 140.33 -15.68 140.66 -15 141 C-14.722 142.694 -14.911 144.274 -15 146 C-8.715 146.31 -8.715 146.31 -6.125 145.188 C-3.987 142.931 -3.875 140.422 -3.858 137.418 C-3.851 136.711 -3.844 136.003 -3.837 135.274 C-3.835 134.894 -3.835 134.894 -3.824 132.973 C-3.801 131.36 -3.777 129.747 -3.752 128.135 C-3.716 125.596 -3.686 123.057 -3.674 120.518 C-3.662 118.065 -3.618 115.613 -3.574 113.16 C-3.576 112.403 -3.578 111.645 -3.58 110.865 C-3.458 105.607 -3.458 105.607 -2.107 103.817 C-1.415 103.207 -0.708 102.612 0.016 102.039 C3.087 98.797 2.142 91.87 2.129 87.704 C2.131 86.999 2.133 86.294 2.135 85.567 C2.139 83.247 2.136 80.926 2.133 78.605 C2.133 76.973 2.134 75.341 2.136 73.709 C2.138 70.285 2.135 66.861 2.13 63.438 C2.125 59.528 2.127 55.617 2.132 51.707 C2.137 47.902 2.137 44.098 2.134 40.293 C2.133 38.697 2.134 37.1 2.136 35.504 C2.146 27.179 2.019 18.884 1.554 10.572 C1.515 9.855 1.477 9.138 1.437 8.399 C1.416 8.067 1.416 8.067 1.312 6.384 C1.276 5.801 1.24 5.218 1.203 4.618 C0.996 2.969 0.579 1.554 0 0 Z " fill="#1E110B" transform="translate(168,25)"/>
<path d="M0 0 C1.464 2.034 2.365 3.814 3.043 6.223 C5.537 14.635 8.332 21.294 14 28 C14.405 28.491 14.81 28.983 15.228 29.489 C25.621 41.958 34.805 47.333 50.964 48.835 C51.458 48.873 51.952 48.91 52.461 48.949 C52.682 48.966 52.682 48.966 53.798 49.053 C55 49 55 49 57 48 C57 48.66 57 49.32 57 50 C57.99 49.67 58.98 49.34 60 49 C59.897 48.68 59.897 48.68 59.375 47.062 C59.251 46.382 59.127 45.701 59 45 C59.66 44.67 60.32 44.34 61 44 C61.276 42.547 61.276 42.547 61.315 40.661 C61.326 40.309 61.326 40.309 61.378 38.526 C61.392 37.76 61.407 36.993 61.422 36.203 C61.478 34.589 61.535 32.974 61.594 31.359 C61.678 28.808 61.752 26.256 61.803 23.703 C61.853 21.243 61.95 18.786 62.047 16.328 C62.053 15.57 62.06 14.811 62.067 14.03 C62.21 10.923 62.349 8.815 64.328 6.337 C65.846 4.996 67.17 3.873 69 3 C69.33 3.165 69.33 3.165 71 4 C70.381 4.206 69.763 4.412 69.125 4.625 C67.688 5.345 67.105 5.79 66.376 7.241 C65.241 10.803 64.613 14.139 64.395 17.867 C64.357 18.42 64.319 18.973 64.28 19.542 C64.001 24.007 63.899 28.473 63.824 32.945 C63.812 33.615 63.8 34.286 63.788 34.976 C63.739 37.732 63.692 40.487 63.674 43.243 C63.659 45.29 63.619 47.336 63.574 49.383 C63.576 50.005 63.578 50.626 63.58 51.267 C63.463 55.385 63.463 55.385 62.204 57.059 C58.774 59.878 54.949 59.535 50.75 59.5 C50.354 59.497 50.354 59.497 48.348 59.483 C36.868 59.143 25.481 56.131 17.06 48.019 C15.918 46.921 14.738 45.873 13.555 44.82 C4.567 36.582 -4.125 25.076 -7 13 C-7.009 10.715 -6.695 9.2 -6 7 C-5.34 7.33 -4.68 7.66 -4 8 C-3.897 7.34 -3.794 6.68 -3.688 6 C-3.574 5.67 -3.574 5.67 -3 4 C-1.438 3.75 -1.438 3.75 0 4 C0 2.68 0 1.36 0 0 Z " fill="#281D18" transform="translate(23,134)"/>
<path d="M0 0 C1.52 -0.363 1.52 -0.363 3 0 C4.188 1.5 4.188 1.5 5 3 C4.01 3 3.02 3 2 3 C2.99 3.66 3.98 4.32 5 5 C5.124 4.505 5.248 4.01 5.375 3.5 C5.478 3.252 5.478 3.252 6 2 C6.66 2 7.32 2 8 2 C9.125 1 9.125 1 10 0 C11.048 2.583 11.127 4.833 11.129 7.607 C11.131 8.061 11.133 8.515 11.135 8.983 C11.139 10.478 11.136 11.974 11.133 13.469 C11.133 14.511 11.134 15.553 11.136 16.596 C11.137 18.778 11.135 20.96 11.13 23.142 C11.125 25.936 11.128 28.731 11.134 31.525 C11.138 33.677 11.136 35.828 11.134 37.98 C11.133 39.01 11.134 40.04 11.136 41.07 C11.139 42.511 11.135 43.952 11.129 45.393 C11.129 46.212 11.128 47.031 11.127 47.875 C11.011 49.814 10.881 51.268 10 53 C9.34 53 8.68 53 8 53 C8 53.99 8 54.98 8 56 C7.34 56 6.68 56 6 56 C5.586 57.094 5.586 57.094 5.375 58.5 C5.3 58.964 5.225 59.428 5.148 59.906 C5.099 60.267 5.05 60.628 5 61 C4.671 60.856 4.343 60.711 4.004 60.562 C-0.18 58.93 -3.687 58.947 -8.145 59.32 C-8.757 59.215 -9.369 59.109 -10 59 C-10.836 57.086 -10.836 57.086 -11 55 C-9.812 53.5 -9.812 53.5 -8 52 C-7.284 51.321 -6.576 50.633 -5.875 49.938 C-5.542 49.617 -5.21 49.296 -4.867 48.965 C-2.227 46.027 -2.693 42.179 -2.781 38.477 C-3.117 34.679 -4.267 32.528 -7.09 30.039 C-8.026 29.313 -9.009 28.649 -10 28 C-9.34 28 -8.68 28 -8 28 C-8 27.34 -8 26.68 -8 26 C-10.64 25.67 -13.28 25.34 -16 25 C-15.736 21.654 -15.736 21.654 -15 20 C-13.736 19.219 -12.589 18.836 -11.156 18.457 C-10 18 -10 18 -9 16 C-9.66 15.67 -10.32 15.34 -11 15 C-10.674 14.818 -10.348 14.636 -10.012 14.449 C-9.575 14.198 -9.138 13.946 -8.688 13.688 C-8.473 13.566 -8.473 13.566 -7.387 12.949 C-3.484 10.278 -2.293 7.469 -1.184 3.053 C-0.844 1.863 -0.844 1.863 0 0 Z " fill="#A7A29B" transform="translate(150,58)"/>
<path d="M0 0 C2.188 0.375 2.188 0.375 4 1 C1.852 4.125 1.852 4.125 1 5 C0.34 5 -0.32 5 -1 5 C-1.128 5.327 -1.128 5.327 -1.773 6.984 C-3 9 -3 9 -4.188 9.33 C-5.684 9.394 -7.131 9.349 -8.625 9.25 C-9.141 9.232 -9.656 9.214 -10.188 9.195 C-11.459 9.148 -12.73 9.076 -14 9 C-13.01 9.66 -12.02 10.32 -11 11 C-26.84 11 -42.68 11 -59 11 C-59 11.66 -59 12.32 -59 13 C-59.66 13 -60.32 13 -61 13 C-60.835 13.66 -60.67 14.32 -60.5 15 C-59.755 18.64 -59.917 22.303 -60 26 C-60.66 26 -61.32 26 -62 26 C-62.227 27.23 -62.446 28.465 -62.559 29.711 C-63 31 -63 31 -64.492 31.844 C-66 33 -66 33 -66.512 35.383 C-66.584 36.296 -66.643 37.21 -66.688 38.125 C-66.722 38.593 -66.756 39.061 -66.791 39.543 C-66.873 40.694 -66.938 41.847 -67 43 C-67.33 43 -67.66 43 -68 43 C-68.127 38.107 -68.214 33.215 -68.275 28.321 C-68.297 26.657 -68.334 24.995 -68.377 23.331 C-68.438 20.935 -68.466 18.541 -68.488 16.145 C-68.514 15.405 -68.54 14.665 -68.566 13.903 C-68.568 10.164 -68.331 7.85 -65.719 5.053 C-62.164 1.793 -58.011 1.857 -53.453 1.918 C-53.182 1.92 -53.182 1.92 -51.811 1.928 C-50.64 1.935 -49.469 1.944 -48.298 1.955 C-46.444 1.973 -44.591 1.983 -42.737 1.991 C-37.469 2.016 -32.201 2.051 -26.932 2.096 C-23.705 2.123 -20.478 2.14 -17.251 2.151 C-16.023 2.157 -14.794 2.167 -13.566 2.181 C-11.85 2.2 -10.134 2.207 -8.418 2.211 C-7.911 2.22 -7.405 2.229 -6.883 2.238 C-3.91 2.229 -2.364 1.755 0 0 Z " fill="#150B06" transform="translate(79,23)"/>
<path d="M0 0 C3.697 1.975 7.134 5.267 9 9 C9.919 18.989 9.919 18.989 6.922 22.977 C6.77 23.145 6.77 23.145 6 24 C5.675 24.379 5.35 24.758 5.016 25.148 C2.534 27.84 0.64 28.809 -3.051 29.238 C-7.75 29.392 -11.034 29.174 -14.785 26.191 C-18.379 22.667 -19.609 19.065 -20.062 14.055 C-19.94 10.013 -18.572 6.626 -15.754 3.711 C-11.153 -0.084 -5.862 -1.501 0 0 Z " fill="#201612" transform="translate(140,45)"/>
<path d="M0 0 C4.672 -0.021 9.344 -0.041 14.017 -0.052 C16.192 -0.057 18.368 -0.064 20.544 -0.075 C23.038 -0.088 25.533 -0.093 28.027 -0.098 C28.81 -0.103 29.592 -0.108 30.398 -0.113 C31.119 -0.113 31.839 -0.113 32.582 -0.114 C33.219 -0.116 33.856 -0.118 34.513 -0.12 C36 0 36 0 37 1 C37 6.61 37 12.22 37 18 C24.79 18 12.58 18 0 18 C0 12.06 0 6.12 0 0 Z " fill="#A7A39A" transform="translate(112,215)"/>
<path d="M0 0 C0.33 0 0.66 0 1 0 C1.01 0.696 1.021 1.393 1.031 2.11 C1.129 8.701 1.232 15.291 1.339 21.881 C1.394 25.269 1.448 28.656 1.497 32.043 C1.545 35.318 1.598 38.592 1.653 41.867 C1.673 43.11 1.692 44.354 1.709 45.598 C1.793 51.591 1.887 57.49 2.783 63.426 C3.109 65.788 3.111 68.12 3.062 70.5 C3.058 70.941 3.053 71.382 3.049 71.836 C3.037 72.891 3.019 73.945 3 75 C2.01 75 1.02 75 0 75 C0 76.65 0 78.3 0 80 C-1.667 80 -3.333 80 -5 80 C-5.496 78.565 -5.804 77.298 -6.062 75.812 C-6.139 75.384 -6.215 74.956 -6.294 74.515 C-6.887 70.987 -7.279 67.478 -7.544 63.911 C-7.565 63.63 -7.565 63.63 -7.672 62.207 C-8.085 56.342 -8.201 50.487 -8.238 44.609 C-8.242 44.06 -8.246 43.51 -8.251 42.944 C-8.271 40.058 -8.286 37.171 -8.295 34.285 C-8.306 31.309 -8.341 28.333 -8.38 25.357 C-8.406 23.055 -8.415 20.753 -8.418 18.45 C-8.423 17.351 -8.435 16.252 -8.453 15.153 C-8.478 13.631 -8.477 12.111 -8.47 10.589 C-8.483 10.136 -8.496 9.683 -8.509 9.217 C-8.488 7.969 -8.488 7.969 -8 6 C-5.971 5.213 -5.971 5.213 -4 5 C-3.67 6.32 -3.34 7.64 -3 9 C-0.715 6.258 -0.422 3.429 0 0 Z " fill="#110904" transform="translate(20,63)"/>
<path d="M0 0 C0.485 0.006 0.969 0.012 1.469 0.019 C5.069 0.175 7.579 0.985 10.504 3.172 C13.899 7.005 14.133 11.108 13.938 15.965 C13.475 19.622 12.305 21.923 9.625 24.438 C6.196 27.037 2.64 27.997 -1.645 27.789 C-4.802 27.148 -6.986 25.531 -9.375 23.438 C-9.583 23.262 -9.583 23.262 -10.637 22.375 C-13.166 19.82 -13.695 17.567 -13.875 14 C-13.669 9.585 -12.472 6.592 -9.375 3.438 C-6.268 0.62 -4.163 -0.089 0 0 Z " fill="#1C140F" transform="translate(134.375,85.5625)"/>
<path d="M0 0 C0.468 0.009 0.936 0.018 1.418 0.027 C2.571 0.051 3.723 0.087 4.875 0.125 C4.875 0.455 4.875 0.785 4.875 1.125 C2.895 1.125 0.915 1.125 -1.125 1.125 C-1.269 2.094 -1.414 3.064 -1.562 4.062 C-2 7 -2 7 -3.125 8.125 C9.085 8.29 9.085 8.29 70.875 9.125 C70.875 9.455 70.875 9.785 70.875 10.125 C45.795 10.125 20.715 10.125 -5.125 10.125 C-5.125 18.705 -5.125 27.285 -5.125 36.125 C-5.455 36.125 -5.785 36.125 -6.125 36.125 C-6.29 32.66 -6.29 32.66 -7.125 15.125 C-7.785 15.455 -8.445 15.785 -9.125 16.125 C-9.29 16.641 -9.455 17.156 -9.625 17.688 C-9.79 18.162 -9.955 18.636 -10.125 19.125 C-10.785 19.125 -11.445 19.125 -12.125 19.125 C-12.125 17.475 -12.125 15.825 -12.125 14.125 C-30.605 13.795 -49.085 13.465 -68.125 13.125 C-67.795 19.725 -67.465 26.325 -67.125 33.125 C-67.051 38.519 -67.006 43.904 -67.027 49.297 C-67.029 50.726 -67.031 52.154 -67.032 53.583 C-67.035 57.265 -67.045 60.948 -67.056 64.63 C-67.067 68.419 -67.071 72.207 -67.076 75.996 C-67.087 83.372 -67.104 90.749 -67.125 98.125 C-67.455 98.125 -67.785 98.125 -68.125 98.125 C-68.455 81.295 -68.785 64.465 -69.125 47.125 C-70.115 49.435 -71.105 51.745 -72.125 54.125 C-72.455 54.125 -72.785 54.125 -73.125 54.125 C-73.125 51.815 -73.125 49.505 -73.125 47.125 C-74.445 47.125 -75.765 47.125 -77.125 47.125 C-77.242 45.021 -77.312 42.918 -77.375 40.812 C-77.409 40.218 -77.442 39.623 -77.477 39.01 C-77.574 34.637 -77.574 34.637 -76.239 33.115 C-75.233 32.404 -74.18 31.76 -73.125 31.125 C-72.5 28.938 -72.5 28.938 -72.125 27.125 C-71.465 27.125 -70.805 27.125 -70.125 27.125 C-70.455 22.835 -70.785 18.545 -71.125 14.125 C-70.465 14.125 -69.805 14.125 -69.125 14.125 C-69.125 13.465 -69.125 12.805 -69.125 12.125 C-68.576 12.117 -68.027 12.109 -67.461 12.1 C-62.296 12.023 -57.131 11.935 -51.966 11.837 C-49.311 11.787 -46.655 11.741 -43.999 11.703 C-41.438 11.666 -38.877 11.62 -36.316 11.567 C-35.337 11.548 -34.358 11.533 -33.379 11.522 C-32.012 11.505 -30.645 11.476 -29.278 11.444 C-28.498 11.431 -27.719 11.417 -26.916 11.403 C-26.325 11.312 -25.734 11.22 -25.125 11.125 C-24.795 10.465 -24.465 9.805 -24.125 9.125 C-21.774 9.038 -19.506 9.132 -17.162 9.291 C-15.762 9.345 -14.504 9.378 -13.125 9.125 C-11.902 7.621 -11.902 7.621 -11.125 6.125 C-10.465 6.125 -9.805 6.125 -9.125 6.125 C-8.423 4.81 -7.76 3.474 -7.125 2.125 C-5.369 -0.537 -2.883 -0.105 0 0 Z " fill="#302621" transform="translate(89.125,21.875)"/>
<path d="M0 0 C1.988 1.037 2.861 1.584 3.585 3.75 C4.048 6.262 4.18 8.7 4.203 11.246 C4.209 11.739 4.215 12.232 4.22 12.74 C4.23 13.778 4.236 14.816 4.24 15.854 C4.25 17.43 4.281 19.004 4.312 20.58 C4.412 29.967 4.412 29.967 1 34 C0.863 34.182 0.863 34.182 0.173 35.102 C-1.617 36.473 -3.141 36.262 -5.37 36.275 C-5.811 36.28 -6.252 36.285 -6.706 36.29 C-8.165 36.304 -9.623 36.303 -11.082 36.301 C-12.099 36.305 -13.115 36.309 -14.132 36.314 C-16.264 36.321 -18.397 36.321 -20.53 36.316 C-23.253 36.31 -25.976 36.327 -28.7 36.35 C-30.801 36.365 -32.902 36.366 -35.003 36.363 C-36.007 36.363 -37.01 36.368 -38.013 36.378 C-47.674 36.464 -47.674 36.464 -52 33 C-50.013 32.997 -48.026 33.01 -46.039 33.035 C-44.901 33.044 -43.763 33.054 -42.625 33.062 C-42.343 33.067 -42.343 33.067 -40.914 33.088 C-37.457 33.108 -34.366 32.8 -31 32 C-31.186 31.546 -31.371 31.093 -31.562 30.625 C-32 29 -32 29 -31 27 C-34.96 26.67 -38.92 26.34 -43 26 C-43 25.67 -43 25.34 -43 25 C-42.551 25.011 -42.102 25.022 -41.64 25.034 C-37.417 25.134 -33.194 25.21 -28.97 25.259 C-26.798 25.285 -24.628 25.321 -22.456 25.377 C-19.962 25.442 -17.468 25.466 -14.973 25.488 C-14.582 25.501 -14.582 25.501 -12.602 25.566 C-8.901 25.568 -8.901 25.568 -7 25 C-6.185 23.655 -6.073 22.731 -6.045 21.167 C-6.03 20.782 -6.015 20.397 -6 20 C-4.914 19.074 -4.914 19.074 -3.625 18.688 C-3.205 18.547 -2.785 18.406 -2.352 18.262 C-0.873 17.975 0.497 17.983 2 18 C1.861 15.562 1.712 13.125 1.562 10.688 C1.523 9.997 1.484 9.307 1.443 8.596 C1.401 7.929 1.36 7.262 1.316 6.574 C1.298 6.268 1.298 6.268 1.205 4.718 C1.003 3.024 0.599 1.592 0 0 Z " fill="#1F140E" transform="translate(156,208)"/>
<path d="M0 0 C2.395 -0.146 4.789 -0.234 7.188 -0.312 C7.524 -0.333 7.524 -0.333 9.229 -0.439 C9.559 -0.448 9.559 -0.448 11.23 -0.488 C11.833 -0.514 12.435 -0.541 13.055 -0.568 C16.173 0.342 18.104 2.409 20 5 C20.69 7.159 20.703 9.178 20.675 11.432 C20.687 12.058 20.699 12.683 20.712 13.327 C20.746 15.389 20.744 17.45 20.742 19.512 C20.758 20.964 20.776 22.416 20.795 23.867 C20.831 26.916 20.852 29.965 20.859 33.014 C20.869 36.868 20.904 40.721 20.95 44.575 C21.253 70.411 21.253 70.411 20.617 82.707 C20.601 83.041 20.601 83.041 20.516 84.732 C20.093 91.154 18.409 97.057 16 103 C15.825 103.448 15.65 103.896 15.469 104.357 C11.443 114.357 4.329 121.676 -4.482 127.674 C-9.646 131.27 -14.104 135.62 -18.61 139.989 C-29.124 150.137 -29.124 150.137 -33.871 150.488 C-34.728 150.456 -35.584 150.398 -36.438 150.312 C-36.66 150.301 -36.66 150.301 -37.787 150.244 C-38.86 150.186 -39.93 150.097 -41 150 C-41 149.67 -41 149.34 -41 149 C-40.478 149.032 -39.956 149.064 -39.418 149.098 C-30.533 148.958 -25.222 143.232 -19.238 137.234 C-18.183 136.139 -17.128 135.043 -16.074 133.945 C-13.274 131.202 -10.1 128.89 -7 126.5 C5.896 116.507 15.607 104.7 18 88 C18.134 85.668 18.127 83.342 18.114 81.007 C18.114 80.323 18.114 79.64 18.114 78.935 C18.113 76.69 18.106 74.445 18.098 72.199 C18.096 70.637 18.094 69.075 18.093 67.512 C18.09 63.829 18.082 60.146 18.072 56.463 C18.06 51.855 18.054 47.247 18.049 42.639 C18.038 34.426 18.021 26.213 18 18 C17.714 18.317 17.428 18.634 17.133 18.961 C15.578 20.387 14.036 20.593 12 21 C11.67 19.35 11.34 17.7 11 16 C10.67 18.97 10.34 21.94 10 25 C9.67 25 9.34 25 9 25 C9 20.05 9 15.1 9 10 C1.08 10 -6.84 10 -15 10 C-15 9.67 -15 9.34 -15 9 C-7.41 8.67 0.18 8.34 8 8 C8 7.67 8 7.34 8 7 C6.688 6.465 6.688 6.465 5 5.938 C4.443 5.761 3.886 5.584 3.312 5.402 C2.879 5.27 2.446 5.137 2 5 C2.33 3.68 2.66 2.36 3 1 C2.01 0.67 1.02 0.34 0 0 Z " fill="#241913" transform="translate(222,23)"/>
<path d="M0 0 C25.08 0 50.16 0 76 0 C76 1.98 76 3.96 76 6 C51.25 6 26.5 6 1 6 C1 12.27 1 18.54 1 25 C0.67 25 0.34 25 0 25 C0 16.75 0 8.5 0 0 Z " fill="#A9A59E" transform="translate(84,32)"/>
<path d="M0 0 C0.66 0.33 1.32 0.66 2 1 C1.977 2.191 1.977 2.191 1.625 3.562 C1.57 3.79 1.57 3.79 1.289 4.941 C1.241 5.116 1.241 5.116 1 6 C1.66 6 2.32 6 3 6 C3.165 5.34 3.33 4.68 3.5 4 C3.665 3.34 3.83 2.68 4 2 C4.66 2 5.32 2 6 2 C6.33 1.34 6.66 0.68 7 0 C7.074 3.505 7.129 7.01 7.165 10.516 C7.18 11.708 7.2 12.901 7.226 14.093 C7.263 15.808 7.28 17.523 7.293 19.238 C7.308 19.77 7.324 20.301 7.34 20.848 C7.341 23.408 7.223 24.665 5.773 26.842 C3.48 28.34 2.059 28.345 -0.668 28.293 C-1.108 28.289 -1.547 28.284 -2 28.28 C-3.397 28.263 -4.792 28.226 -6.188 28.188 C-7.137 28.172 -8.087 28.159 -9.037 28.146 C-11.359 28.114 -13.679 28.062 -16 28 C-16.015 28.353 -16.029 28.706 -16.044 29.07 C-16.119 30.673 -16.215 32.273 -16.312 33.875 C-16.335 34.431 -16.358 34.986 -16.381 35.559 C-16.655 39.691 -16.655 39.691 -18.543 41.383 C-19.024 41.586 -19.505 41.79 -20 42 C-20.535 40.924 -21.053 39.838 -21.562 38.75 C-21.853 38.147 -22.143 37.543 -22.441 36.922 C-23.128 34.559 -22.627 33.349 -22 31 C-22.27 28.677 -22.692 26.417 -23.137 24.121 C-23 22 -23 22 -21.629 20.234 C-18.041 17.954 -13.315 18.696 -9.25 18.812 C-6.197 18.874 -3.145 18.936 0 19 C0 12.73 0 6.46 0 0 Z M-22 25 C-22 25.66 -22 26.32 -22 27 C-21.34 27 -20.68 27 -20 27 C-20 26.34 -20 25.68 -20 25 C-20.66 25 -21.32 25 -22 25 Z " fill="#180D09" transform="translate(76,35)"/>
<path d="M0 0 C1.906 -0.461 1.906 -0.461 4 0 C4.963 2.358 5.172 4.862 5.5 7.375 C7.336 18.711 11.405 32.78 21.292 39.935 C22.534 40.638 23.786 41.299 25.062 41.938 C26.843 42.837 27.565 43.462 29 45 C30.101 49.559 29.553 54.389 29 59 C22.656 59.234 17.131 58.918 11 57 C14.328 55.994 17.314 55.879 20.75 55.938 C21.003 55.94 21.003 55.94 22.285 55.951 C23.523 55.963 24.762 55.981 26 56 C26.312 54.625 26.312 54.625 26 53 C24.823 52.503 23.639 52.017 22.43 51.604 C19.856 50.517 17.969 48.628 15.938 46.75 C15.517 46.38 15.096 46.01 14.662 45.629 C8.7 40.212 6.384 34.987 4.875 27.125 C4.561 25.586 4.246 24.047 3.93 22.508 C3.779 21.756 3.628 21.004 3.473 20.229 C3.013 18.059 2.481 15.92 1.922 13.773 C1.13 10.677 0.615 7.683 0.375 4.5 C0.336 4.059 0.298 3.618 0.258 3.164 C0.166 2.11 0.082 1.055 0 0 Z " fill="#AAA69E" transform="translate(47,124)"/>
<path d="M0 0 C0.66 0.33 1.32 0.66 2 1 C3.429 5.725 3.108 9.898 1.375 14.457 C0.909 16.373 1.154 17.235 2 19 C2.938 20.133 2.938 20.133 4 21.125 C4.351 21.458 4.701 21.79 5.062 22.133 C5.217 22.276 5.217 22.276 6 23 C6.33 23.33 6.66 23.66 7 24 C7.33 24 7.66 24 8 24 C8.051 28.805 8.086 33.611 8.11 38.417 C8.12 40.052 8.134 41.687 8.151 43.323 C8.175 45.671 8.186 48.019 8.195 50.367 C8.206 51.101 8.216 51.834 8.227 52.59 C8.227 53.27 8.227 53.951 8.227 54.652 C8.231 55.251 8.236 55.851 8.241 56.469 C8 58 8 58 6 60 C5.67 58.02 5.34 56.04 5 54 C4.67 54.165 4.67 54.165 3 55 C2.713 56.475 2.713 56.475 2.656 58.344 C2.641 58.678 2.641 58.678 2.566 60.371 C2.544 61.074 2.523 61.776 2.5 62.5 C2.457 63.886 2.405 65.271 2.344 66.656 C2.325 67.273 2.306 67.89 2.287 68.525 C2.192 69.012 2.098 69.499 2 70 C1.67 70.165 1.67 70.165 0 71 C-0.916 67.102 -1.143 63.477 -1.129 59.481 C-1.131 58.848 -1.133 58.215 -1.135 57.563 C-1.139 55.485 -1.136 53.406 -1.133 51.328 C-1.133 49.88 -1.134 48.433 -1.136 46.985 C-1.137 43.959 -1.135 40.933 -1.13 37.907 C-1.125 34.02 -1.128 30.134 -1.134 26.248 C-1.138 23.263 -1.136 20.277 -1.134 17.292 C-1.133 15.858 -1.134 14.424 -1.136 12.991 C-1.139 10.994 -1.135 8.998 -1.129 7.001 C-1.131 6.405 -1.133 5.808 -1.136 5.194 C-1.133 4.653 -1.13 4.112 -1.127 3.554 C-1.127 3.082 -1.126 2.61 -1.126 2.124 C-1 1 -1 1 0 0 Z " fill="#180E09" transform="translate(178,44)"/>
<path d="M0 0 C0.66 0.33 1.32 0.66 2 1 C1.381 1.206 0.763 1.412 0.125 1.625 C-1.312 2.345 -1.895 2.79 -2.624 4.241 C-3.759 7.803 -4.387 11.139 -4.605 14.867 C-4.643 15.42 -4.681 15.973 -4.72 16.542 C-4.999 21.007 -5.101 25.473 -5.176 29.945 C-5.188 30.615 -5.2 31.286 -5.212 31.976 C-5.261 34.732 -5.308 37.487 -5.326 40.243 C-5.341 42.29 -5.381 44.336 -5.426 46.383 C-5.424 47.005 -5.422 47.626 -5.42 48.267 C-5.537 52.385 -5.537 52.385 -6.796 54.059 C-10.227 56.878 -14.051 56.534 -18.25 56.5 C-19.039 56.496 -19.828 56.493 -20.641 56.489 C-26.31 56.333 -31.465 55.433 -36.875 53.75 C-37.205 53.648 -37.205 53.648 -38.872 53.131 C-42.855 51.754 -45.266 50.214 -48 47 C-47.361 47.041 -46.721 47.083 -46.062 47.125 C-45.382 47.084 -44.701 47.042 -44 47 C-43.67 46.34 -43.34 45.68 -43 45 C-41.406 44.734 -41.406 44.734 -39.5 44.75 C-38.871 44.745 -38.242 44.74 -37.594 44.734 C-37.068 44.822 -36.542 44.91 -36 45 C-34.745 47.51 -35.322 48.372 -36 51 C-35.67 51.33 -35.34 51.66 -35 52 C-34.01 51.01 -33.02 50.02 -32 49 C-32.33 50.32 -32.66 51.64 -33 53 C-31.02 52.34 -29.04 51.68 -27 51 C-27.66 50.34 -28.32 49.68 -29 49 C-29.125 46.875 -29.125 46.875 -29 45 C-28.556 45.036 -28.112 45.071 -27.655 45.108 C-25.645 45.265 -23.635 45.414 -21.625 45.562 C-20.926 45.619 -20.228 45.675 -19.508 45.732 C-18.838 45.781 -18.167 45.829 -17.477 45.879 C-16.859 45.926 -16.241 45.973 -15.604 46.022 C-14 46 -14 46 -12 45 C-12 45.66 -12 46.32 -12 47 C-11.01 46.67 -10.02 46.34 -9 46 C-9.206 45.361 -9.412 44.721 -9.625 44.062 C-9.749 43.382 -9.873 42.701 -10 42 C-9.34 41.67 -8.68 41.34 -8 41 C-7.724 39.547 -7.724 39.547 -7.685 37.661 C-7.674 37.309 -7.674 37.309 -7.622 35.526 C-7.608 34.76 -7.593 33.993 -7.578 33.203 C-7.522 31.589 -7.465 29.974 -7.406 28.359 C-7.322 25.808 -7.248 23.256 -7.197 20.703 C-7.147 18.243 -7.05 15.786 -6.953 13.328 C-6.947 12.57 -6.94 11.811 -6.933 11.03 C-6.79 7.923 -6.651 5.815 -4.672 3.337 C-3.154 1.996 -1.83 0.873 0 0 Z " fill="#221611" transform="translate(92,137)"/>
<path d="M0 0 C2.75 -0.087 5.499 -0.141 8.25 -0.188 C9.027 -0.213 9.805 -0.238 10.605 -0.264 C17.076 -0.347 17.076 -0.347 19.484 1.262 C22.205 4.382 22.165 8.036 22.203 12.027 C22.209 12.498 22.215 12.969 22.22 13.454 C22.23 14.445 22.236 15.436 22.24 16.427 C22.25 17.93 22.281 19.432 22.312 20.936 C22.413 29.878 22.413 29.878 19.836 33.209 C17.233 35.671 13.678 35.119 10.312 35.062 C9.801 35.058 9.29 35.053 8.764 35.049 C7.509 35.037 6.255 35.019 5 35 C5 34.67 5 34.34 5 34 C5.482 33.997 5.964 33.995 6.461 33.992 C8.468 33.869 10.108 33.695 12 33 C13.306 30.988 13.539 29.406 14 27 C10.04 27 6.08 27 2 27 C2 26.67 2 26.34 2 26 C5.96 26 9.92 26 14 26 C13.67 20.06 13.34 14.12 13 8 C13.66 8 14.32 8 15 8 C14 6 14 6 12.438 5.375 C12.2 5.313 12.2 5.313 11 5 C11.495 4.876 11.99 4.752 12.5 4.625 C12.995 4.419 13.49 4.213 14 4 C14 3.34 14 2.68 14 2 C11.69 1.835 11.69 1.835 0 1 C0 0.67 0 0.34 0 0 Z " fill="#271D16" transform="translate(61,85)"/>
<path d="M0 0 C0.33 0 0.66 0 1 0 C1.33 42.57 1.66 85.14 2 129 C1.34 129 0.68 129 0 129 C-0.165 122.07 -0.165 122.07 -1 87 C-1.33 88.32 -1.66 89.64 -2 91 C-2.66 91 -3.32 91 -4 91 C-4 91.66 -4 92.32 -4 93 C-4.66 92.67 -5.32 92.34 -6 92 C-6.581 90.02 -6.738 88.055 -7 86 C-7.33 88.31 -7.66 90.62 -8 93 C-8.33 93 -8.66 93 -9 93 C-9.054 91.187 -9.094 89.376 -9.125 87.562 C-9.142 87.046 -9.159 86.53 -9.176 85.998 C-9.182 85.505 -9.189 85.012 -9.195 84.504 C-9.201 84.276 -9.201 84.276 -9.227 83.123 C-9.152 82.753 -9.077 82.382 -9 82 C-8.67 81.835 -8.67 81.835 -7 81 C-6.729 79.525 -6.729 79.525 -6.691 77.656 C-6.666 76.987 -6.641 76.318 -6.615 75.629 C-6.58 74.21 -6.549 72.79 -6.521 71.371 C-6.495 70.702 -6.469 70.033 -6.441 69.344 C-6.435 69.035 -6.435 69.035 -6.401 67.475 C-6.335 67.231 -6.335 67.231 -6 66 C-4.472 65.291 -4.472 65.291 -3 65 C-2.34 66.32 -1.68 67.64 -1 69 C-0.67 46.23 -0.34 23.46 0 0 Z " fill="#3C342F" transform="translate(186,33)"/>
<path d="M0 0 C0.33 0 0.66 0 1 0 C1.33 9.24 1.66 18.48 2 28 C5.3 28.33 8.6 28.66 12 29 C12 31 12 31 10.562 32.5 C10.047 32.995 9.531 33.49 9 34 C8.67 34.66 8.34 35.32 8 36 C8.66 36.33 9.32 36.66 10 37 C8.354 37.054 6.709 37.094 5.062 37.125 C4.594 37.142 4.125 37.159 3.643 37.176 C2.285 37.195 2.285 37.195 0 37 C-0.33 36.34 -0.66 35.68 -1 35 C-2.462 33.472 -3.936 32.052 -5.57 30.708 C-7.379 28.547 -7.473 26.817 -7.512 24.113 C-7.53 23.651 -7.548 23.19 -7.566 22.714 C-7.62 21.247 -7.654 19.78 -7.688 18.312 C-7.721 17.314 -7.755 16.316 -7.791 15.318 C-7.876 12.879 -7.943 10.44 -8 8 C-6.68 8 -5.36 8 -4 8 C-4.021 7.598 -4.021 7.598 -4.125 5.562 C-4.195 4.191 -4.195 4.191 -4 3 C-3.34 2.67 -2.68 2.34 -2 2 C-1.67 5.3 -1.34 8.6 -1 12 C-0.67 8.04 -0.34 4.08 0 0 Z " fill="#140B07" transform="translate(102,136)"/>
<path d="M0 0 C2.821 1.594 2.821 1.594 3.589 3.334 C4.056 5.228 4.129 6.899 4.134 8.851 C4.138 9.629 4.142 10.407 4.147 11.209 C4.146 12.066 4.146 12.924 4.145 13.782 C4.148 14.689 4.152 15.596 4.155 16.503 C4.164 18.964 4.167 21.425 4.167 23.886 C4.168 25.425 4.17 26.965 4.173 28.504 C4.182 33.879 4.186 39.255 4.185 44.631 C4.185 49.632 4.195 54.634 4.211 59.635 C4.224 63.936 4.229 68.237 4.229 72.537 C4.229 75.103 4.231 77.669 4.242 80.234 C4.252 82.65 4.252 85.065 4.245 87.481 C4.243 88.364 4.246 89.246 4.252 90.129 C4.284 95.14 3.976 99.366 2 104 C-0.888 111.519 -0.38 119.524 -0.456 127.466 C-0.627 142.447 -0.627 142.447 -4 147 C-7.292 149.55 -12.12 149.446 -16 150 C-16.33 160.23 -16.66 170.46 -17 181 C-17.33 181 -17.66 181 -18 181 C-18.025 176.319 -18.043 171.637 -18.055 166.956 C-18.06 165.362 -18.067 163.768 -18.075 162.175 C-18.088 159.888 -18.093 157.602 -18.098 155.316 C-18.103 154.6 -18.108 153.883 -18.113 153.145 C-18.113 152.484 -18.113 151.823 -18.114 151.143 C-18.116 150.559 -18.118 149.975 -18.12 149.373 C-18 148 -18 148 -17 147 C-14.746 146.717 -12.492 146.552 -10.227 146.379 C-7.901 145.983 -6.739 145.574 -5 144 C-4.054 141.766 -3.872 139.83 -3.858 137.418 C-3.851 136.711 -3.844 136.003 -3.837 135.274 C-3.833 134.515 -3.829 133.755 -3.824 132.973 C-3.801 131.36 -3.777 129.747 -3.752 128.135 C-3.716 125.596 -3.686 123.057 -3.674 120.518 C-3.662 118.065 -3.618 115.613 -3.574 113.16 C-3.576 112.403 -3.578 111.645 -3.58 110.865 C-3.458 105.607 -3.458 105.607 -2.107 103.817 C-1.415 103.207 -0.708 102.612 0.016 102.039 C3.087 98.797 2.142 91.87 2.129 87.704 C2.131 86.999 2.133 86.294 2.135 85.567 C2.139 83.247 2.136 80.926 2.133 78.605 C2.133 76.973 2.134 75.341 2.136 73.709 C2.138 70.285 2.135 66.861 2.13 63.438 C2.125 59.528 2.127 55.617 2.132 51.707 C2.137 47.902 2.137 44.098 2.134 40.293 C2.133 38.697 2.134 37.1 2.136 35.504 C2.146 27.179 2.019 18.884 1.554 10.572 C1.535 10.213 1.535 10.213 1.437 8.399 C1.396 7.734 1.354 7.069 1.312 6.384 C1.294 6.093 1.294 6.093 1.203 4.618 C0.996 2.969 0.579 1.554 0 0 Z " fill="#5F5D57" transform="translate(168,25)"/>
<path d="M0 0 C5.614 2.245 5.614 2.245 7.316 3.473 C7.688 3.732 8.06 3.992 8.443 4.26 C9.194 4.798 9.944 5.337 10.693 5.877 C12.674 7.258 13.777 7.966 16.23 8.336 C16.814 8.555 17.398 8.774 18 9 C18.674 10.827 18.696 12.631 18.75 14.562 C18.791 15.46 18.791 15.46 19 20 C12.73 20 6.46 20 0 20 C0 13.4 0 6.8 0 0 Z " fill="#C9C8C4" transform="translate(121,187)"/>
<path d="M0 0 C0.66 0 1.32 0 2 0 C4.516 16.759 4.24 33.532 4.137 50.436 C4.117 54.232 4.108 58.027 4.098 61.822 C4.076 69.215 4.043 76.607 4 84 C3.67 84 3.34 84 3 84 C2.67 67.17 2.34 50.34 2 33 C1.01 35.31 0.02 37.62 -1 40 C-1.33 40 -1.66 40 -2 40 C-2 37.69 -2 35.38 -2 33 C-3.32 33 -4.64 33 -6 33 C-6.117 30.896 -6.187 28.793 -6.25 26.688 C-6.284 26.093 -6.317 25.498 -6.352 24.885 C-6.449 20.512 -6.449 20.512 -5.114 18.99 C-4.108 18.279 -3.055 17.635 -2 17 C-1.375 14.812 -1.375 14.812 -1 13 C-0.34 13 0.32 13 1 13 C0.67 8.71 0.34 4.42 0 0 Z " fill="#403631" transform="translate(18,36)"/>
<path d="M0 0 C3.335 1.436 6.266 3.775 8 7 C8.849 10.326 8.486 13.642 8 17 C5.877 17.433 4.092 17.639 2 17 C1.18 15.477 1.18 15.477 0.562 13.562 C-0.094 11.629 -0.094 11.629 -1 10 C-4.636 8.351 -8.275 8.854 -12 10 C-12.33 9.67 -12.66 9.34 -13 9 C-14.562 8.938 -14.562 8.938 -16 9 C-16 10.65 -16 12.3 -16 14 C-16.66 14 -17.32 14 -18 14 C-18.731 11.96 -19.118 10.173 -19 8 C-15.102 0.843 -7.819 -1.93 0 0 Z " fill="#1C120E" transform="translate(140,45)"/>
<path d="M0 0 C0.99 0 1.98 0 3 0 C3 9.9 3 19.8 3 30 C-10.86 30 -24.72 30 -39 30 C-39 29.67 -39 29.34 -39 29 C-38.369 28.98 -37.738 28.96 -37.088 28.94 C-34.753 28.864 -32.418 28.775 -30.083 28.683 C-29.071 28.644 -28.059 28.609 -27.048 28.578 C-25.595 28.533 -24.143 28.475 -22.691 28.414 C-22.237 28.403 -21.783 28.391 -21.315 28.379 C-20.041 28.319 -20.041 28.319 -18 28 C-17.67 27.34 -17.34 26.68 -17 26 C-20.63 26 -24.26 26 -28 26 C-28 25.34 -28 24.68 -28 24 C-18.76 24 -9.52 24 0 24 C0 16.08 0 8.16 0 0 Z " fill="#B2ADA7" transform="translate(153,133)"/>
<path d="M0 0 C0.33 0 0.66 0 1 0 C1.155 8.425 1.304 16.85 1.443 25.275 C1.508 29.189 1.575 33.103 1.648 37.017 C2.205 67.046 2.205 67.046 1.637 77.727 C1.602 78.394 1.568 79.061 1.532 79.748 C1.092 86.158 -0.595 92.066 -3 98 C-3.175 98.448 -3.35 98.896 -3.531 99.357 C-7.557 109.357 -14.671 116.676 -23.482 122.674 C-28.646 126.27 -33.104 130.62 -37.61 134.989 C-48.124 145.137 -48.124 145.137 -52.871 145.488 C-53.728 145.456 -54.584 145.398 -55.438 145.312 C-55.66 145.301 -55.66 145.301 -56.787 145.244 C-57.86 145.186 -58.93 145.097 -60 145 C-60 144.67 -60 144.34 -60 144 C-59.478 144.032 -58.956 144.064 -58.418 144.098 C-49.533 143.958 -44.222 138.232 -38.238 132.234 C-37.183 131.139 -36.128 130.043 -35.074 128.945 C-32.274 126.202 -29.1 123.89 -26 121.5 C-13.134 111.531 -3.339 99.687 -1 83 C-0.837 80.272 -0.815 77.546 -0.795 74.813 C-0.785 74.003 -0.775 73.193 -0.765 72.358 C-0.738 70.15 -0.717 67.941 -0.697 65.733 C-0.675 63.42 -0.647 61.107 -0.621 58.794 C-0.571 54.421 -0.526 50.047 -0.483 45.673 C-0.433 40.691 -0.378 35.709 -0.323 30.727 C-0.209 20.485 -0.102 10.243 0 0 Z " fill="#514D49" transform="translate(241,28)"/>
<path d="M0 0 C2.062 0.25 2.062 0.25 4 1 C4.25 2.562 4.25 2.562 4 4 C4.99 3.01 5.98 2.02 7 1 C7 7.93 7 14.86 7 22 C6.01 22 5.02 22 4 22 C4.021 22.763 4.041 23.526 4.062 24.312 C4.057 26.399 3.95 28.1 3 30 C2.34 30.33 1.68 30.66 1 31 C0.748 32.613 0.627 34.07 0.586 35.691 C0.567 36.156 0.547 36.621 0.527 37.1 C0.467 38.587 0.421 40.075 0.375 41.562 C0.337 42.57 0.298 43.577 0.258 44.584 C0.162 47.056 0.078 49.528 0 52 C-0.33 52 -0.66 52 -1 52 C-1.023 45.368 -1.041 38.735 -1.052 32.103 C-1.057 29.024 -1.064 25.944 -1.075 22.865 C-1.086 19.895 -1.092 16.926 -1.095 13.956 C-1.097 12.821 -1.1 11.686 -1.106 10.551 C-1.113 8.966 -1.114 7.38 -1.114 5.795 C-1.117 5.322 -1.121 4.849 -1.124 4.361 C-1.114 1.114 -1.114 1.114 0 0 Z " fill="#1D100A" transform="translate(13,68)"/>
<path d="M0 0 C7.344 14.687 7.344 14.687 8.212 16.434 C8.682 17.368 9.16 18.298 9.653 19.22 C10.714 21.213 11.294 22.796 11.312 25.062 C11.321 25.305 11.321 25.305 11.363 26.535 C10.843 28.632 9.582 29.593 8 31 C-4.724 15.877 -4.724 15.877 -5.125 10.246 C-5.084 9.835 -5.042 9.424 -5 9 C-4.34 9 -3.68 9 -3 9 C-2.344 7.483 -1.839 6.076 -1.375 4.5 C-1.241 4.071 -1.107 3.641 -0.969 3.199 C-0.638 2.135 -0.318 1.068 0 0 Z " fill="#1D130E" transform="translate(60,134)"/>
<path d="M0 0 C2.062 0.188 2.062 0.188 4 1 C4.25 3.062 4.25 3.062 4 5 C5.98 5.33 7.96 5.66 10 6 C10 6.99 10 7.98 10 9 C-4.083 9.749 -17.93 10.302 -32 9 C-31.34 8.67 -30.68 8.34 -30 8 C-30 7.34 -30 6.68 -30 6 C-26.936 5.255 -24.349 4.898 -21.223 5.332 C-20.978 5.365 -20.978 5.365 -19.741 5.531 C-18.752 5.676 -17.766 5.843 -16.784 6.033 C-15.391 6.234 -15.391 6.234 -13 6 C-12.318 4.747 -11.981 3.505 -11.578 2.14 C-11.387 1.764 -11.196 1.387 -11 1 C-9.028 0.619 -7.868 0.553 -5.938 0.75 C-4.29 0.861 -2.651 0.942 -1 1 C-0.67 0.67 -0.34 0.34 0 0 Z " fill="#160D07" transform="translate(221,23)"/>
<path d="M0 0 C0.157 0.15 0.157 0.15 0.953 0.91 C2.262 2.073 3.496 3.101 5 4 C7.312 3.75 7.312 3.75 9 3 C8.625 5 8.625 5 8 7 C7.34 7 6.68 7 6 7 C6.165 7.66 6.33 8.32 6.5 9 C7.245 12.64 7.083 16.303 7 20 C6.34 20 5.68 20 5 20 C4.773 21.23 4.554 22.465 4.441 23.711 C4 25 4 25 2.508 25.844 C1 27 1 27 0.488 29.383 C0.416 30.296 0.357 31.21 0.312 32.125 C0.278 32.593 0.244 33.061 0.209 33.543 C0.127 34.694 0.062 35.847 0 37 C-0.33 37 -0.66 37 -1 37 C-1.023 32.471 -1.041 27.942 -1.052 23.413 C-1.057 21.31 -1.064 19.207 -1.075 17.104 C-1.088 14.687 -1.093 12.269 -1.098 9.852 C-1.103 9.096 -1.108 8.341 -1.113 7.563 C-1.113 6.862 -1.113 6.162 -1.114 5.44 C-1.116 4.823 -1.118 4.205 -1.12 3.569 C-1 2 -1 2 0 0 Z " fill="#20150F" transform="translate(12,29)"/>
<path d="M0 0 C2.188 0.375 2.188 0.375 4 1 C1.852 4.125 1.852 4.125 1 5 C0.34 5 -0.32 5 -1 5 C-1.128 5.327 -1.128 5.327 -1.773 6.984 C-3 9 -3 9 -4.188 9.33 C-5.684 9.394 -7.131 9.349 -8.625 9.25 C-9.141 9.232 -9.656 9.214 -10.188 9.195 C-11.459 9.148 -12.73 9.076 -14 9 C-13.01 9.66 -12.02 10.32 -11 11 C-14.96 11 -18.92 11 -23 11 C-23 8 -23 8 -22 7 C-21.34 6.67 -20.68 6.34 -20 6 C-20.33 5.34 -20.66 4.68 -21 4 C-22.183 3.722 -22.183 3.722 -23.684 3.681 C-24.244 3.661 -24.805 3.641 -25.382 3.621 C-25.99 3.609 -26.597 3.598 -27.223 3.586 C-27.843 3.567 -28.463 3.547 -29.102 3.527 C-31.088 3.467 -33.075 3.421 -35.062 3.375 C-36.407 3.337 -37.751 3.298 -39.096 3.258 C-42.397 3.162 -45.698 3.077 -49 3 C-49 2.67 -49 2.34 -49 2 C-48.715 2.002 -48.715 2.002 -47.274 2.013 C-41.903 2.054 -36.533 2.084 -31.162 2.104 C-28.401 2.114 -25.641 2.128 -22.88 2.151 C-20.215 2.173 -17.55 2.185 -14.885 2.19 C-13.869 2.193 -12.852 2.201 -11.836 2.211 C-10.412 2.226 -8.988 2.228 -7.563 2.227 C-6.753 2.231 -5.942 2.236 -5.107 2.241 C-2.806 1.978 -1.849 1.317 0 0 Z " fill="#241812" transform="translate(79,23)"/>
<path d="M0 0 C0.33 0 0.66 0 1 0 C1 1.98 1 3.96 1 6 C-23.75 6 -48.5 6 -74 6 C-74 12.27 -74 18.54 -74 25 C-74.33 25 -74.66 25 -75 25 C-75 18.07 -75 11.14 -75 4 C-73.598 4.012 -73.598 4.012 -66.504 4.07 C-64.273 4.083 -62.042 4.094 -59.811 4.104 C-57.453 4.114 -55.096 4.128 -52.738 4.151 C-50.469 4.173 -48.199 4.185 -45.93 4.19 C-45.063 4.193 -44.196 4.201 -43.328 4.211 C-42.117 4.226 -40.905 4.227 -39.694 4.227 C-39.348 4.229 -39.348 4.229 -37.601 4.241 C-37.073 4.161 -36.544 4.082 -36 4 C-35.67 3.34 -35.34 2.68 -35 2 C-35 2.66 -35 3.32 -35 4 C-23.45 4 -11.9 4 0 4 C0 2.68 0 1.36 0 0 Z " fill="#B5B1A9" transform="translate(159,32)"/>
<path d="M0 0 C0.33 0 0.66 0 1 0 C1.005 0.281 1.005 0.281 1.031 1.704 C1.13 7.057 1.233 12.41 1.339 17.762 C1.394 20.513 1.447 23.264 1.497 26.014 C1.546 28.679 1.598 31.344 1.653 34.009 C1.673 35.015 1.692 36.021 1.709 37.027 C1.837 44.386 2.315 51.672 3 59 C3.495 58.835 3.495 58.835 6 58 C5.464 73.365 5.464 73.365 2.699 78.57 C1.547 80.925 1.275 83.415 1 86 C0.67 86 0.34 86 0 86 C0 57.62 0 29.24 0 0 Z " fill="#B3AFAA" transform="translate(187,45)"/>
<path d="M0 0 C6.27 0 12.54 0 19 0 C19 4.29 19 8.58 19 13 C14.584 11.528 10.376 10.029 6.125 8.188 C5.532 7.952 4.939 7.717 4.328 7.475 C3.769 7.229 3.209 6.983 2.633 6.73 C2.126 6.518 1.62 6.306 1.098 6.087 C0.917 5.907 0.917 5.907 0 5 C0 3.35 0 1.7 0 0 Z " fill="#EDEDE9" transform="translate(121,174)"/>
<path d="M0 0 C0.33 0 0.66 0 1 0 C1 8.91 1 17.82 1 27 C0.34 27 -0.32 27 -1 27 C-1.408 25.702 -1.506 24.444 -1.656 23.094 C-1.77 22.733 -1.883 22.372 -2 22 C-2.66 22 -3.32 22 -4 22 C-4.598 23.75 -4.598 23.75 -5.062 26 C-5.344 27.34 -5.648 28.676 -6 30 C-6.33 30 -6.66 30 -7 30 C-7.17 27.156 -7.33 24.312 -7.482 21.467 C-7.535 20.503 -7.59 19.539 -7.648 18.576 C-8.007 12.586 -8.022 6.951 -7 1 C-5.271 2.63 -4.571 3.838 -3.875 6.125 C-3.707 6.664 -3.54 7.203 -3.367 7.758 C-3.307 7.963 -3.307 7.963 -3 9 C-2.795 8.35 -2.59 7.701 -2.379 7.031 C-2.107 6.187 -1.835 5.344 -1.562 4.5 C-1.428 4.071 -1.293 3.641 -1.154 3.199 C-0.804 2.121 -0.405 1.059 0 0 Z " fill="#160C08" transform="translate(185,117)"/>
<path d="M0 0 C0.413 0.364 0.825 0.727 1.25 1.102 C7.816 6.818 13.941 11.965 22.215 14.945 C24 16 24 16 24.688 18.039 C24.791 18.686 24.894 19.333 25 20 C26.062 21.25 26.062 21.25 27 22 C24.567 23.342 22.811 24.281 20 24 C20 23.01 20 22.02 20 21 C19.34 21.99 18.68 22.98 18 24 C16.375 23.312 16.375 23.312 15 22 C15.358 20.185 16.137 18.627 17 17 C15.858 16.753 14.711 16.527 13.562 16.312 C13.243 16.249 13.243 16.249 11.629 15.926 C11.36 15.938 11.36 15.938 10 16 C9.277 17.48 9.277 17.48 9 19 C8.175 18.67 8.175 18.67 4 17 C4.474 16.938 4.949 16.876 5.438 16.812 C7 16 7 16 7.422 14.82 C7.665 13.555 7.836 12.277 8 11 C7.01 11.33 6.02 11.66 5 12 C5 11.34 5 10.68 5 10 C5.66 10 6.32 10 7 10 C6.67 9.34 6.34 8.68 6 8 C5.381 8.103 4.763 8.206 4.125 8.312 C3.774 8.261 3.774 8.261 2 8 C0.606 5.811 -0.355 3.513 -1 1 C-0.67 0.67 -0.34 0.34 0 0 Z " fill="#140C09" transform="translate(39,166)"/>
<path d="M0 0 C2.557 -0.401 5.125 -0.329 7.711 -0.316 C8.996 -0.313 10.278 -0.336 11.562 -0.361 C12.367 -0.362 13.171 -0.363 14 -0.363 C14.371 -0.365 14.371 -0.365 16.25 -0.372 C16.827 -0.249 17.405 -0.127 18 0 C18.844 1.433 18.844 1.433 19 3 C18.505 3.474 18.01 3.949 17.5 4.438 C17.005 4.953 16.51 5.469 16 6 C16.312 8.188 16.312 8.188 17 10 C17.33 8.35 17.66 6.7 18 5 C18.66 5.33 19.32 5.66 20 6 C20.135 7.399 20.135 7.399 19.977 9.16 C19.925 9.789 19.873 10.417 19.82 11.064 C19.756 11.724 19.691 12.383 19.625 13.062 C19.568 13.726 19.512 14.389 19.453 15.072 C19.311 16.716 19.16 18.358 19 20 C18.67 20 18.34 20 18 20 C17.773 18.734 17.55 17.466 17.379 16.191 C17.254 15.798 17.129 15.405 17 15 C16.34 14.67 15.68 14.34 15 14 C14.67 14.99 14.34 15.98 14 17 C13.67 14.69 13.34 12.38 13 10 C12.34 11.32 11.68 12.64 11 14 C10.95 13.192 10.899 12.384 10.848 11.551 C10.571 10.167 10.571 10.167 10 9 C8.195 8.18 6.398 8.21 4.438 8.188 C3.917 8.162 3.397 8.137 2.861 8.111 C1.575 8.052 0.287 8.023 -1 8 C-1 7.67 -1 7.34 -1 7 C2.3 6.67 5.6 6.34 9 6 C8.01 5.67 7.02 5.34 6 5 C4.766 4.49 3.537 3.969 2.312 3.438 C1.69 3.168 1.067 2.899 0.426 2.621 C-0.045 2.416 -0.515 2.211 -1 2 C-0.67 1.34 -0.34 0.68 0 0 Z " fill="#120905" transform="translate(146,124)"/>
<path d="M0 0 C1.801 0.577 2.548 0.968 3.621 2.52 C4.218 5.738 4.148 8.612 2.496 11.457 C-0.17 12.968 -2.387 13.1 -5.379 12.52 C-7.254 11.457 -7.254 11.457 -8.379 9.52 C-8.943 6.206 -8.906 3.512 -7.316 0.52 C-4.688 -0.837 -2.861 -0.461 0 0 Z " fill="#F0EFEE" transform="translate(137.37890625,53.48046875)"/>
<path d="M0 0 C0.33 0 0.66 0 1 0 C1.698 8.051 2.138 16.111 2.232 24.191 C2.244 25.054 2.261 25.916 2.283 26.778 C2.42 32.317 2.099 37.241 -1 42 C-4.239 44.566 -9.188 44.455 -13 45 C-13.33 55.23 -13.66 65.46 -14 76 C-14.33 76 -14.66 76 -15 76 C-15.025 71.319 -15.043 66.637 -15.055 61.956 C-15.06 60.362 -15.067 58.768 -15.075 57.175 C-15.088 54.888 -15.093 52.602 -15.098 50.316 C-15.103 49.6 -15.108 48.883 -15.113 48.145 C-15.113 47.484 -15.113 46.823 -15.114 46.143 C-15.116 45.559 -15.118 44.975 -15.12 44.373 C-15 43 -15 43 -14 42 C-11.746 41.717 -9.492 41.552 -7.227 41.379 C-4.901 40.983 -3.739 40.574 -2 39 C-1.056 36.76 -0.854 34.772 -0.795 32.355 C-0.775 31.634 -0.755 30.914 -0.734 30.171 C-0.718 29.399 -0.701 28.627 -0.684 27.832 C-0.663 27.037 -0.642 26.242 -0.621 25.424 C-0.566 23.318 -0.516 21.212 -0.468 19.106 C-0.417 16.954 -0.362 14.802 -0.307 12.65 C-0.2 8.434 -0.098 4.217 0 0 Z " fill="#45423D" transform="translate(165,130)"/>
<path d="M0 0 C0.66 0 1.32 0 2 0 C2 1.65 2 3.3 2 5 C2.66 5 3.32 5 4 5 C4.33 12.59 4.66 20.18 5 28 C3 25 3 25 2.5 23.375 C2 22 2 22 0 21 C0 22.65 0 24.3 0 26 C-0.66 26 -1.32 26 -2 26 C-2.463 5.336 -2.463 5.336 0 0 Z " fill="#AEABA5" transform="translate(46,59)"/>
<path d="M0 0 C1.988 1.037 2.861 1.584 3.585 3.75 C4.048 6.262 4.18 8.7 4.203 11.246 C4.209 11.739 4.215 12.232 4.22 12.74 C4.23 13.778 4.236 14.816 4.24 15.854 C4.25 17.43 4.281 19.004 4.312 20.58 C4.412 29.967 4.412 29.967 1 34 C0.863 34.182 0.863 34.182 0.173 35.102 C-1.617 36.473 -3.141 36.262 -5.37 36.275 C-5.811 36.28 -6.252 36.285 -6.706 36.29 C-8.165 36.304 -9.623 36.303 -11.082 36.301 C-12.099 36.305 -13.115 36.309 -14.132 36.314 C-16.264 36.321 -18.397 36.321 -20.53 36.316 C-23.253 36.31 -25.976 36.327 -28.7 36.35 C-30.801 36.365 -32.902 36.366 -35.003 36.363 C-36.007 36.363 -37.01 36.368 -38.013 36.378 C-47.674 36.464 -47.674 36.464 -52 33 C-50.393 32.923 -49.179 32.934 -47.659 33.493 C-45.642 34.11 -43.885 34.149 -41.776 34.177 C-41.362 34.184 -40.949 34.19 -40.523 34.197 C-39.162 34.217 -37.802 34.228 -36.441 34.238 C-35.975 34.242 -35.508 34.246 -35.027 34.251 C-32.559 34.271 -30.09 34.286 -27.622 34.295 C-25.078 34.306 -22.536 34.341 -19.993 34.38 C-18.031 34.407 -16.069 34.415 -14.107 34.418 C-13.169 34.423 -12.232 34.435 -11.295 34.453 C-3.07 34.607 -3.07 34.607 -0.421 32.36 C1.587 29.732 1.525 27.001 1.426 23.809 C1.422 23.222 1.419 22.636 1.416 22.031 C1.4 20.166 1.356 18.302 1.312 16.438 C1.301 15.18 1.291 13.923 1.283 12.666 C1.27 11.464 1.255 10.261 1.238 9.059 C1.231 8.496 1.224 7.933 1.216 7.354 C1.152 4.726 1.061 2.453 0 0 Z " fill="#75706C" transform="translate(156,208)"/>
<path d="M0 0 C1.674 -0.249 1.674 -0.249 3.816 -0.074 C4.58 -0.019 5.344 0.035 6.131 0.092 C6.933 0.165 7.736 0.237 8.562 0.312 C9.369 0.374 10.175 0.435 11.006 0.498 C13.005 0.652 15.003 0.82 17 1 C16.835 1.474 16.67 1.949 16.5 2.438 C15.777 4.695 16.229 5.785 17 8 C14.331 8.049 11.662 8.086 8.992 8.11 C8.084 8.12 7.176 8.134 6.269 8.151 C4.963 8.175 3.657 8.186 2.352 8.195 C1.959 8.201 1.959 8.201 -0.029 8.227 C-2 8 -2 8 -3.272 6.988 C-3.392 6.825 -3.392 6.825 -4 6 C-3.526 5.567 -3.051 5.134 -2.562 4.688 C-1 3 -1 3 -0.641 1.399 C-0.429 0.937 -0.218 0.476 0 0 Z " fill="#160B07" transform="translate(59,85)"/>
<path d="M0 0 C0.165 0.33 0.165 0.33 1 2 C1.66 2.33 2.32 2.66 3 3 C2.977 4.848 2.977 4.848 2.625 7.062 C2.514 7.796 2.403 8.529 2.289 9.285 C2.241 9.568 2.241 9.568 2 11 C1.34 11 0.68 11 0 11 C0 9.35 0 7.7 0 6 C-18.48 5.67 -36.96 5.34 -56 5 C-56 8.3 -56 11.6 -56 15 C-56.33 15 -56.66 15 -57 15 C-57 11.37 -57 7.74 -57 4 C-55.672 3.98 -54.345 3.96 -52.977 3.94 C-48.598 3.873 -44.22 3.795 -39.841 3.712 C-37.186 3.662 -34.53 3.616 -31.874 3.578 C-29.313 3.541 -26.752 3.495 -24.191 3.442 C-23.212 3.423 -22.233 3.408 -21.254 3.397 C-19.887 3.38 -18.52 3.351 -17.153 3.319 C-16.373 3.306 -15.594 3.292 -14.791 3.278 C-14.2 3.187 -13.609 3.095 -13 3 C-12.67 2.34 -12.34 1.68 -12 1 C-10.119 0.878 -8.374 0.86 -6.5 0.938 C-4.66 1 -2.843 1.02 -1 1 C-0.67 0.67 -0.34 0.34 0 0 Z " fill="#281F18" transform="translate(77,30)"/>
<path d="M0 0 C1.426 -0.094 1.426 -0.094 3 0 C4.188 1.5 4.188 1.5 5 3 C4.01 3 3.02 3 2 3 C2.99 3.66 3.98 4.32 5 5 C5.062 4.752 5.062 4.752 5.375 3.5 C5.581 3.005 5.787 2.51 6 2 C6.66 2 7.32 2 8 2 C9.125 1 9.125 1 10 0 C10.842 2.201 11.119 4.004 11.098 6.355 C11.094 6.977 11.091 7.599 11.088 8.24 C11.08 8.883 11.071 9.525 11.062 10.188 C11.058 10.842 11.053 11.496 11.049 12.17 C11.037 13.78 11.021 15.39 11 17 C10.34 17 9.68 17 9 17 C8.67 16.67 8.34 16.34 8 16 C7.34 17.32 6.68 18.64 6 20 C6 17.69 6 15.38 6 13 C5.01 13 4.02 13 3 13 C3 10.69 3 8.38 3 6 C2.67 6.495 2.67 6.495 1 9 C0.34 8.67 -0.32 8.34 -1 8 C-0.977 6.152 -0.977 6.152 -0.625 3.938 C-0.514 3.204 -0.403 2.471 -0.289 1.715 C-0.194 1.149 -0.098 0.583 0 0 Z " fill="#ADA7A1" transform="translate(150,58)"/>
<path d="M0 0 C1.375 1.705 2.005 2.598 1.977 4.824 C1.919 5.132 1.919 5.132 1.625 6.688 C1.514 7.31 1.403 7.933 1.289 8.574 C1.194 9.045 1.098 9.515 1 10 C1.66 10 2.32 10 3 10 C3 10.99 3 11.98 3 13 C3.103 12.752 3.103 12.752 3.625 11.5 C5 10 5 10 6.469 9.801 C7.989 9.812 9.486 9.871 11 10 C10.67 10.66 10.34 11.32 10 12 C9.34 12 8.68 12 8 12 C8.113 12.206 8.113 12.206 8.688 13.25 C8.739 13.539 8.739 13.539 9 15 C8.761 15.294 8.761 15.294 7.552 16.784 C5.655 19.19 5.53 21.211 5.488 24.203 C5.479 24.444 5.479 24.444 5.434 25.666 C5.38 27.194 5.346 28.721 5.312 30.25 C5.279 31.292 5.245 32.333 5.209 33.375 C5.124 35.916 5.057 38.458 5 41 C4.67 41 4.34 41 4 41 C4 35.06 4 29.12 4 23 C3.34 23 2.68 23 2 23 C2 21.35 2 19.7 2 18 C1.34 18 0.68 18 0 18 C-0.33 18.66 -0.66 19.32 -1 20 C-1.15 13.258 -0.701 6.698 0 0 Z " fill="#9C9B93" transform="translate(46,41)"/>
<path d="M0 0 C0.66 0 1.32 0 2 0 C3.091 1.197 3.971 2.485 4.902 3.809 C6.213 5.232 7.106 5.649 9 6 C9.66 5.67 10.32 5.34 11 5 C13.125 5.938 13.125 5.938 15 7 C15.33 6.34 15.66 5.68 16 5 C16.66 5 17.32 5 18 5 C18 9.62 18 14.24 18 19 C11.546 19.179 6.22 18.946 0 17 C3.328 15.994 6.314 15.879 9.75 15.938 C10.257 15.942 10.763 15.947 11.285 15.951 C12.523 15.963 13.762 15.981 15 16 C15.312 14.625 15.312 14.625 15 13 C13.828 12.51 12.65 12.032 11.448 11.621 C8.775 10.475 6.798 8.458 4.688 6.5 C4.233 6.097 3.779 5.693 3.311 5.277 C0.849 3.034 0.849 3.034 0 2 C0 1.34 0 0.68 0 0 Z " fill="#A7A39D" transform="translate(58,164)"/>
<path d="M0 0 C0.33 0.165 0.33 0.165 2 1 C2.195 2.41 2.195 2.41 2.125 4.062 C2.107 4.61 2.089 5.158 2.07 5.723 C2.047 6.144 2.024 6.566 2 7 C4.127 6.919 6.25 6.806 8.375 6.688 C8.978 6.665 9.582 6.642 10.203 6.619 C10.783 6.584 11.363 6.548 11.961 6.512 C12.495 6.486 13.029 6.459 13.58 6.432 C15 6 15 6 17 3 C17.33 5.97 17.66 8.94 18 12 C12.06 12 6.12 12 0 12 C0 8.04 0 4.08 0 0 Z " fill="#E8E7E5" transform="translate(122,194)"/>
<path d="M0 0 C0.356 0.003 0.356 0.003 2.16 0.02 C3.938 0.188 3.938 0.188 4.938 1.188 C5.374 4.46 5.498 7.272 3.75 10.125 C1.379 11.515 -0.381 11.812 -3.062 11.188 C-4.875 10.062 -4.875 10.062 -6.062 8.188 C-6.496 5.647 -6.749 3.238 -5.297 1.016 C-3.515 -0.18 -2.124 -0.042 0 0 Z " fill="#DADAD6" transform="translate(135.0625,93.8125)"/>
<path d="M0 0 C0.99 0 1.98 0 3 0 C4.062 1.875 4.062 1.875 5 4 C5.413 4.33 5.825 4.66 6.25 5 C6.497 5.33 6.745 5.66 7 6 C6.352 7.342 5.682 8.674 5 10 C4.895 11.266 4.895 11.266 4.938 12.562 C4.994 14.751 4.968 16.064 4 18 C3.34 18.33 2.68 18.66 2 19 C1.748 20.613 1.627 22.07 1.586 23.691 C1.567 24.156 1.547 24.621 1.527 25.1 C1.467 26.587 1.421 28.075 1.375 29.562 C1.337 30.57 1.298 31.577 1.258 32.584 C1.162 35.056 1.078 37.528 1 40 C0.67 40 0.34 40 0 40 C0 26.8 0 13.6 0 0 Z " fill="#251811" transform="translate(12,80)"/>
<path d="M0 0 C6.27 0 12.54 0 19 0 C19.062 2.434 19.124 4.868 19.188 7.375 C19.215 8.14 19.242 8.905 19.27 9.693 C19.278 10.297 19.285 10.901 19.293 11.523 C19.309 12.141 19.324 12.759 19.341 13.396 C19 15 19 15 17.482 16.217 C16.993 16.476 16.504 16.734 16 17 C16.66 17 17.32 17 18 17 C18.984 21.268 18.984 24.732 18 29 C17.67 29 17.34 29 17 29 C17 27.02 17 25.04 17 23 C16.577 22.969 16.577 22.969 14.438 22.812 C10.267 22.146 7.127 19.738 4 17 C4 16.67 4 16.34 4 16 C5.65 16 7.3 16 9 16 C9 16.66 9 17.32 9 18 C10.938 18.312 10.938 18.312 13 18 C13.711 16.379 13.875 14.756 14 13 C15.32 13.33 16.64 13.66 18 14 C18 9.71 18 5.42 18 1 C12.06 1 6.12 1 0 1 C0 0.67 0 0.34 0 0 Z " fill="#443F3B" transform="translate(122,173)"/>
<path d="M0 0 C2.089 2.745 3.135 5.713 4.25 8.938 C4.449 9.463 4.647 9.988 4.852 10.529 C5.803 13.282 6.152 14.529 5.234 17.379 C4.827 17.914 4.42 18.449 4 19 C3.34 19 2.68 19 2 19 C2.33 16.69 2.66 14.38 3 12 C2.01 12 1.02 12 0 12 C-0.33 12.66 -0.66 13.32 -1 14 C-1.33 13.34 -1.66 12.68 -2 12 C-2.66 13.98 -3.32 15.96 -4 18 C-6.128 15.872 -6.342 15.332 -6.75 12.5 C-6.848 11.892 -6.946 11.283 -7.047 10.656 C-7 9 -7 9 -6.016 7.781 C-5.68 7.523 -5.345 7.266 -5 7 C-4.67 7.33 -4.34 7.66 -4 8 C-3.897 7.34 -3.794 6.68 -3.688 6 C-3.574 5.67 -3.574 5.67 -3 4 C-1.438 3.75 -1.438 3.75 0 4 C0 2.68 0 1.36 0 0 Z " fill="#2A201B" transform="translate(23,134)"/>
<path d="M0 0 C1.902 -0.461 1.902 -0.461 4 0 C4.99 2.355 5.222 4.856 5.562 7.375 C5.795 8.842 6.032 10.308 6.273 11.773 C6.39 12.494 6.507 13.214 6.628 13.956 C7.379 18.082 8.655 22.033 10 26 C9.361 25.959 8.721 25.917 8.062 25.875 C7.382 25.916 6.701 25.958 6 26 C5.67 26.66 5.34 27.32 5 28 C0.431 8.574 0.431 8.574 0 0 Z " fill="#B0ADA6" transform="translate(47,124)"/>
<path d="M0 0 C0.581 0.035 1.161 0.071 1.76 0.107 C2.317 0.151 2.875 0.194 3.449 0.238 C3.952 0.276 4.454 0.314 4.971 0.353 C6.597 0.759 7.246 1.425 8.312 2.688 C8.312 2.027 8.312 1.367 8.312 0.688 C9.77 0.493 11.228 0.307 12.688 0.125 C13.5 0.021 14.312 -0.084 15.148 -0.191 C17.312 -0.312 17.312 -0.312 19.312 0.688 C19.312 1.348 19.312 2.008 19.312 2.688 C19.972 3.017 20.632 3.348 21.312 3.688 C9.482 4.609 -1.849 4.687 -13.688 3.688 C-13.028 3.358 -12.368 3.027 -11.688 2.688 C-11.688 2.027 -11.688 1.367 -11.688 0.688 C-7.752 -0.531 -4.066 -0.336 0 0 Z " fill="#0D0603" transform="translate(202.6875,28.3125)"/>
<path d="M0 0 C0.433 0.33 0.866 0.66 1.312 1 C3 2 3 2 6 2 C5.67 4.31 5.34 6.62 5 9 C6.32 8.34 7.64 7.68 9 7 C8.987 9.779 8.864 12.346 8 15 C6.424 16.172 5.456 16.366 3.504 16.418 C1.6 15.889 1.094 15.362 0.062 13.688 C-1.745 9.242 -0.754 4.596 0 0 Z " fill="#201510" transform="translate(20,144)"/>
<path d="M0 0 C0 1.98 0 3.96 0 6 C0.66 5.67 1.32 5.34 2 5 C2 8.3 2 11.6 2 15 C-2.503 12.748 -2.503 12.748 -3.887 10.723 C-4.185 10.291 -4.484 9.86 -4.791 9.416 C-5.087 8.969 -5.383 8.523 -5.688 8.062 C-5.995 7.62 -6.302 7.177 -6.619 6.721 C-8.098 4.549 -9.36 2.584 -10 0 C-6.329 -1.271 -3.717 -0.76 0 0 Z " fill="#A39E95" transform="translate(74,144)"/>
<path d="M0 0 C1.509 2.963 2.936 5.946 4.25 9 C4.449 9.425 4.647 9.851 4.852 10.289 C5.883 12.726 6.171 13.561 5.172 16.125 C4.785 16.744 4.398 17.363 4 18 C3.67 18.99 3.34 19.98 3 21 C1.68 18.69 0.36 16.38 -1 14 C-1.66 14.66 -2.32 15.32 -3 16 C-4.342 13.567 -5.281 11.811 -5 9 C-4.34 9 -3.68 9 -3 9 C-2.344 7.483 -1.839 6.076 -1.375 4.5 C-1.241 4.071 -1.107 3.641 -0.969 3.199 C-0.638 2.135 -0.318 1.068 0 0 Z " fill="#251B14" transform="translate(60,134)"/>
<path d="M0 0 C0.33 0 0.66 0 1 0 C1 4.62 1 9.24 1 14 C3.64 13.67 6.28 13.34 9 13 C9 13.66 9 14.32 9 15 C8.519 15.367 8.038 15.735 7.543 16.113 C5.085 19.119 5.428 22.413 5.312 26.188 C5.278 26.937 5.244 27.687 5.209 28.459 C5.127 30.306 5.057 32.152 5 34 C4.67 34 4.34 34 4 34 C4 31.36 4 28.72 4 26 C2.68 26 1.36 26 0 26 C0 17.42 0 8.84 0 0 Z " fill="#95918A" transform="translate(47,98)"/>
<path d="M0 0 C0.33 0 0.66 0 1 0 C1.833 4.23 2.16 8.298 2.168 12.605 C2.171 13.211 2.175 13.817 2.178 14.441 C2.183 15.711 2.185 16.981 2.185 18.251 C2.188 20.193 2.206 22.134 2.225 24.076 C2.228 25.315 2.23 26.554 2.23 27.793 C2.238 28.371 2.245 28.949 2.252 29.545 C2.235 32.616 2.135 34.592 0 37 C-0.859 33.283 -1.148 29.843 -1.133 26.035 C-1.134 25.479 -1.135 24.924 -1.136 24.351 C-1.136 23.182 -1.135 22.013 -1.13 20.844 C-1.125 19.071 -1.13 17.298 -1.137 15.525 C-1.136 14.383 -1.135 13.24 -1.133 12.098 C-1.135 11.576 -1.137 11.054 -1.139 10.516 C-1.116 6.926 -0.687 3.522 0 0 Z " fill="#939289" transform="translate(206,69)"/>
<path d="M0 0 C3.895 0.334 6.348 1.391 9.062 4.258 C10.994 7.848 10.345 12.051 10 16 C8.02 16 6.04 16 4 16 C3.805 14.709 3.619 13.417 3.438 12.125 C3.333 11.406 3.229 10.686 3.121 9.945 C3 8 3 8 4 6 C3.01 5.67 2.02 5.34 1 5 C1.33 4.34 1.66 3.68 2 3 C1.34 2.67 0.68 2.34 0 2 C0 1.34 0 0.68 0 0 Z " fill="#120A06" transform="translate(138,46)"/>
<path d="M0 0 C1.399 -0.341 1.399 -0.341 3.16 -0.293 C3.474 -0.288 3.474 -0.288 5.064 -0.264 C5.724 -0.239 6.383 -0.213 7.062 -0.188 C7.394 -0.181 7.394 -0.181 9.072 -0.146 C10.716 -0.111 12.357 -0.062 14 0 C14 0.66 14 1.32 14 2 C13.821 2.01 13.821 2.01 12.914 2.06 C11.296 2.155 9.68 2.265 8.062 2.375 C7.499 2.406 6.935 2.437 6.354 2.469 C6.084 2.488 6.084 2.488 4.723 2.586 C4.225 2.617 3.728 2.649 3.215 2.681 C2.814 2.786 2.413 2.892 2 3 C1.67 3.66 1.34 4.32 1 5 C13.54 5.33 26.08 5.66 39 6 C39 6.33 39 6.66 39 7 C25.14 7 11.28 7 -3 7 C-3 5.35 -3 3.7 -3 2 C-2.67 2.165 -2.67 2.165 -1 3 C-0.9 2.511 -0.8 2.022 -0.698 1.518 C-0.467 1.017 -0.237 0.516 0 0 Z " fill="#8D8580" transform="translate(107,157)"/>
<path d="M0 0 C0.33 0 0.66 0 1 0 C2.212 18.326 2.107 36.642 2 55 C1.67 55 1.34 55 1 55 C0.67 46.75 0.34 38.5 0 30 C-0.66 30 -1.32 30 -2 30 C-2 23.4 -2 16.8 -2 10 C-1.67 10 -1.34 10 -1 10 C-0.67 6.7 -0.34 3.4 0 0 Z " fill="#B6B5AE" transform="translate(207,45)"/>
<path d="M0 0 C0.268 0.474 0.536 0.949 0.812 1.438 C2.167 3.219 2.942 3.345 5 4 C5 4.66 5 5.32 5 6 C5.99 6 6.98 6 8 6 C7.625 7.438 7.625 7.438 7 9 C4.416 10.292 2.286 10.295 -0.562 10.375 C-1.07 10.412 -1.577 10.45 -2.1 10.488 C-3.566 10.523 -3.566 10.523 -6 10 C-6.883 8.377 -7.097 6.835 -7 5 C-6.062 3.688 -6.062 3.688 -5 3 C-4.34 3.66 -3.68 4.32 -3 5 C-2.938 4.68 -2.938 4.68 -2.625 3.062 C-2.419 2.382 -2.213 1.701 -2 1 C-1.34 0.67 -0.68 0.34 0 0 Z M-2 3 C-1.34 3.66 -0.68 4.32 0 5 C0 4.34 0 3.68 0 3 C-0.66 3 -1.32 3 -2 3 Z " fill="#231A14" transform="translate(185,162)"/>
<path d="M0 0 C0 0.33 0 0.66 0 1 C-0.482 1.049 -0.964 1.098 -1.461 1.148 C-2.093 1.223 -2.724 1.298 -3.375 1.375 C-4.001 1.445 -4.628 1.514 -5.273 1.586 C-7.192 2.046 -7.889 2.383 -9 4 C-9.266 5.438 -9.266 5.438 -9.25 7 C-9.255 7.516 -9.26 8.031 -9.266 8.562 C-9 10 -9 10 -8.242 11.148 C-6.494 12.347 -4.971 12.422 -2.875 12.625 C-2.151 12.7 -1.426 12.775 -0.68 12.852 C-0.125 12.901 0.429 12.95 1 13 C0.67 13.165 0.67 13.165 -1 14 C-1.33 14.66 -1.66 15.32 -2 16 C-3.988 16.95 -5.813 17.21 -8 17 C-11.156 15.192 -13.154 12.492 -14.125 9 C-14.319 7.016 -14.164 6.243 -13.039 4.578 C-11.763 3.264 -10.44 2.13 -9 1 C-8.526 0.546 -8.051 0.093 -7.562 -0.375 C-5.013 -1.395 -2.607 -0.624 0 0 Z " fill="#120C06" transform="translate(139,92)"/>
<path d="M0 0 C2.64 0 5.28 0 8 0 C8 0.99 8 1.98 8 3 C9.746 3.862 11.501 4.331 13.371 4.863 C15 6 15 6 15.446 7.443 C15.699 8.964 15.885 10.463 16 12 C13.319 10.972 10.659 9.897 8 8.812 C7.237 8.521 6.474 8.229 5.688 7.928 C3.638 7.077 1.808 6.288 0 5 C-0.731 3.02 -0.468 2.117 0 0 Z " fill="#E0DFDB" transform="translate(121,174)"/>
<path d="M0 0 C11.243 -0.72 11.243 -0.72 16.074 2.832 C17 4 17 4 17.336 5.559 C17.281 5.796 17.281 5.796 17 7 C12.642 9.596 7.734 9.065 3 8 C3 7.67 3 7.34 3 7 C4.094 6.684 4.094 6.684 5.5 6.438 C5.964 6.354 6.428 6.27 6.906 6.184 C7.267 6.123 7.628 6.062 8 6 C7.505 5.711 7.01 5.422 6.5 5.125 C6.005 4.754 5.51 4.382 5 4 C5 3.34 5 2.68 5 2 C3.906 1.621 3.906 1.621 2.5 1.438 C1.094 1.246 1.094 1.246 0 1 C0 0.67 0 0.34 0 0 Z " fill="#271E18" transform="translate(129,86)"/>
<path d="M0 0 C0.66 0 1.32 0 2 0 C2.054 1.625 2.094 3.249 2.125 4.875 C2.142 5.335 2.159 5.795 2.176 6.27 C2.226 9.704 2.226 9.704 0.992 11.32 C0.665 11.545 0.337 11.769 0 12 C-0.33 11.01 -0.66 10.02 -1 9 C-2.488 9.277 -2.488 9.277 -4 10 C-4.293 11.629 -4.293 11.629 -4.188 13.562 C-4.16 14.203 -4.133 14.844 -4.105 15.504 C-4.071 15.998 -4.036 16.491 -4 17 C-4.66 17 -5.32 17 -6 17 C-6 28.22 -6 39.44 -6 51 C-6.33 51 -6.66 51 -7 51 C-7.094 46.462 -7.164 41.924 -7.207 37.385 C-7.228 35.276 -7.256 33.168 -7.302 31.06 C-7.656 13.486 -7.656 13.486 -3 6 C-2.323 4.672 -1.656 3.339 -1 2 C-0.67 1.34 -0.34 0.68 0 0 Z " fill="#231B18" transform="translate(238,53)"/>
<path d="M0 0 C0.66 0.33 1.32 0.66 2 1 C1.381 1.206 0.763 1.412 0.125 1.625 C-1.312 2.345 -1.895 2.79 -2.624 4.241 C-3.758 7.802 -4.387 11.136 -4.605 14.863 C-4.643 15.416 -4.681 15.968 -4.72 16.538 C-4.999 21.016 -5.101 25.495 -5.176 29.98 C-5.188 30.653 -5.2 31.325 -5.212 32.018 C-5.261 34.785 -5.308 37.551 -5.326 40.319 C-5.341 42.373 -5.381 44.426 -5.426 46.48 C-5.424 47.107 -5.422 47.734 -5.42 48.38 C-5.467 50.021 -5.527 51.429 -6 53 C-8.036 54.407 -8.036 54.407 -10 55 C-9.86 54.576 -9.72 54.153 -9.576 53.716 C-8.231 49.39 -7.684 45.473 -7.621 40.957 C-7.604 40.307 -7.587 39.658 -7.57 38.988 C-7.517 36.93 -7.477 34.871 -7.438 32.812 C-7.095 17.119 -7.095 17.119 -6.656 10.219 C-6.635 9.735 -6.614 9.251 -6.592 8.753 C-6.348 5.483 -5.464 3.888 -3.062 1.688 C-1.473 0.574 -1.473 0.574 0 0 Z " fill="#4B4642" transform="translate(92,137)"/>
<path d="M0 0 C2.188 0.375 2.188 0.375 4 1 C1.852 4.125 1.852 4.125 1 5 C0.34 5 -0.32 5 -1 5 C-1.235 5.675 -1.469 6.351 -1.711 7.047 C-2.136 7.691 -2.562 8.336 -3 9 C-5.279 9.236 -7.399 8.726 -9.625 8.25 C-10.236 8.137 -10.847 8.023 -11.477 7.906 C-12.989 7.623 -14.495 7.32 -16 7 C-14.571 4.143 -14.571 4.143 -13 3 C-11.32 2.746 -9.75 2.583 -8.062 2.5 C-4.805 2.339 -2.695 1.93 0 0 Z " fill="#1F110B" transform="translate(79,23)"/>
<path d="M0 0 C0.33 0 0.66 0 1 0 C1 3.3 1 6.6 1 10 C0.01 10 -0.98 10 -2 10 C-2 11.65 -2 13.3 -2 15 C-3.667 15 -5.333 15 -7 15 C-7.223 13.732 -7.428 12.46 -7.625 11.188 C-7.741 10.48 -7.857 9.772 -7.977 9.043 C-8.004 6.662 -7.58 5.751 -6 4 C-4.438 3.938 -4.438 3.938 -3 4 C-2.67 3.34 -2.34 2.68 -2 2 C-1.34 2 -0.68 2 0 2 C0 1.34 0 0.68 0 0 Z " fill="#1D130D" transform="translate(22,128)"/>
<path d="M0 0 C0.435 0.203 0.871 0.406 1.319 0.615 C0.699 1.03 0.079 1.445 -0.56 1.873 C-7.371 6.568 -13.364 11.857 -19.288 17.602 C-29.803 27.753 -29.803 27.753 -34.552 28.104 C-35.409 28.071 -36.265 28.013 -37.118 27.928 C-37.564 27.905 -38.009 27.883 -38.468 27.859 C-39.54 27.802 -40.611 27.712 -41.681 27.615 C-41.681 27.285 -41.681 26.955 -41.681 26.615 C-41.159 26.647 -40.637 26.68 -40.099 26.713 C-31.249 26.573 -25.807 20.845 -19.884 14.814 C-19.363 14.274 -18.842 13.734 -18.306 13.178 C-15.084 9.854 -11.564 6.979 -7.931 4.115 C-7.363 3.657 -6.795 3.199 -6.21 2.727 C-5.67 2.308 -5.129 1.89 -4.571 1.459 C-4.087 1.079 -3.603 0.7 -3.104 0.309 C-1.681 -0.385 -1.681 -0.385 0 0 Z " fill="#7D7A76" transform="translate(222.6806640625,145.384765625)"/>
<path d="M0 0 C0.33 0 0.66 0 1 0 C1.076 4.112 1.129 8.223 1.165 12.335 C1.18 13.735 1.2 15.135 1.226 16.534 C1.263 18.543 1.28 20.55 1.293 22.559 C1.308 23.188 1.324 23.817 1.34 24.465 C1.34 24.755 1.34 24.755 1.341 26.224 C1.347 26.737 1.354 27.25 1.361 27.779 C1.242 28.182 1.123 28.585 1 29 C-0.521 29.673 -0.521 29.673 -2 30 C-2 29.34 -2 28.68 -2 28 C-2.66 28 -3.32 28 -4 28 C-4.625 30 -4.625 30 -5 32 C-6.5 31.625 -6.5 31.625 -8 31 C-8 30.34 -8 29.68 -8 29 C-7.34 28.67 -6.68 28.34 -6 28 C-6.66 27.67 -7.32 27.34 -8 27 C-6.951 24.378 -6.351 23.206 -3.875 21.75 C-3.256 21.502 -2.637 21.255 -2 21 C-1.67 21.66 -1.34 22.32 -1 23 C-0.67 15.41 -0.34 7.82 0 0 Z " fill="#9D9791" transform="translate(160,32)"/>
<path d="M0 0 C1.594 -0.266 1.594 -0.266 3.5 -0.25 C4.129 -0.255 4.758 -0.26 5.406 -0.266 C5.932 -0.178 6.458 -0.09 7 0 C8.255 2.51 7.678 3.372 7 6 C7.33 6.33 7.66 6.66 8 7 C8.99 6.01 9.98 5.02 11 4 C11 5.65 11 7.3 11 9 C5.414 8.651 0.718 7.05 -4 4 C-4.33 3.34 -4.66 2.68 -5 2 C-4.361 2.041 -3.721 2.083 -3.062 2.125 C-2.382 2.084 -1.701 2.042 -1 2 C-0.67 1.34 -0.34 0.68 0 0 Z " fill="#2D2521" transform="translate(49,182)"/>
<path d="M0 0 C0.33 0 0.66 0 1 0 C0.984 0.358 0.969 0.717 0.952 1.086 C0.89 2.703 0.851 4.32 0.812 5.938 C0.787 6.501 0.762 7.065 0.736 7.646 C0.709 9.154 0.697 10.523 1 12 C2.484 12.75 2.484 12.75 4 13 C4.144 13.681 4.289 14.361 4.438 15.062 C4.623 15.702 4.809 16.341 5 17 C7.062 17.25 7.062 17.25 9 17 C9 17.66 9 18.32 9 19 C10.529 19.464 11.935 19.792 13.5 20.062 C15.016 20.338 16.499 20.646 18 21 C18 21.33 18 21.66 18 22 C5.716 22.429 5.716 22.429 3 20 C-1.355 14.406 -0.293 6.67 0 0 Z " fill="#29231F" transform="translate(94,153)"/>
<path d="M0 0 C2.661 3.174 4.971 6.388 7 10 C6.34 10 5.68 10 5 10 C4.67 10.66 4.34 11.32 4 12 C2.68 10.68 1.36 9.36 0 8 C-1.708 9.634 -2.935 10.869 -4 13 C-4.99 11.35 -5.98 9.7 -7 8 C-6.361 8.062 -5.721 8.124 -5.062 8.188 C-4.382 8.126 -3.701 8.064 -3 8 C-2.375 6.812 -2.375 6.812 -2 5 C-1.659 4.099 -1.304 3.203 -0.938 2.312 C-0.628 1.549 -0.319 0.786 0 0 Z " fill="#2B211C" transform="translate(29,152)"/>
<path d="M0 0 C2 2 2 2 2.227 3.329 C2.222 3.575 2.222 3.575 2.195 4.82 C2.19 5.303 2.185 5.785 2.18 6.282 C2.171 6.586 2.171 6.586 2.125 8.125 C2.084 10.064 2.043 12.002 2 14 C-2.95 14.33 -7.9 14.66 -13 15 C-12.67 14.01 -12.34 13.02 -12 12 C-10.73 11.559 -10.73 11.559 -9.188 11.438 C-6.355 11.11 -4.46 10.419 -2 9 C-2 9.66 -2 10.32 -2 11 C-1.34 11.33 -0.68 11.66 0 12 C0 8.04 0 4.08 0 0 Z " fill="#B4AEA6" transform="translate(73,97)"/>
<path d="M0 0 C7.92 0 15.84 0 24 0 C23.67 0.99 23.34 1.98 23 3 C21.665 3.356 21.665 3.356 19.98 3.328 C19.37 3.323 18.76 3.318 18.131 3.312 C17.49 3.292 16.848 3.271 16.188 3.25 C15.558 3.245 14.928 3.24 14.279 3.234 C11.033 3.18 8.103 2.969 5 2 C5 2.66 5 3.32 5 4 C3.35 4 1.7 4 0 4 C0 2.68 0 1.36 0 0 Z " fill="#AFA8A2" transform="translate(84,32)"/>
<path d="M0 0 C1.375 0.188 1.375 0.188 3 1 C3.629 2.292 4.063 3.565 4.473 4.941 C4.56 5.116 4.56 5.116 5 6 C5.66 6 6.32 6 7 6 C7.633 7.242 7.633 7.242 8.125 8.875 C8.293 9.409 8.46 9.942 8.633 10.492 C9 12 9 12 9 14 C8.34 14 7.68 14 7 14 C7 13.34 7 12.68 7 12 C6.402 11.938 5.804 11.876 5.188 11.812 C3 11 3 11 2.066 9.523 C0.646 6.328 -0.427 3.555 0 0 Z " fill="#B3B2AC" transform="translate(53,152)"/>
<path d="M0 0 C0 4.62 0 9.24 0 14 C0.66 14 1.32 14 2 14 C1.742 14.796 1.468 15.587 1.188 16.375 C1.037 16.816 0.886 17.257 0.73 17.711 C-0.212 19.374 -1.371 20.045 -3 21 C-2.988 20.29 -2.977 19.579 -2.965 18.848 C-2.955 17.919 -2.946 16.991 -2.938 16.062 C-2.929 15.594 -2.921 15.125 -2.912 14.643 C-2.903 13.428 -2.948 12.213 -3 11 C-3.33 10.67 -3.66 10.34 -4 10 C-4.168 8.223 -4.168 8.223 -4.188 6.062 C-4.195 5.707 -4.195 5.707 -4.23 3.91 C-4 2 -4 2 -3.113 0.746 C-2 0 -2 0 0 0 Z " fill="#AEA8A0" transform="translate(194,120)"/>
<path d="M0 0 C1.65 0 3.3 0 5 0 C4.67 0.165 4.67 0.165 3 1 C3 1.66 3 2.32 3 3 C4.5 3.625 4.5 3.625 6 4 C5.67 4.66 5.34 5.32 5 6 C5.66 6.33 6.32 6.66 7 7 C6.34 8.32 5.68 9.64 5 11 C4.608 10.67 4.216 10.34 3.812 10 C1.321 8.626 -0.17 8.782 -3 9 C-3.33 9.165 -3.33 9.165 -5 10 C-5.191 8.59 -5.191 8.59 -5 7 C-3.652 6.191 -3.652 6.191 -1.938 5.562 C-0.27 4.828 -0.27 4.828 1 4 C0.875 1.812 0.875 1.812 0 0 Z " fill="#211916" transform="translate(135,45)"/>
<path d="M0 0 C0.33 0 0.66 0 1 0 C1.33 2.97 1.66 5.94 2 9 C-3.94 9 -9.88 9 -16 9 C-16 8.67 -16 8.34 -16 8 C-10.72 8 -5.44 8 0 8 C0 7.34 0 6.68 0 6 C-3.63 6 -7.26 6 -11 6 C-11 5.34 -11 4.68 -11 4 C-10.29 3.963 -9.579 3.925 -8.848 3.887 C-7.919 3.821 -6.991 3.755 -6.062 3.688 C-5.594 3.665 -5.125 3.642 -4.643 3.619 C-3.285 3.512 -3.285 3.512 -1 3 C-0.246 1.457 -0.246 1.457 0 0 Z " fill="#EFEEEB" transform="translate(138,197)"/>
<path d="M0 0 C2.886 3.788 2.291 7.459 1.77 12.012 C1.536 13.678 1.271 15.34 1 17 C-0.98 16.34 -2.96 15.68 -5 15 C-4.732 14.381 -4.464 13.763 -4.188 13.125 C-2.47 8.863 -1.284 4.407 0 0 Z " fill="#291F1B" transform="translate(229,113)"/>
<path d="M0 0 C1.305 0.238 1.305 0.238 2.305 1.238 C2.612 3.595 2.638 5.884 2.305 8.238 C0.805 9.676 0.805 9.676 -0.695 10.238 C-0.365 8.258 -0.035 6.278 0.305 4.238 C-0.355 4.238 -1.015 4.238 -1.695 4.238 C-1.695 4.898 -1.695 5.558 -1.695 6.238 C-2.355 6.238 -3.015 6.238 -3.695 6.238 C-3.695 5.578 -3.695 4.918 -3.695 4.238 C-4.355 4.238 -5.015 4.238 -5.695 4.238 C-6.32 5.738 -6.32 5.738 -6.695 7.238 C-7.383 5.988 -7.383 5.988 -7.695 4.238 C-5.804 0.345 -4.23 -0.2 0 0 Z " fill="#EFF0ED" transform="translate(137.6953125,93.76171875)"/>
<path d="M0 0 C0.33 0 0.66 0 1 0 C1.027 1.646 1.047 3.291 1.062 4.938 C1.071 5.406 1.079 5.875 1.088 6.357 C1.097 7.572 1.052 8.787 1 10 C0 11 0 11 -1.191 11.098 C-1.644 11.086 -2.096 11.074 -2.562 11.062 C-3.367 11.042 -4.171 11.021 -5 11 C-4.67 11.99 -4.34 12.98 -4 14 C-4.33 14.165 -4.33 14.165 -6 15 C-6 14.34 -6 13.68 -6 13 C-8 11.875 -8 11.875 -10 11 C-9.845 10.887 -9.845 10.887 -9.062 10.312 C-7.479 8.356 -7.39 6.471 -7 4 C-6.773 4.474 -6.546 4.949 -6.312 5.438 C-4.421 7.69 -2.869 7.622 0 8 C0 5.36 0 2.72 0 0 Z " fill="#251E19" transform="translate(148,54)"/>
<path d="M0 0 C2.225 0.453 4.431 0.92 6.605 1.582 C6.605 1.912 6.605 2.242 6.605 2.582 C6.429 2.587 6.429 2.587 5.536 2.61 C3.933 2.664 2.332 2.748 0.73 2.832 C0.175 2.846 -0.381 2.86 -0.953 2.875 C-2.531 2.97 -3.891 3.09 -5.395 3.582 C-6.652 5.566 -6.652 5.566 -7.395 7.582 C-7.725 7.747 -7.725 7.747 -9.395 8.582 C-9.617 7.46 -9.822 6.334 -10.02 5.207 C-10.136 4.581 -10.252 3.954 -10.371 3.309 C-10.395 1.582 -10.395 1.582 -9.578 0.371 C-6.771 -1.5 -3.141 -0.548 0 0 Z " fill="#9E9B94" transform="translate(71.39453125,120.41796875)"/>
<path d="M0 0 C0.33 0 0.66 0 1 0 C1.2 4.902 1.384 9.805 1.547 14.708 C1.623 16.985 1.704 19.262 1.799 21.538 C1.89 23.736 1.967 25.934 2.032 28.132 C2.074 29.377 2.13 30.622 2.187 31.866 C2.208 32.627 2.228 33.388 2.249 34.171 C2.273 34.84 2.298 35.508 2.323 36.197 C2 38 2 38 -1 41 C-0.67 27.47 -0.34 13.94 0 0 Z " fill="#0C0502" transform="translate(232,70)"/>
<path d="M0 0 C6.27 0 12.54 0 19 0 C19 0.33 19 0.66 19 1 C18.374 1.037 17.747 1.075 17.102 1.113 C16.284 1.179 15.467 1.245 14.625 1.312 C14.219 1.342 14.219 1.342 12.164 1.488 C9.534 2.11 9.365 2.801 8 5 C6.362 5.169 4.967 4.942 3.34 4.715 C3.119 4.762 3.119 4.762 2 5 C1.67 6.32 1.34 7.64 1 9 C0.67 6.03 0.34 3.06 0 0 Z " fill="#8F8882" transform="translate(60,63)"/>
<path d="M0 0 C0.66 0 1.32 0 2 0 C1.67 4.95 1.34 9.9 1 15 C0.34 15 -0.32 15 -1 15 C-1.33 15.66 -1.66 16.32 -2 17 C-3.417 9.113 -3.417 9.113 -2.062 6.5 C-1.712 6.005 -1.361 5.51 -1 5 C-1.66 4.67 -2.32 4.34 -3 4 C-0.852 0.875 -0.852 0.875 0 0 Z " fill="#AFAAA2" transform="translate(191,103)"/>
<path d="M0 0 C0.66 0 1.32 0 2 0 C2.074 2.936 2.129 5.871 2.165 8.807 C2.18 9.806 2.2 10.804 2.226 11.802 C2.263 13.239 2.28 14.675 2.293 16.113 C2.308 16.557 2.324 17.001 2.34 17.458 C2.341 19.929 2.097 20.884 0.482 22.805 C-0.007 23.2 -0.496 23.594 -1 24 C-2.419 16.226 -2.419 16.226 -1 13 C-0.34 13 0.32 13 1 13 C0.67 8.71 0.34 4.42 0 0 Z " fill="#120905" transform="translate(18,36)"/>
<path d="M0 0 C0.66 0 1.32 0 2 0 C2 6.27 2 12.54 2 19 C1.01 18.67 0.02 18.34 -1 18 C-1.356 16.557 -1.356 16.557 -1.328 14.727 C-1.323 14.067 -1.318 13.407 -1.312 12.727 C-1.292 12.033 -1.271 11.34 -1.25 10.625 C-1.245 9.939 -1.24 9.253 -1.234 8.547 C-1.138 2.377 -1.138 2.377 0 0 Z " fill="#150A05" transform="translate(80,89)"/>
<path d="M0 0 C0 5.61 0 11.22 0 17 C-0.33 17 -0.66 17 -1 17 C-1 12.05 -1 7.1 -1 2 C-1.33 2.165 -1.33 2.165 -3 3 C-4.633 3.256 -6.233 3.462 -7.875 3.625 C-8.309 3.677 -8.744 3.728 -9.191 3.781 C-11.983 4.066 -14.327 4.032 -17 3 C-17 2.34 -17 1.68 -17 1 C-14.354 0.833 -11.708 0.666 -9.062 0.5 C-8.308 0.452 -7.553 0.405 -6.775 0.355 C-6.416 0.333 -6.416 0.333 -4.598 0.219 C-4.265 0.198 -4.265 0.198 -2.582 0.092 C-1.722 0.042 -0.861 0 0 0 Z " fill="#969088" transform="translate(149,216)"/>
<path d="M0 0 C0 9.57 0 19.14 0 29 C-0.33 29 -0.66 29 -1 29 C-1.33 21.74 -1.66 14.48 -2 7 C-2.99 7 -3.98 7 -5 7 C-4.886 6.019 -4.758 5.041 -4.625 4.062 C-4.555 3.517 -4.486 2.972 -4.414 2.41 C-4.277 1.945 -4.141 1.479 -4 1 C-2 0 -2 0 0 0 Z " fill="#201914" transform="translate(150,177)"/>
<path d="M0 0 C1.5 0.375 1.5 0.375 3 1 C3 1.66 3 2.32 3 3 C2.34 3 1.68 3 1 3 C0 5 0 5 -0.438 7.125 C-0.623 7.744 -0.809 8.363 -1 9 C-1.66 9 -2.32 9 -3 9 C-3.33 9.66 -3.66 10.32 -4 11 C-4 10.34 -4 9.68 -4 9 C-5.5 8.375 -5.5 8.375 -7 8 C-6.171 5.445 -5.511 3.468 -3.5 1.625 C-3.005 1.419 -2.51 1.213 -2 1 C-1.34 1.33 -0.68 1.66 0 2 C0 1.34 0 0.68 0 0 Z " fill="#F0F0EC" transform="translate(196,140)"/>
<path d="M0 0 C0.454 0.062 0.907 0.124 1.375 0.188 C1.217 0.74 1.058 1.293 0.895 1.862 C0.331 4.384 0.152 6.82 0.059 9.391 C0.038 9.873 0.017 10.356 -0.004 10.853 C-0.069 12.381 -0.128 13.909 -0.188 15.438 C-0.231 16.479 -0.274 17.521 -0.318 18.562 C-0.425 21.104 -0.526 23.646 -0.625 26.188 C-0.955 26.188 -1.285 26.188 -1.625 26.188 C-1.625 20.248 -1.625 14.308 -1.625 8.188 C-2.285 8.188 -2.945 8.188 -3.625 8.188 C-3.866 3.726 -3.866 3.726 -2.812 1.375 C-1.625 0.188 -1.625 0.188 0 0 Z " fill="#95908A" transform="translate(51.625,55.8125)"/>
<path d="M0 0 C1.5 -0.375 1.5 -0.375 3 0 C3.103 0.66 3.206 1.32 3.312 2 C3.426 2.33 3.426 2.33 4 4 C6.027 4.387 7.958 4.225 10 4 C10 4.33 10 4.66 10 5 C3.4 5 -3.2 5 -10 5 C-6.978 2.985 -5.705 2.682 -2.305 2.344 C-1.874 2.23 -1.444 2.117 -1 2 C-0.67 1.34 -0.34 0.68 0 0 Z " fill="#271F18" transform="translate(143,238)"/>
<path d="M0 0 C1.32 0 2.64 0 4 0 C4.058 2.104 4.094 4.208 4.125 6.312 C4.133 6.61 4.133 6.61 4.176 8.115 C4.182 8.692 4.189 9.269 4.195 9.863 C4.206 10.392 4.216 10.921 4.227 11.466 C4 13 4 13 2 16 C1.34 10.72 0.68 5.44 0 0 Z " fill="#B6B3AB" transform="translate(47,124)"/>
<path d="M0 0 C2.553 1.277 4.709 2.397 7 4 C6.67 4.165 6.67 4.165 5 5 C4.686 6.565 4.491 7.983 4.375 9.562 C4.336 9.987 4.298 10.412 4.258 10.85 C4.163 11.899 4.081 12.949 4 14 C3.34 13.34 2.68 12.68 2 12 C1.34 12.66 0.68 13.32 0 14 C0 9.38 0 4.76 0 0 Z " fill="#B3AEA8" transform="translate(60,66)"/>
<path d="M0 0 C0.562 1.938 0.562 1.938 1 4 C0.67 4.33 0.34 4.66 0 5 C0.386 5.951 0.809 6.886 1.25 7.812 C1.852 9.434 1.852 9.434 2 11 C0.629 12.804 -1.045 13.885 -3 15 C-3.087 13.021 -3.14 11.043 -3.188 9.062 C-3.213 8.499 -3.238 7.935 -3.264 7.354 C-3.291 5.846 -3.305 4.478 -3 3 C-1.488 2.246 -1.488 2.246 0 2 C0 1.34 0 0.68 0 0 Z " fill="#ADA9A1" transform="translate(191,52)"/>
<path d="M0 0 C0.33 0.99 0.66 1.98 1 3 C-3.29 3 -7.58 3 -12 3 C-11.67 2.01 -11.34 1.02 -11 0 C-7.54 -1.533 -3.489 -1.196 0 0 Z " fill="#120805" transform="translate(133,212)"/>
<path d="M0 0 C0.33 0 0.66 0 1 0 C1.33 5.94 1.66 11.88 2 18 C2.66 18 3.32 18 4 18 C4 18.66 4 19.32 4 20 C0.565 19.824 0.565 19.824 -1 19 C-1.78 17.029 -1.929 15.107 -2 13 C-1.34 13 -0.68 13 0 13 C0 8.71 0 4.42 0 0 Z " fill="#AFABA2" transform="translate(64,124)"/>
<path d="M0 0 C0.66 0.33 1.32 0.66 2 1 C2.149 2.744 2.187 4.325 2.125 6.062 C2.116 6.535 2.107 7.007 2.098 7.494 C2.074 8.663 2.038 9.832 2 11 C1.01 10.67 0.02 10.34 -1 10 C-1 11.65 -1 13.3 -1 15 C-1.33 15 -1.66 15 -2 15 C-2.054 13.25 -2.094 11.501 -2.125 9.75 C-2.142 9.259 -2.159 8.768 -2.176 8.262 C-2.22 4.926 -1.731 2.862 0 0 Z " fill="#190F0A" transform="translate(15,118)"/>
<path d="M0 0 C1.98 0 3.96 0 6 0 C6 7.59 6 15.18 6 23 C5.67 23 5.34 23 5 23 C4.955 22.339 4.91 21.678 4.864 20.996 C4.694 18.548 4.505 16.102 4.31 13.656 C4.229 12.596 4.152 11.535 4.081 10.475 C3.978 8.952 3.856 7.431 3.73 5.91 C3.702 5.434 3.674 4.958 3.645 4.468 C3.524 3.133 3.524 3.133 3 1 C1.454 0.193 1.454 0.193 0 0 Z " fill="#96938C" transform="translate(201,45)"/>
<path d="M0 0 C0.66 0.33 1.32 0.66 2 1 C1.89 2.609 1.484 4.062 1.094 5.625 C1.063 6.079 1.032 6.532 1 7 C1.66 7.33 2.32 7.66 3 8 C2.526 9.169 2.046 10.335 1.562 11.5 C1.296 12.15 1.029 12.799 0.754 13.469 C0.505 13.974 0.256 14.479 0 15 C-0.33 15 -0.66 15 -1 15 C-1.225 12.689 -1.427 10.376 -1.625 8.062 C-1.689 7.403 -1.754 6.744 -1.82 6.064 C-1.872 5.436 -1.923 4.808 -1.977 4.16 C-2.029 3.579 -2.081 2.998 -2.135 2.399 C-2.113 2.168 -2.113 2.168 -2 1 C-1.34 0.67 -0.68 0.34 0 0 Z " fill="#0C0402" transform="translate(232,111)"/>
<path d="M0 0 C4.214 0.361 6.177 1.718 9.18 4.648 C10 6 10 6 9.633 7.664 C9.424 8.105 9.215 8.546 9 9 C8.01 8.01 7.02 7.02 6 6 C6 6.66 6 7.32 6 8 C5.34 8 4.68 8 4 8 C4 7.34 4 6.68 4 6 C2.5 5.375 2.5 5.375 1 5 C1.33 4.34 1.66 3.68 2 3 C1.34 2.67 0.68 2.34 0 2 C0 1.34 0 0.68 0 0 Z " fill="#190F0B" transform="translate(138,46)"/>
</svg>
