<?xml version="1.0" encoding="UTF-8"?>
<!-- Generator: visioncortex VTracer 0.6.12 -->
<svg version="1.1" xmlns="http://www.w3.org/2000/svg" width="255" height="255">
<path d="M0 0 C4.338 3.413 5.711 7.467 6.738 12.754 C7.024 15.207 7.048 17.533 7 20 C7.19 19.985 7.19 19.985 8.151 19.908 C16.14 19.292 24.136 18.862 32.149 18.768 C33.402 18.75 34.655 18.718 35.907 18.686 C42.644 18.647 49.697 19.611 54.875 24.312 C55.613 25.184 56.324 26.08 57 27 C57.318 27.396 57.637 27.791 57.965 28.199 C61.304 33.324 60.254 40.147 60 46 C60.315 46.013 60.315 46.013 61.906 46.078 C68.466 46.464 74.217 47.645 79.312 52.164 C83.67 57.131 84.509 62.989 84.25 69.402 C83.875 74.41 82.69 79.917 78.812 83.375 C73.29 86.99 67.554 88.553 61 88 C61.035 88.713 61.07 89.426 61.105 90.16 C61.354 97.377 60.826 103.017 55.875 108.688 C47.011 116.273 37.305 115.509 26.23 115.275 C24.058 115.233 21.885 115.215 19.713 115.195 C15.475 115.153 11.237 115.085 7 115 C7.011 115.321 7.011 115.321 7.069 116.948 C7.708 134.955 8.308 152.962 8.873 170.971 C8.955 173.588 9.039 176.205 9.123 178.822 C9.328 185.19 9.523 191.559 9.687 197.929 C9.754 200.553 9.827 203.177 9.913 205.8 C9.994 208.251 10.058 210.701 10.111 213.153 C10.133 214.035 10.16 214.918 10.193 215.8 C10.416 221.884 10.265 229.431 5.889 234.215 C2.91 236.225 -0.202 236.441 -3.711 236.398 C-3.977 236.4 -3.977 236.4 -5.321 236.407 C-6.438 236.409 -7.556 236.404 -8.674 236.391 C-10.364 236.375 -12.052 236.391 -13.742 236.41 C-25.804 236.439 -25.804 236.439 -30 233 C-33.793 228.767 -33.413 223.801 -33.356 218.459 C-33.357 217.494 -33.359 216.529 -33.363 215.564 C-33.368 212.952 -33.354 210.34 -33.337 207.728 C-33.322 204.98 -33.323 202.231 -33.322 199.483 C-33.319 194.859 -33.304 190.236 -33.281 185.612 C-33.253 179.716 -33.242 173.82 -33.238 167.924 C-33.234 162.818 -33.221 157.712 -33.207 152.605 C-33.203 150.984 -33.2 149.363 -33.197 147.741 C-33.175 136.794 -33.133 125.902 -32 115 C-32.209 115.003 -32.209 115.003 -33.268 115.02 C-37.665 115.087 -42.062 115.132 -46.459 115.165 C-48.095 115.18 -49.731 115.2 -51.367 115.226 C-73.285 115.567 -73.285 115.567 -81.559 107.793 C-86.191 102.03 -86.451 95.07 -86 88 C-86.557 88.046 -87.114 88.093 -87.688 88.141 C-94.431 88.46 -99.43 87.234 -104.574 82.574 C-109.951 76.612 -109.498 69.095 -109.127 61.453 C-108.699 56.563 -106.171 53.979 -102.688 50.75 C-97.312 46.445 -92.781 45.639 -86 46 C-86.017 45.805 -86.017 45.805 -86.105 44.82 C-86.432 38.079 -84.864 31.02 -80.75 25.562 C-76.787 21.534 -72.291 19.82 -66.657 19.774 C-65.056 19.82 -63.456 19.877 -61.855 19.945 C-60.996 19.962 -60.136 19.974 -59.277 19.984 C-55.659 20.026 -52.044 20.081 -48.429 20.243 C-36.111 20.769 -36.111 20.769 -32 19 C-29.8 16.118 -30.012 12.762 -30.154 9.292 C-30.248 5.979 -29.222 4.391 -27.044 1.968 C-20.925 -3.706 -7.161 -3.87 0 0 Z " fill="#291E18" transform="translate(140,8)"/>
<path d="M0 0 C0.227 -0.002 0.227 -0.002 1.378 -0.013 C2.906 -0.027 4.433 -0.033 5.961 -0.039 C7.055 -0.047 8.149 -0.055 9.243 -0.064 C12.839 -0.09 16.436 -0.105 20.032 -0.12 C21.271 -0.125 22.51 -0.13 23.748 -0.136 C28.902 -0.157 34.056 -0.176 39.21 -0.187 C46.592 -0.204 53.974 -0.237 61.356 -0.294 C66.548 -0.332 71.74 -0.352 76.933 -0.357 C80.033 -0.361 83.133 -0.373 86.233 -0.405 C89.152 -0.435 92.07 -0.442 94.989 -0.43 C96.057 -0.43 97.125 -0.438 98.194 -0.456 C107.231 -0.596 107.231 -0.596 111.184 2.286 C113.525 4.653 114.257 6.56 114.35 9.857 C114.336 10.44 114.323 11.024 114.308 11.625 C114.317 12.253 114.326 12.881 114.335 13.529 C114.357 15.594 114.334 17.655 114.31 19.72 C114.311 21.161 114.315 22.601 114.32 24.042 C114.324 27.056 114.307 30.069 114.275 33.082 C114.235 36.942 114.245 40.8 114.269 44.66 C114.284 47.632 114.274 50.605 114.256 53.577 C114.25 55 114.251 56.423 114.26 57.846 C114.268 59.836 114.244 61.823 114.211 63.812 C114.215 64.105 114.215 64.105 114.237 65.587 C114.154 68.479 113.76 70.416 111.691 72.518 C107.577 75.299 102.357 74.71 97.595 74.671 C96.479 74.677 95.363 74.684 94.247 74.693 C91.227 74.711 88.206 74.704 85.186 74.691 C82.02 74.681 78.854 74.69 75.688 74.697 C70.371 74.704 65.055 74.694 59.739 74.675 C53.599 74.654 47.46 74.661 41.32 74.683 C36.041 74.701 30.763 74.703 25.485 74.693 C22.335 74.687 19.186 74.686 16.036 74.699 C13.074 74.711 10.113 74.703 7.152 74.68 C6.067 74.674 4.982 74.676 3.897 74.685 C-5.29 74.753 -5.29 74.753 -8.597 72.512 C-10.652 70.425 -11.051 68.523 -11.119 65.65 C-11.113 65.362 -11.113 65.362 -11.083 63.904 C-11.09 63.287 -11.098 62.671 -11.105 62.035 C-11.122 60.002 -11.102 57.972 -11.081 55.939 C-11.082 54.522 -11.084 53.105 -11.088 51.687 C-11.091 48.719 -11.076 45.751 -11.049 42.783 C-11.015 38.985 -11.021 35.189 -11.04 31.391 C-11.05 28.465 -11.041 25.539 -11.026 22.612 C-11.021 21.212 -11.022 19.813 -11.028 18.413 C-11.033 16.452 -11.013 14.493 -10.986 12.533 C-10.992 11.959 -10.999 11.385 -11.005 10.793 C-10.916 7.024 -9.976 4.966 -7.504 2.121 C-5.136 -0.057 -3.082 0.021 0 0 Z " fill="#9F9B94" transform="translate(75.45208740234375,36.846099853515625)"/>
<path d="M0 0 C0.377 -0.002 0.377 -0.002 2.285 -0.01 C3.1 -0.008 3.915 -0.006 4.754 -0.003 C5.598 -0.004 6.443 -0.005 7.287 -0.006 C9.056 -0.008 10.824 -0.006 12.593 -0.001 C14.859 0.005 17.126 0.001 19.392 -0.005 C21.135 -0.008 22.878 -0.007 24.622 -0.004 C25.864 -0.003 27.105 -0.006 28.347 -0.01 C29.102 -0.006 29.856 -0.003 30.633 0 C30.965 0 30.965 0 32.647 0.002 C34.316 0.129 34.316 0.129 36.316 1.129 C36.523 2.789 36.596 4.28 36.582 5.942 C36.583 6.186 36.583 6.186 36.588 7.42 C36.589 8.459 36.585 9.498 36.577 10.537 C36.567 12.096 36.577 13.653 36.59 15.211 C36.599 21.241 36.482 27.421 34.316 33.129 C32.208 34.184 31.219 34.265 28.908 34.291 C28.214 34.3 27.52 34.31 26.805 34.32 C26.43 34.322 26.43 34.322 24.535 34.333 C23.766 34.338 22.997 34.344 22.204 34.35 C20.577 34.359 18.949 34.366 17.322 34.37 C15.651 34.374 13.981 34.388 12.311 34.411 C9.906 34.441 7.502 34.452 5.098 34.458 C4.723 34.464 4.723 34.464 2.828 34.495 C2.481 34.493 2.481 34.493 0.725 34.486 C0.419 34.488 0.419 34.488 -1.128 34.497 C-2.684 34.129 -2.684 34.129 -3.858 32.784 C-5.916 28.66 -5.841 23.858 -5.852 19.329 C-5.855 18.807 -5.858 18.285 -5.862 17.747 C-5.867 16.657 -5.869 15.568 -5.869 14.478 C-5.871 12.803 -5.889 11.13 -5.908 9.456 C-5.911 8.392 -5.913 7.329 -5.914 6.266 C-5.921 5.765 -5.928 5.264 -5.936 4.748 C-5.927 3.351 -5.927 3.351 -5.684 1.129 C-3.497 0.036 -2.411 0.003 0 0 Z " fill="#F9FAF9" transform="translate(111.68359375,56.87060546875)"/>
<path d="M0 0 C2.091 -0.002 4.181 -0.02 6.272 -0.039 C7.62 -0.042 8.967 -0.044 10.315 -0.045 C10.931 -0.052 11.546 -0.06 12.181 -0.067 C16.953 -0.042 21.325 0.595 25.143 3.623 C27.323 6.492 27.465 9.068 27.499 12.615 C27.503 13.042 27.507 13.469 27.512 13.909 C27.521 15.293 27.522 16.676 27.518 18.06 C27.517 18.531 27.516 19.002 27.515 19.487 C27.421 41.289 27.421 41.289 21.549 47.232 C14.891 52.439 0.542 50.332 -7.682 50.416 C-8.751 50.429 -9.82 50.446 -10.889 50.469 C-21.41 50.677 -21.41 50.677 -24.849 48.019 C-31.554 41.202 -30.865 26.462 -30.982 17.685 C-31 16.92 -31.017 16.154 -31.035 15.366 C-31.03 10.997 -30.786 7.458 -27.669 4.185 C-24.879 1.772 -23.166 0.796 -19.404 0.51 C-19.193 0.493 -19.193 0.493 -18.125 0.41 C-12.096 -0.001 -6.04 -0.001 0 0 Z M-22.669 9.185 C-22.875 10.927 -22.949 12.508 -22.935 14.252 C-22.937 14.764 -22.939 15.276 -22.941 15.804 C-22.942 16.895 -22.939 17.985 -22.93 19.075 C-22.92 20.717 -22.93 22.358 -22.943 24 C-22.951 29.936 -22.772 35.551 -20.669 41.185 C-19.264 42.59 -18.36 42.324 -16.391 42.346 C-16.045 42.351 -16.045 42.351 -14.297 42.376 C-13.546 42.38 -12.795 42.384 -12.021 42.388 C-11.253 42.394 -10.484 42.4 -9.693 42.406 C-8.064 42.415 -6.434 42.422 -4.805 42.426 C-3.135 42.43 -1.465 42.444 0.206 42.467 C2.609 42.497 5.013 42.508 7.417 42.513 C8.163 42.526 8.91 42.538 9.68 42.551 C14.829 42.529 14.829 42.529 17.283 40.849 C20.542 35.674 19.517 27.84 19.516 21.885 C19.518 20.292 19.536 18.7 19.555 17.107 C19.558 16.094 19.56 15.081 19.561 14.068 C19.568 13.592 19.575 13.116 19.583 12.626 C19.573 11.299 19.573 11.299 19.331 9.185 C17.144 8.092 16.058 8.059 13.647 8.056 C12.893 8.053 12.139 8.05 11.362 8.046 C10.954 8.047 10.954 8.047 8.893 8.052 C8.049 8.052 7.204 8.051 6.36 8.05 C4.591 8.048 2.823 8.05 1.054 8.055 C-1.212 8.061 -3.479 8.057 -5.745 8.051 C-7.488 8.048 -9.231 8.049 -10.975 8.051 C-12.217 8.052 -13.459 8.049 -14.7 8.046 C-15.078 8.048 -15.078 8.048 -16.986 8.056 C-17.65 8.057 -18.315 8.057 -19 8.058 C-20.669 8.185 -20.669 8.185 -22.669 9.185 Z " fill="#2F251E" transform="translate(128.66943359375,48.814697265625)"/>
<path d="M0 0 C3.456 1.727 6.284 4.568 8 8 C8.522 11.985 8.41 15.586 6.035 18.934 C2.945 22.117 -0.645 23.188 -5 23.438 C-9.146 23.279 -12.012 21.845 -15 19 C-17.561 15.939 -17.406 13.081 -17.324 9.223 C-16.745 5.248 -14.644 3.346 -11.66 0.902 C-8.265 -0.943 -3.727 -0.91 0 0 Z " fill="#2E241E" transform="translate(132,62)"/>
<path d="M0 0 C6.6 0 13.2 0 20 0 C20.021 3.279 20.041 6.559 20.062 9.938 C20.072 10.973 20.081 12.008 20.09 13.074 C20.093 13.884 20.095 14.693 20.098 15.527 C20.103 15.954 20.108 16.381 20.113 16.82 C20.113 17.881 20.062 18.941 20 20 C19 21 19 21 17.142 21.114 C16.352 21.108 15.561 21.103 14.746 21.098 C13.977 21.095 13.208 21.093 12.416 21.09 C11.433 21.081 10.45 21.072 9.438 21.062 C7.88 21.052 7.88 21.052 0 21 C0 14.07 0 7.14 0 0 Z " fill="#9B9891" transform="translate(118,212)"/>
<path d="M0 0 C0 7.26 0 14.52 0 22 C-9 22 -9 22 -11.527 20.406 C-13.624 17.698 -13.626 14.809 -13.562 11.5 C-13.586 10.932 -13.61 10.363 -13.635 9.777 C-13.626 7.306 -13.565 5.658 -11.917 3.738 C-7.77 0.358 -5.763 0 0 0 Z " fill="#99958E" transform="translate(55,63)"/>
<path d="M0 0 C8.67 0 8.67 0 12 3 C13.896 6.792 13.705 11.843 13 16 C11.697 18.863 10.846 19.281 8 21 C5.36 21 2.72 21 0 21 C0 14.07 0 7.14 0 0 Z " fill="#9D9992" transform="translate(200,64)"/>
<path d="M0 0 C-5.346 2.824 -9.786 3.413 -15.777 3.293 C-16.589 3.289 -17.4 3.284 -18.236 3.28 C-20.368 3.269 -22.5 3.239 -24.632 3.206 C-26.818 3.175 -29.004 3.162 -31.189 3.146 C-35.46 3.115 -39.73 3.063 -44 3 C-43.977 3.643 -43.954 4.286 -43.931 4.948 C-43.292 22.955 -42.692 40.962 -42.127 58.971 C-42.045 61.588 -41.961 64.205 -41.877 66.822 C-41.672 73.19 -41.477 79.559 -41.313 85.929 C-41.246 88.553 -41.173 91.177 -41.087 93.8 C-41.006 96.251 -40.942 98.701 -40.889 101.153 C-40.867 102.035 -40.84 102.918 -40.807 103.8 C-40.583 109.889 -40.738 117.423 -45.109 122.216 C-48.112 124.248 -51.246 124.428 -54.781 124.363 C-55.317 124.364 -55.853 124.364 -56.405 124.365 C-57.532 124.362 -58.658 124.353 -59.784 124.336 C-61.496 124.313 -63.206 124.316 -64.918 124.322 C-66.018 124.317 -67.119 124.31 -68.219 124.301 C-68.724 124.302 -69.229 124.303 -69.75 124.304 C-73.254 124.235 -75.813 123.462 -79 122 C-76.686 120.843 -75.796 121.172 -73.36 121.727 C-71.205 122.16 -69.068 122.201 -66.875 122.238 C-66.64 122.242 -66.64 122.242 -65.453 122.263 C-64.468 122.276 -63.483 122.287 -62.498 122.295 C-61.499 122.307 -60.5 122.327 -59.502 122.357 C-50.139 122.632 -50.139 122.632 -46.875 120.105 C-45.159 118.428 -44.071 116.884 -43.873 114.423 C-43.872 113.796 -43.871 113.17 -43.871 112.524 C-43.867 111.804 -43.864 111.083 -43.861 110.341 C-43.863 109.55 -43.865 108.76 -43.867 107.945 C-43.866 107.105 -43.865 106.264 -43.863 105.424 C-43.86 103.137 -43.865 100.849 -43.871 98.562 C-43.875 97.122 -43.877 95.683 -43.878 94.243 C-43.892 78.101 -44.192 61.972 -44.607 45.836 C-44.981 31.222 -45.13 16.619 -45 2 C-44.55 1.992 -44.1 1.984 -43.636 1.975 C-39.37 1.897 -35.104 1.81 -30.838 1.712 C-28.646 1.663 -26.453 1.616 -24.261 1.578 C-21.733 1.534 -19.207 1.474 -16.68 1.414 C-15.901 1.403 -15.123 1.391 -14.321 1.379 C-10.289 1.271 -6.934 0.911 -3.203 -0.675 C-2 -1 -2 -1 0 0 Z " fill="#63625E" transform="translate(191,120)"/>
<path d="M0 0 C5.94 0 11.88 0 18 0 C18 4.29 18 8.58 18 13 C12.06 13 6.12 13 0 13 C0 8.71 0 4.42 0 0 Z " fill="#F9F9F8" transform="translate(118,122)"/>
<path d="M0 0 C0.563 0.003 1.127 0.006 1.707 0.009 C2.323 0.01 2.939 0.01 3.574 0.011 C3.895 0.019 3.895 0.019 5.52 0.06 C5.841 0.058 5.841 0.058 7.465 0.05 C12.153 0.104 12.153 0.104 13.707 1.242 C15.062 3.126 14.725 5.273 14.645 7.497 C14.603 9.106 14.562 10.715 14.52 12.372 C8.58 12.372 2.64 12.372 -3.48 12.372 C-3.48 0.875 -3.48 0.875 0 0 Z " fill="#97938B" transform="translate(121.48046875,15.627685546875)"/>
<path d="M0 0 C6.27 0 12.54 0 19 0 C19 3.3 19 6.6 19 10 C12.73 10 6.46 10 0 10 C0 6.7 0 3.4 0 0 Z " fill="#FCFCFC" transform="translate(118,194)"/>
<path d="M0 0 C6.27 0 12.54 0 19 0 C19 2.97 19 5.94 19 9 C12.73 9 6.46 9 0 9 C0 6.03 0 3.06 0 0 Z " fill="#F8F8F7" transform="translate(118,177)"/>
<path d="M0 0 C5.94 0 11.88 0 18 0 C18 2.97 18 5.94 18 9 C12.06 9 6.12 9 0 9 C0 6.03 0 3.06 0 0 Z " fill="#F9F9F8" transform="translate(118,160)"/>
<path d="M0 0 C5.94 0 11.88 0 18 0 C18 2.97 18 5.94 18 9 C12.06 9 6.12 9 0 9 C0 6.03 0 3.06 0 0 Z " fill="#F8F8F8" transform="translate(118,143)"/>
<path d="M0 0 C0.33 0 0.66 0 1 0 C3.871 23.17 3.871 23.17 -1 31 C-4.401 33.793 -7.478 34.442 -11.781 34.363 C-12.317 34.364 -12.853 34.364 -13.405 34.365 C-14.532 34.362 -15.658 34.353 -16.784 34.336 C-18.496 34.313 -20.206 34.316 -21.918 34.322 C-23.018 34.317 -24.119 34.31 -25.219 34.301 C-25.724 34.302 -26.229 34.303 -26.75 34.304 C-30.254 34.235 -32.813 33.462 -36 32 C-33.686 30.843 -32.796 31.172 -30.36 31.727 C-28.205 32.16 -26.068 32.201 -23.875 32.238 C-23.406 32.246 -22.936 32.254 -22.453 32.263 C-21.468 32.276 -20.483 32.287 -19.498 32.295 C-18.499 32.307 -17.5 32.327 -16.502 32.357 C-7.139 32.632 -7.139 32.632 -3.875 30.105 C-1.829 28.106 -0.892 26.248 -0.795 23.386 C-0.775 22.866 -0.755 22.345 -0.734 21.809 C-0.726 21.53 -0.726 21.53 -0.684 20.117 C-0.663 19.543 -0.642 18.969 -0.621 18.377 C-0.555 16.543 -0.496 14.709 -0.438 12.875 C-0.394 11.631 -0.351 10.388 -0.307 9.145 C-0.2 6.097 -0.098 3.048 0 0 Z " fill="#4E4D49" transform="translate(148,210)"/>
<path d="M0 0 C1.938 0.688 1.938 0.688 3 2 C3.047 4.343 2.555 6.267 1.137 8.141 C-0.32 9.242 -1.189 9.268 -3 9.25 C-3.258 9.253 -3.258 9.253 -4.562 9.266 C-6.35 8.935 -6.939 8.462 -8 7 C-8.266 5.781 -8.266 5.781 -8.25 4.5 C-8.255 4.077 -8.26 3.654 -8.266 3.219 C-7.356 -0.954 -3.405 -0.426 0 0 Z " fill="#EFF0EE" transform="translate(130,69)"/>
</svg>
