<?xml version="1.0" encoding="UTF-8"?>
<!-- Generator: visioncortex VTracer 0.6.12 -->
<svg version="1.1" xmlns="http://www.w3.org/2000/svg" width="262" height="262">
<path d="M0 0 C4.525 3.38 7.003 8.269 7.812 13.807 C7.938 14.853 8.058 15.901 8.172 16.949 C8.316 18.152 8.46 19.354 8.604 20.557 C8.678 21.193 8.752 21.829 8.828 22.484 C10.28 34.864 12.045 47.181 14.062 59.48 C14.185 60.229 14.308 60.977 14.434 61.747 C15.38 67.494 16.344 73.238 17.312 78.98 C17.476 79.953 17.64 80.925 17.804 81.898 C19.363 91.151 20.932 100.404 22.509 109.654 C22.549 109.892 22.549 109.892 22.755 111.098 C23.153 113.431 23.554 115.764 23.961 118.096 C24.707 122.37 25.42 126.642 26.042 130.936 C26.16 131.709 26.278 132.481 26.4 133.278 C26.616 134.697 26.818 136.118 27.001 137.542 C27.846 142.915 30.259 146.552 34.522 149.942 C34.704 150.072 34.704 150.072 35.625 150.73 C36.182 151.143 36.739 151.555 37.312 151.98 C37.312 152.64 37.312 153.3 37.312 153.98 C37.972 153.98 38.632 153.98 39.312 153.98 C40.443 155.293 41.443 156.572 42.438 157.98 C42.715 158.362 42.992 158.744 43.277 159.137 C43.962 160.08 44.638 161.03 45.312 161.98 C45.298 154.765 45.256 147.55 45.18 140.335 C45.146 136.984 45.121 133.634 45.117 130.283 C45.113 127.048 45.084 123.813 45.039 120.577 C45.026 119.345 45.022 118.112 45.026 116.88 C45.054 107.203 45.054 107.203 43.199 104.145 C41.967 102.911 40.747 101.962 39.312 100.98 C34.578 94.631 34.48 87.603 34.312 79.98 C34.297 79.405 34.282 78.83 34.267 78.237 C34.19 74.935 34.189 71.644 34.28 68.343 C34.307 67.193 34.304 66.041 34.293 64.891 C34.508 60.367 36.741 57.196 39.859 54.09 C51.484 43.574 68.802 36.696 84.312 34.98 C84.603 34.948 84.603 34.948 86.072 34.782 C95.486 33.795 104.073 33.965 113.312 35.98 C113.92 36.106 114.528 36.231 115.154 36.359 C128.617 39.175 144.911 43.409 155.312 52.98 C155.312 53.64 155.312 54.3 155.312 54.98 C155.972 54.98 156.632 54.98 157.312 54.98 C160.661 58.317 161.776 61.866 161.868 66.486 C161.86 67.152 161.852 67.818 161.844 68.504 C161.848 69.209 161.851 69.914 161.855 70.64 C161.858 72.124 161.851 73.609 161.834 75.093 C161.813 77.343 161.834 79.59 161.859 81.84 C161.892 96.028 161.892 96.028 157.312 101.98 C156.281 102.843 155.242 103.697 154.196 104.543 C151.607 107.107 150.763 109.149 150.679 112.738 C150.679 114.602 150.753 116.458 150.832 118.32 C150.851 119.33 150.867 120.339 150.879 121.348 C150.919 124.002 150.992 126.653 151.075 129.306 C151.22 134.018 151.321 138.731 151.395 143.445 C151.403 143.95 151.412 144.455 151.42 144.975 C151.652 161.227 148.736 174.345 137.219 186.234 C129.572 193.716 120.272 199.192 110.312 202.98 C109.69 203.225 109.067 203.47 108.426 203.723 C96.835 207.667 86.167 203.462 75.732 198.396 C66.671 193.78 55.501 186.77 51.312 176.98 C51.312 176.32 51.312 175.66 51.312 174.98 C50.653 174.98 49.993 174.98 49.312 174.98 C49.209 175.723 49.106 176.465 49 177.23 C48.504 180.235 47.154 181.296 44.786 183.075 C37.878 187.318 28.137 187.168 20.328 187.059 C19.552 187.053 18.776 187.047 17.977 187.042 C16.089 187.027 14.201 187.007 12.312 186.98 C12.321 187.468 12.33 187.956 12.339 188.459 C12.42 193.078 12.481 197.696 12.52 202.316 C12.541 204.69 12.569 207.064 12.614 209.438 C12.658 211.733 12.682 214.028 12.692 216.324 C12.699 217.195 12.714 218.067 12.735 218.938 C12.858 224.078 12.532 227.661 9.433 231.861 C6.196 235.095 2.131 235.089 -2.219 235.098 C-3.456 235.047 -4.692 234.995 -5.928 234.924 C-7.185 234.856 -8.441 234.819 -9.699 234.785 C-14.111 234.561 -17.874 234.18 -21.427 231.394 C-26.426 225.79 -27.463 218.265 -28.271 211.079 C-28.437 209.611 -28.625 208.148 -28.816 206.684 C-29.641 200.095 -29.833 193.615 -29.688 186.98 C-29.995 186.986 -29.995 186.986 -31.548 187.012 C-33.878 187.049 -36.208 187.072 -38.538 187.09 C-39.536 187.1 -40.535 187.114 -41.534 187.131 C-58.297 187.418 -58.297 187.418 -63.43 183.728 C-66.633 180.55 -67.693 176.769 -67.945 172.34 C-66.833 162.157 -56.756 153.623 -49.387 147.426 C-49.106 147.187 -49.106 147.187 -47.688 145.98 C-47.337 145.702 -46.987 145.424 -46.627 145.138 C-45.296 143.498 -45.229 142.107 -44.959 140.022 C-44.932 139.823 -44.932 139.823 -44.795 138.814 C-44.678 137.946 -44.565 137.077 -44.455 136.208 C-44.278 134.805 -44.091 133.404 -43.901 132.004 C-43.7 130.52 -43.5 129.036 -43.303 127.551 C-42.647 122.621 -41.924 117.702 -41.188 112.784 C-40.967 111.305 -40.747 109.825 -40.527 108.346 C-40.23 106.35 -39.933 104.355 -39.635 102.359 C-39.336 100.353 -39.038 98.347 -38.74 96.341 C-36.017 78.004 -33.2 59.688 -30.062 41.417 C-29.685 39.216 -29.311 37.014 -28.938 34.812 C-28.327 31.229 -27.698 27.65 -27.058 24.072 C-26.81 22.671 -26.567 21.269 -26.329 19.866 C-25.983 17.834 -25.618 15.806 -25.25 13.777 C-25.152 13.179 -25.054 12.58 -24.953 11.963 C-24.042 7.123 -22.055 2.773 -18.047 -0.262 C-11.954 -2.658 -5.861 -3.392 0 0 Z " fill="#211814" transform="translate(86.6875,22.01953125)"/>
<path d="M0 0 C0.236 -0 0.236 -0 1.431 -0.002 C18.483 0.067 37.906 5.898 51.5 16.438 C52.041 16.85 52.582 17.263 53.139 17.689 C55.089 20.194 54.985 22.291 55.004 25.391 C55.014 25.969 55.024 26.548 55.034 27.143 C55.049 28.367 55.056 29.591 55.056 30.815 C55.062 32.669 55.117 34.518 55.174 36.371 C55.316 46.294 55.316 46.294 51.715 50.609 C50.027 52.249 48.452 53.466 46.426 54.671 C45.189 55.606 44.595 56.133 44.13 57.623 C43.988 59.107 43.974 60.545 44.002 62.035 C43.996 62.595 43.991 63.155 43.985 63.732 C43.976 64.946 43.976 66.161 43.984 67.376 C43.996 69.307 43.985 71.237 43.968 73.169 C43.941 76.583 43.935 79.997 43.937 83.411 C43.939 88.85 43.924 94.288 43.881 99.727 C43.871 101.613 43.88 103.499 43.89 105.386 C43.873 114.498 43.241 123.818 36.438 130.625 C36.242 130.83 36.242 130.83 35.254 131.868 C28.434 138.793 20.272 143.431 11.5 147.438 C11.157 147.598 11.157 147.598 9.422 148.41 C4.55 150.611 4.55 150.611 1.5 150.438 C1.5 149.778 1.5 149.118 1.5 148.438 C0.99 148.435 0.479 148.432 -0.047 148.43 C-7.334 148.042 -13.344 145.252 -19.5 141.438 C-20.179 141.037 -20.858 140.636 -21.557 140.222 C-22.775 139.294 -23.399 138.752 -23.872 137.284 C-24.014 135.844 -24.028 134.45 -24.001 133.003 C-24.007 132.455 -24.012 131.906 -24.018 131.341 C-24.032 129.503 -24.017 127.666 -24.002 125.828 C-24.005 124.51 -24.011 123.193 -24.018 121.876 C-24.032 118.297 -24.021 114.719 -24.004 111.141 C-23.991 107.399 -23.997 103.658 -24.001 99.917 C-24.003 93.634 -23.99 87.352 -23.967 81.07 C-23.94 73.801 -23.938 66.532 -23.95 59.262 C-23.961 52.276 -23.955 45.289 -23.94 38.303 C-23.935 35.326 -23.935 32.35 -23.939 29.374 C-23.944 25.871 -23.934 22.369 -23.912 18.867 C-23.907 17.579 -23.906 16.291 -23.911 15.004 C-23.917 13.25 -23.905 11.498 -23.888 9.745 C-23.894 9.231 -23.9 8.718 -23.906 8.189 C-23.88 6.768 -23.88 6.768 -23.5 4.438 C-18.143 -0.538 -6.978 -0.005 0 0 Z " fill="#FBFCF9" transform="translate(182.5,66.5625)"/>
<path d="M0 0 C4.525 3.38 7.003 8.269 7.812 13.807 C7.938 14.853 8.058 15.901 8.172 16.949 C8.316 18.152 8.46 19.354 8.604 20.557 C8.678 21.193 8.752 21.829 8.828 22.484 C10.28 34.864 12.045 47.181 14.062 59.48 C14.185 60.229 14.308 60.977 14.434 61.747 C15.38 67.494 16.344 73.238 17.312 78.98 C17.476 79.953 17.64 80.925 17.804 81.898 C19.363 91.151 20.932 100.404 22.509 109.654 C22.59 110.131 22.671 110.607 22.755 111.098 C23.153 113.43 23.553 115.761 23.957 118.092 C24.113 118.989 24.268 119.886 24.423 120.783 C24.461 121.001 24.461 121.001 24.652 122.103 C25.092 124.659 25.514 127.217 25.918 129.779 C26.107 130.978 26.303 132.177 26.498 133.376 C26.733 134.821 26.96 136.269 27.176 137.718 C27.837 141.699 28.754 143.887 31.312 146.98 C31 149.23 31 149.23 30.312 150.98 C30.972 150.98 31.632 150.98 32.312 150.98 C32.001 151.773 31.688 152.564 31.375 153.355 C31.201 153.796 31.027 154.237 30.848 154.691 C30.384 155.809 29.854 156.898 29.312 157.98 C29.972 157.98 30.632 157.98 31.312 157.98 C31.312 159.63 31.312 161.28 31.312 162.98 C27.833 160.255 24.767 157.593 22.172 153.996 C20.637 152.182 19.272 151.977 16.958 151.773 C15.961 151.73 14.964 151.693 13.968 151.661 C13.422 151.64 12.877 151.619 12.316 151.597 C7.257 151.413 2.196 151.308 -2.865 151.225 C-6.258 151.168 -9.646 151.088 -13.036 150.945 C-37.953 149.922 -37.953 149.922 -45.118 156.352 C-47.619 159.059 -49.689 161.891 -51.688 164.98 C-52.618 166.295 -53.555 167.605 -54.497 168.911 C-55.228 169.934 -55.958 170.957 -56.688 171.98 C-52.662 173.501 -48.975 174.339 -44.685 174.586 C-44.126 174.623 -43.567 174.66 -42.991 174.699 C-36.576 175.098 -30.156 175.208 -23.73 175.297 C-22.449 175.318 -21.167 175.339 -19.885 175.36 C-16.56 175.414 -13.234 175.464 -9.908 175.513 C-6.495 175.564 -3.083 175.619 0.33 175.674 C6.991 175.78 13.652 175.882 20.312 175.98 C19.858 176.808 19.394 177.63 18.927 178.45 C18.669 178.908 18.412 179.367 18.147 179.839 C17.313 180.98 17.313 180.98 15.488 181.469 C14.873 181.411 14.259 181.353 13.625 181.293 C13.002 181.248 12.38 181.203 11.738 181.156 C11.268 181.098 10.797 181.04 10.312 180.98 C10.498 181.434 10.684 181.888 10.875 182.355 C11.312 183.98 11.312 183.98 10.312 185.98 C10.239 187.288 10.226 188.599 10.247 189.908 C10.256 190.716 10.266 191.523 10.276 192.356 C10.284 192.787 10.291 193.218 10.298 193.663 C10.321 195.017 10.335 196.37 10.346 197.724 C10.38 201.574 10.421 205.423 10.484 209.271 C10.522 211.627 10.545 213.983 10.558 216.339 C10.566 217.235 10.58 218.13 10.599 219.026 C10.766 226.906 10.766 226.906 8.894 229.538 C7.313 230.98 7.313 230.98 5.75 231.355 C3.988 230.896 3.48 230.367 2.312 228.98 C1.838 228.506 1.364 228.032 0.875 227.543 C-0.646 226.022 -2.167 224.501 -3.688 222.98 C-2.698 222.98 -1.707 222.98 -0.688 222.98 C-0.688 210.11 -0.688 197.24 -0.688 183.98 C-3.657 183.98 -6.627 183.98 -9.688 183.98 C-11.56 183.847 -13.391 183.701 -15.25 183.48 C-15.686 183.433 -16.123 183.385 -16.572 183.336 C-17.611 183.222 -18.649 183.102 -19.688 182.98 C-19.688 182.32 -19.688 181.66 -19.688 180.98 C-23.977 181.31 -28.267 181.64 -32.688 181.98 C-32.688 182.64 -32.688 183.3 -32.688 183.98 C-31.187 184.605 -31.187 184.605 -29.688 184.98 C-33.12 185.03 -36.552 185.066 -39.984 185.09 C-41.149 185.1 -42.314 185.114 -43.478 185.131 C-55.766 185.311 -55.766 185.311 -61.688 182.98 C-62.451 182.712 -63.214 182.444 -64 182.168 C-66.409 180.473 -67.197 178.794 -67.688 175.98 C-68.432 170.317 -66.777 166.654 -63.542 162.163 C-58.813 156.003 -53.542 150.654 -47.56 145.714 C-45.484 143.969 -45.422 142.818 -45.057 140.12 C-45.001 139.72 -44.945 139.32 -44.888 138.908 C-44.767 138.033 -44.648 137.158 -44.53 136.283 C-44.275 134.384 -44.011 132.487 -43.746 130.589 C-43.607 129.585 -43.468 128.581 -43.329 127.577 C-42.578 122.151 -41.776 116.734 -40.969 111.316 C-40.822 110.326 -40.674 109.336 -40.527 108.346 C-40.23 106.351 -39.933 104.355 -39.635 102.359 C-39.336 100.353 -39.038 98.347 -38.74 96.341 C-36.017 78.004 -33.2 59.688 -30.062 41.417 C-29.685 39.216 -29.311 37.014 -28.938 34.812 C-28.327 31.229 -27.698 27.65 -27.058 24.072 C-26.81 22.671 -26.567 21.269 -26.329 19.866 C-25.983 17.834 -25.618 15.806 -25.25 13.777 C-25.152 13.179 -25.054 12.58 -24.953 11.963 C-24.042 7.123 -22.055 2.773 -18.047 -0.262 C-11.954 -2.658 -5.861 -3.392 0 0 Z " fill="#1D140E" transform="translate(86.6875,22.01953125)"/>
<path d="M0 0 C0 0.66 0 1.32 0 2 C0.66 2 1.32 2 2 2 C5.348 5.337 6.464 8.886 6.556 13.506 C6.548 14.172 6.54 14.837 6.531 15.523 C6.533 15.876 6.533 15.876 6.543 17.66 C6.546 19.144 6.538 20.628 6.521 22.112 C6.5 24.362 6.521 26.609 6.547 28.859 C6.58 43.047 6.58 43.047 2 49 C0.968 49.863 -0.071 50.717 -1.116 51.562 C-3.705 54.126 -4.55 56.168 -4.634 59.758 C-4.634 61.622 -4.56 63.478 -4.48 65.34 C-4.462 66.349 -4.446 67.358 -4.433 68.368 C-4.393 71.021 -4.32 73.673 -4.237 76.325 C-4.092 81.037 -3.992 85.751 -3.918 90.465 C-3.914 90.717 -3.914 90.717 -3.892 91.994 C-3.661 108.247 -6.576 121.364 -18.094 133.254 C-25.741 140.735 -35.041 146.211 -45 150 C-45.623 150.245 -46.245 150.49 -46.887 150.742 C-57.812 154.46 -67.858 150.965 -77.781 146.234 C-83.736 143.271 -89.431 140.088 -94.5 135.75 C-94.88 135.433 -95.26 135.116 -95.651 134.79 C-96.656 133.859 -96.656 133.859 -98 132 C-97.719 129.766 -97.719 129.766 -97 128 C-98.32 127.67 -99.64 127.34 -101 127 C-99.859 124.719 -99.287 124.452 -97.062 123.375 C-96.538 123.115 -96.013 122.854 -95.473 122.586 C-94 122 -94 122 -92 122 C-92 122.66 -92 123.32 -92 124 C-91.34 124 -90.68 124 -90 124 C-90 82.75 -90 41.5 -90 -1 C-104 6 -104 6 -110 11 C-110.605 13.246 -110.803 14.489 -110.734 16.711 C-110.739 16.977 -110.739 16.977 -110.762 18.321 C-110.785 20.007 -110.77 21.689 -110.75 23.375 C-110.752 25.591 -110.77 27.807 -110.797 30.023 C-110.801 30.55 -110.805 31.076 -110.809 31.619 C-110.884 35.637 -111.518 39.24 -113 43 C-113.33 42.34 -113.66 41.68 -114 41 C-114.516 40.835 -115.031 40.67 -115.562 40.5 C-116.037 40.335 -116.511 40.17 -117 40 C-117 39.34 -117 38.68 -117 38 C-117.481 37.881 -117.962 37.763 -118.457 37.641 C-118.966 37.429 -119.475 37.218 -120 37 C-120.512 35.172 -120.512 35.172 -120.688 32.75 C-120.72 32.313 -120.753 31.876 -120.787 31.427 C-121.138 26.095 -121.174 20.75 -121.033 15.411 C-121.006 14.241 -121.009 13.069 -121.02 11.898 C-120.803 7.381 -118.567 4.211 -115.453 1.109 C-103.646 -9.571 -86.647 -15.928 -71 -18 C-70.592 -18.06 -70.184 -18.121 -69.763 -18.183 C-48.178 -21.289 -16.55 -15.229 0 0 Z M-83 -4 C-83.121 -2.268 -83.179 -0.574 -83.194 1.16 C-83.203 1.703 -83.212 2.247 -83.22 2.806 C-83.248 4.638 -83.268 6.471 -83.288 8.303 C-83.306 9.612 -83.324 10.921 -83.342 12.23 C-83.501 24.197 -83.585 36.166 -83.652 48.134 C-83.702 56.981 -83.788 65.827 -83.921 74.674 C-84.011 80.893 -84.059 87.112 -84.076 93.332 C-84.087 97.047 -84.117 100.76 -84.194 104.474 C-84.265 107.973 -84.283 111.469 -84.262 114.969 C-84.264 116.25 -84.284 117.531 -84.325 118.811 C-84.608 128.197 -84.608 128.197 -81.929 131.201 C-78.924 133.703 -75.558 135.422 -72 137 C-71.587 137.191 -71.175 137.382 -70.749 137.579 C-66.477 139.543 -62.705 140.481 -58 140 C-58 140.66 -58 141.32 -58 142 C-54.365 141.389 -51.272 140.43 -47.938 138.875 C-47.468 138.656 -46.998 138.437 -46.514 138.212 C-35.364 132.904 -22.451 126.374 -18 114 C-17.823 113.556 -17.645 113.113 -17.462 112.656 C-15.513 107.047 -15.794 101.433 -15.878 95.578 C-15.911 92.992 -15.908 90.406 -15.908 87.82 C-15.908 83.022 -15.923 78.224 -15.996 73.427 C-16.046 70.072 -16.051 66.72 -16.028 63.365 C-16.028 62.096 -16.043 60.827 -16.076 59.558 C-16.332 49.132 -16.332 49.132 -12.963 45.459 C-11.083 43.693 -9.08 42.16 -6.923 40.748 C-5.585 39.664 -5.063 38.464 -4.833 36.775 C-4.823 36.546 -4.823 36.546 -4.775 35.39 C-4.753 34.869 -4.73 34.348 -4.707 33.811 C-4.636 31.422 -4.579 29.033 -4.54 26.643 C-4.513 25.388 -4.473 24.133 -4.417 22.878 C-3.967 12.592 -3.967 12.592 -6.343 8.93 C-8.143 7.316 -9.879 6.155 -12 5 C-12.292 4.83 -12.292 4.83 -13.772 3.967 C-15.527 3.013 -17.299 2.182 -19.125 1.375 C-19.77 1.082 -20.416 0.789 -21.08 0.488 C-26.71 -2.003 -32.456 -3.997 -38.405 -5.574 C-39.535 -5.876 -40.659 -6.199 -41.779 -6.537 C-47.476 -8.158 -52.875 -8.354 -58.75 -8.312 C-58.991 -8.312 -58.991 -8.312 -60.21 -8.311 C-78.747 -8.253 -78.747 -8.253 -83 -4 Z " fill="#1C140F" transform="translate(242,75)"/>
<path d="M0 0 C0.253 0.003 0.253 0.003 1.535 0.02 C2.938 0.188 2.938 0.188 4.938 1.188 C5.392 2.696 5.392 2.696 5.684 4.668 C5.797 5.407 5.91 6.147 6.027 6.909 C6.142 7.723 6.257 8.536 6.375 9.375 C6.503 10.239 6.633 11.103 6.762 11.966 C7.737 18.523 8.611 25.093 9.494 31.662 C12.731 55.692 16.621 79.598 20.867 103.467 C22.158 110.724 23.427 117.984 24.648 125.254 C24.779 126.022 24.909 126.79 25.043 127.582 C25.102 127.936 25.102 127.936 25.4 129.725 C25.504 130.347 25.608 130.969 25.716 131.611 C25.938 133.188 25.938 133.188 25.938 135.188 C9.108 135.188 -7.722 135.188 -25.062 135.188 C-25.062 126.187 -25.062 126.187 -24.575 123.156 C-24.468 122.469 -24.36 121.782 -24.25 121.075 C-24.131 120.358 -24.013 119.641 -23.891 118.902 C-23.768 118.133 -23.646 117.363 -23.52 116.57 C-23.191 114.512 -22.857 112.456 -22.52 110.399 C-22.24 108.68 -21.965 106.96 -21.689 105.241 C-20.119 95.435 -18.466 85.647 -16.7 75.875 C-15.089 66.905 -13.912 57.885 -12.747 48.847 C-11.712 40.831 -10.585 32.875 -9.066 24.934 C-7.986 19.174 -7.355 13.38 -6.884 7.54 C-6.819 6.868 -6.754 6.196 -6.688 5.504 C-6.639 4.91 -6.59 4.317 -6.539 3.705 C-6.062 2.188 -6.062 2.188 -4.619 0.995 C-2.914 0.111 -1.905 -0.054 0 0 Z " fill="#F9F9F7" transform="translate(77.0625,30.8125)"/>
<path d="M0 0 C0 48.84 0 97.68 0 148 C-10.38 146.847 -10.38 146.847 -15.312 144.125 C-15.811 143.868 -16.309 143.612 -16.822 143.348 C-18.246 142.599 -19.632 141.847 -21 141 C-21.679 140.599 -22.358 140.198 -23.057 139.785 C-24.275 138.856 -24.899 138.315 -25.372 136.846 C-25.514 135.406 -25.528 134.013 -25.501 132.566 C-25.507 132.017 -25.512 131.469 -25.518 130.904 C-25.532 129.066 -25.517 127.229 -25.502 125.39 C-25.505 124.073 -25.511 122.756 -25.518 121.438 C-25.532 117.86 -25.521 114.282 -25.504 110.703 C-25.491 106.962 -25.497 103.221 -25.501 99.479 C-25.503 93.197 -25.49 86.915 -25.467 80.633 C-25.44 73.363 -25.438 66.094 -25.45 58.825 C-25.461 51.838 -25.455 44.852 -25.44 37.865 C-25.435 34.889 -25.435 31.912 -25.439 28.936 C-25.444 25.434 -25.434 21.931 -25.412 18.429 C-25.407 17.142 -25.406 15.854 -25.411 14.566 C-25.417 12.813 -25.405 11.061 -25.388 9.307 C-25.394 8.794 -25.4 8.28 -25.406 7.751 C-25.38 6.33 -25.38 6.33 -25 4 C-19.032 -1.526 -6.817 0 0 0 Z " fill="#A5A29C" transform="translate(184,67)"/>
<path d="M0 0 C4.525 3.38 7.003 8.269 7.812 13.807 C7.938 14.853 8.058 15.901 8.172 16.949 C8.316 18.152 8.46 19.354 8.604 20.557 C8.678 21.193 8.752 21.829 8.828 22.484 C10.28 34.864 12.045 47.181 14.062 59.48 C14.185 60.229 14.308 60.978 14.434 61.749 C16.974 77.189 19.61 92.613 22.261 108.034 C24.375 120.335 26.404 132.646 28.312 144.98 C27.653 144.65 26.993 144.32 26.312 143.98 C25.842 142.557 25.842 142.557 25.531 140.734 C25.412 140.067 25.294 139.399 25.171 138.711 C25.112 138.353 25.112 138.353 24.812 136.543 C24.557 135.077 24.3 133.611 24.043 132.145 C23.92 131.429 23.796 130.714 23.669 129.978 C23.289 127.851 22.851 125.744 22.39 123.634 C21.458 119.359 21.052 115.351 21.312 110.98 C19.438 110.543 19.438 110.543 17.312 110.98 C16.649 112.795 16.303 114.542 16 116.449 C15.773 116.955 15.546 117.46 15.312 117.98 C13.27 118.076 13.27 118.076 11.312 117.98 C5.793 87.215 0.549 56.409 -3.562 25.418 C-3.624 24.959 -3.686 24.5 -3.75 24.027 C-4.379 19.309 -4.826 14.741 -4.688 9.98 C-5.979 9.953 -7.271 9.934 -8.562 9.918 C-9.282 9.906 -10.001 9.895 -10.742 9.883 C-12.688 9.98 -12.688 9.98 -14.688 10.98 C-15.066 12.21 -15.066 12.21 -15.25 13.781 C-15.323 14.369 -15.397 14.958 -15.473 15.564 C-15.544 16.205 -15.614 16.847 -15.688 17.508 C-15.769 18.171 -15.85 18.834 -15.934 19.517 C-16.194 21.65 -16.441 23.784 -16.688 25.918 C-17.016 28.699 -17.349 31.478 -17.688 34.258 C-17.77 34.936 -17.852 35.615 -17.937 36.314 C-18.495 40.789 -19.265 45.146 -20.21 49.556 C-21.158 54.368 -21.706 59.241 -22.312 64.105 C-22.448 65.168 -22.583 66.231 -22.719 67.293 C-23.045 69.855 -23.368 72.418 -23.688 74.98 C-24.017 74.98 -24.347 74.98 -24.688 74.98 C-24.688 73.33 -24.688 71.68 -24.688 69.98 C-25.181 70.064 -25.675 70.148 -26.184 70.234 C-26.504 70.285 -26.504 70.285 -28.125 70.543 C-28.444 70.595 -28.444 70.595 -30.059 70.859 C-30.327 70.879 -30.327 70.879 -31.688 70.98 C-32.017 70.65 -32.347 70.32 -32.688 69.98 C-33.347 70.97 -34.008 71.96 -34.688 72.98 C-34.165 62.828 -32.392 52.93 -30.549 42.952 C-30.158 40.828 -29.775 38.702 -29.391 36.576 C-28.648 32.476 -27.884 28.381 -27.113 24.286 C-26.703 22.066 -26.316 19.844 -25.933 17.62 C-25.692 16.288 -25.452 14.956 -25.211 13.625 C-25.115 13.036 -25.02 12.446 -24.921 11.839 C-24.027 7.049 -22.007 2.737 -18.047 -0.262 C-11.954 -2.658 -5.861 -3.392 0 0 Z M-31.688 65.98 C-30.688 67.98 -30.688 67.98 -30.688 67.98 Z " fill="#1B130E" transform="translate(86.6875,22.01953125)"/>
<path d="M0 0 C-1.224 3.773 -2.375 6.05 -6 8 C-7.513 8.34 -9.003 8.513 -10.543 8.69 C-13.22 9.045 -15.706 9.517 -18 11 C-20.291 14.563 -19.615 19.499 -19.521 23.546 C-19.534 24.857 -19.552 26.168 -19.575 27.479 C-19.621 31.042 -19.592 34.602 -19.546 38.165 C-19.508 41.894 -19.531 45.623 -19.544 49.351 C-19.557 55.618 -19.52 61.882 -19.455 68.148 C-19.38 75.386 -19.383 82.621 -19.429 89.86 C-19.471 96.825 -19.456 103.79 -19.416 110.755 C-19.4 113.717 -19.404 116.679 -19.424 119.641 C-19.445 123.135 -19.417 126.625 -19.351 130.118 C-19.334 131.398 -19.335 132.678 -19.354 133.957 C-19.476 143.329 -19.476 143.329 -17.031 146.097 C-14.307 148.322 -11.253 149.724 -8 151 C-7.575 151.176 -7.15 151.351 -6.713 151.532 C-4.501 152.446 -2.281 153.274 0 154 C-0.32 154.134 -0.32 154.134 -1.938 154.812 C-4.302 156.174 -4.229 156.576 -5 159 C-6.5 159.062 -6.5 159.062 -8 159 C-8.33 159.66 -8.66 160.32 -9 161 C-15.685 161.981 -22.164 156.782 -27.244 153.098 C-28.416 152.216 -29.556 151.307 -30.688 150.375 C-31.039 150.098 -31.39 149.822 -31.752 149.537 C-32.699 148.711 -32.699 148.711 -34 147 C-33.707 144.789 -33.707 144.789 -33 143 C-34.32 142.67 -35.64 142.34 -37 142 C-35.859 139.719 -35.287 139.452 -33.062 138.375 C-32.538 138.115 -32.013 137.854 -31.473 137.586 C-30 137 -30 137 -28 137 C-28 137.66 -28 138.32 -28 139 C-27.34 139 -26.68 139 -26 139 C-26 97.75 -26 56.5 -26 14 C-40 21 -40 21 -46 26 C-46.605 28.246 -46.803 29.489 -46.734 31.711 C-46.739 31.977 -46.739 31.977 -46.762 33.321 C-46.785 35.007 -46.77 36.689 -46.75 38.375 C-46.752 40.591 -46.77 42.807 -46.797 45.023 C-46.801 45.55 -46.805 46.076 -46.809 46.619 C-46.884 50.637 -47.518 54.24 -49 58 C-49.33 57.34 -49.66 56.68 -50 56 C-50.516 55.835 -51.031 55.67 -51.562 55.5 C-52.037 55.335 -52.511 55.17 -53 55 C-53 54.34 -53 53.68 -53 53 C-53.481 52.881 -53.962 52.763 -54.457 52.641 C-54.966 52.429 -55.475 52.218 -56 52 C-56.512 50.172 -56.512 50.172 -56.688 47.75 C-56.72 47.313 -56.753 46.876 -56.787 46.427 C-57.138 41.095 -57.174 35.75 -57.033 30.411 C-57.006 29.241 -57.009 28.069 -57.02 26.898 C-56.803 22.381 -54.567 19.211 -51.453 16.109 C-39.999 5.748 -15.026 -7.772 0 0 Z " fill="#1B120C" transform="translate(178,60)"/>
<path d="M0 0 C1.276 0 2.552 -0.002 3.828 -0.006 C6.492 -0.007 9.155 0.016 11.819 0.057 C15.221 0.108 18.62 0.106 22.023 0.086 C24.654 0.076 27.285 0.09 29.917 0.112 C31.17 0.121 32.424 0.122 33.678 0.117 C44.645 0.096 44.645 0.096 48.503 3.235 C49.75 4.526 49.75 4.526 50.84 5.859 C51.052 6.096 51.052 6.096 52.123 7.296 C53.287 8.616 54.379 9.975 55.465 11.359 C55.834 11.82 56.202 12.28 56.582 12.754 C57.313 13.667 58.04 14.584 58.763 15.504 C59.497 16.428 60.244 17.342 61.003 18.246 C61.369 18.686 61.736 19.125 62.113 19.578 C62.445 19.969 62.777 20.361 63.119 20.764 C63.84 21.859 63.84 21.859 63.84 23.859 C58.06 24.595 52.418 25.008 46.585 25.005 C46.2 25.006 46.2 25.006 44.251 25.015 C42.168 25.023 40.086 25.026 38.003 25.027 C36.697 25.027 35.39 25.029 34.084 25.032 C29.511 25.041 24.938 25.045 20.366 25.045 C16.125 25.044 11.885 25.055 7.644 25.07 C3.981 25.084 0.318 25.089 -3.345 25.088 C-5.523 25.088 -7.701 25.091 -9.879 25.101 C-12.308 25.113 -14.736 25.108 -17.165 25.102 C-17.873 25.108 -18.582 25.114 -19.312 25.119 C-23.89 25.091 -27.83 24.345 -32.16 22.859 C-30.099 19.173 -27.774 16.086 -24.91 12.984 C-24.553 12.589 -24.196 12.193 -23.828 11.785 C-23.079 10.963 -22.316 10.153 -21.541 9.356 C-20.16 7.859 -20.16 7.859 -18.843 6.095 C-13.493 -0.42 -8.019 -0.145 0 0 Z " fill="#FAFAF7" transform="translate(61.16015625,172.140625)"/>
<path d="M0 0 C0 41.25 0 82.5 0 125 C-0.66 125 -1.32 125 -2 125 C-2.929 123.675 -3.685 122.422 -4.438 121 C-4.54 120.819 -4.54 120.819 -5.057 119.902 C-5.753 118.622 -6.375 117.317 -7 116 C-7.256 115.489 -7.513 114.979 -7.777 114.453 C-10.424 108.474 -10.361 102.913 -10.258 96.472 C-10.23 94.553 -10.225 92.636 -10.227 90.717 C-10.231 85.268 -10.208 79.82 -10.134 74.372 C-10.09 71.023 -10.086 67.675 -10.106 64.326 C-10.106 63.06 -10.091 61.794 -10.061 60.528 C-9.808 49.636 -9.808 49.636 -13.876 45.329 C-14.947 44.33 -16.043 43.392 -17.184 42.474 C-18.993 41.006 -19.851 40.078 -20.174 37.737 C-20.185 37.499 -20.185 37.499 -20.24 36.298 C-20.266 35.757 -20.292 35.216 -20.318 34.658 C-20.403 32.178 -20.469 29.697 -20.515 27.216 C-20.546 25.912 -20.594 24.608 -20.658 23.306 C-21.168 12.834 -21.168 12.834 -19.263 9.843 C-17.177 7.63 -14.704 6.333 -12 5 C-11.114 4.447 -10.232 3.888 -9.355 3.32 C-8.64 2.926 -7.925 2.531 -7.188 2.125 C-7.003 2.019 -7.003 2.019 -6.072 1.484 C-3.767 0.214 -2.748 0 0 0 Z " fill="#F0F0ED" transform="translate(152,74)"/>
<path d="M0 0 C5.28 0 10.56 0 16 0 C16 0.66 16 1.32 16 2 C16.337 1.908 16.337 1.908 18.043 1.441 C21.558 0.738 24.815 1.358 28.312 1.938 C28.958 2.037 29.603 2.137 30.268 2.24 C31.846 2.486 33.424 2.739 35 3 C34.993 3.477 34.987 3.955 34.98 4.447 C34.92 8.963 34.874 13.479 34.845 17.996 C34.829 20.317 34.808 22.639 34.774 24.96 C34.741 27.204 34.723 29.447 34.715 31.691 C34.71 32.543 34.699 33.396 34.683 34.249 C34.6 38.768 34.619 42.376 37.159 46.223 C38 47 38 47 40 47 C40.75 48.938 40.75 48.938 41 51 C37.489 52.756 33.329 52.634 29.447 52.9 C28.531 52.963 27.616 53.032 26.701 53.107 C22.087 53.47 18.077 53.543 14.375 50.474 C9.313 45.046 8.213 37.178 7.417 30.099 C7.251 28.631 7.063 27.168 6.871 25.703 C6.047 19.115 5.854 12.634 6 6 C5.386 6.01 4.772 6.021 4.139 6.032 C1.809 6.069 -0.52 6.091 -2.85 6.11 C-3.849 6.12 -4.848 6.133 -5.846 6.151 C-12.561 6.266 -19.615 6.348 -26 4 C-27.275 2.426 -27.275 2.426 -28 1 C-27.484 1.143 -26.969 1.286 -26.438 1.433 C-20.031 3.05 -14.019 3.24 -7.438 3.125 C-6.419 3.115 -5.4 3.106 -4.381 3.098 C-1.92 3.076 0.54 3.042 3 3 C2.01 2.01 1.02 1.02 0 0 Z " fill="#1F1610" transform="translate(51,203)"/>
<path d="M0 0 C0.66 0 1.32 0 2 0 C2.625 2 2.625 2 3 4 C3.66 2.68 4.32 1.36 5 0 C5.103 0.495 5.206 0.99 5.312 1.5 C5.426 1.748 5.426 1.748 6 3 C7.543 3.094 7.543 3.094 9 3 C9.075 6.147 9.129 9.294 9.165 12.442 C9.18 13.51 9.2 14.578 9.226 15.645 C9.427 24.06 8.575 30.227 3.062 36.957 C2 38 2 38 0.458 38.765 C-1 40 -1 40 -1.379 42.134 C-1.396 43.026 -1.397 43.918 -1.385 44.81 C-1.39 45.298 -1.396 45.786 -1.401 46.289 C-1.411 47.351 -1.414 48.413 -1.411 49.475 C-1.406 51.167 -1.42 52.859 -1.439 54.551 C-1.476 58.159 -1.49 61.767 -1.5 65.375 C-1.512 69.526 -1.534 73.676 -1.58 77.826 C-1.593 79.472 -1.589 81.117 -1.585 82.764 C-1.632 91.788 -2.725 101.812 -7.875 109.5 C-8.13 109.905 -8.386 110.31 -8.649 110.728 C-10.629 113.745 -12.868 116.143 -16 118 C-16 117.34 -16 116.68 -16 116 C-16.66 115.67 -17.32 115.34 -18 115 C-17.682 112.215 -16.919 109.717 -16.034 107.066 C-13.101 97.928 -12.672 89.345 -12.707 79.812 C-12.708 79.177 -12.709 78.541 -12.71 77.886 C-12.722 71.901 -12.774 65.917 -12.886 59.932 C-12.946 56.626 -12.962 53.322 -12.95 50.015 C-12.955 48.771 -12.976 47.527 -13.015 46.283 C-13.327 36.107 -13.327 36.107 -10.002 32.55 C-8.462 31.122 -6.843 29.891 -5.13 28.679 C-2.598 26.854 -1.355 24.727 -0.722 21.646 C-0.708 21.246 -0.695 20.846 -0.681 20.435 C-0.661 19.974 -0.641 19.514 -0.621 19.04 C-0.615 18.799 -0.615 18.799 -0.586 17.578 C-0.567 17.073 -0.547 16.568 -0.527 16.048 C-0.468 14.449 -0.421 12.85 -0.375 11.25 C-0.337 10.16 -0.298 9.07 -0.258 7.98 C-0.162 5.321 -0.078 2.66 0 0 Z " fill="#1B130D" transform="translate(238,88)"/>
<path d="M0 0 C1.005 0.616 2.004 1.243 3 1.875 C3.557 2.223 4.114 2.571 4.688 2.93 C5.121 3.283 5.554 3.636 6 4 C6 4.66 6 5.32 6 6 C6.66 6 7.32 6 8 6 C9.14 7.27 10.13 8.5 11.125 9.875 C11.402 10.24 11.679 10.605 11.965 10.98 C14 13.737 14 13.737 14 16 C14.66 16 15.32 16 16 16 C16.594 17.01 16.594 17.01 17.07 18.406 C17.157 18.654 17.157 18.654 17.598 19.91 C17.772 20.435 17.946 20.959 18.125 21.5 C18.307 22.025 18.489 22.549 18.676 23.09 C19.125 24.391 19.566 25.694 20 27 C19.34 27 18.68 27 18 27 C17.897 27.743 17.794 28.485 17.688 29.25 C17.192 32.254 15.842 33.316 13.474 35.095 C6.566 39.338 -3.176 39.188 -10.984 39.078 C-11.76 39.072 -12.536 39.067 -13.335 39.061 C-15.224 39.046 -17.112 39.026 -19 39 C-18.991 39.488 -18.982 39.976 -18.973 40.478 C-18.893 45.097 -18.832 49.716 -18.793 54.335 C-18.772 56.71 -18.744 59.083 -18.698 61.458 C-18.654 63.753 -18.631 66.048 -18.62 68.343 C-18.613 69.215 -18.599 70.086 -18.577 70.958 C-18.454 76.093 -18.781 79.68 -21.87 83.881 C-25.453 87.429 -30.524 87.229 -35.266 87.266 C-37.217 86.967 -37.808 86.532 -39 85 C-38.626 84.976 -38.626 84.976 -36.734 84.852 C-35.74 84.776 -34.745 84.701 -33.75 84.625 C-33.259 84.594 -32.768 84.563 -32.262 84.531 C-29.107 84.279 -26.713 83.765 -24 82 C-22.041 79.643 -21.757 78.006 -21.789 74.975 C-21.792 74.171 -21.796 73.366 -21.799 72.537 C-21.813 71.663 -21.826 70.788 -21.84 69.914 C-21.846 69.011 -21.851 68.108 -21.856 67.205 C-21.869 64.83 -21.893 62.455 -21.921 60.079 C-21.964 56.285 -21.994 52.491 -22.017 48.697 C-22.027 47.378 -22.044 46.059 -22.062 44.741 C-22.127 36.665 -22.127 36.665 -21 33 C-19.441 32.652 -19.441 32.652 -17.562 32.938 C-15.691 33.215 -15.691 33.215 -14 33 C-13.34 31.68 -12.68 30.36 -12 29 C-30.81 28.67 -49.62 28.34 -69 28 C-69 27.67 -69 27.34 -69 27 C-43.92 26.67 -18.84 26.34 7 26 C3 20 3 20 1.25 18 C-0.442 15.293 -0.28 13.109 0 10 C-0.66 10 -1.32 10 -2 10 C-1.689 9.208 -1.376 8.416 -1.062 7.625 C-0.975 7.405 -0.975 7.405 -0.535 6.289 C-0.071 5.172 0.459 4.082 1 3 C0.34 3 -0.32 3 -1 3 C-0.67 2.01 -0.34 1.02 0 0 Z " fill="#231914" transform="translate(118,170)"/>
<path d="M0 0 C0.33 0 0.66 0 1 0 C0.712 5.674 -0.224 9.679 -4 14 C-4.399 14.291 -4.799 14.582 -5.21 14.882 C-7.56 16.75 -8.837 18.164 -9.421 21.162 C-9.529 23.87 -9.483 26.536 -9.383 29.242 C-9.366 30.253 -9.352 31.263 -9.34 32.274 C-9.304 34.936 -9.241 37.596 -9.168 40.256 C-9.042 44.98 -8.945 49.704 -8.883 54.43 C-8.879 54.683 -8.879 54.683 -8.862 55.964 C-8.683 72.226 -11.565 85.352 -23.094 97.254 C-30.741 104.735 -40.041 110.211 -50 114 C-50.311 114.122 -50.311 114.122 -51.887 114.742 C-60.997 117.843 -69.142 115.779 -77.83 112.594 C-79.16 111.919 -80.003 111.1 -81 110 C-80.763 110.031 -80.763 110.031 -79.562 110.188 C-79.305 110.157 -79.305 110.157 -78 110 C-77.835 109.505 -77.67 109.01 -77.5 108.5 C-77.335 108.005 -77.17 107.51 -77 107 C-76 107 -75 107 -74 107 C-73.608 106.505 -73.216 106.01 -72.812 105.5 C-69.904 103.093 -66.632 103.767 -63 104 C-63 104.66 -63 105.32 -63 106 C-49.406 101.198 -36.632 95.004 -27 84 C-26.339 83.328 -25.675 82.659 -25 82 C-25 85.667 -25 89.333 -25 93 C-24.34 93 -23.68 93 -23 93 C-19.292 89.207 -16.652 84.77 -14.688 79.875 C-14.528 79.48 -14.369 79.085 -14.206 78.678 C-11.781 72.199 -11.874 65.693 -11.892 58.888 C-11.896 56.003 -11.87 53.118 -11.85 50.232 C-11.825 46.576 -11.81 42.921 -11.825 39.264 C-11.837 36.294 -11.819 33.325 -11.783 30.354 C-11.774 29.228 -11.776 28.102 -11.789 26.975 C-11.884 18.165 -11.884 18.165 -9.675 15.252 C-8.061 13.92 -8.061 13.92 -6.456 12.916 C-2.47 10.409 -1.479 5.67 -0.43 1.355 C-0.288 0.908 -0.146 0.461 0 0 Z " fill="#201711" transform="translate(247,111)"/>
<path d="M0 0 C2.045 -0.08 2.045 -0.08 4 0 C4.111 0.715 4.221 1.431 4.335 2.168 C4.753 4.86 5.175 7.551 5.599 10.242 C5.781 11.399 5.961 12.557 6.14 13.715 C8.971 32.01 8.971 32.01 11.043 34.003 C11.421 34.249 11.798 34.496 12.188 34.75 C12.786 35.162 13.384 35.575 14 36 C13.75 38.188 13.75 38.188 13 40 C13.66 40 14.32 40 15 40 C14.689 40.792 14.376 41.584 14.062 42.375 C13.888 42.816 13.714 43.257 13.535 43.711 C13.071 44.828 12.541 45.918 12 47 C12.66 47 13.32 47 14 47 C14 48.65 14 50.3 14 52 C10.52 49.274 7.455 46.613 4.859 43.016 C4 42 4 42 2 41 C0.506 40.887 -0.992 40.833 -2.49 40.811 C-2.944 40.802 -3.398 40.794 -3.866 40.785 C-4.853 40.768 -5.839 40.753 -6.826 40.74 C-8.395 40.719 -9.965 40.692 -11.534 40.663 C-14.877 40.603 -18.22 40.551 -21.562 40.5 C-25.415 40.44 -29.267 40.378 -33.119 40.308 C-34.651 40.282 -36.182 40.261 -37.713 40.24 C-43.535 40.146 -49.226 39.768 -55 39 C-54.67 38.361 -54.34 37.721 -54 37.062 C-53 35 -53 35 -53 34 C-48.166 33.854 -43.332 33.712 -38.498 33.573 C-36.861 33.525 -35.225 33.477 -33.588 33.427 C-22.722 33.1 -11.871 32.926 -1 33 C-1.067 32.668 -1.067 32.668 -1.403 30.985 C-1.659 29.707 -1.914 28.43 -2.167 27.152 C-2.62 24.871 -3.084 22.593 -3.578 20.32 C-5.539 11.203 -5.539 11.203 -5 7 C-4.518 6.848 -4.036 6.696 -3.539 6.539 C-3.285 6.45 -3.285 6.45 -2 6 C-1.347 4.439 -1.061 2.932 -0.723 1.277 C-0.484 0.856 -0.246 0.434 0 0 Z " fill="#170F0A" transform="translate(104,133)"/>
<path d="M0 0 C3.698 1.331 6.356 3.155 8.34 6.59 C9.943 11.294 10.07 16.819 8.234 21.465 C7.269 22.997 6.267 24.238 5 25.527 C4.856 25.69 4.856 25.69 4.125 26.516 C1.642 28.855 -1.538 29.356 -4.844 29.652 C-9.41 29.388 -13.038 27.296 -16.391 24.273 C-19.348 20.619 -19.697 16.468 -19.391 11.926 C-18.805 8.33 -17.393 6.195 -15 3.527 C-14.723 3.115 -14.446 2.702 -14.16 2.277 C-10.793 -2.191 -4.893 -1.156 0 0 Z " fill="#1E1814" transform="translate(214,86.47265625)"/>
<path d="M0 0 C6.27 0 12.54 0 19 0 C19 12.54 19 25.08 19 38 C14.71 38 10.42 38 6 38 C3.728 34.213 2.479 32.086 1.875 28 C1.797 27.513 1.719 27.026 1.639 26.524 C0.391 17.771 0.314 8.825 0 0 Z " fill="#AAA49D" transform="translate(67,207)"/>
<path d="M0 0 C0.33 0.99 0.66 1.98 1 3 C1.338 2.844 1.675 2.688 2.023 2.527 C2.469 2.333 2.915 2.138 3.375 1.938 C3.595 1.839 3.595 1.839 4.711 1.34 C6 1 6 1 8 2 C8.204 3.681 8.269 5.167 8.232 6.848 C8.226 7.34 8.22 7.832 8.213 8.339 C8.079 13.788 7.225 19.076 6.285 24.434 C6.107 25.484 5.93 26.535 5.754 27.586 C5.294 30.317 4.823 33.045 4.35 35.773 C3.965 38.003 3.588 40.235 3.211 42.466 C2.759 45.143 2.304 47.82 1.848 50.496 C1.762 51 1.676 51.504 1.587 52.024 C1.343 53.454 1.096 54.884 0.848 56.314 C0.708 57.125 0.568 57.936 0.424 58.771 C0.024 60.872 -0.458 62.931 -1 65 C-2.488 64.754 -2.488 64.754 -4 64 C-4.293 62.152 -4.293 62.152 -4.188 59.938 C-4.174 59.571 -4.174 59.571 -4.105 57.715 C-4.088 57.432 -4.088 57.432 -4 56 C-5.65 56.99 -7.3 57.98 -9 59 C-9.561 49.378 -8.06 39.999 -6.601 30.52 C-6.254 28.259 -5.921 25.997 -5.593 23.733 C-5.335 21.96 -5.067 20.189 -4.798 18.418 C-4.612 17.187 -4.433 15.955 -4.255 14.723 C-3.439 9.521 -2.038 4.854 0 0 Z " fill="#1E1612" transform="translate(54,90)"/>
<path d="M0 0 C4.254 -0.076 8.508 -0.129 12.762 -0.165 C14.211 -0.18 15.659 -0.2 17.107 -0.226 C19.185 -0.263 21.262 -0.28 23.34 -0.293 C23.665 -0.301 23.665 -0.301 25.313 -0.34 C25.913 -0.34 26.514 -0.34 27.133 -0.341 C27.663 -0.347 28.194 -0.354 28.741 -0.361 C29.156 -0.242 29.572 -0.123 30 0 C30.742 1.396 30.742 1.396 31 3 C30.67 3.66 30.34 4.32 30 5 C29.926 6.307 29.913 7.618 29.934 8.927 C29.944 9.735 29.954 10.543 29.964 11.375 C29.967 11.591 29.967 11.591 29.986 12.682 C30.008 14.036 30.022 15.39 30.034 16.744 C30.067 20.593 30.109 24.442 30.171 28.291 C30.209 30.647 30.232 33.003 30.246 35.359 C30.254 36.254 30.267 37.15 30.287 38.045 C30.454 45.926 30.454 45.926 28.582 48.557 C27 50 27 50 25.438 50.375 C23.675 49.915 23.168 49.387 22 48 C21.526 47.526 21.051 47.051 20.562 46.562 C19.042 45.042 17.521 43.521 16 42 C16.99 42 17.98 42 19 42 C19 29.13 19 16.26 19 3 C16.03 3 13.06 3 10 3 C8.127 2.866 6.296 2.721 4.438 2.5 C4.219 2.476 4.219 2.476 3.115 2.355 C2.076 2.241 1.038 2.121 0 2 C0 1.34 0 0.68 0 0 Z " fill="#20140D" transform="translate(67,203)"/>
<path d="M0 0 C0.33 0 0.66 0 1 0 C1.057 0.359 1.115 0.718 1.174 1.088 C4.641 22.762 8.229 44.413 11.947 66.045 C12.355 68.418 12.762 70.791 13.168 73.164 C13.246 73.619 13.324 74.075 13.404 74.544 C15.023 84.016 16.531 93.504 18 103 C17.34 102.67 16.68 102.34 16 102 C15.529 100.576 15.529 100.576 15.219 98.754 C15.1 98.086 14.981 97.418 14.859 96.73 C14.74 96.015 14.622 95.3 14.5 94.562 C14.244 93.096 13.988 91.63 13.73 90.164 C13.607 89.449 13.484 88.734 13.357 87.997 C12.977 85.871 12.539 83.764 12.078 81.654 C11.146 77.378 10.74 73.37 11 69 C9.125 68.562 9.125 68.562 7 69 C6.336 70.814 5.99 72.562 5.688 74.469 C5.461 74.974 5.234 75.479 5 76 C2.957 76.096 2.957 76.096 1 76 C0.259 71.784 -0.47 67.567 -1.191 63.347 C-1.438 61.912 -1.687 60.478 -1.939 59.044 C-2.301 56.982 -2.653 54.919 -3.004 52.855 C-3.118 52.215 -3.233 51.574 -3.351 50.914 C-3.451 50.313 -3.551 49.713 -3.655 49.094 C-3.746 48.568 -3.837 48.042 -3.93 47.5 C-4.011 45.758 -3.681 44.597 -3 43 C-2.835 42.835 -2.835 42.835 -2 42 C-1.938 40.438 -1.938 40.438 -2 39 C-1.34 39 -0.68 39 0 39 C0.061 39.494 0.121 39.987 0.184 40.496 C0.267 41.137 0.351 41.777 0.438 42.438 C0.478 42.757 0.478 42.757 0.684 44.371 C1 46 1 46 2 47 C2 45.35 2 43.7 2 42 C2.99 42.33 3.98 42.66 5 43 C4.937 42.579 4.875 42.159 4.81 41.725 C4.154 37.313 3.507 32.9 2.864 28.486 C2.624 26.843 2.381 25.2 2.136 23.557 C1.783 21.185 1.438 18.811 1.094 16.438 C0.984 15.713 0.875 14.989 0.762 14.243 C0.079 9.464 -0.128 4.825 0 0 Z " fill="#201912" transform="translate(97,64)"/>
<path d="M0 0 C1.109 3.781 1.109 3.781 0.125 5.75 C-0.061 5.956 -0.061 5.956 -1 7 C-1.33 7 -1.66 7 -2 7 C-2.124 7.804 -2.248 8.609 -2.375 9.438 C-2.613 10.836 -2.613 10.836 -3 12 C-3.992 12.357 -4.992 12.693 -6 13 C-6.125 15 -6.125 15 -6 17 C-6.33 17.33 -6.66 17.66 -7 18 C-7.135 19.784 -7.21 21.534 -7.246 23.32 C-7.279 24.424 -7.312 25.529 -7.346 26.633 C-7.393 28.37 -7.437 30.108 -7.477 31.846 C-7.774 44.253 -7.774 44.253 -10 50 C-10.33 49.34 -10.66 48.68 -11 48 C-11.516 47.835 -12.031 47.67 -12.562 47.5 C-13.037 47.335 -13.511 47.17 -14 47 C-14 46.34 -14 45.68 -14 45 C-14.481 44.881 -14.962 44.763 -15.457 44.641 C-15.966 44.429 -16.475 44.218 -17 44 C-17.512 42.172 -17.512 42.172 -17.688 39.75 C-17.72 39.313 -17.753 38.876 -17.787 38.427 C-18.138 33.095 -18.174 27.75 -18.033 22.411 C-18.006 21.241 -18.009 20.069 -18.02 18.898 C-17.775 13.802 -14.725 10.311 -11.145 6.957 C-7.771 4.137 -3.868 2.054 0 0 Z " fill="#1A120C" transform="translate(139,68)"/>
<path d="M0 0 C0.144 17.028 -0.215 33.99 -1 51 C-1.454 50.505 -1.907 50.01 -2.375 49.5 C-4 48 -4 48 -6 48 C-6.33 48.66 -6.66 49.32 -7 50 C-7.66 50 -8.32 50 -9 50 C-9 36.8 -9 23.6 -9 10 C-8.67 10.165 -8.67 10.165 -7 11 C-6.325 9.901 -5.661 8.795 -5 7.688 C-4.629 7.073 -4.257 6.458 -3.875 5.824 C-3 4 -3 4 -3 2.332 C-3 1.892 -3 1.453 -3 1 C-1 0 -1 0 0 0 Z " fill="#1C130D" transform="translate(142,124)"/>
<path d="M0 0 C4.502 1.333 7.647 3.956 10 8 C11.568 11.525 12.409 14.672 12.852 18.492 C12.883 18.747 12.883 18.747 13.045 20.035 C13.177 21.105 13.307 22.176 13.433 23.247 C13.624 24.865 13.827 26.481 14.031 28.098 C14.687 33.413 15.235 38.633 15 44 C14 42 13 40 12 38 C11.34 38 10.68 38 10 38 C9.806 36.855 9.62 35.709 9.438 34.562 C9.333 33.924 9.229 33.286 9.121 32.629 C9.081 32.091 9.041 31.554 9 31 C9.33 30.67 9.66 30.34 10 30 C10.247 27.363 10.185 24.71 10.188 22.062 C10.194 21.692 10.194 21.692 10.225 19.814 C10.227 19.104 10.228 18.393 10.23 17.66 C10.233 17.333 10.233 17.333 10.243 15.68 C10 14 10 14 9.118 12.728 C8.749 12.488 8.38 12.248 8 12 C5.875 12.688 5.875 12.688 4 14 C4 14.516 4 15.031 4 15.562 C4 16.037 4 16.511 4 17 C2 17.688 2 17.688 0 18 C0 16.02 0 14.04 0 12 C-7.887 11.483 -7.887 11.483 -10.5 13.5 C-10.995 13.995 -11.49 14.49 -12 15 C-12.625 13.75 -12.625 13.75 -13 12 C-12.351 10.658 -11.683 9.325 -11 8 C-11.021 7.34 -11.041 6.68 -11.062 6 C-10.995 3.833 -10.582 2.448 -9.176 0.762 C-6.438 -1.012 -3.083 -0.48 0 0 Z " fill="#1E1712" transform="translate(82,20)"/>
<path d="M0 0 C5.28 0 10.56 0 16 0 C16 0.66 16 1.32 16 2 C16.337 1.908 16.337 1.908 18.043 1.441 C21.558 0.738 24.815 1.358 28.312 1.938 C28.958 2.037 29.603 2.137 30.268 2.24 C31.846 2.486 33.424 2.739 35 3 C35 3.33 35 3.66 35 4 C28.73 4 22.46 4 16 4 C16 9.28 16 14.56 16 20 C15.835 19.34 15.835 19.34 15 16 C14.34 16 13.68 16 13 16 C12.287 17.585 11.957 19.183 11.562 20.875 C10.904 23.362 9.989 25.626 9 28 C5.415 23.22 5.94 16.961 5.977 11.219 C5.978 10.714 5.98 10.21 5.982 9.69 C5.986 8.46 5.993 7.23 6 6 C5.386 6.01 4.772 6.021 4.139 6.032 C1.809 6.069 -0.52 6.091 -2.85 6.11 C-3.849 6.12 -4.848 6.133 -5.846 6.151 C-12.561 6.266 -19.615 6.348 -26 4 C-27.275 2.426 -27.275 2.426 -28 1 C-27.484 1.143 -26.969 1.286 -26.438 1.433 C-20.031 3.05 -14.019 3.24 -7.438 3.125 C-6.419 3.115 -5.4 3.106 -4.381 3.098 C-1.92 3.076 0.54 3.042 3 3 C2.01 2.01 1.02 1.02 0 0 Z " fill="#302721" transform="translate(51,203)"/>
<path d="M0 0 C3.87 0.933 6.873 2.398 9.438 5.5 C11.948 9.818 11.781 15.18 11 20 C10.248 22.232 9.598 23.218 8 25 C7.34 25 6.68 25 6 25 C6 24.34 6 23.68 6 23 C4.68 23.33 3.36 23.66 2 24 C2.175 23.66 2.175 23.66 3.062 21.938 C4.41 18.583 4.004 15.418 3 12 C2.195 10.332 2.195 10.332 1 9 C-1.782 8.115 -4.222 8.102 -7 9 C-8.505 11.008 -9.338 12.902 -10.211 15.25 C-10.341 15.539 -10.341 15.539 -11 17 C-11.66 17 -12.32 17 -13 17 C-14.867 14.606 -16.365 11.591 -16.062 8.5 C-13.671 0.773 -7.321 -1.263 0 0 Z " fill="#19120E" transform="translate(212,86)"/>
<path d="M0 0 C0.33 0 0.66 0 1 0 C0.994 0.776 0.987 1.552 0.981 2.352 C0.966 5.267 0.998 8.181 1.043 11.096 C1.056 12.351 1.057 13.606 1.045 14.861 C0.944 26.941 0.944 26.941 5.434 31.688 C6.05 32.283 6.674 32.871 7.306 33.449 C8.884 34.894 10.019 36.103 11 38 C10.258 39.922 10.258 39.922 9 42 C8.647 42.706 8.294 43.413 7.93 44.141 C7.441 45.117 7.441 45.117 5 50 C4.34 49.67 3.68 49.34 3 49 C2.67 64.51 2.34 80.02 2 96 C1.67 96 1.34 96 1 96 C0.999 95.335 0.997 94.669 0.996 93.984 C0.979 87.701 0.936 81.419 0.868 75.137 C0.834 71.907 0.809 68.678 0.804 65.448 C0.8 62.329 0.772 59.211 0.727 56.092 C0.714 54.905 0.709 53.717 0.714 52.529 C0.741 43.199 0.741 43.199 -1.111 40.203 C-2.344 38.977 -3.594 38.014 -5 37 C-6.002 35.669 -6.634 34.386 -7.375 32.875 C-7.713 32.212 -8.05 31.55 -8.398 30.867 C-9 29 -9 29 -8 26 C-7.175 26.66 -7.175 26.66 -3 30 C-1.274 26.23 -0.677 23.166 -0.586 19.043 C-0.567 18.495 -0.547 17.947 -0.527 17.383 C-0.468 15.651 -0.421 13.92 -0.375 12.188 C-0.337 11.006 -0.298 9.824 -0.258 8.643 C-0.162 5.762 -0.078 2.881 0 0 Z " fill="#27211B" transform="translate(131,86)"/>
<path d="M0 0 C0.33 0 0.66 0 1 0 C0.712 5.674 -0.224 9.679 -4 14 C-4.399 14.291 -4.799 14.582 -5.21 14.882 C-7.56 16.75 -8.837 18.164 -9.421 21.162 C-9.529 23.87 -9.483 26.536 -9.383 29.242 C-9.366 30.253 -9.352 31.263 -9.34 32.274 C-9.304 34.936 -9.241 37.596 -9.168 40.256 C-9.042 44.98 -8.945 49.704 -8.883 54.43 C-8.879 54.683 -8.879 54.683 -8.862 55.964 C-8.683 72.226 -11.565 85.352 -23.094 97.254 C-30.741 104.735 -40.041 110.211 -50 114 C-50.623 114.245 -51.245 114.49 -51.887 114.742 C-56.836 116.427 -61.841 116.187 -67 116 C-67 115.67 -67 115.34 -67 115 C-66.273 114.914 -65.546 114.827 -64.797 114.738 C-47.972 112.496 -30.487 103.659 -20 90 C-18.756 88.238 -17.632 86.436 -16.562 84.562 C-16.327 84.157 -16.092 83.751 -15.85 83.333 C-11.877 75.692 -11.724 66.87 -11.787 58.465 C-11.797 56.778 -11.791 55.092 -11.781 53.405 C-11.754 48.618 -11.741 43.832 -11.77 39.045 C-11.787 36.095 -11.774 33.148 -11.744 30.198 C-11.737 29.083 -11.742 27.968 -11.758 26.853 C-11.88 18.156 -11.88 18.156 -9.677 15.261 C-8.063 13.929 -8.063 13.929 -6.458 12.921 C-2.473 10.403 -1.48 5.676 -0.43 1.355 C-0.288 0.908 -0.146 0.461 0 0 Z " fill="#4C4945" transform="translate(247,111)"/>
<path d="M0 0 C0.33 0 0.66 0 1 0 C1.165 1.65 1.165 1.65 2 10 C-14.83 10 -31.66 10 -49 10 C-49 7.36 -49 4.72 -49 2 C-48.67 2.99 -48.34 3.98 -48 5 C-46.373 5.302 -45.112 5.38 -43.48 5.341 C-43.012 5.341 -42.544 5.341 -42.061 5.342 C-40.508 5.34 -38.955 5.316 -37.402 5.293 C-36.328 5.287 -35.253 5.283 -34.178 5.28 C-31.345 5.269 -28.513 5.239 -25.68 5.206 C-22.792 5.175 -19.903 5.162 -17.014 5.146 C-11.342 5.114 -5.671 5.063 0 5 C0 3.35 0 1.7 0 0 Z " fill="#A6A29C" transform="translate(101,156)"/>
<path d="M0 0 C0.66 0 1.32 0 2 0 C2.594 1.01 2.594 1.01 3.07 2.406 C3.244 2.903 3.418 3.399 3.598 3.91 C3.772 4.435 3.946 4.959 4.125 5.5 C4.307 6.025 4.489 6.549 4.676 7.09 C5.125 8.391 5.566 9.694 6 11 C5.34 11 4.68 11 4 11 C3.897 11.743 3.794 12.485 3.688 13.25 C3.192 16.254 1.842 17.316 -0.526 19.095 C-7.434 23.338 -17.176 23.188 -24.984 23.078 C-25.76 23.072 -26.536 23.067 -27.335 23.061 C-29.224 23.046 -31.112 23.026 -33 23 C-32.991 23.488 -32.982 23.976 -32.973 24.478 C-32.893 29.097 -32.832 33.716 -32.793 38.335 C-32.772 40.71 -32.744 43.083 -32.698 45.458 C-32.654 47.753 -32.631 50.048 -32.62 52.343 C-32.613 53.215 -32.599 54.086 -32.577 54.958 C-32.454 60.093 -32.781 63.68 -35.87 67.881 C-39.453 71.429 -44.524 71.229 -49.266 71.266 C-51.217 70.967 -51.808 70.532 -53 69 C-52.252 68.951 -51.505 68.902 -50.734 68.852 C-49.74 68.776 -48.745 68.701 -47.75 68.625 C-47.259 68.594 -46.768 68.563 -46.262 68.531 C-43.107 68.279 -40.713 67.765 -38 66 C-36.022 63.626 -35.757 61.966 -35.789 58.912 C-35.792 58.094 -35.796 57.277 -35.799 56.435 C-35.813 55.548 -35.826 54.661 -35.84 53.773 C-35.846 52.861 -35.851 51.948 -35.856 51.036 C-35.869 48.639 -35.893 46.243 -35.921 43.846 C-35.964 40.003 -35.994 36.161 -36.017 32.318 C-36.027 30.974 -36.044 29.631 -36.062 28.287 C-36.069 27.476 -36.075 26.665 -36.082 25.83 C-36.09 25.112 -36.098 24.395 -36.107 23.657 C-36 22 -36 22 -35 21 C-33.557 20.867 -32.108 20.797 -30.66 20.754 C-29.752 20.721 -28.844 20.688 -27.936 20.654 C-26.514 20.608 -25.093 20.563 -23.672 20.523 C-5.305 19.979 -5.305 19.979 0.16 15 C2.159 12.619 2.204 10.613 2.168 7.664 C1.895 4.958 0.999 2.516 0 0 Z " fill="#4C4742" transform="translate(132,186)"/>
<path d="M0 0 C2.479 -0.029 4.958 -0.047 7.438 -0.062 C8.145 -0.071 8.852 -0.079 9.58 -0.088 C9.917 -0.09 9.917 -0.09 11.621 -0.098 C11.933 -0.1 11.933 -0.1 13.51 -0.114 C15 0 15 0 16 1 C16.114 2.215 16.114 2.215 16.098 3.723 C16.094 4.261 16.091 4.799 16.088 5.354 C16.08 5.917 16.071 6.481 16.062 7.062 C16.058 7.63 16.053 8.198 16.049 8.783 C16.037 10.189 16.021 11.594 16 13 C13.897 13.146 11.794 13.234 9.688 13.312 C9.39 13.333 9.39 13.333 7.885 13.439 C3.614 13.559 3.614 13.559 1.919 12.016 C-0.603 8.148 -0.226 4.447 0 0 Z " fill="#F0EFEC" transform="translate(70,232)"/>
<path d="M0 0 C0.66 1.32 1.32 2.64 2 4 C2.66 3.67 3.32 3.34 4 3 C4.514 6.665 4.764 9.732 2.805 12.984 C0.691 15.47 -1.256 17.556 -4.072 19.237 C-5.326 20.178 -5.908 20.705 -6.378 22.213 C-6.533 23.739 -6.56 25.223 -6.546 26.757 C-6.556 27.332 -6.567 27.908 -6.577 28.502 C-6.607 30.401 -6.608 32.3 -6.609 34.199 C-6.624 35.518 -6.641 36.836 -6.659 38.155 C-6.703 41.622 -6.723 45.089 -6.738 48.556 C-6.758 52.096 -6.8 55.635 -6.84 59.174 C-6.915 66.116 -6.965 73.058 -7 80 C-7.33 80 -7.66 80 -8 80 C-8.33 67.13 -8.66 54.26 -9 41 C-9.33 41.165 -9.33 41.165 -11 42 C-10.67 40.35 -10.34 38.7 -10 37 C-10.33 37 -10.66 37 -11 37 C-11 30.73 -11 24.46 -11 18 C-9.845 17.835 -9.845 17.835 -4 17 C-4.66 16.67 -5.32 16.34 -6 16 C-6.278 14.306 -6.089 12.726 -6 11 C-4.562 11.375 -4.562 11.375 -3 12 C-2.67 12.66 -2.34 13.32 -2 14 C-0.674 12.674 -0.81 11.912 -0.684 10.059 C-0.663 9.767 -0.663 9.767 -0.557 8.291 C-0.517 7.679 -0.478 7.068 -0.438 6.438 C-0.394 5.822 -0.351 5.206 -0.307 4.572 C-0.2 3.048 -0.098 1.524 0 0 Z " fill="#E8E6E2" transform="translate(233,102)"/>
<path d="M0 0 C24.42 0 48.84 0 74 0 C74 0.33 74 0.66 74 1 C73.506 1.049 73.013 1.098 72.504 1.148 C71.863 1.223 71.223 1.298 70.562 1.375 C69.924 1.445 69.286 1.514 68.629 1.586 C68.36 1.654 68.36 1.654 67 2 C66.67 2.66 66.34 3.32 66 4 C67.65 4 69.3 4 71 4 C70.67 4.66 70.34 5.32 70 6 C68.877 6.319 68.877 6.319 67.496 6.414 C67.003 6.453 66.51 6.491 66.002 6.531 C65.744 6.547 65.744 6.547 64.438 6.625 C63.917 6.664 63.397 6.702 62.861 6.742 C61.575 6.837 60.287 6.919 59 7 C60.98 7 62.96 7 65 7 C65 7.66 65 8.32 65 9 C62.859 10.07 61.871 10.118 59.523 10.098 C59.188 10.096 59.188 10.096 57.492 10.088 C57.143 10.084 57.143 10.084 55.375 10.062 C54.669 10.058 53.962 10.053 53.234 10.049 C51.489 10.037 49.745 10.021 48 10 C48 8.68 48 7.36 48 6 C48.241 6.023 48.241 6.023 49.461 6.141 C49.777 6.159 49.777 6.159 51.375 6.25 C52.001 6.296 52.628 6.343 53.273 6.391 C53.843 6.262 54.413 6.133 55 6 C55.66 4.68 56.32 3.36 57 2 C38.19 1.67 19.38 1.34 0 1 C0 0.67 0 0.34 0 0 Z " fill="#322824" transform="translate(49,197)"/>
<path d="M0 0 C3.886 1.365 6.232 3.586 8.188 7.188 C8.456 7.786 8.724 8.384 9 9 C6.645 10.177 4.516 10.349 1.938 10.562 C1.452 10.604 0.966 10.645 0.465 10.687 C-9.413 11.465 -9.413 11.465 -13 11 C-13.66 10.34 -14.32 9.68 -15 9 C-13.02 9 -11.04 9 -9 9 C-9 8.34 -9 7.68 -9 7 C-9.66 7 -10.32 7 -11 7 C-11.244 4.639 -11.189 3.332 -10 1.25 C-6.82 -0.738 -3.648 -0.428 0 0 Z " fill="#261B16" transform="translate(83,245)"/>
<path d="M0 0 C0.33 0 0.66 0 1 0 C1.057 0.359 1.115 0.718 1.174 1.088 C4.641 22.762 8.229 44.413 11.947 66.045 C12.355 68.418 12.762 70.791 13.168 73.164 C13.246 73.619 13.324 74.075 13.404 74.544 C15.023 84.016 16.531 93.504 18 103 C16 102 16 102 15.551 100.721 C15.457 100.178 15.364 99.635 15.267 99.075 C15.156 98.455 15.044 97.835 14.929 97.197 C14.873 96.856 14.873 96.856 14.586 95.133 C14.46 94.42 14.334 93.707 14.205 92.973 C13.935 91.439 13.669 89.904 13.406 88.368 C13.008 86.049 12.599 83.733 12.185 81.417 C10.532 72.159 8.927 62.893 7.323 53.627 C6.622 49.58 5.919 45.534 5.207 41.489 C0.232 13.228 0.232 13.228 0 0 Z " fill="#494641" transform="translate(97,64)"/>
<path d="M0 0 C1.751 1.025 2.389 2.086 3 4 C3.507 6.155 3.605 7.858 3 10 C1.633 11.957 0.202 13.083 -2 14 C-5.08 14.246 -7.293 13.448 -9.875 11.812 C-11.511 9.177 -11.551 7.017 -11 4 C-9.41 -1.096 -4.593 -0.938 0 0 Z " fill="#F0EFEB" transform="translate(213,94)"/>
<path d="M0 0 C2 0 2 0 3.062 0.807 C7.583 6.393 6.429 13.604 6.25 20.375 C6.23 21.697 6.212 23.018 6.195 24.34 C6.151 27.561 6.083 30.78 6 34 C5.67 34 5.34 34 5 34 C4.67 27.4 4.34 20.8 4 14 C3.01 14.99 2.02 15.98 1 17 C-0.688 16.438 -0.688 16.438 -2 15 C-2.188 12.875 -2.188 12.875 -2 11 C-2.66 11 -3.32 11 -4 11 C-4 18.59 -4 26.18 -4 34 C-4.33 34 -4.66 34 -5 34 C-5.168 30.192 -5.328 26.383 -5.482 22.574 C-5.536 21.278 -5.591 19.982 -5.648 18.687 C-5.73 16.825 -5.805 14.963 -5.879 13.102 C-5.906 12.521 -5.933 11.941 -5.961 11.343 C-5.981 10.803 -6.001 10.262 -6.022 9.706 C-6.042 9.23 -6.062 8.755 -6.082 8.266 C-6 7 -6 7 -5 5 C-4.34 5 -3.68 5 -3 5 C-3 4.34 -3 3.68 -3 3 C-2.34 3 -1.68 3 -1 3 C-0.835 2.505 -0.67 2.01 -0.5 1.5 C-0.335 1.005 -0.17 0.51 0 0 Z " fill="#2D2520" transform="translate(242,77)"/>
<path d="M0 0 C2.469 0.607 3.437 1.583 5.051 3.504 C4.721 3.669 4.721 3.669 3.051 4.504 C2.988 4.749 2.988 4.749 2.668 5.988 C2.464 6.488 2.261 6.989 2.051 7.504 C0.309 8.207 0.309 8.207 -1.824 8.754 C-5.632 10.012 -5.632 10.012 -7.074 12.25 C-7.824 14.191 -7.824 14.191 -8.379 16.078 C-8.567 16.549 -8.755 17.019 -8.949 17.504 C-9.609 17.504 -10.269 17.504 -10.949 17.504 C-12.817 15.11 -14.314 12.094 -14.012 9.004 C-11.904 2.192 -6.644 -0.172 0 0 Z " fill="#130F0A" transform="translate(209.94921875,85.49609375)"/>
<path d="M0 0 C0.33 0.99 0.66 1.98 1 3 C1.338 2.844 1.675 2.688 2.023 2.527 C2.469 2.333 2.915 2.138 3.375 1.938 C3.816 1.74 4.257 1.543 4.711 1.34 C6 1 6 1 8 2 C8.207 3.811 8.278 5.44 8.25 7.25 C8.258 7.728 8.265 8.206 8.273 8.699 C8.254 12.206 7.741 14.925 6 18 C4.344 18.234 4.344 18.234 2.5 17.75 C-0.852 16.926 -0.852 16.926 -3 18 C-2.917 17.716 -2.917 17.716 -2.496 16.277 C-1.984 13.925 -1.967 11.961 -2.062 9.562 C-2.118 5.81 -1.714 3.321 0 0 Z " fill="#140F0A" transform="translate(54,90)"/>
<path d="M0 0 C0 0.99 0 1.98 0 3 C0.66 3 1.32 3 2 3 C2 3.66 2 4.32 2 5 C1.34 5 0.68 5 0 5 C0 5.66 0 6.32 0 7 C-0.474 6.917 -0.949 6.835 -1.438 6.75 C-1.953 6.833 -2.469 6.915 -3 7 C-3.688 9 -3.688 9 -4 11 C-9.145 10.546 -13.355 9.245 -18 7 C-17.515 6.867 -17.031 6.734 -16.531 6.598 C-16.026 6.4 -15.521 6.203 -15 6 C-14.835 5.484 -14.67 4.969 -14.5 4.438 C-14.335 3.963 -14.17 3.489 -14 3 C-13 3 -12 3 -11 3 C-10.608 2.505 -10.216 2.01 -9.812 1.5 C-6.904 -0.907 -3.632 -0.233 0 0 Z " fill="#29201B" transform="translate(184,215)"/>
<path d="M0 0 C0.33 0 0.66 0 1 0 C0.712 5.674 -0.224 9.679 -4 14 C-4.199 14.15 -4.199 14.15 -5.206 14.91 C-7.459 16.741 -8.814 18.143 -9.442 21.033 C-9.578 23.516 -9.563 25.973 -9.488 28.457 C-9.479 29.369 -9.472 30.281 -9.467 31.193 C-9.448 33.579 -9.399 35.964 -9.343 38.349 C-9.292 40.789 -9.269 43.23 -9.244 45.67 C-9.191 50.447 -9.106 55.223 -9 60 C-10.548 58.807 -10.968 58.198 -11.281 56.237 C-11.295 55.528 -11.308 54.819 -11.322 54.089 C-11.341 53.284 -11.361 52.48 -11.38 51.651 C-11.39 50.771 -11.399 49.891 -11.406 49.012 C-11.418 48.107 -11.429 47.203 -11.441 46.299 C-11.462 44.401 -11.473 42.504 -11.48 40.607 C-11.491 38.185 -11.539 35.765 -11.596 33.344 C-11.634 31.475 -11.644 29.606 -11.647 27.736 C-11.653 26.844 -11.669 25.952 -11.696 25.061 C-11.887 18.083 -11.887 18.083 -9.681 15.391 C-8.068 14.062 -8.068 14.062 -6.46 12.996 C-2.523 10.311 -1.501 5.762 -0.43 1.355 C-0.288 0.908 -0.146 0.461 0 0 Z " fill="#7F7D79" transform="translate(247,111)"/>
<path d="M0 0 C0.447 0.3 0.895 0.601 1.355 0.91 C1.419 2.561 1.302 3.859 1.043 5.473 C0.301 11.146 0.307 16.711 0.481 22.426 C0.547 26.185 0.431 28.727 -1.645 31.91 C-2.897 30.857 -3.577 30.253 -3.898 28.62 C-3.9 28.133 -3.902 27.646 -3.903 27.145 C-3.91 26.591 -3.916 26.037 -3.922 25.466 C-3.918 24.87 -3.914 24.274 -3.91 23.66 C-3.912 23.046 -3.914 22.432 -3.916 21.8 C-3.917 20.502 -3.914 19.204 -3.905 17.906 C-3.895 15.918 -3.905 13.93 -3.918 11.941 C-3.917 10.681 -3.914 9.421 -3.91 8.16 C-3.914 7.564 -3.918 6.968 -3.922 6.354 C-3.916 5.801 -3.91 5.247 -3.903 4.676 C-3.902 4.189 -3.9 3.702 -3.898 3.2 C-3.441 0.876 -2.349 -0.128 0 0 Z " fill="#EEEDE8" transform="translate(135.64453125,83.08984375)"/>
<path d="M0 0 C0.33 0 0.66 0 1 0 C0.476 6.689 -0.081 13.352 -1 20 C-1.33 20 -1.66 20 -2 20 C-2 18.35 -2 16.7 -2 15 C-2.494 15.084 -2.987 15.168 -3.496 15.254 C-4.137 15.356 -4.777 15.458 -5.438 15.562 C-6.076 15.667 -6.714 15.771 -7.371 15.879 C-7.909 15.919 -8.446 15.959 -9 16 C-9.33 15.67 -9.66 15.34 -10 15 C-10.66 15.99 -11.32 16.98 -12 18 C-11.885 16.082 -11.759 14.166 -11.625 12.25 C-11.594 11.711 -11.563 11.172 -11.531 10.617 C-11.286 7.259 -10.731 4.899 -9 2 C-7.22 4.601 -5.607 7.29 -4 10 C-2.596 8.861 -2.041 8.319 -1.805 6.492 C-1.828 5.959 -1.851 5.425 -1.875 4.875 C-1.884 4.606 -1.884 4.606 -1.93 3.242 C-1.953 2.832 -1.976 2.422 -2 2 C-1.34 2 -0.68 2 0 2 C0 1.34 0 0.68 0 0 Z M-9 11 C-8 13 -8 13 -8 13 Z " fill="#28221E" transform="translate(64,77)"/>
<path d="M0 0 C0.144 17.028 -0.215 33.99 -1 51 C-1.33 51 -1.66 51 -2 51 C-3.105 32.492 -3.105 32.492 -2.978 23.446 C-2.947 19.967 -3.184 16.582 -3.562 13.125 C-3.993 9.098 -4.404 4.883 -3 1 C-1 0 -1 0 0 0 Z " fill="#0F0A06" transform="translate(142,124)"/>
<path d="M0 0 C2.309 1.756 2.633 3.978 3.125 6.688 C3.167 6.909 3.167 6.909 3.382 8.029 C4.042 11.7 4.222 15.273 4 19 C3.34 19 2.68 19 2 19 C1.375 21 1.375 21 1 23 C0.34 22.67 -0.32 22.34 -1 22 C-1.195 20.371 -1.195 20.371 -1.125 18.438 C-1.107 17.797 -1.089 17.156 -1.07 16.496 C-1.059 16.249 -1.059 16.249 -1 15 C-1.124 15.804 -1.248 16.609 -1.375 17.438 C-1.586 18.809 -1.586 18.809 -2 20 C-2.66 20.33 -3.32 20.66 -4 21 C-5.483 18.033 -5.672 15.252 -5 12 C-3.79 10.573 -2.471 9.466 -1.043 8.262 C0 7 0 7 0.074 5.395 C-0.25 3.75 -0.25 3.75 -0.703 2.234 C-0.752 2.031 -0.752 2.031 -1 1 C-0.67 0.67 -0.34 0.34 0 0 Z " fill="#130D08" transform="translate(98,88)"/>
<path d="M0 0 C7.59 0 15.18 0 23 0 C23 0.66 23 1.32 23 2 C23.66 2.33 24.32 2.66 25 3 C21.827 5.158 20.03 4.981 16.348 4.293 C10.95 3.619 5.431 3.927 0 4 C0 2.68 0 1.36 0 0 Z " fill="#1C110A" transform="translate(51,167)"/>
<path d="M0 0 C0.133 0.491 0.266 0.982 0.402 1.488 C0.6 1.987 0.797 2.486 1 3 C2.562 3.188 2.562 3.188 4 3 C3.538 10.181 2.814 17.025 1 24 C-0.477 23.709 -0.477 23.709 -2 23 C-2.372 21.529 -2.372 21.529 -2.363 19.648 C-2.363 18.961 -2.362 18.274 -2.361 17.566 C-2.345 16.843 -2.329 16.12 -2.312 15.375 C-2.316 14.675 -2.319 13.975 -2.322 13.254 C-2.274 8.546 -1.534 4.448 0 0 Z " fill="#120D09" transform="translate(52,131)"/>
<path d="M0 0 C4.709 4.336 4.392 14.659 5.125 20.688 C5.213 21.4 5.3 22.112 5.391 22.846 C5.898 27.252 6.11 31.566 6 36 C5.5 35 5.5 35 3 30 C2.34 30 1.68 30 1 30 C0.806 28.855 0.62 27.709 0.438 26.562 C0.333 25.924 0.229 25.286 0.121 24.629 C0.081 24.091 0.041 23.554 0 23 C0.33 22.67 0.66 22.34 1 22 C1.129 20.513 1.129 20.513 1.133 18.613 C1.134 17.922 1.135 17.23 1.137 16.518 C1.133 15.79 1.129 15.062 1.125 14.312 C1.129 13.604 1.133 12.896 1.137 12.166 C1.129 8.009 0.855 4.071 0 0 Z " fill="#4F4743" transform="translate(91,28)"/>
<path d="M0 0 C0.66 0.33 1.32 0.66 2 1 C2.414 2.488 2.414 2.488 2.625 4.312 C2.7 4.907 2.775 5.501 2.852 6.113 C3.14 9.775 2.916 12.968 2.125 16.562 C1.963 17.327 1.8 18.091 1.633 18.879 C1.015 20.949 0.228 22.251 -1 24 C-1.337 21.369 -1.658 18.737 -1.964 16.102 C-2.071 15.207 -2.181 14.313 -2.296 13.419 C-2.462 12.13 -2.611 10.839 -2.758 9.547 C-2.852 8.772 -2.946 7.997 -3.043 7.198 C-2.986 4.274 -2.082 2.082 0 0 Z " fill="#211C18" transform="translate(87,43)"/>
<path d="M0 0 C0.33 0 0.66 0 1 0 C1.054 1.584 1.094 3.166 1.125 4.75 C1.133 4.972 1.133 4.972 1.176 6.094 C1.221 9.198 0.755 11.331 -1 14 C-1.66 14.144 -2.32 14.289 -3 14.438 C-5 15 -5 15 -5.668 16.164 C-6.008 17.08 -6.322 18.006 -6.605 18.941 C-6.736 19.291 -6.866 19.64 -7 20 C-7.33 20 -7.66 20 -8 20 C-7.714 17.658 -7.368 15.33 -7 13 C-6.878 12.197 -6.755 11.394 -6.629 10.566 C-6.483 9.761 -6.338 8.955 -6.188 8.125 C-6.057 7.364 -5.927 6.604 -5.793 5.82 C-5.531 5.22 -5.27 4.619 -5 4 C-2.969 3.34 -2.969 3.34 -1 3 C-0.312 1.438 -0.312 1.438 0 0 Z " fill="#251912" transform="translate(67,216)"/>
<path d="M0 0 C0.33 0 0.66 0 1 0 C1.244 2.452 1.459 4.904 1.647 7.361 C1.748 8.6 1.872 9.837 1.996 11.074 C2.351 15.92 2.102 18.943 -0.848 22.883 C-4.481 26.406 -9.492 26.229 -14.266 26.266 C-16.217 25.967 -16.808 25.532 -18 24 C-17.626 23.976 -17.626 23.976 -15.734 23.852 C-14.74 23.776 -13.745 23.701 -12.75 23.625 C-12.259 23.594 -11.768 23.563 -11.262 23.531 C-8.107 23.279 -5.713 22.765 -3 21 C-1.029 18.624 -0.716 16.82 -0.586 13.77 C-0.547 12.967 -0.509 12.165 -0.469 11.338 C-0.437 10.496 -0.406 9.654 -0.375 8.812 C-0.337 7.959 -0.298 7.105 -0.258 6.252 C-0.164 4.168 -0.078 2.084 0 0 Z " fill="#84827D" transform="translate(97,231)"/>
<path d="M0 0 C0.33 0 0.66 0 1 0 C2.05 6.881 2.778 12.771 -1 19 C-3.131 21.852 -5.523 24.448 -8 27 C-8.66 26.34 -9.32 25.68 -10 25 C-9.219 24.023 -8.438 23.047 -7.656 22.07 C-7 21 -7 21 -7 19 C-6.546 18.897 -6.093 18.794 -5.625 18.688 C-4 18 -4 18 -2.969 15.883 C-1.791 12.725 -1.327 9.514 -0.875 6.188 C-0.789 5.59 -0.702 4.993 -0.613 4.377 C-0.403 2.919 -0.199 1.46 0 0 Z " fill="#F0F0EB" transform="translate(223,174)"/>
<path d="M0 0 C0 0.66 0 1.32 0 2 C-0.819 2.79 -0.819 2.79 -1.984 3.551 C-2.419 3.835 -2.854 4.119 -3.302 4.412 C-3.541 4.56 -3.541 4.56 -4.75 5.312 C-4.994 5.466 -4.994 5.466 -6.231 6.245 C-14.089 11.04 -22.917 15.239 -32.25 15.062 C-32.709 15.058 -33.168 15.053 -33.641 15.049 C-34.76 15.037 -35.88 15.019 -37 15 C-37 14.67 -37 14.34 -37 14 C-36.636 13.957 -36.636 13.957 -34.797 13.738 C-23.783 12.267 -14.651 8.48 -5.476 2.236 C-5.262 2.09 -5.262 2.09 -4.18 1.355 C-3.806 1.094 -3.432 0.833 -3.046 0.563 C-2 0 -2 0 0 0 Z " fill="#615E5A" transform="translate(217,212)"/>
<path d="M0 0 C0.981 3.053 0.981 4.947 0 8 C0.66 8 1.32 8 2 8 C2.875 9.312 2.875 9.312 3 11 C0.128 14.246 -3.121 14.548 -7.293 15.082 C-7.856 15.055 -8.42 15.028 -9 15 C-9.33 14.34 -9.66 13.68 -10 13 C-8.02 13 -6.04 13 -4 13 C-4.119 12.529 -4.237 12.059 -4.359 11.574 C-4.755 9.663 -5.044 7.953 -5 6 C-3.862 4.518 -2.65 3.971 -1 3 C-0.25 1.312 -0.25 1.312 0 0 Z " fill="#28221F" transform="translate(216,101)"/>
<path d="M0 0 C0.33 0.66 0.66 1.32 1 2 C2.848 2.195 2.848 2.195 5.062 2.125 C5.796 2.107 6.529 2.089 7.285 2.07 C7.568 2.059 7.568 2.059 9 2 C9.168 3.395 9.168 3.395 9 5 C5.748 7.715 2.097 8.361 -2 8 C-1.859 6.854 -1.712 5.708 -1.562 4.562 C-1.481 3.924 -1.4 3.286 -1.316 2.629 C-1 1 -1 1 0 0 Z " fill="#1B120D" transform="translate(27,194)"/>
<path d="M0 0 C6.27 0 12.54 0 19 0 C19 0.33 19 0.66 19 1 C16.36 1.165 16.36 1.165 3 2 C3.33 4.31 3.66 6.62 4 9 C2.562 10.438 2.562 10.438 1 11 C0 9 0 9 0 0 Z " fill="#9F978F" transform="translate(67,207)"/>
<path d="M0 0 C0.33 0 0.66 0 1 0 C1.049 2.545 1.086 5.09 1.11 7.635 C1.12 8.502 1.134 9.368 1.151 10.234 C1.175 11.478 1.185 12.721 1.195 13.965 C1.206 14.714 1.216 15.463 1.227 16.234 C1.152 16.817 1.077 17.4 1 18 C0.34 18.33 -0.32 18.66 -1 19 C-1 18.01 -1 17.02 -1 16 C-1.474 16.186 -1.949 16.371 -2.438 16.562 C-2.695 16.635 -2.695 16.635 -4 17 C-5 16 -5 16 -5.098 14.809 C-5.065 13.539 -5.033 12.27 -5 11 C-4.528 11.113 -4.056 11.227 -3.57 11.344 C-3.052 11.23 -2.534 11.117 -2 11 C-1.283 9.235 -1.111 7.381 -0.875 5.5 C-0.617 3.656 -0.327 1.834 0 0 Z " fill="#F2F2EF" transform="translate(67,86)"/>
<path d="M0 0 C0.66 0 1.32 0 2 0 C2.594 1.01 2.594 1.01 3.07 2.406 C3.244 2.903 3.418 3.399 3.598 3.91 C3.772 4.435 3.946 4.959 4.125 5.5 C4.307 6.025 4.489 6.549 4.676 7.09 C5.125 8.391 5.566 9.694 6 11 C5.34 11 4.68 11 4 11 C3.948 11.371 3.948 11.371 3.688 13.25 C3.201 16.245 1.816 17.539 -0.59 19.285 C-2.843 20.427 -4.517 20.284 -7 20 C-6.608 19.752 -6.216 19.505 -5.812 19.25 C-4.295 18.203 -2.83 17.13 -1.375 16 C-0.95 15.67 -0.524 15.34 -0.086 15 C1.287 13.735 1.927 12.564 2.168 10.703 C2.221 6.794 1.44 3.625 0 0 Z " fill="#4B4540" transform="translate(132,186)"/>
<path d="M0 0 C0.99 0 1.98 0 3 0 C2.689 0.792 2.376 1.584 2.062 2.375 C1.888 2.816 1.714 3.257 1.535 3.711 C1.071 4.828 0.541 5.918 0 7 C0.66 7 1.32 7 2 7 C2 7.66 2 8.32 2 9 C1.042 9.054 0.084 9.093 -0.875 9.125 C-1.142 9.137 -1.142 9.137 -2.492 9.195 C-4 9 -4 9 -5.219 8.094 C-5.348 7.913 -5.348 7.913 -6 7 C-5.625 5.375 -5.625 5.375 -5 4 C-4.01 4.33 -3.02 4.66 -2 5 C-2 4.01 -2 3.02 -2 2 C-1.34 2 -0.68 2 0 2 C0 1.34 0 0.68 0 0 Z " fill="#19100B" transform="translate(72,245)"/>
<path d="M0 0 C4.677 1.477 4.677 1.477 6.312 4.125 C6.539 4.744 6.766 5.362 7 6 C2.658 8.171 -1.377 8.224 -6 7 C-5.691 6.887 -5.691 6.887 -4.125 6.312 C-1.267 4.547 -0.993 3.144 0 0 Z " fill="#1F1C17" transform="translate(214,87)"/>
<path d="M0 0 C3 0 3 0 5 1 C4.34 1.289 3.68 1.577 3 1.875 C2.67 2.061 2.67 2.061 1 3 C1 3.66 1 4.32 1 5 C1.217 4.887 1.217 4.887 2.312 4.312 C2.869 4.209 3.426 4.106 4 4 C5.688 5.438 5.688 5.438 7 7 C3.375 10 3.375 10 0 10 C0 6.7 0 3.4 0 0 Z " fill="#EDECE6" transform="translate(184,207)"/>
<path d="M0 0 C0.632 0.009 1.263 0.018 1.914 0.027 C2.396 0.039 2.878 0.051 3.375 0.062 C3.045 0.228 3.045 0.228 1.375 1.062 C1.375 1.722 1.375 2.382 1.375 3.062 C2.875 3.688 2.875 3.688 4.375 4.062 C3.715 4.062 3.055 4.062 2.375 4.062 C2.375 4.722 2.375 5.382 2.375 6.062 C0.065 6.062 -2.245 6.062 -4.625 6.062 C-4.625 5.073 -4.625 4.082 -4.625 3.062 C-4.955 2.403 -5.285 1.743 -5.625 1.062 C-3.455 -0.022 -2.383 -0.044 0 0 Z " fill="#18110C" transform="translate(209.625,107.9375)"/>
<path d="M0 0 C1.562 0.562 1.562 0.562 3 2 C2.967 4.395 2.518 6.666 2 9 C1.34 9 0.68 9 0 9 C-1.125 10 -1.125 10 -2 11 C-3.23 6.574 -3.23 6.574 -2.125 3.812 C-1.754 3.214 -1.382 2.616 -1 2 C-0.67 1.34 -0.34 0.68 0 0 Z " fill="#110A05" transform="translate(244,104)"/>
<path d="M0 0 C0.875 1.938 0.875 1.938 1 4 C0.67 4.165 0.67 4.165 -1 5 C-1 4.34 -1 3.68 -1 3 C-1.66 3 -2.32 3 -3 3 C-3.144 3.474 -3.289 3.949 -3.438 4.438 C-3.623 4.953 -3.809 5.469 -4 6 C-5.562 6.688 -5.562 6.688 -7 7 C-6.283 2.457 -6.283 2.457 -5.188 0.688 C-3.328 -0.389 -2.088 -0.404 0 0 Z M1 2 C1.66 2 2.32 2 3 2 C3 4.31 3 6.62 3 9 C2.67 9 2.34 9 2 9 C1.67 6.69 1.34 4.38 1 2 Z " fill="#2C241E" transform="translate(67,41)"/>
</svg>
