<?xml version="1.0" encoding="UTF-8"?>
<!-- Generator: visioncortex VTracer 0.6.12 -->
<svg version="1.1" xmlns="http://www.w3.org/2000/svg" width="255" height="255">
<path d="M0 0 C4.685 3.423 8.058 6.739 9.626 12.404 C10.287 14.56 10.908 16.346 12.625 17.875 C15.514 18.917 18.53 19.045 21.571 19.281 C35.407 20.369 48.511 27.513 57.552 37.978 C66.797 49.211 71.922 62.61 71.688 77.25 C71.683 77.795 71.678 78.341 71.674 78.902 C71.662 80.227 71.644 81.551 71.625 82.875 C72.022 82.715 72.419 82.555 72.828 82.391 C78.399 80.792 84.892 81.292 90.035 83.906 C97.23 88.29 100.532 93.695 102.875 101.75 C104.77 110.588 104.123 118.947 99.625 126.875 C93.946 135.358 85.779 141.845 75.812 144.312 C64.639 146.278 54.362 143.99 45.105 137.55 C37.685 132.068 32.58 124.441 30.827 115.326 C29.742 107.535 30.554 99.504 31.39 91.725 C31.662 88.826 31.682 85.952 31.656 83.043 C31.655 82.793 31.655 82.793 31.649 81.526 C31.644 80.309 31.635 79.092 31.625 77.875 C31.575 78.239 31.575 78.239 31.321 80.084 C27.801 105.511 27.801 105.511 24.933 116.496 C23.08 123.619 22.468 130.527 22.562 137.875 C22.567 138.554 22.572 139.234 22.576 139.934 C22.588 141.581 22.604 143.228 22.625 144.875 C23.002 144.774 23.379 144.672 23.767 144.568 C39.048 140.571 39.048 140.571 45.625 143.875 C47.308 145.368 47.875 146.788 48.625 148.875 C48.799 149.348 48.972 149.82 49.151 150.307 C50.744 155.211 51.03 159.993 51.051 165.101 C51.063 166.506 51.112 167.908 51.162 169.312 C51.278 175.825 51.278 175.825 49.551 178.601 C46.944 181.27 44.528 182.987 40.719 183.043 C39.521 183.057 38.323 183.063 37.125 183.062 C36.499 183.067 35.874 183.072 35.229 183.078 C30.409 183.049 26.264 182.265 21.711 180.727 C19.625 180.875 19.625 180.875 18.47 181.874 C15.109 186.191 15.216 190.17 15.5 195.438 C16.002 216.493 16.002 216.493 9.551 223.508 C3.658 227.692 -1.846 228.384 -8.863 228.321 C-10.308 228.313 -11.749 228.341 -13.193 228.373 C-19.947 228.424 -25.367 227.325 -30.677 222.754 C-36.271 216.54 -35.69 207.963 -35.636 200.141 C-35.625 198.313 -35.636 196.486 -35.648 194.658 C-35.647 193.479 -35.645 192.3 -35.641 191.121 C-35.645 190.583 -35.649 190.046 -35.653 189.492 C-35.59 184.291 -34.247 180.183 -31.375 175.875 C-30.742 173.613 -30.742 173.613 -30.25 171.188 C-30.164 170.772 -30.077 170.356 -29.988 169.928 C-29.778 168.911 -29.576 167.893 -29.375 166.875 C-29.563 166.838 -29.563 166.838 -30.512 166.648 C-35.255 165.43 -37.874 163.063 -40.375 158.875 C-41.158 156.181 -41.339 153.543 -41.5 150.75 C-41.639 149.139 -41.781 147.528 -41.926 145.918 C-41.943 145.711 -41.943 145.711 -42.032 144.663 C-42.42 140.107 -43.022 135.586 -43.688 131.062 C-43.747 130.654 -43.807 130.245 -43.869 129.825 C-45.155 121.209 -47.17 112.794 -49.289 104.352 C-50.158 100.871 -50.855 97.424 -51.375 93.875 C-51.365 94.164 -51.365 94.164 -51.312 95.628 C-50.847 110.405 -50.887 122.404 -61.375 133.875 C-68.003 140.742 -75.954 144.635 -85.484 144.969 C-96.188 144.881 -106.178 140.278 -113.712 132.8 C-120.113 125.94 -123.026 117.721 -122.846 108.365 C-122.333 99.974 -119.22 92.407 -113.219 86.469 C-108.083 82.029 -103.049 81.466 -96.512 81.672 C-94.375 81.875 -94.375 81.875 -92.375 82.875 C-92.392 82.601 -92.392 82.601 -92.48 81.215 C-93.025 65.267 -88.033 49.118 -77.434 36.965 C-67.895 26.89 -55.094 20.73 -41.375 18.875 C-40.497 18.868 -39.62 18.874 -38.742 18.891 C-36.05 18.903 -33.929 18.811 -31.375 17.875 C-29.845 15.491 -29.107 13.208 -28.289 10.52 C-26.751 5.593 -23.037 1.645 -18.688 -1.062 C-12.713 -3.556 -5.546 -3.256 0 0 Z " fill="#080808" transform="translate(135.375,17.125)"/>
<path d="M0 0 C0.528 -0.005 1.055 -0.01 1.599 -0.015 C3.332 -0.03 5.065 -0.036 6.799 -0.042 C7.397 -0.045 7.995 -0.048 8.611 -0.051 C11.783 -0.066 14.954 -0.075 18.126 -0.079 C21.368 -0.085 24.609 -0.109 27.851 -0.137 C30.373 -0.156 32.894 -0.161 35.416 -0.162 C36.609 -0.165 37.802 -0.173 38.995 -0.187 C49.32 -0.294 59.481 0.989 68.732 5.911 C69.226 6.169 69.72 6.428 70.229 6.694 C81.913 13.047 88.54 22.865 92.329 35.482 C94.187 42.18 94.6 48.618 94.404 55.544 C94.377 57.139 94.351 58.734 94.326 60.329 C94.283 62.816 94.234 65.302 94.16 67.788 C94.093 70.207 94.059 72.624 94.029 75.044 C94 75.784 93.971 76.523 93.941 77.285 C93.922 81.097 94.17 83.321 96.873 86.136 C98.595 87.661 99.396 88.141 101.685 88.685 C102.361 88.636 103.036 88.587 103.732 88.536 C104.418 88.503 105.104 88.469 105.81 88.435 C107.482 88.161 107.482 88.161 108.482 87.161 C108.955 85.086 108.943 83.237 108.482 81.161 C107.33 79.677 107.33 79.677 105.92 78.224 C104.366 76.542 103.551 75.654 103.232 73.368 C103.578 69.993 104.456 67.052 107.119 64.825 C110.181 63.334 113.213 63.443 116.482 64.161 C120.721 66.304 123.417 69.717 125.002 74.153 C126.53 80.54 126.324 85.711 123.045 91.411 C119.497 97.102 114.373 100.216 108.482 103.161 C99.939 104.321 91.534 104.265 84.47 98.942 C81.528 96.436 79.261 93.592 77.482 90.161 C77.135 89.5 76.787 88.839 76.429 88.158 C74.992 84.495 75.277 80.657 75.362 76.79 C75.393 75.371 75.409 73.952 75.422 72.533 C75.462 68.502 75.527 64.471 75.599 60.44 C75.642 57.964 75.67 55.488 75.689 53.011 C75.699 52.079 75.716 51.146 75.738 50.214 C75.993 39.728 73.566 29.926 66.365 21.919 C57.566 14.091 44.746 12.84 33.521 12.86 C32.6 12.856 31.679 12.852 30.758 12.847 C28.844 12.84 26.93 12.84 25.015 12.845 C23.08 12.85 21.145 12.843 19.21 12.825 C-10.26 12.55 -10.26 12.55 -21.819 23.38 C-28.581 31.108 -29.704 39.655 -29.501 49.484 C-29.474 50.869 -29.457 52.254 -29.442 53.639 C-29.399 57.573 -29.352 61.507 -29.271 65.44 C-29.222 67.859 -29.193 70.278 -29.177 72.697 C-29.167 73.608 -29.15 74.519 -29.125 75.43 C-28.926 82.86 -30.354 89.589 -35.229 95.466 C-41.263 101.16 -45.582 103.636 -53.982 103.513 C-62.077 103.149 -67.988 100.083 -73.518 94.161 C-77.559 89.405 -78.115 84.823 -77.772 78.81 C-77.309 73.372 -76.299 68.804 -72.069 65.048 C-68.945 63.262 -65.951 63.338 -62.518 64.161 C-59.921 65.407 -58.146 66.775 -56.518 69.161 C-55.721 72.112 -55.844 74.712 -57.139 77.497 C-57.893 78.599 -57.893 78.599 -59.518 80.161 C-60.178 80.161 -60.838 80.161 -61.518 80.161 C-61.572 81.119 -61.611 82.077 -61.643 83.036 C-61.666 83.57 -61.689 84.103 -61.713 84.653 C-61.518 86.161 -61.518 86.161 -60.69 87.345 C-58.037 89.193 -54.256 88.241 -51.205 87.911 C-49.518 87.161 -49.518 87.161 -48.912 85.614 C-48.35 82.117 -48.456 78.703 -48.526 75.169 C-48.543 73.56 -48.56 71.95 -48.576 70.341 C-48.606 67.829 -48.642 65.317 -48.689 62.806 C-49.005 44.96 -47.346 27.896 -34.755 14.183 C-25.941 5.274 -12.442 0.029 0 0 Z " fill="#F8F8F8" transform="translate(101.517822265625,45.8388671875)"/>
<path d="M0 0 C0.997 -0.015 1.995 -0.007 2.992 0.018 C3.537 0.016 4.082 0.013 4.643 0.011 C6.446 0.009 8.248 0.035 10.05 0.062 C11.301 0.067 12.551 0.07 13.801 0.072 C16.422 0.08 19.042 0.1 21.662 0.131 C25.027 0.171 28.392 0.189 31.757 0.198 C34.959 0.208 38.161 0.228 41.363 0.249 C41.977 0.253 42.592 0.256 43.225 0.26 C44.956 0.271 46.687 0.29 48.418 0.311 C48.935 0.313 49.452 0.316 49.984 0.319 C53.525 0.373 53.525 0.373 54.64 1.488 C54.801 2.958 54.801 2.958 54.849 4.876 C54.859 5.237 54.859 5.237 54.907 7.061 C54.921 7.852 54.935 8.642 54.949 9.456 C54.964 10.276 54.979 11.095 54.995 11.939 C55.038 14.622 55.06 17.305 55.078 19.988 C55.081 20.442 55.085 20.897 55.088 21.365 C55.185 35.762 53.863 48.818 49.708 62.668 C47.894 68.807 47.24 75.13 46.64 81.488 C45.391 81.542 44.141 81.581 42.89 81.613 C42.194 81.636 41.498 81.659 40.781 81.683 C38.64 81.488 38.64 81.488 36.902 80.499 C33.408 78.936 29.986 79.159 26.203 79.175 C25.452 79.159 24.701 79.143 23.927 79.126 C19.481 79.123 15.968 79.326 12.64 82.488 C9.235 86.234 9.116 90.433 8.953 95.3 C8.919 95.993 8.884 96.686 8.849 97.4 C8.767 99.096 8.698 100.791 8.64 102.488 C7.98 102.158 7.32 101.828 6.64 101.488 C6.333 100.386 6.333 100.386 6.249 98.989 C6.211 98.461 6.174 97.933 6.135 97.389 C6.102 96.808 6.069 96.227 6.035 95.628 C5.942 94.368 5.848 93.108 5.753 91.847 C5.705 91.178 5.657 90.508 5.607 89.818 C4.573 75.867 2.184 62.711 -1.393 49.202 C-3.927 39.608 -4.546 30.619 -4.545 20.714 C-4.547 18.728 -4.566 16.743 -4.584 14.757 C-4.587 13.485 -4.589 12.213 -4.59 10.941 C-4.597 10.352 -4.605 9.764 -4.612 9.157 C-4.609 8.603 -4.606 8.048 -4.603 7.477 C-4.604 6.995 -4.606 6.513 -4.607 6.016 C-4.061 2.641 -3.523 0.728 0 0 Z " fill="#FCFCFC" transform="translate(98.35975646972656,68.51225280761719)"/>
<path d="M0 0 C0.294 -0.003 0.294 -0.003 1.781 -0.016 C4.009 0.329 4.87 0.655 6.5 2.25 C7.018 4.449 7.034 6.65 7.09 8.902 C7.153 10.249 7.216 11.596 7.279 12.943 C7.362 15.067 7.438 17.192 7.509 19.316 C7.582 21.367 7.679 23.415 7.777 25.465 C7.791 26.099 7.805 26.734 7.819 27.387 C8.042 31.803 8.042 31.803 9.421 33.149 C9.602 33.263 9.602 33.263 10.516 33.841 C12.5 35.25 12.5 35.25 12.986 37.698 C12.999 38.66 12.989 39.621 12.961 40.582 C12.96 40.839 12.96 40.839 12.958 42.14 C12.952 43.227 12.936 44.314 12.912 45.401 C12.875 47.047 12.871 48.691 12.871 50.338 C12.795 62.11 12.795 62.11 10.5 65.25 C7.082 66.863 3.194 66.434 -0.5 66.438 C-0.862 66.444 -0.862 66.444 -2.695 66.475 C-3.394 66.477 -4.093 66.478 -4.812 66.48 C-5.448 66.485 -6.084 66.489 -6.738 66.493 C-8.927 66.191 -9.91 65.8 -11.5 64.25 C-12.54 60.737 -12.683 57.264 -12.738 53.617 C-12.746 53.099 -12.754 52.58 -12.763 52.046 C-12.776 50.959 -12.787 49.871 -12.795 48.784 C-12.807 47.674 -12.827 46.565 -12.857 45.456 C-12.899 43.842 -12.916 42.231 -12.926 40.617 C-12.943 40.123 -12.961 39.63 -12.979 39.121 C-12.97 37.722 -12.924 36.585 -12.5 35.25 C-11.488 34.529 -10.473 33.81 -9.422 33.148 C-7.423 31.202 -7.834 28.087 -7.777 25.465 C-7.762 25.136 -7.762 25.136 -7.682 23.474 C-7.582 21.379 -7.507 19.284 -7.438 17.188 C-7.362 15.088 -7.281 12.989 -7.183 10.89 C-7.122 9.585 -7.074 8.28 -7.042 6.974 C-6.842 2.585 -6.842 2.585 -5.071 0.851 C-3.281 0.166 -1.915 -0.017 0 0 Z " fill="#FBFBFB" transform="translate(124.5,165.75)"/>
<path d="M0 0 C0.99 0 1.98 0 3 0 C3.471 1.81 3.738 3.406 3.938 5.25 C4.828 11.5 4.828 11.5 6.938 13.625 C10.707 16.138 13.779 16.13 18.188 16.062 C18.746 16.058 19.305 16.053 19.881 16.049 C21.254 16.037 22.627 16.021 24 16 C23.972 15.578 23.943 15.156 23.914 14.72 C23.903 14.446 23.903 14.446 23.848 13.059 C23.819 12.513 23.791 11.967 23.762 11.404 C23.841 10.941 23.919 10.477 24 10 C25.632 9.071 27.133 8.859 29 9 C32.055 12.055 31.057 19.867 31.068 23.925 C31.06 26.95 31.038 29.975 31 33 C27.634 33.531 27.634 33.531 26 33 C25.478 31.686 25.478 31.686 25.141 30.039 C24.721 28.38 24.721 28.38 24 27 C21.602 26.078 19.287 26.253 16.75 26.375 C16.094 26.369 15.438 26.362 14.762 26.355 C10.361 26.452 7.694 27.42 4.235 30.147 C3 31 3 31 1 31 C0.67 20.77 0.34 10.54 0 0 Z " fill="#F5F5F5" transform="translate(142,158)"/>
<path d="M0 0 C2.912 0.699 4.998 1.975 6.742 4.418 C7.402 6.398 8.062 8.378 8.742 10.418 C2.472 10.418 -3.798 10.418 -10.258 10.418 C-8.96 3.929 -7.344 -0.583 0 0 Z " fill="#E8E8E7" transform="translate(126.2578125,25.58203125)"/>
</svg>
