<?xml version="1.0" encoding="UTF-8"?>
<!-- Generator: visioncortex VTracer 0.6.12 -->
<svg version="1.1" xmlns="http://www.w3.org/2000/svg" width="302" height="302">
<path d="M0 0 C2.623 2.156 3.868 4.307 4.5 7.641 C4.789 11.868 3.668 14.482 1.254 17.906 C0.184 18.973 0.184 18.973 -1.816 18.973 C-1.816 19.633 -1.816 20.293 -1.816 20.973 C-3.267 21.957 -4.65 22.784 -6.191 23.598 C-6.604 23.827 -7.016 24.057 -7.441 24.293 C-9.362 25.334 -10.601 25.973 -12.816 25.973 C-12.816 26.633 -12.816 27.293 -12.816 27.973 C-13.715 28.807 -13.715 28.807 -14.977 29.637 C-15.437 29.95 -15.898 30.263 -16.373 30.586 C-16.87 30.92 -17.367 31.254 -17.879 31.598 C-25.696 37.083 -31.146 43.001 -34.816 51.973 C-35.092 52.637 -35.368 53.3 -35.652 53.984 C-36.511 56.285 -37.208 58.596 -37.816 60.973 C-37.938 61.438 -38.06 61.904 -38.186 62.383 C-42.637 80.658 -36.812 101.234 -29.943 118.185 C-28.957 120.617 -27.991 123.056 -27.031 125.499 C-26.196 127.62 -25.357 129.74 -24.517 131.859 C-24.092 132.934 -23.668 134.01 -23.246 135.086 C-22.014 138.229 -20.756 141.358 -19.448 144.47 C-19.024 145.48 -18.604 146.491 -18.19 147.505 C-17.591 148.952 -16.962 150.38 -16.32 151.809 C-16.144 152.245 -15.968 152.681 -15.787 153.13 C-15.233 154.31 -15.233 154.31 -13.816 155.973 C-11.04 156.198 -8.315 155.073 -5.789 154.012 C-0.537 152.029 5.215 151.835 10.477 153.852 C17.665 157.938 21.242 163.887 23.559 171.652 C23.765 172.418 23.971 173.184 24.184 173.973 C24.39 174.718 24.596 175.463 24.809 176.23 C26.521 183.057 27.654 190.109 24.328 196.586 C20.816 200.841 16.316 203.069 11.309 205.16 C10.722 205.42 10.136 205.68 9.531 205.947 C5.448 207.684 1.597 208.56 -2.816 208.973 C1.439 218.755 5.779 228.438 10.847 237.831 C21.889 258.302 21.889 258.302 20.184 267.973 C19.381 269.865 18.76 270.578 17.184 271.973 C16.524 271.973 15.864 271.973 15.184 271.973 C15.184 272.633 15.184 273.293 15.184 273.973 C13.858 274.795 13.858 274.795 12 275.594 C11.324 275.888 10.648 276.183 9.951 276.486 C9.224 276.791 8.496 277.096 7.746 277.41 C7.011 277.722 6.276 278.034 5.519 278.356 C3.413 279.241 1.3 280.111 -0.816 280.973 C-1.063 281.074 -1.063 281.074 -2.312 281.59 C-8.478 284.087 -14.466 285.335 -20.949 283.305 C-27.444 280.082 -29.343 274.611 -31.909 268.205 C-33.585 264.082 -35.379 260.011 -37.155 255.931 C-37.813 254.417 -38.468 252.902 -39.122 251.387 C-42.12 244.459 -45.285 237.648 -48.816 230.973 C-50.693 232.053 -52.568 233.137 -54.441 234.223 C-54.994 234.543 -55.546 234.863 -56.116 235.192 C-58.878 236.803 -61.578 238.438 -64.191 240.285 C-69.239 243.704 -74.764 244.992 -80.816 243.973 C-90.887 240.876 -98.124 233.355 -103.003 224.265 C-105.358 219.402 -106.992 213.131 -105.476 207.768 C-104.317 204.751 -102.848 202.441 -100.535 200.16 C-100.194 199.823 -99.853 199.485 -99.502 199.137 C-94.466 194.422 -88.314 191.286 -82.316 187.973 C-81.1 187.288 -79.883 186.601 -78.668 185.914 C-75.725 184.253 -72.774 182.607 -69.816 180.973 C-71.169 177.504 -72.637 174.128 -74.242 170.77 C-74.472 170.287 -74.701 169.805 -74.938 169.309 C-75.422 168.293 -75.907 167.278 -76.392 166.263 C-77.12 164.742 -77.842 163.219 -78.564 161.695 C-82.486 153.471 -82.486 153.471 -84.787 149.55 C-88.012 144.045 -89.953 138.285 -91.879 132.223 C-92.225 131.155 -92.572 130.088 -92.92 129.02 C-93.752 126.459 -94.573 123.894 -95.387 121.326 C-95.773 120.11 -96.161 118.895 -96.55 117.68 C-97.123 115.884 -97.692 114.085 -98.254 112.285 C-98.405 111.8 -98.557 111.315 -98.713 110.815 C-103.82 94.02 -104.43 70.103 -96.414 54.02 C-93.302 48.238 -89.457 42.952 -85.504 37.723 C-85.071 37.149 -84.639 36.576 -84.193 35.985 C-83.784 35.46 -83.375 34.935 -82.953 34.395 C-82.589 33.926 -82.225 33.458 -81.85 32.976 C-80.816 31.973 -80.816 31.973 -78.816 31.973 C-78.367 31.027 -77.92 30.08 -77.487 29.127 C-76.163 26.848 -74.041 25.345 -72.004 23.723 C-71.524 23.336 -71.044 22.949 -70.55 22.55 C-60.193 14.396 -48.605 7.962 -36.066 3.91 C-35.871 3.847 -35.871 3.847 -34.884 3.525 C-8.383 -5.106 -8.383 -5.106 0 0 Z " fill="#1F140F" transform="translate(123.81640625,8.02734375)"/>
<path d="M0 0 C0.491 0.259 0.982 0.517 1.487 0.784 C21.559 11.431 35.819 25.851 46 46 C46.32 46.626 46.639 47.253 46.969 47.898 C50.941 56.36 51.376 65.508 51.312 74.688 C51.311 75.21 51.31 75.733 51.309 76.272 C51.27 85.147 50.304 93.408 48 102 C47.756 103 47.514 104 47.273 105 C45.978 110.228 44.232 115.189 42.156 120.156 C40.997 122.954 39.969 125.795 38.935 128.641 C35.286 138.631 31.163 148.394 25.965 157.688 C25.636 158.277 25.307 158.867 24.969 159.474 C24.34 160.586 23.699 161.692 23.045 162.79 C21.754 165.052 21.011 166.525 20.949 169.16 C22.566 171.991 24.935 172.877 27.812 174.25 C29.002 174.858 30.19 175.47 31.375 176.086 C31.98 176.4 32.584 176.714 33.207 177.038 C41.978 181.744 51.406 187.812 56 197 C57.164 205.242 55.931 210.773 50.984 217.465 C50.325 218.311 49.664 219.157 49 220 C48.717 220.382 48.434 220.763 48.143 221.157 C43.525 227.377 37.553 232.392 30.004 234.578 C21.385 235.367 12.137 228.317 5.209 223.83 C3.695 222.871 2.283 222.075 0.545 221.614 C-1 222 -1 222 -1.698 222.899 C-2.461 224.268 -3.126 225.658 -3.777 227.082 C-4.03 227.611 -4.283 228.14 -4.543 228.684 C-5.079 229.813 -5.609 230.944 -6.134 232.077 C-6.919 233.773 -7.722 235.46 -8.529 237.146 C-11.203 242.789 -13.596 248.441 -15.657 254.334 C-16.861 257.734 -18.27 260.846 -20.25 263.875 C-20.398 264.102 -20.398 264.102 -21.147 265.249 C-24.005 269.383 -27.113 272.38 -32 274 C-34.862 274.254 -37.241 273.744 -40 273 C-40.714 272.844 -41.428 272.688 -42.164 272.527 C-47.927 271.072 -53.119 268.631 -58.438 266 C-59.136 265.656 -59.835 265.311 -60.555 264.957 C-61.216 264.62 -61.877 264.284 -62.559 263.938 C-63.15 263.637 -63.741 263.337 -64.349 263.027 C-66.208 261.871 -67.568 260.654 -69 259 C-71.948 246.311 -64.031 232.977 -57.8 222.397 C-56.093 219.416 -54.485 216.381 -52.871 213.35 C-52.262 212.21 -51.648 211.074 -51.034 209.938 C-50.845 209.584 -50.845 209.584 -49.891 207.793 C-49.721 207.476 -49.721 207.476 -48.86 205.872 C-47.97 203.934 -47.451 202.08 -47 200 C-47.468 199.88 -47.936 199.76 -48.418 199.636 C-69.707 194.068 -69.707 194.068 -74.699 186.688 C-76.3 183.817 -76.5 181.243 -76.438 178 C-76.433 177.719 -76.433 177.719 -76.412 176.298 C-76 165.75 -72.246 155.76 -65 148 C-59.931 143.567 -55.006 142.425 -48.334 142.798 C-46.83 143.026 -45.557 143.472 -44.141 144.023 C-41.342 145.113 -39.03 145.927 -36 146 C-33.524 143.62 -32.647 140.824 -31.567 137.614 C-30.795 135.416 -29.837 133.319 -28.881 131.196 C-26.166 125.108 -23.738 118.895 -21.312 112.688 C-21.027 111.959 -20.742 111.231 -20.448 110.48 C-12.833 90.804 -5.996 61.544 -15 41 C-20.476 29.165 -30.022 21.494 -41.168 15.18 C-41.435 15.029 -41.435 15.029 -42.784 14.264 C-43.813 13.689 -44.848 13.124 -45.889 12.572 C-50.036 10.283 -53.11 7.525 -54.715 2.973 C-55.214 -1.307 -54.964 -4.158 -52.887 -7.969 C-52.594 -8.309 -52.301 -8.649 -52 -9 C-51.34 -9 -50.68 -9 -50 -9 C-50 -9.66 -50 -10.32 -50 -11 C-36.538 -17.709 -11.818 -6.433 0 0 Z " fill="#1C130E" transform="translate(227,18)"/>
<path d="M0 0 C0.781 0.018 1.562 0.036 2.367 0.055 C2.947 0.078 3.527 0.101 4.125 0.125 C2.048 2.473 -0.017 3.835 -2.745 5.267 C-20.583 14.702 -30.619 29.393 -36.875 48.125 C-37.796 51.232 -38.076 54.206 -38.148 57.43 C-38.161 57.941 -38.174 58.453 -38.187 58.98 C-38.761 88.152 -29.433 115.349 -16.809 141.445 C-16.642 141.792 -16.642 141.792 -15.797 143.544 C-15.154 144.862 -14.499 146.175 -13.832 147.482 C-13.546 148.064 -13.26 148.646 -12.965 149.246 C-12.706 149.756 -12.446 150.266 -12.179 150.791 C-12.079 151.231 -11.979 151.671 -11.875 152.125 C-13.041 153.787 -14.369 154.46 -16.246 155.133 C-16.729 155.311 -17.212 155.489 -17.71 155.673 C-18.239 155.863 -18.768 156.054 -19.312 156.25 C-25.34 158.488 -31.268 160.929 -37.188 163.438 C-37.619 163.62 -38.051 163.803 -38.495 163.991 C-40.956 165.033 -43.416 166.078 -45.875 167.125 C-58.404 143.707 -70.696 119.385 -75.875 93.125 C-75.988 92.604 -76.101 92.082 -76.217 91.545 C-79.782 75.062 -79.051 57.888 -69.75 43.425 C-55.725 22.602 -36.057 10.285 -12.406 2.629 C-11.37 2.288 -10.341 1.929 -9.317 1.554 C-6.057 0.378 -3.469 -0.105 0 0 Z " fill="#FBFBF9" transform="translate(110.875,16.875)"/>
<path d="M0 0 C6.807 -0.44 12.219 0.632 18.562 3 C18.992 3.156 19.422 3.312 19.865 3.473 C44.009 12.256 65.186 25.47 77 49 C77.336 49.669 77.673 50.338 78.02 51.027 C81.269 58.087 82.369 65.215 82.312 72.938 C82.311 73.142 82.311 73.142 82.306 74.175 C82.177 89.622 78.234 103.568 73 118 C72.507 119.4 72.015 120.799 71.523 122.199 C69.017 129.215 66.218 135.942 62.751 142.538 C60.976 145.938 59.401 149.363 57.953 152.91 C57.604 153.752 57.254 154.594 56.904 155.436 C56.387 156.681 55.879 157.926 55.396 159.184 C54.464 161.607 53.546 163.904 52 166 C49.603 166.175 49.045 166.005 47 165 C46.76 164.904 46.76 164.904 45.548 164.42 C43.907 163.759 42.3 163.04 40.688 162.312 C32.911 158.883 24.98 155.916 17 153 C18.586 147.781 20.755 142.891 22.968 137.918 C43.479 91.702 43.479 91.702 43.375 66.812 C43.374 66.318 43.374 65.823 43.373 65.313 C43.278 46.302 37.204 30.724 24 17 C18.436 11.563 12.135 7.725 5.202 4.257 C4.67 3.989 4.138 3.721 3.59 3.445 C3.114 3.213 2.638 2.982 2.148 2.743 C1 2 1 2 0 0 Z " fill="#FAFAF8" transform="translate(184,17)"/>
<path d="M0 0 C1.592 1.592 1.237 3.611 1.25 5.75 C1.246 9.86 0.966 12.916 -2 16 C-4.738 18.683 -7.114 20.424 -11 21 C-11 20.34 -11 19.68 -11 19 C-10.01 19 -9.02 19 -8 19 C-8 18.34 -8 17.68 -8 17 C-7.34 17 -6.68 17 -6 17 C-6.99 15.68 -7.98 14.36 -9 13 C-8.01 12.67 -7.02 12.34 -6 12 C-6.165 11.505 -6.165 11.505 -7 9 C-7.33 9.66 -7.66 10.32 -8 11 C-8.33 10.835 -8.33 10.835 -10 10 C-9.67 9.01 -9.34 8.02 -9 7 C-38.381 13.784 -66.406 25.262 -83.061 51.79 C-94.151 70.337 -91.999 90.351 -86.947 110.544 C-83.647 123.017 -78.909 135.668 -72.967 147.125 C-70.848 151.233 -68.953 155.455 -67 159.645 C-64.742 164.47 -62.406 169.246 -60 174 C-56.746 172.651 -53.493 171.3 -50.24 169.947 C-49.138 169.489 -48.036 169.031 -46.933 168.574 C-40.248 165.802 -33.594 162.981 -27 160 C-27.262 159.42 -27.524 158.841 -27.794 158.243 C-28.776 156.073 -29.756 153.901 -30.735 151.73 C-31.158 150.794 -31.581 149.858 -32.004 148.922 C-32.616 147.57 -33.226 146.217 -33.836 144.863 C-34.022 144.452 -34.209 144.04 -34.401 143.616 C-38.309 134.933 -38.309 134.933 -38 132 C-37.801 132.006 -37.801 132.006 -36.793 132.035 C-31.531 132.125 -31.531 132.125 -29 131 C-29 131.99 -29 132.98 -29 134 C-28.534 133.947 -28.067 133.895 -27.587 133.84 C-27.063 133.893 -26.539 133.946 -26 134 C-25.2 135.07 -25.2 135.07 -24.613 136.555 C-24.397 137.087 -24.181 137.619 -23.959 138.168 C-23.746 138.731 -23.532 139.295 -23.312 139.875 C-23.088 140.431 -22.863 140.986 -22.631 141.559 C-21 145.673 -21 145.673 -21 148 C-21.66 148 -22.32 148 -23 148 C-23.232 150.047 -23.352 151.963 -23 154 C-21.038 155.488 -19.846 156.065 -17.375 155.875 C-16.921 155.916 -16.468 155.958 -16 156 C-14.875 157.875 -14.875 157.875 -14 160 C-13.67 160.66 -13.34 161.32 -13 162 C-13.66 162 -14.32 162 -15 162 C-15 162.66 -15 163.32 -15 164 C-13.02 163.67 -13.02 163.67 -3 162 C-5.116 164.116 -6.9 164.853 -9.637 165.812 C-10.604 166.164 -11.572 166.515 -12.539 166.866 C-13.051 167.05 -13.563 167.234 -14.091 167.424 C-38.287 176.154 -61.451 186.881 -83.625 199.938 C-84.21 200.279 -84.795 200.62 -85.398 200.971 C-88.97 203.134 -92.55 205.555 -95 209 C-95.605 213.779 -92.603 218.222 -90 222 C-84.036 229.673 -84.036 229.673 -80.517 230.238 C-75.342 230.463 -72.276 228.864 -68.062 226 C-67.474 225.618 -66.886 225.237 -66.279 224.844 C-64.843 223.91 -63.418 222.962 -62 222 C-61.67 222.66 -61.34 223.32 -61 224 C-58.442 225.481 -56.134 224.768 -53.402 224.156 C-52 224 -52 224 -50 225 C-48.996 226.812 -48.996 226.812 -49 229 C-50.779 230.719 -52.905 231.816 -55.062 233 C-56.221 233.666 -57.378 234.332 -58.535 235 C-59.111 235.326 -59.688 235.653 -60.281 235.989 C-62.473 237.278 -64.564 238.692 -66.651 240.144 C-71.276 243.079 -76.635 243.904 -82 243 C-92.07 239.903 -99.308 232.382 -104.187 223.292 C-106.542 218.43 -108.175 212.159 -106.66 206.795 C-105.501 203.778 -104.031 201.468 -101.719 199.188 C-101.378 198.85 -101.037 198.512 -100.685 198.164 C-95.649 193.45 -89.498 190.313 -83.5 187 C-82.283 186.315 -81.067 185.629 -79.852 184.941 C-76.909 183.28 -73.958 181.634 -71 180 C-72.353 176.532 -73.821 173.155 -75.426 169.797 C-75.655 169.315 -75.885 168.833 -76.121 168.336 C-76.605 167.32 -77.09 166.305 -77.576 165.291 C-78.303 163.769 -79.026 162.246 -79.748 160.723 C-83.669 152.498 -83.669 152.498 -85.971 148.577 C-89.196 143.072 -91.136 137.312 -93.062 131.25 C-93.409 130.182 -93.756 129.115 -94.104 128.048 C-94.936 125.486 -95.756 122.921 -96.57 120.354 C-96.956 119.138 -97.345 117.923 -97.733 116.708 C-98.307 114.911 -98.875 113.113 -99.438 111.312 C-99.589 110.827 -99.741 110.342 -99.897 109.843 C-105.004 93.048 -105.613 69.131 -97.598 53.047 C-94.485 47.265 -90.641 41.979 -86.688 36.75 C-86.255 36.176 -85.822 35.603 -85.377 35.012 C-84.968 34.487 -84.558 33.963 -84.137 33.422 C-83.773 32.954 -83.409 32.485 -83.034 32.003 C-82 31 -82 31 -80 31 C-79.551 30.054 -79.104 29.107 -78.67 28.154 C-77.347 25.875 -75.224 24.373 -73.188 22.75 C-72.708 22.363 -72.228 21.976 -71.733 21.577 C-61.377 13.424 -49.789 6.99 -37.25 2.938 C-37.055 2.874 -37.055 2.874 -36.068 2.552 C-8.859 -6.309 -8.859 -6.309 0 0 Z M-61 226 C-61 226.66 -61 227.32 -61 228 C-60.34 228 -59.68 228 -59 228 C-59 227.34 -59 226.68 -59 226 C-59.66 226 -60.32 226 -61 226 Z M-13 160 C-11 161 -11 161 -11 161 Z " fill="#1D1410" transform="translate(125,9)"/>
<path d="M0 0 C0.491 0.259 0.982 0.517 1.487 0.784 C21.559 11.431 35.819 25.851 46 46 C46.32 46.626 46.639 47.253 46.969 47.898 C50.941 56.36 51.376 65.508 51.312 74.688 C51.311 75.21 51.31 75.733 51.309 76.272 C51.27 85.147 50.304 93.408 48 102 C47.756 103 47.514 104 47.273 105 C45.978 110.228 44.232 115.189 42.156 120.156 C40.997 122.954 39.97 125.794 38.935 128.64 C36.012 136.645 32.695 144.369 28.96 152.028 C28.098 153.799 27.246 155.574 26.397 157.351 C25.502 159.217 24.594 161.077 23.688 162.938 C23.35 163.643 23.012 164.348 22.665 165.074 C22.505 165.396 22.505 165.396 21.699 167.027 C21.419 167.602 21.139 168.177 20.85 168.769 C20.57 169.175 20.289 169.582 20 170 C19.34 170 18.68 170 18 170 C19.555 164.654 21.944 159.837 24.395 154.861 C44.495 113.931 44.495 113.931 45 97 C44.206 97.455 43.415 97.914 42.625 98.375 C42.405 98.503 42.405 98.503 41.289 99.148 C40.017 99.989 39.035 100.887 38 102 C38 101.34 38 100.68 38 100 C37.34 100 36.68 100 36 100 C36.061 99.554 36.121 99.108 36.184 98.649 C40.585 65.388 40.585 65.388 35 53 C34.785 52.487 34.57 51.974 34.348 51.445 C25.033 29.488 7.46 15.98 -14.174 7.108 C-18.184 5.522 -22.218 4.007 -26.294 2.599 C-27.374 2.22 -28.448 1.82 -29.511 1.394 C-33.683 -0.211 -37.565 -0.203 -42 0 C-41.568 0.226 -41.135 0.451 -40.69 0.683 C-23.216 9.894 -8.723 21.693 -2 41 C-1.838 41.453 -1.675 41.907 -1.508 42.374 C4.151 59.07 1.721 78.438 -3 95 C-3.191 95.677 -3.382 96.354 -3.579 97.051 C-4.048 98.702 -4.522 100.352 -5 102 C-5.99 101.67 -6.98 101.34 -8 101 C-8.103 101.66 -8.206 102.32 -8.312 103 C-9.061 106.82 -10.576 110.391 -12 114 C-12.33 113.67 -12.33 113.67 -14 112 C-14.33 112.66 -14.66 113.32 -15 114 C-16.121 114.379 -16.121 114.379 -17.438 114.562 C-19.286 114.833 -20.265 115.133 -22 116 C-21.588 114.561 -21.171 113.124 -20.75 111.688 C-20.617 111.232 -20.484 110.777 -20.348 110.308 C-19.662 108.012 -18.936 105.769 -18.016 103.555 C-11.081 86.771 -7.619 59.639 -14.452 42.25 C-19.913 29.79 -29.53 21.773 -41.168 15.18 C-41.435 15.029 -41.435 15.029 -42.784 14.264 C-43.813 13.689 -44.848 13.124 -45.889 12.572 C-50.036 10.283 -53.11 7.525 -54.715 2.973 C-55.214 -1.307 -54.964 -4.158 -52.887 -7.969 C-52.594 -8.309 -52.301 -8.649 -52 -9 C-51.34 -9 -50.68 -9 -50 -9 C-50 -9.66 -50 -10.32 -50 -11 C-36.538 -17.709 -11.818 -6.433 0 0 Z " fill="#201712" transform="translate(227,18)"/>
<path d="M0 0 C10.37 1.052 20.022 4.478 29.589 8.501 C31.298 9.21 33.015 9.892 34.734 10.574 C50.312 16.798 65.491 23.726 79.887 32.367 C80.295 32.611 80.704 32.856 81.125 33.108 C93.517 40.56 93.517 40.56 98.074 45.117 C98.582 49.486 97.503 51.63 94.887 55.055 C94.569 55.488 94.251 55.921 93.923 56.367 C92.988 57.629 92.036 58.875 91.074 60.117 C90.588 60.748 90.102 61.378 89.602 62.027 C85.636 66.963 85.636 66.963 83.074 68.117 C78.079 68.277 74.257 65.712 70.199 63.117 C68.862 62.293 67.523 61.47 66.184 60.648 C65.501 60.227 64.818 59.805 64.115 59.371 C52.709 52.364 41.088 46.714 28.729 41.645 C25.979 40.513 23.281 39.294 20.582 38.043 C15.4 35.72 10.045 34.243 4.577 32.763 C-0.699 31.323 -5.768 29.883 -9.926 26.117 C-11.764 22.44 -10.932 18.012 -9.926 14.117 C-4.7 0.286 -4.7 0.286 0 0 Z " fill="#F9F9F7" transform="translate(172.92578125,171.8828125)"/>
<path d="M0 0 C4.482 2.486 6.286 9.984 7.654 14.64 C8.444 17.746 8.938 20.905 8 24 C5.274 27.714 1.856 29.115 -2.391 30.551 C-3.008 30.77 -3.625 30.99 -4.26 31.216 C-5.575 31.682 -6.891 32.144 -8.208 32.602 C-11.638 33.796 -15.053 35.032 -18.469 36.266 C-19.135 36.505 -19.802 36.745 -20.488 36.992 C-36.245 42.68 -51.105 50.132 -65.117 59.309 C-65.542 59.585 -65.968 59.862 -66.406 60.147 C-68.468 61.49 -70.515 62.848 -72.544 64.241 C-76.415 66.837 -79.679 68.774 -84.524 68.346 C-90.007 67.062 -94.034 61.114 -96.996 56.656 C-98.935 53.457 -100.244 50.88 -100.125 47.062 C-98.944 42.252 -93.673 39.67 -89.693 37.184 C-86.28 35.122 -82.802 33.179 -79.312 31.25 C-78.764 30.946 -78.216 30.641 -77.652 30.328 C-59.45 20.241 -40.771 12.084 -21.41 4.469 C-20.852 4.248 -20.293 4.028 -19.718 3.801 C-6.884 -1.211 -6.884 -1.211 0 0 Z " fill="#FAFAF7" transform="translate(129,172)"/>
<path d="M0 0 C7.53 0.469 20.653 4.653 26 10 C26.33 9.34 26.66 8.68 27 8 C27.66 8 28.32 8 29 8 C28.917 7.526 28.835 7.051 28.75 6.562 C28.833 6.047 28.915 5.531 29 5 C30.688 4.125 30.688 4.125 33 4 C34.812 4.806 36.397 5.837 38 7 C38.33 6.34 38.66 5.68 39 5 C39.209 5.126 39.209 5.126 40.266 5.763 C42.198 6.926 44.13 8.088 46.062 9.25 C46.719 9.646 47.376 10.041 48.053 10.449 C48.707 10.842 49.361 11.236 50.035 11.641 C50.362 11.838 50.362 11.838 52.016 12.834 C54.555 14.326 57.144 15.722 59.748 17.097 C60.161 17.395 60.574 17.693 61 18 C61 18.66 61 19.32 61 20 C61.66 20 62.32 20 63 20 C63 20.66 63 21.32 63 22 C61.35 22 59.7 22 58 22 C58 22.66 58 23.32 58 24 C56 25.125 56 25.125 54 26 C55.32 26.99 56.64 27.98 58 29 C53.032 28.473 49.529 26.086 45.375 23.438 C44.053 22.597 42.728 21.762 41.398 20.934 C41.108 20.748 41.108 20.748 39.638 19.81 C36.867 18.44 36.867 18.44 35 19 C33.803 20.559 33.038 22.301 32.223 24.082 C31.97 24.611 31.717 25.14 31.457 25.684 C30.921 26.813 30.391 27.944 29.866 29.077 C29.081 30.773 28.278 32.46 27.471 34.146 C24.797 39.789 22.404 45.441 20.343 51.334 C19.139 54.734 17.73 57.846 15.75 60.875 C15.454 61.328 15.158 61.782 14.853 62.249 C11.995 66.383 8.887 69.38 4 71 C1.138 71.254 -1.241 70.744 -4 70 C-4.714 69.844 -5.428 69.688 -6.164 69.527 C-11.927 68.072 -17.119 65.631 -22.438 63 C-23.136 62.656 -23.835 62.311 -24.555 61.957 C-25.216 61.62 -25.877 61.284 -26.559 60.938 C-27.15 60.637 -27.741 60.337 -28.349 60.027 C-30.2 58.876 -31.568 57.64 -33 56 C-33.188 54.312 -33.188 54.312 -33 53 C-32.216 53.206 -31.433 53.413 -30.625 53.625 C-28.198 54.108 -28.198 54.108 -26.625 53.25 C-26 52 -26 52 -26.375 50.375 C-26.581 49.921 -26.787 49.467 -27 49 C-26.54 49.062 -26.079 49.125 -25.605 49.189 C-25.34 49.158 -25.34 49.158 -24 49 C-23.08 47.731 -23.08 47.731 -22.316 45.973 C-22.028 45.346 -21.74 44.718 -21.443 44.072 C-20.858 42.737 -20.275 41.401 -19.693 40.064 C-17.449 35.19 -17.449 35.19 -14.777 34.059 C-14.191 34.039 -13.604 34.02 -13 34 C-13.66 33.34 -14.32 32.68 -15 32 C-11.37 32.33 -7.74 32.66 -4 33 C-5.305 30.39 -6.358 30.319 -9.062 29.375 C-9.796 29.115 -10.529 28.854 -11.285 28.586 C-11.851 28.393 -12.417 28.199 -13 28 C-10.888 20.535 -10.888 20.535 -9 18 C-6.403 17.194 -4.456 17.997 -2 19 C-1.542 19.182 -1.085 19.364 -0.613 19.551 C0.2 19.887 1.01 20.23 1.816 20.582 C4.269 21.448 6.74 21.474 9.203 20.547 C10.159 20.076 11.083 19.543 12 19 C11.711 17.587 11.711 17.587 11 16 C9.51 15.2 9.51 15.2 7.621 14.613 C6.948 14.397 6.274 14.181 5.58 13.959 C4.873 13.746 4.166 13.532 3.438 13.312 C2.727 13.088 2.016 12.863 1.283 12.631 C-0.475 12.076 -2.235 11.533 -4 11 C-3.525 9.353 -3.045 7.707 -2.562 6.062 C-2.428 5.594 -2.293 5.125 -2.154 4.643 C-1.113 1.113 -1.113 1.113 0 0 Z " fill="#231811" transform="translate(191,221)"/>
<path d="M0 0 C0 0.66 0 1.32 0 2 C1.188 1.855 2.375 1.709 3.562 1.562 C4.29 1.475 5.017 1.387 5.766 1.297 C7.176 1.109 8.584 0.894 9.984 0.641 C14.459 -0.162 14.459 -0.162 16.875 0.562 C18.367 2.469 18.473 4.112 18.75 6.48 C19.089 8.539 20.048 10.159 21 12 C21.289 13.517 21.289 13.517 21 15 C19.455 15.86 19.455 15.86 17.316 16.535 C16.554 16.787 15.791 17.039 15.006 17.299 C14.192 17.554 13.377 17.809 12.562 18.062 C10.977 18.565 9.397 19.079 7.816 19.598 C7.109 19.819 6.402 20.041 5.674 20.27 C4 21 4 21 3 23 C2.34 23 1.68 23 1 23 C0.25 24.875 0.25 24.875 0 27 C0.938 28.25 0.938 28.25 2 29 C1.01 29.33 0.02 29.66 -1 30 C1.879 30.263 4.195 29.298 6.816 28.25 C7.274 28.072 7.731 27.895 8.202 27.712 C9.657 27.146 11.11 26.574 12.562 26 C14.019 25.427 15.476 24.856 16.934 24.288 C17.84 23.935 18.745 23.579 19.649 23.22 C21.544 22.481 22.945 22 25 22 C26.07 23.645 26.07 23.645 27.125 25.812 C27.478 26.52 27.831 27.228 28.195 27.957 C29.405 31.028 29.405 31.028 29 33 C27.335 33.78 27.335 33.78 25.02 34.359 C24.176 34.59 23.333 34.822 22.49 35.055 C21.161 35.404 19.83 35.746 18.495 36.073 C12.603 37.546 9.049 39.132 5.749 44.583 C5.502 45.051 5.255 45.518 5 46 C5.66 45.835 5.66 45.835 9 45 C8.67 45.99 8.34 46.98 8 48 C8.356 47.876 8.356 47.876 10.156 47.25 C12.797 46.333 15.442 45.428 18.089 44.527 C19.234 44.135 20.377 43.741 21.52 43.343 C23.163 42.771 24.809 42.21 26.457 41.652 C26.967 41.472 27.476 41.292 28.001 41.106 C30.117 40.4 31.545 39.928 33.773 40.281 C35.711 41.417 36.351 43.198 37.188 45.188 C37.365 45.562 37.542 45.936 37.725 46.322 C39.056 49.371 40.008 52.735 39 56 C37.331 57.445 35.456 58.019 33.375 58.688 C32.273 59.09 31.171 59.493 30.07 59.898 C29.54 60.085 29.009 60.272 28.462 60.464 C25.863 61.417 23.432 62.688 21 64 C21.33 64.66 21.66 65.32 22 66 C23.565 66.314 24.983 66.509 26.562 66.625 C26.987 66.664 27.412 66.702 27.85 66.742 C28.899 66.837 29.949 66.919 31 67 C31 67.66 31 68.32 31 69 C33.068 68.266 35.128 67.51 37.188 66.75 C37.766 66.545 38.344 66.34 38.939 66.129 C42.736 64.713 46.263 63.081 49 60 C49.168 59.463 49.336 58.927 49.509 58.374 C49.671 57.921 49.833 57.467 50 57 C50.66 57 51.32 57 52 57 C51.435 59.729 50.825 61.853 49 64 C48.34 64 47.68 64 47 64 C47 64.66 47 65.32 47 66 C45.674 66.822 45.674 66.822 43.816 67.621 C43.14 67.916 42.464 68.21 41.768 68.513 C41.404 68.666 41.404 68.666 39.562 69.438 C38.828 69.75 38.093 70.062 37.336 70.383 C35.229 71.269 33.117 72.138 31 73 C30.753 73.102 30.753 73.102 29.504 73.617 C23.339 76.114 17.35 77.362 10.867 75.332 C4.375 72.111 2.477 66.645 -0.088 60.241 C-1.785 56.071 -3.605 51.955 -5.404 47.829 C-6.044 46.354 -6.678 44.877 -7.31 43.399 C-7.718 42.449 -8.126 41.5 -8.535 40.551 C-8.734 40.088 -8.934 39.625 -9.139 39.148 C-10.166 36.796 -11.242 34.488 -12.421 32.208 C-12.653 31.76 -12.885 31.311 -13.124 30.849 C-13.566 30.006 -14.015 29.166 -14.473 28.331 C-15.845 25.727 -16.019 23.897 -16 21 C-16.66 20.67 -17.32 20.34 -18 20 C-17.67 19.34 -17.34 18.68 -17 18 C-19.97 18.33 -22.94 18.66 -26 19 C-26 18.34 -26 17.68 -26 17 C-26.66 17 -27.32 17 -28 17 C-28.278 15.678 -28.278 15.678 -28 14 C-26.516 12.878 -25.17 12.027 -23.547 11.152 C-23.09 10.895 -22.634 10.638 -22.163 10.372 C-20.698 9.55 -19.224 8.744 -17.75 7.938 C-16.772 7.391 -15.794 6.843 -14.816 6.295 C-3.015 -0.302 -3.015 -0.302 0 0 Z M-28 19 C-27.34 19 -26.68 19 -26 19 C-26 19.66 -26 20.32 -26 21 C-26.66 21 -27.32 21 -28 21 C-28 20.34 -28 19.68 -28 19 Z " fill="#231912" transform="translate(92,216)"/>
<path d="M0 0 C0.926 0.007 1.852 0.019 2.777 0.035 C3.25 0.04 3.722 0.044 4.209 0.049 C5.378 0.061 6.546 0.079 7.715 0.098 C7.055 0.428 7.055 0.428 3.715 2.098 C3.897 2.42 4.078 2.743 4.266 3.076 C5.086 4.539 5.901 6.006 6.715 7.473 C7.001 7.981 7.287 8.488 7.582 9.012 C7.853 9.502 8.123 9.991 8.402 10.496 C8.654 10.946 8.905 11.397 9.164 11.861 C9.715 13.098 9.715 13.098 9.715 15.098 C10.167 15.223 10.619 15.349 11.084 15.479 C13.461 16.381 13.768 17.72 14.801 20 C14.892 20.197 14.892 20.197 15.353 21.192 C15.941 22.469 16.516 23.752 17.09 25.035 C17.491 25.912 17.894 26.789 18.297 27.665 C18.895 28.963 19.492 30.26 20.085 31.56 C21.509 34.677 23.015 37.741 24.59 40.785 C27.601 46.728 30.411 52.294 29.715 59.098 C29.055 59.098 28.395 59.098 27.715 59.098 C27.612 59.675 27.509 60.253 27.402 60.848 C26.4 64.128 24.585 65.342 21.715 67.098 C13.452 71.398 13.452 71.398 8.715 71.098 C8.715 70.438 8.715 69.778 8.715 69.098 C7.932 69.144 7.15 69.19 6.344 69.238 C5.322 69.276 4.3 69.312 3.277 69.348 C2.761 69.381 2.245 69.415 1.713 69.449 C1.466 69.456 1.466 69.456 0.219 69.488 C-0.009 69.499 -0.009 69.499 -1.162 69.552 C-1.533 69.402 -1.903 69.252 -2.285 69.098 C-2.942 67.073 -2.942 67.073 -3.285 65.098 C-2.71 64.917 -2.134 64.736 -1.541 64.55 C0.593 63.873 2.714 63.16 4.833 62.437 C5.751 62.128 6.673 61.83 7.597 61.541 C10.478 60.638 13.155 59.718 15.715 58.098 C16.941 55.495 16.119 53.395 15.303 50.774 C14.841 49.545 14.305 48.395 13.715 47.223 C13.524 46.82 13.333 46.418 13.137 46.004 C12.673 45.03 12.195 44.063 11.715 43.098 C5.617 44.403 -0.212 46.363 -6.092 48.421 C-6.719 48.636 -7.346 48.852 -7.992 49.074 C-8.554 49.271 -9.116 49.468 -9.695 49.67 C-11.341 50.113 -12.593 50.333 -14.285 50.098 C-14.615 49.438 -14.945 48.778 -15.285 48.098 C-16.848 47.973 -16.848 47.973 -18.285 48.098 C-16.471 44.103 -14.427 41.067 -10.365 39.228 C1.324 35.098 1.324 35.098 6.715 35.098 C6.426 34.471 6.137 33.845 5.84 33.199 C5.465 32.374 5.09 31.548 4.715 30.723 C4.524 30.31 4.333 29.898 4.137 29.473 C3.272 27.558 2.715 26.224 2.715 24.098 C2.029 24.37 1.342 24.643 0.635 24.924 C-1.909 25.934 -4.455 26.939 -7.002 27.943 C-8.104 28.378 -9.206 28.815 -10.308 29.252 C-11.89 29.881 -13.474 30.505 -15.059 31.129 C-15.551 31.326 -16.044 31.523 -16.552 31.725 C-18.559 32.511 -20.109 33.098 -22.285 33.098 C-22.615 33.758 -22.945 34.418 -23.285 35.098 C-23.285 31.416 -22.971 28.47 -21.285 25.098 C-20.625 25.098 -19.965 25.098 -19.285 25.098 C-19.142 24.631 -18.999 24.165 -18.851 23.684 C-18.285 22.098 -18.285 22.098 -16.934 21.298 C-16.372 21.104 -15.81 20.911 -15.23 20.711 C-14.616 20.495 -14.001 20.279 -13.367 20.057 C-13.044 19.95 -13.044 19.95 -11.41 19.41 C-10.772 19.185 -10.134 18.96 -9.477 18.729 C-6.651 17.758 -4.3 16.954 -1.285 17.098 C-1.502 16.627 -1.718 16.157 -1.941 15.672 C-2.22 15.049 -2.498 14.427 -2.785 13.785 C-3.064 13.17 -3.342 12.555 -3.629 11.922 C-4.272 10.134 -4.593 8.971 -4.285 7.098 C-3.625 6.768 -2.965 6.438 -2.285 6.098 C-2.344 4.941 -2.344 4.941 -2.723 3.598 C-3.094 2.254 -3.094 2.254 -3.285 1.098 C-2.285 0.098 -2.285 0.098 0 0 Z " fill="#201711" transform="translate(114.28515625,213.90234375)"/>
<path d="M0 0 C17.178 6.524 29.118 24.4 37 40 C37.32 40.626 37.639 41.253 37.969 41.898 C41.941 50.36 42.376 59.508 42.312 68.688 C42.311 69.21 42.31 69.733 42.309 70.272 C42.27 79.147 41.304 87.408 39 96 C38.756 97 38.514 98 38.273 99 C36.978 104.228 35.232 109.189 33.156 114.156 C31.997 116.954 30.97 119.794 29.935 122.64 C27.012 130.645 23.695 138.369 19.96 146.028 C19.098 147.799 18.246 149.574 17.397 151.351 C16.502 153.217 15.594 155.077 14.688 156.938 C14.35 157.643 14.012 158.348 13.665 159.074 C13.346 159.719 13.027 160.363 12.699 161.027 C12.419 161.602 12.139 162.177 11.85 162.769 C11.57 163.175 11.289 163.582 11 164 C10.34 164 9.68 164 9 164 C10.555 158.654 12.944 153.837 15.395 148.861 C35.495 107.931 35.495 107.931 36 91 C35.206 91.455 34.415 91.914 33.625 92.375 C33.184 92.63 32.743 92.885 32.289 93.148 C31.017 93.989 30.035 94.887 29 96 C29 95.34 29 94.68 29 94 C28.34 94 27.68 94 27 94 C27.03 93.777 27.03 93.777 27.184 92.649 C31.585 59.388 31.585 59.388 26 47 C25.785 46.487 25.57 45.974 25.348 45.445 C19.092 30.698 9.333 20.176 -3.628 10.976 C-5.445 9.684 -7.223 8.345 -9 7 C-8.34 7 -7.68 7 -7 7 C-6.928 6.763 -6.928 6.763 -6.562 5.562 C-6.377 5.047 -6.191 4.531 -6 4 C-5.009 3.64 -4.007 3.31 -3 3 C-2.763 2.722 -2.763 2.722 -1.562 1.312 C-1.047 0.879 -0.531 0.446 0 0 Z " fill="#211611" transform="translate(236,24)"/>
<path d="M0 0 C0.052 0.248 0.052 0.248 0.312 1.5 C0.426 1.748 0.426 1.748 1 3 C1.24 2.989 1.24 2.989 2.456 2.934 C2.966 2.956 3.475 2.978 4 3 C4.8 4.07 4.8 4.07 5.387 5.555 C5.495 5.821 5.495 5.821 6.041 7.168 C6.148 7.45 6.148 7.45 6.688 8.875 C6.912 9.431 7.137 9.986 7.369 10.559 C9 14.673 9 14.673 9 17 C8.34 17 7.68 17 7 17 C6.768 19.047 6.648 20.963 7 23 C8.962 24.488 10.154 25.065 12.625 24.875 C13.079 24.916 13.532 24.958 14 25 C15.125 26.875 15.125 26.875 16 29 C16.165 29.33 16.165 29.33 17 31 C16.34 31 15.68 31 15 31 C15 31.66 15 32.32 15 33 C18.96 32.34 22.92 31.68 27 31 C24.884 33.116 23.1 33.853 20.363 34.812 C19.394 35.165 18.425 35.517 17.456 35.869 C16.944 36.053 16.431 36.237 15.903 36.427 C5.501 40.174 -4.669 44.33 -14.774 48.812 C-15.239 49.018 -15.703 49.224 -16.181 49.436 C-17.044 49.82 -17.906 50.205 -18.766 50.592 C-20.817 51.508 -22.854 52.337 -25 53 C-25.194 52.189 -25.38 51.376 -25.562 50.562 C-25.667 50.11 -25.771 49.658 -25.879 49.191 C-25.919 48.798 -25.959 48.405 -26 48 C-25.835 47.835 -25.835 47.835 -25 47 C-26.98 47 -28.96 47 -31 47 C-31.241 45.092 -31.241 45.092 -31 43 C-29.392 42.114 -29.392 42.114 -27.141 41.535 C-26.308 41.299 -25.477 41.058 -24.646 40.813 C-24.429 40.749 -24.429 40.749 -23.326 40.427 C-21.119 39.716 -19.028 38.772 -16.922 37.809 C-16.71 37.712 -16.71 37.712 -15.636 37.225 C-14.339 36.633 -13.044 36.035 -11.75 35.438 C-10.016 34.643 -8.282 33.85 -6.547 33.059 C-6.142 32.873 -5.736 32.688 -5.318 32.496 C-2.574 31.246 0.184 30.077 3 29 C2.869 28.71 2.869 28.71 2.206 27.243 C1.224 25.073 0.244 22.901 -0.735 20.73 C-1.158 19.794 -1.581 18.858 -2.004 17.922 C-2.616 16.57 -3.226 15.217 -3.836 13.863 C-4.022 13.452 -4.209 13.04 -4.401 12.616 C-8.309 3.933 -8.309 3.933 -8 1 C-7.795 1.006 -7.795 1.006 -6.758 1.035 C-6.219 1.044 -5.68 1.053 -5.125 1.062 C-4.591 1.074 -4.058 1.086 -3.508 1.098 C-2 1 -2 1 0 0 Z M17 29 C19 30 19 30 19 30 Z " fill="#150D09" transform="translate(95,140)"/>
<path d="M0 0 C5.6 0.82 8.137 4.047 11.484 8.223 C13.064 10.075 14.071 10.851 16.483 11.238 C21.658 11.463 24.724 9.864 28.938 7 C29.232 6.809 29.232 6.809 30.721 5.844 C32.157 4.91 33.582 3.962 35 3 C35.165 3.33 35.165 3.33 36 5 C38.558 6.481 40.866 5.768 43.598 5.156 C45 5 45 5 47 6 C48.004 7.812 48.004 7.812 48 10 C46.221 11.719 44.095 12.816 41.938 14 C40.779 14.666 39.622 15.332 38.465 16 C37.889 16.326 37.312 16.653 36.719 16.989 C34.527 18.278 32.436 19.692 30.349 21.144 C25.724 24.079 20.365 24.904 15 24 C9.367 22.268 4.677 19.099 0.5 15 C0.174 14.68 -0.152 14.361 -0.488 14.031 C-2.808 11.583 -3.896 9.18 -5 6 C-4.34 6 -3.68 6 -3 6 C-2.375 4 -2.375 4 -2 2 C-2 2.99 -2 3.98 -2 5 C-1.34 5 -0.68 5 0 5 C0 3.35 0 1.7 0 0 Z M36 7 C36 7.66 36 8.32 36 9 C36.66 9 37.32 9 38 9 C38 8.34 38 7.68 38 7 C37.34 7 36.68 7 36 7 Z " fill="#281C16" transform="translate(28,228)"/>
<path d="M0 0 C0.66 0 1.32 0 2 0 C2 0.99 2 1.98 2 3 C1.34 3 0.68 3 0 3 C0.021 3.804 0.041 4.609 0.062 5.438 C0.098 6.809 0.098 6.809 0 8 C-0.33 8.33 -0.66 8.66 -1 9 C-0.34 9.33 0.32 9.66 1 10 C1.33 8.35 1.66 6.7 2 5 C2.33 5.66 2.66 6.32 3 7 C3.66 7 4.32 7 5 7 C4.928 7.254 4.928 7.254 4.562 8.539 C1.845 18.617 1.845 18.617 3.75 22.547 C5.337 24.391 7.023 25.114 9.25 25.938 C9.675 26.102 10.099 26.266 10.537 26.435 C16.56 28.685 22.797 30.328 29 32 C28.67 32.165 28.67 32.165 27 33 C27 33.66 27 34.32 27 35 C24.36 35.33 21.72 35.66 19 36 C19 36.66 19 37.32 19 38 C19.99 38 20.98 38 22 38 C22 38.66 22 39.32 22 40 C22.66 40.33 23.32 40.66 24 41 C23.34 41 22.68 41 22 41 C22 41.66 22 42.32 22 43 C5.411 39.935 5.411 39.935 -1.375 35.562 C-1.808 35.287 -2.241 35.011 -2.687 34.726 C-5.985 32.42 -8.454 29.616 -9.294 25.592 C-9.441 24.047 -9.466 22.551 -9.438 21 C-9.434 20.445 -9.431 19.891 -9.428 19.32 C-9.218 12.893 -7.225 6.982 -5 1 C-4.527 1.184 -4.054 1.369 -3.566 1.559 C-3.049 1.704 -2.533 1.85 -2 2 C-0.938 1.062 -0.938 1.062 0 0 Z " fill="#241A15" transform="translate(160,175)"/>
<path d="M0 0 C1.376 1.123 1.946 1.758 2.336 3.516 C2.433 7.837 1.558 10.405 -0.93 13.934 C-2 15 -2 15 -4 15 C-4 15.66 -4 16.32 -4 17 C-5.45 17.985 -6.833 18.811 -8.375 19.625 C-8.581 19.74 -8.581 19.74 -9.625 20.32 C-11.546 21.361 -12.784 22 -15 22 C-15 22.66 -15 23.32 -15 24 C-15.899 24.834 -15.899 24.834 -17.16 25.664 C-17.621 25.977 -18.082 26.291 -18.556 26.613 C-19.053 26.947 -19.55 27.281 -20.062 27.625 C-27.879 33.11 -33.329 39.029 -37 48 C-37.276 48.664 -37.552 49.328 -37.836 50.012 C-38.695 52.313 -39.392 54.623 -40 57 C-40.122 57.466 -40.244 57.931 -40.369 58.411 C-44.121 73.815 -40.235 90.817 -35.439 105.602 C-34.469 108.692 -33.744 111.849 -33 115 C-35.685 113.657 -36.023 111.851 -36.953 109.164 C-37.127 108.673 -37.3 108.182 -37.479 107.676 C-39.311 102.332 -40.618 96.904 -41.75 91.375 C-41.857 90.856 -41.963 90.338 -42.073 89.803 C-46.137 69.693 -44.148 52.587 -32.741 35.115 C-32.619 34.931 -32.619 34.931 -32 34 C-31.602 33.398 -31.203 32.796 -30.793 32.176 C-30.531 31.788 -30.27 31.4 -30 31 C-30.474 31.062 -30.949 31.124 -31.438 31.188 C-31.953 31.126 -32.469 31.064 -33 31 C-33.062 30.747 -33.062 30.747 -33.375 29.469 C-33.581 28.984 -33.787 28.499 -34 28 C-35.629 27.926 -35.629 27.926 -37.562 28.312 C-38.203 28.432 -38.844 28.552 -39.504 28.676 C-39.998 28.783 -40.491 28.89 -41 29 C-32.806 18.717 -23.595 12.166 -12 6 C-13.32 5.34 -14.64 4.68 -16 4 C-13.957 3.775 -12.028 3.616 -10 4 C-9.125 6 -9.125 6 -9 8 C-8.97 7.82 -8.97 7.82 -8.816 6.906 C-8.733 6.442 -8.649 5.978 -8.562 5.5 C-8.481 5.036 -8.4 4.572 -8.316 4.094 C-8.212 3.733 -8.108 3.372 -8 3 C-7.67 3 -7.34 3 -7 3 C-6.946 3.979 -6.907 4.958 -6.875 5.938 C-6.852 6.483 -6.829 7.028 -6.805 7.59 C-6.869 8.055 -6.934 8.521 -7 9 C-7.66 9.33 -8.32 9.66 -9 10 C-8.34 11.32 -7.68 12.64 -7 14 C-7.66 14 -8.32 14 -9 14 C-9 14.66 -9 15.32 -9 16 C-9.99 16 -10.98 16 -12 16 C-12 16.66 -12 17.32 -12 18 C-2.439 12.663 -2.439 12.663 -1 8 C-0.504 5.34 -0.194 2.698 0 0 Z " fill="#1D140F" transform="translate(126,12)"/>
<path d="M0 0 C0.896 1.424 1.544 2.657 2.188 4.188 C2.365 4.562 2.542 4.936 2.725 5.322 C4.058 8.376 4.989 11.726 4 15 C2.378 16.45 0.547 17.021 -1.5 17.688 C-1.773 17.788 -1.773 17.788 -3.156 18.294 C-4.256 18.694 -5.359 19.084 -6.465 19.464 C-7.799 19.93 -9.099 20.432 -10.402 20.977 C-17.984 24.091 -17.984 24.091 -21 23 C-22.582 21.098 -23.442 18.962 -24.375 16.688 C-24.647 16.093 -24.919 15.498 -25.199 14.885 C-27.049 10.639 -27.049 10.639 -26.879 8.434 C-25.505 6.193 -23.36 5.715 -20.977 4.922 C-20.475 4.746 -19.973 4.57 -19.455 4.389 C-18.393 4.021 -17.329 3.658 -16.263 3.301 C-14.633 2.753 -13.012 2.183 -11.391 1.609 C-10.357 1.254 -9.323 0.9 -8.289 0.547 C-7.805 0.376 -7.32 0.205 -6.821 0.029 C-2.456 -1.409 -2.456 -1.409 0 0 Z " fill="#9E9992" transform="translate(127,257)"/>
<path d="M0 0 C2.65 2.035 4.012 4.328 4.512 7.617 C5.246 16.133 2.129 21.481 -3 28 C-3.283 28.382 -3.566 28.763 -3.857 29.157 C-8.372 35.238 -14.645 41.082 -22.348 42.402 C-25.289 42.45 -27.354 42.323 -30 41 C-30 40.34 -30 39.68 -30 39 C-31.094 38.367 -31.094 38.367 -32.5 37.875 C-32.964 37.707 -33.428 37.54 -33.906 37.367 C-34.087 37.307 -34.087 37.307 -35 37 C-34.188 36 -34.188 36 -33 35 C-31.375 34.875 -31.375 34.875 -30 35 C-30 34.34 -30 33.68 -30 33 C-28.35 33 -26.7 33 -25 33 C-25 32.34 -25 31.68 -25 31 C-25.66 30.67 -26.32 30.34 -27 30 C-26.794 29.95 -26.794 29.95 -25.75 29.695 C-18.513 27.337 -13.986 20.749 -10.516 14.242 C-10.417 14.039 -10.417 14.039 -9.915 13.011 C-9 12 -9 12 -5 11 C-5.66 13.97 -6.32 16.94 -7 20 C-4 20 -4 20 -2.312 18.5 C-1.879 18.005 -1.446 17.51 -1 17 C-0.67 17.33 -0.34 17.66 0 18 C2.501 14.249 2.41 10.409 2 6 C1.835 5.67 1.835 5.67 1 4 C-0.562 3.875 -0.562 3.875 -2 4 C-2 3.34 -2 2.68 -2 2 C-1.34 2 -0.68 2 0 2 C0 1.34 0 0.68 0 0 Z " fill="#1D130E" transform="translate(279,210)"/>
<path d="M0 0 C2.219 0.668 4.254 1.472 6.366 2.415 C8.192 3.173 10.035 3.77 11.922 4.359 C12.601 4.572 13.281 4.784 13.981 5.003 C14.659 5.215 15.337 5.427 16.035 5.645 C17.341 6.053 18.645 6.471 19.945 6.898 C20.505 7.078 21.064 7.258 21.641 7.444 C22.973 8.082 22.973 8.082 23.973 10.082 C23.551 11.395 23.551 11.395 22.793 12.867 C22.524 13.398 22.254 13.928 21.977 14.475 C21.687 15.026 21.396 15.577 21.098 16.145 C20.815 16.699 20.533 17.254 20.242 17.826 C18.141 21.913 18.141 21.913 16.973 23.082 C11.518 23.308 6.198 21.324 1.098 19.645 C0.431 19.427 -0.236 19.21 -0.922 18.986 C-1.553 18.771 -2.183 18.557 -2.832 18.336 C-3.399 18.143 -3.966 17.951 -4.55 17.752 C-6.093 17.052 -6.964 16.39 -8.027 15.082 C-8.576 10.793 -6.038 5.231 -3.711 1.695 C-2.027 0.082 -2.027 0.082 0 0 Z " fill="#A39D97" transform="translate(176.02734375,255.91796875)"/>
<path d="M0 0 C0.33 0 0.66 0 1 0 C2.763 6.071 3.073 12.91 0.145 18.613 C-3.367 22.868 -7.868 25.097 -12.875 27.188 C-13.462 27.447 -14.048 27.707 -14.652 27.975 C-18.735 29.711 -22.586 30.587 -27 31 C-26.7 31.615 -26.399 32.23 -26.09 32.863 C-25.705 33.679 -25.321 34.496 -24.938 35.312 C-24.738 35.717 -24.539 36.121 -24.334 36.537 C-23.429 38.489 -22.927 39.654 -23.379 41.793 C-23.584 42.191 -23.789 42.59 -24 43 C-25.007 41.212 -26.004 39.419 -27 37.625 C-27.286 37.117 -27.572 36.609 -27.867 36.086 C-28.138 35.596 -28.409 35.106 -28.688 34.602 C-28.813 34.376 -28.813 34.376 -29.449 33.237 C-30 32 -30 32 -30 30 C-29.34 29.67 -28.68 29.34 -28 29 C-29.312 28.946 -30.625 28.907 -31.938 28.875 C-32.668 28.852 -33.399 28.829 -34.152 28.805 C-34.762 28.869 -35.372 28.934 -36 29 C-36.33 29.66 -36.66 30.32 -37 31 C-36.34 31.33 -35.68 31.66 -35 32 C-34.625 33.5 -34.625 33.5 -35 35 C-37 35.688 -37 35.688 -39 36 C-38.67 34.68 -38.34 33.36 -38 32 C-42.137 30.707 -44.869 31.353 -48.996 32.52 C-51.702 33.168 -54.238 33.188 -57 33 C-57.238 31.121 -57.238 31.121 -57 29 C-55.418 27.907 -55.418 27.907 -53.188 27.07 C-52.787 26.914 -52.386 26.759 -51.973 26.598 C-50.654 26.09 -49.328 25.608 -48 25.125 C-47.09 24.781 -46.181 24.435 -45.272 24.088 C-43.42 23.384 -41.566 22.69 -39.708 22.005 C-37.2 21.078 -34.706 20.118 -32.215 19.148 C-30.789 18.598 -29.364 18.049 -27.938 17.5 C-27.608 17.372 -27.608 17.372 -25.939 16.727 C-25.329 16.497 -24.719 16.268 -24.09 16.031 C-23.826 15.931 -23.826 15.931 -22.492 15.424 C-20.924 14.979 -19.621 14.92 -18 15 C-17.973 15.979 -17.954 16.958 -17.938 17.938 C-17.926 18.483 -17.914 19.028 -17.902 19.59 C-18 21 -18 21 -19 22 C-18.625 21.916 -18.25 21.832 -17.863 21.746 C-15.117 21.2 -13.121 20.836 -10.438 21.75 C-8 22 -8 22 -6.684 21.133 C-5.309 19.811 -4.145 18.528 -3 17 C-2.733 16.646 -2.466 16.291 -2.191 15.926 C0.145 12.508 0.38 9.756 0.188 5.688 C0.174 5.138 0.16 4.588 0.146 4.021 C0.112 2.681 0.058 1.34 0 0 Z " fill="#211813" transform="translate(148,186)"/>
<path d="M0 0 C1.66 1.488 1.66 1.488 1.789 3.695 C1.627 4.569 1.437 5.438 1.223 6.301 C1.124 6.753 1.026 7.205 0.925 7.671 C0.019 11.246 -1.529 12.991 -4.355 15.344 C-5.34 16.488 -5.34 16.488 -5.512 17.977 C-5.137 20.496 -4.382 22.406 -3.215 24.676 C-2.34 26.488 -2.34 26.488 -2.715 28.238 C-2.921 28.651 -3.127 29.063 -3.34 29.488 C-4.33 28.828 -5.32 28.168 -6.34 27.488 C-6.464 28.128 -6.587 28.767 -6.715 29.426 C-6.921 30.106 -7.127 30.787 -7.34 31.488 C-8.673 32.155 -10.007 32.822 -11.34 33.488 C-14.972 30.877 -16.211 28.106 -17.066 23.758 C-18.211 14.262 -18.211 14.262 -15.481 10.215 C-13.071 7.31 -10.333 4.781 -7.34 2.488 C-6.92 2.162 -6.501 1.836 -6.068 1.5 C-3.72 -0.14 -2.899 -0.634 0 0 Z " fill="#221711" transform="translate(35.33984375,201.51171875)"/>
<path d="M0 0 C0.66 0 1.32 0 2 0 C2 1.32 2 2.64 2 4 C2.66 4 3.32 4 4 4 C4 4.66 4 5.32 4 6 C2.977 6.492 2.977 6.492 1.625 6.875 C-0.679 7.684 -0.934 7.894 -2.312 10.125 C-2.539 10.744 -2.766 11.363 -3 12 C-3.412 11.794 -3.825 11.588 -4.25 11.375 C-6.696 10.851 -7.815 11.874 -10 13 C-12.25 13.125 -12.25 13.125 -14 13 C-14 13.66 -14 14.32 -14 15 C-12.058 14.58 -10.123 14.136 -8.188 13.688 C-7.64 13.57 -7.093 13.452 -6.529 13.33 C-3.131 12.527 -1.362 11.695 1 9 C3.125 8.562 3.125 8.562 5 9 C5.617 11.027 5.617 11.027 6 13 C1.962 14.673 -2.077 16.345 -6.115 18.017 C-7.488 18.585 -8.86 19.154 -10.233 19.722 C-12.211 20.542 -14.189 21.361 -16.168 22.18 C-16.777 22.432 -17.385 22.684 -18.012 22.944 C-21.333 24.318 -24.66 25.673 -28 27 C-28.879 23.191 -28.879 23.191 -29 22 C-28.67 21.67 -28.34 21.34 -28 21 C-29.98 21 -31.96 21 -34 21 C-34.241 19.092 -34.241 19.092 -34 17 C-32.392 16.114 -32.392 16.114 -30.141 15.535 C-29.308 15.299 -28.477 15.058 -27.646 14.813 C-27.211 14.685 -26.775 14.558 -26.326 14.427 C-24.119 13.716 -22.028 12.772 -19.922 11.809 C-19.498 11.616 -19.073 11.423 -18.636 11.225 C-17.339 10.633 -16.044 10.035 -14.75 9.438 C-13.438 8.836 -12.126 8.236 -10.813 7.637 C-9.981 7.257 -9.149 6.876 -8.318 6.493 C-6.206 5.526 -4.088 4.63 -1.91 3.824 C-1.28 3.552 -0.649 3.28 0 3 C0.312 1.375 0.312 1.375 0 0 Z " fill="#1C1611" transform="translate(98,166)"/>
<path d="M0 0 C2.156 1.078 2.271 1.181 3.053 3.269 C3.233 3.74 3.413 4.211 3.599 4.696 C3.785 5.206 3.972 5.716 4.164 6.242 C4.361 6.766 4.558 7.291 4.761 7.831 C5.176 8.941 5.588 10.052 5.996 11.165 C6.621 12.865 7.259 14.559 7.898 16.254 C8.3 17.333 8.701 18.412 9.102 19.492 C9.292 19.999 9.483 20.505 9.679 21.027 C11.398 25.747 11.398 25.747 11 28 C10.526 28.124 10.051 28.248 9.562 28.375 C9.047 28.581 8.531 28.787 8 29 C7.598 30.255 7.431 31.483 7.238 32.785 C7 34 7 34 6.125 35.375 C5 36 5 36 3.562 35.938 C-0.395 33.563 -1.826 28.176 -3.188 24 C-3.365 23.492 -3.542 22.984 -3.725 22.461 C-4.536 20.019 -5.1 17.897 -5.035 15.312 C-5.001 13.038 -5.275 11.995 -6.25 10 C-6.82 8.492 -6.82 8.492 -7 7 C-5.983 4.997 -4.634 3.526 -3 2 C-2.67 3.32 -2.34 4.64 -2 6 C-2.041 5.196 -2.082 4.391 -2.125 3.562 C-2.195 2.191 -2.195 2.191 -2 1 C-1.34 0.67 -0.68 0.34 0 0 Z " fill="#201712" transform="translate(37,122)"/>
<path d="M0 0 C0.33 0.66 0.66 1.32 1 2 C3.558 3.481 5.866 2.768 8.598 2.156 C10 2 10 2 12 3 C10.615 6.455 9.003 7.977 5.719 9.762 C5.305 9.998 4.89 10.234 4.464 10.477 C3.148 11.224 1.824 11.956 0.5 12.688 C-0.39 13.19 -1.279 13.693 -2.168 14.197 C-10.982 19.18 -10.982 19.18 -16.5 19.188 C-16.999 19.2 -17.498 19.212 -18.012 19.225 C-21.682 19.239 -21.682 19.239 -23.344 17.988 C-23.56 17.662 -23.777 17.336 -24 17 C-23.34 17 -22.68 17 -22 17 C-21.691 15.906 -21.691 15.906 -21.562 14.5 C-21.352 13.113 -21.352 13.113 -21 12 C-19.438 11.688 -19.438 11.688 -18 12 C-18 11.34 -18 10.68 -18 10 C-16.676 9.632 -15.34 9.305 -14 9 C-12.261 8.06 -12.261 8.06 -10.547 6.934 C-9.928 6.531 -9.309 6.128 -8.672 5.713 C-8.038 5.292 -7.403 4.871 -6.75 4.438 C-6.1 4.013 -5.451 3.588 -4.781 3.15 C-3.184 2.105 -1.591 1.055 0 0 Z M1 4 C1 4.66 1 5.32 1 6 C1.66 6 2.32 6 3 6 C3 5.34 3 4.68 3 4 C2.34 4 1.68 4 1 4 Z " fill="#1F1510" transform="translate(63,231)"/>
<path d="M0 0 C5.401 0.579 10.531 2.798 15.568 4.733 C16.451 5.066 17.335 5.399 18.219 5.731 C20.359 6.537 22.496 7.351 24.631 8.171 C24.345 9.11 24.052 10.047 23.756 10.983 C23.593 11.505 23.431 12.027 23.263 12.565 C22.553 14.367 21.926 15.72 20.631 17.171 C15.111 17.712 8.927 15.298 3.693 13.733 C2.927 13.516 2.16 13.299 1.371 13.075 C0.643 12.86 -0.085 12.646 -0.834 12.425 C-1.49 12.232 -2.146 12.039 -2.822 11.841 C-4.369 11.171 -4.369 11.171 -5.369 9.171 C-4.963 7.489 -4.508 6.072 -3.869 4.483 C-3.801 4.269 -3.801 4.269 -3.455 3.184 C-2.718 1.367 -2.015 0.251 0 0 Z " fill="#9D9791" transform="translate(183.369384765625,238.829345703125)"/>
<path d="M0 0 C5.982 0.364 11.693 2.909 17.125 5.25 C17.813 5.525 18.501 5.8 19.209 6.084 C21.05 6.916 22.52 7.624 24 9 C24.672 12.532 22.727 16.007 21 19 C12.589 16.566 4.295 13.801 -4 11 C-3.525 9.353 -3.045 7.707 -2.562 6.062 C-2.428 5.594 -2.293 5.125 -2.154 4.643 C-1.113 1.113 -1.113 1.113 0 0 Z " fill="#9E9891" transform="translate(191,221)"/>
<path d="M0 0 C1.168 1.645 1.168 1.645 2.188 3.812 C2.532 4.52 2.876 5.228 3.23 5.957 C4.436 9.158 4.436 9.158 4 11 C2.324 11.886 0.858 12.491 -0.926 13.078 C-1.429 13.254 -1.933 13.43 -2.451 13.611 C-3.519 13.98 -4.59 14.343 -5.662 14.699 C-7.301 15.246 -8.931 15.817 -10.561 16.391 C-11.598 16.746 -12.637 17.1 -13.676 17.453 C-14.163 17.624 -14.651 17.795 -15.153 17.971 C-17.257 18.659 -18.58 19.079 -20.785 18.662 C-22.279 17.848 -22.645 17.264 -23.25 15.688 C-23.42 15.279 -23.59 14.87 -23.766 14.449 C-24.11 12.321 -23.772 11.016 -23 9 C-21.495 7.987 -20.277 7.326 -18.633 6.641 C-18.197 6.447 -17.762 6.252 -17.313 6.052 C-16.393 5.646 -15.47 5.246 -14.544 4.853 C-13.13 4.252 -11.727 3.63 -10.324 3.004 C-9.428 2.611 -8.531 2.219 -7.633 1.828 C-7.423 1.736 -7.423 1.736 -6.364 1.27 C-4.198 0.357 -2.359 -0.399 0 0 Z " fill="#99928B" transform="translate(109,220)"/>
<path d="M0 0 C1.07 1.645 1.07 1.645 2.125 3.812 C2.478 4.52 2.831 5.228 3.195 5.957 C4.436 9.106 4.436 9.106 4 11 C2.398 11.818 1.032 12.348 -0.672 12.859 C-1.151 13.013 -1.63 13.166 -2.123 13.325 C-3.14 13.647 -4.159 13.963 -5.18 14.272 C-6.735 14.746 -8.281 15.244 -9.828 15.746 C-10.817 16.056 -11.807 16.365 -12.797 16.672 C-13.257 16.821 -13.718 16.97 -14.193 17.123 C-17.11 17.988 -19.054 18.105 -22 17 C-22.863 15.949 -22.863 15.949 -23.312 14.688 C-23.474 14.279 -23.635 13.87 -23.801 13.449 C-24.094 11.318 -23.788 10.009 -23 8 C-21.394 7.05 -20.111 6.456 -18.379 5.859 C-17.919 5.687 -17.459 5.516 -16.985 5.338 C-15.516 4.794 -14.04 4.272 -12.562 3.75 C-11.572 3.384 -10.582 3.017 -9.592 2.648 C-2.386 0 -2.386 0 0 0 Z " fill="#9A968F" transform="translate(117,238)"/>
<path d="M0 0 C1.694 -0.278 3.274 -0.089 5 0 C4.01 0.66 3.02 1.32 2 2 C7.28 4.97 12.56 7.94 18 11 C16.68 12.32 15.36 13.64 14 15 C13.75 17.625 13.75 17.625 14 20 C14 20.66 14 21.32 14 22 C15 23.625 15 23.625 16 25 C13.176 23.627 10.462 22.134 7.777 20.504 C7.391 20.27 7.004 20.035 6.605 19.794 C5.794 19.302 4.983 18.808 4.173 18.314 C2.94 17.564 1.703 16.82 0.467 16.076 C-0.326 15.594 -1.118 15.112 -1.91 14.629 C-2.276 14.41 -2.642 14.191 -3.018 13.966 C-5.315 12.553 -7.298 11.104 -9 9 C-8.67 8.34 -8.34 7.68 -8 7 C-7.505 7.33 -7.505 7.33 -5 9 C-5.33 8.34 -5.66 7.68 -6 7 C-5.01 6.67 -4.02 6.34 -3 6 C-3 6.99 -3 7.98 -3 9 C-2.34 9 -1.68 9 -1 9 C-1.012 8.518 -1.023 8.036 -1.035 7.539 C-1.04 7.223 -1.04 7.223 -1.062 5.625 C-1.074 4.999 -1.086 4.372 -1.098 3.727 C-1 2 -1 2 0 0 Z " fill="#2D2723" transform="translate(183,16)"/>
<path d="M0 0 C0 0.66 0 1.32 0 2 C2.64 1.67 5.28 1.34 8 1 C8 1.66 8 2.32 8 3 C9.5 3.625 9.5 3.625 11 4 C8.519 6.729 6.051 8.853 2.25 9.125 C1.838 9.084 1.425 9.042 1 9 C1 8.34 1 7.68 1 7 C-0.438 7.125 -0.438 7.125 -2 8 C-2.281 9.191 -2.281 9.191 -2.438 10.688 C-2.869 14.328 -4.352 17.425 -7 20 C-8.59 20.07 -8.59 20.07 -10 20 C-10.688 21.5 -10.688 21.5 -11 23 C-11.99 22.67 -12.98 22.34 -14 22 C-13.719 20.997 -13.425 19.997 -13.125 19 C-12.963 18.443 -12.8 17.886 -12.633 17.312 C-12.528 17.096 -12.528 17.096 -12 16 C-11.34 16 -10.68 16 -10 16 C-10 15.01 -10 14.02 -10 13 C-10.825 13.495 -10.825 13.495 -15 16 C-15.66 14.777 -15.66 14.777 -16 13 C-15.22 11.351 -14.47 10.039 -13.438 8.562 C-13.164 8.164 -12.89 7.765 -12.608 7.354 C-9.524 3.057 -5.703 -0.877 0 0 Z " fill="#170F0A" transform="translate(172,162)"/>
<path d="M0 0 C3.408 2.698 4.309 6.11 5.688 10.125 C7.809 15.928 9.939 21.736 12.388 27.41 C12.869 28.548 13.313 29.701 13.757 30.854 C14.672 32.923 15.36 34.435 17 36 C19.851 36.327 22.269 35.817 25 35 C25 35.66 25 36.32 25 37 C27.31 37.33 29.62 37.66 32 38 C30.625 39.062 30.625 39.062 29 40 C28.67 39.835 28.67 39.835 27 39 C27 39.66 27 40.32 27 41 C26.34 41 25.68 41 25 41 C25.33 41.99 25.66 42.98 26 44 C24.515 44.165 24.515 44.165 17 45 C17 43.68 17 42.36 17 41 C16.219 39.267 15.351 38.403 14 37 C13.67 37.165 13.67 37.165 12 38 C10.375 36.938 10.375 36.938 9 35 C8.748 32.974 8.823 31.03 9 29 C9.66 29 10.32 29 11 29 C10.849 28.682 10.697 28.365 10.541 28.038 C9.855 26.59 9.177 25.139 8.5 23.688 C8.262 23.188 8.023 22.688 7.777 22.174 C7.552 21.687 7.326 21.201 7.094 20.699 C6.989 20.477 6.989 20.477 6.459 19.35 C5.942 17.83 5.918 16.595 6 15 C5.763 15.021 5.763 15.021 4.562 15.125 C4.047 15.084 3.531 15.042 3 15 C2.67 14.34 2.34 13.68 2 13 C0.656 13.288 -0.676 13.632 -2 14 C-3.924 14.359 -4.999 14.325 -7 14 C-7.785 12.373 -7.93 10.791 -8 9 C-7.01 8.67 -6.02 8.34 -5 8 C-5 8.66 -5 9.32 -5 10 C-4.34 10 -3.68 10 -3 10 C-2.691 8.906 -2.691 8.906 -2.562 7.5 C-2.352 6.113 -2.352 6.113 -2 5 C-0.438 4.688 -0.438 4.688 1 5 C0.67 3.35 0.34 1.7 0 0 Z " fill="#1D130D" transform="translate(93,128)"/>
<path d="M0 0 C3.914 1.401 7.171 3.518 9.215 7.172 C9.344 7.474 9.344 7.474 10 9 C8.68 8.34 7.36 7.68 6 7 C6 7.99 6 8.98 6 10 C5.34 10 4.68 10 4 10 C4.33 12.64 4.66 15.28 5 18 C3.188 18.875 3.188 18.875 1 19 C-0.053 17.553 -0.7 16.096 -1.387 14.445 C-2 13 -2 13 -3 12 C-4.123 11.735 -4.123 11.735 -5.504 11.535 C-5.997 11.457 -6.49 11.379 -6.998 11.299 C-8.044 11.141 -9.091 10.987 -10.139 10.838 C-11.629 10.598 -11.629 10.598 -14 10 C-14 9.34 -14 8.68 -14 8 C-13.34 8 -12.68 8 -12 8 C-12 7.34 -12 6.68 -12 6 C-11.01 6 -10.02 6 -9 6 C-11.31 5.67 -13.62 5.34 -16 5 C-11.777 -0.825 -6.792 -1.487 0 0 Z " fill="#261C16" transform="translate(132,161)"/>
<path d="M0 0 C1.376 1.123 1.946 1.758 2.336 3.516 C2.433 7.837 1.558 10.405 -0.93 13.934 C-2 15 -2 15 -4 15 C-4 15.66 -4 16.32 -4 17 C-5.45 17.985 -6.833 18.811 -8.375 19.625 C-8.581 19.74 -8.581 19.74 -9.625 20.32 C-11.546 21.361 -12.784 22 -15 22 C-15 22.66 -15 23.32 -15 24 C-15.899 24.834 -15.899 24.834 -17.16 25.664 C-17.621 25.977 -18.082 26.291 -18.556 26.613 C-19.053 26.947 -19.55 27.281 -20.062 27.625 C-27.879 33.11 -33.329 39.029 -37 48 C-37.276 48.664 -37.552 49.328 -37.836 50.012 C-38.695 52.313 -39.392 54.623 -40 57 C-40.122 57.466 -40.244 57.931 -40.369 58.411 C-44.121 73.815 -40.235 90.817 -35.439 105.602 C-34.469 108.692 -33.744 111.849 -33 115 C-35.685 113.657 -36.023 111.851 -36.953 109.164 C-37.127 108.673 -37.3 108.182 -37.479 107.676 C-39.311 102.332 -40.618 96.904 -41.75 91.375 C-41.857 90.856 -41.963 90.338 -42.073 89.803 C-45.889 70.923 -44.828 53.306 -34.027 36.695 C-29.902 30.898 -24.272 26.076 -18.02 22.713 C-17 22 -17 22 -16 20 C-14.405 19.146 -12.829 18.375 -11.188 17.625 C-3.63 13.924 -3.63 13.924 -2 11 C-1.606 9.695 -1.606 9.695 -1.328 8.305 C-1.228 7.807 -1.128 7.309 -1.025 6.795 C-0.623 4.536 -0.298 2.275 0 0 Z " fill="#64615D" transform="translate(126,12)"/>
<path d="M0 0 C1.375 -0.25 1.375 -0.25 3 0 C3.667 1.333 4.333 2.667 5 4 C6.562 4.125 6.562 4.125 8 4 C7.776 4.261 7.776 4.261 6.645 5.582 C2.494 10.58 -0.448 15.531 -2.957 21.52 C-3.304 22.347 -3.651 23.174 -4 24 C-4.168 24.4 -4.336 24.8 -4.509 25.212 C-5.012 26.324 -5.012 26.324 -6 28 C-6.66 28 -7.32 28 -8 28 C-8 25.69 -8 23.38 -8 21 C-8.66 21 -9.32 21 -10 21 C-9.905 20.578 -9.809 20.157 -9.711 19.723 C-9.6 19.175 -9.489 18.627 -9.375 18.062 C-9.259 17.517 -9.143 16.972 -9.023 16.41 C-9.016 15.945 -9.008 15.479 -9 15 C-9.66 14.67 -10.32 14.34 -11 14 C-7.577 3.808 -7.577 3.808 -4.375 1.812 C-3.148 1.207 -3.148 1.207 -2 1 C-1.34 1.33 -0.68 1.66 0 2 C0 1.34 0 0.68 0 0 Z " fill="#160E0A" transform="translate(90,39)"/>
<path d="M0 0 C7.234 -0.534 12.584 0.843 19.25 3.375 C20.13 3.697 21.01 4.017 21.891 4.336 C25.956 5.817 29.995 7.362 34 9 C32.887 12.744 31.814 14.533 28.512 16.617 C26.204 17.202 24.191 16.807 22 16 C20.219 14.617 20.219 14.617 18.5 12.875 C14.576 9.107 10.148 6.728 5.305 4.31 C4.762 4.036 4.219 3.763 3.66 3.48 C3.172 3.242 2.683 3.004 2.18 2.759 C1 2 1 2 0 0 Z " fill="#F1F2ED" transform="translate(184,17)"/>
<path d="M0 0 C0.33 0 0.66 0 1 0 C1.867 3.427 2.169 6.688 2.203 10.211 C2.21 10.696 2.217 11.181 2.224 11.681 C2.241 13.246 2.248 14.81 2.25 16.375 C2.251 16.91 2.253 17.445 2.254 17.997 C2.249 26.984 1.333 35.297 -1 44 C-1.244 45 -1.486 46 -1.727 47 C-3.022 52.228 -4.768 57.189 -6.844 62.156 C-8.003 64.954 -9.03 67.794 -10.065 70.64 C-12.988 78.645 -16.305 86.369 -20.04 94.028 C-20.902 95.799 -21.754 97.574 -22.603 99.351 C-23.498 101.217 -24.406 103.077 -25.312 104.938 C-25.65 105.643 -25.988 106.348 -26.335 107.074 C-26.654 107.719 -26.973 108.363 -27.301 109.027 C-27.441 109.315 -27.441 109.315 -28.15 110.769 C-28.43 111.175 -28.711 111.582 -29 112 C-29.66 112 -30.32 112 -31 112 C-29.445 106.654 -27.056 101.837 -24.605 96.861 C-17.128 81.636 -10.466 66.023 -5.547 49.767 C-5.19 48.613 -4.815 47.465 -4.422 46.323 C0.682 31.507 -0.154 15.483 0 0 Z " fill="#585451" transform="translate(276,76)"/>
<path d="M0 0 C0.66 0 1.32 0 2 0 C2.518 1.313 2.518 1.313 2.887 3.141 C3.02 3.799 3.154 4.458 3.291 5.137 C3.356 5.485 3.356 5.485 3.688 7.25 C3.83 7.932 3.972 8.614 4.119 9.316 C4.808 12.844 5.27 15.538 4 19 C3.826 19.832 3.658 20.665 3.5 21.5 C3.073 23.687 2.559 25.843 2 28 C1.34 26.02 0.68 24.04 0 22 C-0.99 23.65 -1.98 25.3 -3 27 C-2.34 27.33 -1.68 27.66 -1 28 C-1.33 28.66 -1.66 29.32 -2 30 C-1.34 30.33 -0.68 30.66 0 31 C-0.66 31.66 -1.32 32.32 -2 33 C-2.847 30.776 -3.675 28.545 -4.5 26.312 C-4.738 25.687 -4.977 25.061 -5.223 24.416 C-6.558 20.773 -7.297 17.881 -7 14 C-6.34 14 -5.68 14 -5 14 C-5.035 13.518 -5.07 13.036 -5.105 12.539 C-5.186 10.656 -5.215 8.874 -5 7 C-3.625 5.875 -3.625 5.875 -2 5 C-1.386 3.696 -0.946 2.402 -0.527 1.023 C-0.353 0.686 -0.179 0.348 0 0 Z " fill="#261D17" transform="translate(33,104)"/>
<path d="M0 0 C0.66 0 1.32 0 2 0 C2 0.66 2 1.32 2 2 C2.66 2.33 3.32 2.66 4 3 C3.781 3.029 3.781 3.029 2.674 3.176 C0.072 4.457 -0.594 6.62 -1.777 9.18 C-2.03 9.707 -2.283 10.234 -2.543 10.778 C-3.078 11.9 -3.608 13.025 -4.134 14.152 C-4.921 15.839 -5.723 17.518 -6.529 19.195 C-9.206 24.821 -11.601 30.45 -13.657 36.331 C-14.861 39.732 -16.269 42.845 -18.25 45.875 C-18.546 46.328 -18.842 46.782 -19.147 47.249 C-22.005 51.383 -25.113 54.38 -30 56 C-32.862 56.254 -35.242 55.753 -38 55 C-38.395 54.901 -38.79 54.802 -39.196 54.701 C-45.21 53.189 -50.557 50.995 -56 48 C-51.781 45.656 -51.781 45.656 -49.25 46.25 C-48.507 46.498 -47.765 46.745 -47 47 C-47 47.66 -47 48.32 -47 49 C-41.694 51.979 -35.073 54.588 -29 53 C-20.342 48.708 -16.12 37.504 -13.14 28.902 C-12.755 27.757 -12.371 26.612 -11.99 25.465 C-9.623 18.526 -6.232 12.083 -2.827 5.604 C-2.136 4.263 -1.505 2.914 -0.887 1.539 C-0.594 1.031 -0.301 0.523 0 0 Z " fill="#45413B" transform="translate(225,236)"/>
<path d="M0 0 C0 0.66 0 1.32 0 2 C1.188 1.855 2.375 1.709 3.562 1.562 C3.926 1.519 3.926 1.519 5.766 1.297 C7.176 1.109 8.584 0.894 9.984 0.641 C14.566 -0.182 14.566 -0.182 16.938 0.812 C18 2 18 2 18 4 C16.595 4.746 16.595 4.746 14.641 5.438 C13.937 5.693 13.233 5.948 12.508 6.211 C12.135 6.341 12.135 6.341 10.25 7 C8.796 7.519 7.343 8.04 5.891 8.562 C5.55 8.685 5.55 8.685 3.823 9.305 C2.356 9.864 0.984 10.457 -0.406 11.18 C-2.102 12.053 -3.121 12.188 -5 12 C-5 11.34 -5 10.68 -5 10 C-5.66 9.67 -6.32 9.34 -7 9 C-7.625 7.438 -7.625 7.438 -8 6 C-8.66 6.66 -9.32 7.32 -10 8 C-9.892 6.003 -9.825 4.778 -9 3 C-6.248 0.878 -3.479 -0.198 0 0 Z " fill="#180F0B" transform="translate(92,216)"/>
<path d="M0 0 C0.639 0.021 1.279 0.041 1.938 0.062 C1.938 0.722 1.938 1.382 1.938 2.062 C2.267 2.393 2.598 2.722 2.938 3.062 C5.27 6.024 5.282 8.318 5.207 11.988 C4.806 15.071 3.592 17.463 1.938 20.062 C1.277 19.403 0.618 18.743 -0.062 18.062 C-1.053 19.053 -2.043 20.042 -3.062 21.062 C-4.688 19.938 -4.688 19.938 -6.062 18.062 C-5.72 15.923 -4.948 14.032 -4.062 12.062 C-4.723 12.062 -5.382 12.062 -6.062 12.062 C-6.31 10.92 -6.535 9.774 -6.75 8.625 C-6.878 7.987 -7.005 7.349 -7.137 6.691 C-7.112 6.154 -7.088 5.616 -7.062 5.062 C-5.621 4.434 -5.621 4.434 -4.062 4.062 C-3.438 2.562 -3.438 2.562 -3.062 1.062 C-2.062 0.062 -2.062 0.062 0 0 Z " fill="#170E09" transform="translate(277.0625,209.9375)"/>
<path d="M0 0 C2.97 0.99 5.94 1.98 9 3 C8.67 4.65 8.34 6.3 8 8 C6.68 7.67 5.36 7.34 4 7 C4 7.66 4 8.32 4 9 C4.99 9.165 4.99 9.165 10 10 C10 10.66 10 11.32 10 12 C9.361 11.959 8.721 11.917 8.062 11.875 C7.722 11.896 7.722 11.896 6 12 C5.67 12.66 5.34 13.32 5 14 C2.608 13.094 0.225 12.17 -2.153 11.229 C-2.962 10.912 -3.773 10.6 -4.586 10.292 C-5.758 9.849 -6.922 9.386 -8.086 8.922 C-8.437 8.786 -8.437 8.786 -10.212 8.097 C-12.463 6.716 -13.016 5.413 -14 3 C-14.33 2.34 -14.66 1.68 -15 1 C-12.202 1.494 -9.613 2.103 -6.938 3.062 C-4.545 3.897 -2.557 4.197 0 4 C0 2.68 0 1.36 0 0 Z " fill="#241B16" transform="translate(216,175)"/>
<path d="M0 0 C1.75 1.125 1.75 1.125 2.75 3.125 C4.312 3.75 4.312 3.75 5.75 4.125 C2.94 5.269 0.128 6.408 -2.685 7.543 C-3.642 7.93 -4.598 8.318 -5.554 8.707 C-6.928 9.266 -8.304 9.821 -9.68 10.375 C-10.107 10.55 -10.534 10.725 -10.974 10.905 C-12.849 11.656 -14.208 12.125 -16.25 12.125 C-16.58 12.785 -16.91 13.445 -17.25 14.125 C-17.25 10.444 -16.936 7.498 -15.25 4.125 C-14.59 4.125 -13.93 4.125 -13.25 4.125 C-13.147 3.671 -13.044 3.218 -12.938 2.75 C-12.138 0.861 -11.814 0.723 -10 -0.062 C-6.442 -1.283 -3.575 -1.39 0 0 Z M-3.25 0.125 C-3.58 0.785 -3.91 1.445 -4.25 2.125 C-3.59 2.125 -2.93 2.125 -2.25 2.125 C-2.58 1.465 -2.91 0.805 -3.25 0.125 Z " fill="#140E0A" transform="translate(108.25,234.875)"/>
<path d="M0 0 C0.562 1.375 0.562 1.375 1 3 C0.333 4.333 -0.333 5.667 -1 7 C-0.562 8.5 -0.562 8.5 0 10 C-0.438 12.188 -0.438 12.188 -1 14 C-0.34 14 0.32 14 1 14 C1 16.31 1 18.62 1 21 C1.66 21 2.32 21 3 21 C2.67 21.99 2.34 22.98 2 24 C0.68 23.67 -0.64 23.34 -2 23 C-2 23.66 -2 24.32 -2 25 C-2.472 25.143 -2.944 25.286 -3.43 25.434 C-5 26 -5 26 -5.695 27.41 C-5.837 27.955 -5.979 28.501 -6.125 29.062 C-6.39 30.049 -6.674 31.032 -7 32 C-7.33 32 -7.66 32 -8 32 C-10.892 21.435 -5.661 10.46 -0.699 1.223 C-0.468 0.819 -0.238 0.416 0 0 Z " fill="#211915" transform="translate(81,46)"/>
<path d="M0 0 C0.66 0.33 1.32 0.66 2 1 C1.67 1.66 1.34 2.32 1 3 C0.34 3 -0.32 3 -1 3 C-0.792 3.581 -0.585 4.163 -0.371 4.762 C0.098 7.594 -0.456 8.479 -2.062 10.812 C-3.453 12.648 -3.453 12.648 -5 14 C-7.235 14.303 -8.93 13.846 -11 13 C-11 12.34 -11 11.68 -11 11 C-11.66 10.67 -12.32 10.34 -13 10 C-13.082 10.474 -13.165 10.949 -13.25 11.438 C-13.498 11.953 -13.745 12.469 -14 13 C-16.062 13.688 -16.062 13.688 -18 14 C-17.394 12.284 -16.74 10.659 -16 9 C-15.767 8.438 -15.533 7.876 -15.293 7.297 C-14.345 5.444 -13.656 4.277 -12 3 C-8.848 2.782 -6.082 3.276 -3 4 C-3 3.34 -3 2.68 -3 2 C-1.625 0.812 -1.625 0.812 0 0 Z " fill="#261B15" transform="translate(47,47)"/>
<path d="M0 0 C1.017 0.841 1.017 0.841 2 2 C2.031 3.178 2.031 3.178 1.723 4.539 C1.613 5.069 1.504 5.599 1.391 6.146 C1.262 6.757 1.133 7.369 1 8 C0.743 9.507 0.492 11.015 0.246 12.523 C-0.503 17.016 -1.251 21.508 -2 26 C-2.66 25.34 -3.32 24.68 -4 24 C-4.049 24.699 -4.098 25.397 -4.148 26.117 C-4.223 27.036 -4.299 27.956 -4.375 28.875 C-4.406 29.335 -4.437 29.795 -4.469 30.27 C-4.702 32.948 -4.984 34.238 -7 36 C-7.523 23.149 -6.709 11.273 0 0 Z " fill="#E2E1DC" transform="translate(40,62)"/>
<path d="M0 0 C0 0.66 0 1.32 0 2 C1.32 1.67 2.64 1.34 4 1 C3.67 1.66 3.34 2.32 3 3 C3.66 3.33 4.32 3.66 5 4 C5.33 3.34 5.66 2.68 6 2 C6.99 3.32 7.98 4.64 9 6 C-0.41 5.036 -0.41 5.036 -5 4 C-4.988 4.482 -4.977 4.964 -4.965 5.461 C-4.96 5.777 -4.96 5.777 -4.938 7.375 C-4.926 8.001 -4.914 8.628 -4.902 9.273 C-5 11 -5 11 -6 13 C-6.66 13 -7.32 13 -8 13 C-8.33 12.34 -8.66 11.68 -9 11 C-9 13 -9 13 -8 15 C-10.622 13.951 -11.794 13.351 -13.25 10.875 C-13.498 10.256 -13.745 9.637 -14 9 C-13.34 9 -12.68 9 -12 9 C-12 7.35 -12 5.7 -12 4 C-11.34 4 -10.68 4 -10 4 C-10 2.68 -10 1.36 -10 0 C-8.897 -0.196 -7.793 -0.382 -6.688 -0.562 C-6.38 -0.615 -6.38 -0.615 -4.824 -0.879 C-2.895 -1.007 -1.719 -0.884 0 0 Z " fill="#1A100C" transform="translate(188,12)"/>
<path d="M0 0 C-2.522 2.849 -5.379 4.483 -8.688 6.312 C-13.78 9.196 -18.437 12.336 -23 16 C-23.113 13.03 -22.618 10.53 -21 8 C-19.375 7.688 -19.375 7.688 -18 8 C-18.33 6.35 -18.66 4.7 -19 3 C-12.459 0.706 -6.995 -0.456 0 0 Z " fill="#EDECE9" transform="translate(115,17)"/>
<path d="M0 0 C1.8 1.557 1.984 1.846 2.25 4.375 C2.143 6.95 1.442 8.836 0 11 C-0.66 11 -1.32 11 -2 11 C-1.188 12 -1.188 12 0 13 C0.248 12.979 0.248 12.979 1.5 12.875 C1.995 12.916 2.49 12.958 3 13 C4.25 14.875 4.25 14.875 5 17 C4.67 17.66 4.34 18.32 4 19 C2.562 19.312 2.562 19.312 1 19 C-0.188 17.5 -0.188 17.5 -1 16 C-1.11 16.361 -1.219 16.722 -1.332 17.094 C-1.803 18.473 -2.279 19.732 -3 21 C-4.438 21.312 -4.438 21.312 -6 21 C-7 20.988 -8 20.986 -9 21 C-7.552 16.162 -5.545 11.678 -3.375 7.125 C-3.213 6.781 -3.213 6.781 -2.391 5.039 C-1.597 3.358 -0.8 1.678 0 0 Z " fill="#211813" transform="translate(246,159)"/>
<path d="M0 0 C0.33 0 0.66 0 1 0 C2.763 6.071 3.073 12.91 0.145 18.613 C-3.367 22.868 -7.868 25.097 -12.875 27.188 C-13.462 27.447 -14.048 27.707 -14.652 27.975 C-18.735 29.711 -22.586 30.587 -27 31 C-26.7 31.615 -26.399 32.23 -26.09 32.863 C-25.705 33.679 -25.321 34.496 -24.938 35.312 C-24.738 35.717 -24.539 36.121 -24.334 36.537 C-23.429 38.489 -22.927 39.654 -23.379 41.793 C-23.584 42.191 -23.789 42.59 -24 43 C-25.007 41.212 -26.004 39.419 -27 37.625 C-27.143 37.371 -27.143 37.371 -27.867 36.086 C-28.138 35.596 -28.409 35.106 -28.688 34.602 C-28.939 34.151 -29.19 33.701 -29.449 33.237 C-30 32 -30 32 -30 30 C-28.598 29.351 -27.303 28.87 -25.836 28.414 C-25.406 28.271 -24.977 28.128 -24.534 27.981 C-22.693 27.368 -20.845 26.776 -18.998 26.183 C-4.539 21.503 -4.539 21.503 -0.68 14.215 C0.732 9.613 0.281 4.756 0 0 Z " fill="#6F6C68" transform="translate(148,186)"/>
<path d="M0 0 C0.66 0 1.32 0 2 0 C2.852 1.207 2.852 1.207 3.625 2.812 C3.755 3.074 3.755 3.074 4.414 4.395 C5.463 7.268 5.463 7.268 5 9 C3.419 9.586 2.139 9.919 0.5 10.188 C0.071 10.269 -0.359 10.351 -0.801 10.436 C-1.865 10.637 -2.932 10.82 -4 11 C-3.67 10.01 -3.34 9.02 -3 8 C-3.192 8.061 -3.192 8.061 -4.162 8.367 C-5.899 8.914 -7.637 9.457 -9.375 10 C-9.978 10.191 -10.582 10.382 -11.203 10.578 C-11.783 10.759 -12.363 10.939 -12.961 11.125 C-13.495 11.293 -14.029 11.46 -14.58 11.633 C-16 12 -16 12 -18 12 C-18.198 10.578 -18.198 10.578 -18 9 C-16.671 8.264 -16.671 8.264 -14.824 7.754 C-14.161 7.556 -13.498 7.358 -12.814 7.154 C-11.408 6.763 -10.002 6.372 -8.596 5.982 C-4.314 4.704 -2.363 3.798 0 0 Z " fill="#9E9991" transform="translate(108,222)"/>
<path d="M0 0 C3.582 2.77 4.59 6.66 6.062 10.812 C6.318 11.512 6.574 12.211 6.838 12.932 C8.294 16.932 9.68 20.953 11 25 C10.34 25 9.68 25 9 25 C8.148 23.574 8.148 23.574 7.375 21.688 C7.115 21.073 6.854 20.458 6.586 19.824 C6.026 18.082 5.877 16.811 6 15 C5.763 15.021 5.763 15.021 4.562 15.125 C4.047 15.084 3.531 15.042 3 15 C2.67 14.34 2.34 13.68 2 13 C0.656 13.288 -0.676 13.632 -2 14 C-3.924 14.359 -4.999 14.325 -7 14 C-7.785 12.373 -7.93 10.791 -8 9 C-7.01 8.67 -6.02 8.34 -5 8 C-5 8.66 -5 9.32 -5 10 C-4.34 10 -3.68 10 -3 10 C-2.691 8.906 -2.691 8.906 -2.562 7.5 C-2.352 6.113 -2.352 6.113 -2 5 C-0.438 4.688 -0.438 4.688 1 5 C0.67 3.35 0.34 1.7 0 0 Z " fill="#403834" transform="translate(93,128)"/>
<path d="M0 0 C2.65 2.035 4.012 4.328 4.512 7.617 C5.246 16.133 2.129 21.481 -3 28 C-3.283 28.382 -3.566 28.763 -3.857 29.157 C-8.4 35.276 -14.638 41.001 -22.348 42.438 C-27.374 42.583 -27.374 42.583 -29.1 40.975 C-29.397 40.653 -29.694 40.331 -30 40 C-29.203 39.902 -28.407 39.804 -27.586 39.703 C-16.323 38.181 -16.323 38.181 -12 34 C-11.848 33.854 -11.848 33.854 -11.08 33.113 C-4.829 26.947 2.288 18.622 2.438 9.438 C2.284 7.201 2.015 6.029 1 4 C-0.562 3.875 -0.562 3.875 -2 4 C-2 3.34 -2 2.68 -2 2 C-1.34 2 -0.68 2 0 2 C0 1.34 0 0.68 0 0 Z " fill="#605D5A" transform="translate(279,210)"/>
<path d="M0 0 C0.103 0.495 0.206 0.99 0.312 1.5 C0.426 1.748 0.426 1.748 1 3 C1.248 2.99 1.248 2.99 2.5 2.938 C2.995 2.958 3.49 2.979 4 3 C4.688 5 4.688 5 5 7 C4.34 7 3.68 7 3 7 C2.438 8.496 2.438 8.496 2 10.438 C1.562 12.371 1.562 12.371 1 14 C0.67 14.165 0.67 14.165 -1 15 C-1.33 14.34 -1.66 13.68 -2 13 C-2.33 13.165 -2.33 13.165 -4 14 C-4.673 12.398 -5.339 10.794 -6 9.188 C-6.191 8.736 -6.382 8.284 -6.578 7.818 C-7.537 5.472 -8.275 3.586 -8 1 C-7.795 1.006 -7.795 1.006 -6.758 1.035 C-6.219 1.044 -5.68 1.053 -5.125 1.062 C-4.591 1.074 -4.058 1.086 -3.508 1.098 C-2 1 -2 1 0 0 Z " fill="#1F1410" transform="translate(95,140)"/>
<path d="M0 0 C1.32 0 2.64 0 4 0 C4 1.65 4 3.3 4 5 C4.41 4.893 4.82 4.786 5.242 4.676 C6.86 4.316 8.341 4.026 10 4 C11.375 5.438 11.375 5.438 12 7 C7.211 10.155 2.664 10.812 -3 10 C-4.991 9.198 -6.285 8.327 -8 7 C-6.203 5.016 -6.203 5.016 -4.375 4.875 C-3.921 4.916 -3.468 4.958 -3 5 C-3 4.34 -3 3.68 -3 3 C-1.35 3 0.3 3 2 3 C2 2.34 2 1.68 2 1 C1.34 0.67 0.68 0.34 0 0 Z M5 6 C6 8 6 8 6 8 Z " fill="#150C09" transform="translate(252,240)"/>
<path d="M0 0 C0.433 0.33 0.866 0.66 1.312 1 C3 2 3 2 5.188 1.625 C5.786 1.419 6.384 1.212 7 1 C7 3.134 6.954 4.133 6 6 C3.52 8.04 0.835 9.524 -2 11 C-2.495 11.262 -2.99 11.523 -3.5 11.793 C-5.672 12.804 -6.929 13.011 -9.312 12.625 C-9.869 12.419 -10.426 12.212 -11 12 C-10.34 12 -9.68 12 -9 12 C-8.918 11.196 -8.835 10.391 -8.75 9.562 C-8.547 8.16 -8.547 8.16 -8 7 C-6.641 6.621 -6.641 6.621 -5 6.5 C-3.363 6.375 -3.363 6.375 -2 6 C-1.315 4.677 -1.196 3.636 -1.105 2.156 C-1 1 -1 1 0 0 Z " fill="#160E0A" transform="translate(134,272)"/>
<path d="M0 0 C0.66 0 1.32 0 2 0 C1.435 2.729 0.825 4.853 -1 7 C-1.66 7 -2.32 7 -3 7 C-3 7.66 -3 8.32 -3 9 C-4.326 9.822 -4.326 9.822 -6.184 10.621 C-6.86 10.916 -7.536 11.21 -8.232 11.513 C-8.96 11.818 -9.688 12.123 -10.438 12.438 C-11.172 12.75 -11.907 13.062 -12.664 13.383 C-14.771 14.269 -16.883 15.138 -19 16 C-19.494 16.204 -19.987 16.407 -20.496 16.617 C-25.839 18.781 -31.227 19.992 -37 19 C-37.33 18.34 -37.66 17.68 -38 17 C-37.683 16.974 -37.683 16.974 -36.078 16.844 C-28.805 16.035 -22.315 13.819 -15.562 11.125 C-15.127 10.954 -14.691 10.784 -14.242 10.608 C-3.973 6.557 -3.973 6.557 -1 3 C-0.836 2.465 -0.671 1.93 -0.502 1.379 C-0.336 0.924 -0.171 0.469 0 0 Z " fill="#7C7B77" transform="translate(142,273)"/>
<path d="M0 0 C2.257 1.129 2.362 1.361 3.125 3.625 C4.203 7.094 4.192 10.399 4 14 C3.01 12.68 2.02 11.36 1 10 C0.34 11.98 -0.32 13.96 -1 16 C-2.906 15.734 -2.906 15.734 -5 15 C-6.459 12.481 -6.946 9.898 -7 7 C-6.017 4.914 -4.74 3.496 -3 2 C-2.67 3.32 -2.34 4.64 -2 6 C-2.041 5.196 -2.082 4.391 -2.125 3.562 C-2.195 2.191 -2.195 2.191 -2 1 C-1.34 0.67 -0.68 0.34 0 0 Z " fill="#170F0B" transform="translate(37,122)"/>
<path d="M0 0 C2.383 0.939 3.538 1.754 5.062 3.812 C5.562 5.688 5.562 5.688 5.062 7.812 C3.655 9.868 2.187 11.493 0.062 12.812 C-2.425 12.244 -3.458 11.248 -5.312 9.562 C-6.187 7.113 -5.493 5.607 -4.641 3.215 C-3.442 0.824 -2.764 -0.268 0 0 Z " fill="#170E0B" transform="translate(200.9375,28.1875)"/>
<path d="M0 0 C2.311 0.66 4.198 1.382 6 3 C6.548 5.726 6.352 8.254 6 11 C5.01 11 4.02 11 3 11 C3 11.66 3 12.32 3 13 C0.69 12.67 -1.62 12.34 -4 12 C-3.763 10.815 -3.525 9.629 -3.281 8.445 C-3.094 7.485 -2.928 6.522 -2.781 5.555 C-2.562 4.188 -2.562 4.188 -2 2 C-1.34 2 -0.68 2 0 2 C0 1.34 0 0.68 0 0 Z " fill="#1D1510" transform="translate(247,188)"/>
<path d="M0 0 C1.824 2.352 2.256 3.988 2.438 6.938 C2.825 11.402 3.812 15.54 5.072 19.838 C5.902 22.84 6.291 25.013 5 28 C4.34 28 3.68 28 3 28 C2.422 26.69 2.422 26.69 1.965 24.852 C1.88 24.516 1.88 24.516 1.452 22.817 C1.282 22.094 1.112 21.37 0.938 20.625 C0.763 19.898 0.588 19.171 0.408 18.421 C-2.307 6.769 -2.307 6.769 -2 2 C-1.008 0.742 -1.008 0.742 0 0 Z " fill="#F3F2F0" transform="translate(36,98)"/>
<path d="M0 0 C1.797 0.059 1.797 0.059 4 1 C5.418 3.216 6.311 5.613 7.25 8.062 C7.518 8.726 7.786 9.389 8.062 10.072 C8.722 11.71 9.367 13.352 10 15 C9.586 15.064 9.173 15.128 8.747 15.195 C8.476 15.238 8.476 15.238 7.105 15.457 C6.837 15.499 6.837 15.499 5.477 15.714 C4 16 4 16 2.312 16.688 C1 17 1 17 -0.688 16.188 C-1.121 15.796 -1.554 15.404 -2 15 C-2 14.34 -2 13.68 -2 13 C-1.01 13 -0.02 13 1 13 C1.027 11.583 1.047 10.167 1.062 8.75 C1.074 7.961 1.086 7.172 1.098 6.359 C1.004 4.093 0.632 2.171 0 0 Z " fill="#1E1510" transform="translate(48,155)"/>
<path d="M0 0 C3.133 2.722 4.686 5.058 6 9 C4.68 9.33 3.36 9.66 2 10 C2 9.01 2 8.02 2 7 C1.01 7 0.02 7 -1 7 C-0.867 7.592 -0.734 8.183 -0.598 8.793 C0.31 12.854 1.209 16.914 2 21 C1.01 21.33 0.02 21.66 -1 22 C-1.672 20.711 -2.337 19.419 -3 18.125 C-3.371 17.406 -3.743 16.686 -4.125 15.945 C-5 14 -5 14 -5 12 C-4.34 12 -3.68 12 -3 12 C-3.062 11.278 -3.124 10.556 -3.188 9.812 C-3.211 7.008 -2.242 5.367 -0.656 3.113 C0 2 0 2 0 0 Z " fill="#221A18" transform="translate(263,49)"/>
<path d="M0 0 C0.33 0.66 0.66 1.32 1 2 C2.156 2.457 2.156 2.457 3.5 2.812 C4.867 3.305 4.867 3.305 6 4 C6.5 5.271 6.621 6.403 6.762 7.758 C7.157 9.821 8.384 10.772 10 12 C10.66 12 11.32 12 12 12 C12.625 13.5 12.625 13.5 13 15 C12.67 15.165 12.67 15.165 11 16 C9.875 17.563 9.875 17.563 9 19 C8.636 18.432 8.273 17.863 7.898 17.277 C4.591 12.174 1.087 7.507 -3 3 C-2.01 2.01 -1.02 1.02 0 0 Z " fill="#312B26" transform="translate(202,38)"/>
<path d="M0 0 C0 0.33 0 0.66 0 1 C1.312 1.535 1.312 1.535 3 2.062 C3.557 2.239 4.114 2.416 4.688 2.598 C4.904 2.664 4.904 2.664 6 3 C5.01 3.66 4.02 4.32 3 5 C3.99 5.165 3.99 5.165 9 6 C9 6.33 9 6.66 9 7 C7.413 7.415 5.859 7.757 4.25 8.062 C3.807 8.153 3.363 8.244 2.906 8.338 C0.233 8.861 -2.263 9.096 -5 9 C-4.859 8.02 -4.712 7.041 -4.562 6.062 C-4.481 5.517 -4.4 4.972 -4.316 4.41 C-4 3 -4 3 -3 2 C-4.98 2.165 -4.98 2.165 -15 3 C-14 1 -14 1 -12.109 0.332 C-4.06 -1.441 -4.06 -1.441 0 0 Z " fill="#110A07" transform="translate(107,9)"/>
<path d="M0 0 C3.815 1.6 3.815 1.6 4.75 3.625 C4.791 3.852 4.791 3.852 5 5 C4.34 5 3.68 5 3 5 C2.508 6.532 2.163 7.928 1.875 9.5 C1.789 9.929 1.702 10.359 1.613 10.801 C1.4 11.866 1.199 12.933 1 14 C-2.998 12.22 -5.402 10.136 -7 6 C-6.731 3.926 -6.084 2.843 -5 1 C-1.185 2.6 -1.185 2.6 -0.25 4.625 C-0.168 5.079 -0.085 5.532 0 6 C0.787 4.165 1.072 3.278 0.562 1.312 C0.377 0.879 0.191 0.446 0 0 Z " fill="#18110D" transform="translate(259,47)"/>
<path d="M0 0 C0.66 0 1.32 0 2 0 C2 0.66 2 1.32 2 2 C2.66 2.33 3.32 2.66 4 3 C3.563 3.056 3.126 3.112 2.676 3.17 C0.051 4.47 -0.622 6.698 -1.812 9.285 C-2.067 9.82 -2.322 10.354 -2.585 10.905 C-3.124 12.04 -3.659 13.178 -4.188 14.317 C-4.988 16.036 -5.801 17.748 -6.617 19.459 C-9.347 25.219 -11.926 30.967 -14 37 C-14.66 36.67 -15.32 36.34 -16 36 C-12.315 25.436 -8.022 15.477 -2.811 5.572 C-2.126 4.245 -1.503 2.908 -0.891 1.547 C-0.597 1.036 -0.303 0.526 0 0 Z " fill="#635F5A" transform="translate(225,236)"/>
<path d="M0 0 C2.704 2.371 3.924 4.601 5.188 7.875 C5.365 8.297 5.542 8.718 5.725 9.152 C6.941 12.224 7.171 14.703 7 18 C5 15.25 5 15.25 5 13 C4.34 13 3.68 13 3 13 C2.67 13.66 2.34 14.32 2 15 C0.5 13.625 0.5 13.625 -1 12 C-1 11.34 -1 10.68 -1 10 C-1.66 10 -2.32 10 -3 10 C-2.688 8.896 -2.376 7.791 -2.062 6.688 C-1.888 6.073 -1.714 5.458 -1.535 4.824 C-1.059 3.202 -0.546 1.6 0 0 Z " fill="#322B25" transform="translate(269,58)"/>
<path d="M0 0 C3.098 0.921 5.057 1.627 6.875 4.375 C7.913 6.35 8.001 6.985 7.812 9.312 C7.544 9.869 7.276 10.426 7 11 C6.34 11 5.68 11 5 11 C4.586 9.906 4.586 9.906 4.375 8.5 C4.3 8.036 4.225 7.572 4.148 7.094 C4.099 6.733 4.05 6.372 4 6 C2.062 6.188 2.062 6.188 0 7 C-1.942 11.632 -0.613 17.145 0 22 C-1.63 19.024 -2.573 16.256 -3.25 12.938 C-3.353 12.504 -3.456 12.07 -3.562 11.623 C-4.012 9.452 -4.105 8.229 -3.172 6.191 C-2.785 5.798 -2.398 5.405 -2 5 C-1.34 5 -0.68 5 0 5 C0 3.35 0 1.7 0 0 Z " fill="#2F2621" transform="translate(216,49)"/>
<path d="M0 0 C0.452 0.186 0.904 0.371 1.369 0.563 C1.007 0.784 0.644 1.006 0.271 1.234 C-1.405 2.259 -3.081 3.286 -4.756 4.313 C-5.326 4.661 -5.895 5.009 -6.482 5.367 C-9.805 7.406 -13.07 9.501 -16.279 11.715 C-21.017 14.686 -26.146 15.148 -31.631 14.563 C-33.455 14.053 -34.928 13.414 -36.631 12.563 C-34.326 11.554 -32.497 11.581 -30.015 11.781 C-22.546 12.289 -17.76 9.509 -11.631 5.563 C-10.242 4.684 -8.85 3.81 -7.451 2.946 C-6.59 2.411 -5.736 1.864 -4.89 1.304 C-1.987 -0.533 -1.987 -0.533 0 0 Z " fill="#7E7C79" transform="translate(74.630859375,237.437255859375)"/>
<path d="M0 0 C0.911 2.97 1.018 5.065 0.441 8.109 C0.303 8.863 0.164 9.618 0.021 10.395 C-0.13 11.172 -0.281 11.949 -0.438 12.75 C-0.585 13.543 -0.733 14.336 -0.885 15.152 C-1.249 17.103 -1.621 19.052 -2 21 C-2.66 20.67 -3.32 20.34 -4 20 C-5.294 15.73 -5.099 11.428 -5 7 C-4.34 7 -3.68 7 -3 7 C-3 6.34 -3 5.68 -3 5 C-3.66 4.67 -4.32 4.34 -5 4 C-3.35 2.68 -1.7 1.36 0 0 Z " fill="#EBEBE6" transform="translate(265,96)"/>
<path d="M0 0 C0.432 0.236 0.864 0.472 1.309 0.715 C1.309 1.375 1.309 2.035 1.309 2.715 C0.649 2.715 -0.011 2.715 -0.691 2.715 C-0.584 3.125 -0.477 3.535 -0.367 3.957 C-0.009 5.566 0.251 7.067 0.309 8.715 C-1.373 10.922 -3.766 10.942 -6.379 11.34 C-7.482 11.472 -8.586 11.6 -9.691 11.715 C-8.72 4.814 -8.72 4.814 -6.328 2.258 C-2.51 -0.423 -2.51 -0.423 0 0 Z " fill="#160F0A" transform="translate(137.69140625,197.28515625)"/>
<path d="M0 0 C0.66 0.33 1.32 0.66 2 1 C2.805 4.636 1.785 8.035 0.5 11.418 C-0.065 13.205 -0.252 14.888 -0.438 16.75 C-0.823 19.815 -0.823 19.815 -2.375 21.438 C-4.046 22.016 -5.251 22.044 -7 22 C-4.841 14.606 -2.47 7.296 0 0 Z " fill="#E3E3E0" transform="translate(224,110)"/>
<path d="M0 0 C-0.33 1.32 -0.66 2.64 -1 4 C-0.34 4 0.32 4 1 4 C1 4.99 1 5.98 1 7 C0.01 7 -0.98 7 -2 7 C-2.049 7.494 -2.098 7.987 -2.148 8.496 C-2.223 9.137 -2.298 9.777 -2.375 10.438 C-2.445 11.076 -2.514 11.714 -2.586 12.371 C-2.723 12.909 -2.859 13.446 -3 14 C-5.491 15.245 -6.411 14.777 -9 14 C-8.434 10.604 -7.671 8.007 -6 5 C-6.66 4.67 -7.32 4.34 -8 4 C-7.237 3.324 -6.464 2.66 -5.688 2 C-5.258 1.629 -4.829 1.258 -4.387 0.875 C-2.778 -0.14 -1.867 -0.175 0 0 Z " fill="#160D09" transform="translate(63,26)"/>
<path d="M0 0 C0.66 0.33 1.32 0.66 2 1 C-0.193 9.224 -4.158 16.568 -8.035 24.101 C-8.903 25.808 -9.741 27.524 -10.562 29.254 C-10.675 29.49 -10.675 29.49 -11.247 30.682 C-11.655 31.538 -12.057 32.396 -12.453 33.258 C-12.992 34.375 -12.992 34.375 -14 36 C-14.66 36 -15.32 36 -16 36 C-14.771 32.052 -13.324 28.339 -11.504 24.629 C-11.27 24.143 -11.035 23.658 -10.794 23.158 C-10.054 21.624 -9.308 20.093 -8.562 18.562 C-7.583 16.544 -6.605 14.524 -5.629 12.504 C-5.397 12.024 -5.164 11.543 -4.925 11.048 C-3.175 7.41 -1.53 3.736 0 0 Z " fill="#4F4C46" transform="translate(261,152)"/>
<path d="M0 0 C0.66 0 1.32 0 2 0 C3.289 1.312 3.289 1.312 4.625 3 C5.071 3.557 5.517 4.114 5.977 4.688 C6.314 5.121 6.652 5.554 7 6 C6.34 6.33 6.34 6.33 3 8 C3 7.34 3 6.68 3 6 C2.325 6 1.649 6 0.953 6 C-3.031 6 -7.016 6 -11 6 C-10.775 3.966 -10.417 2.512 -9 1 C-5.967 0.529 -3.048 0.718 0 1 C0 0.67 0 0.34 0 0 Z " fill="#150E0A" transform="translate(221,17)"/>
<path d="M0 0 C0.33 0 0.66 0 1 0 C0.657 11.219 -3.799 22.039 -7.688 32.438 C-7.89 32.987 -8.092 33.536 -8.3 34.103 C-8.493 34.604 -8.687 35.105 -8.887 35.621 C-9.054 36.059 -9.221 36.496 -9.393 36.947 C-10 38 -10 38 -12 39 C-11.321 32.947 -9.173 27.447 -7.125 21.75 C-6.416 19.767 -5.711 17.782 -5.008 15.797 C-4.836 15.315 -4.665 14.833 -4.488 14.336 C-3.167 10.582 -2.001 6.794 -0.945 2.958 C-0.662 1.962 -0.336 0.979 0 0 Z " fill="#7B7975" transform="translate(274,114)"/>
<path d="M0 0 C0.041 0.32 0.041 0.32 0.25 1.938 C0.498 2.618 0.745 3.299 1 4 C3.062 4.75 3.062 4.75 5 5 C3.02 5.33 1.04 5.66 -1 6 C-1 7.32 -1 8.64 -1 10 C-2.124 10.054 -3.25 10.093 -4.375 10.125 C-4.688 10.137 -4.688 10.137 -6.273 10.195 C-8 10 -8 10 -9.227 8.992 C-9.482 8.665 -9.737 8.337 -10 8 C-9.34 8 -8.68 8 -8 8 C-7.691 6.906 -7.691 6.906 -7.562 5.5 C-7.352 4.113 -7.352 4.113 -7 3 C-5.438 2.688 -5.438 2.688 -4 3 C-4 2.34 -4 1.68 -4 1 C-2 0.375 -2 0.375 0 0 Z " fill="#180D0A" transform="translate(49,240)"/>
<path d="M0 0 C0.33 0 0.66 0 1 0 C0.67 4.62 0.34 9.24 0 14 C-0.33 14 -0.66 14 -1 14 C-1 12.35 -1 10.7 -1 9 C-2.65 9.66 -4.3 10.32 -6 11 C-6.124 10.34 -6.247 9.68 -6.375 9 C-6.478 8.67 -6.478 8.67 -7 7 C-7.66 7 -8.32 7 -9 7 C-8.625 5 -8.625 5 -8 3 C-7.34 3 -6.68 3 -6 3 C-6 2.34 -6 1.68 -6 1 C-4.68 1.66 -3.36 2.32 -2 3 C-1.691 2.505 -1.381 2.01 -1.062 1.5 C-0.712 1.005 -0.361 0.51 0 0 Z " fill="#150C07" transform="translate(32,81)"/>
<path d="M0 0 C1.961 0.234 1.961 0.234 4.375 0.75 C4.771 0.83 4.771 0.83 6.773 1.234 C9.251 2.086 10.394 2.949 12 5 C12 5.66 12 6.32 12 7 C11.301 6.988 10.603 6.977 9.883 6.965 C8.964 6.955 8.044 6.946 7.125 6.938 C6.665 6.929 6.205 6.921 5.73 6.912 C3.441 6.896 2.08 6.96 0 8 C-0.66 7.67 -1.32 7.34 -2 7 C-2.012 5.625 -2.012 5.625 -1.688 4 C-1.588 3.464 -1.489 2.928 -1.387 2.375 C-1 1 -1 1 0 0 Z " fill="#928E87" transform="translate(191,221)"/>
<path d="M0 0 C0.124 0.66 0.248 1.32 0.375 2 C0.581 2.66 0.788 3.32 1 4 C1.66 4 2.32 4 3 4 C3 3.01 3 2.02 3 1 C3.66 1.33 4.32 1.66 5 2 C5.004 4.164 4.971 5.141 4 7 C2.147 8.481 0.105 9.374 -2.062 10.312 C-2.63 10.576 -3.198 10.84 -3.783 11.111 C-5.182 11.758 -6.587 12.386 -8 13 C-7.875 10.602 -7.685 8.308 -7 6 C-5.125 5.375 -5.125 5.375 -3 5 C-1.754 3.456 -0.867 1.779 0 0 Z " fill="#1B1611" transform="translate(45,198)"/>
<path d="M0 0 C0.66 0 1.32 0 2 0 C1.885 1.438 1.758 2.876 1.625 4.312 C1.555 5.113 1.486 5.914 1.414 6.738 C0.998 9.013 0.424 10.211 -1 12 C-1 10.68 -1 9.36 -1 8 C-1.794 8.455 -2.585 8.914 -3.375 9.375 C-3.816 9.63 -4.257 9.885 -4.711 10.148 C-5.983 10.989 -6.965 11.887 -8 13 C-8 12.34 -8 11.68 -8 11 C-8.66 11 -9.32 11 -10 11 C-9.492 5.433 -9.492 5.433 -7.438 3.625 C-6.963 3.419 -6.489 3.213 -6 3 C-6 3.99 -6 4.98 -6 6 C-5.546 5.814 -5.092 5.629 -4.625 5.438 C-3 5 -3 5 -1 6 C-0.67 4.02 -0.34 2.04 0 0 Z " fill="#110B06" transform="translate(273,107)"/>
<path d="M0 0 C1.694 -0.278 3.274 -0.089 5 0 C4.742 0.113 4.742 0.113 3.438 0.688 C3.2 0.904 3.2 0.904 2 2 C2.229 3.242 2.468 4.485 2.801 5.703 C3.129 7.838 2.075 9.209 1 11 C0.645 11.993 0.303 12.99 0 14 C-3.802 13.578 -5.7 12.744 -8.398 10.035 C-8.597 9.694 -8.795 9.352 -9 9 C-8.67 8.34 -8.34 7.68 -8 7 C-7.505 7.33 -7.505 7.33 -5 9 C-5.33 8.34 -5.66 7.68 -6 7 C-5.01 6.67 -4.02 6.34 -3 6 C-3 6.99 -3 7.98 -3 9 C-2.34 9 -1.68 9 -1 9 C-1.012 8.518 -1.023 8.036 -1.035 7.539 C-1.04 7.223 -1.04 7.223 -1.062 5.625 C-1.074 4.999 -1.086 4.372 -1.098 3.727 C-1 2 -1 2 0 0 Z " fill="#322A25" transform="translate(183,16)"/>
<path d="M0 0 C0.392 0.01 0.392 0.01 2.375 0.062 C2.481 2.297 2.171 3.974 1.375 6.062 C2.035 6.392 2.695 6.723 3.375 7.062 C-0.585 8.053 -4.545 9.043 -8.625 10.062 C-8.625 7.062 -8.625 7.062 -7.188 5.562 C-6.672 5.067 -6.156 4.572 -5.625 4.062 C-5.28 3.066 -4.945 2.067 -4.625 1.062 C-2.691 0.096 -2.05 -0.054 0 0 Z " fill="#19110D" transform="translate(100.625,11.9375)"/>
<path d="M0 0 C0.66 0 1.32 0 2 0 C2.47 4.752 1.62 8.938 -1 13 C-1.66 13 -2.32 13 -3 13 C-3 13.66 -3 14.32 -3 15 C-3.99 15 -4.98 15 -6 15 C-6.125 16.438 -6.125 16.438 -6 18 C-5.34 18.33 -4.68 18.66 -4 19 C-4.66 19.99 -5.32 20.98 -6 22 C-6.33 19.36 -6.66 16.72 -7 14 C-6.34 14 -5.68 14 -5 14 C-5.035 13.518 -5.07 13.036 -5.105 12.539 C-5.186 10.656 -5.215 8.874 -5 7 C-3.625 5.875 -3.625 5.875 -2 5 C-1.386 3.696 -0.946 2.402 -0.527 1.023 C-0.353 0.686 -0.179 0.348 0 0 Z " fill="#2F241E" transform="translate(33,104)"/>
<path d="M0 0 C4.62 0 9.24 0 14 0 C14 0.99 14 1.98 14 3 C14.124 2.505 14.248 2.01 14.375 1.5 C14.581 1.005 14.787 0.51 15 0 C15.66 0 16.32 0 17 0 C17 0.66 17 1.32 17 2 C17.66 2.33 18.32 2.66 19 3 C19 3.66 19 4.32 19 5 C12.306 5.377 6.077 5.2 0 2 C0 1.34 0 0.68 0 0 Z " fill="#989089" transform="translate(187,230)"/>
<path d="M0 0 C1.588 1.238 2.815 2.253 3.312 4.263 C3.439 5.727 3.459 7.155 3.438 8.625 C3.457 9.128 3.477 9.63 3.498 10.148 C3.496 11.602 3.496 11.602 3 14 C0.973 14.836 0.973 14.836 -1 15 C-2.839 10.765 -3.307 7.95 -1.625 3.562 C-1.103 2.366 -0.568 1.175 0 0 Z " fill="#281E19" transform="translate(85,122)"/>
<path d="M0 0 C3.339 1.449 5.547 3.268 8.062 5.875 C8.401 6.214 8.739 6.553 9.088 6.902 C11.277 9.129 13.317 11.363 15 14 C14.67 14.66 14.34 15.32 14 16 C13.34 15.67 12.68 15.34 12 15 C12 15.66 12 16.32 12 17 C12.66 17.33 13.32 17.66 14 18 C13.34 18 12.68 18 12 18 C11.375 19.5 11.375 19.5 11 21 C10.807 20.651 10.613 20.301 10.414 19.941 C10.284 19.714 10.284 19.714 9.625 18.562 C9.37 18.11 9.115 17.658 8.852 17.191 C8 16 8 16 6 15 C5.67 15.66 5.34 16.32 5 17 C4.67 16.01 4.34 15.02 4 14 C5.812 12.938 5.812 12.938 8 12 C9.637 12.441 9.637 12.441 11 13 C10.541 12.481 10.082 11.961 9.609 11.426 C6.316 7.686 3.052 3.943 0 0 Z " fill="#38302B" transform="translate(248,33)"/>
<path d="M0 0 C0.33 0 0.66 0 1 0 C1.054 0.979 1.093 1.958 1.125 2.938 C1.148 3.483 1.171 4.028 1.195 4.59 C1.131 5.055 1.066 5.521 1 6 C0.67 6.165 0.67 6.165 -1 7 C-0.34 8.32 0.32 9.64 1 11 C0.34 11 -0.32 11 -1 11 C-1 11.66 -1 12.32 -1 13 C-1.99 13 -2.98 13 -4 13 C-3.67 13.99 -3.34 14.98 -3 16 C-4.312 16.625 -4.312 16.625 -6 17 C-7.688 16.062 -7.688 16.062 -9 15 C-7.68 15 -6.36 15 -5 15 C-4.779 13.355 -4.573 11.71 -4.375 10.062 C-4.311 9.594 -4.246 9.125 -4.18 8.643 C-4.023 7.285 -4.023 7.285 -4 5 C-4.66 4.67 -5.32 4.34 -6 4 C-5.34 3.67 -4.68 3.34 -4 3 C-5.32 2.34 -6.64 1.68 -8 1 C-5.957 0.775 -4.028 0.616 -2 1 C-1.125 3 -1.125 3 -1 5 C-0.939 4.639 -0.879 4.278 -0.816 3.906 C-0.733 3.442 -0.649 2.978 -0.562 2.5 C-0.481 2.036 -0.4 1.572 -0.316 1.094 C-0.212 0.733 -0.108 0.372 0 0 Z " fill="#271F1B" transform="translate(118,15)"/>
<path d="M0 0 C0.794 -0.028 1.588 -0.057 2.406 -0.086 C3.097 0.066 3.788 0.218 4.5 0.375 C5.555 2.289 5.555 2.289 6.5 4.375 C8.227 5.422 8.227 5.422 10.125 6.125 C10.441 6.246 10.441 6.246 12.039 6.859 C12.521 7.03 13.003 7.2 13.5 7.375 C12.013 8.588 11.358 9.064 9.5 9.375 C6.594 8.595 3.956 7.3 1.25 6 C0.505 5.657 -0.24 5.314 -1.008 4.961 C-2.846 4.113 -4.675 3.251 -6.5 2.375 C-4.466 0.084 -3.067 0.05 0 0 Z " fill="#DFDED5" transform="translate(204.5,209.625)"/>
<path d="M0 0 C-3.203 2.589 -6.551 4.395 -10.25 6.188 C-10.804 6.46 -11.359 6.733 -11.93 7.014 C-13.285 7.679 -14.641 8.341 -16 9 C-16.312 6.354 -16.266 4.378 -15 2 C-10.644 -0.632 -4.795 -1.64 0 0 Z " fill="#EDEAE5" transform="translate(91,215)"/>
<path d="M0 0 C6.404 -0.307 12.476 -0.197 18.75 1.25 C19.012 1.305 19.012 1.305 20.341 1.581 C21.797 1.953 21.797 1.953 24 3 C24.328 5.109 24.328 5.109 24 7 C22 7.522 20.072 7.967 18 8 C16.75 6.563 16.75 6.563 16 5 C15.34 5 14.68 5 14 5 C14 4.34 14 3.68 14 3 C11.011 1.946 7.889 1.716 4.75 1.438 C4.291 1.394 3.832 1.351 3.359 1.307 C2.24 1.202 1.12 1.1 0 1 C0 0.67 0 0.34 0 0 Z " fill="#2A1F19" transform="translate(180,6)"/>
<path d="M0 0 C7.483 0.779 7.483 0.779 10 3 C9.67 3.66 9.34 4.32 9 5 C10.32 5 11.64 5 13 5 C13 5.66 13 6.32 13 7 C12.613 6.988 12.227 6.977 11.828 6.965 C8.677 6.91 6.066 7.205 3 8 C2 7 2 7 1.902 5.809 C1.935 4.539 1.967 3.27 2 2 C1.34 2 0.68 2 0 2 C0 1.34 0 0.68 0 0 Z " fill="#96938C" transform="translate(182,239)"/>
<path d="M0 0 C1.422 -0.426 1.422 -0.426 3 0 C3.949 1.642 4.604 3.054 5.25 4.812 C5.436 5.264 5.621 5.716 5.812 6.182 C6.636 8.318 7.098 9.544 6.609 11.824 C6.509 12.018 6.509 12.018 6 13 C5.162 12.551 4.329 12.09 3.5 11.625 C3.036 11.37 2.572 11.115 2.094 10.852 C1.733 10.571 1.372 10.29 1 10 C1 9.34 1 8.68 1 8 C0.34 8 -0.32 8 -1 8 C-1.33 8.66 -1.66 9.32 -2 10 C-1.859 8.708 -1.712 7.416 -1.562 6.125 C-1.481 5.406 -1.4 4.686 -1.316 3.945 C-1 2 -1 2 0 0 Z " fill="#1B130E" transform="translate(26,218)"/>
<path d="M0 0 C-0.375 1.5 -0.375 1.5 -1 3 C-1.66 3 -2.32 3 -3 3 C-3.112 3.481 -3.224 3.962 -3.34 4.457 C-3.558 4.966 -3.776 5.475 -4 6 C-5.623 6.402 -6.92 6.599 -8.562 6.688 C-8.987 6.722 -9.412 6.756 -9.85 6.791 C-10.899 6.874 -11.949 6.938 -13 7 C-12.565 4.79 -12.054 4.045 -10.293 2.578 C-9.946 2.359 -9.946 2.359 -8.188 1.25 C-7.5 0.801 -6.813 0.353 -6.105 -0.109 C-3.601 -1.169 -2.507 -0.924 0 0 Z " fill="#17110D" transform="translate(78,225)"/>
<path d="M0 0 C2.033 0.96 2.265 1.271 3.25 3.438 C3.271 4.077 3.291 4.716 3.312 5.375 C2.983 5.54 2.983 5.54 1.312 6.375 C1.312 5.385 1.312 4.395 1.312 3.375 C-0.562 3.188 -0.562 3.188 -2.688 3.375 C-3.812 4.875 -3.812 4.875 -4.688 6.375 C-5.347 6.375 -6.008 6.375 -6.688 6.375 C-7.017 7.035 -7.347 7.695 -7.688 8.375 C-8.218 7.422 -8.737 6.462 -9.25 5.5 C-9.54 4.966 -9.83 4.433 -10.129 3.883 C-10.221 3.634 -10.221 3.634 -10.688 2.375 C-10.358 1.715 -10.028 1.055 -9.688 0.375 C-9.275 0.581 -8.862 0.787 -8.438 1 C-6.688 1.375 -6.688 1.375 -4.812 0.312 C-2.55 -0.686 -2.209 -0.745 0 0 Z " fill="#2C241E" transform="translate(56.6875,169.625)"/>
<path d="M0 0 C5.387 -0.215 10.012 -0.191 15 2 C14.67 2.165 14.67 2.165 13 3 C12.375 5.062 12.375 5.062 12 7 C7.488 5.784 3.637 3.979 0 1 C0 0.67 0 0.34 0 0 Z " fill="#E4E3DD" transform="translate(184,17)"/>
<path d="M0 0 C2.31 1.98 4.62 3.96 7 6 C5.68 6.33 4.36 6.66 3 7 C2.316 8.325 1.65 9.659 1 11 C-1.125 12.25 -1.125 12.25 -3 13 C-3.688 11.125 -3.688 11.125 -4 9 C-3.546 8.732 -3.092 8.464 -2.625 8.188 C-1 7 -1 7 -0.574 5.324 C-0.337 3.555 -0.165 1.777 0 0 Z " fill="#251C18" transform="translate(272,203)"/>
<path d="M0 0 C1.32 0 2.64 0 4 0 C4 0.99 4 1.98 4 3 C4.99 2.67 5.98 2.34 7 2 C7.248 3.812 7.474 5.622 7.688 7.438 C7.724 7.696 7.724 7.696 7.908 9.002 C7.963 9.495 8.018 9.988 8.074 10.496 C8.132 10.952 8.189 11.407 8.249 11.877 C8.167 12.247 8.085 12.618 8 13 C7.01 13.33 6.02 13.66 5 14 C3.35 9.38 1.7 4.76 0 0 Z " fill="#EBE9E5" transform="translate(40,128)"/>
<path d="M0 0 C0.454 0.227 0.907 0.454 1.375 0.688 C1.375 1.347 1.375 2.007 1.375 2.688 C2.365 2.688 3.355 2.688 4.375 2.688 C4.375 3.347 4.375 4.007 4.375 4.688 C5.035 5.018 5.695 5.347 6.375 5.688 C5.715 5.688 5.055 5.688 4.375 5.688 C4.375 6.347 4.375 7.007 4.375 7.688 C2.395 7.192 2.395 7.192 -7.625 4.688 C-6.305 4.028 -4.985 3.368 -3.625 2.688 C-3.625 2.028 -3.625 1.368 -3.625 0.688 C-1.625 -0.312 -1.625 -0.312 0 0 Z " fill="#413935" transform="translate(177.625,210.3125)"/>
<path d="M0 0 C1.376 1.123 1.946 1.758 2.336 3.516 C2.433 7.837 1.558 10.405 -0.93 13.934 C-2 15 -2 15 -4 15 C-4 15.66 -4 16.32 -4 17 C-5.391 18.105 -5.391 18.105 -7.25 19.188 C-7.853 19.552 -8.457 19.917 -9.078 20.293 C-11.442 21.163 -12.659 20.813 -15 20 C-14.313 19.602 -13.626 19.203 -12.918 18.793 C-12.008 18.258 -11.098 17.723 -10.188 17.188 C-9.962 17.057 -9.962 17.057 -8.818 16.396 C-2.555 12.693 -2.555 12.693 -1.585 9.734 C-1.261 8.263 -1.022 6.803 -0.812 5.312 C-0.731 4.801 -0.649 4.29 -0.564 3.764 C-0.365 2.511 -0.181 1.256 0 0 Z " fill="#787672" transform="translate(126,12)"/>
<path d="M0 0 C2.65 2.035 4.012 4.328 4.512 7.617 C5.228 16.046 2.091 21.508 -3 28 C-3.684 26.824 -3.684 26.824 -4 25 C-3.228 23.151 -2.127 21.506 -1.062 19.812 C1.656 15.206 3.077 11.442 2 6 C1.67 5.34 1.34 4.68 1 4 C-0.562 3.875 -0.562 3.875 -2 4 C-2 3.34 -2 2.68 -2 2 C-1.34 2 -0.68 2 0 2 C0 1.34 0 0.68 0 0 Z " fill="#484442" transform="translate(279,210)"/>
<path d="M0 0 C3.435 0.44 3.435 0.44 5 1 C5.812 2.562 5.812 2.562 6 4 C5.34 4 4.68 4 4 4 C4 4.66 4 5.32 4 6 C4.66 6.33 5.32 6.66 6 7 C5.361 7.289 4.721 7.578 4.062 7.875 C2 9 2 9 1 11 C-0.52 10.723 -0.52 10.723 -2 10 C-2.074 8.371 -2.074 8.371 -1.688 6.438 C-1.568 5.797 -1.448 5.156 -1.324 4.496 C-1.217 4.002 -1.11 3.509 -1 3 C-0.34 3 0.32 3 1 3 C0.67 2.01 0.34 1.02 0 0 Z " fill="#1C120D" transform="translate(185,20)"/>
<path d="M0 0 C0.33 2.31 0.66 4.62 1 7 C0.381 6.814 -0.237 6.629 -0.875 6.438 C-3 6 -3 6 -5 7 C-6.508 7.098 -6.508 7.098 -8.125 7.062 C-8.664 7.053 -9.203 7.044 -9.758 7.035 C-10.168 7.024 -10.578 7.012 -11 7 C-10.746 5.109 -10.746 5.109 -10 3 C-8.223 1.953 -8.223 1.953 -6.062 1.25 C-5.352 1.008 -4.642 0.765 -3.91 0.516 C-2 0 -2 0 0 0 Z " fill="#949189" transform="translate(117,238)"/>
<path d="M0 0 C2.628 2.327 3.887 4.514 5.188 7.688 C5.365 8.103 5.542 8.519 5.725 8.947 C6.156 9.962 6.579 10.981 7 12 C5.225 12.528 3.824 12.935 2 13 C0.188 11.938 0.188 11.938 -1 10 C-1.237 7.973 -1.177 6.03 -1 4 C-0.34 4 0.32 4 1 4 C0.67 2.68 0.34 1.36 0 0 Z " fill="#2B221F" transform="translate(103,153)"/>
<path d="M0 0 C1.592 1.408 2.286 2.042 3 4 C2.758 7.125 2.179 10.08 1 13 C0.34 13 -0.32 13 -1 13 C-1.625 14.5 -1.625 14.5 -2 16 C-3.082 14.777 -3.082 14.777 -4 13 C-3.574 10.879 -3.574 10.879 -2.688 8.562 C-1.625 5.721 -0.681 2.959 0 0 Z " fill="#271D1A" transform="translate(255,137)"/>
<path d="M0 0 C1.65 0.33 3.3 0.66 5 1 C4.875 3.4 4.66 5.683 4 8 C2.312 9.062 2.312 9.062 0 9 C-2.063 8.475 -4.026 7.796 -6 7 C-5.381 6.327 -4.755 5.662 -4.125 5 C-3.951 4.814 -3.951 4.814 -3.07 3.875 C-2 3 -2 3 0 3 C0 2.01 0 1.02 0 0 Z " fill="#281E17" transform="translate(203,237)"/>
<path d="M0 0 C0.715 0.111 1.431 0.222 2.168 0.336 C2.711 0.431 3.253 0.527 3.812 0.625 C3.551 2.051 3.551 2.051 2.812 3.625 C1.105 4.355 1.105 4.355 -1 4.812 C-1.344 4.892 -1.344 4.892 -3.082 5.293 C-5.157 5.62 -7.091 5.686 -9.188 5.625 C-7.12 0.853 -5.267 -0.863 0 0 Z " fill="#16100B" transform="translate(107.1875,210.375)"/>
<path d="M0 0 C0.367 0.366 0.735 0.732 1.113 1.109 C-0.322 1.615 -1.76 2.114 -3.199 2.609 C-3.603 2.752 -4.007 2.896 -4.424 3.043 C-6.646 3.802 -8.534 4.292 -10.887 4.109 C-10.737 4.417 -10.737 4.417 -9.977 5.973 C-9.592 6.789 -9.208 7.605 -8.824 8.422 C-8.625 8.826 -8.426 9.23 -8.221 9.646 C-7.316 11.598 -6.814 12.763 -7.266 14.902 C-7.471 15.301 -7.676 15.699 -7.887 16.109 C-8.894 14.321 -9.891 12.528 -10.887 10.734 C-11.173 10.226 -11.459 9.719 -11.754 9.195 C-12.025 8.705 -12.295 8.216 -12.574 7.711 C-12.826 7.261 -13.077 6.81 -13.336 6.346 C-13.887 5.109 -13.887 5.109 -13.887 3.109 C-12.093 2.044 -10.051 1.507 -8.074 0.859 C-7.527 0.661 -6.98 0.462 -6.416 0.258 C-2.341 -1.105 -2.341 -1.105 0 0 Z " fill="#4E4A44" transform="translate(131.88671875,212.890625)"/>
<path d="M0 0 C2.635 2.533 3.45 5.01 4.18 8.535 C3.911 10.729 2.614 11.591 1 13 C0.326 11.565 -0.339 10.128 -1 8.688 C-1.191 8.283 -1.382 7.879 -1.578 7.463 C-2.582 5.258 -3.399 3.437 -3 1 C-1.688 0.062 -1.688 0.062 0 0 Z " fill="#352D27" transform="translate(85,250)"/>
<path d="M0 0 C0 0.66 0 1.32 0 2 C-1.429 3.303 -3.151 4.205 -4.812 5.188 C-5.264 5.473 -5.716 5.759 -6.182 6.053 C-9.515 8.053 -9.515 8.053 -11.824 7.801 C-12.018 7.669 -12.018 7.669 -13 7 C-13 6.34 -13 5.68 -13 5 C-11.667 4.333 -10.333 3.667 -9 3 C-9 2.34 -9 1.68 -9 1 C-6.143 -1.002 -3.21 -1.427 0 0 Z " fill="#EEECE9" transform="translate(74,223)"/>
<path d="M0 0 C0 3.3 0 6.6 0 10 C-0.66 10 -1.32 10 -2 10 C-2.165 10.495 -2.33 10.99 -2.5 11.5 C-2.665 11.995 -2.83 12.49 -3 13 C-3.66 13 -4.32 13 -5 13 C-6.739 9.596 -6.018 5.544 -5 2 C-3.213 0.66 -2.239 0 0 0 Z " fill="#261811" transform="translate(265,135)"/>
<path d="M0 0 C1.688 0.812 1.688 0.812 3 2 C2.34 2 1.68 2 1 2 C1 2.66 1 3.32 1 4 C0.054 4.898 0.054 4.898 -1.266 5.805 C-1.744 6.141 -2.222 6.478 -2.715 6.824 C-2.968 6.998 -2.968 6.998 -4.25 7.875 C-7.107 9.847 -9.836 11.732 -12.234 14.258 C-14 16 -14 16 -16 16 C-14.462 12.006 -11.895 10.014 -8.562 7.438 C-7.583 6.667 -6.606 5.895 -5.629 5.121 C-5.4 4.941 -5.4 4.941 -4.24 4.03 C-3.156 3.129 -2.21 2.208 -1.258 1.172 C-0.843 0.785 -0.428 0.398 0 0 Z " fill="#4E4A46" transform="translate(110,32)"/>
<path d="M0 0 C1.32 0.66 2.64 1.32 4 2 C2.9 3.296 1.795 4.586 0.688 5.875 C0.379 6.24 0.07 6.605 -0.248 6.98 C-1.987 8.994 -3.595 10.771 -6 12 C-8.188 11.625 -8.188 11.625 -10 11 C-9.75 9.5 -9.75 9.5 -9 8 C-7.667 8 -6.333 8 -5 8 C-4.438 6.5 -4.438 6.5 -4 5 C-3.505 5.041 -3.01 5.083 -2.5 5.125 C-2.252 5.104 -2.252 5.104 -1 5 C-0.383 3.373 -0.179 1.724 0 0 Z " fill="#E3E1DC" transform="translate(262,228)"/>
<path d="M0 0 C0.33 0.66 0.66 1.32 1 2 C1.66 2.33 2.32 2.66 3 3 C1.932 5.297 0.811 7.214 -1 9 C-3.668 9.81 -6.221 9.987 -9 10 C-8.064 8.894 -7.126 7.791 -6.188 6.688 C-5.665 6.073 -5.143 5.458 -4.605 4.824 C-3.128 3.146 -1.6 1.561 0 0 Z " fill="#F2F2EE" transform="translate(58,41)"/>
<path d="M0 0 C0.99 0 1.98 0 3 0 C3.121 7.08 2.854 13.97 2 21 C1.67 21 1.34 21 1 21 C0.67 17.37 0.34 13.74 0 10 C-0.33 10 -0.66 10 -1 10 C-0.67 6.7 -0.34 3.4 0 0 Z " fill="#E5E4E0" transform="translate(227,95)"/>
<path d="M0 0 C1.32 0.66 2.64 1.32 4 2 C3.574 3.838 3.109 5.456 2 7 C-0.075 6.944 -1.126 6.724 -3 6 C-3.237 5.912 -3.237 5.912 -4.438 5.469 C-5.636 5.006 -6.819 4.506 -8 4 C-7.312 3 -7.312 3 -6 2 C-4.789 1.938 -4.789 1.938 -3.438 2 C-2.633 2 -1.829 2 -1 2 C-0.67 1.34 -0.34 0.68 0 0 Z " fill="#DFDDD9" transform="translate(234,176)"/>
<path d="M0 0 C1.618 3.011 2.69 5.968 3.625 9.25 C3.759 9.709 3.893 10.168 4.031 10.641 C4.358 11.759 4.679 12.88 5 14 C4.34 14 3.68 14 3 14 C3 13.34 3 12.68 3 12 C2.546 11.897 2.093 11.794 1.625 11.688 C-0.274 10.884 -0.439 10.51 -1.25 8.688 C-2.132 6.167 -1.958 4.527 -1 2 C-0.67 1.34 -0.34 0.68 0 0 Z " fill="#EEEBE8" transform="translate(78,120)"/>
<path d="M0 0 C1.117 1.734 1.117 1.734 2 4 C1.32 6.141 1.32 6.141 0.125 8.25 C-0.264 8.956 -0.654 9.663 -1.055 10.391 C-1.367 10.922 -1.679 11.453 -2 12 C-3.32 11.34 -4.64 10.68 -6 10 C-5.383 8.517 -4.757 7.039 -4.125 5.562 C-4.038 5.352 -4.038 5.352 -3.598 4.287 C-2.227 1.113 -2.227 1.113 0 0 Z " fill="#261B19" transform="translate(171,256)"/>
<path d="M0 0 C0.99 0 1.98 0 3 0 C0.773 7.32 0.773 7.32 -1 9 C-2.95 9.513 -3.923 9.373 -6 9 C-6.812 7 -6.812 7 -7 5 C-5.68 5.33 -4.36 5.66 -3 6 C-2.938 5.68 -2.938 5.68 -2.625 4.062 C-2.419 3.382 -2.213 2.701 -2 2 C-1.34 1.67 -0.68 1.34 0 1 C0 0.67 0 0.34 0 0 Z " fill="#A79E96" transform="translate(205,247)"/>
<path d="M0 0 C0.33 0.66 0.66 1.32 1 2 C2.832 2.103 4.579 1.931 6.406 1.777 C6.669 1.814 6.669 1.814 8 2 C8.719 3.504 8.719 3.504 9 5 C7.717 5.582 6.423 6.14 5.125 6.688 C4.765 6.844 4.765 6.844 2.945 7.637 C2.303 7.757 1.661 7.876 1 8 C-0.281 6.75 -0.281 6.75 -1 5 C-0.97 3.198 -0.476 1.76 0 0 Z " fill="#EAEAE4" transform="translate(64,176)"/>
<path d="M0 0 C2.094 1.035 3.582 2.131 5 4 C5.924 7.229 5.93 10.663 6 14 C4.605 14.332 4.605 14.332 3 14 C2.246 12.173 1.752 10.593 1.312 8.688 C1.183 8.188 1.053 7.688 0.92 7.174 C0.313 4.75 -0.18 2.517 0 0 Z " fill="#ECEBE8" transform="translate(36,112)"/>
<path d="M0 0 C0.602 6.887 0.602 6.887 -0.75 9.387 C-2.872 11.617 -4.916 12.559 -8 13 C-8 12.34 -8 11.68 -8 11 C-7.34 11 -6.68 11 -6 11 C-5.438 9.5 -5.438 9.5 -5 8 C-4.67 8 -4.34 8 -4 8 C-3.951 7.506 -3.902 7.013 -3.852 6.504 C-3.777 5.863 -3.702 5.223 -3.625 4.562 C-3.555 3.924 -3.486 3.286 -3.414 2.629 C-3.277 2.091 -3.141 1.554 -3 1 C-1 0 -1 0 0 0 Z " fill="#E6E4DE" transform="translate(137,188)"/>
<path d="M0 0 C0.691 1.16 0.691 1.16 1 3 C0.227 4.968 -0.902 6.677 -2.062 8.438 C-2.38 8.93 -2.698 9.423 -3.026 9.931 C-5.458 13.546 -7.977 16.158 -12 18 C-12.164 16.629 -12.164 16.629 -12 15 C-10.898 13.965 -10.898 13.965 -9.375 12.938 C-4.959 9.531 -2.634 4.81 0 0 Z " fill="#4E4B47" transform="translate(209,273)"/>
<path d="M0 0 C0.578 0.165 1.155 0.33 1.75 0.5 C2.08 1.82 2.41 3.14 2.75 4.5 C-0.88 5.82 -4.51 7.14 -8.25 8.5 C-7.198 4.292 -6.801 3.611 -3.59 1.266 C-2.25 0.5 -2.25 0.5 0 0 Z " fill="#201815" transform="translate(101.25,174.5)"/>
<path d="M0 0 C2.646 3.127 3.887 6.072 5 10 C3.68 10.33 2.36 10.66 1 11 C1 10.34 1 9.68 1 9 C0.34 9 -0.32 9 -1 9 C-1.027 7.688 -1.046 6.375 -1.062 5.062 C-1.074 4.332 -1.086 3.601 -1.098 2.848 C-1 1 -1 1 0 0 Z " fill="#E2DED8" transform="translate(94,160)"/>
<path d="M0 0 C5.713 -0.233 10.598 0.054 16 2 C15.67 2.99 15.34 3.98 15 5 C14.01 4.835 14.01 4.835 9 4 C9 3.34 9 2.68 9 2 C8.434 2.107 7.868 2.214 7.285 2.324 C6.552 2.444 5.818 2.564 5.062 2.688 C4.332 2.815 3.601 2.943 2.848 3.074 C2.238 3.05 1.628 3.025 1 3 C0.246 1.52 0.246 1.52 0 0 Z " fill="#271C1C" transform="translate(171,161)"/>
<path d="M0 0 C0.33 1.32 0.66 2.64 1 4 C2.191 4.391 2.191 4.391 3.562 4.25 C4.367 4.168 5.171 4.085 6 4 C5.216 5.006 4.422 6.005 3.625 7 C3.184 7.557 2.743 8.114 2.289 8.688 C2.076 8.904 2.076 8.904 1 10 C0.34 10 -0.32 10 -1 10 C-1 10.66 -1 11.32 -1 12 C-1.66 12 -2.32 12 -3 12 C-2.01 8.04 -1.02 4.08 0 0 Z " fill="#1F1916" transform="translate(261,120)"/>
<path d="M0 0 C3.133 2.722 4.686 5.058 6 9 C4.68 9.33 3.36 9.66 2 10 C2 9.01 2 8.02 2 7 C0.35 7.66 -1.3 8.32 -3 9 C-2 6 -1 3 0 0 Z " fill="#29221D" transform="translate(263,49)"/>
<path d="M0 0 C1.938 0.75 1.938 0.75 4 2 C4.75 4.125 4.75 4.125 5 6 C4.01 6.33 3.02 6.66 2 7 C2 6.34 2 5.68 2 5 C1.34 5 0.68 5 0 5 C-0.625 6.5 -0.625 6.5 -1 8 C-1.66 7.67 -2.32 7.34 -3 7 C-2.75 4.938 -2.75 4.938 -2 3 C-1.34 3 -0.68 3 0 3 C0 2.01 0 1.02 0 0 Z " fill="#1F1915" transform="translate(206,33)"/>
<path d="M0 0 C1.613 0.406 1.613 0.406 3 1 C2.237 1.986 1.465 2.963 0.688 3.938 C0.258 4.483 -0.171 5.028 -0.613 5.59 C-2.084 7.086 -3.039 7.407 -5 8 C-5.188 9.562 -5.188 9.562 -5 11 C-6.65 11 -8.3 11 -10 11 C-8.019 8.649 -6.017 6.319 -4 4 C-3.609 3.541 -3.219 3.082 -2.816 2.609 C-1.812 1.5 -1.812 1.5 0 0 Z " fill="#201A18" transform="translate(95,30)"/>
<path d="M0 0 C0.406 0.017 0.406 0.017 2.461 0.105 C3.278 0.133 4.095 0.16 4.938 0.188 C5.251 0.205 5.251 0.205 6.836 0.293 C4.767 2.566 3.002 3.85 0.148 4.98 C-0.474 5.232 -1.097 5.483 -1.738 5.742 C-1.974 5.833 -1.974 5.833 -3.164 6.293 C-3.789 4.98 -3.789 4.98 -4.164 3.293 C-3.206 0.816 -2.657 0.36 0 0 Z " fill="#E3E0DD" transform="translate(108.1640625,16.70703125)"/>
<path d="M0 0 C7.882 1.882 7.882 1.882 11 5 C10.67 5.66 10.34 6.32 10 7 C8.4 6.982 7.005 6.865 5.438 6.625 C5.013 6.568 4.588 6.512 4.15 6.453 C3.099 6.311 2.049 6.157 1 6 C1.66 4.68 2.32 3.36 3 2 C2.01 2 1.02 2 0 2 C0 1.34 0 0.68 0 0 Z " fill="#2C231F" transform="translate(212,12)"/>
</svg>
