<?xml version="1.0" encoding="UTF-8"?>
<!-- Generator: visioncortex VTracer 0.6.12 -->
<svg version="1.1" xmlns="http://www.w3.org/2000/svg" width="255" height="255">
<path d="M0 0 C4.324 -0.066 8.648 -0.115 12.972 -0.141 C14.349 -0.15 15.726 -0.161 17.103 -0.176 C19.016 -0.193 20.929 -0.197 22.843 -0.197 C23.126 -0.201 23.126 -0.201 24.562 -0.219 C26.903 -0.205 28.543 -0.106 30.709 0.84 C32.204 2.387 32.308 3.226 32.327 5.361 C32.17 8.794 31.255 10.357 28.764 12.644 C28.322 13.02 27.88 13.396 27.425 13.783 C26.496 14.639 25.572 15.5 24.651 16.365 C24.182 16.803 23.713 17.241 23.23 17.692 C19.805 21.05 16.935 24.92 13.962 28.673 C12.898 29.989 11.802 31.268 10.686 32.541 C-4.451 49.99 -15.558 71.557 -17.888 94.658 C-17.948 95.22 -18.009 95.783 -18.071 96.362 C-20.285 117.068 -19.084 136.747 -13.815 156.904 C-11.009 167.746 -11.009 167.746 -12.88 171.537 C-13.254 171.886 -13.628 172.236 -14.013 172.596 C-14.456 173.011 -14.9 173.426 -15.357 173.854 C-16.898 174.874 -18.014 175.389 -19.732 175.963 C-25.38 177.936 -25.38 177.936 -27.138 180.033 C-28.406 184.589 -27.124 189.527 -26.138 194.033 C-26.048 194.504 -25.958 194.976 -25.865 195.461 C-24.751 201.047 -22.463 204.307 -18.052 207.842 C-13.33 210.781 -9.43 211.361 -3.888 211.283 C-3.224 211.28 -2.56 211.277 -1.876 211.274 C2.642 211.198 6.568 210.577 10.932 209.424 C14.041 208.794 16.858 209.029 19.862 210.033 C22.247 211.782 23.117 213.231 23.862 216.033 C24.022 217.651 24.141 219.237 24.214 220.857 C24.225 221.09 24.225 221.09 24.284 222.267 C24.331 223.251 24.377 224.235 24.42 225.219 C24.486 226.699 24.564 228.177 24.643 229.656 C25.352 244.139 25.352 244.139 22.8 247.384 C18 251.753 11.687 252.343 5.479 252.334 C5.131 252.336 5.131 252.336 3.372 252.347 C1.904 252.353 0.437 252.353 -1.031 252.349 C-3.236 252.346 -5.44 252.369 -7.646 252.395 C-19.199 252.448 -29.52 251.128 -39.763 245.471 C-40.078 245.299 -40.078 245.299 -41.671 244.429 C-47.844 240.894 -52.63 236.499 -57.138 231.033 C-57.478 230.623 -57.818 230.213 -58.168 229.791 C-65.846 220.282 -68.555 209.967 -70.138 198.033 C-82.094 203.041 -93.934 208.275 -105.722 213.668 C-111.854 216.471 -117.994 219.257 -124.138 222.033 C-124.661 222.27 -125.185 222.507 -125.724 222.75 C-128.58 224.039 -131.446 225.297 -134.325 226.533 C-134.642 226.675 -134.642 226.675 -136.244 227.395 C-139.607 228.802 -142.157 229.272 -145.772 228.73 C-147.838 227.676 -149.033 226.023 -150.138 224.033 C-150.425 222.305 -150.545 220.937 -150.519 219.218 C-150.524 218.748 -150.528 218.278 -150.533 217.794 C-150.545 216.227 -150.536 214.66 -150.526 213.093 C-150.53 211.965 -150.536 210.838 -150.542 209.711 C-150.556 206.65 -150.55 203.59 -150.541 200.529 C-150.533 197.311 -150.54 194.092 -150.545 190.874 C-150.551 185.457 -150.543 180.04 -150.529 174.623 C-150.513 168.399 -150.518 162.176 -150.535 155.953 C-150.548 150.586 -150.55 145.22 -150.542 139.853 C-150.538 136.659 -150.537 133.465 -150.547 130.271 C-150.591 114.15 -150.59 98.181 -144.45 82.971 C-144.196 82.321 -143.941 81.671 -143.678 81.001 C-138.578 68.383 -131.858 57.451 -123.138 47.033 C-122.771 46.586 -122.404 46.14 -122.026 45.679 C-100.165 19.248 -69.06 4.502 -35.308 1.294 C-23.571 0.274 -11.772 0.183 0 0 Z " fill="#070708" transform="translate(198.137939453125,2.966796875)"/>
<path d="M0 0 C-2.154 1.518 -4.3 2.649 -6.711 3.707 C-28.15 13.343 -47.788 25.844 -64.936 42.003 C-65.896 42.903 -66.875 43.783 -67.855 44.66 C-81.742 57.593 -94.144 79.273 -95.18 98.494 C-95.329 103.758 -94.96 109.017 -94.613 114.267 C-94.426 117.187 -94.319 120.106 -94.229 123.03 C-94.213 123.53 -94.197 124.031 -94.181 124.546 C-94.149 125.566 -94.117 126.586 -94.085 127.607 C-93.874 134.381 -93.618 141.142 -93.132 147.902 C-91.043 177.581 -91.043 177.581 -96 187 C-103.759 195.861 -116.964 199.092 -127.933 201.901 C-132.011 202.951 -135.642 204.413 -139.386 206.315 C-141.091 207.039 -142.175 207.056 -144 207 C-144.047 193.534 -144.082 180.068 -144.104 166.603 C-144.114 160.349 -144.128 154.095 -144.151 147.842 C-144.171 142.385 -144.184 136.928 -144.188 131.472 C-144.191 128.588 -144.197 125.704 -144.211 122.82 C-144.323 100.044 -144.323 100.044 -142 89 C-141.719 87.526 -141.445 86.051 -141.17 84.575 C-137.249 64.366 -123.089 46.178 -109 32 C-108.598 31.594 -108.197 31.189 -107.783 30.771 C-78.102 1.3 -39.268 -0.535 0 0 Z " fill="#FCFCFC" transform="translate(201,13)"/>
<path d="M0 0 C-0.347 0.442 -0.693 0.883 -1.051 1.338 C-23.752 30.364 -36.425 56.596 -36.437 93.881 C-36.438 95.266 -36.443 96.651 -36.448 98.035 C-36.478 110.785 -35.699 123 -32.691 135.448 C-32.575 135.934 -32.458 136.419 -32.338 136.92 C-32.024 138.188 -31.686 139.451 -31.345 140.712 C-30.944 143.374 -30.804 145.538 -32 148 C-33.617 149.184 -34.819 149.864 -36.625 150.621 C-36.868 150.732 -36.868 150.732 -38.099 151.292 C-39.725 152.026 -41.362 152.732 -43 153.438 C-44.145 153.946 -45.29 154.456 -46.434 154.968 C-49.586 156.369 -52.75 157.74 -55.918 159.104 C-58.092 160.039 -60.263 160.98 -62.434 161.92 C-66.951 163.875 -71.473 165.817 -76 167.75 C-76.735 168.064 -77.47 168.378 -78.227 168.702 C-80.316 169.592 -82.407 170.477 -84.5 171.359 C-85.129 171.628 -85.758 171.896 -86.406 172.172 C-86.984 172.414 -87.561 172.656 -88.156 172.905 C-88.66 173.118 -89.163 173.33 -89.682 173.549 C-91 174 -91 174 -93 174 C-93.071 163.55 -93.123 153.101 -93.155 142.651 C-93.171 137.797 -93.192 132.944 -93.226 128.09 C-93.257 123.853 -93.276 119.616 -93.282 115.378 C-93.286 113.141 -93.295 110.904 -93.317 108.666 C-93.561 83.013 -86.287 62.167 -69 43 C-68.796 42.774 -68.796 42.774 -67.767 41.629 C-51.867 24.256 -30.222 11.828 -9 2 C-8.36 1.697 -7.72 1.394 -7.06 1.082 C-6.748 0.94 -6.748 0.94 -5.168 0.219 C-4.607 -0.04 -4.047 -0.298 -3.469 -0.564 C-2 -1 -2 -1 0 0 Z " fill="#919191" transform="translate(205,22)"/>
<path d="M0 0 C3.671 3.782 4.735 7.332 4.914 12.516 C4.965 13.572 5.02 14.628 5.078 15.684 C5.096 16.144 5.113 16.604 5.131 17.079 C5.289 18.328 5.289 18.328 6.289 20.328 C6.947 27.359 6.42 32.545 1.789 38.141 C-2.09 41.212 -7.611 41.055 -12.357 40.611 C-15.972 39.856 -18.493 37.147 -20.711 34.328 C-22.915 30.549 -23.295 27.62 -22.711 23.328 C-21.496 19.091 -19.576 14.749 -15.711 12.328 C-12.747 11.361 -10.065 11.22 -6.961 11.266 C-6.162 11.275 -5.363 11.284 -4.539 11.293 C-3.936 11.305 -3.333 11.316 -2.711 11.328 C-4.959 5.913 -4.959 5.913 -7.398 4.016 C-10.785 3.009 -14.2 2.652 -17.711 2.328 C-18.102 -1.48 -18.102 -1.48 -17.711 -2.672 C-11.823 -4.943 -5.06 -3.491 0 0 Z " fill="#060607" transform="translate(153.7109375,124.671875)"/>
<path d="M0 0 C2.938 1.953 5.256 4.282 6.83 7.43 C7.541 12.384 7.875 18.591 5.268 22.993 C2.685 26.034 -0.272 27.655 -4.17 28.43 C-8.194 28.755 -12.39 28.581 -15.85 26.344 C-17.124 25.1 -18.156 23.892 -19.17 22.43 C-19.533 21.991 -19.897 21.551 -20.271 21.098 C-22.249 17.427 -21.789 12.466 -21.17 8.43 C-20.246 5.938 -19.066 4.276 -17.17 2.43 C-16.843 2.092 -16.515 1.755 -16.178 1.407 C-12.242 -1.724 -4.487 -2.186 0 0 Z " fill="#060606" transform="translate(151.169921875,88.56982421875)"/>
<path d="M0 0 C1.94 0.299 3.76 0.756 5.646 1.299 C6.3 1.465 6.954 1.63 7.628 1.801 C9.246 2.214 10.853 2.651 12.458 3.112 C12.106 8.136 11.415 12.799 9.958 17.612 C9.828 18.045 9.697 18.477 9.562 18.924 C8.599 21.971 8.599 21.971 7.458 23.112 C1.646 23.755 -3.741 23.461 -9.229 21.362 C-9.663 21.205 -10.097 21.048 -10.543 20.886 C-11.741 20.377 -11.741 20.377 -13.542 19.112 C-14.081 17.28 -14.081 17.28 -13.542 15.112 C-12.284 13.287 -10.784 11.748 -9.229 10.174 C-8.417 9.336 -7.608 8.493 -6.803 7.647 C-6.408 7.236 -6.012 6.825 -5.605 6.402 C-4.501 5.062 -3.903 3.799 -3.198 2.221 C-2.243 0.528 -1.975 0.143 0 0 Z " fill="#F7F7F6" transform="translate(177.541748046875,220.888427734375)"/>
<path d="M0 0 C0.551 1.16 0.551 1.16 1 3 C1.12 3.389 1.241 3.778 1.365 4.179 C2.401 7.91 2.791 11.465 1 15 C-3.393 19.378 -12.605 27 -19 27 C-19.502 25.778 -19.502 25.778 -19.852 24.078 C-19.98 23.465 -20.109 22.851 -20.242 22.219 C-20.369 21.569 -20.495 20.919 -20.625 20.25 C-20.759 19.616 -20.893 18.982 -21.031 18.328 C-21.394 16.551 -21.748 14.796 -22 13 C-22.05 12.659 -22.05 12.659 -22.306 10.932 C-22.205 10.294 -22.104 9.657 -22 9 C-20.507 7.941 -19.357 7.32 -17.695 6.641 C-17.256 6.447 -16.817 6.252 -16.364 6.052 C-14.958 5.436 -13.542 4.843 -12.125 4.25 C-11.178 3.836 -10.231 3.421 -9.285 3.004 C-8.381 2.611 -7.476 2.219 -6.57 1.828 C-6.143 1.644 -5.716 1.459 -5.276 1.27 C-3.397 0.484 -2.06 0 0 0 Z " fill="#F6F6F5" transform="translate(159,186)"/>
<path d="M0 0 C1.145 1.248 2.13 2.454 3.125 3.812 C3.264 3.991 3.264 3.991 3.965 4.893 C5.554 7.026 6.375 8.347 6 11 C5.054 12.41 5.054 12.41 3.734 13.848 C3.256 14.37 2.778 14.893 2.285 15.432 C1.779 15.97 1.272 16.508 0.75 17.062 C0.259 17.605 -0.232 18.147 -0.738 18.705 C-5.739 24.099 -5.739 24.099 -9 25 C-13.25 23.087 -17.571 17.934 -20 14 C-20.238 12.532 -20.238 12.532 -20 11 C-18.778 9.973 -18.778 9.973 -17.078 9.062 C-16.465 8.725 -15.851 8.387 -15.219 8.039 C-14.569 7.696 -13.919 7.353 -13.25 7 C-11.983 6.315 -10.717 5.628 -9.453 4.938 C-8.853 4.611 -8.253 4.285 -7.635 3.949 C-6.217 3.126 -4.956 2.265 -3.672 1.25 C-2 0 -2 0 0 0 Z " fill="#F7F7F6" transform="translate(164,208)"/>
<path d="M0 0 C0.148 2.954 0.257 5.906 0.33 8.862 C0.36 9.868 0.401 10.873 0.453 11.877 C0.61 15.004 0.674 17.93 0 21 C-1.793 22.77 -3.548 22.887 -6 23 C-6.283 23.02 -6.283 23.02 -7.712 23.124 C-9.441 23.196 -11.145 23.176 -12.875 23.125 C-13.468 23.116 -14.061 23.107 -14.672 23.098 C-16.115 23.074 -17.557 23.042 -19 23 C-18.355 20.25 -17.709 17.5 -17.062 14.75 C-16.88 13.973 -16.698 13.195 -16.51 12.395 C-16.333 11.64 -16.155 10.886 -15.973 10.109 C-15.891 9.764 -15.891 9.764 -15.481 8.015 C-15.401 7.682 -15.401 7.682 -15 6 C-14.854 5.272 -14.708 4.545 -14.557 3.795 C-14.373 3.203 -14.19 2.61 -14 2 C-12.109 1.172 -12.109 1.172 -9.75 0.75 C-8.982 0.6 -8.213 0.451 -7.422 0.297 C-4.899 -0.012 -2.538 -0.02 0 0 Z " fill="#F5F5F4" transform="translate(212,222)"/>
<path d="M0 0 C0.33 0 0.66 0 1 0 C1.671 5.867 1.671 5.867 0.208 8.338 C-0.947 9.565 -2.154 10.658 -3.438 11.75 C-4.366 12.606 -5.29 13.467 -6.211 14.332 C-6.445 14.551 -6.445 14.551 -7.632 15.659 C-11.057 19.016 -13.927 22.886 -16.9 26.64 C-17.964 27.956 -19.06 29.235 -20.176 30.508 C-35.313 47.957 -46.42 69.524 -48.75 92.625 C-48.81 93.187 -48.871 93.75 -48.933 94.329 C-50.924 112.943 -50.883 131.711 -45.878 149.892 C-45.071 152.94 -44.912 154.926 -46 158 C-46.64 155.942 -47.259 153.878 -47.875 151.812 C-48.049 151.254 -48.223 150.695 -48.402 150.119 C-51.783 138.664 -52.344 127.183 -52.25 115.312 C-52.247 114.612 -52.244 113.912 -52.241 113.19 C-52.026 71.733 -35.318 42.282 -7.34 12.551 C-0.785 5.493 -0.785 5.493 0 0 Z " fill="#626262" transform="translate(229,5)"/>
<path d="M0 0 C1.611 0.654 2.362 1.129 3.367 2.555 C3.943 6.076 3.95 9.423 2.305 12.617 C-0.754 14.097 -3.456 13.564 -6.633 12.555 C-8.318 11.163 -8.507 10.267 -8.879 8.164 C-9.116 5.316 -8.869 3.351 -7.008 1.117 C-4.701 -0.868 -2.857 -0.607 0 0 Z " fill="#F1F2F0" transform="translate(146.6328125,95.4453125)"/>
<path d="M0 0 C1.801 0.577 2.548 0.968 3.621 2.52 C4.218 5.738 4.148 8.612 2.496 11.457 C-0.17 12.968 -2.387 13.1 -5.379 12.52 C-7.254 11.457 -7.254 11.457 -8.379 9.52 C-8.943 6.206 -8.906 3.512 -7.316 0.52 C-4.688 -0.837 -2.861 -0.461 0 0 Z " fill="#F7F7F6" transform="translate(148.37890625,144.48046875)"/>
<path d="M0 0 C0.33 0 0.66 0 1 0 C1.729 5.811 1.729 5.811 0.111 8.451 C-1.135 9.788 -2.429 10.993 -3.812 12.188 C-4.717 13.012 -5.619 13.839 -6.52 14.668 C-6.95 15.055 -7.38 15.442 -7.823 15.841 C-8.95 16.951 -9.811 18.06 -10.699 19.363 C-11.128 19.903 -11.558 20.444 -12 21 C-12.66 20.67 -13.32 20.34 -14 20 C-13.564 19.504 -13.129 19.007 -12.68 18.496 C-11.759 17.447 -10.839 16.396 -9.923 15.343 C-8.382 13.569 -6.832 11.809 -5.234 10.086 C-2.192 6.734 -0.413 4.548 0 0 Z " fill="#545453" transform="translate(229,5)"/>
</svg>
