<?xml version="1.0" encoding="UTF-8"?>
<!-- Generator: visioncortex VTracer 0.6.12 -->
<svg version="1.1" xmlns="http://www.w3.org/2000/svg" width="275" height="275">
<path d="M0 0 C10.857 9.748 15.459 22.865 16.265 37.226 C16.976 59.438 12.062 76.029 -0.053 94.688 C-0.715 95.716 -1.348 96.762 -1.973 97.812 C-2.267 98.186 -2.56 98.56 -2.863 98.945 C-3.523 98.945 -4.183 98.945 -4.863 98.945 C-4.977 99.275 -4.977 99.275 -5.551 100.945 C-7.568 106.564 -12.838 111.339 -17.547 114.82 C-20.371 117.233 -22.664 120.221 -25.076 123.035 C-26.593 124.789 -28.129 126.404 -29.863 127.945 C-30.523 127.945 -31.183 127.945 -31.863 127.945 C-32.158 128.538 -32.454 129.131 -32.758 129.742 C-34.16 132.537 -36.114 134.057 -38.502 135.949 C-40.927 137.952 -42.973 140.184 -45.01 142.572 C-48.783 146.934 -52.795 151.023 -56.879 155.094 C-57.624 155.84 -58.369 156.586 -59.114 157.332 C-60.659 158.878 -62.205 160.422 -63.753 161.965 C-65.732 163.939 -67.707 165.917 -69.68 167.896 C-71.211 169.43 -72.744 170.962 -74.277 172.493 C-75.007 173.222 -75.735 173.951 -76.463 174.682 C-77.477 175.698 -78.495 176.712 -79.513 177.724 C-80.089 178.3 -80.665 178.875 -81.259 179.468 C-82.863 180.945 -82.863 180.945 -84.552 182.011 C-84.985 182.319 -85.417 182.628 -85.863 182.945 C-86.12 184.607 -86.226 186.034 -86.238 187.695 C-86.457 192.129 -87.483 194.592 -90.609 197.887 C-93.838 200.612 -96.788 199.828 -100.77 199.492 C-101.46 199.642 -102.151 199.791 -102.863 199.945 C-103.564 201.133 -103.931 202.309 -104.348 203.622 C-105.194 205.794 -106.809 207.075 -108.613 208.445 C-108.997 208.739 -109.38 209.033 -109.775 209.336 C-120.143 216.748 -132.805 218.147 -145.176 218.133 C-145.592 218.133 -146.008 218.132 -146.437 218.132 C-152.641 218.113 -158.546 217.755 -164.574 216.253 C-165.966 215.921 -167.363 215.654 -168.77 215.391 C-181.352 212.871 -190.979 206.663 -198.137 196.059 C-202.327 189.208 -203.252 180.414 -201.563 172.546 C-198.457 161.818 -190.098 151.583 -180.426 146.195 C-178.92 145.404 -177.402 144.673 -175.863 143.945 C-175.192 143.624 -174.52 143.303 -173.828 142.973 C-165.9 139.584 -158.031 140.34 -150.129 143.402 C-139.469 147.978 -129.978 155.889 -122.863 164.945 C-117.282 160.937 -112.197 156.635 -107.238 151.883 C-105.978 150.681 -104.714 149.482 -103.449 148.285 C-103.298 148.141 -103.298 148.141 -102.531 147.413 C-100.157 145.175 -97.678 143.102 -95.112 141.088 C-93.863 139.945 -93.863 139.945 -92.822 138.304 C-92.505 137.856 -92.189 137.407 -91.863 136.945 C-91.203 136.945 -90.543 136.945 -89.863 136.945 C-89.439 136.02 -89.015 135.094 -88.596 134.167 C-87.01 131.523 -84.415 129.638 -82.113 127.633 C-78.027 124 -74.298 120.423 -70.949 116.09 C-70.591 115.712 -70.232 115.334 -69.863 114.945 C-69.203 114.945 -68.543 114.945 -67.863 114.945 C-67.178 113.621 -66.515 112.286 -65.863 110.945 C-64.363 109.195 -64.363 109.195 -62.863 107.945 C-62.203 107.945 -61.543 107.945 -60.863 107.945 C-60.419 107.03 -59.979 106.112 -59.56 105.185 C-58.078 102.549 -55.758 100.486 -53.676 98.32 C-49.675 94.085 -46.104 89.808 -42.97 84.892 C-42.312 83.879 -41.593 82.907 -40.863 81.945 C-40.203 81.945 -39.543 81.945 -38.863 81.945 C-38.352 80.749 -37.85 79.547 -37.408 78.323 C-36.754 76.67 -35.84 75.244 -34.859 73.766 C-24.058 57.347 -20.023 35.883 -22.363 16.508 C-24.064 2.207 -24.064 2.207 -21.887 -1.895 C-14.885 -9.304 -6.597 -5.662 0 0 Z " fill="#1D120C" transform="translate(238.86328125,34.0546875)"/>
<path d="M0 0 C4.918 2.241 7.993 7.79 10.564 12.286 C10.915 12.895 11.265 13.505 11.626 14.132 C14.449 19.303 15.531 23.709 15.314 29.599 C15.974 29.599 16.634 29.599 17.314 29.599 C17.998 28.274 18.664 26.94 19.314 25.599 C21.357 24.577 22.563 24.348 24.814 24.224 C25.422 24.175 26.031 24.126 26.658 24.075 C28.314 24.599 28.314 24.599 28.969 25.556 C30.315 28.606 30.627 31.486 30.564 34.786 C30.565 35.258 30.566 35.73 30.568 36.216 C30.52 39.208 30.057 41.814 29.237 44.684 C28.661 46.746 28.322 48.439 28.314 50.599 C29.765 52.3 31.303 53.128 33.244 54.231 C42.248 60.178 47.234 74.514 49.314 84.599 C49.48 86.472 49.524 88.34 49.552 90.22 C49.557 90.488 49.557 90.488 49.582 91.846 C49.902 113.997 49.902 113.997 45.314 123.599 C45.223 123.803 45.223 123.803 44.763 124.838 C43.515 127.601 42.049 130.114 40.314 132.599 C40.057 132.969 39.8 133.34 39.535 133.722 C32.505 143.468 20.881 149.839 9.314 152.599 C5.883 153.012 2.516 153.086 -0.936 153.036 C-1.394 153.032 -1.852 153.029 -2.323 153.025 C-15.997 152.868 -27.846 149.073 -37.902 139.433 C-49.59 127.187 -53.207 111.097 -53.035 94.619 C-52.658 81.809 -49.426 67.344 -40.17 57.833 C-38.336 56.104 -36.436 54.708 -34.311 53.349 C-32.78 52.075 -32.78 52.075 -31.686 50.599 C-31.495 48.41 -31.84 46.572 -32.249 44.415 C-32.896 40.849 -32.824 37.274 -32.811 33.661 C-32.815 32.998 -32.819 32.335 -32.823 31.652 C-32.823 31.339 -32.823 31.339 -32.819 29.759 C-32.818 29.198 -32.817 28.637 -32.815 28.06 C-32.686 26.599 -32.686 26.599 -31.686 24.599 C-29.979 24.263 -29.979 24.263 -27.874 24.224 C-27.53 24.209 -27.53 24.209 -25.792 24.138 C-22.885 24.774 -21.56 26.379 -19.686 28.599 C-19.504 27.874 -19.323 27.15 -19.135 26.403 C-17.177 18.78 -14.633 12.857 -10.186 6.349 C-9.889 5.912 -9.592 5.474 -9.287 5.024 C-6.799 1.488 -4.725 -1.221 0 0 Z M-2.686 10.599 C-3.644 11.926 -4.417 13.166 -5.186 14.599 C-5.407 15.007 -5.627 15.414 -5.855 15.835 C-8.858 21.608 -11.2 29.07 -9.686 35.599 C-7.116 37.215 -3.508 36.745 -0.561 36.724 C-0.286 36.726 -0.286 36.726 1.107 36.735 C1.369 36.735 1.369 36.735 2.697 36.731 C3.175 36.73 3.654 36.729 4.146 36.728 C5.314 36.599 5.314 36.599 6.314 35.599 C7.742 27.195 4.279 18.971 0.275 11.716 C-0.042 11.347 -0.359 10.978 -0.686 10.599 C-1.346 10.599 -2.006 10.599 -2.686 10.599 Z " fill="#190F0A" transform="translate(95.68603515625,11.4013671875)"/>
<path d="M0 0 C10.857 9.748 15.459 22.865 16.265 37.226 C16.976 59.438 12.062 76.029 -0.053 94.688 C-0.715 95.716 -1.348 96.762 -1.973 97.812 C-2.267 98.186 -2.56 98.56 -2.863 98.945 C-3.523 98.945 -4.183 98.945 -4.863 98.945 C-4.977 99.275 -4.977 99.275 -5.551 100.945 C-7.568 106.564 -12.838 111.339 -17.547 114.82 C-20.371 117.233 -22.664 120.221 -25.076 123.035 C-26.593 124.789 -28.129 126.404 -29.863 127.945 C-30.523 127.945 -31.183 127.945 -31.863 127.945 C-32.158 128.538 -32.454 129.131 -32.758 129.742 C-34.16 132.537 -36.114 134.057 -38.502 135.949 C-40.927 137.952 -42.973 140.184 -45.01 142.572 C-48.783 146.934 -52.795 151.023 -56.879 155.094 C-57.624 155.84 -58.369 156.586 -59.114 157.332 C-60.659 158.878 -62.205 160.422 -63.753 161.965 C-65.732 163.939 -67.707 165.917 -69.68 167.896 C-71.211 169.43 -72.744 170.962 -74.277 172.493 C-75.007 173.222 -75.735 173.951 -76.463 174.682 C-77.477 175.698 -78.495 176.712 -79.513 177.724 C-80.089 178.3 -80.665 178.875 -81.259 179.468 C-82.863 180.945 -82.863 180.945 -84.552 182.011 C-84.985 182.319 -85.417 182.628 -85.863 182.945 C-86.12 184.607 -86.226 186.034 -86.238 187.695 C-86.457 192.129 -87.483 194.592 -90.609 197.887 C-93.838 200.612 -96.788 199.828 -100.77 199.492 C-101.46 199.642 -102.151 199.791 -102.863 199.945 C-103.564 201.133 -103.931 202.309 -104.348 203.622 C-105.194 205.794 -106.809 207.075 -108.613 208.445 C-108.805 208.592 -108.805 208.592 -109.775 209.336 C-120.143 216.748 -132.805 218.145 -145.176 218.133 C-145.383 218.133 -145.383 218.133 -146.429 218.133 C-154.541 218.116 -162.592 217.887 -169.863 213.945 C-168.759 213.918 -167.655 213.899 -166.551 213.883 C-165.936 213.871 -165.321 213.86 -164.688 213.848 C-162.863 213.945 -162.863 213.945 -161.602 214.437 C-159.143 215.156 -156.777 215.147 -154.227 215.184 C-153.951 215.189 -153.951 215.189 -152.553 215.213 C-120.49 215.666 -120.49 215.666 -109.465 205.336 C-107.863 203.945 -107.863 203.945 -105.863 203.945 C-105.547 202.887 -105.547 202.887 -105.301 201.508 C-104.816 200.105 -104.816 200.105 -103.863 198.945 C-101.91 198.566 -101.91 198.566 -99.551 198.445 C-96.455 198.236 -94.295 198.081 -91.863 196.07 C-89.292 193.107 -89.279 189.639 -89.314 185.868 C-89.271 182.428 -89.271 182.428 -88.016 180.942 C-86.243 179.543 -85.14 178.945 -82.863 178.945 C-82.863 177.955 -82.863 176.965 -82.863 175.945 C-83.317 176.007 -83.771 176.069 -84.238 176.133 C-84.775 176.071 -85.311 176.009 -85.863 175.945 C-87.051 174.445 -87.051 174.445 -87.863 172.945 C-88.193 173.605 -88.523 174.265 -88.863 174.945 C-88.203 175.275 -87.543 175.605 -86.863 175.945 C-87.338 176.048 -87.812 176.152 -88.301 176.258 C-88.816 176.485 -89.332 176.712 -89.863 176.945 C-90.224 177.936 -90.553 178.938 -90.863 179.945 C-92.238 181.633 -92.238 181.633 -93.863 182.945 C-94.367 182.911 -94.871 182.876 -95.391 182.84 C-95.877 182.875 -96.363 182.909 -96.863 182.945 C-97.594 184.258 -97.594 184.258 -98.051 185.945 C-98.209 186.502 -98.368 187.059 -98.531 187.633 C-98.586 187.849 -98.586 187.849 -98.863 188.945 C-102.667 188.548 -104.452 187.808 -106.946 184.911 C-107.269 184.51 -107.593 184.109 -107.926 183.695 C-108.097 183.492 -108.097 183.492 -108.963 182.46 C-109.635 181.657 -110.303 180.849 -110.965 180.036 C-111.72 179.119 -112.507 178.228 -113.301 177.344 C-113.486 177.134 -113.486 177.134 -114.426 176.07 C-114.736 175.722 -115.047 175.374 -115.367 175.016 C-115.863 173.945 -115.863 173.945 -115.598 172.418 C-114.374 169.965 -112.335 168.98 -109.863 167.945 C-107.551 167.758 -107.551 167.758 -105.863 167.945 C-106.379 167.677 -106.895 167.409 -107.426 167.133 C-107.9 166.741 -108.375 166.349 -108.863 165.945 C-108.551 164.32 -108.551 164.32 -107.863 162.945 C-107.863 163.605 -107.863 164.265 -107.863 164.945 C-105.863 164.57 -105.863 164.57 -103.863 163.945 C-103.863 163.285 -103.863 162.625 -103.863 161.945 C-102.782 160.879 -101.711 159.939 -100.537 158.985 C-95.093 154.39 -90.118 149.345 -85.09 144.305 C-84.075 143.29 -83.06 142.276 -82.045 141.262 C-79.933 139.153 -77.824 137.041 -75.716 134.929 C-73.016 132.223 -70.312 129.522 -67.606 126.822 C-65.516 124.736 -63.429 122.647 -61.342 120.558 C-60.345 119.56 -59.348 118.564 -58.349 117.568 C-56.959 116.18 -55.572 114.789 -54.186 113.397 C-53.776 112.989 -53.365 112.581 -52.942 112.16 C-51 110.203 -49.288 108.33 -47.863 105.945 C-44.675 107.381 -42.225 109.134 -39.613 111.445 C-39.25 111.753 -38.886 112.061 -38.512 112.379 C-37.587 113.189 -36.72 114.064 -35.863 114.945 C-35.863 116.945 -35.863 116.945 -36.678 117.956 C-37.071 118.325 -37.463 118.694 -37.868 119.075 C-38.327 119.516 -38.787 119.958 -39.26 120.413 C-39.789 120.918 -40.318 121.424 -40.863 121.945 C-42.096 123.172 -43.325 124.402 -44.552 125.634 C-45.239 126.321 -45.926 127.009 -46.614 127.696 C-46.968 128.05 -47.323 128.405 -47.689 128.771 C-56.747 137.829 -65.805 146.887 -74.863 155.945 C-74.203 155.945 -73.543 155.945 -72.863 155.945 C-72.783 157.257 -72.724 158.57 -72.676 159.883 C-72.658 160.248 -72.658 160.248 -72.57 162.098 C-72.667 162.707 -72.764 163.317 -72.863 163.945 C-74.375 164.699 -74.375 164.699 -75.863 164.945 C-75.533 166.265 -75.203 167.585 -74.863 168.945 C-70.854 165.658 -67.039 162.227 -63.363 158.57 C-63.02 158.232 -62.678 157.894 -62.324 157.545 C-60.332 155.542 -58.445 153.473 -56.61 151.324 C-52.708 146.774 -48.549 142.535 -44.271 138.339 C-43.053 137.144 -41.84 135.944 -40.627 134.743 C-37.187 131.336 -33.742 127.933 -30.287 124.54 C-28.159 122.45 -26.038 120.352 -23.921 118.249 C-23.118 117.453 -22.311 116.66 -21.502 115.87 C-20.377 114.772 -19.262 113.665 -18.149 112.555 C-17.814 112.233 -17.479 111.91 -17.134 111.578 C-15.748 110.18 -14.921 109.237 -14.533 107.282 C-14.587 107.062 -14.587 107.062 -14.863 105.945 C-15.523 105.615 -16.183 105.285 -16.863 104.945 C-16.224 104.512 -15.585 104.079 -14.926 103.633 C-13.089 102.27 -12.303 101.255 -11.863 98.945 C-12.523 98.945 -13.183 98.945 -13.863 98.945 C-14.193 99.605 -14.523 100.265 -14.863 100.945 C-15.255 100.512 -15.647 100.079 -16.051 99.633 C-16.649 99.406 -17.247 99.179 -17.863 98.945 C-19.234 99.934 -20.26 101.108 -21.391 102.363 C-23.048 104.143 -24.817 105.695 -26.676 107.258 C-27.28 107.77 -27.885 108.281 -28.508 108.809 C-28.955 109.184 -29.402 109.559 -29.863 109.945 C-31.135 108.842 -32.406 107.738 -33.676 106.633 C-34.032 106.324 -34.389 106.015 -34.756 105.697 C-35.462 105.082 -36.163 104.461 -36.858 103.833 C-37.792 103.008 -38.77 102.234 -39.75 101.465 C-40.117 100.963 -40.485 100.462 -40.863 99.945 C-39.835 96.592 -37.478 94.149 -35.238 91.508 C-20.969 74.04 -12.562 53.044 -12.801 30.445 C-12.803 30.034 -12.803 30.034 -12.814 27.953 C-12.826 25.95 -12.842 23.948 -12.863 21.945 C-13.523 21.945 -14.183 21.945 -14.863 21.945 C-15.008 21.708 -15.008 21.708 -15.738 20.508 C-17.213 18.459 -18.435 18.35 -20.863 17.945 C-21.193 18.935 -21.523 19.925 -21.863 20.945 C-24.419 2.876 -24.419 2.876 -21.887 -1.895 C-14.885 -9.304 -6.597 -5.662 0 0 Z " fill="#170D09" transform="translate(238.86328125,34.0546875)"/>
<path d="M0 0 C4.9 2.233 7.95 7.738 10.502 12.224 C10.85 12.833 11.198 13.442 11.556 14.069 C14.672 19.782 16.594 25.772 16.213 32.353 C16.246 32.764 16.28 33.175 16.314 33.599 C17.015 33.846 17.717 34.094 18.439 34.349 C19.058 34.761 19.677 35.174 20.314 35.599 C20.049 38.074 19.227 40.293 18.314 42.599 C16.377 42.474 16.377 42.474 14.314 41.599 C13.628 39.628 13.441 37.675 13.314 35.599 C12.737 35.95 12.159 36.3 11.564 36.661 C9.314 37.599 9.314 37.599 7.17 37.423 C6.557 37.151 5.945 36.879 5.314 36.599 C5.099 34.771 5.099 34.771 5.377 32.349 C5.821 25.967 3.41 20.722 0.887 14.974 C0.314 13.599 0.314 13.599 -0.135 11.925 C-0.317 11.487 -0.499 11.05 -0.686 10.599 C-1.346 10.599 -2.006 10.599 -2.686 10.599 C-3.623 12.599 -3.623 12.599 -4.119 14.001 C-4.513 15.111 -4.946 16.207 -5.408 17.29 C-7.878 23.234 -8.787 29.257 -9.686 35.599 C-9.376 35.661 -9.376 35.661 -7.811 35.974 C-5.686 36.599 -5.686 36.599 -4.725 37.654 C-3.026 39.199 -1.282 38.787 0.939 38.724 C1.756 38.706 2.574 38.688 3.416 38.669 C4.042 38.646 4.669 38.623 5.314 38.599 C4.324 39.919 3.334 41.239 2.314 42.599 C2.314 41.939 2.314 41.279 2.314 40.599 C1.5 40.908 0.688 41.221 -0.123 41.536 C-0.576 41.71 -1.028 41.884 -1.494 42.064 C-2.686 42.599 -2.686 42.599 -3.686 43.599 C-3.199 43.711 -2.711 43.823 -2.209 43.939 C3.388 45.496 7.985 48.031 12.877 51.161 C13.509 51.562 14.14 51.962 14.791 52.374 C18.17 54.592 18.17 54.592 19.314 55.599 C19.314 56.259 19.314 56.919 19.314 57.599 C18.292 58.269 18.292 58.269 16.865 58.853 C16.606 58.96 16.606 58.96 15.293 59.503 C15.018 59.612 15.018 59.612 13.627 60.161 C13.361 60.272 13.361 60.272 12.019 60.831 C5.95 63.296 0.93 63.74 -5.576 63.384 C-8.304 63.309 -8.304 63.309 -9.686 63.599 C-10.26 65.126 -10.26 65.126 -10.686 66.599 C-12.36 66.659 -13.625 66.567 -15.248 66.286 C-15.673 66.225 -16.098 66.164 -16.535 66.101 C-17.588 65.947 -18.637 65.775 -19.686 65.599 C-18.696 66.589 -17.706 67.579 -16.686 68.599 C-18.735 69.5 -20.175 69.753 -22.334 69.103 C-25.979 67.567 -29.353 65.72 -32.686 63.599 C-31.32 67.745 -29.568 70.092 -26.397 73.04 C-25.531 73.874 -24.667 74.708 -23.802 75.543 C-23.353 75.971 -22.904 76.399 -22.442 76.84 C-7.244 91.38 -7.244 91.38 -2.686 100.599 C-2.686 101.259 -2.686 101.919 -2.686 102.599 C-2.026 102.599 -1.366 102.599 -0.686 102.599 C1.17 104.739 1.564 106.33 1.557 109.121 C1.559 109.468 1.559 109.468 1.566 111.224 C1.559 111.968 1.552 112.711 1.545 113.478 C1.544 114.246 1.544 115.014 1.543 115.805 C1.54 117.426 1.532 119.048 1.52 120.669 C1.502 123.155 1.5 125.642 1.5 128.128 C1.495 129.703 1.489 131.278 1.482 132.853 C1.481 133.599 1.48 134.344 1.479 135.113 C1.472 135.804 1.466 136.495 1.459 137.207 C1.458 137.511 1.458 137.511 1.448 139.05 C1.314 140.599 1.314 140.599 0.314 142.599 C-0.346 142.599 -1.006 142.599 -1.686 142.599 C-1.686 141.939 -1.686 141.279 -1.686 140.599 C-2.676 140.929 -3.666 141.259 -4.686 141.599 C-4.692 141.239 -4.698 140.878 -4.704 140.507 C-4.768 136.726 -4.852 132.946 -4.948 129.166 C-4.981 127.759 -5.009 126.352 -5.032 124.944 C-5.066 122.911 -5.118 120.878 -5.174 118.845 C-5.18 118.225 -5.187 117.605 -5.193 116.966 C-5.685 102.054 -18.89 89.034 -28.96 79.377 C-32.027 76.532 -35.158 73.862 -38.686 71.599 C-38.807 72.156 -38.928 72.713 -39.053 73.286 C-39.221 74.05 -39.388 74.813 -39.561 75.599 C-39.65 76.011 -39.738 76.423 -39.83 76.848 C-40.247 78.756 -40.691 80.617 -41.264 82.486 C-45.175 95.365 -42.898 111.106 -36.664 122.917 C-33.381 128.529 -28.548 133.668 -22.686 136.599 C-23.061 138.099 -23.061 138.099 -23.686 139.599 C-24.346 139.599 -25.006 139.599 -25.686 139.599 C-25.026 140.259 -24.366 140.919 -23.686 141.599 C-25.336 141.929 -26.986 142.259 -28.686 142.599 C-28.356 143.589 -28.026 144.579 -27.686 145.599 C-36.394 142.96 -41.683 135.891 -45.879 128.219 C-53.613 112.689 -55.845 92.855 -50.29 76.21 C-46.819 66.952 -42.829 58.797 -34.311 53.349 C-32.78 52.075 -32.78 52.075 -31.686 50.599 C-31.495 48.411 -31.839 46.573 -32.248 44.415 C-32.896 40.849 -32.824 37.275 -32.811 33.661 C-32.815 32.998 -32.819 32.335 -32.823 31.652 C-32.822 31.34 -32.822 31.34 -32.819 29.759 C-32.817 29.198 -32.816 28.638 -32.815 28.06 C-32.686 26.599 -32.686 26.599 -31.686 24.599 C-29.979 24.263 -29.979 24.263 -27.873 24.224 C-27.53 24.21 -27.53 24.21 -25.791 24.138 C-22.885 24.774 -21.56 26.379 -19.686 28.599 C-19.504 27.874 -19.322 27.15 -19.135 26.404 C-17.177 18.781 -14.633 12.857 -10.186 6.349 C-9.889 5.912 -9.592 5.475 -9.286 5.024 C-6.799 1.488 -4.725 -1.221 0 0 Z " fill="#24160F" transform="translate(95.685791015625,11.401123046875)"/>
<path d="M0 0 C15.24 6.787 28.574 21.397 38.021 34.723 C39 36.063 39 36.063 39.972 37.184 C41.47 38.924 42.006 39.785 41.957 42.117 C40.68 44.712 39.115 45.719 36.688 47.188 C36.296 47.439 35.905 47.69 35.502 47.949 C22.128 56.422 3.712 55.496 -11.331 52.541 C-21.245 50.305 -29.326 45.648 -35 37.062 C-36.793 33.644 -37.36 30.523 -37.312 26.688 C-37.307 26.206 -37.301 25.725 -37.295 25.229 C-37.057 18.189 -33.988 12.894 -29.005 7.964 C-20.464 0.306 -11.467 -3.605 0 0 Z " fill="#F4F4F2" transform="translate(85,186.9375)"/>
<path d="M0 0 C2 1 2 1 2.578 2.136 C2.654 2.369 2.654 2.369 3.035 3.547 C3.205 4.062 3.374 4.578 3.549 5.109 C3.718 5.651 3.888 6.192 4.062 6.75 C4.236 7.276 4.409 7.802 4.588 8.344 C9.007 22.025 8.036 37.628 1.562 50.562 C-3.583 60.16 -11.217 66.242 -21.54 69.643 C-23.406 70.099 -25.261 70.323 -27.168 70.548 C-27.886 70.634 -28.604 70.719 -29.344 70.808 C-29.891 70.871 -30.437 70.935 -31 71 C-31.206 66.397 -31.344 61.795 -31.439 57.188 C-31.479 55.627 -31.533 54.067 -31.604 52.507 C-32.118 40.747 -30.404 33.25 -23 24 C-22.506 23.362 -22.013 22.723 -21.504 22.065 C-20.309 20.617 -19.068 19.273 -17.75 17.938 C-17.299 17.464 -16.848 16.991 -16.383 16.503 C-15.431 15.51 -14.474 14.523 -13.51 13.541 C-11.892 11.89 -10.296 10.219 -8.699 8.547 C-7.613 7.426 -6.526 6.306 -5.438 5.188 C-4.925 4.653 -4.412 4.119 -3.884 3.568 C-3.405 3.085 -2.927 2.603 -2.434 2.105 C-2.011 1.674 -1.589 1.242 -1.154 0.798 C-0.964 0.666 -0.964 0.666 0 0 Z " fill="#A6A29A" transform="translate(128,82)"/>
<path d="M0 0 C0.801 0.464 1.6 0.932 2.398 1.401 C2.844 1.661 3.289 1.921 3.748 2.189 C11.258 7.053 14.455 18.163 16.613 26.316 C20.195 46.676 13.893 64.956 3 82 C2.736 82.415 2.472 82.831 2.2 83.259 C-1.851 89.47 -7.26 94.832 -12.293 100.242 C-12.742 100.725 -13.191 101.209 -13.653 101.707 C-15.042 103.04 -16.287 104.114 -18 105 C-19.583 103.994 -20.684 103.106 -22 101.812 C-22.343 101.495 -22.686 101.177 -23.039 100.85 C-23.717 100.217 -24.385 99.574 -25.043 98.92 C-26 98 -26 98 -27.875 96.512 C-28.246 96.013 -28.618 95.514 -29 95 C-27.971 91.646 -25.615 89.204 -23.375 86.562 C-15.03 76.348 -9.393 65.402 -5 53 C-4.916 52.767 -4.916 52.767 -4.489 51.591 C-0.118 39.349 0.298 26.488 0.125 13.625 C0.115 12.292 0.106 10.958 0.098 9.625 C0.076 6.416 0.042 3.208 0 0 Z " fill="#A9A79F" transform="translate(227,39)"/>
<path d="M0 0 C4.394 2.022 7.626 5.034 11.125 8.312 C11.29 8.466 11.29 8.466 12.126 9.245 C18.524 15.24 24.108 21.705 29 29 C29.35 29.509 29.701 30.018 30.062 30.542 C32.995 35.158 33.548 38.718 33.391 44.121 C33.385 44.866 33.379 45.611 33.373 46.378 C33.351 48.732 33.301 51.084 33.25 53.438 C33.23 55.044 33.212 56.65 33.195 58.256 C33.151 62.171 33.085 66.085 33 70 C21.554 68.941 13.025 66.002 5.091 57.33 C-3.3 47.102 -6.369 31.915 -5.285 18.97 C-4.346 12.482 -2.12 6.183 0 0 Z " fill="#A4A099" transform="translate(57,83)"/>
<path d="M0 0 C0.804 0.082 1.609 0.165 2.438 0.25 C2.767 0.91 3.097 1.57 3.438 2.25 C4.097 1.59 4.757 0.93 5.438 0.25 C5.438 1.24 5.438 2.23 5.438 3.25 C6.097 3.25 6.757 3.25 7.438 3.25 C7.438 3.91 7.438 4.57 7.438 5.25 C7.98 5.299 8.523 5.348 9.082 5.398 C9.797 5.473 10.513 5.548 11.25 5.625 C11.604 5.66 11.604 5.66 13.395 5.836 C15.438 6.25 15.438 6.25 16.814 7.25 C18.797 8.471 20.134 8.56 22.449 8.664 C22.828 8.683 22.828 8.683 24.744 8.781 C25.137 8.797 25.137 8.797 27.125 8.875 C27.524 8.894 27.524 8.894 29.541 8.992 C31.506 9.086 33.472 9.172 35.438 9.25 C35.438 9.58 35.438 9.91 35.438 10.25 C35.079 10.234 34.721 10.219 34.352 10.202 C32.735 10.14 31.118 10.101 29.5 10.062 C28.936 10.037 28.372 10.012 27.791 9.986 C26.284 9.959 24.914 9.941 23.438 10.25 C22.844 11.781 22.844 11.781 22.438 13.25 C20.764 13.31 19.498 13.218 17.875 12.938 C17.45 12.876 17.026 12.815 16.588 12.752 C15.536 12.598 14.486 12.426 13.438 12.25 C14.428 13.24 15.417 14.23 16.438 15.25 C14.389 16.151 12.948 16.404 10.789 15.754 C7.145 14.218 3.771 12.371 0.438 10.25 C1.803 14.396 3.556 16.743 6.727 19.691 C7.592 20.525 8.457 21.359 9.321 22.194 C9.77 22.622 10.219 23.05 10.682 23.492 C25.879 38.031 25.879 38.031 30.438 47.25 C30.438 47.91 30.438 48.57 30.438 49.25 C31.097 49.25 31.757 49.25 32.438 49.25 C34.294 51.391 34.687 52.981 34.68 55.772 C34.682 56.119 34.682 56.119 34.69 57.875 C34.683 58.619 34.675 59.363 34.668 60.129 C34.668 60.897 34.667 61.665 34.667 62.456 C34.664 64.077 34.656 65.699 34.643 67.32 C34.625 69.807 34.623 72.293 34.623 74.779 C34.618 76.354 34.612 77.929 34.605 79.504 C34.604 80.25 34.603 80.996 34.602 81.764 C34.596 82.455 34.589 83.146 34.583 83.858 C34.581 84.162 34.581 84.162 34.571 85.701 C34.438 87.25 34.438 87.25 33.438 89.25 C32.778 89.25 32.118 89.25 31.438 89.25 C31.438 88.59 31.438 87.93 31.438 87.25 C30.447 87.58 29.458 87.91 28.438 88.25 C28.432 87.89 28.426 87.529 28.42 87.158 C28.355 83.377 28.271 79.597 28.175 75.817 C28.142 74.41 28.114 73.003 28.091 71.595 C28.057 69.562 28.005 67.529 27.949 65.496 C27.943 64.876 27.936 64.256 27.93 63.617 C27.438 48.705 14.234 35.686 4.163 26.028 C1.097 23.183 -2.034 20.513 -5.562 18.25 C-5.684 18.807 -5.805 19.364 -5.93 19.938 C-6.097 20.701 -6.265 21.464 -6.438 22.25 C-6.526 22.662 -6.615 23.075 -6.707 23.499 C-7.124 25.407 -7.568 27.268 -8.141 29.137 C-12.052 42.016 -9.775 57.757 -3.541 69.568 C-0.258 75.18 4.576 80.319 10.438 83.25 C10.062 84.75 10.062 84.75 9.438 86.25 C8.778 86.25 8.118 86.25 7.438 86.25 C8.097 86.91 8.757 87.57 9.438 88.25 C8.612 88.415 8.612 88.415 4.438 89.25 C4.767 90.24 5.097 91.23 5.438 92.25 C-3.271 89.611 -8.56 82.542 -12.756 74.87 C-20.49 59.341 -22.722 39.506 -17.167 22.861 C-14.213 14.983 -10.819 7.962 -4.562 2.25 C-4.209 1.88 -3.855 1.509 -3.491 1.128 C-2.295 -0.003 -1.623 -0.019 0 0 Z M2.438 4.25 C2.438 4.91 2.438 5.57 2.438 6.25 C0.938 6.875 0.938 6.875 -0.562 7.25 C0.427 7.58 1.418 7.91 2.438 8.25 C2.767 6.93 3.097 5.61 3.438 4.25 C3.108 4.25 2.778 4.25 2.438 4.25 Z " fill="#1A100B" transform="translate(62.5625,64.75)"/>
<path d="M0 0 C3.188 1.436 5.639 3.188 8.25 5.5 C8.614 5.808 8.977 6.116 9.352 6.434 C10.276 7.244 11.143 8.118 12 9 C12 11 12 11 11.179 12.018 C10.785 12.389 10.39 12.76 9.984 13.143 C9.755 13.364 9.755 13.364 8.592 14.481 C8.329 14.731 8.329 14.731 7 16 C5.794 17.195 4.591 18.393 3.391 19.594 C2.72 20.261 2.049 20.929 1.378 21.596 C-1.233 24.196 -3.842 26.797 -6.451 29.399 C-8.423 31.366 -10.396 33.332 -12.371 35.296 C-14.298 37.212 -16.223 39.131 -18.146 41.051 C-18.872 41.776 -19.599 42.499 -20.328 43.222 C-24.067 46.934 -27.681 50.646 -30.974 54.77 C-32.5 56.599 -34.231 58.113 -36.062 59.625 C-38.267 61.478 -40.353 63.326 -42.25 65.5 C-42.827 65.995 -43.405 66.49 -44 67 C-47.272 66.738 -49.03 65.42 -51.133 63.055 C-51.46 62.665 -51.788 62.276 -52.125 61.875 C-52.491 61.509 -52.857 61.143 -53.234 60.766 C-54.34 59.444 -54.76 58.709 -55 57 C-54.146 55.595 -54.146 55.595 -52.725 54.015 C-52.458 53.717 -52.191 53.418 -51.916 53.111 C-48.006 48.811 -43.848 44.738 -39.723 40.647 C-38.173 39.111 -36.627 37.571 -35.082 36.031 C-31.807 32.768 -28.529 29.509 -25.25 26.25 C-21.434 22.457 -17.619 18.663 -13.809 14.865 C-12.287 13.35 -10.763 11.838 -9.239 10.326 C-8.308 9.399 -7.377 8.472 -6.446 7.544 C-6.023 7.126 -5.601 6.709 -5.165 6.278 C-3.188 4.302 -1.438 2.421 0 0 Z " fill="#A9A39B" transform="translate(191,140)"/>
<path d="M0 0 C1.938 1.179 3.844 2.397 5.74 3.643 C5.402 3.94 5.065 4.236 4.717 4.542 C4.394 4.905 4.072 5.269 3.74 5.643 C4.115 7.268 4.115 7.268 4.74 8.643 C4.121 8.932 3.502 9.221 2.865 9.518 C0.74 10.643 0.74 10.643 -0.151 11.858 C-0.517 12.117 -0.883 12.376 -1.26 12.643 C-2.716 11.946 -3.842 11.265 -5.135 10.331 C-10.811 6.327 -16.94 5.785 -23.742 6.365 C-27.912 7.129 -31.159 9.904 -34.26 12.643 C-34.751 13.072 -35.242 13.502 -35.748 13.944 C-36.993 15.127 -38.129 16.351 -39.26 17.643 C-39.714 18.139 -40.168 18.636 -40.635 19.147 C-45.209 24.332 -45.722 29.118 -45.533 35.827 C-45.123 41.853 -42.171 46.081 -37.76 50.018 C-35.907 51.525 -34.25 52.648 -32.092 53.682 C-30.26 54.643 -30.26 54.643 -29.448 56.643 C-29.26 58.643 -29.26 58.643 -30.26 60.643 C-29.6 60.643 -28.94 60.643 -28.26 60.643 C-28.325 61.88 -28.39 63.117 -28.455 64.354 C-28.203 66.018 -27.522 66.58 -26.26 67.643 C-33.664 67.826 -40.954 63.353 -46.42 58.644 C-53.074 52.189 -57.201 44.757 -57.552 35.445 C-57.719 23.044 -52.211 14.831 -43.948 5.956 C-40.125 2.26 -36.026 -0.102 -31.26 -2.357 C-30.588 -2.678 -29.917 -2.999 -29.225 -3.33 C-19.235 -7.6 -9.06 -5.301 0 0 Z " fill="#20160F" transform="translate(94.260009765625,180.35693359375)"/>
<path d="M0 0 C0.33 0 0.66 0 1 0 C1.689 23.125 -2.458 40.134 -15.189 59.743 C-15.852 60.77 -16.485 61.816 -17.109 62.867 C-17.403 63.241 -17.697 63.615 -18 64 C-18.66 64 -19.32 64 -20 64 C-20.113 64.33 -20.113 64.33 -20.688 66 C-22.704 71.619 -27.974 76.394 -32.684 79.875 C-35.507 82.288 -37.801 85.275 -40.213 88.09 C-41.73 89.844 -43.266 91.459 -45 93 C-45.66 93 -46.32 93 -47 93 C-47.148 93.296 -47.148 93.296 -47.895 94.797 C-49.297 97.592 -51.251 99.111 -53.639 101.004 C-56.063 103.006 -58.11 105.239 -60.147 107.626 C-63.92 111.989 -67.932 116.078 -72.016 120.148 C-72.761 120.894 -73.506 121.64 -74.251 122.387 C-75.796 123.933 -77.342 125.477 -78.89 127.02 C-80.869 128.994 -82.844 130.972 -84.817 132.951 C-86.348 134.485 -87.88 136.017 -89.414 137.548 C-90.143 138.276 -90.872 139.006 -91.6 139.736 C-92.614 140.753 -93.631 141.766 -94.649 142.779 C-95.226 143.354 -95.802 143.93 -96.396 144.523 C-98 146 -98 146 -99.688 147.066 C-100.121 147.374 -100.554 147.682 -101 148 C-101.257 149.661 -101.362 151.088 -101.375 152.75 C-101.594 157.183 -102.62 159.647 -105.746 162.941 C-108.975 165.667 -111.925 164.883 -115.906 164.547 C-116.597 164.696 -117.288 164.846 -118 165 C-118.701 166.188 -119.068 167.363 -119.484 168.677 C-120.331 170.849 -121.946 172.129 -123.75 173.5 C-123.942 173.647 -123.942 173.647 -124.912 174.391 C-135.28 181.803 -147.941 183.2 -160.312 183.188 C-160.519 183.188 -160.519 183.188 -161.565 183.188 C-169.678 183.171 -177.729 182.942 -185 179 C-183.896 178.973 -182.792 178.954 -181.688 178.938 C-181.073 178.926 -180.458 178.914 -179.824 178.902 C-178 179 -178 179 -176.738 179.491 C-174.28 180.211 -171.913 180.201 -169.363 180.238 C-169.087 180.243 -169.087 180.243 -167.69 180.268 C-135.627 180.721 -135.627 180.721 -124.602 170.391 C-123 169 -123 169 -121 169 C-120.684 167.941 -120.684 167.941 -120.438 166.562 C-119.953 165.16 -119.953 165.16 -119 164 C-117.047 163.621 -117.047 163.621 -114.688 163.5 C-111.592 163.291 -109.432 163.136 -107 161.125 C-104.429 158.162 -104.416 154.693 -104.451 150.922 C-104.408 147.483 -104.408 147.483 -103.153 145.997 C-101.38 144.598 -100.277 144 -98 144 C-98 143.01 -98 142.02 -98 141 C-98.454 141.062 -98.907 141.124 -99.375 141.188 C-99.911 141.126 -100.447 141.064 -101 141 C-102.188 139.5 -102.188 139.5 -103 138 C-103.33 138.66 -103.66 139.32 -104 140 C-103.34 140.33 -102.68 140.66 -102 141 C-102.474 141.103 -102.949 141.206 -103.438 141.312 C-103.953 141.539 -104.469 141.766 -105 142 C-105.36 142.991 -105.69 143.993 -106 145 C-107.375 146.688 -107.375 146.688 -109 148 C-109.504 147.965 -110.008 147.93 -110.527 147.895 C-111.013 147.929 -111.499 147.964 -112 148 C-112.73 149.313 -112.73 149.313 -113.188 151 C-113.346 151.557 -113.505 152.114 -113.668 152.688 C-113.723 152.904 -113.723 152.904 -114 154 C-117.804 153.603 -119.588 152.863 -122.082 149.965 C-122.406 149.564 -122.729 149.163 -123.062 148.75 C-123.234 148.546 -123.234 148.546 -124.099 147.515 C-124.772 146.711 -125.439 145.903 -126.102 145.091 C-126.857 144.174 -127.644 143.283 -128.438 142.398 C-128.623 142.188 -128.623 142.188 -129.562 141.125 C-129.873 140.777 -130.184 140.429 -130.504 140.07 C-131 139 -131 139 -130.734 137.473 C-129.511 135.019 -127.471 134.034 -125 133 C-122.687 132.812 -122.687 132.812 -121 133 C-121.516 132.732 -122.031 132.464 -122.562 132.188 C-123.037 131.796 -123.511 131.404 -124 131 C-123.688 129.375 -123.688 129.375 -123 128 C-123 128.66 -123 129.32 -123 130 C-121.063 129.625 -121.063 129.625 -119 129 C-118.67 128.34 -118.34 127.68 -118 127 C-117.779 127.308 -117.557 127.616 -117.329 127.934 C-116.318 129.322 -115.285 130.692 -114.25 132.062 C-113.902 132.548 -113.554 133.033 -113.195 133.533 C-112.198 134.836 -111.269 135.96 -110 137 C-107.735 137.08 -106.708 136.584 -104.972 135.151 C-103.851 134.076 -102.8 132.957 -101.75 131.812 C-97.805 127.676 -93.693 124.261 -89 121 C-87.998 124.525 -87.94 126.529 -89 130 C-89.66 130 -90.32 130 -91 130 C-90.67 131.32 -90.34 132.64 -90 134 C-85.99 130.712 -82.176 127.282 -78.5 123.625 C-78.157 123.287 -77.814 122.948 -77.461 122.6 C-75.472 120.6 -73.589 118.535 -71.759 116.389 C-67.801 111.77 -63.567 107.485 -59.219 103.235 C-57.947 101.991 -56.68 100.741 -55.414 99.49 C-51.82 95.938 -48.224 92.389 -44.611 88.857 C-17.626 62.463 -1.687 38.481 0 0 Z " fill="#1E120D" transform="translate(254,69)"/>
<path d="M0 0 C0.66 0.33 1.32 0.66 2 1 C4.057 1.739 6.129 2.306 8.25 2.832 C8.554 2.912 8.554 2.912 10.094 3.314 C11.362 3.646 12.633 3.966 13.906 4.275 C19.082 5.662 19.082 5.662 20.938 8.012 C22 10 22 10 22 12 C22.99 12 23.98 12 25 12 C25.33 13.98 25.66 15.96 26 18 C26.474 17.319 26.949 16.639 27.438 15.938 C29.043 14.321 29.823 14.015 32.129 13.816 C35.479 14.076 38.834 14.388 41.562 16.5 C44.138 19.624 43.291 24.219 43 28 C43.66 28 44.32 28 45 28 C45 28.66 45 29.32 45 30 C45.66 30 46.32 30 47 30 C47.625 28.5 47.625 28.5 48 27 C48.66 27.99 49.32 28.98 50 30 C49.67 30.165 49.67 30.165 48 31 C49.32 31.66 50.64 32.32 52 33 C36.174 35.617 16.773 35.493 3.153 25.919 C-0.035 23.378 -2.578 20.257 -5 17 C-4.77 17.015 -4.77 17.015 -3.605 17.094 C-2 17 -2 17 -0.312 15.5 C0.121 15.005 0.554 14.51 1 14 C0.34 14 -0.32 14 -1 14 C-1 13.34 -1 12.68 -1 12 C-0.34 12 0.32 12 1 12 C1.33 9.69 1.66 7.38 2 5 C1.01 5 0.02 5 -1 5 C-0.67 3.35 -0.34 1.7 0 0 Z " fill="#F1F1EE" transform="translate(55,207)"/>
<path d="M0 0 C3.042 1.141 5.832 2.448 8.688 4 C19.843 9.588 35.156 9.686 47 6 C50.762 4.452 54.336 2.542 57.862 0.519 C59 0 59 0 61 0 C60.869 4.339 59.082 6.315 56.002 9.274 C54.049 11.097 52.034 12.842 50.004 14.578 C42.033 21.405 36.423 29.033 31 38 C28.571 35.697 26.586 33.5 24.768 30.701 C19.715 23.008 12.996 16.847 6.351 10.551 C5.526 9.754 4.7 8.957 3.875 8.16 C3.485 7.8 3.094 7.44 2.692 7.069 C0.779 5.208 0.052 4.485 -0.242 1.74 C-0.162 1.166 -0.082 0.592 0 0 Z " fill="#F5F6F5" transform="translate(63,75)"/>
<path d="M0 0 C8.647 4.069 11.955 12.465 15.02 20.949 C20.051 36.065 17.687 54.004 10.977 68.159 C8.561 72.925 5.877 77.499 3 82 C2.736 82.415 2.472 82.831 2.2 83.259 C-1.851 89.47 -7.26 94.832 -12.293 100.242 C-12.742 100.725 -13.191 101.209 -13.653 101.707 C-15.032 103.031 -16.325 104.076 -18 105 C-19.812 104.5 -19.812 104.5 -21 103 C-20.725 100.836 -20.116 98.878 -19 97 C-18.34 97 -17.68 97 -17 97 C-16.533 96.105 -16.076 95.204 -15.661 94.284 C-14.565 92.155 -13.095 90.305 -11.675 88.384 C1.824 70.115 10.908 51.363 8 28 C6.571 19.554 4.168 11.188 0.562 3.419 C0 2 0 2 0 0 Z " fill="#EFEFEA" transform="translate(227,39)"/>
<path d="M0 0 C0.33 0 0.66 0 1 0 C1.05 3.074 1.086 6.148 1.11 9.222 C1.12 10.263 1.133 11.303 1.151 12.344 C1.316 22.404 0.084 31.759 -3.188 41.312 C-3.399 41.936 -3.61 42.56 -3.828 43.203 C-6.262 50.114 -9.435 56.608 -13 63 C-13.238 63.434 -13.475 63.869 -13.72 64.316 C-16.069 68.51 -16.069 68.51 -18 70 C-19.477 69.707 -20.456 69.09 -21.734 68.305 C-22.152 68.204 -22.57 68.104 -23 68 C-25.997 70.307 -27.992 73.372 -29 77 C-30.65 76.34 -32.3 75.68 -34 75 C-32.831 72.468 -31.496 70.105 -30 67.75 C-29.835 67.49 -29.835 67.49 -29 66.172 C-28.67 65.785 -28.34 65.398 -28 65 C-27.34 65 -26.68 65 -26 65 C-25.489 63.803 -24.986 62.602 -24.545 61.377 C-23.891 59.724 -22.976 58.298 -21.995 56.821 C-11.089 40.242 -8.916 20.37 -8 1 C-6.02 1 -4.04 1 -2 1 C-2 2.32 -2 3.64 -2 5 C-1.34 5 -0.68 5 0 5 C0 3.35 0 1.7 0 0 Z " fill="#190F0B" transform="translate(226,51)"/>
<path d="M0 0 C3.632 2.944 4.643 9.059 5.183 13.51 C5.48 17.276 5.479 21.037 5.438 24.812 C5.436 25.099 5.436 25.099 5.429 26.548 C5.367 35.218 4.79 43.068 1 51 C0.818 51.409 0.636 51.818 0.449 52.24 C-0.799 55.003 -2.265 57.516 -4 60 C-4.129 60.185 -4.129 60.185 -4.779 61.124 C-11.809 70.869 -23.433 77.24 -35 80 C-38.431 80.413 -41.798 80.486 -45.25 80.438 C-45.705 80.435 -46.161 80.432 -46.63 80.429 C-55.535 80.349 -65.567 79.773 -72.312 73.25 C-73.363 71.953 -73.363 71.953 -74 71 C-72.203 69.016 -72.203 69.016 -70.375 68.875 C-69.921 68.916 -69.468 68.957 -69 69 C-69.66 67.68 -70.32 66.36 -71 65 C-68.138 64.91 -65.67 65.201 -62.891 65.875 C-62.21 66.037 -61.53 66.2 -60.829 66.367 C-59.978 66.576 -59.127 66.785 -58.25 67 C-55.528 67.66 -52.805 68.32 -50 69 C-50 59.1 -50 49.2 -50 39 C-49.67 39 -49.34 39 -49 39 C-48.835 43.785 -48.835 43.785 -48 68 C-47.34 68 -46.68 68 -46 68 C-46 68.66 -46 69.32 -46 70 C-45.34 70 -44.68 70 -44 70 C-43.67 69.34 -43.34 68.68 -43 68 C-41.504 67.691 -41.504 67.691 -39.562 67.562 C-34.478 67.064 -29.833 65.575 -25 64 C-24.67 65.32 -24.34 66.64 -24 68 C-24 67.34 -24 66.68 -24 66 C-23.34 66 -22.68 66 -22 66 C-22 66.66 -22 67.32 -22 68 C-21.01 67.67 -21.01 67.67 -16 66 C-16.165 66.495 -16.165 66.495 -17 69 C-5.986 60.361 0.721 50.028 3 36 C3.404 32.215 3.486 28.429 3.5 24.625 C3.505 24.169 3.509 23.713 3.514 23.243 C3.536 17.636 2.901 12.677 1.042 7.366 C0.157 4.817 -0.144 2.695 0 0 Z " fill="#231811" transform="translate(140,84)"/>
<path d="M0 0 C7.903 7.095 14.546 17.778 15.25 28.703 C15.26 30.125 15.23 31.527 15.137 32.945 C14.807 32.945 14.477 32.945 14.137 32.945 C13.728 31.109 13.382 29.299 13.074 27.445 C12.983 26.921 12.892 26.396 12.799 25.855 C12.574 24.553 12.355 23.249 12.137 21.945 C10.137 22.945 10.137 22.945 9.137 24.945 C8.421 23.904 7.704 22.862 6.988 21.82 C6.707 21.532 6.426 21.243 6.137 20.945 C5.477 20.945 4.817 20.945 4.137 20.945 C3.723 22.039 3.723 22.039 3.512 23.445 C3.437 23.909 3.362 24.373 3.285 24.852 C3.261 25.032 3.261 25.032 3.137 25.945 C0.905 24.173 0.29 21.851 -0.613 19.258 C-2.605 13.902 -5.56 8.597 -10.863 5.945 C-10.863 15.185 -10.863 24.425 -10.863 33.945 C-11.193 33.945 -11.523 33.945 -11.863 33.945 C-12.193 29.985 -12.523 26.025 -12.863 21.945 C-13.523 21.945 -14.183 21.945 -14.863 21.945 C-15.152 21.471 -15.441 20.997 -15.738 20.508 C-17.213 18.459 -18.435 18.35 -20.863 17.945 C-21.193 18.935 -21.523 19.925 -21.863 20.945 C-24.419 2.876 -24.419 2.876 -21.887 -1.895 C-14.885 -9.304 -6.597 -5.662 0 0 Z " fill="#231712" transform="translate(238.86328125,34.0546875)"/>
<path d="M0 0 C1.559 0.445 1.559 0.445 3 1 C2.651 1.459 2.301 1.918 1.941 2.391 C1.486 3.004 1.031 3.618 0.562 4.25 C0.11 4.853 -0.342 5.457 -0.809 6.078 C-3.831 10.954 -3.711 17.434 -3 23 C-1.226 29.253 2.73 33.371 8 37 C8.715 37.343 9.431 37.686 10.168 38.039 C12 39 12 39 12.812 41 C13 43 13 43 12 45 C12.66 45 13.32 45 14 45 C13.935 46.237 13.87 47.474 13.805 48.711 C14.057 50.375 14.738 50.937 16 52 C8.596 52.183 1.306 47.71 -4.16 43 C-10.812 36.548 -14.95 29.111 -15.291 19.8 C-15.388 13.071 -13.977 8.006 -11 2 C-10.704 2.655 -10.407 3.31 -10.102 3.984 C-9.92 4.317 -9.92 4.317 -9 6 C-7.375 6.25 -7.375 6.25 -6 6 C-6.041 5.763 -6.041 5.763 -6.25 4.562 C-6.168 4.047 -6.085 3.531 -6 3 C-4.125 2.438 -4.125 2.438 -2 2 C-1.649 1.629 -1.299 1.257 -0.938 0.875 C-0.628 0.586 -0.319 0.298 0 0 Z " fill="#2A201B" transform="translate(52,196)"/>
<path d="M0 0 C12.371 6.438 12.371 6.438 13.781 9.798 C13.833 10.022 13.833 10.022 14.092 11.156 C6.387 15.708 -0.692 16.648 -9.47 16.594 C-9.716 16.594 -9.716 16.594 -10.961 16.593 C-12.383 16.586 -13.803 16.561 -15.224 16.527 C-15.652 16.522 -16.08 16.516 -16.52 16.51 C-19.24 16.404 -20.769 15.81 -22.908 14.156 C-24.461 13.635 -26.016 13.223 -27.603 12.816 C-28.908 12.156 -28.908 12.156 -29.65 10.738 C-29.735 10.216 -29.82 9.694 -29.908 9.156 C-28.907 8.113 -28.907 8.113 -27.337 7.184 C-26.77 6.841 -26.203 6.499 -25.619 6.146 C-25.316 5.973 -25.316 5.973 -23.783 5.094 C-23.491 4.918 -23.491 4.918 -22.017 4.029 C-15.123 -0.059 -7.862 -3.477 0 0 Z " fill="#A39F98" transform="translate(100.90771484375,57.84375)"/>
<path d="M0 0 C0.33 0 0.66 0 1 0 C1.689 23.125 -2.458 40.134 -15.189 59.743 C-15.852 60.77 -16.485 61.816 -17.109 62.867 C-17.403 63.241 -17.697 63.615 -18 64 C-18.66 64 -19.32 64 -20 64 C-20.113 64.33 -20.113 64.33 -20.688 66 C-22.704 71.619 -27.974 76.394 -32.684 79.875 C-35.507 82.288 -37.801 85.275 -40.213 88.09 C-41.73 89.844 -43.266 91.459 -45 93 C-45.66 93 -46.32 93 -47 93 C-47.148 93.296 -47.148 93.296 -47.895 94.797 C-49.297 97.592 -51.251 99.111 -53.639 101.004 C-56.063 103.006 -58.11 105.239 -60.147 107.626 C-63.92 111.989 -67.932 116.078 -72.016 120.148 C-72.761 120.894 -73.506 121.64 -74.251 122.387 C-75.796 123.933 -77.342 125.477 -78.89 127.02 C-80.869 128.994 -82.844 130.972 -84.817 132.951 C-86.348 134.485 -87.88 136.017 -89.414 137.548 C-90.143 138.276 -90.872 139.006 -91.6 139.736 C-92.614 140.753 -93.631 141.766 -94.649 142.779 C-95.226 143.354 -95.802 143.93 -96.396 144.523 C-98 146 -98 146 -99.688 147.066 C-100.121 147.374 -100.554 147.682 -101 148 C-101.257 149.661 -101.362 151.088 -101.375 152.75 C-101.594 157.183 -102.62 159.647 -105.746 162.941 C-108.975 165.667 -111.925 164.883 -115.906 164.547 C-116.597 164.696 -117.288 164.846 -118 165 C-118.701 166.188 -119.068 167.363 -119.484 168.677 C-120.331 170.849 -121.946 172.129 -123.75 173.5 C-123.942 173.647 -123.942 173.647 -124.912 174.391 C-135.28 181.803 -147.941 183.2 -160.312 183.188 C-160.519 183.188 -160.519 183.188 -161.565 183.188 C-169.678 183.171 -177.729 182.942 -185 179 C-183.896 178.973 -182.792 178.954 -181.688 178.938 C-181.073 178.926 -180.458 178.914 -179.824 178.902 C-178 179 -178 179 -176.738 179.491 C-174.28 180.211 -171.913 180.201 -169.363 180.238 C-169.087 180.243 -169.087 180.243 -167.69 180.268 C-135.627 180.721 -135.627 180.721 -124.602 170.391 C-123 169 -123 169 -121 169 C-120.684 167.941 -120.684 167.941 -120.438 166.562 C-119.953 165.16 -119.953 165.16 -119 164 C-117.047 163.621 -117.047 163.621 -114.688 163.5 C-111.592 163.291 -109.432 163.136 -107 161.125 C-105.047 158.885 -104.783 157.1 -104.808 154.24 C-104.798 153.974 -104.798 153.974 -104.75 152.625 C-104.739 152.19 -104.728 151.755 -104.717 151.306 C-104.524 148.525 -104.335 147.344 -102.332 145.286 C-101.603 144.777 -100.864 144.283 -100.117 143.801 C-94.796 140.016 -90.31 135.58 -85.733 130.939 C-84.375 129.562 -83.008 128.194 -81.641 126.826 C-80.747 125.928 -79.854 125.028 -78.961 124.129 C-78.566 123.733 -78.171 123.337 -77.764 122.929 C-75.635 120.765 -73.596 118.549 -71.618 116.246 C-67.696 111.683 -63.521 107.44 -59.219 103.235 C-57.947 101.991 -56.68 100.741 -55.414 99.49 C-51.82 95.938 -48.224 92.389 -44.611 88.857 C-17.626 62.463 -1.687 38.481 0 0 Z " fill="#524E49" transform="translate(254,69)"/>
<path d="M0 0 C0.66 0.33 1.32 0.66 2 1 C2.447 2.71 2.788 4.325 3.062 6.062 C3.337 7.723 3.644 9.353 4 11 C4.33 11 4.66 11 5 11 C5.385 12.31 5.385 12.31 5.762 14.148 C8.559 27.006 12.239 36.074 23 44 C23.66 44.33 24.32 44.66 25 45 C24.625 46.5 24.625 46.5 24 48 C23.34 48 22.68 48 22 48 C22.66 48.66 23.32 49.32 24 50 C23.175 50.165 23.175 50.165 19 51 C19.33 51.99 19.66 52.98 20 54 C11.297 51.363 6.008 44.301 1.815 36.633 C0.334 33.667 -0.864 30.612 -2 27.5 C-2.11 27.2 -2.11 27.2 -2.667 25.684 C-3.704 22.635 -4.235 21.067 -3 18 C-2.876 17.464 -2.752 16.927 -2.625 16.375 C-2 15 -2 15 -0.438 14.312 C0.037 14.209 0.511 14.106 1 14 C0.835 13.361 0.67 12.721 0.5 12.062 C-0.315 8.09 -0.079 4.034 0 0 Z " fill="#231812" transform="translate(48,103)"/>
<path d="M0 0 C4.842 0.415 6.902 2.372 10 6 C11.544 8.131 12.887 10.339 14.188 12.625 C14.536 13.234 14.884 13.843 15.242 14.47 C18.357 20.183 20.279 26.174 19.898 32.754 C19.915 32.96 19.915 32.96 20 34 C20.701 34.248 21.403 34.495 22.125 34.75 C22.744 35.163 23.362 35.575 24 36 C23.735 38.475 22.913 40.694 22 43 C20.062 42.875 20.062 42.875 18 42 C17.314 40.029 17.127 38.076 17 36 C16.422 36.351 15.845 36.701 15.25 37.062 C13 38 13 38 10.855 37.824 C10.243 37.552 9.631 37.28 9 37 C8.785 35.172 8.785 35.172 9.062 32.75 C9.507 26.368 7.096 21.123 4.573 15.375 C4 14 4 14 3.551 12.326 C3.46 12.107 3.46 12.107 3 11 C2.34 11 1.68 11 1 11 C0.062 13 0.062 13 -0.434 14.402 C-0.827 15.512 -1.26 16.609 -1.723 17.691 C-4.192 23.635 -5.102 29.658 -6 36 C-6.33 36 -6.66 36 -7 36 C-7.674 26.327 -5.96 18.48 -0.688 10.25 C1.287 7.077 1.148 4.875 0.359 1.285 C0.241 0.861 0.122 0.437 0 0 Z " fill="#201710" transform="translate(92,11)"/>
<path d="M0 0 C3.246 1.293 5.343 2.146 6.988 5.367 C7.289 7.051 7.289 7.051 7.301 8.805 C7.318 9.381 7.334 9.957 7.352 10.551 C6.861 13.005 5.934 14.804 3.988 16.367 C2.156 16.942 0.458 16.939 -1.449 16.867 C-1.943 16.858 -2.436 16.849 -2.945 16.839 C-5.672 16.702 -7.616 16.491 -9.637 14.492 C-12.026 11.299 -12.194 8.647 -12.199 4.805 C-12.211 4.297 -12.224 3.79 -12.236 3.268 C-12.242 1.801 -12.242 1.801 -12.012 -0.633 C-8.283 -2.497 -3.856 -1.213 0 0 Z " fill="#929089" transform="translate(70.01171875,211.6328125)"/>
<path d="M0 0 C0.296 0.338 0.593 0.675 0.898 1.023 C1.262 1.346 1.625 1.668 2 2 C3.625 1.625 3.625 1.625 5 1 C4.428 4.808 2.908 6.463 0.211 8.977 C-0.171 9.347 -0.552 9.717 -0.945 10.098 C-2.564 11.669 -4.2 13.222 -5.836 14.775 C-13.719 22.292 -19.872 30.38 -25 40 C-26.5 38.625 -26.5 38.625 -28 37 C-28 36.34 -28 35.68 -28 35 C-28.66 34.67 -29.32 34.34 -30 34 C-21.643 20.68 -11.677 10.48 0 0 Z " fill="#201815" transform="translate(123,79)"/>
<path d="M0 0 C11.886 5.816 16.347 14.23 20.816 26.184 C21.973 29.815 22.25 33.203 22 37 C21.67 37 21.34 37 21 37 C20.592 35.164 20.245 33.353 19.938 31.5 C19.847 30.975 19.756 30.451 19.662 29.91 C19.437 28.608 19.218 27.304 19 26 C17 27 17 27 16 29 C15.284 27.958 14.568 26.917 13.852 25.875 C13.571 25.586 13.29 25.297 13 25 C12.34 25 11.68 25 11 25 C10.586 26.094 10.586 26.094 10.375 27.5 C10.3 27.964 10.225 28.428 10.148 28.906 C10.124 29.087 10.124 29.087 10 30 C7.748 28.209 7.024 25.798 6.062 23.188 C4.67 19.544 3.173 16.26 1 13 C1.66 12.67 2.32 12.34 3 12 C3.75 10 3.75 10 4 8 C3.34 7.67 2.68 7.34 2 7 C1.67 6.67 1.34 6.34 1 6 C1.438 3.938 1.438 3.938 2 2 C1.34 2 0.68 2 0 2 C0 1.34 0 0.68 0 0 Z " fill="#261B15" transform="translate(232,30)"/>
<path d="M0 0 C2 1 2 1 2.832 3.129 C3.443 6.883 1.46 9.753 -0.312 12.938 C-3.495 18.825 -6.014 24.157 -6.625 30.875 C-6.7 31.656 -6.775 32.437 -6.852 33.242 C-6.901 33.822 -6.95 34.402 -7 35 C-7.33 34.34 -7.66 33.68 -8 33 C-8.299 33.082 -8.299 33.082 -9.812 33.5 C-12.579 34.132 -13.631 33.439 -16 32 C-15.67 33.65 -15.34 35.3 -15 37 C-15.66 37 -16.32 37 -17 37 C-18.173 33.661 -18.173 33.661 -18 32 C-17.54 31.569 -17.08 31.139 -16.605 30.695 C-14.42 28.388 -14.121 26.236 -13.5 23.188 C-11.927 16.352 -9.389 11.453 -5.438 5.688 C-5.132 5.242 -4.827 4.796 -4.513 4.337 C-4.218 3.921 -3.924 3.504 -3.621 3.074 C-3.357 2.699 -3.094 2.323 -2.822 1.936 C-2 1 -2 1 0 0 Z " fill="#1E140D" transform="translate(91,12)"/>
<path d="M0 0 C1.938 0.75 1.938 0.75 4 2 C4.625 4.125 4.625 4.125 5 6 C5.66 6 6.32 6 7 6 C8.856 8.141 9.249 9.731 9.243 12.522 C9.246 13.216 9.249 13.91 9.252 14.625 C9.245 15.369 9.238 16.113 9.23 16.879 C9.23 17.263 9.23 17.263 9.229 19.206 C9.226 20.827 9.218 22.449 9.206 24.07 C9.188 26.557 9.185 29.043 9.186 31.529 C9.181 33.104 9.175 34.679 9.168 36.254 C9.167 37 9.166 37.746 9.165 38.514 C9.158 39.205 9.152 39.896 9.145 40.608 C9.141 41.216 9.138 41.824 9.134 42.451 C9 44 9 44 8 46 C7.34 46 6.68 46 6 46 C6 45.34 6 44.68 6 44 C5.505 44.165 5.505 44.165 3 45 C2.99 44.64 2.979 44.279 2.969 43.908 C2.86 40.128 2.745 36.347 2.628 32.567 C2.585 31.16 2.543 29.753 2.503 28.345 C2.444 26.312 2.381 24.279 2.316 22.246 C2.308 21.936 2.308 21.936 2.266 20.367 C2.127 16.189 1.671 12.126 1 8 C1.66 8 2.32 8 3 8 C2.783 7.59 2.567 7.18 2.344 6.758 C2.065 6.219 1.787 5.68 1.5 5.125 C1.222 4.591 0.943 4.058 0.656 3.508 C0 2 0 2 0 0 Z " fill="#120A07" transform="translate(88,108)"/>
<path d="M0 0 C-0.186 0.454 -0.371 0.907 -0.562 1.375 C-1 3 -1 3 0 5 C-0.199 5.001 -0.199 5.001 -1.207 5.008 C-2.976 5.137 -4.35 5.332 -6 6 C-7.412 7.856 -8.235 9.806 -9 12 C-8.34 12.33 -7.68 12.66 -7 13 C-8.247 13.962 -9.497 14.92 -10.75 15.875 C-11.098 16.144 -11.446 16.414 -11.805 16.691 C-14.095 18.43 -16.381 19.779 -19 21 C-19.66 21.33 -20.32 21.66 -21 22 C-21.66 21.67 -22.32 21.34 -23 21 C-22.67 21.99 -22.34 22.98 -22 24 C-22.66 24.33 -22.66 24.33 -26 26 C-26.783 23.124 -27.486 20.359 -26.457 17.48 C-25.424 15.843 -24.287 14.449 -23 13 C-22.862 12.842 -22.862 12.842 -22.166 12.042 C-17.421 6.674 -12.428 3.107 -6 0 C-3.509 -1.245 -2.589 -0.777 0 0 Z M-5 2 C-5 2.66 -5 3.32 -5 4 C-4.01 3.67 -3.02 3.34 -2 3 C-2.99 2.67 -3.98 2.34 -5 2 Z " fill="#150B07" transform="translate(69,178)"/>
<path d="M0 0 C0.33 0 0.66 0 1 0 C0.942 0.638 0.884 1.276 0.824 1.934 C0.667 4.359 0.621 6.591 1 9 C2.313 9.944 3.113 9.944 4.711 9.902 C6 10 6 10 6.875 10.996 C8.647 12.577 10.315 12.191 12.625 12.125 C13.442 12.107 14.26 12.089 15.102 12.07 C15.728 12.047 16.355 12.024 17 12 C16.01 13.32 15.02 14.64 14 16 C14 15.34 14 14.68 14 14 C13.186 14.309 12.374 14.623 11.562 14.938 C11.11 15.112 10.658 15.286 10.191 15.465 C9 16 9 16 8 17 C9.32 17.66 10.64 18.32 12 19 C10.586 19.366 9.169 19.717 7.75 20.062 C7.356 20.161 7.356 20.161 5.359 20.66 C2.877 21.018 1.324 20.933 -1 20 C-1 19.34 -1 18.68 -1 18 C-1.976 17.779 -2.956 17.574 -3.938 17.375 C-4.483 17.259 -5.028 17.143 -5.59 17.023 C-5.823 17.02 -5.823 17.02 -7 17 C-7.33 17.66 -7.66 18.32 -8 19 C-7.938 18.526 -7.876 18.051 -7.812 17.562 C-7.874 17.047 -7.936 16.531 -8 16 C-8.433 15.876 -8.866 15.752 -9.312 15.625 C-11.65 14.759 -12.23 13.349 -13.449 11.254 C-14 10 -14 10 -14 8 C-13.34 8 -12.68 8 -12 8 C-12.33 6.02 -12.66 4.04 -13 2 C-11.68 1.67 -10.36 1.34 -9 1 C-8.91 3.616 -9.146 5.545 -10 8 C-10.062 9.688 -10.062 9.688 -10 11 C-9.34 11 -8.68 11 -8 11 C-8.33 9.35 -8.66 7.7 -9 6 C-6.36 6.33 -3.72 6.66 -1 7 C-0.67 4.69 -0.34 2.38 0 0 Z " fill="#22160F" transform="translate(84,38)"/>
<path d="M0 0 C0.553 2.076 1 3.844 1 6 C2.32 5.34 3.64 4.68 5 4 C5 4.66 5 5.32 5 6 C5.66 6.33 6.32 6.66 7 7 C0.4 13.6 -6.2 20.2 -13 27 C-13.33 25.68 -13.66 24.36 -14 23 C-14.33 23 -14.66 23 -15 23 C-16.341 22.35 -17.675 21.684 -19 21 C-13.117 13.499 -6.88 6.599 0 0 Z " fill="#140B06" transform="translate(165,154)"/>
<path d="M0 0 C-0.33 0.66 -0.66 1.32 -1 2 C-3.062 1.625 -3.062 1.625 -5 1 C-5 1.66 -5 2.32 -5 3 C-3.688 3.633 -3.688 3.633 -2 4.125 C-1.443 4.293 -0.886 4.46 -0.312 4.633 C0.121 4.754 0.554 4.875 1 5 C0.084 9.026 -1.677 12.502 -3.812 16 C-4.049 16.422 -4.285 16.844 -4.528 17.279 C-5.27 18.438 -5.27 18.438 -7 20 C-8.404 19.661 -9.54 19.076 -10.825 18.42 C-11.213 18.282 -11.6 18.143 -12 18 C-13.547 19.012 -13.547 19.012 -14.75 20.688 C-15.157 21.228 -15.565 21.768 -15.984 22.324 C-16.926 23.879 -17.515 25.256 -18 27 C-18.825 26.67 -18.825 26.67 -23 25 C-21.831 22.468 -20.496 20.105 -19 17.75 C-18.67 17.229 -18.34 16.708 -18 16.172 C-17.67 15.785 -17.34 15.398 -17 15 C-16.34 15 -15.68 15 -15 15 C-14.489 13.827 -13.989 12.647 -13.554 11.443 C-12.646 9.078 -11.4 6.934 -10.125 4.75 C-9.881 4.304 -9.638 3.858 -9.387 3.398 C-8.056 1.124 -7.436 0.172 -4.914 -0.824 C-2.939 -1.006 -1.795 -0.808 0 0 Z " fill="#160D08" transform="translate(215,101)"/>
<path d="M0 0 C2 3 2 3 2 5 C2.66 5 3.32 5 4 5 C3.952 5.175 3.952 5.175 3.711 6.059 C3.656 6.286 3.656 6.286 3.375 7.438 C3.259 7.89 3.143 8.342 3.023 8.809 C3.016 9.202 3.008 9.595 3 10 C3.66 10.33 4.32 10.66 5 11 C2.792 13.331 0.569 15.645 -1.671 17.946 C-2.431 18.731 -3.187 19.521 -3.938 20.315 C-5.016 21.454 -6.109 22.575 -7.207 23.695 C-7.542 24.056 -7.876 24.416 -8.221 24.787 C-9.191 25.758 -9.191 25.758 -11 27 C-12.749 26.339 -12.749 26.339 -14 25 C-13.812 22.875 -13.812 22.875 -13 21 C-12.34 21 -11.68 21 -11 21 C-10.946 19.855 -10.907 18.709 -10.875 17.562 C-10.852 16.924 -10.829 16.286 -10.805 15.629 C-10.869 15.091 -10.934 14.554 -11 14 C-11.66 13.67 -12.32 13.34 -13 13 C-8.71 8.71 -4.42 4.42 0 0 Z " fill="#221712" transform="translate(176,177)"/>
<path d="M0 0 C0.66 0.33 1.32 0.66 2 1 C2.125 2.562 2.125 2.562 2 4 C2.957 4.196 3.915 4.381 4.875 4.562 C5.409 4.667 5.942 4.771 6.492 4.879 C8 5 8 5 10 4 C10 5.32 10 6.64 10 8 C10.66 8 11.32 8 12 8 C12.049 8.398 12.098 8.797 12.148 9.207 C12.581 12.27 12.96 14.552 15 17 C15.66 15.68 16.32 14.36 17 13 C20.09 17.416 20.09 17.416 19.75 19.625 C19.502 20.079 19.255 20.532 19 21 C18.856 21.557 18.711 22.114 18.562 22.688 C18.377 23.121 18.191 23.554 18 24 C17.34 24 16.68 24 16 24 C15.67 23.34 15.34 22.68 15 22 C14.01 22.33 13.02 22.66 12 23 C11.34 21.35 10.68 19.7 10 18 C8.35 18.66 6.7 19.32 5 20 C5.33 17.69 5.66 15.38 6 13 C4.35 13 2.7 13 1 13 C1 12.34 1 11.68 1 11 C0.196 11.041 -0.609 11.082 -1.438 11.125 C-2.809 11.195 -2.809 11.195 -4 11 C-4.33 10.34 -4.66 9.68 -5 9 C-4.361 8.876 -3.721 8.752 -3.062 8.625 C-2.382 8.419 -1.701 8.213 -1 8 C-0.67 7.34 -0.34 6.68 0 6 C-0.99 5.67 -1.98 5.34 -3 5 C-2.01 3.35 -1.02 1.7 0 0 Z " fill="#180D09" transform="translate(118,62)"/>
<path d="M0 0 C0.33 0.165 0.33 0.165 2 1 C0.567 2.463 -0.872 3.919 -2.312 5.375 C-2.717 5.787 -3.121 6.2 -3.537 6.625 C-6.741 9.855 -6.741 9.855 -8.77 10.992 C-10 12 -10 12 -10.336 14.172 C-10.356 15.031 -10.368 15.891 -10.375 16.75 C-10.594 21.183 -11.62 23.647 -14.746 26.941 C-17.975 29.667 -20.925 28.883 -24.906 28.547 C-25.597 28.696 -26.288 28.846 -27 29 C-27.701 30.188 -28.068 31.363 -28.484 32.677 C-29.331 34.849 -30.946 36.129 -32.75 37.5 C-32.942 37.647 -32.942 37.647 -33.912 38.391 C-44.28 45.803 -56.941 47.2 -69.312 47.188 C-69.519 47.188 -69.519 47.188 -70.565 47.188 C-78.678 47.171 -86.729 46.942 -94 43 C-92.896 42.973 -91.792 42.954 -90.688 42.938 C-90.073 42.926 -89.458 42.914 -88.824 42.902 C-87 43 -87 43 -85.738 43.491 C-83.28 44.211 -80.913 44.201 -78.363 44.238 C-77.811 44.248 -77.259 44.258 -76.69 44.268 C-44.627 44.721 -44.627 44.721 -33.602 34.391 C-32 33 -32 33 -30 33 C-29.684 31.941 -29.684 31.941 -29.438 30.562 C-28.953 29.16 -28.953 29.16 -28 28 C-26.047 27.621 -26.047 27.621 -23.688 27.5 C-20.592 27.291 -18.432 27.136 -16 25.125 C-13.655 22.436 -13.793 20.009 -13.75 16.625 C-13.672 11.892 -13.672 11.892 -12.156 9.878 C-10.032 7.871 -7.631 6.339 -5.15 4.813 C-3.498 3.645 -2.221 2.198 -0.906 0.67 C-0.607 0.449 -0.308 0.228 0 0 Z " fill="#4D4A45" transform="translate(163,205)"/>
<path d="M0 0 C0.66 0 1.32 0 2 0 C5.918 4.619 6.561 9.275 6.391 15.121 C6.385 15.866 6.379 16.611 6.373 17.378 C6.351 19.732 6.301 22.084 6.25 24.438 C6.23 26.044 6.212 27.65 6.195 29.256 C6.151 33.171 6.085 37.085 6 41 C2.6 40.904 2.6 40.904 1 40 C0.242 37.741 0.47 35.47 0.582 33.113 C0.594 32.419 0.606 31.724 0.618 31.008 C0.659 28.775 0.734 26.545 0.812 24.312 C0.875 22.098 0.931 19.885 0.975 17.67 C1.004 16.291 1.044 14.912 1.098 13.533 C1.196 9.719 0.833 6.772 -0.661 3.242 C-1 2 -1 2 0 0 Z " fill="#ABA69D" transform="translate(84,112)"/>
<path d="M0 0 C3.632 2.944 4.643 9.059 5.183 13.51 C5.48 17.276 5.479 21.037 5.438 24.812 C5.436 25.099 5.436 25.099 5.429 26.548 C5.367 35.218 4.79 43.068 1 51 C0.818 51.409 0.636 51.818 0.449 52.24 C-0.799 55.003 -2.265 57.516 -4 60 C-4.257 60.371 -4.514 60.742 -4.779 61.124 C-11.795 70.85 -23.44 77.278 -35 80 C-38.027 80.409 -41.052 80.435 -44.102 80.391 C-45.434 80.375 -46.763 80.391 -48.096 80.41 C-54.49 80.423 -59.989 79.129 -66 77 C-63.101 76.205 -61.589 75.923 -58.75 76.938 C-46.5 80.245 -33.068 78.467 -21.996 72.422 C-12.08 66.627 -5.679 59.446 -1 49 C-0.787 48.534 -0.574 48.068 -0.354 47.588 C2.884 40.16 3.387 32.802 3.438 24.812 C3.444 24.351 3.45 23.89 3.456 23.414 C3.505 17.738 2.934 12.735 1.045 7.357 C0.157 4.81 -0.145 2.694 0 0 Z " fill="#4D4A45" transform="translate(140,84)"/>
<path d="M0 0 C4.1 2.195 7.506 6.77 9.598 10.855 C10.439 14.194 10.114 17.487 9.598 20.855 C5.794 20.459 4.009 19.719 1.515 16.821 C1.192 16.42 0.868 16.019 0.535 15.605 C0.193 15.198 -0.149 14.79 -0.502 14.371 C-1.174 13.567 -1.842 12.759 -2.504 11.946 C-3.259 11.029 -4.046 10.138 -4.84 9.254 C-5.211 8.834 -5.582 8.413 -5.965 7.98 C-6.276 7.632 -6.586 7.284 -6.906 6.926 C-7.402 5.855 -7.402 5.855 -7.141 4.332 C-6.298 2.647 -5.634 2.06 -4.027 1.105 C-3.607 0.843 -3.187 0.58 -2.754 0.309 C-1.402 -0.145 -1.402 -0.145 0 0 Z " fill="#B2AEA9" transform="translate(130.40234375,202.14453125)"/>
<path d="M0 0 C1.393 0.396 2.215 0.797 3.305 1.75 C5.035 4.86 4.605 8.615 4 12 C2.797 14.431 1.31 15.519 -1.203 16.441 C-2.729 16.668 -3.557 16.564 -5 16 C-7.249 14.303 -8.752 12.529 -10 10 C-10.361 6.575 -9.596 3.973 -7.812 1.062 C-5.162 -0.491 -2.992 -0.539 0 0 Z " fill="#9E9C97" transform="translate(85,192)"/>
<path d="M0 0 C0.474 0.165 0.949 0.33 1.438 0.5 C2.666 3.081 2.625 5.759 2.625 8.562 C2.631 9.043 2.636 9.524 2.642 10.02 C2.623 13.059 2.201 15.676 1.362 18.59 C0.782 20.65 0.445 22.341 0.438 24.5 C1.884 26.196 3.393 27.01 5.34 28.086 C8.04 29.702 9.663 32.078 11.438 34.625 C11.752 35.057 12.066 35.49 12.39 35.936 C14.515 39.05 14.515 39.05 14.125 41.305 C14.012 41.502 14.012 41.502 13.438 42.5 C12.778 41.18 12.118 39.86 11.438 38.5 C11.149 39.16 10.86 39.82 10.562 40.5 C10.191 41.16 9.82 41.82 9.438 42.5 C8.778 42.5 8.118 42.5 7.438 42.5 C7.269 41.209 7.103 39.917 6.938 38.625 C6.845 37.906 6.752 37.186 6.656 36.445 C6.438 34.5 6.438 34.5 6.438 32.5 C5.778 32.5 5.118 32.5 4.438 32.5 C3.812 31 3.812 31 3.438 29.5 C3.025 29.706 2.612 29.912 2.188 30.125 C0.438 30.5 0.438 30.5 -1.688 29.75 C-3.562 28.5 -3.562 28.5 -4.312 26.875 C-4.395 26.421 -4.478 25.968 -4.562 25.5 C-5.552 25.83 -6.543 26.16 -7.562 26.5 C-8.125 25.125 -8.125 25.125 -8.562 23.5 C-8.233 22.84 -7.903 22.18 -7.562 21.5 C-6.903 21.5 -6.243 21.5 -5.562 21.5 C-5.233 20.84 -4.903 20.18 -4.562 19.5 C-3.903 20.16 -3.243 20.82 -2.562 21.5 C-0.946 17.965 -0.129 15.398 -0.562 11.5 C-1.222 11.17 -1.882 10.84 -2.562 10.5 C-3.708 7.064 -3.773 4.76 -2.238 1.449 C-1.562 0.5 -1.562 0.5 0 0 Z " fill="#261F1B" transform="translate(123.5625,37.5)"/>
<path d="M0 0 C0.124 0.495 0.248 0.99 0.375 1.5 C0.581 1.995 0.787 2.49 1 3 C1.66 3 2.32 3 3 3 C3.625 5 3.625 5 4 7 C3.34 7 2.68 7 2 7 C2 7.99 2 8.98 2 10 C2.454 9.814 2.907 9.629 3.375 9.438 C5 9 5 9 7 10 C6.683 13.91 5.6 16.099 3 19 C0.461 21.031 -0.845 21.105 -4.062 20.812 C-4.702 20.874 -5.341 20.936 -6 21 C-6.75 22.5 -6.75 22.5 -7 24 C-7.99 23.67 -8.98 23.34 -10 23 C-10 23.66 -10 24.32 -10 25 C-10.66 25 -11.32 25 -12 25 C-10.211 20.072 -7.606 15.748 -4.922 11.26 C-2.779 7.602 -1.14 4.088 0 0 Z " fill="#1F150F" transform="translate(240,99)"/>
<path d="M0 0 C1.696 2.262 2.428 4.237 3 7 C4.32 6.01 5.64 5.02 7 4 C6.67 7.3 6.34 10.6 6 14 C5.34 14 4.68 14 4 14 C3.182 15.671 2.51 17.261 1.875 19 C1.784 19.238 1.784 19.238 1.324 20.445 C0.875 21.627 0.437 22.813 0 24 C-0.983 23.744 -1.962 23.47 -2.938 23.188 C-3.483 23.037 -4.028 22.886 -4.59 22.73 C-6 22 -6 22 -6.777 20.691 C-7.081 18.384 -6.451 16.917 -5.625 14.75 C-4.567 11.88 -3.799 9.182 -3.5 6.125 C-3.23 3.65 -3.079 3.098 -1.438 1.062 C-1.2 0.887 -1.2 0.887 0 0 Z " fill="#221711" transform="translate(137,110)"/>
<path d="M0 0 C1.629 0.707 1.629 0.707 3.562 1.812 C4.203 2.17 4.844 2.527 5.504 2.895 C5.751 3.077 5.751 3.077 7 4 C7 4.66 7 5.32 7 6 C9 6.625 9 6.625 11 7 C9 8 9 8 7.375 7.562 C6.921 7.377 6.468 7.191 6 7 C5.67 7.66 5.34 8.32 5 9 C4.67 7.68 4.34 6.36 4 5 C3.67 6.65 3.34 8.3 3 10 C3.99 10 4.98 10 6 10 C6 12.64 6 15.28 6 18 C5.01 17.67 4.02 17.34 3 17 C3 17.66 3 18.32 3 19 C3.66 19 4.32 19 5 19 C4.34 20.32 3.68 21.64 3 23 C2.181 22.574 1.37 22.134 0.562 21.688 C0.11 21.444 -0.342 21.2 -0.809 20.949 C-2.377 19.7 -2.601 18.966 -3 17 C-3.158 15.206 -3.185 13.425 -3.188 11.625 C-3.2 11.156 -3.212 10.687 -3.225 10.203 C-3.239 6.691 -2.51 4.176 -1 1 C-0.67 0.67 -0.34 0.34 0 0 Z " fill="#F7F6F3" transform="translate(51,202)"/>
<path d="M0 0 C0.66 0.99 1.32 1.98 2 3 C2.33 2.01 2.66 1.02 3 0 C3 1.98 3 3.96 3 6 C3.681 5.423 4.361 4.845 5.062 4.25 C6.434 3.395 6.434 3.395 8 3 C10.004 3.855 11.602 4.92 13.352 6.215 C13.896 6.474 14.44 6.733 15 7 C16.633 6.086 16.633 6.086 18 5 C19.25 5.688 19.25 5.688 20 7 C19.625 8.625 19.625 8.625 19 10 C19.66 10 20.32 10 21 10 C20.524 12.104 20.017 14.089 19 16 C16.875 16.375 16.875 16.375 15 16 C15 15.34 15 14.68 15 14 C14.34 14 13.68 14 13 14 C13 14.66 13 15.32 13 16 C12.34 16 11.68 16 11 16 C10.741 14.738 10.49 13.471 10.344 12.191 C10.287 11.995 10.287 11.995 10 11 C9.34 10.67 8.68 10.34 8 10 C7.67 10.99 7.34 11.98 7 13 C5.871 12.067 4.747 11.129 3.625 10.188 C2.999 9.665 2.372 9.143 1.727 8.605 C0.14 7.13 -1.033 5.935 -2 4 C-1.125 1.812 -1.125 1.812 0 0 Z " fill="#251A13" transform="translate(195,136)"/>
<path d="M0 0 C3.049 2.806 5.803 5.819 8.375 9.062 C8.65 9.391 8.924 9.719 9.208 10.057 C10.565 11.819 11.006 12.81 10.934 15.051 C9.682 17.663 8.117 18.655 5.688 20.125 C5.296 20.376 4.905 20.628 4.502 20.887 C-2.499 25.322 -2.499 25.322 -7 25 C-7 24.34 -7 23.68 -7 23 C-6.34 22.67 -5.68 22.34 -5 22 C-5 21.34 -5 20.68 -5 20 C-3 19.375 -3 19.375 -1 19 C-1 19.66 -1 20.32 -1 21 C1.987 19.507 1.987 19.507 3 18 C2.752 16.092 2.189 14.505 1.48 12.719 C0.924 10.729 1.169 9.855 2 8 C1.34 8 0.68 8 0 8 C0 7.34 0 6.68 0 6 C-0.66 6 -1.32 6 -2 6 C-1.125 1.125 -1.125 1.125 0 0 Z " fill="#E6E4E1" transform="translate(116,214)"/>
<path d="M0 0 C1.874 0.894 2.448 1.801 3.367 3.652 C3.912 7.161 3.987 10.485 2.305 13.652 C-0.644 15.174 -3.393 15.355 -6.633 14.652 C-9.033 12.044 -9.065 8.808 -8.945 5.34 C-8.513 3.007 -7.729 1.752 -5.914 0.242 C-3.851 -0.708 -2.183 -0.413 0 0 Z " fill="#908A83" transform="translate(94.6328125,222.34765625)"/>
<path d="M0 0 C2.432 0.838 4.76 1.727 7 3 C8 5.062 8 5.062 8 7 C7.67 7.66 7.34 8.32 7 9 C7.66 9 8.32 9 9 9 C8.935 10.237 8.87 11.474 8.805 12.711 C9.057 14.375 9.738 14.937 11 16 C5.911 16.125 2.09 14.186 -2.188 11.688 C-2.698 11.392 -3.209 11.096 -3.735 10.791 C-6.926 8.861 -9.607 6.88 -12 4 C-11.67 3.34 -11.34 2.68 -11 2 C-10.769 2.3 -10.539 2.601 -10.301 2.91 C-7.76 5.873 -7.76 5.873 -5.691 6.219 C-4.206 6.042 -3.27 5.799 -2 5 C-0.989 3.413 -0.45 1.82 0 0 Z " fill="#261E19" transform="translate(57,232)"/>
<path d="M0 0 C1.777 -0.301 1.777 -0.301 3.938 -0.312 C4.293 -0.321 4.293 -0.321 6.09 -0.363 C8 0 8 0 9.254 1.52 C9.5 2.008 9.746 2.497 10 3 C9.67 3.165 9.67 3.165 8 4 C8.33 4.66 8.66 5.32 9 6 C8.688 8.125 8.688 8.125 8 10 C7.34 10 6.68 10 6 10 C6.66 11.65 7.32 13.3 8 15 C6.02 15 4.04 15 2 15 C2 17 2 17 3 18.125 C3.165 18.269 3.165 18.269 4 19 C3.34 19 2.68 19 2 19 C1.67 19.66 1.34 20.32 1 21 C-1.437 17.244 -1.267 13.756 -1.188 9.375 C-1.187 8.694 -1.186 8.014 -1.186 7.312 C-1.141 2.282 -1.141 2.282 0 0 Z " fill="#1A110B" transform="translate(64,36)"/>
<path d="M0 0 C1.559 0.445 1.559 0.445 3 1 C2.831 1.229 2.831 1.229 1.977 2.391 C-2.453 8.485 -2.453 8.485 -4 12 C-4 11.34 -4 10.68 -4 10 C-8.677 10.615 -8.677 10.615 -10.312 12.562 C-10.539 13.037 -10.766 13.511 -11 14 C-11.66 13.67 -12.32 13.34 -13 13 C-13.202 22.267 -13.202 22.267 -12 25 C-11.515 25.124 -11.031 25.248 -10.531 25.375 C-9 26 -9 26 -8.27 27.629 C-8.119 28.267 -7.968 28.905 -7.812 29.562 C-7.654 30.203 -7.495 30.844 -7.332 31.504 C-7.277 31.751 -7.277 31.751 -7 33 C-7.99 32.67 -8.98 32.34 -10 32 C-10.33 32.66 -10.66 33.32 -11 34 C-11.489 33.277 -11.966 32.546 -12.438 31.812 C-12.571 31.609 -12.571 31.609 -13.246 30.582 C-16.14 24.51 -16.229 15.297 -14.105 8.996 C-13.189 6.604 -12.137 4.295 -11 2 C-10.704 2.655 -10.407 3.31 -10.102 3.984 C-9.92 4.317 -9.92 4.317 -9 6 C-7.375 6.25 -7.375 6.25 -6 6 C-6.041 5.763 -6.041 5.763 -6.25 4.562 C-6.168 4.047 -6.085 3.531 -6 3 C-4.125 2.438 -4.125 2.438 -2 2 C-1.649 1.629 -1.299 1.257 -0.938 0.875 C-0.628 0.586 -0.319 0.298 0 0 Z " fill="#251A14" transform="translate(52,196)"/>
<path d="M0 0 C1.685 -0.205 3.297 -0.066 5 0 C4.885 1.751 4.759 3.5 4.625 5.25 C4.61 5.496 4.61 5.496 4.531 6.738 C4.328 9.274 4.082 10.846 2.863 13.137 C2 15 2 15 2.566 16.816 C2.895 17.393 3.224 17.969 3.562 18.562 C4.449 20.379 4.449 20.379 5 22 C3.875 24 3.875 24 2 25 C0.312 24.812 0.312 24.812 -1 24 C-1 23.34 -1 22.68 -1 22 C-0.34 21.67 0.32 21.34 1 21 C0.717 20.184 0.423 19.373 0.125 18.562 C0.044 18.336 0.044 18.336 -0.367 17.191 C-1 16 -1 16 -3 15 C-3.33 15.66 -3.66 16.32 -4 17 C-4.942 13.825 -5.124 11.021 -5.062 7.75 C-5.058 7.291 -5.053 6.832 -5.049 6.359 C-5.037 5.24 -5.019 4.12 -5 3 C-4.523 3.031 -4.046 3.062 -3.555 3.094 C-3.042 3.063 -2.529 3.032 -2 3 C-1.711 2.505 -1.422 2.01 -1.125 1.5 C-0.754 1.005 -0.383 0.51 0 0 Z " fill="#1C1009" transform="translate(43,206)"/>
<path d="M0 0 C0.557 0.351 1.114 0.701 1.688 1.062 C1.938 2.625 1.938 2.625 1.688 4.062 C2.347 4.062 3.007 4.062 3.688 4.062 C4.018 3.403 4.347 2.743 4.688 2.062 C5.615 3.691 6.347 5.211 6.688 7.062 C5.986 8.907 5.155 9.648 3.688 11.062 C3.028 11.062 2.368 11.062 1.688 11.062 C1.055 12.156 1.055 12.156 0.562 13.562 C0.395 14.027 0.227 14.491 0.055 14.969 C-0.066 15.33 -0.188 15.691 -0.312 16.062 C-1.492 15.16 -2.654 14.243 -3.812 13.312 C-4.146 13.06 -4.48 12.807 -4.824 12.547 C-6.568 11.123 -7.269 10.304 -7.672 8.066 C-6.962 4.108 -4.183 0.113 0 0 Z " fill="#B1AEA7" transform="translate(206.3125,124.9375)"/>
<path d="M0 0 C2.921 2.813 5.639 5.664 8.105 8.887 C9.005 10.007 9.967 11.003 11 12 C10.355 12.03 9.711 12.059 9.047 12.09 C8.371 12.39 7.696 12.691 7 13 C6.3 15.15 6.302 17.315 6.25 19.562 C6.22 20.178 6.191 20.794 6.16 21.428 C6.089 22.952 6.037 24.475 6 26 C5.67 26 5.34 26 5 26 C5.009 25.443 5.018 24.886 5.027 24.312 C4.801 18.498 3.612 15.7 -0.561 11.74 C-2.319 10.032 -2.986 9.34 -3.09 6.832 C-3.06 6.227 -3.031 5.623 -3 5 C-3.66 4.67 -4.32 4.34 -5 4 C-4.67 3.01 -4.34 2.02 -4 1 C-4 1.66 -4 2.32 -4 3 C-2 2.625 -2 2.625 0 2 C0 1.34 0 0.68 0 0 Z " fill="#231814" transform="translate(135,196)"/>
<path d="M0 0 C4.125 0.354 6.12 1.559 8.93 4.59 C10.478 6.63 11.234 8.563 12 11 C11.567 10.814 11.134 10.629 10.688 10.438 C8.693 9.92 7.9 10.339 6 11 C5.34 10.67 4.68 10.34 4 10 C4.33 11.32 4.66 12.64 5 14 C4.34 13.67 3.68 13.34 3 13 C3 12.34 3 11.68 3 11 C2.34 11 1.68 11 1 11 C0.062 13 0.062 13 -0.434 14.402 C-0.827 15.512 -1.26 16.609 -1.723 17.691 C-4.192 23.635 -5.102 29.658 -6 36 C-6.33 36 -6.66 36 -7 36 C-7.674 26.327 -5.96 18.48 -0.688 10.25 C1.287 7.077 1.148 4.875 0.359 1.285 C0.241 0.861 0.122 0.437 0 0 Z " fill="#4B4640" transform="translate(92,11)"/>
<path d="M0 0 C1.877 3.183 2.29 5.524 2.188 9.188 C2.187 9.638 2.186 10.089 2.186 10.553 C2.141 13.859 2.141 13.859 1 15 C-2.464 15.421 -6.218 15.785 -9.473 14.352 C-10.438 13.438 -10.438 13.438 -11.027 12.34 C-10.97 9.542 -8.636 7.588 -6.773 5.684 C-4.617 3.636 -2.422 1.726 0 0 Z " fill="#ABA7A4" transform="translate(62,190)"/>
<path d="M0 0 C1.457 0.371 1.457 0.371 3 1 C3.688 3.062 3.688 3.062 4 5 C3.34 5 2.68 5 2 5 C3.322 6.416 4.218 7.109 6 8 C6.206 9.691 6.279 11.186 6.25 12.875 C6.258 13.322 6.265 13.77 6.273 14.23 C6.257 17.068 5.971 18.911 4 21 C3.01 21.33 2.02 21.66 1 22 C0.34 20.02 -0.32 18.04 -1 16 C-1.66 17.32 -2.32 18.64 -3 20 C-3 14.06 -3 8.12 -3 2 C-2.67 2.165 -2.67 2.165 -1 3 C-0.851 4.744 -0.813 6.325 -0.875 8.062 C-0.884 8.535 -0.893 9.007 -0.902 9.494 C-0.926 10.663 -0.962 11.832 -1 13 C0.143 10.29 0.116 7.701 0.062 4.812 C0.058 4.349 0.053 3.886 0.049 3.408 C0.037 2.272 0.019 1.136 0 0 Z " fill="#170D08" transform="translate(138,96)"/>
<path d="M0 0 C7.853 15.705 7.853 15.705 6 24 C5.67 23.34 5.34 22.68 5 22 C4.34 22 3.68 22 3 22 C3 26.62 3 31.24 3 36 C2.01 36 1.02 36 0 36 C0 24.12 0 12.24 0 0 Z " fill="#B4B1AA" transform="translate(227,41)"/>
<path d="M0 0 C0.33 0 0.66 0 1 0 C0.997 0.345 0.997 0.345 0.984 2.092 C0.966 4.684 0.954 7.277 0.945 9.869 C0.94 10.986 0.933 12.102 0.925 13.218 C0.817 27.298 0.817 27.298 2 31 C2.343 31.327 2.686 31.654 3.039 31.99 C4 33 4 33 4 36 C3.01 36.165 3.01 36.165 -2 37 C-2.051 32.213 -2.086 27.426 -2.11 22.638 C-2.12 21.01 -2.134 19.381 -2.151 17.753 C-2.175 15.412 -2.186 13.071 -2.195 10.73 C-2.206 10.002 -2.216 9.274 -2.227 8.524 C-2.227 7.843 -2.227 7.163 -2.227 6.462 C-2.231 5.864 -2.236 5.267 -2.241 4.652 C-1.95 2.654 -1.268 1.553 0 0 Z " fill="#AFAAA4" transform="translate(99,116)"/>
<path d="M0 0 C1.953 0.188 1.953 0.188 4 1 C4.516 2.829 4.697 4.126 4.75 5.988 C4.776 6.488 4.802 6.987 4.829 7.502 C4.879 8.562 4.918 9.622 4.949 10.682 C5 12.298 5.093 13.908 5.191 15.521 C5.234 16.552 5.275 17.583 5.312 18.613 C5.342 19.093 5.372 19.572 5.403 20.066 C5.437 22.136 5.401 23.467 4.131 25.156 C3.057 26.217 3.057 26.217 1.984 27.127 C0.507 28.437 -0.279 30.015 -1.188 31.75 C-1.766 32.847 -2.363 33.936 -3 35 C-3.33 35 -3.66 35 -4 35 C-4.636 29.912 -2.429 26.371 0 22 C-0.66 21.67 -1.32 21.34 -2 21 C-1.526 20.814 -1.051 20.629 -0.562 20.438 C1.918 18.155 1.749 15.243 2 12 C1.34 12 0.68 12 0 12 C0.33 10.35 0.66 8.7 1 7 C0.34 7 -0.32 7 -1 7 C-0.67 4.69 -0.34 2.38 0 0 Z " fill="#B6B3AD" transform="translate(226,80)"/>
<path d="M0 0 C0.99 0.33 1.98 0.66 3 1 C2.34 2.32 1.68 3.64 1 5 C1.495 5.124 1.99 5.248 2.5 5.375 C2.995 5.581 3.49 5.787 4 6 C4 6.66 4 7.32 4 8 C5.5 8.625 5.5 8.625 7 9 C5.116 10.044 3.217 11.056 1.312 12.062 C0.782 12.357 0.252 12.652 -0.295 12.955 C-2.975 14.353 -4.856 15.291 -7.895 14.684 C-8.242 14.571 -8.242 14.571 -10 14 C-9.691 12.574 -9.691 12.574 -9 11 C-7.59 10.27 -7.59 10.27 -5.938 9.812 C-5.39 9.654 -4.842 9.495 -4.277 9.332 C-3.856 9.222 -3.434 9.113 -3 9 C-3.99 9 -4.98 9 -6 9 C-5.918 8.526 -5.835 8.051 -5.75 7.562 C-5.832 7.047 -5.915 6.531 -6 6 C-8.016 5.402 -8.016 5.402 -10 5 C-9.639 4.903 -9.639 4.903 -7.812 4.414 C-6.875 4.152 -5.937 3.888 -5 3.625 C-4.523 3.499 -4.046 3.372 -3.555 3.242 C-2.188 2.852 -2.188 2.852 0 2 C0 1.34 0 0.68 0 0 Z " fill="#241A17" transform="translate(115,67)"/>
<path d="M0 0 C3.714 5.04 3.714 5.04 4 8 C2.972 9.514 1.733 10.418 0 11 C-0.66 10.67 -1.32 10.34 -2 10 C-1.67 10.99 -1.34 11.98 -1 13 C-1.66 13.33 -1.66 13.33 -5 15 C-5.829 11.955 -6.544 9.248 -5.246 6.27 C-3.696 3.954 -2.005 1.933 0 0 Z M8.543 0.898 C10.077 1.168 11.521 1.516 13 2 C12.212 2.816 11.419 3.627 10.625 4.438 C10.184 4.89 9.743 5.342 9.289 5.809 C8 7 8 7 6 8 C4.812 7.23 4.812 7.23 4 6 C4.488 3.417 5.777 1.08 8.543 0.898 Z " fill="#20140E" transform="translate(48,189)"/>
<path d="M0 0 C0.66 0 1.32 0 2 0 C0.493 3.531 -1.568 5.861 -4.281 8.547 C-4.695 8.963 -5.11 9.379 -5.536 9.808 C-6.408 10.681 -7.282 11.551 -8.159 12.419 C-9.503 13.753 -10.836 15.096 -12.168 16.441 C-13.018 17.29 -13.868 18.137 -14.719 18.984 C-15.118 19.387 -15.517 19.79 -15.928 20.206 C-16.302 20.573 -16.675 20.941 -17.061 21.319 C-17.388 21.645 -17.715 21.97 -18.052 22.306 C-19 23 -19 23 -21 23 C-20.67 21.35 -20.34 19.7 -20 18 C-20.66 18 -21.32 18 -22 18 C-22 17.34 -22 16.68 -22 16 C-22.66 15.67 -23.32 15.34 -24 15 C-23.01 14.01 -22.02 13.02 -21 12 C-19.68 13.32 -18.36 14.64 -17 16 C-16.83 15.627 -16.66 15.255 -16.484 14.871 C-15.749 13.436 -15.079 12.202 -14 11 C-11.938 11.438 -11.938 11.438 -10 12 C-8.875 10.062 -8.875 10.062 -8 8 C-7.34 8 -6.68 8 -6 8 C-6 7.34 -6 6.68 -6 6 C-5.34 6 -4.68 6 -4 6 C-4 5.34 -4 4.68 -4 4 C-3.34 4 -2.68 4 -2 4 C-2 3.34 -2 2.68 -2 2 C-1.34 2 -0.68 2 0 2 C0 1.34 0 0.68 0 0 Z " fill="#150C08" transform="translate(200,164)"/>
<path d="M0 0 C1.333 0.667 2.667 1.333 4 2 C4.315 2.129 4.315 2.129 5.906 2.781 C8.556 4.324 9.967 6.177 11.75 8.625 C12.066 9.045 12.382 9.465 12.707 9.898 C13.478 10.927 14.24 11.963 15 13 C14.67 13.165 14.67 13.165 13 14 C13.217 14.41 13.433 14.82 13.656 15.242 C13.935 15.781 14.213 16.32 14.5 16.875 C14.778 17.409 15.057 17.942 15.344 18.492 C16 20 16 20 16 22 C15.34 22 14.68 22 14 22 C13.67 22.66 13.34 23.32 13 24 C11.02 20.37 9.04 16.74 7 13 C7.66 12.67 8.32 12.34 9 12 C8.727 11.708 8.455 11.415 8.174 11.114 C6.944 9.789 5.722 8.457 4.5 7.125 C4.071 6.665 3.641 6.205 3.199 5.73 C2.793 5.286 2.387 4.841 1.969 4.383 C1.78 4.179 1.78 4.179 0.826 3.145 C0 2 0 2 0 0 Z " fill="#251B18" transform="translate(75,94)"/>
<path d="M0 0 C1.543 1.021 1.95 1.805 2.412 3.594 C3.014 9.076 3.118 14.494 3.062 20 C3.057 20.879 3.053 21.758 3.049 22.637 C3.037 24.758 3.021 26.879 3 29 C2.67 29 2.34 29 2 29 C1.67 25.04 1.34 21.08 1 17 C0.34 17 -0.32 17 -1 17 C-1.289 16.526 -1.577 16.051 -1.875 15.562 C-3.35 13.514 -4.572 13.405 -7 13 C-6.67 12.01 -6.34 11.02 -6 10 C-5.67 10.33 -5.34 10.66 -5 11 C-4.867 10.529 -4.734 10.059 -4.598 9.574 C-4.421 8.952 -4.244 8.329 -4.062 7.688 C-3.888 7.073 -3.714 6.458 -3.535 5.824 C-3.359 5.222 -3.182 4.62 -3 4 C-2.854 3.45 -2.709 2.899 -2.559 2.332 C-2 1 -2 1 0 0 Z " fill="#1B100A" transform="translate(225,39)"/>
<path d="M0 0 C3.632 2.944 4.643 9.059 5.183 13.51 C5.48 17.276 5.479 21.037 5.438 24.812 C5.435 25.385 5.432 25.958 5.429 26.548 C5.367 35.209 4.803 43.081 1 51 C0.791 51.457 0.583 51.914 0.368 52.385 C-0.877 55.065 -2.112 57.71 -4 60 C-5.652 60.23 -5.652 60.23 -7 60 C-6.613 59.357 -6.227 58.714 -5.828 58.051 C0.546 47.154 3.358 37.399 3.438 24.812 C3.441 24.582 3.441 24.582 3.456 23.414 C3.505 17.738 2.934 12.735 1.045 7.357 C0.157 4.81 -0.145 2.694 0 0 Z " fill="#55524D" transform="translate(140,84)"/>
<path d="M0 0 C1.667 1.667 3.333 3.333 5 5 C5.382 5.278 5.763 5.557 6.156 5.844 C7.541 7.741 7.207 9.874 7.125 12.125 C7.116 12.593 7.107 13.061 7.098 13.543 C7.074 14.696 7.038 15.848 7 17 C3.351 16.595 1.157 15.887 -1.34 13.117 C-2 12 -2 12 -1.938 9.812 C-1 8 -1 8 0.562 7.438 C0.8 7.365 0.8 7.365 2 7 C2.312 5.5 2.312 5.5 2 4 C1.34 3.67 0.68 3.34 0 3 C-0.125 1.438 -0.125 1.438 0 0 Z " fill="#ADA9A4" transform="translate(133,206)"/>
<path d="M0 0 C-1.525 4.211 -3.589 7.882 -5.938 11.688 C-6.285 12.268 -6.632 12.849 -6.99 13.447 C-7.161 13.726 -7.161 13.726 -8.027 15.137 C-8.181 15.388 -8.181 15.388 -8.957 16.659 C-10.135 18.173 -11.361 19.022 -13 20 C-13 19.34 -13 18.68 -13 18 C-13.66 17.67 -14.32 17.34 -15 17 C-14.75 15.625 -14.75 15.625 -14 14 C-13.34 13.711 -12.68 13.422 -12 13.125 C-10 12 -10 12 -9.445 10.871 C-8.867 8.508 -8.795 7.396 -9.938 5.188 C-10.288 4.796 -10.639 4.404 -11 4 C-10.365 3.902 -10.365 3.902 -7.191 3.414 C-6 3 -6 3 -5 1 C-3.191 0.213 -1.99 0 0 0 Z " fill="#E9E8E3" transform="translate(236,109)"/>
<path d="M0 0 C-0.299 0.113 -0.299 0.113 -1.812 0.688 C-4.563 2.029 -5.666 4.352 -7 7 C-5.68 7.66 -4.36 8.32 -3 9 C-3.688 10.008 -3.688 10.008 -5 11 C-6.766 11.089 -8.262 11.054 -10 10.875 C-10.451 10.852 -10.902 10.829 -11.367 10.805 C-12.688 10.68 -12.688 10.68 -15 10 C-16.312 7.945 -16.312 7.945 -17 6 C-15.119 4.788 -13.218 3.61 -11.312 2.438 C-10.782 2.095 -10.252 1.753 -9.705 1.4 C-6.026 -0.834 -4.121 -1.399 0 0 Z " fill="#B1ABA3" transform="translate(88,61)"/>
<path d="M0 0 C0.147 1.722 0.188 2.704 -0.752 4.185 C-0.934 4.379 -0.934 4.379 -1.852 5.363 C-2.28 5.828 -2.709 6.292 -3.151 6.771 C-3.637 7.28 -4.124 7.788 -4.625 8.312 C-4.879 8.582 -4.879 8.582 -6.166 9.948 C-8.096 11.979 -10.046 13.991 -12 16 C-12.43 16.443 -12.86 16.886 -13.303 17.343 C-16.229 20.358 -19.168 23.36 -22.12 26.349 C-23.126 27.369 -24.128 28.39 -25.129 29.413 C-26.55 30.864 -27.98 32.304 -29.414 33.742 C-29.847 34.187 -30.28 34.633 -30.726 35.091 C-31.128 35.49 -31.53 35.889 -31.944 36.3 C-32.294 36.654 -32.644 37.008 -33.005 37.373 C-33.333 37.58 -33.662 37.787 -34 38 C-34.66 37.67 -35.32 37.34 -36 37 C-35.776 36.779 -35.776 36.779 -34.642 35.658 C-32.942 33.976 -31.245 32.29 -29.549 30.604 C-28.821 29.881 -28.093 29.16 -27.364 28.439 C-23.265 24.388 -19.305 20.281 -15.55 15.909 C-12.551 12.436 -9.331 9.219 -6.062 6 C-5.468 5.41 -4.873 4.821 -4.279 4.23 C-2.855 2.818 -1.429 1.408 0 0 Z " fill="#4B4944" transform="translate(200,167)"/>
<path d="M0 0 C0.238 0.002 0.238 0.002 1.445 0.014 C1.934 0.019 2.422 0.023 2.926 0.027 C6.292 0.077 9.651 0.196 13.008 0.452 C13.802 0.51 14.596 0.568 15.414 0.628 C17.91 1.238 18.881 2.195 20.508 4.139 C10.73 6.067 1.125 5.522 -8.492 3.139 C-7.853 2.83 -7.213 2.521 -6.555 2.202 C-2.302 0.011 -2.302 0.011 0 0 Z " fill="#342D29" transform="translate(84.4921875,78.860595703125)"/>
<path d="M0 0 C0.66 0.33 1.32 0.66 2 1 C2 1.66 2 2.32 2 3 C2.66 3 3.32 3 4 3 C4.625 1.5 4.625 1.5 5 0 C5.839 0.617 6.671 1.244 7.5 1.875 C7.964 2.223 8.428 2.571 8.906 2.93 C9.267 3.283 9.628 3.636 10 4 C10 4.66 10 5.32 10 6 C9.34 6 8.68 6 8 6 C7.67 5.67 7.34 5.34 7 5 C6.876 5.495 6.752 5.99 6.625 6.5 C6.419 6.995 6.213 7.49 6 8 C5.34 8 4.68 8 4 8 C4 8.66 4 9.32 4 10 C6 10.625 6 10.625 8 11 C7 13 7 13 5.562 13.625 C3.052 14.228 1.376 13.864 -1 13 C-0.794 12.443 -0.588 11.886 -0.375 11.312 C0.127 8.218 -0.677 6.802 -2 4 C-1.34 3.67 -0.68 3.34 0 3 C0.125 1.438 0.125 1.438 0 0 Z " fill="#170D08" transform="translate(126,218)"/>
<path d="M0 0 C2.663 2.344 3.893 4.513 5.125 7.75 C5.297 8.19 5.469 8.631 5.646 9.084 C7.171 13.153 8.194 17.271 7.883 21.645 C7.921 22.092 7.96 22.539 8 23 C8.701 23.248 9.403 23.495 10.125 23.75 C10.744 24.163 11.362 24.575 12 25 C11.735 27.475 10.913 29.694 10 32 C8.063 31.875 8.063 31.875 6 31 C5.314 29.029 5.127 27.076 5 25 C4.67 25 4.34 25 4 25 C4.021 24.587 4.042 24.175 4.063 23.75 C4.695 9.426 4.695 9.426 0.875 3.418 C0 2 0 2 0 0 Z " fill="#49433C" transform="translate(104,22)"/>
<path d="M0 0 C2 1 2 1 2.875 3.125 C3.446 6.475 1.798 8.898 0.203 11.742 C-0.194 12.157 -0.591 12.572 -1 13 C-2.641 12.695 -2.641 12.695 -4 12 C-3.67 11.34 -3.34 10.68 -3 10 C-3.66 10 -4.32 10 -5 10 C-5.33 11.98 -5.66 13.96 -6 16 C-8 15 -8 15 -9 13 C-8.61 11.795 -8.61 11.795 -7.891 10.469 C-7.63 9.988 -7.37 9.507 -7.102 9.012 C-6.961 8.762 -6.961 8.762 -6.25 7.5 C-5.984 7.001 -5.719 6.502 -5.445 5.988 C-2.779 1.16 -2.779 1.16 0 0 Z " fill="#170F09" transform="translate(91,12)"/>
<path d="M0 0 C3.702 1.508 6.529 3.841 9 7 C9 7.66 9 8.32 9 9 C8.422 8.917 7.845 8.835 7.25 8.75 C4.131 9.097 2.952 10.674 1 13 C0.304 12.385 -0.382 11.757 -1.062 11.125 C-1.445 10.777 -1.828 10.429 -2.223 10.07 C-2.479 9.717 -2.736 9.364 -3 9 C-2 7 -2 7 -1 6 C-1.66 5.67 -2.32 5.34 -3 5 C-2.625 2.938 -2.625 2.938 -2 1 C-1.34 1.33 -0.68 1.66 0 2 C0 1.34 0 0.68 0 0 Z " fill="#160C08" transform="translate(60,139)"/>
<path d="M0 0 C0.632 0.009 1.263 0.018 1.914 0.027 C2.396 0.039 2.878 0.051 3.375 0.062 C3.375 0.722 3.375 1.383 3.375 2.062 C2.715 2.062 2.055 2.062 1.375 2.062 C1.032 3.393 0.699 4.727 0.375 6.062 C0.045 6.227 0.045 6.227 -1.625 7.062 C-2.25 8.625 -2.25 8.625 -2.625 10.062 C-2.625 9.403 -2.625 8.742 -2.625 8.062 C-2.893 8.372 -3.161 8.681 -3.438 9 C-4.864 10.277 -5.712 10.833 -7.625 11.062 C-9.223 9.574 -9.223 9.574 -10.625 8.062 C-9.839 6.913 -9.046 5.768 -8.25 4.625 C-7.809 3.987 -7.368 3.349 -6.914 2.691 C-4.842 0.073 -3.173 -0.059 0 0 Z " fill="#1A130B" transform="translate(120.625,35.9375)"/>
<path d="M0 0 C3.335 0.9 5.117 3.008 7.25 5.625 C7.771 6.257 8.292 6.888 8.828 7.539 C9.021 7.78 9.021 7.78 10 9 C9.165 8.887 8.332 8.759 7.5 8.625 C7.268 8.59 7.268 8.59 6.094 8.414 C5.733 8.277 5.372 8.141 5 8 C5 7.34 5 6.68 5 6 C4.165 6.087 3.332 6.195 2.5 6.312 C2.036 6.371 1.572 6.429 1.094 6.488 C0.913 6.573 0.913 6.573 0 7 C0.031 7.485 0.062 7.969 0.094 8.469 C0.078 8.721 0.078 8.721 0 10 C-1.75 10.73 -1.75 10.73 -4 11.188 C-4.743 11.346 -5.485 11.505 -6.25 11.668 C-6.827 11.778 -7.405 11.887 -8 12 C-7.389 8.402 -6.004 6.315 -3.688 3.625 C-3.392 3.245 -3.096 2.864 -2.791 2.473 C-1.887 1.414 -1.887 1.414 0 0 Z M-4 11 C-3.67 11.66 -3.34 12.32 -3 13 C-3.66 12.67 -4.32 12.34 -5 12 C-4.67 11.67 -4.34 11.34 -4 11 Z " fill="#B3ADA5" transform="translate(191,140)"/>
<path d="M0 0 C1.32 0.66 2.64 1.32 4 2 C4.33 1.34 4.66 0.68 5 0 C6.562 0.812 6.562 0.812 8 2 C7.812 3.625 7.812 3.625 7 5 C6.34 5 5.68 5 5 5 C5.66 5.66 6.32 6.32 7 7 C5.35 7.33 3.7 7.66 2 8 C2.33 8.99 2.66 9.98 3 11 C-1.965 9.495 -5.238 6.447 -9 3 C-6.327 2.88 -5.143 3.367 -3 5 C-2.01 3.35 -1.02 1.7 0 0 Z " fill="#2A221E" transform="translate(65,146)"/>
<path d="M0 0 C0.66 0 1.32 0 2 0 C2 0.66 2 1.32 2 2 C2.66 2 3.32 2 4 2 C3.959 2.474 3.917 2.949 3.875 3.438 C3.896 3.695 3.896 3.695 4 5 C4.66 5.33 5.32 5.66 6 6 C6.125 7.875 6.125 7.875 6 10 C6 10.578 6 11.155 6 11.75 C6 12.163 6 12.575 6 13 C2.175 12.469 -0.228 11.772 -3 9 C-2.75 7.312 -2.75 7.312 -2 6 C-2.66 5.67 -3.32 5.34 -4 5 C-4 5.66 -4 6.32 -4 7 C-4.66 6.67 -5.32 6.34 -6 6 C-5.25 4.438 -5.25 4.438 -4 3 C-1.875 3.312 -1.875 3.312 0 4 C0 2.68 0 1.36 0 0 Z " fill="#1C100C" transform="translate(230,30)"/>
<path d="M0 0 C2.246 1.932 2.648 3.665 3.02 6.535 C3 8 3 8 2 9.875 C-0.822 11.462 -3.837 11.827 -7 11 C-7.762 9.547 -7.762 9.547 -8 8 C-6.84 6.394 -5.801 5.9 -4 5 C-4 4.34 -4 3.68 -4 3 C-3.34 3 -2.68 3 -2 3 C-1.67 2.34 -1.34 1.68 -1 1 C-0.67 0.67 -0.34 0.34 0 0 Z " fill="#98928C" transform="translate(95,226)"/>
<path d="M0 0 C1.439 0.087 2.876 0.196 4.312 0.312 C5.113 0.371 5.914 0.429 6.738 0.488 C9.399 1.09 10.384 1.826 12 4 C12.18 5.281 12.18 5.281 11.875 6.5 C11.79 6.902 11.705 7.304 11.617 7.719 C10.753 9.513 9.446 10.655 8 12 C6.663 10.19 5.331 8.377 4 6.562 C3.618 6.046 3.237 5.53 2.844 4.998 C2.483 4.505 2.122 4.012 1.75 3.504 C1.415 3.048 1.08 2.593 0.734 2.123 C0 1 0 1 0 0 Z " fill="#EAEAE8" transform="translate(85,101)"/>
<path d="M0 0 C3.329 1.432 5.43 3.165 7.812 5.875 C7.975 6.045 7.975 6.045 8.795 6.902 C9.707 7.93 9.707 7.93 11 10 C10.699 12.258 10.699 12.258 10 14 C8.5 13.625 8.5 13.625 7 13 C7 12.34 7 11.68 7 11 C7.66 11 8.32 11 9 11 C8.67 10.34 8.34 9.68 8 9 C7.67 9.165 7.67 9.165 6 10 C5.67 10.165 5.67 10.165 4 11 C4 10.34 4 9.68 4 9 C3.34 9 2.68 9 2 9 C2 8.34 2 7.68 2 7 C0.68 7.33 -0.64 7.66 -2 8 C-1.34 5.36 -0.68 2.72 0 0 Z " fill="#241A16" transform="translate(105,189)"/>
<path d="M0 0 C5.191 3.802 10.172 7.745 15 12 C12.342 12.747 10.009 13.116 7.25 13.062 C6.636 13.053 6.023 13.044 5.391 13.035 C4.932 13.024 4.473 13.012 4 13 C4.66 11.68 5.32 10.36 6 9 C5.01 9.33 4.02 9.66 3 10 C2.438 8.625 2.438 8.625 2 7 C2.33 6.34 2.66 5.68 3 5 C2.34 5 1.68 5 1 5 C0.586 3.906 0.586 3.906 0.375 2.5 C0.3 2.036 0.225 1.572 0.148 1.094 C0.099 0.733 0.05 0.372 0 0 Z " fill="#E6E5E2" transform="translate(94,193)"/>
<path d="M0 0 C0.66 0.33 1.32 0.66 2 1 C0.567 2.463 -0.872 3.919 -2.312 5.375 C-2.717 5.787 -3.121 6.2 -3.537 6.625 C-6.741 9.855 -6.741 9.855 -8.77 10.992 C-10 12 -10 12 -10.336 14.172 C-10.355 15.031 -10.368 15.891 -10.375 16.75 C-10.604 21.106 -11.571 23.624 -14.551 26.941 C-16.309 28.226 -17.877 28.597 -20 29 C-19.578 28.622 -19.157 28.245 -18.723 27.855 C-15.534 24.651 -13.735 22.561 -13.678 17.927 C-13.681 17.456 -13.684 16.985 -13.688 16.5 C-13.654 11.867 -13.654 11.867 -12.16 9.887 C-10.034 7.877 -7.634 6.341 -5.15 4.813 C-3.498 3.645 -2.221 2.198 -0.906 0.67 C-0.756 0.559 -0.756 0.559 0 0 Z " fill="#797670" transform="translate(163,205)"/>
<path d="M0 0 C0.2 0.125 0.2 0.125 1.21 0.759 C0.931 0.954 0.651 1.15 0.363 1.352 C-2.577 3.545 -4.974 5.989 -7.352 8.759 C-7.502 8.933 -7.502 8.933 -8.261 9.817 C-8.842 10.494 -9.422 11.171 -10.002 11.848 C-11.519 13.602 -13.056 15.217 -14.79 16.759 C-15.45 16.759 -16.11 16.759 -16.79 16.759 C-17.078 17.357 -17.367 17.955 -17.665 18.571 C-19.04 21.245 -20.323 22.114 -22.79 23.759 C-22.246 19.689 -20.214 17.73 -17.422 14.958 C-16.987 14.517 -16.552 14.076 -16.103 13.623 C-15.184 12.697 -14.261 11.775 -13.334 10.857 C-11.914 9.445 -10.514 8.016 -9.114 6.585 C-8.218 5.687 -7.321 4.791 -6.422 3.895 C-6.213 3.68 -6.213 3.68 -5.153 2.592 C-2.195 -0.296 -2.195 -0.296 0 0 Z " fill="#75726E" transform="translate(223.78955078125,145.241455078125)"/>
<path d="M0 0 C0.33 0 0.66 0 1 0 C1 9.57 1 19.14 1 29 C-0.65 28.67 -2.3 28.34 -4 28 C-4.568 26.877 -4.568 26.877 -4.488 25.496 C-4.472 25.003 -4.456 24.51 -4.439 24.002 C-4.419 23.744 -4.419 23.744 -4.312 22.438 C-4.29 21.917 -4.267 21.397 -4.244 20.861 C-4.185 19.573 -4.095 18.286 -4 17 C-3.01 17.33 -2.02 17.66 -1 18 C-0.835 15.03 -0.835 15.03 0 0 Z " fill="#BBB5AD" transform="translate(89,124)"/>
<path d="M0 0 C1.574 -0.156 1.574 -0.156 3 0 C3 6 3 6 2.969 7.5 C3.002 9.108 3.219 10.604 3.5 12.188 C3.593 12.717 3.686 13.247 3.781 13.793 C3.853 14.191 3.926 14.59 4 15 C3.34 14.67 2.68 14.34 2 14 C1.875 12.438 1.875 12.438 2 11 C1.402 11.268 0.804 11.536 0.188 11.812 C-0.534 11.874 -1.256 11.936 -2 12 C-3.53 10.569 -4.354 8.981 -5 7 C-4.688 4.688 -4.688 4.688 -4 3 C-3.34 3.66 -2.68 4.32 -2 5 C-1.89 4.639 -1.781 4.278 -1.668 3.906 C-1.509 3.442 -1.351 2.978 -1.188 2.5 C-1.112 2.268 -1.112 2.268 -0.73 1.094 C-0.61 0.913 -0.61 0.913 0 0 Z " fill="#1B110C" transform="translate(52,125)"/>
<path d="M0 0 C1.367 -0.039 1.367 -0.039 2.875 0.375 C5.563 0.988 7.345 0.919 10 0 C10.061 0.41 10.121 0.82 10.184 1.242 C10.267 1.781 10.351 2.32 10.438 2.875 C10.478 3.142 10.478 3.142 10.684 4.492 C11 6 11 6 12 8 C10.112 8.772 8.698 9.264 6.732 8.52 C5.364 7.753 4.057 6.931 2.75 6.062 C2.291 5.772 1.832 5.481 1.359 5.182 C0.232 4.466 -0.885 3.734 -2 3 C-1.18 1.477 -1.18 1.477 0 0 Z " fill="#201410" transform="translate(106,58)"/>
<path d="M0 0 C0.594 5.874 0.594 5.874 -0.715 8.355 C-2.44 10.275 -3.963 11.248 -6.562 11.438 C-9 11 -9 11 -10.875 9.688 C-12 8 -12 8 -11.688 6.312 C-11.461 5.879 -11.234 5.446 -11 5 C-11 5.66 -11 6.32 -11 7 C-9.75 7.25 -9.75 7.25 -8 7 C-6.518 5.798 -5.268 4.422 -4 3 C-3.67 2.67 -3.34 2.34 -3 2 C-2.67 1.649 -2.34 1.299 -2 0.938 C-1 0 -1 0 0 0 Z " fill="#98938F" transform="translate(89,197)"/>
<path d="M0 0 C2.886 0.431 5.407 0.992 7.57 3.047 C8.883 4.984 8.883 4.984 9.57 7.047 C8.613 8.676 8.613 8.676 7.57 10.047 C7.039 9.709 6.508 9.371 5.961 9.023 C5.247 8.573 4.534 8.122 3.82 7.672 C3.124 7.231 2.428 6.79 1.711 6.336 C-0.305 5.122 -2.312 4.067 -4.43 3.047 C-3.159 1.281 -2.275 0.075 0 0 Z " fill="#291F18" transform="translate(85.4296875,182.953125)"/>
<path d="M0 0 C0.124 0.495 0.248 0.99 0.375 1.5 C0.478 1.748 0.478 1.748 1 3 C1.66 3 2.32 3 3 3 C3.625 5 3.625 5 4 7 C3.34 7 2.68 7 2 7 C2.113 7.309 2.113 7.309 2.688 8.875 C2.791 9.576 2.894 10.278 3 11 C2.013 11.686 1.012 12.352 0 13 C-0.188 15.125 -0.188 15.125 0 17 C-0.66 17 -1.32 17 -2 17 C-2 16.34 -2 15.68 -2 15 C-4 13.875 -4 13.875 -6 13 C-5.825 12.656 -5.825 12.656 -4.941 10.918 C-4.482 10.008 -4.022 9.098 -3.562 8.188 C-3.332 7.736 -3.102 7.284 -2.865 6.818 C-1.738 4.581 -0.699 2.417 0 0 Z " fill="#281C17" transform="translate(240,99)"/>
<path d="M0 0 C2.465 2.619 2.168 5.189 2.07 8.574 C2.047 9.045 2.024 9.515 2 10 C1.876 9.505 1.752 9.01 1.625 8.5 C1.419 8.005 1.213 7.51 1 7 C0.34 7 -0.32 7 -1 7 C-0.984 7.348 -0.969 7.696 -0.952 8.054 C-0.89 9.64 -0.851 11.226 -0.812 12.812 C-0.8 13.086 -0.8 13.086 -0.736 14.471 C-0.685 17.279 -0.679 18.571 -2.406 20.883 C-4 22 -4 22 -5.688 22.062 C-7 21 -7 21 -7.188 19.586 C-7.188 18.047 -7.127 16.534 -7 15 C-6.01 15.99 -5.02 16.98 -4 18 C-4.005 17.647 -4.01 17.294 -4.016 16.93 C-4.037 15.328 -4.05 13.727 -4.062 12.125 C-4.071 11.569 -4.079 11.014 -4.088 10.441 C-4.091 9.906 -4.094 9.371 -4.098 8.82 C-4.103 8.328 -4.108 7.836 -4.114 7.329 C-4 6 -4 6 -3 4 C-2.34 4 -1.68 4 -1 4 C-0.375 2 -0.375 2 0 0 Z " fill="#A19E96" transform="translate(233,59)"/>
<path d="M0 0 C0.124 0.495 0.248 0.99 0.375 1.5 C0.581 1.995 0.787 2.49 1 3 C1.66 3 2.32 3 3 3 C3.625 1.5 3.625 1.5 4 0 C5.595 1.595 5.335 3.718 5.5 5.875 C5.72 8.698 5.944 11.343 7 14 C6.024 14.221 5.044 14.426 4.062 14.625 C3.517 14.741 2.972 14.857 2.41 14.977 C1.945 14.984 1.479 14.992 1 15 C-0.018 12.964 -0.119 12.163 -0.098 9.961 C-0.094 9.381 -0.091 8.801 -0.088 8.203 C-0.08 7.6 -0.071 6.997 -0.062 6.375 C-0.058 5.764 -0.053 5.153 -0.049 4.523 C-0.037 3.016 -0.021 1.508 0 0 Z " fill="#2B2119" transform="translate(101,34)"/>
<path d="M0 0 C4.509 0.53 7.378 2.324 11 5 C10.67 5.165 10.67 5.165 9 6 C8.686 7.565 8.491 8.983 8.375 10.562 C8.356 10.775 8.356 10.775 8.258 11.85 C8.163 12.899 8.081 13.949 8 15 C7.67 15 7.34 15 7 15 C7.009 14.529 7.018 14.059 7.027 13.574 C6.929 11.512 6.766 9.925 6 8 C4.197 6.961 2.433 6.394 0.457 5.754 C0.217 5.63 0.217 5.63 -1 5 C-1.376 2.971 -0.794 1.96 0 0 Z " fill="#EAE8E5" transform="translate(82,187)"/>
<path d="M0 0 C4.034 1.589 8.02 3.28 12 5 C11.125 7.875 11.125 7.875 10 9 C9.324 9.994 8.657 10.993 8 12 C6.654 10.762 5.324 9.511 4 8.25 C3.618 7.902 3.237 7.554 2.844 7.195 C0.056 4.507 0.056 4.507 -0.25 1.734 C-0.167 1.162 -0.085 0.59 0 0 Z " fill="#DCDAD7" transform="translate(63,75)"/>
<path d="M0 0 C0.66 0.33 1.32 0.66 2 1 C0.876 2.771 -0.25 4.542 -1.375 6.312 C-1.692 6.812 -2.009 7.312 -2.336 7.826 C-2.95 8.793 -3.567 9.758 -4.187 10.721 C-4.844 11.754 -5.477 12.803 -6.102 13.855 C-6.25 14.044 -6.25 14.044 -7 15 C-7.66 15 -8.32 15 -9 15 C-9.414 16.139 -9.828 17.278 -10.238 18.418 C-11.218 20.452 -12.508 22.144 -13.938 23.875 C-14.19 24.183 -14.19 24.183 -15.465 25.742 C-15.971 26.157 -16.478 26.572 -17 27 C-18.691 26.695 -18.691 26.695 -20 26 C-19.764 25.749 -19.528 25.499 -19.285 25.241 C-13.601 19.168 -8.591 12.932 -4 6 C-3.564 5.353 -3.129 4.706 -2.68 4.039 C-1.779 2.697 -0.885 1.352 0 0 Z " fill="#474440" transform="translate(243,118)"/>
<path d="M0 0 C0.99 0 1.98 0 3 0 C3 2.97 3 5.94 3 9 C0.36 8.67 -2.28 8.34 -5 8 C-5.33 9.32 -5.66 10.64 -6 12 C-6.823 8.709 -7.443 6.218 -6 3 C-3.938 1.75 -3.938 1.75 -2 1 C-1.67 2.32 -1.34 3.64 -1 5 C-0.963 4.639 -0.925 4.278 -0.887 3.906 C-0.821 3.442 -0.755 2.978 -0.688 2.5 C-0.629 2.036 -0.571 1.572 -0.512 1.094 C-0.343 0.733 -0.174 0.372 0 0 Z " fill="#ACA7A0" transform="translate(112,102)"/>
<path d="M0 0 C0.33 0 0.66 0 1 0 C1.061 0.603 1.121 1.207 1.184 1.828 C1.267 2.627 1.351 3.427 1.438 4.25 C1.519 5.039 1.6 5.828 1.684 6.641 C2.272 11.03 2.272 11.03 3 13 C3.994 13.352 4.994 13.685 6 14 C6.73 15.629 6.73 15.629 7.188 17.562 C7.346 18.203 7.505 18.844 7.668 19.504 C7.778 19.998 7.887 20.491 8 21 C7.01 20.67 6.02 20.34 5 20 C4.67 20.66 4.34 21.32 4 22 C3.511 21.277 3.034 20.546 2.562 19.812 C2.429 19.609 2.429 19.609 1.754 18.582 C-0.207 14.468 -0.133 10.146 -0.062 5.688 C-0.058 5.138 -0.053 4.588 -0.049 4.021 C-0.037 2.681 -0.019 1.34 0 0 Z " fill="#393029" transform="translate(37,208)"/>
<path d="M0 0 C0.586 1.383 0.586 1.383 1 3 C0.278 3.985 -0.453 4.967 -1.242 5.898 C-2.099 7.144 -2.29 8.014 -2.5 9.5 C-2.911 12.326 -4.167 13.848 -6 16 C-6.121 15.651 -6.242 15.301 -6.367 14.941 C-6.535 14.486 -6.702 14.031 -6.875 13.562 C-7.037 13.11 -7.2 12.658 -7.367 12.191 C-8 11 -8 11 -10 10 C-9.381 9.327 -8.755 8.662 -8.125 8 C-7.951 7.814 -7.951 7.814 -7.07 6.875 C-6 6 -6 6 -4 6 C-2.93 4.688 -2.93 4.688 -1.875 3 C-1.698 2.722 -1.698 2.722 -0.805 1.312 C-0.539 0.879 -0.274 0.446 0 0 Z " fill="#231A17" transform="translate(103,103)"/>
<path d="M0 0 C-0.138 4.566 -2.395 6.747 -5.561 9.764 C-6.367 10.517 -7.183 11.259 -8 12 C-8.66 11.01 -9.32 10.02 -10 9 C-9.01 9 -8.02 9 -7 9 C-8.514 7.37 -10.141 6.212 -12 5 C-10.377 4.162 -8.752 3.329 -7.125 2.5 C-6.895 2.381 -6.895 2.381 -5.73 1.777 C-5.286 1.552 -4.841 1.326 -4.383 1.094 C-3.974 0.884 -3.566 0.675 -3.145 0.459 C-2 0 -2 0 0 0 Z " fill="#DBD9D8" transform="translate(124,75)"/>
<path d="M0 0 C0.33 0 0.66 0 1 0 C0.969 0.402 0.969 0.402 0.812 2.438 C0.801 3.82 0.801 3.82 1 5 C2.5 5.812 2.5 5.812 4 6 C4.33 5.34 4.66 4.68 5 4 C4.34 3.67 3.68 3.34 3 3 C4.155 2.835 4.155 2.835 10 2 C9.806 3.844 9.645 5.289 9 7 C7.188 8.438 7.188 8.438 5 9 C2.098 8.033 -0.248 6.53 -2 4 C-1.25 1.812 -1.25 1.812 0 0 Z " fill="#130904" transform="translate(47,230)"/>
<path d="M0 0 C0.99 0.99 1.98 1.98 3 3 C2.67 3.165 2.67 3.165 1 4 C2.32 4.66 3.64 5.32 5 6 C-0.179 6.908 -5.187 7.125 -10.438 7.062 C-11.169 7.058 -11.901 7.053 -12.654 7.049 C-14.436 7.037 -16.218 7.021 -18 7 C-18 6.67 -18 6.34 -18 6 C-15.855 5.835 -15.855 5.835 -5 5 C-5.66 4.01 -6.32 3.02 -7 2 C-5.35 1.67 -3.7 1.34 -2 1 C-2 1.66 -2 2.32 -2 3 C-1.34 3 -0.68 3 0 3 C0 2.01 0 1.02 0 0 Z " fill="#CFCAC7" transform="translate(102,234)"/>
<path d="M0 0 C1.05 1.402 1.05 1.402 2 3 C1.207 4.57 1.207 4.57 -0.188 6.125 C-0.635 6.643 -1.082 7.161 -1.543 7.695 C-3.052 9.047 -4.111 9.393 -6 10 C-6.33 10.66 -6.66 11.32 -7 12 C-7.66 12 -8.32 12 -9 12 C-9.33 12.66 -9.66 13.32 -10 14 C-10.33 14.66 -10.66 15.32 -11 16 C-11.66 16 -12.32 16 -13 16 C-11.33 11.855 -8.409 8.968 -5.375 5.75 C-4.859 5.196 -4.344 4.641 -3.812 4.07 C-2.546 2.71 -1.275 1.353 0 0 Z " fill="#1C1009" transform="translate(191,126)"/>
<path d="M0 0 C0.955 0.477 1.909 0.956 2.859 1.441 C3.885 1.944 4.942 2.383 6 2.812 C8.615 4.365 10.513 6.334 12 9 C12.109 10.66 12.109 10.66 12 12 C7.933 11.478 6.266 9.539 3.75 6.562 C3.386 6.155 3.023 5.747 2.648 5.326 C0 2.274 0 2.274 0 0 Z " fill="#1D1513" transform="translate(75,94)"/>
<path d="M0 0 C2.35 2.857 3.691 5.325 4.688 8.875 C4.815 9.311 4.942 9.747 5.073 10.197 C5.997 13.544 6.275 16.52 6 20 C5.67 20 5.34 20 5 20 C4.592 18.164 4.245 16.353 3.938 14.5 C3.847 13.975 3.756 13.451 3.662 12.91 C3.437 11.608 3.218 10.304 3 9 C1 10 1 10 0 12 C-0.121 11.578 -0.242 11.157 -0.367 10.723 C-0.535 10.175 -0.702 9.627 -0.875 9.062 C-1.037 8.517 -1.2 7.972 -1.367 7.41 C-2 6 -2 6 -4 5 C-3.34 4.34 -2.68 3.68 -2 3 C-1.67 3.66 -1.34 4.32 -1 5 C0 4 0 4 0.062 1.938 C0.042 1.298 0.021 0.659 0 0 Z " fill="#3E3933" transform="translate(248,47)"/>
<path d="M0 0 C0.837 0.281 1.67 0.575 2.5 0.875 C2.732 0.956 2.732 0.956 3.906 1.367 C4.267 1.576 4.628 1.785 5 2 C5 2.66 5 3.32 5 4 C5.66 4.33 6.32 4.66 7 5 C6.977 6.41 6.977 6.41 6.625 8.062 C6.514 8.61 6.403 9.158 6.289 9.723 C6.194 10.144 6.098 10.566 6 11 C4.35 10.67 2.7 10.34 1 10 C1.33 8.35 1.66 6.7 2 5 C1.34 5 0.68 5 0 5 C0 3.35 0 1.7 0 0 Z " fill="#180F0A" transform="translate(64,236)"/>
<path d="M0 0 C1.334 2.794 0.713 4.835 -0.25 7.625 C-0.372 8.032 -0.495 8.44 -0.621 8.859 C-1.016 10.039 -1.016 10.039 -2 12 C-3.609 12.773 -3.609 12.773 -5 13 C-5.738 10.414 -6.382 8.088 -5.469 5.488 C-4.721 4.183 -4.068 3.063 -3 2 C-2.34 2 -1.68 2 -1 2 C-0.67 1.34 -0.34 0.68 0 0 Z " fill="#20150F" transform="translate(251,95)"/>
<path d="M0 0 C0.66 0 1.32 0 2 0 C2 0.66 2 1.32 2 2 C2.99 2 3.98 2 5 2 C5 4 5 4 3.793 5.324 C3.528 5.549 3.528 5.549 2.188 6.688 C1.665 7.145 1.143 7.603 0.605 8.074 C-1 9 -1 9 -2.656 8.742 C-4 8 -4 8 -4.688 6.438 C-4.791 5.963 -4.894 5.489 -5 5 C-4.546 4.917 -4.093 4.835 -3.625 4.75 C-1.367 3.708 -1.056 2.182 0 0 Z " fill="#B5ADA6" transform="translate(154,192)"/>
<path d="M0 0 C0 5.069 -0.99 9.809 -4 14 C-4.66 14 -5.32 14 -6 14 C-6.346 13.004 -6.679 12.004 -7 11 C-7.66 10.67 -8.32 10.34 -9 10 C-6.03 6.7 -3.06 3.4 0 0 Z " fill="#221915" transform="translate(222,130)"/>
<path d="M0 0 C2.062 0.438 2.062 0.438 4 1 C3.928 1.193 3.928 1.193 3.562 2.172 C2.477 5.217 1.748 7.719 2 11 C2.66 11 3.32 11 4 11 C4 12.32 4 13.64 4 15 C2.222 14.746 1.246 14.315 0.133 12.891 C-2 9.438 -2 9.438 -2 7 C-1.34 7 -0.68 7 0 7 C-0.084 6.578 -0.168 6.157 -0.254 5.723 C-0.356 5.175 -0.458 4.627 -0.562 4.062 C-0.667 3.517 -0.771 2.972 -0.879 2.41 C-0.919 1.945 -0.959 1.479 -1 1 C-0.67 0.67 -0.34 0.34 0 0 Z " fill="#524942" transform="translate(72,39)"/>
<path d="M0 0 C6.526 3.05 6.526 3.05 7.688 5.379 C7.938 6.75 7.938 6.75 8 9 C4.34 8.593 2.169 7.874 -0.352 5.121 C-1 4 -1 4 -0.75 1.75 C-0.502 1.173 -0.255 0.595 0 0 Z " fill="#A6A29A" transform="translate(132,214)"/>
<path d="M0 0 C1.187 1.219 2.032 2.591 3 4 C2.355 4.03 1.711 4.059 1.047 4.09 C0.371 4.39 -0.304 4.691 -1 5 C-1.7 7.15 -1.698 9.315 -1.75 11.562 C-1.78 12.178 -1.809 12.794 -1.84 13.428 C-1.911 14.952 -1.963 16.475 -2 18 C-2.33 18 -2.66 18 -3 18 C-3.225 15.189 -3.427 12.376 -3.625 9.562 C-3.689 8.76 -3.754 7.958 -3.82 7.131 C-3.872 6.367 -3.923 5.603 -3.977 4.816 C-4.029 4.109 -4.081 3.402 -4.135 2.674 C-4.091 2.122 -4.046 1.569 -4 1 C-2 0 -2 0 0 0 Z " fill="#28201B" transform="translate(143,204)"/>
<path d="M0 0 C0.66 0.33 1.32 0.66 2 1 C2.243 2.196 2.243 2.196 2.23 3.695 C2.229 4.244 2.228 4.792 2.227 5.357 C2.214 5.94 2.201 6.524 2.188 7.125 C2.181 7.713 2.175 8.301 2.168 8.907 C2.096 12.992 1.817 16.989 1 21 C0.67 21 0.34 21 0 21 C-0.409 19.497 -0.754 18.024 -1.062 16.5 C-1.153 16.071 -1.244 15.641 -1.338 15.199 C-1.563 14.134 -1.782 13.067 -2 12 C-1.34 12 -0.68 12 0 12 C0 8.04 0 4.08 0 0 Z " fill="#9C948F" transform="translate(133,99)"/>
<path d="M0 0 C2.062 0.438 2.062 0.438 4 1 C3.928 1.229 3.928 1.229 3.562 2.391 C1.989 7.591 1.989 7.591 2.062 10.375 C2.042 10.911 2.021 11.448 2 12 C0.5 12.75 0.5 12.75 -1 13 C-1.688 11.812 -1.688 11.812 -2 10 C-1.179 8.209 -0.128 6.612 1 5 C0.01 5 -0.98 5 -2 5 C-1.125 1.125 -1.125 1.125 0 0 Z " fill="#AFADA3" transform="translate(213,113)"/>
<path d="M0 0 C0 0.33 0 0.66 0 1 C-0.494 0.942 -0.987 0.884 -1.496 0.824 C-3.431 0.688 -5.096 0.614 -7 1 C-7.761 2.329 -7.81 3.287 -7.832 4.809 C-7.86 5.005 -7.86 5.005 -8 6 C-8.33 6.165 -8.33 6.165 -10 7 C-11.289 6.441 -11.289 6.441 -12.625 5.562 C-13.071 5.275 -13.517 4.988 -13.977 4.691 C-14.314 4.463 -14.652 4.235 -15 4 C-10.907 -2.226 -6.547 -1.284 0 0 Z " fill="#DEDED9" transform="translate(72,228)"/>
<path d="M0 0 C0.433 0.258 0.866 0.516 1.312 0.781 C1.735 2.501 1.45 3.995 1.312 5.781 C0.9 5.74 0.488 5.699 0.062 5.656 C-2.194 5.817 -3.725 6.698 -5.688 7.781 C-6.347 6.461 -7.007 5.141 -7.688 3.781 C-6.759 3.081 -5.819 2.397 -4.875 1.719 C-4.353 1.336 -3.831 0.953 -3.293 0.559 C-1.688 -0.219 -1.688 -0.219 0 0 Z " fill="#ABA6A1" transform="translate(130.6875,202.21875)"/>
<path d="M0 0 C0.33 0.66 0.66 1.32 1 2 C1.66 2.33 2.32 2.66 3 3 C1.453 4.832 -0.096 6.534 -2 8 C-4.25 8 -4.25 8 -6 7 C-6.824 5.574 -6.824 5.574 -7 4 C-5.566 2.832 -5.566 2.832 -3.562 1.812 C-2.904 1.468 -2.245 1.124 -1.566 0.77 C-1.049 0.516 -0.533 0.262 0 0 Z " fill="#A8A197" transform="translate(78,63)"/>
<path d="M0 0 C2.038 0.109 2.038 0.109 4 1 C4.454 2.858 4.454 2.858 4.391 5.254 C4.385 5.674 4.379 6.095 4.373 6.528 C4.351 7.874 4.301 9.217 4.25 10.562 C4.23 11.473 4.212 12.384 4.195 13.295 C4.151 15.531 4.082 17.765 4 20 C3.67 20 3.34 20 3 20 C2.67 16.04 2.34 12.08 2 8 C1.34 8 0.68 8 0 8 C-0.196 7.043 -0.381 6.085 -0.562 5.125 C-0.667 4.591 -0.771 4.058 -0.879 3.508 C-1 2 -1 2 0 0 Z " fill="#3A312B" transform="translate(224,48)"/>
<path d="M0 0 C1.637 0.914 1.637 0.914 3 2 C1.589 2.844 0.172 3.675 -1.25 4.5 C-1.646 4.738 -2.041 4.977 -2.449 5.223 C-5.074 6.729 -6.893 7.285 -10 7 C-10 6.34 -10 5.68 -10 5 C-9.34 4.67 -8.68 4.34 -8 4 C-8 3.34 -8 2.68 -8 2 C-6 1.375 -6 1.375 -4 1 C-4 1.66 -4 2.32 -4 3 C-3.402 2.464 -2.804 1.928 -2.188 1.375 C-1.168 0.461 -1.168 0.461 0 0 Z " fill="#DEDAD6" transform="translate(119,232)"/>
<path d="M0 0 C0.027 1.479 0.047 2.958 0.062 4.438 C0.074 5.261 0.086 6.085 0.098 6.934 C0 9 0 9 -1 10 C-3.029 10.316 -4.972 10.317 -7 10 C-8.875 8.5 -8.875 8.5 -10 7 C-7.509 5.755 -6.589 6.223 -4 7 C-3.938 6.608 -3.938 6.608 -3.625 4.625 C-3.197 2.466 -2.634 0 0 0 Z " fill="#A09F9A" transform="translate(64,195)"/>
<path d="M0 0 C0.99 0.33 1.98 0.66 3 1 C-0.63 4.63 -4.26 8.26 -8 12 C-8.66 11.34 -9.32 10.68 -10 10 C-9.383 9.161 -8.756 8.329 -8.125 7.5 C-7.777 7.036 -7.429 6.572 -7.07 6.094 C-6.717 5.733 -6.364 5.372 -6 5 C-5.34 5 -4.68 5 -4 5 C-3.316 3.675 -2.65 2.341 -2 1 C-1.34 0.67 -0.68 0.34 0 0 Z " fill="#B3ACA6" transform="translate(172,178)"/>
<path d="M0 0 C0 0.66 0 1.32 0 2 C-1.246 3.148 -2.489 4.2 -3.812 5.25 C-6.998 7.863 -8.779 10.044 -10.348 13.91 C-10.563 14.27 -10.778 14.629 -11 15 C-13.188 15.375 -13.188 15.375 -15 15 C-13.376 10.94 -10.582 8.284 -7.5 5.25 C-7.001 4.743 -6.502 4.237 -5.988 3.715 C-5.507 3.237 -5.027 2.758 -4.531 2.266 C-4.094 1.83 -3.656 1.395 -3.205 0.946 C-2 0 -2 0 0 0 Z " fill="#B3AEA8" transform="translate(126,86)"/>
<path d="M0 0 C0.99 0 1.98 0 3 0 C2.935 1.237 2.87 2.474 2.805 3.711 C3.057 5.375 3.738 5.937 5 7 C0.441 6.629 -2.587 6.14 -6 3 C-4.02 2.67 -2.04 2.34 0 2 C0 1.34 0 0.68 0 0 Z " fill="#3B342F" transform="translate(63,241)"/>
<path d="M0 0 C1.938 0.75 1.938 0.75 4 2 C4.625 4.125 4.625 4.125 5 6 C5.66 6 6.32 6 7 6 C7.625 8 7.625 8 8 10 C4.25 11.125 4.25 11.125 2 10 C1.621 8.73 1.621 8.73 1.438 7.188 C1.107 4.736 0.644 2.393 0 0 Z " fill="#18100D" transform="translate(88,108)"/>
</svg>
