<?xml version="1.0" encoding="UTF-8"?>
<!-- Generator: visioncortex VTracer 0.6.12 -->
<svg version="1.1" xmlns="http://www.w3.org/2000/svg" width="317" height="317">
<path d="M0 0 C2.302 1.703 3.722 3.443 5 6 C5.145 7.109 5.241 8.224 5.305 9.34 C5.346 10.016 5.386 10.692 5.427 11.389 C5.466 12.12 5.504 12.851 5.543 13.604 C5.585 14.366 5.626 15.127 5.669 15.911 C6.075 23.715 6.223 31.515 6.316 39.328 C6.337 40.839 6.358 42.351 6.38 43.862 C6.435 47.84 6.485 51.818 6.533 55.796 C6.563 58.273 6.594 60.75 6.626 63.227 C7.126 102.515 6.948 141.72 6 181 C6.665 180.979 7.331 180.958 8.016 180.937 C10.51 180.864 13.003 180.818 15.497 180.78 C16.572 180.76 17.646 180.733 18.721 180.698 C29.476 180.358 29.476 180.358 33.972 183.926 C37.829 187.958 37.311 193.274 37.261 198.538 C37.25 199.865 37.261 201.192 37.273 202.52 C37.294 212.954 37.294 212.954 35 217 C34.007 217.352 33.007 217.688 32 218 C32 218.66 32 219.32 32 220 C26.551 220.932 21.123 221.301 15.61 221.558 C14.172 221.626 12.736 221.703 11.299 221.781 C10.38 221.826 9.462 221.87 8.543 221.914 C8.329 221.926 8.329 221.926 7.249 221.986 C5.063 222.079 4.005 222.003 2 221 C2.009 221.638 2.018 222.276 2.027 222.934 C2.108 228.965 2.168 234.997 2.207 241.029 C2.228 244.13 2.256 247.23 2.302 250.331 C2.345 253.326 2.369 256.321 2.38 259.317 C2.387 260.457 2.401 261.596 2.423 262.735 C2.624 273.757 2.624 273.757 -0.818 277.887 C-4.909 281.739 -8.284 282.454 -13.84 282.398 C-14.484 282.401 -15.129 282.404 -15.793 282.407 C-17.15 282.409 -18.508 282.404 -19.865 282.391 C-21.928 282.375 -23.99 282.391 -26.053 282.41 C-27.378 282.408 -28.702 282.404 -30.027 282.398 C-30.637 282.405 -31.246 282.411 -31.874 282.417 C-36.041 282.349 -39.787 281.843 -43 279 C-46.826 273.144 -46.396 266.201 -46.293 259.5 C-46.287 258.413 -46.283 257.326 -46.28 256.239 C-46.269 253.404 -46.239 250.57 -46.206 247.736 C-46.175 244.833 -46.162 241.93 -46.146 239.027 C-46.114 233.351 -46.063 227.676 -46 222 C-46.432 221.99 -46.864 221.979 -47.309 221.969 C-51.802 221.861 -56.296 221.746 -60.789 221.628 C-62.466 221.584 -64.143 221.542 -65.82 221.503 C-68.23 221.445 -70.641 221.381 -73.051 221.316 C-73.801 221.3 -74.551 221.283 -75.324 221.266 C-76.024 221.246 -76.725 221.226 -77.447 221.205 C-78.062 221.19 -78.677 221.174 -79.311 221.158 C-81.048 220.996 -82.423 220.755 -84 220 C-84 219.34 -84 218.68 -84 218 C-84.66 218 -85.32 218 -86 218 C-88.217 214.746 -88.334 211.735 -88.371 207.879 C-88.376 207.588 -88.376 207.588 -88.398 206.116 C-88.413 204.89 -88.422 203.664 -88.426 202.437 C-88.437 200.571 -88.487 198.708 -88.537 196.842 C-88.675 186.864 -88.675 186.864 -85.723 183.715 C-81.573 180.404 -76.413 180.865 -71.391 180.902 C-70.664 180.904 -69.937 180.905 -69.188 180.907 C-66.875 180.912 -64.563 180.925 -62.25 180.938 C-60.678 180.943 -59.107 180.947 -57.535 180.951 C-53.69 180.961 -49.845 180.98 -46 181 C-46.03 180.469 -46.059 179.939 -46.09 179.392 C-46.786 166.65 -47.154 153.951 -47.134 141.188 C-47.132 138.881 -47.134 136.574 -47.136 134.268 C-47.138 130.389 -47.135 126.51 -47.13 122.631 C-47.126 118.732 -47.126 114.833 -47.13 110.934 C-47.153 92.418 -47.161 73.901 -46.673 55.39 C-46.636 54 -46.602 52.609 -46.571 51.219 C-46.129 32.297 -46.129 32.297 -41.312 24.938 C-41.056 24.529 -40.8 24.121 -40.536 23.7 C-38.637 20.763 -36.526 18.028 -34.25 15.375 C-33.956 15.032 -33.663 14.689 -33.361 14.336 C-32.516 13.398 -32.516 13.398 -31 12 C-30.34 12 -29.68 12 -29 12 C-29 11.34 -29 10.68 -29 10 C-27.229 8.436 -25.141 7.286 -23.125 6.062 C-22.536 5.704 -21.947 5.346 -21.34 4.977 C-15.378 1.465 -6.965 -3.275 0 0 Z " fill="#19100B" transform="translate(91,14)"/>
<path d="M0 0 C2.299 2.604 2.625 5.83 2.949 9.184 C4.812 8.965 4.812 8.965 6.949 8.184 C7.896 6.621 8.52 5.365 9.137 3.684 C10.889 -0.757 10.889 -0.757 11.949 -1.816 C28.361 -3.973 40.623 1.156 53.409 10.963 C55.918 12.951 58.364 15 60.762 17.121 C61.189 17.498 61.616 17.876 62.055 18.265 C62.439 18.618 62.823 18.972 63.219 19.336 C63.555 19.645 63.891 19.955 64.238 20.273 C64.949 21.184 64.949 21.184 64.949 23.184 C65.375 23.296 65.8 23.408 66.238 23.523 C68.833 24.525 69.826 26.479 71.324 28.746 C71.476 28.972 71.476 28.972 72.247 30.113 C72.864 31.032 73.478 31.954 74.087 32.879 C74.849 34.032 75.626 35.171 76.41 36.309 C80.984 43.184 83.028 49.862 83.762 57.996 C83.815 58.547 83.868 59.099 83.923 59.667 C84.149 63.002 84.086 65.433 81.949 68.184 C80.299 69.013 78.622 69.416 76.824 69.809 C75.149 70.196 73.585 70.634 71.949 71.184 C71.949 71.844 71.949 72.504 71.949 73.184 C73.56 73.679 75.121 74.068 76.762 74.434 C82.483 75.959 82.483 75.959 84.137 78.809 C86.713 86.299 83.223 95.377 79.949 102.184 C75.555 110.761 69.789 117.796 63.012 124.559 C62.677 124.894 62.342 125.229 61.998 125.574 C56.348 131.184 56.348 131.184 53.949 131.184 C53.949 131.844 53.949 132.504 53.949 133.184 C52.747 134.173 52.747 134.173 51.055 135.207 C50.435 135.587 49.815 135.966 49.176 136.358 C37.218 143.4 27.226 148.236 12.949 146.184 C11.074 145.445 11.074 145.445 9.949 144.184 C9.267 141.859 8.942 139.572 8.574 137.18 C8.368 136.521 8.162 135.862 7.949 135.184 C6.387 134.406 6.387 134.406 4.949 134.184 C4.779 134.871 4.609 135.558 4.434 136.266 C4.19 137.176 3.945 138.086 3.699 138.996 C3.59 139.448 3.48 139.9 3.367 140.365 C2.583 143.191 1.664 145.08 -0.846 146.698 C-3.248 147.666 -5.586 147.391 -8.113 147.121 C-8.689 147.064 -9.265 147.008 -9.858 146.949 C-15.698 146.266 -20.754 144.698 -26.051 142.184 C-26.653 141.9 -27.255 141.617 -27.875 141.325 C-38.328 136.261 -48.072 129.675 -55.051 120.184 C-55.051 119.524 -55.051 118.864 -55.051 118.184 C-56.05 117.849 -57.051 117.516 -58.051 117.184 C-63.38 111.872 -66.14 103.974 -69.051 97.184 C-69.247 96.731 -69.444 96.278 -69.646 95.811 C-72.063 90.053 -72.546 84.256 -71.051 78.184 C-70.391 78.184 -69.731 78.184 -69.051 78.184 C-68.937 77.711 -68.824 77.237 -68.707 76.75 C-68.49 76.233 -68.274 75.716 -68.051 75.184 C-66.482 74.674 -65.161 74.358 -63.551 74.121 C-62.007 73.88 -60.571 73.578 -59.051 73.184 C-58.886 72.854 -58.886 72.854 -58.051 71.184 C-58.654 71.158 -59.257 71.132 -59.879 71.105 C-60.279 71.077 -60.279 71.077 -62.301 70.934 C-63.09 70.887 -63.879 70.841 -64.691 70.793 C-67.726 70.009 -69.404 68.865 -71.051 66.184 C-71.614 64.159 -71.623 62.275 -71.551 60.184 C-71.539 59.614 -71.527 59.044 -71.514 58.458 C-70.995 47.076 -65.433 34.826 -58.051 26.184 C-57.391 26.184 -56.731 26.184 -56.051 26.184 C-55.59 25.253 -55.134 24.319 -54.707 23.373 C-53.421 21.041 -51.437 19.284 -49.551 17.434 C-49.147 17.022 -48.744 16.611 -48.328 16.188 C-47.938 15.799 -47.547 15.411 -47.145 15.012 C-46.791 14.66 -46.437 14.309 -46.072 13.946 C-45.051 13.184 -45.051 13.184 -43.051 13.184 C-43.051 12.524 -43.051 11.864 -43.051 11.184 C-41.693 10.086 -41.693 10.086 -39.797 8.906 C-39.107 8.475 -38.416 8.044 -37.705 7.6 C-37.523 7.488 -37.523 7.488 -36.599 6.925 C-35.512 6.26 -34.432 5.584 -33.354 4.904 C-27.192 1.094 -21.385 -2.178 -14.051 -2.629 C-13.793 -2.647 -13.793 -2.647 -12.487 -2.737 C-8.039 -2.964 -3.658 -2.842 0 0 Z M-7.238 47.434 C-7.973 47.46 -8.708 47.486 -9.466 47.512 C-10.147 47.553 -10.829 47.594 -11.531 47.637 C-12.118 47.669 -12.705 47.702 -13.309 47.735 C-15.806 48.378 -17.614 49.01 -19.051 51.184 C-19.654 54.211 -19.59 57.231 -19.547 60.305 C-19.547 61.21 -19.549 62.115 -19.551 63.021 C-19.553 64.917 -19.54 66.812 -19.517 68.707 C-19.489 71.13 -19.492 73.551 -19.504 75.973 C-19.511 77.843 -19.504 79.712 -19.491 81.581 C-19.487 82.474 -19.486 83.367 -19.49 84.259 C-19.493 85.511 -19.474 86.762 -19.455 88.013 C-19.449 88.724 -19.444 89.434 -19.438 90.166 C-18.894 92.998 -18.098 94.124 -16.051 96.184 C-13.95 96.678 -13.95 96.678 -11.503 96.669 C-11.056 96.673 -10.608 96.677 -10.147 96.681 C-8.674 96.688 -7.203 96.667 -5.73 96.645 C-4.706 96.642 -3.681 96.641 -2.657 96.642 C-0.513 96.639 1.63 96.622 3.774 96.595 C6.526 96.561 9.277 96.554 12.03 96.555 C14.143 96.555 16.257 96.544 18.371 96.529 C19.386 96.523 20.401 96.519 21.416 96.517 C22.831 96.513 24.246 96.496 25.661 96.474 C26.467 96.466 27.272 96.459 28.103 96.451 C28.712 96.363 29.321 96.275 29.949 96.184 C31.074 93.935 31.098 92.661 31.142 90.165 C31.15 89.761 31.158 89.358 31.167 88.942 C31.192 87.608 31.208 86.275 31.223 84.941 C31.225 84.713 31.225 84.713 31.239 83.558 C31.265 81.141 31.285 78.725 31.299 76.308 C31.313 74.312 31.341 72.316 31.381 70.32 C31.431 67.905 31.455 65.492 31.463 63.077 C31.469 62.159 31.484 61.241 31.508 60.324 C31.682 53.275 31.682 53.275 29.972 50.73 C27.257 48.341 24.678 47.659 21.062 47.539 C20.835 47.529 20.835 47.529 19.683 47.48 C18.209 47.423 16.737 47.396 15.262 47.371 C14.237 47.342 13.213 47.312 12.188 47.282 C5.71 47.118 -0.764 47.156 -7.238 47.434 Z " fill="#F8F8F6" transform="translate(219.05078125,100.81640625)"/>
<path d="M0 0 C2.299 2.604 2.625 5.83 2.949 9.184 C4.812 8.965 4.812 8.965 6.949 8.184 C7.896 6.621 8.52 5.365 9.137 3.684 C10.889 -0.757 10.889 -0.757 11.949 -1.816 C28.361 -3.973 40.623 1.156 53.409 10.963 C55.918 12.951 58.364 15 60.762 17.121 C61.189 17.498 61.616 17.876 62.055 18.265 C62.439 18.618 62.823 18.972 63.219 19.336 C63.555 19.645 63.891 19.955 64.238 20.273 C64.949 21.184 64.949 21.184 64.949 23.184 C65.375 23.296 65.8 23.408 66.238 23.523 C68.833 24.525 69.826 26.479 71.324 28.746 C71.476 28.972 71.476 28.972 72.247 30.113 C72.864 31.032 73.478 31.954 74.087 32.879 C74.849 34.032 75.626 35.171 76.41 36.309 C80.984 43.184 83.028 49.862 83.762 57.996 C83.815 58.547 83.868 59.099 83.923 59.667 C84.149 63.002 84.086 65.433 81.949 68.184 C80.299 69.013 78.622 69.416 76.824 69.809 C75.149 70.196 73.585 70.634 71.949 71.184 C71.949 71.844 71.949 72.504 71.949 73.184 C73.56 73.679 75.121 74.068 76.762 74.434 C82.483 75.959 82.483 75.959 84.137 78.809 C86.713 86.299 83.223 95.377 79.949 102.184 C75.555 110.761 69.789 117.796 63.012 124.559 C62.677 124.894 62.342 125.229 61.998 125.574 C56.348 131.184 56.348 131.184 53.949 131.184 C53.949 131.844 53.949 132.504 53.949 133.184 C52.747 134.173 52.747 134.173 51.055 135.207 C50.435 135.587 49.815 135.966 49.176 136.358 C37.218 143.4 27.226 148.236 12.949 146.184 C11.074 145.445 11.074 145.445 9.949 144.184 C9.267 141.859 8.942 139.572 8.574 137.18 C8.368 136.521 8.162 135.862 7.949 135.184 C6.387 134.406 6.387 134.406 4.949 134.184 C4.779 134.871 4.609 135.558 4.434 136.266 C4.19 137.176 3.945 138.086 3.699 138.996 C3.59 139.448 3.48 139.9 3.367 140.365 C2.583 143.191 1.664 145.08 -0.846 146.698 C-3.248 147.666 -5.586 147.391 -8.113 147.121 C-8.689 147.064 -9.265 147.008 -9.858 146.949 C-15.698 146.266 -20.754 144.698 -26.051 142.184 C-26.653 141.9 -27.255 141.617 -27.875 141.325 C-38.328 136.261 -48.072 129.675 -55.051 120.184 C-55.051 119.524 -55.051 118.864 -55.051 118.184 C-56.05 117.849 -57.051 117.516 -58.051 117.184 C-63.38 111.872 -66.14 103.974 -69.051 97.184 C-69.247 96.731 -69.444 96.278 -69.646 95.811 C-72.063 90.053 -72.546 84.256 -71.051 78.184 C-70.391 78.184 -69.731 78.184 -69.051 78.184 C-68.937 77.711 -68.824 77.237 -68.707 76.75 C-68.49 76.233 -68.274 75.716 -68.051 75.184 C-66.482 74.674 -65.161 74.358 -63.551 74.121 C-62.007 73.88 -60.571 73.578 -59.051 73.184 C-58.886 72.854 -58.886 72.854 -58.051 71.184 C-58.654 71.158 -59.257 71.132 -59.879 71.105 C-60.279 71.077 -60.279 71.077 -62.301 70.934 C-63.09 70.887 -63.879 70.841 -64.691 70.793 C-67.726 70.009 -69.404 68.865 -71.051 66.184 C-71.614 64.159 -71.623 62.275 -71.551 60.184 C-71.539 59.614 -71.527 59.044 -71.514 58.458 C-70.995 47.076 -65.433 34.826 -58.051 26.184 C-57.391 26.184 -56.731 26.184 -56.051 26.184 C-55.59 25.253 -55.134 24.319 -54.707 23.373 C-53.421 21.041 -51.437 19.284 -49.551 17.434 C-49.147 17.022 -48.744 16.611 -48.328 16.188 C-47.938 15.799 -47.547 15.411 -47.145 15.012 C-46.791 14.66 -46.437 14.309 -46.072 13.946 C-45.051 13.184 -45.051 13.184 -43.051 13.184 C-43.051 12.524 -43.051 11.864 -43.051 11.184 C-41.693 10.086 -41.693 10.086 -39.797 8.906 C-39.107 8.475 -38.416 8.044 -37.705 7.6 C-37.523 7.488 -37.523 7.488 -36.599 6.925 C-35.512 6.26 -34.432 5.584 -33.354 4.904 C-27.192 1.094 -21.385 -2.178 -14.051 -2.629 C-13.793 -2.647 -13.793 -2.647 -12.487 -2.737 C-8.039 -2.964 -3.658 -2.842 0 0 Z M-43.488 25.246 C-44.713 26.528 -45.89 27.843 -47.051 29.184 C-47.569 29.773 -48.087 30.362 -48.621 30.969 C-51.962 35.088 -54.442 39.542 -56.863 44.246 C-57.166 44.824 -57.468 45.401 -57.78 45.997 C-59.66 49.792 -61.504 53.858 -61.051 58.184 C-59.9 59.766 -58.514 60.376 -56.738 61.121 C-56.53 61.225 -56.53 61.225 -55.475 61.748 C-53.567 62.664 -52.184 63.184 -50.051 63.184 C-48.672 67.595 -47.96 73.363 -49.652 77.738 C-50.382 78.985 -51.119 80.081 -52.051 81.184 C-52.34 81.534 -52.628 81.885 -52.926 82.246 C-54.416 83.488 -55.806 83.824 -57.676 84.309 C-58.307 84.476 -58.939 84.644 -59.59 84.816 C-60.072 84.938 -60.554 85.059 -61.051 85.184 C-59.534 95.528 -52.987 105.55 -46.051 113.184 C-45.681 113.596 -45.311 114.008 -44.93 114.433 C-39.645 120.24 -34.28 124.883 -27.31 128.523 C-26.02 129.2 -24.751 129.908 -23.48 130.621 C-19.138 133.001 -14.662 135.253 -9.656 135.652 C-8.051 135.184 -8.051 135.184 -7.102 133.59 C-6.639 132.158 -6.208 130.715 -5.805 129.266 C-4.765 126.396 -3.413 125.267 -0.789 123.809 C3.084 122.416 6.801 122.351 10.652 123.844 C14.454 126.062 16.04 128.731 17.602 132.793 C19.231 134.474 19.784 134.469 22.07 134.59 C26.486 134.368 30.124 132.822 34.074 130.934 C34.813 130.583 35.551 130.232 36.312 129.871 C44.089 126.022 50.003 120.44 55.949 114.184 C56.651 113.486 57.354 112.789 58.059 112.094 C63.345 106.689 66.839 100.013 69.949 93.184 C70.055 92.953 70.055 92.953 70.591 91.784 C71.706 89.191 72.552 86.986 71.949 84.184 C69.789 82.621 67.813 81.88 65.281 81.133 C63.001 80.363 61.795 79.332 60.479 77.323 C59.558 75.341 59.462 73.387 59.512 71.246 C59.517 70.806 59.523 70.366 59.528 69.912 C59.688 66.503 60.478 64.459 62.879 62.074 C63.232 61.78 63.585 61.486 63.949 61.184 C64.424 60.771 64.898 60.359 65.387 59.934 C67.543 58.899 69.59 58.566 71.949 58.184 C69.194 42.032 57.933 27.715 44.949 18.184 C27.629 6.574 27.629 6.574 19.801 7.414 C17.949 8.184 17.949 8.184 17.043 9.707 C16.847 10.318 16.651 10.929 16.449 11.559 C15.575 14.262 14.585 15.977 12.189 17.612 C9.719 18.751 7.187 18.655 4.512 18.621 C3.952 18.641 3.392 18.661 2.814 18.682 C-0.989 18.677 -3.263 17.866 -6.093 15.295 C-7.415 13.761 -7.878 12.415 -8.238 10.434 C-8.594 8.574 -8.594 8.574 -9.051 7.184 C-21.865 7.184 -34.772 16.638 -43.488 25.246 Z " fill="#201510" transform="translate(219.05078125,100.81640625)"/>
<path d="M0 0 C0 56.1 0 112.2 0 170 C-9.57 170 -19.14 170 -29 170 C-29.066 152.046 -29.122 134.093 -29.153 116.139 C-29.157 114.016 -29.161 111.893 -29.165 109.771 C-29.165 109.559 -29.165 109.559 -29.167 108.49 C-29.18 101.66 -29.204 94.831 -29.231 88.001 C-29.26 80.986 -29.276 73.971 -29.282 66.955 C-29.286 63.018 -29.295 59.081 -29.317 55.144 C-29.338 51.434 -29.344 47.724 -29.339 44.014 C-29.34 42.656 -29.346 41.299 -29.358 39.941 C-29.416 32.695 -29.369 26.581 -26 20 C-25.783 19.562 -25.565 19.123 -25.342 18.671 C-20.798 10.203 -10.12 0 0 0 Z " fill="#FBFBF9" transform="translate(84,25)"/>
<path d="M0 0 C1.007 -0.002 2.014 -0.005 3.021 -0.009 C5.12 -0.013 7.218 -0.007 9.317 0.007 C11.992 0.024 14.666 0.015 17.342 -0.003 C19.417 -0.014 21.492 -0.011 23.568 -0.003 C24.554 -0.001 25.54 -0.003 26.525 -0.01 C32.594 -0.044 37.826 0.194 42.606 4.403 C43.567 5.356 44.423 6.349 45.277 7.398 C45.576 7.741 45.874 8.084 46.182 8.438 C49.034 11.811 49.583 14.371 49.674 18.727 C49.683 19.152 49.693 19.577 49.703 20.015 C49.733 21.416 49.755 22.817 49.773 24.219 C49.78 24.701 49.787 25.184 49.793 25.681 C49.826 28.239 49.85 30.798 49.87 33.356 C49.888 35.458 49.922 37.558 49.972 39.658 C50.033 42.21 50.063 44.761 50.073 47.313 C50.082 48.277 50.1 49.241 50.13 50.205 C50.289 55.68 49.778 59.772 46.739 64.437 C46.497 64.809 46.256 65.18 46.007 65.563 C43.99 68.324 41.769 69.582 38.465 70.398 C36.739 70.648 35.053 70.692 33.311 70.689 C33.067 70.692 33.067 70.692 31.83 70.709 C30.231 70.728 28.631 70.732 27.031 70.734 C25.909 70.741 24.787 70.748 23.666 70.755 C21.32 70.766 18.974 70.77 16.628 70.769 C13.634 70.769 10.641 70.796 7.647 70.831 C5.332 70.853 3.016 70.857 0.701 70.856 C-0.402 70.858 -1.506 70.867 -2.609 70.882 C-13.256 71.019 -13.256 71.019 -17.343 67.642 C-21.802 62.992 -23.133 59.318 -23.145 52.902 C-23.161 52.192 -23.178 51.481 -23.195 50.749 C-23.243 48.486 -23.264 46.224 -23.285 43.961 C-23.313 42.477 -23.343 40.993 -23.375 39.51 C-23.448 35.855 -23.485 32.202 -23.511 28.547 C-23.535 26.405 -23.584 24.265 -23.639 22.124 C-23.663 20.782 -23.687 19.44 -23.711 18.098 C-23.732 17.49 -23.752 16.882 -23.773 16.256 C-23.832 11.435 -22.647 8.663 -19.531 4.914 C-13.833 0.066 -7.075 -0.051 0 0 Z M0.277 11.648 C-0.458 11.674 -1.193 11.7 -1.95 11.727 C-2.632 11.768 -3.313 11.809 -4.016 11.852 C-4.602 11.884 -5.189 11.917 -5.794 11.95 C-8.29 12.593 -10.099 13.225 -11.535 15.398 C-12.138 18.426 -12.074 21.446 -12.031 24.52 C-12.031 25.425 -12.033 26.33 -12.036 27.236 C-12.037 29.131 -12.025 31.026 -12.002 32.922 C-11.973 35.345 -11.976 37.766 -11.989 40.188 C-11.996 42.058 -11.988 43.927 -11.976 45.796 C-11.971 46.689 -11.971 47.582 -11.975 48.474 C-11.978 49.726 -11.959 50.977 -11.939 52.228 C-11.934 52.939 -11.928 53.649 -11.923 54.381 C-11.379 57.213 -10.582 58.339 -8.535 60.398 C-6.435 60.893 -6.435 60.893 -3.988 60.884 C-3.54 60.888 -3.093 60.892 -2.632 60.896 C-1.159 60.903 0.312 60.882 1.785 60.859 C2.81 60.857 3.834 60.856 4.859 60.857 C7.003 60.853 9.146 60.837 11.29 60.81 C14.042 60.776 16.793 60.768 19.545 60.77 C21.659 60.769 23.773 60.758 25.886 60.744 C26.902 60.738 27.917 60.734 28.932 60.732 C30.347 60.728 31.761 60.71 33.176 60.689 C33.982 60.681 34.788 60.674 35.618 60.666 C36.228 60.578 36.837 60.489 37.465 60.398 C38.589 58.15 38.614 56.876 38.658 54.379 C38.666 53.976 38.674 53.572 38.682 53.157 C38.707 51.823 38.724 50.49 38.738 49.156 C38.741 48.928 38.741 48.928 38.754 47.773 C38.781 45.356 38.8 42.94 38.815 40.523 C38.828 38.526 38.856 36.531 38.897 34.535 C38.946 32.12 38.971 29.707 38.978 27.292 C38.985 26.374 39 25.456 39.024 24.538 C39.198 17.49 39.198 17.49 37.488 14.944 C34.773 12.556 32.193 11.874 28.578 11.754 C28.351 11.744 28.351 11.744 27.199 11.695 C25.725 11.638 24.252 11.611 22.777 11.586 C21.753 11.557 20.728 11.527 19.704 11.497 C13.225 11.333 6.752 11.371 0.277 11.648 Z " fill="#21140F" transform="translate(211.53515625,136.6015625)"/>
<path d="M0 0 C2.299 2.604 2.625 5.83 2.949 9.184 C4.812 8.965 4.812 8.965 6.949 8.184 C7.896 6.621 8.52 5.365 9.137 3.684 C10.889 -0.757 10.889 -0.757 11.949 -1.816 C17.335 -2.209 22.647 -1.771 27.949 -0.816 C27.199 1.246 27.199 1.246 25.949 3.184 C23.824 2.934 23.824 2.934 21.949 2.184 C21.949 2.844 21.949 3.504 21.949 4.184 C24.919 4.184 27.889 4.184 30.949 4.184 C28.949 6.184 28.949 6.184 26.824 6.309 C26.205 6.267 25.587 6.226 24.949 6.184 C24.949 6.844 24.949 7.504 24.949 8.184 C24.551 8.102 24.153 8.021 23.742 7.938 C21.95 7.724 20.687 7.669 18.949 8.184 C17.912 9.835 17.4 11.385 16.883 13.262 C15.518 16.07 13.683 17.693 10.949 19.184 C8.777 19.746 6.748 19.806 4.512 19.746 C4.225 19.741 4.225 19.741 2.774 19.715 C-1.283 19.511 -4.009 18.724 -7.098 15.961 C-8.578 13.201 -8.749 10.27 -9.051 7.184 C-23.502 11.537 -36.038 17.497 -46.051 29.184 C-46.547 29.751 -47.043 30.318 -47.555 30.902 C-50.919 35.049 -53.428 39.509 -55.863 44.246 C-56.166 44.824 -56.468 45.401 -56.779 45.996 C-58.642 49.756 -60.598 53.895 -60.051 58.184 C-58.713 59.687 -57.119 60.188 -55.238 60.809 C-50.527 62.481 -50.527 62.481 -49.291 64.304 C-47.522 68.456 -47.017 73.429 -48.621 77.703 C-49.346 78.966 -50.128 80.06 -51.051 81.184 C-51.484 81.761 -51.917 82.339 -52.363 82.934 C-54.756 84.706 -57.135 84.91 -60.051 85.184 C-59.333 90.106 -57.306 94.062 -55.047 98.455 C-52.983 102.676 -52.983 102.676 -53.371 105.586 C-53.595 106.113 -53.82 106.64 -54.051 107.184 C-53.391 107.184 -52.731 107.184 -52.051 107.184 C-52.051 107.844 -52.051 108.504 -52.051 109.184 C-52.711 109.184 -53.371 109.184 -54.051 109.184 C-54.719 110.645 -54.719 110.645 -55.238 112.559 C-55.417 113.185 -55.597 113.812 -55.781 114.457 C-56.051 116.184 -56.051 116.184 -55.051 118.184 C-58.876 117.258 -60.339 114.677 -62.333 111.448 C-64.924 106.883 -66.985 102.003 -69.051 97.184 C-69.247 96.731 -69.444 96.278 -69.646 95.811 C-72.063 90.053 -72.546 84.256 -71.051 78.184 C-70.391 78.184 -69.731 78.184 -69.051 78.184 C-68.937 77.711 -68.824 77.237 -68.707 76.75 C-68.49 76.233 -68.274 75.716 -68.051 75.184 C-66.482 74.674 -65.161 74.358 -63.551 74.121 C-62.007 73.88 -60.571 73.578 -59.051 73.184 C-58.886 72.854 -58.886 72.854 -58.051 71.184 C-58.654 71.158 -59.257 71.132 -59.879 71.105 C-60.279 71.077 -60.279 71.077 -62.301 70.934 C-63.09 70.887 -63.879 70.841 -64.691 70.793 C-67.726 70.009 -69.404 68.865 -71.051 66.184 C-71.614 64.159 -71.623 62.275 -71.551 60.184 C-71.539 59.614 -71.527 59.044 -71.514 58.458 C-70.995 47.076 -65.433 34.826 -58.051 26.184 C-57.391 26.184 -56.731 26.184 -56.051 26.184 C-55.59 25.253 -55.134 24.319 -54.707 23.373 C-53.421 21.041 -51.437 19.284 -49.551 17.434 C-49.147 17.022 -48.744 16.611 -48.328 16.188 C-47.938 15.799 -47.547 15.411 -47.145 15.012 C-46.791 14.66 -46.437 14.309 -46.072 13.946 C-45.051 13.184 -45.051 13.184 -43.051 13.184 C-43.051 12.524 -43.051 11.864 -43.051 11.184 C-41.693 10.086 -41.693 10.086 -39.797 8.906 C-39.107 8.475 -38.416 8.044 -37.705 7.6 C-37.523 7.488 -37.523 7.488 -36.599 6.925 C-35.512 6.26 -34.432 5.584 -33.354 4.904 C-27.192 1.094 -21.385 -2.178 -14.051 -2.629 C-13.793 -2.647 -13.793 -2.647 -12.487 -2.737 C-8.039 -2.964 -3.658 -2.842 0 0 Z " fill="#1A110C" transform="translate(219.05078125,100.81640625)"/>
<path d="M0 0 C0.751 0.001 1.503 0.002 2.277 0.003 C2.694 0.002 3.111 0.001 3.541 0 C4.948 -0.001 6.354 0.004 7.761 0.01 C8.766 0.01 9.771 0.01 10.776 0.009 C13.511 0.009 16.247 0.015 18.982 0.022 C21.838 0.028 24.694 0.028 27.55 0.03 C32.962 0.033 38.373 0.041 43.785 0.051 C49.945 0.062 56.104 0.068 62.264 0.073 C74.937 0.083 87.611 0.101 100.284 0.123 C100.284 6.063 100.284 12.003 100.284 18.123 C66.294 18.123 32.304 18.123 -2.716 18.123 C-2.716 0.195 -2.716 0.195 0 0 Z " fill="#FAFAF6" transform="translate(15.716019630432129,204.87695217132568)"/>
<path d="M0 0 C2.677 2.534 3.875 4.719 4.09 8.442 C4.131 9.118 4.171 9.794 4.213 10.491 C4.251 11.222 4.289 11.953 4.328 12.706 C4.37 13.467 4.412 14.228 4.455 15.012 C4.861 22.816 5.008 30.617 5.102 38.43 C5.122 39.941 5.143 41.452 5.165 42.964 C5.22 46.942 5.27 50.919 5.318 54.897 C5.348 57.374 5.379 59.851 5.411 62.328 C5.911 101.617 5.733 140.822 4.785 180.102 C4.125 180.102 3.465 180.102 2.785 180.102 C2.62 163.932 2.62 163.932 1.785 82.102 C-0.215 82.102 -0.215 82.102 -1.215 82.852 C-3.993 86.324 -4.531 89.46 -4.629 93.742 C-4.648 94.269 -4.668 94.796 -4.688 95.339 C-4.747 97.01 -4.794 98.681 -4.84 100.352 C-4.878 101.49 -4.917 102.628 -4.957 103.766 C-5.053 106.544 -5.137 109.323 -5.215 112.102 C-5.545 112.102 -5.875 112.102 -6.215 112.102 C-6.545 134.872 -6.875 157.642 -7.215 181.102 C-17.445 181.102 -27.675 181.102 -38.215 181.102 C-38.215 137.212 -38.215 93.322 -38.215 48.102 C-37.885 48.102 -37.555 48.102 -37.215 48.102 C-37.215 91.662 -37.215 135.222 -37.215 180.102 C-27.645 180.102 -18.075 180.102 -8.215 180.102 C-8.215 124.002 -8.215 67.902 -8.215 10.102 C-9.865 10.432 -11.515 10.762 -13.215 11.102 C-14.402 9.164 -14.402 9.164 -15.215 7.102 C-15.875 7.102 -16.535 7.102 -17.215 7.102 C-17.858 4.893 -18.112 3.257 -17.215 1.102 C-12.247 -1.614 -4.932 -3.647 0 0 Z " fill="#332925" transform="translate(92.21484375,14.8984375)"/>
<path d="M0 0 C3.838 2.476 3.838 2.476 4.55 4.783 C5.268 8.323 5.186 11.865 5.185 15.462 C5.187 16.799 5.206 18.134 5.225 19.471 C5.297 29.968 5.297 29.968 3 34 C2.006 34.352 1.007 34.688 0 35 C0 35.66 0 36.32 0 37 C-5.449 37.932 -10.877 38.301 -16.39 38.558 C-17.828 38.626 -19.264 38.703 -20.701 38.781 C-21.62 38.826 -22.538 38.87 -23.457 38.914 C-23.884 38.938 -24.311 38.962 -24.751 38.986 C-26.937 39.079 -27.995 39.003 -30 38 C-29.991 38.638 -29.982 39.276 -29.973 39.934 C-29.892 45.965 -29.832 51.997 -29.793 58.029 C-29.772 61.13 -29.744 64.23 -29.698 67.331 C-29.655 70.326 -29.631 73.321 -29.62 76.317 C-29.613 77.457 -29.599 78.596 -29.577 79.735 C-29.376 90.757 -29.376 90.757 -32.818 94.887 C-36.909 98.739 -40.284 99.454 -45.84 99.398 C-46.484 99.401 -47.129 99.404 -47.793 99.407 C-49.15 99.409 -50.508 99.404 -51.865 99.391 C-53.928 99.375 -55.99 99.391 -58.053 99.41 C-59.378 99.408 -60.702 99.404 -62.027 99.398 C-62.637 99.405 -63.246 99.411 -63.874 99.417 C-68.081 99.349 -71.536 98.49 -75 96 C-75.33 95.34 -75.66 94.68 -76 94 C-75.66 94.142 -75.32 94.284 -74.97 94.431 C-70.579 96.097 -66.637 96.263 -61.977 96.195 C-61.23 96.192 -60.484 96.19 -59.715 96.187 C-57.352 96.176 -54.989 96.151 -52.625 96.125 C-51.014 96.115 -49.404 96.106 -47.793 96.098 C-43.862 96.076 -39.931 96.042 -36 96 C-36 95.34 -36 94.68 -36 94 C-35.34 94 -34.68 94 -34 94 C-33.511 92.139 -33.159 90.394 -32.875 88.5 C-32.789 87.975 -32.702 87.451 -32.613 86.91 C-32.4 85.608 -32.199 84.304 -32 83 C-32.99 82.835 -32.99 82.835 -38 82 C-38.032 82.815 -38.064 83.63 -38.097 84.469 C-38.381 85.854 -38.381 85.854 -39 87 C-41.107 87.775 -43.223 87.579 -45.441 87.488 C-46.084 87.481 -46.726 87.474 -47.388 87.467 C-49.447 87.439 -51.504 87.376 -53.562 87.312 C-54.955 87.287 -56.348 87.265 -57.74 87.244 C-61.161 87.189 -64.58 87.105 -68 87 C-68.027 85.187 -68.047 83.375 -68.062 81.562 C-68.071 81.046 -68.079 80.53 -68.088 79.998 C-68.091 79.505 -68.094 79.012 -68.098 78.504 C-68.103 78.048 -68.108 77.593 -68.114 77.123 C-68 76 -68 76 -67 75 C-65.135 74.841 -63.302 74.741 -61.434 74.684 C-60.88 74.663 -60.327 74.642 -59.756 74.621 C-57.984 74.555 -56.211 74.496 -54.438 74.438 C-53.238 74.394 -52.038 74.351 -50.838 74.307 C-47.892 74.199 -44.946 74.098 -42 74 C-42 73.34 -42 72.68 -42 72 C-41.34 72 -40.68 72 -40 72 C-40 70.02 -40 68.04 -40 66 C-40.33 66.33 -40.66 66.66 -41 67 C-42.145 67.12 -42.145 67.12 -43.592 67.114 C-44.133 67.113 -44.673 67.113 -45.23 67.113 C-45.815 67.108 -46.401 67.103 -47.004 67.098 C-47.602 67.096 -48.2 67.095 -48.816 67.093 C-50.731 67.088 -52.647 67.075 -54.562 67.062 C-55.859 67.057 -57.155 67.053 -58.451 67.049 C-61.634 67.039 -64.817 67.019 -68 67 C-68 62.71 -68 58.42 -68 54 C-59.09 54 -50.18 54 -41 54 C-39.875 46.125 -39.875 46.125 -41 43 C-40.34 43 -39.68 43 -39 43 C-38.42 41.794 -38.112 40.578 -37.758 39.289 C-36.626 37.363 -35.06 36.666 -33 36 C-30.645 35.706 -28.305 35.699 -25.934 35.691 C-24.548 35.666 -23.161 35.641 -21.775 35.615 C-19.601 35.586 -17.426 35.562 -15.251 35.544 C-13.145 35.522 -11.04 35.483 -8.934 35.441 C-8.284 35.441 -7.633 35.441 -6.964 35.441 C-2.478 35.343 -2.478 35.343 -0.129 33.66 C2.163 30.291 2.159 27.339 2.168 23.379 C2.171 22.838 2.175 22.297 2.178 21.739 C2.183 20.597 2.185 19.455 2.185 18.312 C2.187 16.572 2.206 14.832 2.225 13.092 C2.228 11.979 2.23 10.867 2.23 9.754 C2.234 9.496 2.234 9.496 2.252 8.188 C2.232 4.904 1.696 2.823 0 0 Z " fill="#221913" transform="translate(123,197)"/>
<path d="M0 0 C2.6 1.808 3.315 3.448 3.875 6.562 C4.853 17.991 -2.659 31.066 -9.797 39.555 C-12.688 42.831 -15.743 45.954 -18.812 49.062 C-19.388 49.648 -19.964 50.233 -20.557 50.836 C-21.101 51.376 -21.646 51.916 -22.207 52.473 C-22.697 52.96 -23.186 53.447 -23.691 53.949 C-25 55 -25 55 -27 55 C-27 55.66 -27 56.32 -27 57 C-28.202 57.99 -28.202 57.99 -29.895 59.023 C-30.515 59.403 -31.135 59.783 -31.773 60.174 C-43.731 67.217 -53.723 72.052 -68 70 C-69.875 69.262 -69.875 69.262 -71 68 C-71.682 65.676 -72.008 63.389 -72.375 60.996 C-72.478 60.667 -72.478 60.667 -73 59 C-74.562 58.223 -74.562 58.223 -76 58 C-76.17 58.687 -76.34 59.374 -76.516 60.082 C-76.76 60.992 -77.004 61.903 -77.25 62.812 C-77.36 63.264 -77.469 63.716 -77.582 64.182 C-78.366 67.008 -79.285 68.896 -81.795 70.515 C-84.197 71.482 -86.535 71.207 -89.062 70.938 C-89.35 70.909 -89.35 70.909 -90.807 70.766 C-96.647 70.083 -101.703 68.514 -107 66 C-107.301 65.858 -107.301 65.858 -108.825 65.141 C-119.034 60.196 -132.612 52.318 -137.359 41.281 C-138.231 38.177 -138.16 36.983 -137 34 C-134.938 33.312 -134.938 33.312 -133 33 C-133 32.34 -133 31.68 -133 31 C-133.66 31 -134.32 31 -135 31 C-135.625 29 -135.625 29 -136 27 C-132.791 28.362 -131.248 29.685 -129.312 32.562 C-123.271 41.044 -116.181 47.162 -107 52 C-106.575 52.232 -106.151 52.464 -105.713 52.703 C-100.256 55.683 -95.152 57.849 -89 59 C-88.987 58.812 -88.987 58.812 -88.922 57.863 C-88.448 53.588 -87.121 50.965 -84 48 C-80.934 45.7 -77.753 45.577 -74.023 45.688 C-69.961 46.315 -67.309 48.407 -64.742 51.531 C-62 55.443 -62 55.443 -62 58 C-61.446 57.893 -60.891 57.786 -60.32 57.676 C-59.596 57.556 -58.871 57.436 -58.125 57.312 C-57.406 57.185 -56.686 57.057 -55.945 56.926 C-55.624 56.938 -55.624 56.938 -54 57 C-52.742 58.48 -52.742 58.48 -52 60 C-53.98 60.66 -55.96 61.32 -58 62 C-57.67 62.99 -57.34 63.98 -57 65 C-57.938 66.188 -57.938 66.188 -59 67 C-42.326 66.537 -28.064 55.816 -16.772 44.309 C-9.942 36.961 -5.353 28.391 -1.5 19.188 C-1.244 18.59 -0.989 17.992 -0.725 17.376 C1.477 11.758 1.927 5.782 0 0 Z " fill="#1B120E" transform="translate(300,177)"/>
<path d="M0 0 C0.825 0.33 0.825 0.33 5 2 C5 1.34 5 0.68 5 0 C5.66 0 6.32 0 7 0 C7 2.97 7 5.94 7 9 C10.827 9.049 14.654 9.086 18.481 9.11 C19.783 9.12 21.086 9.134 22.389 9.151 C24.258 9.175 26.127 9.186 27.996 9.195 C28.582 9.206 29.167 9.216 29.77 9.227 C30.04 9.227 30.04 9.227 31.408 9.227 C31.647 9.229 31.647 9.229 32.855 9.241 C33.233 9.161 33.611 9.082 34 9 C34.33 8.34 34.66 7.68 35 7 C36.125 11.75 36.125 11.75 35 14 C34.34 14 33.68 14 33 14 C33 14.66 33 15.32 33 16 C33.66 16.33 34.32 16.66 35 17 C30.545 17.165 30.545 17.165 8 18 C7.67 21.63 7.34 25.26 7 29 C15.58 29 24.16 29 33 29 C33 25.37 33 21.74 33 18 C33.33 18 33.66 18 34 18 C34 21.63 34 25.26 34 29 C34.66 29 35.32 29 36 29 C36.414 27.906 36.414 27.906 36.625 26.5 C36.687 26.087 36.687 26.087 37 24 C38.98 24.33 40.96 24.66 43 25 C43.388 32.683 43.388 32.683 41 36 C40.34 36 39.68 36 39 36 C39 36.66 39 37.32 39 38 C36.98 38.951 35.119 39.132 32.909 39.161 C32.308 39.171 31.707 39.18 31.088 39.19 C30.766 39.192 30.766 39.192 29.137 39.203 C28.467 39.209 27.798 39.215 27.108 39.22 C25.691 39.23 24.275 39.236 22.859 39.24 C20.705 39.25 18.553 39.281 16.4 39.312 C15.021 39.319 13.641 39.324 12.262 39.328 C11.624 39.34 10.986 39.353 10.329 39.366 C6.032 39.344 2.532 38.569 -1 36 C-2.022 33.956 -2.123 33.142 -2.114 30.927 C-2.113 30.307 -2.113 29.686 -2.113 29.047 C-2.108 28.379 -2.103 27.711 -2.098 27.023 C-2.097 26.681 -2.097 26.681 -2.093 24.947 C-2.088 22.756 -2.075 20.566 -2.062 18.375 C-2.057 16.891 -2.053 15.406 -2.049 13.922 C-2.038 10.281 -2.021 6.641 -2 3 C-1.34 3 -0.68 3 0 3 C0 2.01 0 1.02 0 0 Z " fill="#19100A" transform="translate(48,255)"/>
<path d="M0 0 C0.33 0 0.66 0 1 0 C1.33 22.77 1.66 45.54 2 69 C2.66 68.67 2.66 68.67 6 67 C6.33 66.835 6.33 66.835 8 66 C8.195 64.809 8.195 64.809 8.125 63.438 C8.084 62.633 8.043 61.829 8 61 C8.33 61 8.66 61 9 61 C9.966 65.662 10.143 70.163 10.129 74.914 C10.131 75.684 10.133 76.454 10.135 77.247 C10.138 79.342 10.138 81.437 10.134 83.532 C10.132 85.736 10.134 87.941 10.136 90.145 C10.138 93.846 10.135 97.547 10.13 101.248 C10.125 105.51 10.127 109.773 10.132 114.035 C10.137 117.711 10.137 121.387 10.135 125.063 C10.133 127.251 10.133 129.439 10.136 131.628 C10.14 134.071 10.135 136.514 10.129 138.957 C10.131 139.67 10.133 140.384 10.136 141.119 C10.122 144.406 10.011 147.668 9.679 150.94 C9.623 151.506 9.566 152.071 9.507 152.654 C9.423 152.876 9.423 152.876 9 154 C7.519 154.594 7.519 154.594 6 155 C5.016 156.559 5.016 156.559 4.25 158.438 C3.987 159.055 3.724 159.672 3.453 160.309 C3 162 3 162 4 164 C3.01 164.33 2.02 164.66 1 165 C0.035 130.893 -0.13 96.806 -0.072 62.686 C-0.061 55.825 -0.055 48.963 -0.05 42.101 C-0.04 28.067 -0.023 14.034 0 0 Z " fill="#180C09" transform="translate(85,30)"/>
<path d="M0 0 C0.266 0.311 0.532 0.622 0.806 0.942 C1.104 1.286 1.403 1.63 1.71 1.985 C2.006 2.345 2.302 2.704 2.607 3.075 C2.914 3.427 3.222 3.779 3.538 4.141 C6.488 7.614 7.042 10.111 7.064 14.608 C7.068 15.041 7.071 15.474 7.075 15.92 C7.084 17.345 7.086 18.77 7.087 20.196 C7.09 21.191 7.094 22.186 7.097 23.181 C7.103 25.265 7.105 27.349 7.104 29.432 C7.104 32.097 7.118 34.761 7.135 37.425 C7.146 39.479 7.148 41.534 7.148 43.589 C7.149 44.571 7.153 45.553 7.161 46.535 C7.171 47.911 7.168 49.286 7.162 50.662 C7.164 51.444 7.165 52.225 7.166 53.031 C6.885 55.5 6.283 57.125 4.919 59.2 C2.794 58.95 2.794 58.95 0.919 58.2 C1.249 56.55 1.579 54.9 1.919 53.2 C1.259 53.2 0.599 53.2 -0.081 53.2 C-0.246 53.53 -0.246 53.53 -1.081 55.2 C-1.411 55.035 -1.411 55.035 -3.081 54.2 C-3.391 52.512 -3.391 52.512 -3.476 50.294 C-3.494 49.891 -3.512 49.487 -3.531 49.072 C-3.589 47.733 -3.634 46.394 -3.678 45.055 C-3.717 44.124 -3.757 43.194 -3.797 42.263 C-3.902 39.807 -3.996 37.351 -4.087 34.895 C-4.234 30.973 -4.395 27.053 -4.559 23.132 C-4.615 21.765 -4.665 20.398 -4.714 19.031 C-4.748 18.185 -4.781 17.339 -4.815 16.493 C-4.843 15.759 -4.87 15.025 -4.898 14.268 C-5.09 12.101 -5.317 10.243 -6.081 8.2 C-8.02 7.16 -9.908 7.061 -12.083 6.994 C-12.664 6.974 -13.244 6.954 -13.842 6.934 C-14.152 6.926 -14.152 6.926 -15.718 6.883 C-16.357 6.863 -16.996 6.842 -17.655 6.82 C-19.693 6.755 -21.731 6.696 -23.768 6.637 C-25.152 6.594 -26.535 6.55 -27.919 6.506 C-31.306 6.399 -34.693 6.298 -38.081 6.2 C-38.081 5.87 -38.081 5.54 -38.081 5.2 C-36.101 5.035 -36.101 5.035 -26.081 4.2 C-27.874 4.151 -29.667 4.102 -31.514 4.051 C-33.245 3.997 -34.976 3.94 -36.707 3.882 C-37.913 3.844 -39.118 3.809 -40.324 3.778 C-42.055 3.732 -43.784 3.674 -45.514 3.614 C-45.785 3.608 -45.785 3.608 -47.156 3.579 C-48.672 3.519 -48.672 3.519 -51.081 3.2 C-51.411 2.54 -51.741 1.88 -52.081 1.2 C-52.741 1.2 -53.401 1.2 -54.081 1.2 C-54.081 0.54 -54.081 -0.12 -54.081 -0.8 C-47.761 -0.954 -41.442 -1.103 -35.122 -1.243 C-32.187 -1.309 -29.252 -1.376 -26.318 -1.448 C-23.484 -1.518 -20.651 -1.582 -17.817 -1.643 C-16.738 -1.667 -15.658 -1.693 -14.578 -1.721 C-13.063 -1.76 -11.548 -1.792 -10.033 -1.822 C-9.589 -1.835 -9.145 -1.848 -8.688 -1.861 C-5.662 -1.912 -2.511 -1.859 0 0 Z " fill="#1A100D" transform="translate(254.080810546875,140.80029296875)"/>
<path d="M0 0 C33.66 0 67.32 0 102 0 C102 5.94 102 11.88 102 18 C88.14 18 74.28 18 60 18 C60 12.39 60 6.78 60 1 C40.2 1 20.4 1 0 1 C0 0.67 0 0.34 0 0 Z " fill="#9D9992" transform="translate(14,205)"/>
<path d="M0 0 C0.33 0.99 0.66 1.98 1 3 C2.32 2.34 3.64 1.68 5 1 C5.33 1.66 5.66 2.32 6 3 C6.33 2.34 6.66 1.68 7 1 C7.66 1 8.32 1 9 1 C9.268 1.61 9.536 2.219 9.812 2.848 C11.575 6.042 14.088 6.681 17.367 7.979 C19.831 9.061 21.211 9.88 22.293 12.41 C23.521 16.301 23.882 20.649 22.43 24.52 C21.705 25.782 20.923 26.876 20 28 C19.567 28.577 19.134 29.155 18.688 29.75 C16.295 31.523 13.916 31.726 11 32 C11.718 36.923 13.745 40.879 16.004 45.271 C18.068 49.493 18.068 49.493 17.68 52.402 C17.455 52.93 17.231 53.457 17 54 C17.66 54 18.32 54 19 54 C19 54.66 19 55.32 19 56 C18.34 56 17.68 56 17 56 C16.332 57.461 16.332 57.461 15.812 59.375 C15.633 60.001 15.454 60.628 15.27 61.273 C15 63 15 63 16 65 C12.175 64.074 10.711 61.494 8.718 58.265 C6.127 53.7 4.066 48.82 2 44 C1.803 43.547 1.607 43.094 1.405 42.628 C-1.013 36.87 -1.495 31.072 0 25 C0.66 25 1.32 25 2 25 C2.113 24.527 2.227 24.054 2.344 23.566 C2.56 23.049 2.777 22.533 3 22 C4.569 21.49 5.89 21.174 7.5 20.938 C9.044 20.696 10.48 20.395 12 20 C12.33 19.34 12.66 18.68 13 18 C12.397 17.974 11.793 17.948 11.172 17.922 C10.373 17.865 9.573 17.808 8.75 17.75 C7.961 17.704 7.172 17.657 6.359 17.609 C3.767 16.94 2.509 16.254 0.741 14.288 C-0.714 11.759 -0.412 9.082 -0.25 6.25 C-0.232 5.648 -0.214 5.046 -0.195 4.426 C-0.148 2.949 -0.083 1.475 0 0 Z " fill="#201711" transform="translate(148,154)"/>
<path d="M0 0 C0.927 0.002 1.855 0.003 2.782 0.003 C4.717 0.006 6.651 0.022 8.586 0.049 C11.062 0.083 13.538 0.091 16.014 0.089 C17.925 0.09 19.837 0.101 21.748 0.115 C22.661 0.122 23.574 0.126 24.487 0.127 C25.762 0.132 27.038 0.151 28.313 0.17 C29.037 0.178 29.762 0.186 30.508 0.194 C32.646 0.491 33.752 1.136 35.43 2.461 C35.1 3.121 34.77 3.781 34.43 4.461 C33.77 4.131 33.11 3.801 32.43 3.461 C30.888 3.295 29.382 3.18 27.836 3.109 C27.606 3.098 27.606 3.098 26.444 3.038 C24.939 2.964 23.435 2.899 21.93 2.836 C21.674 2.825 21.674 2.825 20.38 2.769 C13.294 2.474 6.264 2.409 -0.82 2.773 C-1.563 2.808 -2.307 2.843 -3.072 2.878 C-3.757 2.922 -4.443 2.966 -5.148 3.012 C-5.74 3.05 -6.332 3.087 -6.942 3.126 C-8.957 3.541 -10.009 4.115 -11.57 5.461 C-11.945 7.238 -11.945 7.238 -11.943 9.404 C-11.949 10.215 -11.955 11.026 -11.962 11.862 C-11.953 12.748 -11.943 13.634 -11.934 14.52 C-11.933 15.429 -11.934 16.338 -11.935 17.247 C-11.935 19.153 -11.925 21.058 -11.906 22.964 C-11.884 25.403 -11.883 27.842 -11.89 30.281 C-11.893 32.159 -11.887 34.037 -11.877 35.915 C-11.873 36.814 -11.872 37.713 -11.873 38.612 C-11.874 39.871 -11.86 41.13 -11.845 42.388 C-11.84 43.104 -11.836 43.82 -11.831 44.557 C-11.525 46.794 -11.165 47.852 -9.57 49.461 C-7.583 49.86 -7.583 49.86 -5.121 49.893 C-4.672 49.904 -4.223 49.914 -3.76 49.924 C-2.277 49.954 -0.795 49.964 0.688 49.973 C1.716 49.99 2.744 50.008 3.773 50.027 C6.479 50.075 9.185 50.104 11.891 50.13 C14.653 50.16 17.414 50.207 20.176 50.252 C25.594 50.338 31.011 50.404 36.43 50.461 C36.76 44.521 37.09 38.581 37.43 32.461 C37.76 32.461 38.09 32.461 38.43 32.461 C38.434 32.67 38.434 32.67 38.458 33.73 C38.512 35.621 38.595 37.509 38.68 39.398 C38.694 40.058 38.708 40.717 38.723 41.396 C38.814 43.177 38.911 44.754 39.43 46.461 C41.477 47.402 41.477 47.402 43.43 47.461 C43.1 49.111 42.77 50.761 42.43 52.461 C43.42 52.791 44.41 53.121 45.43 53.461 C45.054 54.262 44.652 55.052 44.242 55.836 C44.022 56.277 43.801 56.718 43.574 57.172 C41.411 59.608 38.119 60.532 34.933 60.728 C34.047 60.746 33.161 60.753 32.276 60.751 C31.787 60.758 31.299 60.765 30.795 60.772 C29.195 60.791 27.596 60.795 25.996 60.797 C24.874 60.803 23.752 60.81 22.63 60.817 C20.284 60.829 17.939 60.833 15.593 60.832 C12.599 60.831 9.606 60.859 6.612 60.893 C4.297 60.915 1.981 60.919 -0.334 60.918 C-1.438 60.921 -2.541 60.929 -3.644 60.945 C-9.94 61.025 -14.724 61.055 -19.57 56.461 C-18.931 56.255 -18.292 56.048 -17.633 55.836 C-15.57 54.461 -15.57 54.461 -15.147 53.368 C-14.448 48.846 -14.511 44.362 -14.617 39.8 C-14.66 37.866 -14.683 35.931 -14.707 33.997 C-14.753 30.408 -14.806 26.82 -14.893 23.232 C-14.952 20.722 -14.987 18.213 -15.006 15.703 C-15.017 14.751 -15.038 13.8 -15.068 12.849 C-15.288 5.774 -15.288 5.774 -13.763 2.983 C-10.08 -0.644 -4.81 -0.082 0 0 Z " fill="#231814" transform="translate(212.5703125,146.5390625)"/>
<path d="M0 0 C14.825 -0.254 27.78 10.08 38.324 19.406 C38.751 19.784 39.178 20.161 39.618 20.55 C40.002 20.903 40.386 21.257 40.781 21.621 C41.117 21.93 41.454 22.24 41.8 22.558 C42.512 23.469 42.512 23.469 42.512 25.469 C42.724 25.525 42.724 25.525 43.801 25.809 C46.396 26.81 47.389 28.764 48.887 31.031 C49.039 31.257 49.039 31.257 49.81 32.398 C50.427 33.317 51.04 34.239 51.649 35.164 C52.411 36.317 53.188 37.456 53.973 38.594 C58.547 45.469 60.59 52.147 61.324 60.281 C61.351 60.557 61.351 60.557 61.485 61.952 C61.712 65.288 61.641 67.712 59.512 70.469 C57.905 71.301 56.272 71.702 54.512 72.094 C49.067 73.4 49.067 73.4 47.512 75.469 C47.424 72.124 47.424 72.124 48.512 70.469 C50.863 69.611 53.006 69.22 55.48 68.828 C57.512 68.469 57.512 68.469 58.512 67.469 C58.612 65.682 58.651 63.942 58.637 62.156 C58.641 61.67 58.644 61.183 58.648 60.682 C58.641 57.79 58.348 55.264 57.512 52.469 C57.223 52.819 56.934 53.17 56.637 53.531 C56.265 53.841 55.894 54.15 55.512 54.469 C55.182 54.304 55.182 54.304 53.512 53.469 C53.316 52.059 53.316 52.059 53.387 50.406 C53.405 49.858 53.423 49.311 53.441 48.746 C53.465 48.325 53.488 47.903 53.512 47.469 C53.635 47.964 53.759 48.459 53.887 48.969 C54.093 49.464 54.299 49.959 54.512 50.469 C55.172 50.469 55.832 50.469 56.512 50.469 C55.192 47.169 53.872 43.869 52.512 40.469 C51.852 41.789 51.192 43.109 50.512 44.469 C50.182 44.304 50.182 44.304 48.512 43.469 C48.223 44.129 47.934 44.789 47.637 45.469 C47.265 46.129 46.894 46.789 46.512 47.469 C45.852 47.469 45.192 47.469 44.512 47.469 C43.456 45.905 42.513 44.35 41.574 42.719 C33.177 29.011 20.968 17.55 5.355 12.695 C4.207 12.32 4.207 12.32 2.512 11.469 C2.129 9.91 2.129 9.91 2.512 8.469 C4.512 7.781 4.512 7.781 6.512 7.469 C4.202 7.139 1.892 6.809 -0.488 6.469 C-0.488 5.809 -0.488 5.149 -0.488 4.469 C0.832 4.469 2.152 4.469 3.512 4.469 C1.202 4.139 -1.108 3.809 -3.488 3.469 C-1.947 0.613 -1.947 0.613 0 0 Z " fill="#211914" transform="translate(241.48828125,98.53125)"/>
<path d="M0 0 C9.432 0.107 18.863 0.22 28.295 0.339 C32.675 0.395 37.054 0.448 41.434 0.497 C45.661 0.545 49.889 0.597 54.116 0.653 C55.728 0.673 57.34 0.692 58.952 0.709 C61.212 0.733 63.471 0.763 65.731 0.795 C66.064 0.798 66.064 0.798 67.745 0.812 C71.273 0.868 74.605 0.984 78 2 C78 2.66 78 3.32 78 4 C55.89 4.33 33.78 4.66 11 5 C11 10.61 11 16.22 11 22 C24.86 22.33 38.72 22.66 53 23 C53 23.33 53 23.66 53 24 C52.766 24.005 52.766 24.005 51.579 24.028 C49.447 24.082 47.318 24.166 45.188 24.25 C44.45 24.264 43.712 24.278 42.951 24.293 C37.551 24.537 37.551 24.537 35.913 25.913 C35.221 26.906 34.606 27.952 34 29 C32.272 29.759 30.909 29.794 29 30 C29.33 30.66 29.66 31.32 30 32 C26.495 32.025 22.989 32.043 19.484 32.055 C18.292 32.06 17.1 32.067 15.907 32.075 C14.192 32.088 12.477 32.093 10.762 32.098 C10.23 32.103 9.699 32.108 9.152 32.113 C3.894 32.114 3.894 32.114 2 31 C-0.207 27.581 -0.268 24.701 -0.195 20.703 C-0.192 20.109 -0.19 19.516 -0.187 18.904 C-0.176 17.019 -0.151 15.135 -0.125 13.25 C-0.115 11.967 -0.106 10.685 -0.098 9.402 C-0.076 6.268 -0.041 3.134 0 0 Z " fill="#1A110B" transform="translate(3,201)"/>
<path d="M0 0 C0.33 0.66 0.66 1.32 1 2 C1.66 2.33 2.32 2.66 3 3 C2.34 3 1.68 3 1 3 C1 3.66 1 4.32 1 5 C1.66 5 2.32 5 3 5 C3.633 6.094 3.633 6.094 4.125 7.5 C4.209 7.732 4.209 7.732 4.633 8.906 C4.754 9.267 4.875 9.628 5 10 C4.432 10.291 3.863 10.583 3.277 10.883 C-5.096 15.279 -11.747 20.261 -16 29 C-16.472 30.674 -16.731 32.279 -17 34 C-17.66 34 -18.32 34 -19 34 C-19.04 34.51 -19.079 35.019 -19.12 35.545 C-19.31 37.844 -19.53 40.14 -19.75 42.438 C-19.812 43.24 -19.874 44.042 -19.938 44.869 C-20.015 45.633 -20.092 46.397 -20.172 47.184 C-20.203 47.537 -20.203 47.537 -20.362 49.326 C-20.573 49.878 -20.783 50.431 -21 51 C-22.927 51.676 -22.927 51.676 -25 52 C-25.33 52.165 -25.33 52.165 -27 53 C-27.66 52.67 -28.32 52.34 -29 52 C-29.259 50.561 -29.259 50.561 -29.266 48.719 C-29.27 48.046 -29.274 47.373 -29.279 46.68 C-29.269 45.961 -29.26 45.241 -29.25 44.5 C-29.242 43.769 -29.234 43.038 -29.225 42.285 C-28.973 30.094 -25.133 21.566 -17.25 12.375 C-16.956 12.032 -16.663 11.689 -16.361 11.336 C-15.516 10.398 -15.516 10.398 -14 9 C-13.34 9 -12.68 9 -12 9 C-12 8.34 -12 7.68 -12 7 C-10.898 6.13 -10.898 6.13 -9.375 5.273 C-8.834 4.964 -8.292 4.655 -7.734 4.336 C-7.162 4.019 -6.59 3.702 -6 3.375 C-5.428 3.05 -4.855 2.725 -4.266 2.391 C-2.847 1.587 -1.426 0.791 0 0 Z " fill="#1E1410" transform="translate(74,17)"/>
<path d="M0 0 C2.6 1.808 3.315 3.448 3.875 6.562 C4.853 17.991 -2.659 31.066 -9.797 39.555 C-12.688 42.831 -15.743 45.954 -18.812 49.062 C-19.388 49.648 -19.964 50.233 -20.557 50.836 C-21.101 51.376 -21.646 51.916 -22.207 52.473 C-22.697 52.96 -23.186 53.447 -23.691 53.949 C-25 55 -25 55 -27 55 C-27 55.66 -27 56.32 -27 57 C-28.202 57.99 -28.202 57.99 -29.895 59.023 C-30.515 59.403 -31.135 59.783 -31.773 60.174 C-43.731 67.217 -53.723 72.052 -68 70 C-69.875 69.262 -69.875 69.262 -71 68 C-71.682 65.676 -72.008 63.389 -72.375 60.996 C-72.581 60.337 -72.787 59.679 -73 59 C-74.562 58.223 -74.562 58.223 -76 58 C-76.17 58.687 -76.34 59.374 -76.516 60.082 C-76.76 60.992 -77.004 61.903 -77.25 62.812 C-77.36 63.264 -77.469 63.716 -77.582 64.182 C-78.36 66.985 -79.271 68.91 -81.76 70.524 C-84.319 71.507 -86.893 71.11 -89.562 70.812 C-90.139 70.768 -90.716 70.724 -91.311 70.678 C-94.494 70.38 -96.377 69.933 -99 68 C-98.531 68.021 -98.062 68.042 -97.579 68.063 C-95.449 68.147 -93.319 68.199 -91.188 68.25 C-90.45 68.284 -89.712 68.317 -88.951 68.352 C-83.666 68.447 -83.666 68.447 -81.841 67.221 C-80.155 65.135 -79.591 62.932 -79.375 60.312 C-79.085 57.085 -79.085 57.085 -78 56 C-76.809 55.902 -76.809 55.902 -75.438 55.938 C-74.633 55.958 -73.829 55.979 -73 56 C-73.495 55.711 -73.99 55.423 -74.5 55.125 C-74.995 54.754 -75.49 54.382 -76 54 C-76 53.34 -76 52.68 -76 52 C-74.774 51.768 -73.546 51.541 -72.312 51.352 C-70.311 50.816 -69.288 49.559 -68 48 C-62.444 54.15 -62.444 54.15 -62 58 C-61.446 57.893 -60.891 57.786 -60.32 57.676 C-59.596 57.556 -58.871 57.436 -58.125 57.312 C-57.406 57.185 -56.686 57.057 -55.945 56.926 C-55.624 56.938 -55.624 56.938 -54 57 C-52.742 58.48 -52.742 58.48 -52 60 C-53.98 60.66 -55.96 61.32 -58 62 C-57.67 62.99 -57.34 63.98 -57 65 C-57.938 66.188 -57.938 66.188 -59 67 C-42.326 66.537 -28.064 55.816 -16.772 44.309 C-9.942 36.961 -5.353 28.391 -1.5 19.188 C-1.244 18.59 -0.989 17.992 -0.725 17.376 C1.477 11.758 1.927 5.782 0 0 Z " fill="#211510" transform="translate(300,177)"/>
<path d="M0 0 C9.687 -0.03 19.375 -0.051 29.062 -0.062 C29.772 -0.063 30.482 -0.064 31.214 -0.065 C51.827 -0.087 72.407 -0.015 93 1 C93 1.33 93 1.66 93 2 C88.05 2.33 83.1 2.66 78 3 C78 3.99 78 4.98 78 6 C78.763 5.938 79.526 5.876 80.312 5.812 C82.578 5.8 82.919 5.935 84.812 7.438 C86 9 86 9 86 10 C85.615 10.024 85.615 10.024 83.664 10.148 C82.651 10.223 81.638 10.299 80.625 10.375 C80.371 10.39 80.371 10.39 79.086 10.469 C78.841 10.488 78.841 10.488 77.602 10.586 C77.376 10.602 77.376 10.602 76.237 10.681 C73.912 11.281 72.794 13.227 71.5 15.125 C71.005 15.744 70.51 16.363 70 17 C69.34 17 68.68 17 68 17 C67.375 19 67.375 19 67 21 C67.01 20.821 67.01 20.821 67.063 19.914 C67.146 18.297 67.199 16.681 67.25 15.062 C67.284 14.499 67.317 13.935 67.352 13.354 C67.389 11.807 67.403 10.495 67 9 C65.047 8.059 65.047 8.059 63 8 C62.67 8.33 62.34 8.66 62 9 C60.725 9.129 60.725 9.129 59.129 9.133 C58.842 9.133 58.842 9.133 57.389 9.137 C56.786 9.133 56.183 9.129 55.562 9.125 C54.964 9.129 54.365 9.133 53.748 9.137 C53.172 9.135 52.597 9.134 52.004 9.133 C51.476 9.132 50.948 9.131 50.405 9.129 C49 9 49 9 47 8 C47.375 6.562 47.375 6.562 48 5 C48.66 4.67 49.32 4.34 50 4 C47.36 3.67 44.72 3.34 42 3 C42 2.34 42 1.68 42 1 C28.14 1 14.28 1 0 1 C0 0.67 0 0.34 0 0 Z " fill="#241913" transform="translate(14,223)"/>
<path d="M0 0 C0.66 0 1.32 0 2 0 C2.794 52.699 3.272 105.303 2 158 C1.34 158 0.68 158 0 158 C0 105.86 0 53.72 0 0 Z " fill="#6B6862" transform="translate(95,37)"/>
<path d="M0 0 C3.89 0.58 5.956 2.367 8.75 4.938 C9.161 5.298 9.572 5.658 9.996 6.029 C12.227 8.041 12.227 8.041 13 9 C13 9.66 13 10.32 13 11 C13.425 11.112 13.851 11.224 14.289 11.34 C16.884 12.341 17.877 14.295 19.375 16.562 C19.68 17.014 19.984 17.465 20.298 17.929 C20.915 18.849 21.528 19.771 22.138 20.695 C22.899 21.848 23.677 22.988 24.461 24.125 C29.035 31 31.079 37.678 31.812 45.812 C31.866 46.364 31.919 46.915 31.974 47.483 C32.2 50.82 32.129 53.243 30 56 C28.393 56.833 26.76 57.233 25 57.625 C19.556 58.932 19.556 58.932 18 61 C17.912 57.655 17.912 57.655 19 56 C21.351 55.143 23.495 54.751 25.969 54.359 C28 54 28 54 29 53 C29.1 51.213 29.139 49.474 29.125 47.688 C29.129 47.201 29.133 46.714 29.137 46.213 C29.129 43.321 28.836 40.795 28 38 C27.711 38.351 27.423 38.701 27.125 39.062 C26.754 39.372 26.382 39.681 26 40 C25.34 39.67 24.68 39.34 24 39 C23.805 37.59 23.805 37.59 23.875 35.938 C23.893 35.39 23.911 34.842 23.93 34.277 C23.953 33.856 23.976 33.434 24 33 C24.124 33.495 24.248 33.99 24.375 34.5 C24.581 34.995 24.788 35.49 25 36 C25.66 36 26.32 36 27 36 C25.68 32.7 24.36 29.4 23 26 C22.34 27.32 21.68 28.64 21 30 C20.34 29.67 19.68 29.34 19 29 C18.856 29.33 18.856 29.33 18.125 31 C17.754 31.66 17.382 32.32 17 33 C16.34 33 15.68 33 15 33 C14.162 32.054 14.162 32.054 13.344 30.734 C13.043 30.256 12.743 29.778 12.434 29.285 C12.126 28.779 11.817 28.272 11.5 27.75 C11.192 27.259 10.884 26.768 10.566 26.262 C8.893 23.569 7.363 20.862 6 18 C6.66 18 7.32 18 8 18 C8.027 16.875 8.046 15.75 8.062 14.625 C8.074 13.999 8.086 13.372 8.098 12.727 C8 11 8 11 7 9 C7.66 8.67 8.32 8.34 9 8 C5.579 7.145 3.435 6.855 0 8 C-1.384 5.077 -0.736 3.025 0 0 Z " fill="#231A15" transform="translate(271,113)"/>
<path d="M0 0 C1.746 1.016 1.746 1.016 3 2 C1.25 5.875 1.25 5.875 -1 7 C-2.625 6.562 -2.625 6.562 -4 6 C-3.691 6.289 -3.381 6.577 -3.062 6.875 C-2 8 -2 8 -1 10 C-1.784 9.979 -2.567 9.959 -3.375 9.938 C-4.766 10.191 -4.766 10.191 -6 11 C-6.771 13.254 -7.13 15.414 -7.445 17.773 C-8.11 20.441 -8.762 21.416 -11 23 C-16.406 23.893 -24.105 23.557 -29 21 C-29.459 18.705 -28.989 17.982 -27.75 15.938 C-26.085 13.915 -24.53 12.818 -22 12 C-20.223 12.137 -18.732 12.519 -17 13 C-16.974 12.625 -16.948 12.25 -16.922 11.863 C-16.448 7.588 -15.121 4.965 -12 2 C-8.52 -0.61 -4.194 -0.586 0 0 Z " fill="#1B110D" transform="translate(228,223)"/>
<path d="M0 0 C0.33 0 0.66 0 1 0 C1 14.19 1 28.38 1 43 C1.66 43 2.32 43 3 43 C3.625 41.5 3.625 41.5 4 40 C5.973 40.609 5.973 40.609 8 42 C8.604 44.072 8.488 46.114 8.426 48.258 C8.422 48.88 8.419 49.502 8.416 50.142 C8.4 52.137 8.356 54.131 8.312 56.125 C8.301 57.445 8.291 58.766 8.283 60.086 C8.142 75.282 8.142 75.282 7 79 C5 79.875 5 79.875 3 80 C2.67 80.66 2.34 81.32 2 82 C0.589 82.241 0.589 82.241 -1.235 82.227 C-1.575 82.227 -1.575 82.227 -3.297 82.227 C-3.666 82.221 -3.666 82.221 -5.535 82.195 C-6.288 82.192 -7.042 82.19 -7.818 82.187 C-10.233 82.176 -12.648 82.15 -15.062 82.125 C-16.696 82.115 -18.329 82.106 -19.963 82.098 C-23.975 82.076 -27.988 82.042 -32 82 C-32 81.67 -32 81.34 -32 81 C-21.11 81 -10.22 81 1 81 C0.836 78.181 0.673 75.362 0.504 72.457 C-0.209 58.558 -0.115 44.657 -0.069 30.744 C-0.058 27.264 -0.054 23.783 -0.049 20.303 C-0.038 13.535 -0.021 6.768 0 0 Z " fill="#2C201B" transform="translate(44,114)"/>
<path d="M0 0 C3.838 2.476 3.838 2.476 4.55 4.783 C5.268 8.323 5.186 11.865 5.185 15.462 C5.187 16.799 5.206 18.134 5.225 19.471 C5.297 29.968 5.297 29.968 3 34 C2.006 34.352 1.007 34.688 0 35 C0 35.66 0 36.32 0 37 C-5.449 37.932 -10.877 38.301 -16.39 38.558 C-17.828 38.626 -19.264 38.703 -20.701 38.781 C-21.62 38.826 -22.538 38.87 -23.457 38.914 C-23.884 38.938 -24.311 38.962 -24.751 38.986 C-26.937 39.079 -27.995 39.003 -30 38 C-29.991 38.638 -29.982 39.276 -29.973 39.934 C-29.892 45.965 -29.832 51.997 -29.793 58.029 C-29.772 61.13 -29.744 64.23 -29.698 67.331 C-29.655 70.326 -29.631 73.321 -29.62 76.317 C-29.613 77.457 -29.599 78.596 -29.577 79.735 C-29.376 90.757 -29.376 90.757 -32.818 94.887 C-36.909 98.739 -40.284 99.454 -45.84 99.398 C-46.484 99.401 -47.129 99.404 -47.793 99.407 C-49.15 99.409 -50.508 99.404 -51.865 99.391 C-53.928 99.375 -55.99 99.391 -58.053 99.41 C-59.378 99.408 -60.702 99.404 -62.027 99.398 C-62.637 99.405 -63.246 99.411 -63.874 99.417 C-68.081 99.349 -71.536 98.49 -75 96 C-75.33 95.34 -75.66 94.68 -76 94 C-75.66 94.142 -75.32 94.284 -74.97 94.431 C-70.579 96.097 -66.637 96.263 -61.977 96.195 C-61.23 96.192 -60.484 96.19 -59.715 96.187 C-57.352 96.176 -54.989 96.151 -52.625 96.125 C-51.014 96.115 -49.404 96.106 -47.793 96.098 C-43.862 96.076 -39.931 96.042 -36 96 C-36 95.34 -36 94.68 -36 94 C-35.34 94 -34.68 94 -34 94 C-32.864 90.915 -32.833 87.833 -32.795 84.589 C-32.785 84.062 -32.775 83.534 -32.765 82.991 C-32.733 81.26 -32.708 79.528 -32.684 77.797 C-32.663 76.592 -32.642 75.387 -32.621 74.182 C-32.566 71.019 -32.516 67.856 -32.468 64.693 C-32.417 61.462 -32.362 58.231 -32.307 55 C-32.199 48.667 -32.098 42.333 -32 36 C-31.631 35.994 -31.262 35.988 -30.881 35.982 C-27.036 35.918 -23.192 35.834 -19.347 35.738 C-17.913 35.704 -16.478 35.676 -15.044 35.654 C-12.98 35.62 -10.918 35.568 -8.855 35.512 C-8.215 35.505 -7.574 35.499 -6.914 35.492 C-2.48 35.346 -2.48 35.346 -0.134 33.656 C2.169 30.294 2.159 27.338 2.168 23.379 C2.171 22.838 2.175 22.297 2.178 21.739 C2.183 20.597 2.185 19.455 2.185 18.312 C2.187 16.572 2.206 14.832 2.225 13.092 C2.228 11.979 2.23 10.867 2.23 9.754 C2.234 9.496 2.234 9.496 2.252 8.188 C2.232 4.904 1.696 2.823 0 0 Z " fill="#5B5854" transform="translate(123,197)"/>
<path d="M0 0 C8.25 0 16.5 0 25 0 C25 3.96 25 7.92 25 12 C16.75 12 8.5 12 0 12 C0 8.04 0 4.08 0 0 Z " fill="#9F9A93" transform="translate(56,252)"/>
<path d="M0 0 C0.33 0 0.66 0 1 0 C1 3.63 1 7.26 1 11 C1.66 11 2.32 11 3 11 C3.414 9.906 3.414 9.906 3.625 8.5 C3.749 7.675 3.873 6.85 4 6 C4.99 6.165 4.99 6.165 10 7 C10.388 14.683 10.388 14.683 8 18 C7.34 18 6.68 18 6 18 C6 18.66 6 19.32 6 20 C3.513 21.289 0.847 21.129 -1.887 21.098 C-2.349 21.096 -2.81 21.095 -3.286 21.093 C-4.753 21.088 -6.22 21.075 -7.688 21.062 C-8.686 21.057 -9.684 21.053 -10.682 21.049 C-13.121 21.038 -15.561 21.021 -18 21 C-17.34 19.02 -16.68 17.04 -16 15 C-17.32 14.34 -18.64 13.68 -20 13 C-13.507 10.355 -6.871 10.814 0 11 C0 7.37 0 3.74 0 0 Z " fill="#22160F" transform="translate(81,273)"/>
<path d="M0 0 C8.58 0 17.16 0 26 0 C26 3.63 26 7.26 26 11 C17.42 11 8.84 11 0 11 C0 7.37 0 3.74 0 0 Z " fill="#95918A" transform="translate(55,273)"/>
<path d="M0 0 C8.58 0 17.16 0 26 0 C26 3.63 26 7.26 26 11 C17.42 11 8.84 11 0 11 C0 7.37 0 3.74 0 0 Z " fill="#99938B" transform="translate(55,233)"/>
<path d="M0 0 C2.875 0.875 2.875 0.875 4 2 C6.115 2.06 8.205 2.021 10.318 1.961 C12.607 1.921 13.916 1.958 16 3 C16 3.66 16 4.32 16 5 C16.362 4.929 16.725 4.858 17.098 4.785 C18.771 4.466 20.448 4.17 22.125 3.875 C22.695 3.763 23.265 3.651 23.852 3.535 C27.616 2.894 30.13 3.066 33.636 4.629 C35.393 5.107 36.353 4.697 38 4 C38 4.66 38 5.32 38 6 C39.155 5.835 39.155 5.835 45 5 C44.295 6.972 44.295 6.972 43 9 C41.23 9.405 40.047 9.511 38.275 9.454 C37.797 9.455 37.318 9.455 36.826 9.456 C35.245 9.453 33.666 9.422 32.086 9.391 C30.99 9.383 29.894 9.377 28.799 9.373 C25.915 9.358 23.032 9.319 20.148 9.275 C17.206 9.234 14.263 9.215 11.32 9.195 C5.547 9.152 -0.227 9.084 -6 9 C-6 7.68 -6 6.36 -6 5 C-5.34 5 -4.68 5 -4 5 C-3.67 5.33 -3.34 5.66 -3 6 C-1 5 -1 5 -0.586 3.809 C-0.516 3.356 -0.447 2.904 -0.375 2.438 C-0.313 2.035 -0.313 2.035 0 0 Z " fill="#180C09" transform="translate(205,198)"/>
<path d="M0 0 C0.75 1.312 0.75 1.312 1 3 C0.062 4.688 0.062 4.688 -1 6 C-0.34 6 0.32 6 1 6 C1.33 6.33 1.66 6.66 2 7 C2.948 6.56 3.893 6.11 4.812 5.613 C6.81 4.581 8.906 3.815 11 3 C5.202 10.315 -5.829 16.418 -15 18 C-19.333 18.292 -23.665 18.196 -28 18 C-28 17.67 -28 17.34 -28 17 C-27.753 16.976 -27.753 16.976 -26.504 16.852 C-25.863 16.777 -25.223 16.702 -24.562 16.625 C-23.924 16.555 -23.286 16.486 -22.629 16.414 C-22.091 16.277 -21.554 16.141 -21 16 C-20.67 15.34 -20.34 14.68 -20 14 C-20.66 13.34 -21.32 12.68 -22 12 C-19.69 11.01 -17.38 10.02 -15 9 C-15.33 8.34 -15.66 7.68 -16 7 C-13.712 5.827 -11.419 4.663 -9.125 3.5 C-8.474 3.166 -7.823 2.832 -7.152 2.488 C-6.84 2.33 -6.84 2.33 -5.258 1.531 C-4.682 1.238 -4.106 0.945 -3.512 0.643 C-2 0 -2 0 0 0 Z " fill="#170F0C" transform="translate(262,227)"/>
<path d="M0 0 C2.01 1.903 3.667 3.728 3.915 6.604 C3.916 7.191 3.917 7.778 3.918 8.383 C3.919 8.717 3.919 8.717 3.924 10.41 C3.919 11.133 3.915 11.857 3.91 12.602 C3.908 13.345 3.906 14.088 3.904 14.853 C3.841 23.286 3.344 31.689 2.785 40.102 C2.455 40.102 2.125 40.102 1.785 40.102 C1.775 39.737 1.765 39.372 1.754 38.996 C1.645 35.184 1.531 31.371 1.413 27.559 C1.37 26.138 1.328 24.717 1.288 23.296 C1.23 21.248 1.166 19.2 1.102 17.152 C1.085 16.522 1.068 15.892 1.051 15.242 C0.935 11.766 0.769 8.45 -0.215 5.102 C-0.875 5.102 -1.535 5.102 -2.215 5.102 C-2.545 6.422 -2.875 7.742 -3.215 9.102 C-6.185 8.772 -9.155 8.442 -12.215 8.102 C-11.885 9.092 -11.555 10.082 -11.215 11.102 C-13.215 10.227 -13.215 10.227 -15.215 9.102 C-15.215 8.442 -15.215 7.782 -15.215 7.102 C-15.875 7.102 -16.535 7.102 -17.215 7.102 C-17.858 4.893 -18.112 3.257 -17.215 1.102 C-12.247 -1.614 -4.932 -3.647 0 0 Z " fill="#2E2521" transform="translate(92.21484375,14.8984375)"/>
<path d="M0 0 C0.66 0 1.32 0 2 0 C1.996 0.447 1.991 0.893 1.987 1.353 C1.946 5.561 1.916 9.77 1.896 13.978 C1.886 16.141 1.872 18.305 1.849 20.468 C1.823 22.955 1.814 25.442 1.805 27.93 C1.794 28.707 1.784 29.484 1.773 30.285 C1.773 30.645 1.773 30.645 1.773 32.468 C1.769 33.103 1.764 33.738 1.759 34.393 C2.04 36.266 2.538 36.845 4 38 C3 39 2 40 1 41 C0.526 41.598 0.051 42.196 -0.438 42.812 C-0.695 43.008 -0.695 43.008 -2 44 C-4.514 43.314 -5.667 42.433 -7.25 40.375 C-8.535 36.306 -8.964 31.429 -7 27.5 C-6.67 27.005 -6.34 26.51 -6 26 C-6 26.99 -6 27.98 -6 29 C-5.34 29 -4.68 29 -4 29 C-3.586 27.906 -3.586 27.906 -3.375 26.5 C-3.338 26.268 -3.338 26.268 -3.148 25.094 C-3.099 24.733 -3.05 24.372 -3 24 C-2.01 24.33 -1.02 24.66 0 25 C0.029 22.896 0.047 20.792 0.062 18.688 C0.071 18.093 0.079 17.498 0.088 16.885 C0.091 16.308 0.094 15.731 0.098 15.137 C0.103 14.608 0.108 14.079 0.114 13.534 C-0.009 11.881 -0.474 10.565 -1 9 C-0.879 6.738 -0.879 6.738 -0.562 4.312 C-0.461 3.504 -0.359 2.696 -0.254 1.863 C-0.212 1.556 -0.212 1.556 0 0 Z " fill="#170F09" transform="translate(197,159)"/>
<path d="M0 0 C1.125 3.75 1.125 3.75 0 6 C-0.66 6 -1.32 6 -2 6 C-2.633 7.094 -2.633 7.094 -3.125 8.5 C-3.293 8.964 -3.46 9.428 -3.633 9.906 C-3.754 10.267 -3.875 10.628 -4 11 C-1.014 8.219 1.448 5.81 3 2 C3.66 2.33 4.32 2.66 5 3 C6.329 3.352 7.662 3.688 9 4 C7.615 7.231 5.874 9.889 3 12 C2.34 12 1.68 12 1 12 C0.67 11.67 0.34 11.34 0 11 C-2 11.625 -2 11.625 -4 13 C-4.414 14.25 -4.414 14.25 -4.625 15.625 C-4.749 16.409 -4.873 17.192 -5 18 C-5.66 18 -6.32 18 -7 18 C-7.165 18.66 -7.33 19.32 -7.5 20 C-7.665 20.66 -7.83 21.32 -8 22 C-8.66 22 -9.32 22 -10 22 C-10 22.99 -10 23.98 -10 25 C-10.66 24.67 -11.32 24.34 -12 24 C-13.5 23.812 -13.5 23.812 -15 24 C-16.188 25 -16.188 25 -17 26 C-16.421 22.014 -15.216 19.253 -13.062 15.875 C-12.798 15.446 -12.533 15.016 -12.26 14.574 C-11.747 13.747 -11.229 12.924 -10.704 12.104 C-10.094 11.147 -9.511 10.173 -8.934 9.195 C-8.626 8.801 -8.317 8.406 -8 8 C-7.34 8 -6.68 8 -6 8 C-5.53 7.06 -5.066 6.117 -4.641 5.156 C-3.495 3.089 -1.731 1.58 0 0 Z M6 0 C6.66 0 7.32 0 8 0 C7.67 0.99 7.34 1.98 7 3 C6.34 2.34 5.68 1.68 5 1 C5.33 0.67 5.66 0.34 6 0 Z " fill="#150D09" transform="translate(169,119)"/>
<path d="M0 0 C2.6 1.808 3.315 3.448 3.875 6.562 C4.853 17.991 -2.659 31.066 -9.797 39.555 C-12.688 42.831 -15.743 45.954 -18.812 49.062 C-19.388 49.648 -19.964 50.233 -20.557 50.836 C-20.829 51.106 -20.829 51.106 -22.207 52.473 C-22.697 52.96 -23.186 53.447 -23.691 53.949 C-25 55 -25 55 -27 55 C-27 55.66 -27 56.32 -27 57 C-28.202 57.99 -28.202 57.99 -29.895 59.023 C-30.515 59.403 -31.135 59.783 -31.773 60.174 C-44.496 67.667 -53.11 70.786 -68 70 C-68 69.67 -68 69.34 -68 69 C-67.614 68.966 -67.227 68.931 -66.829 68.896 C-46.812 66.989 -32.254 58.984 -18 45 C-17.645 44.665 -17.289 44.329 -16.923 43.983 C-8.456 35.914 0.103 21.539 1.21 9.763 C1.277 6.374 1.074 3.222 0 0 Z " fill="#666461" transform="translate(300,177)"/>
<path d="M0 0 C3.524 -0.049 7.047 -0.086 10.571 -0.11 C11.77 -0.12 12.969 -0.134 14.168 -0.151 C15.891 -0.175 17.613 -0.186 19.336 -0.195 C19.604 -0.2 19.604 -0.2 20.962 -0.227 C21.212 -0.227 21.212 -0.227 22.478 -0.227 C22.918 -0.231 23.357 -0.236 23.81 -0.241 C25.374 0.076 25.982 0.809 27 2 C25.35 2 23.7 2 22 2 C22 2.66 22 3.32 22 4 C20.02 4.33 18.04 4.66 16 5 C16.99 5.99 17.98 6.98 19 8 C10.09 8 1.18 8 -8 8 C-8 7.34 -8 6.68 -8 6 C-7.434 6.046 -6.868 6.093 -6.285 6.141 C-4.132 6.247 -2.137 6.297 0 6 C1.062 4.125 1.062 4.125 1 2 C0.67 1.34 0.34 0.68 0 0 Z " fill="#22140D" transform="translate(95,195)"/>
<path d="M0 0 C0.927 0.002 1.855 0.003 2.782 0.003 C4.717 0.006 6.651 0.022 8.586 0.049 C11.062 0.083 13.538 0.091 16.014 0.089 C17.925 0.09 19.837 0.101 21.748 0.115 C22.661 0.122 23.574 0.126 24.487 0.127 C25.762 0.132 27.038 0.151 28.313 0.17 C29.037 0.178 29.762 0.186 30.508 0.194 C32.646 0.491 33.752 1.136 35.43 2.461 C35.1 3.121 34.77 3.781 34.43 4.461 C33.77 4.131 33.11 3.801 32.43 3.461 C30.888 3.295 29.382 3.18 27.836 3.109 C27.606 3.098 27.606 3.098 26.444 3.038 C24.939 2.964 23.435 2.899 21.93 2.836 C21.674 2.825 21.674 2.825 20.38 2.769 C13.294 2.474 6.264 2.409 -0.82 2.773 C-1.563 2.808 -2.307 2.843 -3.072 2.878 C-3.757 2.922 -4.443 2.966 -5.148 3.012 C-5.74 3.05 -6.332 3.087 -6.942 3.126 C-8.966 3.542 -10.01 4.098 -11.57 5.461 C-11.931 7.334 -11.931 7.334 -11.911 9.635 C-11.911 10.055 -11.912 10.475 -11.912 10.907 C-11.91 12.293 -11.887 13.677 -11.863 15.062 C-11.858 16.024 -11.853 16.985 -11.85 17.946 C-11.839 20.475 -11.81 23.003 -11.776 25.531 C-11.746 28.112 -11.732 30.693 -11.717 33.273 C-11.685 38.336 -11.633 43.398 -11.57 48.461 C-12.23 48.131 -12.89 47.801 -13.57 47.461 C-13.882 45.735 -13.882 45.735 -13.969 43.464 C-13.987 43.05 -14.005 42.637 -14.023 42.212 C-14.08 40.841 -14.121 39.469 -14.16 38.098 C-14.192 37.145 -14.223 36.192 -14.255 35.238 C-14.318 33.237 -14.373 31.235 -14.423 29.234 C-14.489 26.674 -14.587 24.116 -14.693 21.557 C-14.77 19.587 -14.823 17.616 -14.87 15.645 C-14.897 14.702 -14.931 13.759 -14.975 12.817 C-15.286 5.78 -15.286 5.78 -13.769 2.985 C-10.085 -0.644 -4.812 -0.082 0 0 Z " fill="#63615C" transform="translate(212.5703125,146.5390625)"/>
<path d="M0 0 C0.33 0.99 0.66 1.98 1 3 C2.32 2.34 3.64 1.68 5 1 C5.33 1.66 5.66 2.32 6 3 C6.33 2.34 6.66 1.68 7 1 C7.66 1 8.32 1 9 1 C9.309 1.639 9.619 2.279 9.938 2.938 C11 5 11 5 12.562 5.562 C12.8 5.635 12.8 5.635 14 6 C14.688 7.562 14.688 7.562 15 9 C14.67 9.165 14.67 9.165 13 10 C12.34 9.67 11.68 9.34 11 9 C11.021 9.32 11.021 9.32 11.125 10.938 C11.084 11.618 11.042 12.299 11 13 C10.67 13.165 10.67 13.165 9 14 C9.99 14.66 10.98 15.32 12 16 C11.67 16.66 11.34 17.32 11 18 C9.512 18.117 9.512 18.117 7.688 17.875 C7.093 17.811 6.499 17.746 5.887 17.68 C3.215 16.717 1.485 15.448 0 13 C-0.465 10.723 -0.382 8.562 -0.25 6.25 C-0.232 5.648 -0.214 5.046 -0.195 4.426 C-0.148 2.949 -0.083 1.475 0 0 Z " fill="#2A1F19" transform="translate(148,154)"/>
<path d="M0 0 C5.292 -0.67 10.777 0.06 16 1 C15.25 3.062 15.25 3.062 14 5 C11.875 4.75 11.875 4.75 10 4 C10 4.66 10 5.32 10 6 C12.97 6 15.94 6 19 6 C17 8 17 8 14.875 8.125 C14.256 8.084 13.637 8.043 13 8 C13 8.66 13 9.32 13 10 C12.602 9.919 12.203 9.838 11.793 9.754 C9.995 9.54 8.743 9.477 7 10 C5.896 11.71 5.326 13.329 4.738 15.273 C3.857 17.334 2.937 17.943 1 19 C-0.5 13.3 0.661 8.601 2 3 C1.01 2.67 0.02 2.34 -1 2 C-0.67 1.34 -0.34 0.68 0 0 Z " fill="#150E0A" transform="translate(231,99)"/>
<path d="M0 0 C2.972 2.702 4.897 5.142 5.125 9.25 C5.084 9.827 5.043 10.405 5 11 C4.34 11 3.68 11 3 11 C3.33 11.66 3.66 12.32 4 13 C4.99 12.34 5.98 11.68 7 11 C7 13.64 7 16.28 7 19 C6.175 18.67 6.175 18.67 2 17 C1.794 17.804 1.587 18.609 1.375 19.438 C0.844 20.82 0.844 20.82 0 22 C-1.981 22.748 -3.892 22.927 -6 23 C-5.49 22.749 -4.979 22.497 -4.453 22.238 C-3.974 21.83 -3.494 21.421 -3 21 C-3.109 19.23 -3.109 19.23 -3.75 17.188 C-3.955 16.475 -4.16 15.762 -4.371 15.027 C-4.736 13.852 -5.102 12.677 -5.473 11.504 C-5.939 9.784 -6.211 8.466 -5.461 6.809 C-4.688 5.688 -4.688 5.688 -3 4 C-2.34 4 -1.68 4 -1 4 C-0.375 2 -0.375 2 0 0 Z " fill="#1B110D" transform="translate(293,138)"/>
<path d="M0 0 C5.946 -0.046 11.892 -0.082 17.838 -0.104 C20.599 -0.114 23.359 -0.128 26.12 -0.151 C28.785 -0.173 31.45 -0.185 34.115 -0.19 C35.131 -0.193 36.148 -0.201 37.164 -0.211 C38.588 -0.226 40.012 -0.228 41.437 -0.227 C41.842 -0.229 41.842 -0.229 43.893 -0.241 C46.164 0.019 47.245 0.576 49 2 C47.661 3.339 46.65 3.118 44.829 3.124 C44.607 3.123 44.607 3.123 43.48 3.114 C43.012 3.114 42.544 3.114 42.061 3.114 C40.508 3.113 38.955 3.105 37.402 3.098 C36.328 3.096 35.253 3.094 34.178 3.093 C31.346 3.09 28.513 3.08 25.68 3.069 C22.791 3.058 19.903 3.054 17.014 3.049 C11.342 3.038 5.671 3.021 0 3 C0 2.01 0 1.02 0 0 Z " fill="#201412" transform="translate(201,137)"/>
<path d="M0 0 C0.99 0 1.98 0 3 0 C3 1.32 3 2.64 3 4 C2.34 4 1.68 4 1 4 C0.375 2 0.375 2 0 0 Z M1 4 C0.67 5.98 0.34 7.96 0 10 C0.99 9.34 1.98 8.68 3 8 C2.056 12.601 0.043 15.472 -3 18.938 C-3.356 19.351 -3.713 19.765 -4.08 20.191 C-4.425 20.57 -4.77 20.949 -5.125 21.34 C-5.437 21.684 -5.749 22.028 -6.07 22.383 C-6.377 22.586 -6.684 22.79 -7 23 C-7.66 22.67 -8.32 22.34 -9 22 C-8.34 20.68 -7.68 19.36 -7 18 C-7.66 18 -8.32 18 -9 18 C-9.858 14.922 -10.405 12.189 -10 9 C-6.955 5.763 -3.496 4 1 4 Z " fill="#190F0A" transform="translate(290,199)"/>
<path d="M0 0 C3.89 0.58 5.956 2.367 8.75 4.938 C9.161 5.298 9.572 5.658 9.996 6.029 C12.227 8.041 12.227 8.041 13 9 C13 9.66 13 10.32 13 11 C13.996 11.346 14.996 11.677 16 12 C17.203 13.121 17.203 13.121 18.25 14.438 C18.606 14.869 18.962 15.301 19.328 15.746 C19.439 15.953 19.439 15.953 20 17 C19 19 19 19 17.66 19.484 C17.133 19.572 16.606 19.66 16.062 19.75 C15.538 19.848 15.013 19.946 14.473 20.047 C13 20 13 20 11 18 C10.67 19.98 10.34 21.96 10 24 C6.875 21.07 6.875 21.07 6 20 C6 19.34 6 18.68 6 18 C6.66 18 7.32 18 8 18 C8.027 16.875 8.046 15.75 8.062 14.625 C8.074 13.999 8.086 13.372 8.098 12.727 C8 11 8 11 7 9 C7.66 8.67 8.32 8.34 9 8 C5.579 7.145 3.435 6.855 0 8 C-1.384 5.077 -0.736 3.025 0 0 Z " fill="#2A1F1A" transform="translate(271,113)"/>
<path d="M0 0 C0.99 0 1.98 0 3 0 C3 0.66 3 1.32 3 2 C3.66 2 4.32 2 5 2 C7.697 7.102 7.262 13.271 7.195 18.871 C7.192 19.803 7.189 20.734 7.187 21.666 C7.179 24.094 7.16 26.522 7.137 28.95 C7.117 31.438 7.108 33.925 7.098 36.412 C7.076 41.275 7.042 46.137 7 51 C7.66 51 8.32 51 9 51 C8.67 51.66 8.34 52.32 8 53 C7.34 52.67 6.68 52.34 6 52 C5.67 52.825 5.67 52.825 4 57 C3.01 56.67 2.02 56.34 1 56 C1.324 55.432 1.649 54.865 1.983 54.28 C3.083 51.813 3.259 50.21 3.275 47.526 C3.28 47.098 3.285 46.67 3.29 46.228 C3.304 44.823 3.303 43.417 3.301 42.012 C3.305 41.025 3.309 40.039 3.314 39.052 C3.321 36.987 3.321 34.922 3.316 32.857 C3.31 30.227 3.327 27.599 3.35 24.969 C3.365 22.932 3.366 20.894 3.363 18.857 C3.363 17.888 3.368 16.92 3.378 15.952 C3.432 10.065 2.913 5.279 0 0 Z " fill="#EBEAE3" transform="translate(257,144)"/>
<path d="M0 0 C0.33 0.66 0.66 1.32 1 2 C2.562 3.125 2.562 3.125 4 4 C3.34 4.33 3.34 4.33 0 6 C0.174 6.419 0.348 6.838 0.527 7.27 C1.079 9.288 0.911 10.634 0.562 12.688 C0.461 13.31 0.359 13.933 0.254 14.574 C0.17 15.045 0.086 15.515 0 16 C-0.619 15.752 -1.238 15.505 -1.875 15.25 C-2.576 15.167 -3.278 15.085 -4 15 C-5.25 16.938 -5.25 16.938 -6 19 C-8.304 15.314 -8.872 11.317 -9 7 C-8.67 6.67 -8.34 6.34 -8 6 C-7.897 5.34 -7.794 4.68 -7.688 4 C-7.461 3.34 -7.234 2.68 -7 2 C-5.125 1.312 -5.125 1.312 -3 1 C-1.996 0.677 -0.995 0.348 0 0 Z " fill="#170B07" transform="translate(198,142)"/>
<path d="M0 0 C1.062 0.688 1.062 0.688 2 2 C1.971 3.866 1.575 5.18 1 7 C0.34 7 -0.32 7 -1 7 C-1 7.66 -1 8.32 -1 9 C-0.34 9.33 0.32 9.66 1 10 C-7.91 10 -16.82 10 -26 10 C-26 9.67 -26 9.34 -26 9 C-25.669 8.993 -25.669 8.993 -23.996 8.956 C-21.549 8.898 -19.102 8.821 -16.656 8.738 C-15.595 8.704 -14.535 8.676 -13.475 8.654 C-11.953 8.62 -10.432 8.568 -8.91 8.512 C-8.672 8.509 -8.672 8.509 -7.468 8.492 C-6.133 8.432 -6.133 8.432 -4 8 C-3.193 6.468 -3.193 6.468 -3 5 C-3.66 5 -4.32 5 -5 5 C-5 5.66 -5 6.32 -5 7 C-10.28 7 -15.56 7 -21 7 C-21 6.34 -21 5.68 -21 5 C-22.094 4.621 -22.094 4.621 -23.5 4.438 C-24.906 4.246 -24.906 4.246 -26 4 C-26 3.67 -26 3.34 -26 3 C-25.624 2.99 -25.624 2.99 -23.721 2.94 C-20.938 2.864 -18.156 2.775 -15.374 2.683 C-14.168 2.644 -12.962 2.609 -11.757 2.578 C-10.026 2.533 -8.296 2.475 -6.566 2.414 C-6.025 2.403 -5.483 2.391 -4.925 2.379 C-3.408 2.319 -3.408 2.319 -1 2 C-0.67 1.34 -0.34 0.68 0 0 Z " fill="#0F0704" transform="translate(82,262)"/>
<path d="M0 0 C2 1 4 2 6 3 C6 2.34 6 1.68 6 1 C11.409 1.508 11.409 1.508 13.875 3.562 C14.061 3.8 14.061 3.8 15 5 C13.35 4.67 11.7 4.34 10 4 C10 4.99 10 5.98 10 7 C10.454 6.794 10.907 6.588 11.375 6.375 C11.911 6.251 12.447 6.127 13 6 C14.188 6.938 14.188 6.938 15 8 C15.33 7.67 15.66 7.34 16 7 C17.333 6.96 18.667 6.957 20 7 C19.67 8.32 19.34 9.64 19 11 C20.65 11.66 22.3 12.32 24 13 C23.959 12.546 23.917 12.093 23.875 11.625 C24 10 24 10 24.812 8.75 C25.204 8.502 25.596 8.255 26 8 C27.625 8.375 27.625 8.375 29 9 C28.88 9.169 28.88 9.169 28.273 10.023 C27.977 10.469 27.68 10.915 27.375 11.375 C27.073 11.816 26.772 12.257 26.461 12.711 C26.309 13.136 26.157 13.562 26 14 C26.971 15.081 26.971 15.081 28 16 C22.913 15.569 19 13.747 14.562 11.312 C13.903 10.956 13.244 10.599 12.564 10.232 C7.941 7.671 3.548 4.99 0 1 C0 0.67 0 0.34 0 0 Z M33 7 C30.394 7.931 29.358 8.149 26.75 7.062 C26.173 6.712 25.595 6.361 25 6 C28.403 4.785 29.933 5.138 33 7 Z " fill="#413A35" transform="translate(173,229)"/>
<path d="M0 0 C3.398 1.415 5.099 3.006 7.188 6 C7.317 6.178 7.317 6.178 7.975 7.078 C9.13 8.679 10.115 10.231 11 12 C10.188 13.188 10.188 13.188 9 14 C8.34 13.67 7.68 13.34 7 13 C6.67 14.65 6.34 16.3 6 18 C0.554 16.698 0.554 16.698 -1.438 14.188 C-2.195 11.243 -2.081 9.857 -1 7 C1.062 6.312 1.062 6.312 3 6 C3 5.34 3 4.68 3 4 C2.34 4 1.68 4 1 4 C0.375 2 0.375 2 0 0 Z " fill="#15100B" transform="translate(164,204)"/>
<path d="M0 0 C0.33 0.66 0.66 1.32 1 2 C0.67 2.165 0.67 2.165 -1 3 C-0.678 4.336 -0.342 5.669 0 7 C-0.438 9.25 -0.438 9.25 -1 11 C-4.863 10.434 -6.661 8.771 -9.25 6.062 C-9.614 5.702 -9.977 5.342 -10.352 4.971 C-13 2.268 -13 2.268 -13 0 C-4.239 -1.413 -4.239 -1.413 0 0 Z M0 6 C2 7 2 7 2 7 Z " fill="#251710" transform="translate(280,120)"/>
<path d="M0 0 C14.19 0.33 28.38 0.66 43 1 C43 1.33 43 1.66 43 2 C42.771 2.007 42.771 2.007 41.611 2.044 C39.51 2.119 37.412 2.216 35.312 2.312 C34.591 2.335 33.87 2.358 33.127 2.381 C29.09 2.584 26.434 3.011 23.115 5.334 C21.236 6.456 19.454 6.36 17.312 6.312 C16.546 6.309 15.779 6.305 14.988 6.301 C13 6 13 6 11.668 5.105 C11.448 4.741 11.227 4.376 11 4 C11.33 3.34 11.66 2.68 12 2 C8.04 2 4.08 2 0 2 C0 1.34 0 0.68 0 0 Z " fill="#110806" transform="translate(13,223)"/>
<path d="M0 0 C-2.019 1.484 -3.513 2.258 -6 2.562 C-8.104 2.856 -10.009 3.226 -12 4 C-11.67 4.66 -11.34 5.32 -11 6 C-11.562 8.062 -11.562 8.062 -13 10 C-14.982 10.647 -16.925 10.869 -19 11 C-19 10.34 -19 9.68 -19 9 C-18.01 9 -17.02 9 -16 9 C-16.072 8.59 -16.144 8.18 -16.219 7.758 C-16.312 7.219 -16.404 6.68 -16.5 6.125 C-16.593 5.591 -16.686 5.058 -16.781 4.508 C-17 3 -17 3 -17 1 C-19 0.375 -19 0.375 -21 0 C-14.923 -3.038 -6.105 -2.601 0 0 Z " fill="#19110E" transform="translate(218,100)"/>
<path d="M0 0 C6.27 0.165 6.27 0.165 38 1 C38 1.99 38 2.98 38 4 C33.07 3.882 28.141 3.757 23.211 3.628 C21.534 3.584 19.857 3.542 18.18 3.503 C15.77 3.445 13.359 3.381 10.949 3.316 C10.199 3.3 9.449 3.283 8.676 3.266 C8.326 3.256 8.326 3.256 6.553 3.205 C6.246 3.198 6.246 3.198 4.689 3.158 C2.952 2.996 1.577 2.755 0 2 C0 1.34 0 0.68 0 0 Z " fill="#534D4A" transform="translate(7,232)"/>
<path d="M0 0 C0 0.99 0 1.98 0 3 C-0.66 3 -1.32 3 -2 3 C-2 3.66 -2 4.32 -2 5 C-3.202 5.99 -3.202 5.99 -4.895 7.023 C-5.515 7.403 -6.135 7.783 -6.773 8.174 C-19.496 15.667 -28.11 18.786 -43 18 C-43 17.67 -43 17.34 -43 17 C-42.614 16.966 -42.227 16.931 -41.829 16.896 C-27.161 15.499 -16.113 11.444 -4.163 2.834 C-2.798 1.855 -1.406 0.92 0 0 Z " fill="#4A4644" transform="translate(275,229)"/>
<path d="M0 0 C2.952 2.31 3.446 4.24 3.887 7.793 C3.924 8.191 3.961 8.59 4 9 C5.65 8.67 7.3 8.34 9 8 C9 8.66 9 9.32 9 10 C7.468 10.492 6.072 10.837 4.5 11.125 C4.071 11.211 3.641 11.298 3.199 11.387 C2.134 11.6 1.067 11.801 0 12 C0.351 12.289 0.701 12.578 1.062 12.875 C1.372 13.246 1.681 13.618 2 14 C1.67 14.66 1.34 15.32 1 16 C1.66 16 2.32 16 3 16 C2.67 16.99 2.34 17.98 2 19 C-1.779 18.44 -4.434 16.769 -7 14 C-7.812 11.75 -7.812 11.75 -8 10 C-7.34 10 -6.68 10 -6 10 C-6 10.66 -6 11.32 -6 12 C-2.125 10.25 -2.125 10.25 -1 8 C-0.34 8 0.32 8 1 8 C0.67 5.36 0.34 2.72 0 0 Z " fill="#28231F" transform="translate(218,101)"/>
<path d="M0 0 C0.375 1.5 0.375 1.5 0 3 C-0.812 4.188 -0.812 4.188 -2 5 C-3.625 5.125 -3.625 5.125 -5 5 C-5 5.99 -5 6.98 -5 8 C-6.726 7.821 -8.368 7.605 -10 7 C-10.557 4.864 -9.991 3.982 -9 2 C-9.66 1.711 -10.32 1.423 -11 1.125 C-11.66 0.754 -12.32 0.382 -13 0 C-13 -0.66 -13 -1.32 -13 -2 C-8.157 -3.48 -4.316 -2.775 0 0 Z " fill="#160F0A" transform="translate(202,234)"/>
<path d="M0 0 C4.657 -0.437 8.884 0.773 13 3 C13 3.66 13 4.32 13 5 C12.34 5 11.68 5 11 5 C10.332 6.461 10.332 6.461 9.812 8.375 C9.633 9.001 9.454 9.628 9.27 10.273 C9 12 9 12 10 14 C6.374 13.186 5.152 10.855 3.141 7.922 C1.634 5.384 0.701 2.858 0 0 Z " fill="#241D18" transform="translate(154,205)"/>
<path d="M0 0 C2.97 0 5.94 0 9 0 C9 3.63 9 7.26 9 11 C0.75 10.67 -7.5 10.34 -16 10 C-16 9.67 -16 9.34 -16 9 C-9.34 7.426 -2.724 8.343 4 9 C4.33 6.69 4.66 4.38 5 2 C4.175 1.856 3.35 1.711 2.5 1.562 C1.094 1.316 1.094 1.316 0 1 C0 0.67 0 0.34 0 0 Z " fill="#A39D95" transform="translate(72,273)"/>
<path d="M0 0 C0.25 1.625 0.25 1.625 0 3 C-1.32 3 -2.64 3 -4 3 C-3.794 3.639 -3.588 4.279 -3.375 4.938 C-3.251 5.618 -3.127 6.299 -3 7 C-3.33 7.165 -3.33 7.165 -5 8 C-5.33 8.99 -5.66 9.98 -6 11 C-8.64 8.36 -11.28 5.72 -14 3 C-12 2 -12 2 -9.938 2.125 C-9.298 2.084 -8.659 2.042 -8 2 C-7.438 0.562 -7.438 0.562 -7 -1 C-4.296 -2.674 -2.476 -1.708 0 0 Z " fill="#27211D" transform="translate(178,218)"/>
<path d="M0 0 C0.811 -0.021 1.623 -0.041 2.459 -0.062 C3.245 -0.068 4.03 -0.073 4.84 -0.078 C5.554 -0.087 6.268 -0.097 7.004 -0.106 C9.062 0.25 9.062 0.25 13.062 3.25 C4.812 3.25 -3.438 3.25 -11.938 3.25 C-11.938 2.59 -11.938 1.93 -11.938 1.25 C-8.337 -0.522 -3.91 0.025 0 0 Z M10.062 0.25 C12.062 1.25 12.062 1.25 12.062 1.25 Z " fill="#140B07" transform="translate(19.9375,229.75)"/>
<path d="M0 0 C3.838 2.476 3.838 2.476 4.55 4.783 C5.268 8.323 5.186 11.865 5.185 15.462 C5.187 16.799 5.206 18.134 5.225 19.471 C5.258 24.387 5.266 29.511 3 34 C0.875 34.938 0.875 34.938 -1 35 C-0.787 34.713 -0.574 34.427 -0.355 34.131 C2.779 29.094 2.421 23.815 2.336 18.086 C2.312 16.372 2.316 14.659 2.322 12.945 C2.317 11.846 2.31 10.747 2.301 9.648 C2.301 9.395 2.301 9.395 2.304 8.111 C2.239 4.873 1.661 2.789 0 0 Z " fill="#4B4944" transform="translate(123,197)"/>
<path d="M0 0 C0.33 1.32 0.66 2.64 1 4 C2.562 4.75 2.562 4.75 4 5 C3.34 5 2.68 5 2 5 C2 5.99 2 6.98 2 8 C2.66 8 3.32 8 4 8 C3.927 10.108 3.748 12.019 3 14 C1.436 15.118 -0.131 15.6 -2 16 C-2.264 12.565 -2.264 12.565 -2 11 C-0.5 10.188 -0.5 10.188 1 10 C0.625 8.5 0.625 8.5 0 7 C-0.66 7 -1.32 7 -2 7 C-2.562 8.094 -2.562 8.094 -3 9.5 C-3.438 10.906 -3.438 10.906 -4 12 C-4.66 12 -5.32 12 -6 12 C-6 11.34 -6 10.68 -6 10 C-5.34 10 -4.68 10 -4 10 C-4 9.34 -4 8.68 -4 8 C-4.66 7.67 -5.32 7.34 -6 7 C-4.02 4.69 -2.04 2.38 0 0 Z " fill="#251B16" transform="translate(279,209)"/>
<path d="M0 0 C1.582 -0.048 3.116 0.027 4.695 0.147 C4.982 0.161 4.982 0.161 6.435 0.231 C8.271 0.325 10.103 0.446 11.937 0.569 C13.18 0.637 14.424 0.703 15.667 0.768 C18.717 0.93 21.764 1.118 24.812 1.319 C24.482 1.979 24.152 2.639 23.812 3.319 C15.247 5.42 5.547 4.418 -3.188 4.319 C-1.984 0.532 -1.984 0.532 0 0 Z " fill="#241B15" transform="translate(9.18804931640625,195.6812744140625)"/>
<path d="M0 0 C0.436 0.41 0.871 0.82 1.32 1.242 C4.956 4.532 8.098 6.959 13 8 C12.746 9.505 12.473 11.001 12.188 12.5 C12.117 12.929 12.047 13.359 11.975 13.801 C11.73 15.031 11.73 15.031 11 17 C9.473 17.363 9.473 17.363 8 17 C7.25 15.688 7.25 15.688 7 14 C7.167 13.5 7.167 13.5 8 11 C7.785 9.449 7.785 9.449 7 8 C5.152 7.488 5.152 7.488 2.938 7.312 C2.204 7.247 1.471 7.181 0.715 7.113 C0.149 7.076 -0.417 7.039 -1 7 C-1.027 6.021 -1.046 5.042 -1.062 4.062 C-1.074 3.517 -1.086 2.972 -1.098 2.41 C-1 1 -1 1 0 0 Z " fill="#EBE8E5" transform="translate(278,177)"/>
<path d="M0 0 C4.643 2.261 4.643 2.261 5.938 4.938 C6.016 7.516 5.441 8.877 4 11 C3.34 11 2.68 11 2 11 C2 10.34 2 9.68 2 9 C0.68 9.99 -0.64 10.98 -2 12 C-3.32 10.68 -4.64 9.36 -6 8 C-5.691 7.99 -5.691 7.99 -4.125 7.938 C-2 7 -2 7 -1.289 5.375 C-0.793 3.591 -0.36 1.816 0 0 Z " fill="#1F1711" transform="translate(199,194)"/>
<path d="M0 0 C0 0.66 0 1.32 0 2 C-1.579 3.298 -3.449 4.167 -5.25 5.125 C-5.496 5.264 -5.496 5.264 -6.738 5.965 C-9.601 7.515 -11.657 8.366 -15 8 C-14.844 5.822 -14.414 4.427 -12.879 2.844 C-8.718 -0.314 -5.092 -0.465 0 0 Z " fill="#1C1513" transform="translate(228,223)"/>
<path d="M0 0 C2 1 2 1 2.427 2.088 C2.506 2.535 2.586 2.981 2.668 3.441 C2.713 3.69 2.713 3.69 2.939 4.949 C3.021 5.482 3.103 6.014 3.188 6.562 C3.271 7.103 3.354 7.644 3.439 8.201 C4.679 17.114 4.679 17.114 3 21 C0.494 23.268 -2.497 23.962 -5.75 24.562 C-7.956 24.992 -8.7 25.227 -10 27 C-10.088 23.655 -10.088 23.655 -9 22 C-6.649 21.143 -4.505 20.751 -2.031 20.359 C0 20 0 20 1 19 C1.102 17.296 1.141 15.642 1.125 13.938 C1.124 13.692 1.124 13.692 1.119 12.448 C1.07 8.241 0.667 4.157 0 0 Z " fill="#595751" transform="translate(299,147)"/>
<path d="M0 0 C3.524 -0.049 7.047 -0.086 10.571 -0.11 C11.77 -0.12 12.969 -0.134 14.168 -0.151 C15.891 -0.175 17.613 -0.186 19.336 -0.195 C19.604 -0.2 19.604 -0.2 20.962 -0.227 C21.212 -0.227 21.212 -0.227 22.478 -0.227 C22.918 -0.231 23.357 -0.236 23.81 -0.241 C25.374 0.076 25.982 0.809 27 2 C25.35 2 23.7 2 22 2 C22 2.66 22 3.32 22 4 C19.494 5.074 18.332 5.12 15.75 4.188 C15.172 3.796 14.595 3.404 14 3 C14 2.34 14 1.68 14 1 C9.38 1 4.76 1 0 1 C0 0.67 0 0.34 0 0 Z " fill="#2A221D" transform="translate(95,195)"/>
<path d="M0 0 C0.452 0.012 0.905 0.023 1.371 0.035 C1.773 0.045 1.773 0.045 3.809 0.098 C3.479 0.758 3.149 1.418 2.809 2.098 C2.149 2.098 1.489 2.098 0.809 2.098 C0.109 4.146 -0.402 6.169 -0.871 8.279 C-1.585 11.059 -2.41 12.982 -4.947 14.621 C-7.509 15.602 -10.081 15.208 -12.754 14.91 C-13.042 14.888 -13.042 14.888 -14.502 14.775 C-17.685 14.478 -19.569 14.031 -22.191 12.098 C-21.722 12.119 -21.253 12.14 -20.77 12.161 C-18.64 12.244 -16.51 12.296 -14.379 12.348 C-13.641 12.381 -12.903 12.415 -12.143 12.449 C-6.857 12.545 -6.857 12.545 -5.032 11.319 C-3.346 9.233 -2.782 7.029 -2.566 4.41 C-2.186 0.179 -2.186 0.179 0 0 Z " fill="#5B5753" transform="translate(223.19140625,232.90234375)"/>
<path d="M0 0 C1.32 0.66 2.64 1.32 4 2 C2.876 3.292 1.751 4.584 0.625 5.875 C0.308 6.24 -0.009 6.605 -0.336 6.98 C-0.951 7.685 -1.568 8.387 -2.189 9.085 C-2.822 9.799 -3.444 10.523 -4.062 11.25 C-5.303 12.243 -6.058 12.207 -7.625 12.125 C-8.409 12.084 -9.192 12.042 -10 12 C-10 11.34 -10 10.68 -10 10 C-9.34 10 -8.68 10 -8 10 C-7.543 8.941 -7.543 8.941 -7.188 7.562 C-6.703 6.164 -6.703 6.164 -6 5 C-4.797 4.586 -4.797 4.586 -3.438 4.438 C-3.035 4.365 -3.035 4.365 -1 4 C-0.188 1.938 -0.188 1.938 0 0 Z " fill="#F3F1EE" transform="translate(276,207)"/>
<path d="M0 0 C2 1 2 1 2.625 2.562 C2.749 3.037 2.873 3.511 3 4 C2.34 4 1.68 4 1 4 C1 4.66 1 5.32 1 6 C0.34 6 -0.32 6 -1 6 C-1.268 6.619 -1.536 7.237 -1.812 7.875 C-3.444 10.795 -4.875 11.013 -8 12 C-6.561 7.252 -3.734 3.268 0 0 Z " fill="#E8E8E4" transform="translate(67,33)"/>
<path d="M0 0 C3.893 0.582 5.999 2.378 8.812 4.938 C9.232 5.298 9.652 5.658 10.084 6.029 C10.475 6.379 10.866 6.729 11.27 7.09 C11.626 7.408 11.983 7.726 12.351 8.054 C12.565 8.366 12.779 8.679 13 9 C12.67 9.66 12.34 10.32 12 11 C11.804 10.7 11.608 10.399 11.406 10.09 C10.335 8.728 9.513 7.867 8 7 C5.804 7.068 3.844 7.43 1.707 7.934 C1.144 7.956 0.58 7.977 0 8 C-1.613 5.267 -0.706 2.903 0 0 Z " fill="#332822" transform="translate(271,113)"/>
<path d="M0 0 C2.062 0.438 2.062 0.438 4 1 C3.67 2.32 3.34 3.64 3 5 C3.66 5.124 4.32 5.248 5 5.375 C5.66 5.581 6.32 5.787 7 6 C7 6.66 7 7.32 7 8 C6.526 7.938 6.051 7.876 5.562 7.812 C5.047 7.874 4.531 7.936 4 8 C3.312 9.5 3.312 9.5 3 11 C2.34 10.67 1.68 10.34 1 10 C1 9.34 1 8.68 1 8 C0.34 8 -0.32 8 -1 8 C-1.33 8.66 -1.66 9.32 -2 10 C-2 8.02 -2 6.04 -2 4 C-1.34 4 -0.68 4 0 4 C-0.093 3.763 -0.093 3.763 -0.562 2.562 C-0.635 2.305 -0.635 2.305 -1 1 C-0.67 0.67 -0.34 0.34 0 0 Z " fill="#2B1E19" transform="translate(286,159)"/>
<path d="M0 0 C0.66 0.33 1.32 0.66 2 1 C1.67 1.66 1.34 2.32 1 3 C1.66 3.33 2.32 3.66 3 4 C1.625 5.062 1.625 5.062 0 6 C-0.66 5.67 -1.32 5.34 -2 5 C-2.098 5.387 -2.196 5.773 -2.297 6.172 C-3.291 9.633 -4.36 11.669 -7.047 14.055 C-8.519 15.514 -9.189 17.108 -10 19 C-10.66 18.67 -11.32 18.34 -12 18 C-12 17.34 -12 16.68 -12 16 C-11.34 16 -10.68 16 -10 16 C-10 15.01 -10 14.02 -10 13 C-9.34 13 -8.68 13 -8 13 C-7.835 12.34 -7.67 11.68 -7.5 11 C-7.335 10.34 -7.17 9.68 -7 9 C-6.34 9 -5.68 9 -5 9 C-4.799 7.795 -4.6 6.59 -4.41 5.383 C-3.721 3.058 -2.094 1.217 0 0 Z " fill="#1F1714" transform="translate(169,128)"/>
<path d="M0 0 C5.28 0.165 5.28 0.165 32 1 C32 1.33 32 1.66 32 2 C26.72 2.165 26.72 2.165 0 3 C0 2.01 0 1.02 0 0 Z " fill="#2D1E1B" transform="translate(201,137)"/>
<path d="M0 0 C1.506 0.421 3.003 0.861 4.5 1.312 C4.929 1.43 5.359 1.548 5.801 1.67 C7.031 2.051 7.031 2.051 9 3 C9.223 4.508 9.223 4.508 9 6 C9.938 7.562 9.938 7.562 11 9 C11.33 9.66 11.66 10.32 12 11 C8.137 10.434 6.339 8.771 3.75 6.062 C3.386 5.702 3.023 5.342 2.648 4.971 C0 2.268 0 2.268 0 0 Z " fill="#150F0C" transform="translate(267,120)"/>
<path d="M0 0 C1.324 1.246 1.324 1.246 1.617 3.41 C1.582 4.222 1.548 5.034 1.512 5.871 C1.485 6.688 1.458 7.506 1.43 8.348 C1.395 8.974 1.36 9.601 1.324 10.246 C-0.66 6.527 -0.66 6.527 -0.801 3.996 C-1.09 3.419 -1.378 2.841 -1.676 2.246 C-3.785 2.077 -5.758 2.192 -7.863 2.398 C-8.461 2.348 -9.06 2.298 -9.676 2.246 C-10.426 0.75 -10.426 0.75 -10.676 -0.754 C-7.215 -2.484 -3.378 -1.52 0 0 Z " fill="#25201B" transform="translate(92.67578125,14.75390625)"/>
<path d="M0 0 C0.992 0.742 0.992 0.742 2 2 C2.195 3.945 2.195 3.945 2.125 6.125 C2.107 6.849 2.089 7.574 2.07 8.32 C2.059 8.597 2.059 8.597 2 10 C0.375 10.054 -1.249 10.094 -2.875 10.125 C-3.105 10.133 -3.105 10.133 -4.27 10.176 C-5.617 10.195 -5.617 10.195 -8 10 C-8.66 9.34 -9.32 8.68 -10 8 C-7.36 7.67 -4.72 7.34 -2 7 C-2.66 6.34 -3.32 5.68 -4 5 C-2.68 5 -1.36 5 0 5 C0 3.35 0 1.7 0 0 Z " fill="#A6A099" transform="translate(79,254)"/>
<path d="M0 0 C-2.099 1.585 -3.424 2.262 -6.062 2.188 C-6.316 2.184 -6.316 2.184 -7.598 2.168 C-9 2 -9 2 -11 1 C-11.66 1.165 -12.32 1.33 -13 1.5 C-15 2 -15 2 -17 1 C-18.329 0.648 -19.662 0.312 -21 0 C-14.923 -3.038 -6.105 -2.601 0 0 Z " fill="#211D1A" transform="translate(218,100)"/>
<path d="M0 0 C0.33 0 0.66 0 1 0 C1.796 3.781 2.108 7.398 2.125 11.25 C2.127 11.468 2.127 11.468 2.139 12.572 C2.128 14.762 1.997 16.006 1 18 C0.34 18 -0.32 18 -1 18 C-1.029 15.563 -1.047 13.125 -1.062 10.688 C-1.071 9.997 -1.079 9.307 -1.088 8.596 C-1.091 7.929 -1.094 7.262 -1.098 6.574 C-1.103 5.962 -1.108 5.349 -1.114 4.718 C-0.998 2.967 -0.7 1.606 0 0 Z " fill="#0F0B07" transform="translate(11,207)"/>
<path d="M0 0 C0.99 0 1.98 0 3 0 C3 0.66 3 1.32 3 2 C3.66 2 4.32 2 5 2 C7.111 6.061 7.158 10.198 6.484 14.617 C6 16 6 16 4 17 C3.975 16.814 3.975 16.814 3.848 15.87 C3.614 14.162 3.37 12.456 3.125 10.75 C3.046 10.163 2.968 9.577 2.887 8.973 C2.393 5.594 1.737 2.949 0 0 Z " fill="#E2E1DA" transform="translate(257,144)"/>
<path d="M0 0 C0.66 0.33 1.32 0.66 2 1 C1.274 2.496 0.537 3.985 -0.223 5.465 C-0.789 6.584 -1.314 7.724 -1.812 8.875 C-3.336 10.319 -4.064 10.173 -6.125 10.188 C-7.084 10.139 -8.043 10.081 -9 10 C-8.064 8.894 -7.126 7.791 -6.188 6.688 C-5.665 6.073 -5.143 5.458 -4.605 4.824 C-4.076 4.222 -3.546 3.62 -3 3 C-2.481 2.408 -1.961 1.817 -1.426 1.207 C-0.955 0.809 -0.485 0.41 0 0 Z " fill="#E7E7E4" transform="translate(181,121)"/>
<path d="M0 0 C2.6 1.808 3.315 3.448 3.875 6.562 C4.214 10.133 3.684 13.101 2.688 16.5 C2.558 16.945 2.428 17.391 2.294 17.85 C1.887 19.094 1.887 19.094 1 21 C0.34 21 -0.32 21 -1 21 C-0.856 20.443 -0.711 19.886 -0.562 19.312 C0.994 12.913 2.14 6.42 0 0 Z " fill="#5C5A55" transform="translate(300,177)"/>
<path d="M0 0 C-0.309 0.578 -0.619 1.155 -0.938 1.75 C-2 4 -2 4 -2.438 6.188 C-3 8 -3 8 -4.375 8.875 C-6 9 -6 9 -7.688 8.25 C-9 7 -9 7 -9.188 5.375 C-9.126 4.921 -9.064 4.468 -9 4 C-8.34 4 -7.68 4 -7 4 C-7 4.66 -7 5.32 -7 6 C-6.34 6 -5.68 6 -5 6 C-4.375 4 -4.375 4 -4 2 C-5.98 2.33 -7.96 2.66 -10 3 C-7.296 -0.818 -4.261 -0.315 0 0 Z " fill="#19100B" transform="translate(264,107)"/>
<path d="M0 0 C0.66 0 1.32 0 2 0 C0.457 4.139 -1.502 7.942 -3.625 11.812 C-3.787 12.111 -3.787 12.111 -4.609 13.623 C-5.404 15.083 -6.201 16.542 -7 18 C-8.004 14.928 -8.059 13.271 -6.75 10.312 C-6.497 9.711 -6.245 9.109 -5.984 8.488 C-4.783 6.672 -3.999 6.665 -2 6 C-1.34 4.59 -1.34 4.59 -0.938 2.938 C-0.527 1.277 -0.527 1.277 0 0 Z " fill="#0F0A09" transform="translate(167,133)"/>
</svg>
