<?xml version="1.0" encoding="UTF-8"?>
<!-- Generator: visioncortex VTracer 0.6.12 -->
<svg version="1.1" xmlns="http://www.w3.org/2000/svg" width="263" height="263">
<path d="M0 0 C0.755 0.137 1.511 0.273 2.289 0.414 C4.764 1.554 5.621 2.561 6.866 4.935 C7.766 7.481 7.557 9.79 7.25 12.438 C7.194 12.998 7.137 13.559 7.079 14.137 C5.187 30.935 5.187 30.935 -0.344 35.508 C-1.625 36.375 -1.625 36.375 -3.159 37.151 C-4.625 38.375 -4.625 38.375 -5.149 40.368 C-5.217 41.177 -5.285 41.986 -5.355 42.82 C-5.396 43.262 -5.436 43.704 -5.478 44.16 C-5.605 45.606 -5.71 47.052 -5.812 48.5 C-5.892 49.504 -5.972 50.508 -6.052 51.512 C-7.154 65.938 -7.103 80.072 -4.012 94.277 C-3.818 95.205 -3.626 96.134 -3.438 97.062 C-3.39 97.291 -3.39 97.291 -3.149 98.446 C-2.568 101.849 -2.7 105.039 -3.039 108.461 C-3.079 108.91 -3.12 109.359 -3.161 109.822 C-3.368 112.098 -3.622 114.35 -3.958 116.61 C-4.243 119.012 -4.366 121.029 -3.625 123.375 C-1.377 124.759 0.603 125.339 3.166 125.849 C5.913 126.503 7.154 127.405 8.652 129.754 C12.069 137.418 11.609 143.514 8.703 151.316 C5.908 158.076 2.211 162.579 -4.598 165.684 C-6.625 166.375 -6.625 166.375 -7.947 166.488 C-9.305 166.609 -9.305 166.609 -11.625 167.375 C-12.504 169.236 -12.549 171.154 -12.688 173.188 C-12.824 174.377 -12.969 175.566 -13.121 176.754 C-13.16 177.056 -13.16 177.056 -13.355 178.586 C-14.713 187.58 -18.187 195.812 -25.625 201.375 C-32.199 205.575 -38.853 205.518 -46.415 205.24 C-52.3 205.126 -52.3 205.126 -55 207.562 C-55.416 208.019 -55.833 208.475 -56.262 208.945 C-59.094 211.915 -62.975 213.594 -66.625 215.375 C-66.811 215.47 -66.811 215.47 -67.75 215.95 C-75.413 219.748 -83.615 220.173 -92.009 220.78 C-92.479 220.814 -92.95 220.849 -93.435 220.884 C-94.323 220.946 -95.211 221.005 -96.099 221.059 C-100.225 221.336 -103.217 221.962 -106.566 224.406 C-111.386 227.242 -116.385 226.976 -121.822 226.896 C-123.557 226.875 -125.287 226.896 -127.021 226.922 C-133.148 226.936 -137.59 226.501 -142.942 223.351 C-145.316 221.974 -147.719 221.358 -150.375 220.75 C-153.016 220.122 -155.318 219.536 -157.738 218.27 C-159.864 217.262 -160.787 217.251 -163.062 217.688 C-163.618 217.787 -164.174 217.886 -164.746 217.988 C-166.174 218.282 -167.599 218.588 -169.023 218.898 C-177.223 220.524 -185.43 219.858 -192.625 215.375 C-198.607 210.967 -201.254 206.181 -202.416 199.014 C-202.752 196.381 -202.77 193.776 -202.75 191.125 C-202.752 190.561 -202.755 189.996 -202.757 189.415 C-202.746 186.77 -202.656 184.231 -202.188 181.625 C-201.417 177.317 -201.231 174.409 -203.652 170.677 C-204.464 169.55 -205.312 168.467 -206.18 167.383 C-209.488 162.787 -209.16 156.826 -208.625 151.375 C-205.825 136.243 -191.176 121.746 -179.006 113.123 C-176.579 111.485 -174.13 109.892 -171.625 108.375 C-173.576 106.892 -175.516 105.448 -177.555 104.086 C-184.486 99.326 -190.248 92.341 -191.922 83.874 C-193.632 71.702 -193.632 71.702 -190.867 66.723 C-188.102 63.723 -184.384 62.639 -180.625 61.375 C-179.34 60.925 -178.055 60.474 -176.77 60.023 C-174.114 59.108 -171.455 58.203 -168.785 57.328 C-168.224 57.144 -167.664 56.96 -167.086 56.771 C-165.625 56.375 -165.625 56.375 -163.625 56.375 C-163.63 55.977 -163.63 55.977 -163.657 53.963 C-163.693 50.963 -163.716 47.962 -163.735 44.961 C-163.745 43.672 -163.758 42.382 -163.776 41.092 C-164.04 21.116 -164.04 21.116 -160.804 17.442 C-159.023 15.934 -157.916 15.403 -155.558 15.176 C-149.97 15.923 -145.352 17.432 -140.312 19.938 C-139.578 20.295 -138.843 20.652 -138.085 21.02 C-131.53 24.281 -125.497 28.014 -119.625 32.375 C-119.138 32.727 -118.65 33.079 -118.148 33.441 C-112.992 37.195 -108.366 40.994 -104.938 46.438 C-104.693 46.812 -104.449 47.187 -104.198 47.574 C-102.095 51.307 -102.032 55.2 -102.625 59.375 C-103.465 62.137 -104.542 64.733 -105.768 67.339 C-106.312 68.499 -106.828 69.667 -107.342 70.84 C-109.648 75.975 -112.389 81.757 -117.625 84.375 C-120.095 84.935 -122.168 85.026 -124.625 84.375 C-127.021 82.287 -128.806 79.988 -130.625 77.375 C-130.941 78.874 -131.253 80.374 -131.562 81.875 C-131.65 82.285 -131.737 82.695 -131.826 83.117 C-132.4 85.92 -132.811 88.72 -133.158 91.561 C-133.246 92.276 -133.334 92.992 -133.425 93.729 C-133.458 94.001 -133.458 94.001 -133.625 95.375 C-124.949 95.422 -116.273 95.457 -107.597 95.479 C-103.567 95.489 -99.537 95.503 -95.508 95.526 C-91.611 95.548 -87.714 95.56 -83.817 95.565 C-82.338 95.568 -80.86 95.576 -79.381 95.586 C-72.634 95.634 -65.978 95.67 -59.316 94.488 C-58.877 94.41 -58.439 94.332 -57.987 94.252 C-55.484 93.738 -53.592 93.02 -51.625 91.375 C-48.252 82.411 -47.565 70.559 -49.152 61.203 C-49.589 58.326 -49.631 55.618 -49.512 52.711 C-49.481 51.899 -49.451 51.087 -49.42 50.25 C-49.37 48.993 -49.312 47.74 -49.227 46.485 C-48.774 39.424 -48.774 39.424 -50.937 36.758 C-52.562 35.434 -52.562 35.434 -54.195 34.365 C-56.947 32.46 -57.297 29.923 -57.957 26.809 C-58.715 22.128 -58.818 17.358 -58.938 12.625 C-58.952 12.3 -58.952 12.3 -59.028 10.655 C-59.067 7.45 -59.032 5.355 -56.73 2.984 C-53.398 0.144 -50.787 0.264 -46.625 0.562 C-46.044 0.604 -45.463 0.645 -44.865 0.687 C-41.008 1.043 -37.777 1.859 -34.25 3.438 C-27.922 6.214 -24.163 6.052 -17.749 3.627 C-16.06 2.961 -14.386 2.266 -12.711 1.566 C-8.339 -0.192 -4.73 -0.959 0 0 Z " fill="#1B120D" transform="translate(225.625,17.625)"/>
<path d="M0 0 C2.83 -0.025 5.66 -0.043 8.49 -0.055 C9.453 -0.06 10.416 -0.067 11.38 -0.075 C12.762 -0.088 14.145 -0.093 15.527 -0.098 C15.96 -0.103 16.392 -0.108 16.837 -0.113 C17.892 -0.113 18.947 -0.061 20 0 C23.921 3.921 23.179 15.085 23.195 20.297 C23.189 22.782 23.159 25.266 23.125 27.75 C23.115 29.044 23.106 30.339 23.098 31.633 C23.076 34.755 23.042 37.878 23 41 C22.385 41.037 21.77 41.075 21.137 41.113 C20.328 41.179 19.52 41.245 18.688 41.312 C17.887 41.371 17.086 41.429 16.262 41.488 C12.95 42.238 11.658 43.976 9.875 46.75 C7.814 52.049 7.84 57.817 7.875 63.438 C7.871 64.054 7.867 64.671 7.863 65.307 C7.873 69.932 8.339 74.425 9 79 C8.647 79.005 8.647 79.005 6.86 79.028 C4.228 79.068 1.597 79.134 -1.034 79.208 C-2.171 79.236 -3.308 79.257 -4.444 79.271 C-6.084 79.293 -7.721 79.339 -9.359 79.391 C-9.612 79.391 -9.612 79.391 -10.888 79.394 C-13.697 79.51 -15.24 79.925 -17.29 81.913 C-19.268 84.108 -20.129 85.903 -20.078 88.87 C-20.072 89.448 -20.067 90.026 -20.061 90.621 C-20.052 91.245 -20.044 91.869 -20.035 92.512 C-20.039 93.841 -20.045 95.169 -20.053 96.498 C-20.063 98.588 -20.063 100.675 -20.024 102.764 C-19.823 114.929 -19.823 114.929 -22.641 118.435 C-25.969 121.761 -30.251 124.069 -34.75 125.375 C-34.978 125.45 -34.978 125.45 -36.129 125.832 C-37.414 126.251 -38.697 126.64 -40 127 C-40.623 127.178 -41.245 127.356 -41.887 127.539 C-44.104 128.023 -46.061 128.114 -48.328 128.098 C-49.127 128.094 -49.927 128.091 -50.75 128.088 C-51.583 128.08 -52.417 128.071 -53.25 128.062 C-54.099 128.057 -54.948 128.053 -55.797 128.049 C-57.865 128.037 -59.932 128.021 -62 128 C-62.014 127.264 -62.028 126.528 -62.043 125.77 C-62.09 124.784 -62.138 123.798 -62.188 122.812 C-62.193 122.33 -62.199 121.847 -62.205 121.35 C-62.421 117.78 -63.494 115.35 -66.178 112.944 C-69.906 111.012 -74.082 111.346 -78.192 111.458 C-79.799 111.5 -81.402 111.499 -83.01 111.492 C-89.087 111.53 -96.409 111.594 -101.109 116.052 C-103.926 119.77 -104.259 125.513 -105 130 C-112.639 128.356 -117.486 125.565 -123 120 C-123.897 119.125 -124.796 118.252 -125.695 117.379 C-130.058 113.113 -134.297 108.794 -138.227 104.125 C-140.479 101.491 -142.922 99.09 -145.408 96.677 C-160.306 82.154 -160.306 82.154 -160.517 74.998 C-159.874 63.842 -150.308 54.343 -142.458 47.274 C-118.011 25.92 -118.011 25.92 -107.383 25.855 C-106.657 25.848 -105.931 25.841 -105.183 25.834 C-104.392 25.832 -103.6 25.829 -102.784 25.826 C-101.938 25.82 -101.092 25.813 -100.246 25.806 C-98.425 25.792 -96.605 25.78 -94.785 25.77 C-91.901 25.755 -89.017 25.731 -86.133 25.705 C-77.934 25.634 -69.734 25.574 -61.534 25.523 C-57.003 25.495 -52.473 25.459 -47.942 25.417 C-45.082 25.39 -42.221 25.372 -39.36 25.361 C-37.571 25.351 -35.783 25.334 -33.994 25.314 C-32.782 25.303 -31.57 25.302 -30.359 25.301 C-26.138 25.246 -22.512 24.791 -18.507 23.43 C-15.845 22.67 -14.507 22.77 -12 24 C-11.13 26.165 -11.194 28.254 -11.25 30.562 C-11.261 31.231 -11.272 31.899 -11.283 32.587 C-11.99 45.911 -20 57.78 -28 68 C-28.342 68.44 -28.684 68.879 -29.036 69.332 C-33.603 75.098 -38.552 79.452 -45 83 C-45.4 83.221 -45.801 83.443 -46.213 83.671 C-49.383 85.371 -52.635 86.735 -56 88 C-56.507 88.199 -57.014 88.398 -57.536 88.603 C-67.657 92.382 -77.96 92.397 -88.625 92.438 C-88.981 92.441 -88.981 92.441 -90.784 92.456 C-92.849 92.468 -94.912 92.455 -96.977 92.434 C-97.286 92.435 -97.286 92.435 -98.85 92.442 C-103.897 92.335 -107.788 90.877 -111.652 87.598 C-113.175 85.779 -114.623 83.93 -116 82 C-116.338 81.533 -116.677 81.066 -117.025 80.584 C-118.119 79.038 -119.158 77.465 -120.188 75.875 C-120.54 75.372 -120.892 74.87 -121.256 74.352 C-122.185 72.839 -122.791 71.766 -123 70 C-121.745 67.87 -119.909 66.532 -118 65 C-117.155 64.167 -116.321 63.322 -115.5 62.465 C-114.667 61.622 -113.833 60.78 -113 59.938 C-112.588 59.517 -112.175 59.096 -111.75 58.662 C-110.518 57.421 -109.266 56.206 -108 55 C-107.588 54.593 -107.175 54.186 -106.75 53.766 C-104.594 51.804 -103.557 51.022 -100.574 50.902 C-96.963 52.027 -94.434 54.972 -91.812 57.562 C-87.34 61.852 -82.818 65.91 -77.896 69.676 C-76.915 70.432 -75.955 71.213 -75 72 C-75 72.33 -75 72.66 -75 73 C-77.83 73.099 -80.659 73.171 -83.49 73.22 C-84.453 73.24 -85.417 73.267 -86.38 73.302 C-87.763 73.35 -89.144 73.373 -90.527 73.391 C-90.744 73.401 -90.744 73.401 -91.837 73.453 C-93.051 73.454 -93.051 73.454 -95 73 C-95.842 71.038 -95.842 71.038 -96 69 C-95.67 68.67 -95.34 68.34 -95 68 C-94.902 66.809 -94.902 66.809 -94.938 65.438 C-94.958 64.633 -94.979 63.829 -95 63 C-95.784 62.938 -96.567 62.876 -97.375 62.812 C-97.816 62.778 -98.257 62.743 -98.711 62.707 C-100 63 -100 63 -101.145 64.238 C-102.195 66.401 -102.3 67.975 -102.312 70.375 C-102.329 71.125 -102.346 71.875 -102.363 72.648 C-101.691 77 -101.691 77 -100.363 79.014 C-96.97 81.468 -91.638 80.623 -87.625 80.5 C-86.534 80.481 -85.443 80.463 -84.352 80.444 C-78.519 80.308 -72.726 80.005 -67 78.812 C-66.474 78.712 -65.947 78.611 -65.405 78.508 C-64 78.145 -64 78.145 -62 77 C-61.315 75.201 -61.343 73.806 -62 72 C-63.73 70.922 -63.73 70.922 -66 70 C-67.534 68.858 -68.912 67.551 -70.312 66.25 C-70.522 66.059 -70.522 66.059 -71.579 65.095 C-73.996 62.881 -76.386 60.639 -78.769 58.388 C-79.751 57.461 -80.734 56.534 -81.718 55.608 C-83.003 54.398 -84.282 53.182 -85.558 51.962 C-96.262 41.792 -96.262 41.792 -101.113 41.477 C-104.425 41.794 -106.636 43.348 -109.188 45.375 C-109.42 45.552 -109.42 45.552 -110.594 46.449 C-114.149 49.212 -117.573 52.133 -120.938 55.125 C-121.386 55.52 -121.834 55.915 -122.296 56.322 C-126.244 59.94 -130.117 63.794 -130.535 69.379 C-130.248 73.901 -127.898 77.257 -125.438 80.938 C-124.976 81.646 -124.516 82.354 -124.056 83.063 C-113.997 98.393 -113.997 98.393 -105.644 100.312 C-84.835 103.578 -61.721 102.059 -43 92 C-42.195 91.593 -41.389 91.186 -40.582 90.781 C-23.72 82.114 -10.219 62.783 -4.027 45.156 C-2.615 40.28 -2.481 35.419 -2.5 30.375 C-2.501 29.943 -2.503 29.512 -2.504 29.067 C-2.584 21.495 -2.584 21.495 -4.145 18.188 C-5 16 -5 16 -4.355 13.789 C-3.97 13.075 -3.585 12.361 -3.188 11.625 C-1.132 7.766 -0.451 4.347 0 0 Z " fill="#F9F9F7" transform="translate(187,98)"/>
<path d="M0 0 C3.14 1.191 4.827 2.47 6.391 5.477 C9.316 12.789 7.422 19.439 4.658 26.492 C1.994 32.601 -1.85 36.516 -7.973 39.309 C-10 40 -10 40 -11.322 40.113 C-12.68 40.234 -12.68 40.234 -15 41 C-15.879 42.861 -15.924 44.779 -16.062 46.812 C-16.199 48.002 -16.344 49.191 -16.496 50.379 C-16.535 50.681 -16.535 50.681 -16.73 52.211 C-18.088 61.205 -21.562 69.437 -29 75 C-35.574 79.2 -42.228 79.143 -49.79 78.865 C-55.675 78.751 -55.675 78.751 -58.375 81.188 C-58.791 81.644 -59.208 82.1 -59.637 82.57 C-62.469 85.54 -66.35 87.219 -70 89 C-70.371 89.19 -70.743 89.38 -71.125 89.575 C-78.788 93.373 -86.99 93.798 -95.384 94.405 C-95.854 94.439 -96.325 94.474 -96.81 94.509 C-97.698 94.571 -98.586 94.63 -99.474 94.684 C-103.6 94.961 -106.592 95.587 -109.941 98.031 C-114.761 100.867 -119.76 100.601 -125.197 100.521 C-126.932 100.5 -128.662 100.521 -130.396 100.547 C-136.523 100.561 -140.965 100.126 -146.317 96.976 C-148.691 95.599 -151.094 94.983 -153.75 94.375 C-156.391 93.747 -158.693 93.161 -161.113 91.895 C-163.239 90.887 -164.162 90.876 -166.438 91.312 C-166.715 91.362 -166.715 91.362 -168.121 91.613 C-169.541 91.905 -170.957 92.214 -172.371 92.531 C-175.129 93.082 -177.818 93.184 -180.625 93.188 C-181.102 93.2 -181.579 93.212 -182.07 93.225 C-182.534 93.227 -182.998 93.228 -183.477 93.23 C-183.89 93.235 -184.303 93.239 -184.729 93.243 C-186 93 -186 93 -189 91 C-185.7 91 -182.4 91 -179 91 C-179.495 90.67 -179.495 90.67 -182 89 C-181.312 87 -181.312 87 -180 85 C-178.215 84.62 -176.846 84.806 -175 85 C-175 84.34 -175 83.68 -175 83 C-175.362 82.966 -175.725 82.931 -176.098 82.896 C-188.542 81.619 -188.542 81.619 -192.949 77.512 C-196.086 72.999 -196.268 69.024 -196.125 63.688 C-196.116 63.042 -196.107 62.397 -196.098 61.732 C-196.074 60.155 -196.042 58.577 -196 57 C-192.327 58.533 -189.985 60.774 -187.25 63.625 C-186.839 64.045 -186.428 64.465 -186.004 64.898 C-184.998 65.928 -183.997 66.962 -183 68 C-182.34 67.01 -181.68 66.02 -181 65 C-181.66 65 -182.32 65 -183 65 C-183 64.34 -183 63.68 -183 63 C-182.34 63 -181.68 63 -181 63 C-181 62.01 -181 61.02 -181 60 C-181.66 60 -182.32 60 -183 60 C-183.625 58.5 -183.625 58.5 -184 57 C-181.513 56.738 -180.383 56.702 -178.372 58.266 C-177.851 58.85 -177.33 59.434 -176.793 60.035 C-176.504 60.351 -176.216 60.668 -175.919 60.994 C-174.998 62.008 -174.092 63.034 -173.188 64.062 C-172.592 64.727 -171.995 65.39 -171.396 66.053 C-171.101 66.38 -170.806 66.707 -170.502 67.044 C-169.005 68.699 -167.506 70.352 -166 72 C-165.702 72.328 -165.405 72.655 -165.098 72.993 C-161.488 76.929 -158.297 79.953 -153.062 81.438 C-152.569 81.597 -152.076 81.756 -151.568 81.92 C-150.385 82.299 -149.193 82.653 -148 83 C-147.93 82.657 -147.86 82.315 -147.788 81.962 C-147.457 80.388 -147.104 78.819 -146.75 77.25 C-146.64 76.711 -146.531 76.172 -146.418 75.617 C-145.534 71.802 -144.365 69.166 -141 67 C-135.589 64.381 -129.372 64.628 -123.493 64.629 C-121.87 64.625 -120.251 64.588 -118.629 64.551 C-109.978 64.457 -109.978 64.457 -106.82 66.898 C-105.272 68.444 -104.093 69.984 -103.886 72.237 C-103.889 72.462 -103.889 72.462 -103.902 73.602 C-103.904 73.846 -103.904 73.846 -103.912 75.086 C-103.916 75.34 -103.916 75.34 -103.938 76.625 C-103.942 77.141 -103.947 77.656 -103.951 78.188 C-103.963 79.458 -103.981 80.729 -104 82 C-89.129 81.709 -75.062 81.062 -64 70 C-63.869 68.781 -63.869 68.781 -63.858 67.228 C-63.855 66.937 -63.855 66.937 -63.837 65.467 C-63.835 65.151 -63.835 65.151 -63.824 63.551 C-63.801 62.214 -63.777 60.878 -63.752 59.541 C-63.717 57.432 -63.688 55.324 -63.674 53.215 C-63.658 51.18 -63.618 49.147 -63.574 47.113 C-63.576 46.491 -63.578 45.869 -63.58 45.228 C-63.456 40.723 -62.227 37.265 -59 34 C-58.34 34 -57.68 34 -57 34 C-57.309 34.598 -57.619 35.196 -57.938 35.812 C-58.778 37.544 -59.449 39.164 -60 41 C-59.34 41 -58.68 41 -58 41 C-57.67 51.23 -57.34 61.46 -57 72 C-54.705 63.969 -54.705 63.969 -54.621 59.539 C-54.604 59.063 -54.587 58.587 -54.57 58.097 C-54.517 56.606 -54.477 55.116 -54.438 53.625 C-54.393 52.113 -54.347 50.601 -54.295 49.089 C-54.263 48.156 -54.236 47.222 -54.214 46.288 C-54.112 43.112 -54.112 43.112 -53 42 C-51.893 41.88 -51.893 41.88 -50.5 41.886 C-49.979 41.887 -49.459 41.887 -48.923 41.887 C-48.641 41.889 -48.641 41.889 -47.215 41.902 C-46.639 41.904 -46.063 41.905 -45.47 41.907 C-43.626 41.912 -41.782 41.925 -39.938 41.938 C-38.689 41.943 -37.441 41.947 -36.193 41.951 C-33.129 41.962 -30.064 41.979 -27 42 C-29.006 60.014 -29.006 60.014 -36 66 C-40.109 68.923 -46.141 68.641 -51 69 C-49.68 69.99 -48.36 70.98 -47 72 C-47.75 73.563 -47.75 73.563 -49 75 C-51.125 74.688 -51.125 74.688 -53 74 C-53 74.66 -53 75.32 -53 76 C-42.727 76.669 -34.509 76.602 -26.457 69.672 C-20.266 62.433 -17.215 49.735 -17.824 40.406 C-17.853 40.174 -17.853 40.174 -18 39 C-17.588 38.986 -17.175 38.972 -16.75 38.957 C-10.074 38.406 -4.759 35.144 -0.188 30.312 C4.113 24.647 5.59 17.033 5.367 10.043 C4.77 6.722 3.09 4.56 1 2 C0.67 1.34 0.34 0.68 0 0 Z " fill="#261D17" transform="translate(229,144)"/>
<path d="M0 0 C0.66 0 1.32 0 2 0 C2.988 1.977 3.123 2.681 3.114 4.797 C3.113 5.358 3.113 5.918 3.113 6.496 C3.108 7.098 3.103 7.7 3.098 8.32 C3.096 8.939 3.095 9.558 3.093 10.195 C3.088 12.172 3.075 14.148 3.062 16.125 C3.057 17.465 3.053 18.805 3.049 20.145 C3.038 23.43 3.021 26.715 3 30 C2.34 29.67 1.68 29.34 1 29 C0.951 29.361 0.902 29.722 0.852 30.094 C0.777 30.558 0.702 31.022 0.625 31.5 C0.555 31.964 0.486 32.428 0.414 32.906 C0.277 33.267 0.141 33.628 0 34 C-0.66 34 -1.32 34 -2 34 C-2.703 35.023 -2.703 35.023 -3.25 36.375 C-3.441 36.816 -3.632 37.257 -3.828 37.711 C-3.856 37.924 -3.856 37.924 -4 39 C-3.047 40.164 -3.047 40.164 -2 41 C-7.054 43.399 -12.131 45.477 -17.438 47.25 C-17.957 47.425 -18.477 47.6 -19.013 47.78 C-21.133 48.474 -22.748 49 -25 49 C-20.99 67.226 -20.99 67.226 -14.554 71.684 C-8.484 75.483 -3.662 75.671 3.312 74.438 C3.537 74.385 3.537 74.385 4.676 74.121 C6.437 73.96 7.443 74.151 9 75 C9.449 76.629 9.449 76.629 9.688 78.562 C10.129 80.477 10.129 80.477 11 82 C13.732 82.662 16.238 82.405 19 82 C19 82.33 19 82.66 19 83 C18.322 83.014 17.644 83.028 16.945 83.043 C-1.107 83.805 -17.689 98.955 -29.499 111.568 C-31.07 113.325 -32.551 115.141 -34 117 C-34.514 117.643 -35.029 118.286 -35.559 118.949 C-38.922 123.647 -40.834 128.762 -40.313 134.577 C-38.958 140.739 -33.336 145.75 -28.98 149.961 C-28.476 150.449 -27.972 150.937 -27.452 151.439 C-26.458 152.381 -25.448 153.305 -24.419 154.209 C-21.038 157.326 -21.038 157.326 -20.918 159.431 C-21.191 160.82 -21.191 160.82 -22 163 C-21.34 163 -20.68 163 -20 163 C-20 163.99 -20 164.98 -20 166 C-20.66 166 -21.32 166 -22 166 C-22 166.66 -22 167.32 -22 168 C-21.34 168 -20.68 168 -20 168 C-20.33 168.66 -20.33 168.66 -22 172 C-22.323 171.672 -22.645 171.344 -22.978 171.006 C-24.441 169.522 -25.908 168.042 -27.375 166.562 C-27.629 166.304 -27.629 166.304 -28.914 164.998 C-29.159 164.752 -29.159 164.752 -30.398 163.504 C-30.624 163.276 -30.624 163.276 -31.763 162.123 C-33 161 -33 161 -35 160 C-34.918 162.21 -34.805 164.417 -34.688 166.625 C-34.665 167.242 -34.642 167.86 -34.619 168.496 C-34.349 173.157 -33.394 177.547 -30.026 180.998 C-26.407 183.871 -22.745 184.214 -18.312 184.562 C-17.801 184.606 -17.29 184.649 -16.764 184.693 C-15.509 184.799 -14.255 184.9 -13 185 C-13.344 186.504 -13.344 186.504 -14 188 C-15.156 188.152 -15.156 188.152 -16.5 187.938 C-17.855 187.84 -17.855 187.84 -19 188 C-19.812 190 -19.812 190 -20 192 C-19.34 192 -18.68 192 -18 192 C-18 192.66 -18 193.32 -18 194 C-31.712 194.793 -31.712 194.793 -35.73 191.32 C-35.94 191.102 -35.94 191.102 -37 190 C-37.532 189.502 -38.065 189.005 -38.613 188.492 C-45.009 181.928 -45.192 174.537 -45.187 165.877 C-45.146 163.294 -45.015 160.807 -44.559 158.262 C-43.796 153.95 -43.604 151.037 -46.027 147.302 C-46.839 146.175 -47.687 145.092 -48.555 144.008 C-51.863 139.412 -51.535 133.451 -51 128 C-48.2 112.868 -33.551 98.371 -21.381 89.748 C-18.954 88.11 -16.505 86.517 -14 85 C-15.951 83.517 -17.891 82.073 -19.93 80.711 C-26.861 75.951 -32.623 68.966 -34.297 60.499 C-36.007 48.327 -36.007 48.327 -33.242 43.348 C-30.477 40.348 -26.759 39.264 -23 38 C-21.715 37.55 -20.43 37.099 -19.145 36.648 C-16.489 35.733 -13.83 34.828 -11.16 33.953 C-10.599 33.769 -10.039 33.585 -9.461 33.396 C-8 33 -8 33 -6 33 C-6.004 32.658 -6.009 32.316 -6.013 31.964 C-6.058 28.395 -6.088 24.826 -6.11 21.257 C-6.12 19.926 -6.134 18.595 -6.151 17.265 C-6.175 15.348 -6.187 13.432 -6.195 11.516 C-6.206 10.924 -6.216 10.332 -6.227 9.722 C-6.228 6.234 -5.848 3.979 -4 1 C-3.34 1.33 -2.68 1.66 -2 2 C-2 2.66 -2 3.32 -2 4 C-1.34 4 -0.68 4 0 4 C-0.186 3.526 -0.371 3.051 -0.562 2.562 C-0.707 2.047 -0.851 1.531 -1 1 C-0.67 0.67 -0.34 0.34 0 0 Z " fill="#1D1510" transform="translate(68,41)"/>
<path d="M0 0 C1.734 0.946 2.87 1.722 4.312 3 C4.718 3.34 5.123 3.679 5.541 4.029 C10.769 8.501 15.727 13.317 20.671 18.1 C21.365 18.766 22.059 19.432 22.754 20.098 C23.094 20.425 23.435 20.752 23.786 21.089 C25.612 22.809 27.474 24.391 29.496 25.878 C29.702 26.03 29.702 26.03 30.745 26.8 C31.534 27.372 32.333 27.931 33.141 28.476 C35.179 29.942 36.288 31.189 36.94 33.582 C37 36 37 36 35.869 37.244 C33.639 38.146 31.451 38.694 29.09 39.094 C28.85 39.135 28.85 39.135 27.637 39.346 C22.485 40.176 17.349 40.441 12.136 40.48 C10.537 40.5 8.943 40.563 7.346 40.625 C0.025 40.777 0.025 40.777 -2.594 38.792 C-5.655 34.528 -5.788 30.062 -5 25 C-4.269 22.891 -3.826 22.448 -2 21 C-0.149 20.615 1.074 20.747 3 21 C4.407 22.407 4.121 23.648 4.133 25.551 C3.963 27.398 3.45 29.2 3 31 C9.27 31 15.54 31 22 31 C15.7 25.648 15.7 25.648 12.609 23.051 C10.33 21.132 8.07 19.193 5.828 17.23 C4.865 16.403 3.901 15.577 2.938 14.75 C2.498 14.356 2.058 13.961 1.604 13.555 C-1.389 11.021 -1.389 11.021 -3.938 10.934 C-7.074 12.555 -9.41 14.873 -11.938 17.312 C-12.966 18.289 -13.996 19.265 -15.027 20.238 C-15.523 20.71 -16.02 21.181 -16.531 21.667 C-18.274 23.249 -20.109 24.661 -22.022 26.032 C-23.326 27.322 -23.723 28.183 -24 30 C-23.275 31.654 -23.275 31.654 -22.086 33.434 C-21.654 34.083 -21.222 34.732 -20.777 35.4 C-20.315 36.073 -19.852 36.745 -19.375 37.438 C-18.935 38.106 -18.496 38.774 -18.043 39.463 C-14.825 44.224 -11.685 48.356 -6 50 C-4.532 50.147 -4.532 50.147 -2.976 50.177 C-2.386 50.19 -1.797 50.202 -1.19 50.215 C-0.556 50.223 0.078 50.23 0.73 50.238 C1.393 50.248 2.056 50.258 2.74 50.268 C26.403 50.548 47.573 48.472 65.68 31.418 C66.074 31.012 66.469 30.606 66.875 30.188 C67.285 29.769 67.695 29.35 68.117 28.918 C68.409 28.615 68.7 28.312 69 28 C69.33 28.495 69.33 28.495 71 31 C69.68 31.66 68.36 32.32 67 33 C69 33 69 33 71 32 C70.67 33.98 70.34 35.96 70 38 C70.66 38 71.32 38 72 38 C70.472 41.94 68.034 43.947 64.688 46.438 C64.16 46.831 63.632 47.225 63.089 47.631 C57.908 51.332 52.488 53.563 46.465 55.521 C45.143 55.953 43.837 56.415 42.531 56.895 C32.937 60.324 23.942 61.331 13.832 61.261 C12.002 61.25 10.173 61.261 8.344 61.273 C-10.726 61.299 -10.726 61.299 -17.355 54.887 C-20.289 51.641 -22.719 48.038 -25.094 44.375 C-26.034 42.948 -27.011 41.553 -27.996 40.156 C-34.221 31.172 -34.221 31.172 -33.672 26.734 C-29.823 16.798 -19.027 9.06 -10.75 2.938 C-10.362 2.638 -9.974 2.339 -9.575 2.031 C-6.502 -0.144 -3.722 -0.735 0 0 Z " fill="#1B130F" transform="translate(89,139)"/>
<path d="M0 0 C3.348 0.564 5.956 1.299 8.969 2.934 C9.326 3.127 9.684 3.32 10.052 3.52 C11.207 4.15 12.354 4.792 13.5 5.438 C13.894 5.657 14.289 5.877 14.695 6.104 C22.323 10.375 29.401 15.245 36 21 C36.493 21.415 36.985 21.829 37.493 22.257 C38.815 23.446 39.966 24.554 41 26 C41.008 28.105 41.008 28.105 40.125 30.188 C39.973 30.562 39.821 30.936 39.664 31.322 C39.144 32.566 38.576 33.781 38 35 C37.795 35.457 37.589 35.915 37.377 36.386 C36.747 37.786 36.098 39.176 35.438 40.562 C35.228 41.004 35.019 41.446 34.803 41.901 C34.184 43.129 34.184 43.129 33 45 C32.34 45 31.68 45 31 45 C30.194 43.87 30.194 43.87 29.414 42.297 C29.123 41.728 28.831 41.16 28.531 40.574 C27.935 39.374 27.339 38.173 26.742 36.973 C24.894 33.365 23.156 30.588 20 28 C17.782 28.19 16.585 28.415 15 30 C14.665 31.597 14.383 33.174 14.133 34.785 C13.97 35.794 13.807 36.803 13.645 37.812 C13.602 38.077 13.602 38.077 13.389 39.421 C13.125 41.065 12.847 42.706 12.566 44.346 C11.734 49.241 10.95 54.102 10.492 59.047 C9.636 67.159 9.636 67.159 8 70 C4.959 72.454 1.25 72.78 -2.536 72.937 C-4 73 -4 73 -6.215 73.348 C-11.903 73.987 -16.562 71.217 -20.971 67.885 C-23.516 65.696 -24.78 63.066 -26 60 C-26.295 59.336 -26.59 58.672 -26.895 57.988 C-27.734 55.977 -28.478 54.117 -29 52 C-29.074 51.763 -29.074 51.763 -29.448 50.561 C-29.804 48.658 -29.848 47.758 -29 46 C-25.693 44.056 -22.095 43.04 -18.438 41.938 C-15.02 40.869 -11.629 39.758 -8.282 38.484 C-7.11 38.042 -5.925 37.635 -4.739 37.232 C-2.326 36.07 -1.364 35.329 0 33 C1.133 27.497 0.654 21.763 0.438 16.188 C0.402 14.621 0.37 13.053 0.342 11.486 C0.265 7.656 0.148 3.828 0 0 Z " fill="#D4D3CE" transform="translate(72,44)"/>
<path d="M0 0 C3.777 1.584 3.777 1.584 4.645 3.203 C6.24 11.268 4.158 22.473 1 30 C-0.771 32.634 -2.71 34.347 -5.534 35.776 C-7 37 -7 37 -7.524 38.993 C-7.558 39.397 -7.558 39.397 -7.73 41.445 C-7.771 41.887 -7.811 42.329 -7.853 42.785 C-7.98 44.231 -8.085 45.677 -8.188 47.125 C-8.267 48.129 -8.347 49.133 -8.427 50.137 C-9.529 64.563 -9.478 78.697 -6.387 92.902 C-4.349 102.584 -5.265 112.208 -6 122 C-6.66 122 -7.32 122 -8 122 C-7.992 121.709 -7.992 121.709 -7.952 120.234 C-7.9 117.983 -7.863 115.732 -7.835 113.479 C-7.821 112.522 -7.8 111.564 -7.774 110.606 C-7.605 104.37 -8.187 98.719 -9.52 92.621 C-10.9 86.101 -11.225 79.914 -11.117 73.285 C-11.114 73.056 -11.114 73.056 -11.097 71.897 C-11.028 67.644 -10.915 63.392 -10.788 59.141 C-10.718 56.782 -10.673 54.423 -10.642 52.064 C-10.618 50.743 -10.564 49.426 -10.51 48.106 C-10.459 44.077 -10.459 44.077 -11 42 C-12.628 40.839 -14.049 40.815 -16 41 C-17.75 41.312 -17.75 41.312 -19 42 C-19.33 42.66 -19.66 43.32 -20 44 C-20 43.34 -20 42.68 -20 42 C-21.485 42.165 -21.485 42.165 -29 43 C-29 44.32 -29 45.64 -29 47 C-29.495 47.165 -29.495 47.165 -32 48 C-28.04 48.33 -24.08 48.66 -20 49 C-20.33 55.93 -20.66 62.86 -21 70 C-27.27 70 -33.54 70 -40 70 C-40 68.68 -40 67.36 -40 66 C-39.09 65.094 -39.09 65.094 -37.938 64.5 C-37.298 64.005 -36.659 63.51 -36 63 C-36 60.938 -36 60.938 -37 59 C-37.665 58.736 -38.33 58.471 -39.016 58.199 C-41 57 -41 57 -41.609 54.617 C-41.676 53.704 -41.722 52.79 -41.75 51.875 C-41.78 51.407 -41.809 50.939 -41.84 50.457 C-41.91 49.306 -41.957 48.153 -42 47 C-40.845 46.835 -40.845 46.835 -35 46 C-35 44.35 -35 42.7 -35 41 C-35.41 41.081 -35.82 41.162 -36.242 41.246 C-38.021 41.455 -39.281 41.531 -41 41 C-41.844 39.298 -42.137 37.686 -42.5 35.824 C-43.271 33.013 -44.799 31.835 -47 30 C-46.34 30 -45.68 30 -45 30 C-45.349 29.625 -45.699 29.25 -46.059 28.863 C-51.659 22.565 -51.139 16.98 -51 9 C-47.127 9.397 -44.395 10.257 -40.938 12.062 C-33.804 15.464 -26.206 15.241 -18.832 12.648 C-15.159 11.238 -11.56 9.675 -8 8 C-8.082 10.064 -8.195 12.125 -8.312 14.188 C-8.335 14.766 -8.358 15.344 -8.381 15.939 C-8.666 20.531 -9.705 23.612 -12.912 26.949 C-17.139 30.195 -23.238 29.573 -28.312 29.688 C-31.839 29.791 -35.366 29.894 -39 30 C-31.41 30 -23.82 30 -16 30 C-16 30.66 -16 31.32 -16 32 C-16.66 32 -17.32 32 -18 32 C-17.67 32.99 -17.34 33.98 -17 35 C-15.35 34.01 -13.7 33.02 -12 32 C-11.67 32.66 -11.34 33.32 -11 34 C-9.73 34.152 -9.73 34.152 -8.188 33.938 C-7.686 33.885 -7.185 33.832 -6.668 33.777 C-3.926 32.499 -2.434 30.641 -1 28 C-0.119 25.057 0.328 22.101 0.75 19.062 C0.813 18.67 0.813 18.67 1.129 16.682 C2.942 4.78 2.942 4.78 0 0 Z " fill="#1F150E" transform="translate(228,19)"/>
<path d="M0 0 C2.237 0.9 3.309 2.513 4.565 4.504 C4.693 4.705 4.693 4.705 5.344 5.723 C8.525 11.137 7.842 16.367 6.523 22.289 C4.625 29.576 0.036 34.956 -6.248 39.004 C-9.736 40.807 -12.894 40.926 -16.748 40.504 C-16.418 41.164 -16.088 41.824 -15.748 42.504 C-14.666 51.587 -18.403 62.679 -23.435 70.191 C-27.55 74.866 -32.491 78.078 -38.765 78.706 C-43.434 78.917 -48.084 78.786 -52.748 78.504 C-52.418 77.514 -52.088 76.524 -51.748 75.504 C-50.428 75.834 -49.108 76.164 -47.748 76.504 C-47.56 74.691 -47.56 74.691 -47.748 72.504 C-49.259 70.867 -49.259 70.867 -50.748 69.504 C-50.023 69.467 -49.299 69.429 -48.552 69.391 C-37.86 68.719 -37.86 68.719 -33.748 65.504 C-30.021 61.247 -28.695 56.55 -27.498 51.129 C-27.209 49.871 -27.209 49.871 -25.748 43.504 C-34.328 43.834 -42.908 44.164 -51.748 44.504 C-52.06 55.004 -52.06 55.004 -52.135 58.264 C-52.332 64.241 -53.174 69.025 -55.748 74.504 C-56.849 70.95 -56.877 67.667 -56.845 63.988 C-56.844 63.372 -56.842 62.757 -56.841 62.122 C-56.835 60.166 -56.823 58.21 -56.81 56.254 C-56.805 54.923 -56.8 53.592 -56.796 52.262 C-56.785 49.009 -56.769 45.756 -56.748 42.504 C-57.408 42.504 -58.068 42.504 -58.748 42.504 C-58.116 39.559 -57.484 36.987 -55.748 34.504 C-53.869 33.963 -52.056 34.11 -50.119 34.219 C-49.569 34.232 -49.019 34.244 -48.453 34.257 C-46.696 34.3 -44.941 34.368 -43.185 34.441 C-41.426 34.509 -39.667 34.571 -37.907 34.615 C-36.811 34.642 -35.716 34.684 -34.621 34.741 C-33.124 34.781 -33.124 34.781 -30.748 34.504 C-29.998 33.022 -29.998 33.022 -29.748 31.504 C-29.5 31.432 -29.5 31.432 -28.248 31.066 C-27.753 30.881 -27.258 30.695 -26.748 30.504 C-26.185 28.566 -26.185 28.566 -25.748 26.504 C-25.088 25.844 -24.428 25.184 -23.748 24.504 C-23.583 25.494 -23.583 25.494 -22.748 30.504 C-12.197 30.47 -12.197 30.47 -8.908 28.277 C-7.617 26.748 -6.664 25.28 -5.748 23.504 C-5.621 23.296 -5.621 23.296 -4.982 22.242 C-3.451 19.289 -3.558 16.445 -4.123 13.219 C-5.201 10.26 -7.334 8.436 -9.748 6.504 C-9.273 6.256 -8.799 6.009 -8.31 5.754 C-6.317 4.159 -6.297 2.935 -5.748 0.504 C-3.533 -0.603 -2.383 -0.553 0 0 Z " fill="#170F0A" transform="translate(227.74755859375,142.49609375)"/>
<path d="M0 0 C0.66 0 1.32 0 2 0 C1.691 0.598 1.381 1.196 1.062 1.812 C0.222 3.544 -0.449 5.164 -1 7 C-0.34 7 0.32 7 1 7 C1.33 17.23 1.66 27.46 2 38 C4.295 29.969 4.295 29.969 4.379 25.539 C4.396 25.063 4.413 24.587 4.43 24.097 C4.483 22.606 4.523 21.116 4.562 19.625 C4.607 18.113 4.653 16.601 4.705 15.089 C4.737 14.156 4.764 13.222 4.786 12.288 C4.888 9.112 4.888 9.112 6 8 C7.107 7.88 7.107 7.88 8.5 7.886 C9.021 7.887 9.541 7.887 10.077 7.887 C10.359 7.889 10.359 7.889 11.785 7.902 C12.073 7.903 12.073 7.903 13.53 7.907 C15.374 7.912 17.218 7.925 19.062 7.938 C20.311 7.943 21.559 7.947 22.807 7.951 C25.871 7.962 28.936 7.979 32 8 C29.994 26.014 29.994 26.014 23 32 C18.891 34.923 12.859 34.641 8 35 C9.32 35.99 10.64 36.98 12 38 C11.25 39.562 11.25 39.562 10 41 C7.875 40.688 7.875 40.688 6 40 C6 40.66 6 41.32 6 42 C4.9 42.674 3.791 43.336 2.66 43.957 C1.004 44.997 -0.427 46.187 -1.91 47.458 C-15.076 58.539 -31.572 59.403 -48 59 C-48 58.67 -48 58.34 -48 58 C-47.578 58.035 -47.157 58.07 -46.723 58.105 C-45.103 58.185 -43.606 58.229 -42 58 C-41.25 56.5 -41.25 56.5 -41 55 C-40.34 55 -39.68 55 -39 55 C-38.67 54.505 -38.34 54.01 -38 53.5 C-37.67 53.005 -37.34 52.51 -37 52 C-36.34 52 -35.68 52 -35 52 C-35 51.34 -35 50.68 -35 50 C-38.3 49.67 -41.6 49.34 -45 49 C-45 48.67 -45 48.34 -45 48 C-44.523 47.991 -44.046 47.981 -43.554 47.972 C-29.114 47.618 -15.708 46.708 -5 36 C-4.869 34.781 -4.869 34.781 -4.858 33.228 C-4.851 32.647 -4.844 32.065 -4.837 31.467 C-4.833 30.834 -4.829 30.202 -4.824 29.551 C-4.801 28.214 -4.777 26.878 -4.752 25.541 C-4.717 23.432 -4.688 21.324 -4.674 19.215 C-4.658 17.18 -4.618 15.147 -4.574 13.113 C-4.576 12.491 -4.578 11.869 -4.58 11.228 C-4.456 6.723 -3.227 3.265 0 0 Z " fill="#221712" transform="translate(170,178)"/>
<path d="M0 0 C1.57 -0.109 1.57 -0.109 3 0 C3.883 5.707 4.158 11.28 4.13 17.039 C4.125 18.394 4.13 19.75 4.137 21.105 C4.136 21.974 4.135 22.842 4.133 23.711 C4.132 24.487 4.131 25.264 4.129 26.064 C4 28 4 28 3 30 C4.32 30 5.64 30 7 30 C7 30.66 7 31.32 7 32 C6.34 32 5.68 32 5 32 C4.741 33.262 4.49 34.529 4.344 35.809 C4.287 36.005 4.287 36.005 4 37 C3.67 37.165 3.67 37.165 2 38 C2.25 39.375 2.25 39.375 3 41 C3.66 41.248 4.32 41.495 5 41.75 C7 43 7 43 7.625 44.398 C8.621 48.985 7.446 52.039 5.301 56.105 C1.537 61.587 1.537 61.587 -1.414 62.38 C-3.004 62.537 -4.528 62.547 -6.125 62.5 C-6.663 62.515 -7.2 62.531 -7.754 62.547 C-9.288 62.532 -10.539 62.47 -12 62 C-13.367 59.969 -13.367 59.969 -14 58 C-14.11 58.349 -14.219 58.699 -14.332 59.059 C-14.812 60.437 -15.303 61.717 -16 63 C-17.5 63.688 -17.5 63.688 -19 64 C-20.094 65.02 -20.094 65.02 -21 66 C-24.59 55.966 -24.691 42.171 -20.27 32.383 C-19.07 30.228 -18.231 29.116 -16 28 C-13.03 28 -10.06 28 -7 28 C-7 20.74 -7 13.48 -7 6 C-6.67 6 -6.34 6 -6 6 C-5.67 10.29 -5.34 14.58 -5 19 C-2 16 -2 16 -1.742 14.465 C-1.786 13.961 -1.83 13.457 -1.875 12.938 C-2.046 10.701 -2.05 10.1 -1 8 C-1.66 8 -2.32 8 -3 8 C-2.375 5.083 -1.622 2.523 0 0 Z " fill="#1F150F" transform="translate(217,111)"/>
<path d="M0 0 C0.515 -0.008 1.03 -0.016 1.561 -0.024 C2.646 -0.038 3.731 -0.049 4.816 -0.057 C5.919 -0.068 7.021 -0.089 8.124 -0.118 C18.463 -0.395 18.463 -0.395 21.727 2.133 C23.301 3.715 24.453 5.272 24.649 7.567 C24.643 8.059 24.638 8.551 24.633 9.059 C24.63 9.541 24.628 10.023 24.625 10.52 C24.616 11.128 24.607 11.737 24.598 12.363 C24.577 14.302 24.556 16.241 24.535 18.238 C28.825 18.238 33.115 18.238 37.535 18.238 C36.545 18.568 35.555 18.898 34.535 19.238 C34.535 19.898 34.535 20.558 34.535 21.238 C33.16 22.738 33.16 22.738 31.535 24.238 C31.339 24.434 31.339 24.434 30.348 25.426 C30.08 25.694 29.811 25.962 29.535 26.238 C29.205 25.908 28.875 25.578 28.535 25.238 C28.205 25.898 27.875 26.558 27.535 27.238 C25.959 27.341 24.481 27.17 22.91 27.016 C22.456 27.089 22.003 27.163 21.535 27.238 C21.174 28.229 20.843 29.23 20.535 30.238 C19.266 31.152 19.266 31.152 17.723 31.863 C17.221 32.103 16.72 32.343 16.203 32.59 C11.617 34.373 7.18 34.425 2.335 34.424 C1.038 34.426 -0.258 34.444 -1.555 34.463 C-2.389 34.466 -3.224 34.468 -4.059 34.469 C-4.808 34.473 -5.558 34.477 -6.33 34.481 C-8.743 34.207 -10.369 33.436 -12.465 32.238 C-12.104 32.213 -11.743 32.187 -11.371 32.16 C-9.955 31.987 -8.774 31.812 -7.465 31.238 C-7.152 29.176 -7.152 29.176 -7.465 27.238 C-6.805 27.238 -6.145 27.238 -5.465 27.238 C-5.465 26.578 -5.465 25.918 -5.465 25.238 C-4.905 25.251 -4.345 25.264 -3.768 25.277 C8.577 25.361 8.577 25.361 13.535 23.238 C16.655 19.402 16.634 13.993 16.535 9.238 C13.296 9.214 10.057 9.195 6.818 9.183 C5.716 9.178 4.615 9.171 3.513 9.163 C1.929 9.151 0.345 9.145 -1.238 9.141 C-1.485 9.138 -1.485 9.138 -2.732 9.125 C-5.018 9.125 -6.387 9.199 -8.465 10.238 C-8.795 9.248 -9.125 8.258 -9.465 7.238 C-9.795 8.558 -10.125 9.878 -10.465 11.238 C-12.115 10.908 -13.765 10.578 -15.465 10.238 C-15.09 8.238 -15.09 8.238 -14.465 6.238 C-13.805 6.238 -13.145 6.238 -12.465 6.238 C-12.135 5.578 -11.805 4.918 -11.465 4.238 C-10.416 2.222 -9.925 1.391 -7.732 0.663 C-5.127 0.175 -2.645 0.04 0 0 Z " fill="#1A130D" transform="translate(100.46484375,208.76171875)"/>
<path d="M0 0 C-0.082 2.064 -0.195 4.125 -0.312 6.188 C-0.335 6.766 -0.358 7.344 -0.381 7.939 C-0.668 12.567 -1.776 15.877 -5.169 19.116 C-8.018 20.491 -10.809 20.325 -13.934 20.336 C-14.608 20.343 -15.282 20.349 -15.977 20.356 C-17.402 20.366 -18.826 20.371 -20.251 20.371 C-22.427 20.375 -24.6 20.411 -26.775 20.449 C-28.161 20.455 -29.548 20.459 -30.934 20.461 C-31.258 20.468 -31.258 20.468 -32.897 20.504 C-36.048 20.473 -38.059 20.343 -40.395 18.104 C-44.291 13.639 -43.097 6.553 -43 1 C-39.127 1.397 -36.395 2.257 -32.938 4.062 C-26.716 7.034 -19.657 7.46 -13.066 5.394 C-9.341 3.989 -5.746 2.343 -2.192 0.551 C-1 0 -1 0 0 0 Z " fill="#F5F4F1" transform="translate(220,27)"/>
<path d="M0 0 C0.66 0 1.32 0 2 0 C2.988 1.977 3.123 2.681 3.114 4.797 C3.113 5.358 3.113 5.918 3.113 6.496 C3.108 7.098 3.103 7.7 3.098 8.32 C3.096 8.939 3.095 9.558 3.093 10.195 C3.088 12.172 3.075 14.148 3.062 16.125 C3.057 17.465 3.053 18.805 3.049 20.145 C3.038 23.43 3.021 26.715 3 30 C2.34 29.67 1.68 29.34 1 29 C0.951 29.361 0.902 29.722 0.852 30.094 C0.777 30.558 0.702 31.022 0.625 31.5 C0.555 31.964 0.486 32.428 0.414 32.906 C0.277 33.267 0.141 33.628 0 34 C-0.66 34 -1.32 34 -2 34 C-2.703 35.023 -2.703 35.023 -3.25 36.375 C-3.441 36.816 -3.632 37.257 -3.828 37.711 C-3.885 38.136 -3.942 38.562 -4 39 C-3.047 40.164 -3.047 40.164 -2 41 C-6.152 42.966 -10.281 44.791 -14.645 46.238 C-14.958 46.343 -14.958 46.343 -16.542 46.874 C-17.791 47.287 -19.044 47.687 -20.301 48.073 C-25.169 49.688 -25.169 49.688 -26.41 52.156 C-26.605 52.765 -26.799 53.373 -27 54 C-27.66 53.01 -28.32 52.02 -29 51 C-29.66 53.31 -30.32 55.62 -31 58 C-33 57.438 -33 57.438 -35 56 C-36.057 51.881 -35.038 47.313 -33.207 43.559 C-30.668 40.28 -26.789 39.274 -23 38 C-21.715 37.55 -20.43 37.099 -19.145 36.648 C-16.489 35.733 -13.83 34.828 -11.16 33.953 C-10.599 33.769 -10.039 33.585 -9.461 33.396 C-8 33 -8 33 -6 33 C-6.004 32.658 -6.009 32.316 -6.013 31.964 C-6.058 28.395 -6.088 24.826 -6.11 21.257 C-6.12 19.926 -6.134 18.595 -6.151 17.265 C-6.175 15.348 -6.187 13.432 -6.195 11.516 C-6.206 10.924 -6.216 10.332 -6.227 9.722 C-6.228 6.234 -5.848 3.979 -4 1 C-3.34 1.33 -2.68 1.66 -2 2 C-2 2.66 -2 3.32 -2 4 C-1.34 4 -0.68 4 0 4 C-0.186 3.526 -0.371 3.051 -0.562 2.562 C-0.707 2.047 -0.851 1.531 -1 1 C-0.67 0.67 -0.34 0.34 0 0 Z " fill="#1D140F" transform="translate(68,41)"/>
<path d="M0 0 C0.23 0.001 0.23 0.001 1.393 0.007 C1.913 0.007 2.434 0.007 2.97 0.007 C3.252 0.01 3.252 0.01 4.678 0.023 C5.254 0.024 5.829 0.025 6.422 0.027 C8.267 0.032 10.111 0.045 11.955 0.058 C13.203 0.063 14.451 0.067 15.699 0.071 C18.764 0.082 21.828 0.1 24.893 0.12 C22.92 17.835 22.92 17.835 15.893 24.12 C13.7 25.217 12.614 25.237 10.197 25.218 C9.482 25.215 8.767 25.211 8.029 25.208 C7.283 25.2 6.537 25.191 5.768 25.183 C5.014 25.178 4.259 25.174 3.483 25.169 C1.619 25.157 -0.244 25.141 -2.107 25.12 C-2.132 21.721 -2.15 18.321 -2.162 14.921 C-2.167 13.764 -2.174 12.607 -2.183 11.45 C-2.195 9.789 -2.201 8.129 -2.205 6.468 C-2.21 5.948 -2.215 5.428 -2.221 4.893 C-2.221 3.635 -2.169 2.377 -2.107 1.12 C-1.107 0.12 -1.107 0.12 0 0 Z " fill="#F9F9F6" transform="translate(177.10731506347656,185.87974548339844)"/>
<path d="M0 0 C1.449 1.153 1.956 1.782 2.325 3.625 C2.409 8.965 1.105 13.186 -1.143 17.964 C-1.687 19.124 -2.203 20.292 -2.717 21.465 C-5.023 26.6 -7.764 32.382 -13 35 C-15.47 35.56 -17.543 35.651 -20 35 C-22.396 32.912 -24.181 30.613 -26 28 C-27.36 34.323 -28.408 40.552 -29 47 C-29.66 47 -30.32 47 -31 47 C-30.402 38.993 -29.753 30.994 -29 23 C-30 23.875 -30 23.875 -31 25 C-31 25.66 -31 26.32 -31 27 C-31.66 27.144 -32.32 27.289 -33 27.438 C-33.66 27.623 -34.32 27.809 -35 28 C-35.125 29.438 -35.125 29.438 -35 31 C-35.667 31.667 -36.333 32.333 -37 33 C-37.764 34.632 -38.392 36.305 -39 38 C-40.004 34.843 -39.953 32.704 -39.258 29.48 C-39.17 29.059 -39.082 28.637 -38.992 28.203 C-38.711 26.862 -38.419 25.525 -38.125 24.188 C-37.749 22.432 -37.378 20.675 -37.008 18.918 C-36.917 18.495 -36.826 18.071 -36.733 17.635 C-36.085 14.559 -35.613 11.492 -35.272 8.368 C-35 7 -35 7 -33.688 5 C-32 4 -32 4 -30.082 4.246 C-24.381 6.311 -21.166 13.123 -18.664 18.301 C-18 20 -18 20 -18 22 C-17.34 22.33 -16.68 22.66 -16 23 C-16.33 23.99 -16.66 24.98 -17 26 C-16.34 26 -15.68 26 -15 26 C-15 26.66 -15 27.32 -15 28 C-12.595 27.542 -12.011 27.015 -10.5 25 C-9 23 -9 23 -7.535 22.574 C-4.801 21.551 -4.121 19.197 -2.918 16.676 C-0.9 11.436 -0.575 5.546 0 0 Z " fill="#1C140E" transform="translate(121,67)"/>
<path d="M0 0 C4.008 0.543 5.707 2.409 8.312 5.25 C11.049 8.139 13.651 10.595 17 12.75 C19.158 14.2 20.429 15.133 21.125 17.688 C21.084 18.451 21.042 19.214 21 20 C18.685 22.075 16.072 22.588 13.09 23.094 C12.61 23.177 12.131 23.26 11.637 23.346 C6.485 24.176 1.349 24.441 -3.864 24.48 C-5.463 24.5 -7.057 24.563 -8.654 24.625 C-15.975 24.777 -15.975 24.777 -18.594 22.792 C-21.655 18.528 -21.788 14.062 -21 9 C-20.269 6.891 -19.826 6.448 -18 5 C-16.149 4.615 -14.926 4.747 -13 5 C-11.593 6.407 -11.879 7.648 -11.867 9.551 C-12.037 11.398 -12.55 13.2 -13 15 C-6.73 15 -0.46 15 6 15 C0.5 10.625 0.5 10.625 -1.24 9.256 C-1.687 8.896 -2.134 8.535 -2.594 8.164 C-3.055 7.797 -3.515 7.431 -3.99 7.053 C-5 6 -5 6 -5 4 C-4.361 4.083 -3.721 4.165 -3.062 4.25 C-2.382 4.167 -1.701 4.085 -1 4 C-0.25 2 -0.25 2 0 0 Z " fill="#1F1712" transform="translate(105,155)"/>
<path d="M0 0 C2.237 0.9 3.309 2.513 4.565 4.504 C4.693 4.705 4.693 4.705 5.344 5.723 C8.525 11.137 7.841 16.367 6.523 22.289 C5.017 28.068 1.958 32.788 -2.748 36.504 C-5.015 37.812 -7.237 38.771 -9.748 39.504 C-10.408 37.854 -11.068 36.204 -11.748 34.504 C-12.243 34.669 -12.243 34.669 -14.748 35.504 C-14.418 34.514 -14.088 33.524 -13.748 32.504 C-15.068 32.339 -15.068 32.339 -21.748 31.504 C-21.748 31.174 -21.748 30.844 -21.748 30.504 C-21.38 30.503 -21.38 30.503 -19.517 30.496 C-11.856 30.271 -11.856 30.271 -8.974 28.277 C-7.681 26.749 -6.695 25.265 -5.748 23.504 C-5.621 23.296 -5.621 23.296 -4.978 22.242 C-3.455 19.285 -3.558 16.446 -4.123 13.219 C-5.201 10.26 -7.334 8.436 -9.748 6.504 C-9.51 6.38 -9.51 6.38 -8.31 5.754 C-6.317 4.159 -6.297 2.935 -5.748 0.504 C-3.533 -0.603 -2.383 -0.553 0 0 Z " fill="#241A13" transform="translate(227.74755859375,142.49609375)"/>
<path d="M0 0 C1.823 -0.572 2.723 -0.675 4.562 -0.562 C5.009 -0.548 5.455 -0.534 5.914 -0.519 C10.455 -0.224 14.309 1.295 18 4 C19.483 5.691 19.973 6.578 20.117 8.832 C19.512 13.778 18.252 17.199 15 21 C14.588 21.541 14.175 22.083 13.75 22.641 C11.202 24.62 9.017 24.479 5.875 24.438 C5.6 24.447 5.6 24.447 4.207 24.498 C2.701 24.496 1.442 24.435 0 24 C-1.763 20.795 -1.146 16.176 -1.125 12.562 C-1.129 11.907 -1.133 11.252 -1.137 10.576 C-1.133 8.713 -1.086 6.861 -1 5 C-0.977 4.483 -0.953 3.966 -0.929 3.433 C-0.777 2.062 -0.777 2.062 0 0 Z " fill="#B7B2AC" transform="translate(205,149)"/>
<path d="M0 0 C7.413 -0.148 14.617 0.313 22 1 C21.67 7.93 21.34 14.86 21 22 C14.73 22 8.46 22 2 22 C2 20.68 2 19.36 2 18 C2.91 17.094 2.91 17.094 4.062 16.5 C4.702 16.005 5.341 15.51 6 15 C6 12.938 6 12.938 5 11 C4.335 10.725 3.67 10.451 2.984 10.168 C1 9 1 9 0.391 6.836 C0.344 6.024 0.298 5.212 0.25 4.375 C0.193 3.558 0.137 2.74 0.078 1.898 C0.052 1.272 0.027 0.645 0 0 Z " fill="#F5F4F1" transform="translate(186,67)"/>
<path d="M0 0 C0.209 0.001 0.209 0.001 1.265 0.004 C2.59 0.01 3.914 0.022 5.238 0.035 C6.14 0.04 7.042 0.045 7.943 0.049 C10.146 0.06 12.348 0.077 14.551 0.098 C14.436 1.682 14.309 3.265 14.176 4.848 C14.16 5.069 14.16 5.069 14.082 6.191 C13.817 9.197 13.253 11.526 11.551 14.098 C9.102 15.232 6.807 15.227 4.137 15.23 C3.929 15.231 3.929 15.231 2.879 15.233 C2.006 15.234 1.134 15.232 0.262 15.228 C-1.077 15.223 -2.415 15.228 -3.754 15.234 C-4.603 15.234 -5.452 15.232 -6.301 15.23 C-7.072 15.229 -7.844 15.228 -8.639 15.227 C-10.449 15.098 -10.449 15.098 -11.449 14.098 C-11.63 12.447 -11.727 10.877 -11.762 9.223 C-11.791 8.775 -11.82 8.328 -11.85 7.867 C-11.884 6.051 -11.848 4.57 -10.642 3.144 C-7.23 0.467 -4.231 -0.028 0 0 Z " fill="#ADA79F" transform="translate(102.44921875,217.90234375)"/>
<path d="M0 0 C3.14 1.191 4.827 2.47 6.391 5.477 C9.316 12.789 7.422 19.439 4.658 26.492 C1.994 32.601 -1.85 36.516 -7.973 39.309 C-10 40 -10 40 -11.322 40.113 C-12.68 40.234 -12.68 40.234 -15 41 C-15.879 42.861 -15.924 44.779 -16.062 46.812 C-16.199 48.002 -16.344 49.191 -16.496 50.379 C-16.535 50.681 -16.535 50.681 -16.73 52.211 C-18.088 61.205 -21.562 69.437 -29 75 C-35.574 79.2 -42.228 79.143 -49.79 78.865 C-55.675 78.751 -55.675 78.751 -58.375 81.188 C-58.583 81.416 -58.583 81.416 -59.637 82.57 C-62.469 85.54 -66.35 87.219 -70 89 C-70.371 89.19 -70.743 89.38 -71.125 89.575 C-78.788 93.373 -86.99 93.798 -95.384 94.405 C-95.854 94.439 -96.325 94.474 -96.81 94.509 C-97.698 94.571 -98.586 94.63 -99.474 94.684 C-103.601 94.961 -106.582 95.579 -109.922 98.039 C-114.807 100.92 -119.968 100.529 -125.472 100.412 C-127.26 100.375 -129.047 100.371 -130.836 100.371 C-131.979 100.361 -133.122 100.35 -134.266 100.336 C-134.797 100.334 -135.328 100.331 -135.876 100.329 C-138.831 100.253 -140.663 100.005 -143 98 C-142.285 98.016 -141.569 98.031 -140.832 98.048 C-138.141 98.103 -135.45 98.137 -132.758 98.165 C-131.6 98.18 -130.442 98.2 -129.285 98.226 C-121.777 98.392 -114.871 98.496 -108.493 93.918 C-106.765 92.855 -105.747 92.736 -103.734 92.691 C-103.099 92.669 -102.464 92.646 -101.81 92.622 C-101.13 92.603 -100.45 92.583 -99.75 92.562 C-87.785 91.978 -72.202 90.876 -63.002 82.042 C-62.415 81.389 -61.828 80.735 -61.242 80.081 C-59.058 77.674 -57.407 76.164 -54.068 75.775 C-50.946 75.717 -47.844 75.844 -44.725 75.979 C-36.99 76.24 -32.307 74.736 -26.469 69.672 C-20.253 62.471 -17.216 49.716 -17.824 40.406 C-17.882 39.942 -17.94 39.478 -18 39 C-17.588 38.986 -17.175 38.972 -16.75 38.957 C-10.074 38.406 -4.759 35.144 -0.188 30.312 C4.113 24.647 5.59 17.033 5.367 10.043 C4.77 6.722 3.09 4.56 1 2 C0.67 1.34 0.34 0.68 0 0 Z " fill="#46433F" transform="translate(229,144)"/>
<path d="M0 0 C3.071 1.285 5.287 3.856 7.621 6.162 C12.094 10.452 16.616 14.509 21.538 18.276 C22.518 19.031 23.479 19.813 24.434 20.6 C24.434 20.93 24.434 21.26 24.434 21.6 C21.604 21.699 18.775 21.771 15.944 21.82 C14.98 21.84 14.017 21.867 13.054 21.902 C11.671 21.95 10.29 21.973 8.906 21.99 C8.474 22.011 8.042 22.032 7.596 22.053 C6.383 22.054 6.383 22.054 4.434 21.6 C3.592 19.638 3.592 19.638 3.434 17.6 C3.764 17.27 4.094 16.94 4.434 16.6 C4.531 15.408 4.531 15.408 4.496 14.037 C4.476 13.233 4.455 12.429 4.434 11.6 C2.658 11.46 1.176 11.348 -0.566 11.6 C-2.848 13.768 -3.081 16.606 -3.566 19.6 C-4.886 19.27 -6.206 18.94 -7.566 18.6 C-7.494 18.115 -7.422 17.63 -7.347 17.131 C-6.839 13.461 -6.54 9.994 -6.691 6.287 C-6.716 3.727 -6.685 2.806 -5.379 0.537 C-3.34 -0.517 -2.215 -0.507 0 0 Z " fill="#F1F2ED" transform="translate(87.566162109375,149.400146484375)"/>
<path d="M0 0 C1.883 0.936 2.15 1.687 2.922 3.613 C4.501 7.06 6.201 8.769 9.754 10.277 C12.205 10.93 14.649 11.102 17.172 11.301 C17.427 11.322 17.427 11.322 18.721 11.432 C19.975 11.537 21.23 11.638 22.484 11.738 C22.141 13.242 22.141 13.242 21.484 14.738 C20.328 14.891 20.328 14.891 18.984 14.676 C17.629 14.578 17.629 14.578 16.484 14.738 C15.672 16.738 15.672 16.738 15.484 18.738 C16.144 18.738 16.804 18.738 17.484 18.738 C17.484 19.398 17.484 20.058 17.484 20.738 C3.774 21.531 3.774 21.531 -0.242 18.062 C-0.452 17.844 -0.452 17.844 -1.516 16.738 C-2.06 16.229 -2.604 15.72 -3.164 15.195 C-7.242 11.012 -8.485 7.55 -8.516 1.738 C-6.516 2.738 -4.516 3.738 -2.516 4.738 C-2.516 4.078 -2.516 3.418 -2.516 2.738 C-3.176 2.408 -3.836 2.078 -4.516 1.738 C-1.952 -0.337 -1.952 -0.337 0 0 Z " fill="#211610" transform="translate(32.515625,214.26171875)"/>
<path d="M0 0 C3.679 1.539 6.056 3.782 8.812 6.625 C9.248 7.068 9.683 7.511 10.131 7.967 C20.556 18.664 20.556 18.664 23 24 C8.05 24.926 8.05 24.926 4.188 21.812 C1.045 18.609 -0.103 14.824 -0.195 10.449 C-0.182 9.195 -0.159 7.941 -0.125 6.688 C-0.116 6.042 -0.107 5.397 -0.098 4.732 C-0.074 3.155 -0.042 1.577 0 0 Z " fill="#F5F5F2" transform="translate(33,201)"/>
<path d="M0 0 C2.039 0.609 2.039 0.609 4 2 C4.631 3.831 4.568 5.58 4.5 7.5 C4.491 8.031 4.482 8.562 4.472 9.109 C4.185 15.491 1.928 21.912 -2 27 C-3.333 27.667 -4.667 28.333 -6 29 C-6.351 29.536 -6.701 30.073 -7.062 30.625 C-7.217 30.852 -7.217 30.852 -8 32 C-9.625 32.188 -9.625 32.188 -11 32 C-11 31.34 -11 30.68 -11 30 C-11.66 30 -12.32 30 -13 30 C-12.538 24.948 -10.749 20.94 -8.5 16.438 C-6.433 12.275 -4.741 8.597 -4 4 C-3.062 2.812 -3.062 2.812 -2 2 C-1.711 1.588 -1.422 1.175 -1.125 0.75 C-0.754 0.502 -0.382 0.255 0 0 Z " fill="#181009" transform="translate(117,63)"/>
<path d="M0 0 C0.66 0.66 1.32 1.32 2 2 C2.66 1.34 3.32 0.68 4 0 C4.085 0.351 4.085 0.351 4.516 2.125 C6.369 9.486 8.27 16.661 14 22 C12.562 22.563 12.562 22.563 11 23 C10.67 22.67 10.34 22.34 10 22 C10 24.31 10 26.62 10 29 C11.32 28.67 12.64 28.34 14 28 C14.33 29.65 14.66 31.3 15 33 C9.225 31.928 4.637 28.492 1 24 C-0.31 22.025 -1.43 19.989 -2.5 17.875 C-2.755 17.372 -3.01 16.87 -3.273 16.352 C-4.81 13.071 -5.265 10.615 -5 7 C-4.765 7.036 -4.765 7.036 -3.574 7.219 C-3.055 7.147 -2.535 7.074 -2 7 C-1.27 5.469 -1.27 5.469 -0.812 3.5 C-0.654 2.85 -0.495 2.201 -0.332 1.531 C-0.222 1.026 -0.113 0.521 0 0 Z " fill="#251C16" transform="translate(39,91)"/>
<path d="M0 0 C1.477 0.18 1.477 0.18 3 1 C3.325 2.841 3.428 4.283 3.375 6.125 C3.366 6.622 3.356 7.119 3.346 7.631 C3.122 13.148 1.758 17.654 -2.375 21.5 C-3.808 22.522 -4.597 22.995 -6.363 23.016 C-7.688 22.75 -7.688 22.75 -10 22 C-12 22 -12 22 -13.5 23.125 C-13.995 23.414 -14.49 23.703 -15 24 C-16.25 23.25 -16.25 23.25 -17 22 C-16.67 21.34 -16.34 20.68 -16 20 C-15.34 20 -14.68 20 -14 20 C-14 19.34 -14 18.68 -14 18 C-14.706 18.041 -15.412 18.082 -16.14 18.124 C-18.771 18.273 -21.402 18.407 -24.034 18.537 C-25.171 18.595 -26.308 18.657 -27.444 18.724 C-29.082 18.818 -30.721 18.899 -32.359 18.977 C-32.612 18.993 -32.612 18.993 -33.888 19.074 C-37.196 19.213 -39.162 18.725 -42 17 C-41.214 16.991 -40.427 16.981 -39.617 16.972 C-36.675 16.932 -33.735 16.866 -30.794 16.792 C-29.526 16.764 -28.257 16.743 -26.988 16.729 C-14.292 16.579 -14.292 16.579 -9.922 13.105 C-8.629 11.556 -8.179 9.997 -7.629 8.086 C-7 7 -7 7 -5.59 6.414 C-4.504 6.142 -3.418 5.871 -2.332 5.602 C-1 5 -1 5 -0.387 3.773 C-0.125 2.375 -0.125 2.375 0 0 Z " fill="#180F0A" transform="translate(226,31)"/>
<path d="M0 0 C2 1 2 1 2.75 2.375 C3 4 3 4 2.062 5.688 C1.887 5.904 1.887 5.904 1 7 C1.99 7.33 2.98 7.66 4 8 C2.752 13.093 0.316 16.636 -2.938 20.688 C-3.159 20.971 -3.159 20.971 -4.279 22.408 C-10.085 29.789 -10.085 29.789 -12.625 30.375 C-13.079 30.251 -13.532 30.127 -14 30 C-14.625 28.5 -14.625 28.5 -15 27 C-15.33 27 -15.66 27 -16 27 C-16.687 26.354 -17.355 25.688 -18 25 C-17.34 24.588 -16.68 24.175 -16 23.75 C-14.875 23.047 -14.875 23.047 -14 22 C-14.037 21.432 -14.075 20.863 -14.113 20.277 C-13.941 16.815 -12.116 14.612 -10.188 11.812 C-9.831 11.267 -9.475 10.721 -9.107 10.158 C-6.444 6.214 -6.444 6.214 -4.497 5.276 C-3 5 -3 5 -1 6 C-1.103 5.783 -1.103 5.783 -1.625 4.688 C-2 3 -2 3 -1.062 1.312 C-0.887 1.096 -0.887 1.096 0 0 Z " fill="#18110B" transform="translate(173,147)"/>
<path d="M0 0 C1.434 0.208 2.468 0.464 3.715 1.203 C4.027 2.766 4.027 2.766 3.715 4.203 C4.705 3.543 5.695 2.883 6.715 2.203 C7.045 2.863 7.375 3.523 7.715 4.203 C7.121 5.535 7.121 5.535 6.215 7.016 C4.672 9.82 4.672 9.82 4.875 11.637 C4.941 11.854 4.941 11.854 5.277 12.953 C5.422 13.696 5.566 14.438 5.715 15.203 C4.4 15.905 3.064 16.568 1.715 17.203 C1.034 18.901 0.909 20.361 0.715 22.203 C0.055 21.873 -0.605 21.543 -1.285 21.203 C-1.264 21.591 -1.243 21.978 -1.222 22.377 C-0.554 36.585 -0.554 36.585 -5.285 42.203 C-5.945 41.873 -6.605 41.543 -7.285 41.203 C-7.069 40.8 -6.852 40.396 -6.629 39.98 C-4.404 35.129 -3.874 30.627 -3.723 25.328 C-3.703 24.995 -3.703 24.995 -3.605 23.308 C-3.594 21.415 -3.616 19.978 -4.285 18.203 C-6.191 16.973 -8.055 16.526 -10.285 16.203 C-9.625 15.873 -8.965 15.543 -8.285 15.203 C-8.309 14.012 -8.309 14.012 -8.66 12.641 C-8.771 12.186 -8.882 11.731 -8.996 11.262 C-9.091 10.912 -9.187 10.563 -9.285 10.203 C-10.275 10.533 -11.265 10.863 -12.285 11.203 C-11.996 9.789 -11.996 9.789 -11.285 8.203 C-9.762 7.43 -9.762 7.43 -7.91 6.828 C-5.165 5.79 -3.928 5.122 -2.66 2.453 C-1.607 0.254 -1.607 0.254 0 0 Z " fill="#21150E" transform="translate(178.28515625,103.796875)"/>
<path d="M0 0 C0.66 0.33 1.32 0.66 2 1 C2.195 2.629 2.195 2.629 2.125 4.562 C2.107 5.203 2.089 5.844 2.07 6.504 C2.047 6.998 2.024 7.491 2 8 C0.35 8 -1.3 8 -3 8 C-2.959 8.639 -2.918 9.279 -2.875 9.938 C-2.916 10.618 -2.957 11.299 -3 12 C-3.33 12.165 -3.33 12.165 -5 13 C-5.125 14.562 -5.125 14.562 -5 16 C-7.482 15.752 -9.96 15.473 -12.438 15.188 C-12.791 15.152 -12.791 15.152 -14.58 14.975 C-15.254 14.894 -15.927 14.813 -16.621 14.73 C-17.244 14.662 -17.867 14.594 -18.51 14.524 C-20 14 -20 14 -20.801 12.56 C-20.867 12.045 -20.932 11.53 -21 11 C-19.562 9.312 -19.562 9.312 -18 8 C-19.98 8 -21.96 8 -24 8 C-24 7.34 -24 6.68 -24 6 C-23.34 6 -22.68 6 -22 6 C-22.33 5.01 -22.66 4.02 -23 3 C-22.01 2.67 -21.02 2.34 -20 2 C-20 2.66 -20 3.32 -20 4 C-19.671 3.893 -19.343 3.786 -19.004 3.676 C-13.874 2.383 -9.731 4.139 -5 6 C-4.67 5.34 -4.34 4.68 -4 4 C-3.098 2.895 -3.098 2.895 -2.062 1.812 C-1.723 1.448 -1.384 1.083 -1.035 0.707 C-0.694 0.474 -0.352 0.24 0 0 Z " fill="#160E0A" transform="translate(88,222)"/>
<path d="M0 0 C3.777 1.584 3.777 1.584 4.645 3.203 C6.24 11.268 4.158 22.473 1 30 C-0.771 32.634 -2.71 34.347 -5.534 35.776 C-7 37 -7 37 -7.524 38.993 C-7.558 39.397 -7.558 39.397 -7.73 41.445 C-7.771 41.887 -7.811 42.329 -7.853 42.785 C-7.98 44.231 -8.085 45.677 -8.188 47.125 C-8.267 48.129 -8.347 49.133 -8.427 50.137 C-9.529 64.563 -9.478 78.697 -6.387 92.902 C-4.349 102.584 -5.265 112.208 -6 122 C-6.66 122 -7.32 122 -8 122 C-7.984 121.417 -7.969 120.835 -7.952 120.234 C-7.499 100.749 -7.499 100.749 -9.5 92.562 C-12.235 80.87 -11.317 68.545 -11.069 56.624 C-11.013 53.901 -10.987 51.18 -10.983 48.457 C-10.973 46.387 -10.923 44.319 -10.875 42.25 C-10.878 41.537 -10.881 40.823 -10.884 40.088 C-10.807 38.203 -10.711 36.749 -10 35 C-8.56 33.919 -7.168 33.311 -5.498 32.644 C-3.171 31.644 -1.959 30.276 -1 28 C-0.224 25.069 0.245 22.122 0.688 19.125 C0.817 18.335 0.947 17.545 1.08 16.73 C2.956 4.803 2.956 4.803 0 0 Z " fill="#5B5853" transform="translate(228,19)"/>
<path d="M0 0 C2.375 0.312 2.375 0.312 3.375 1.312 C3.552 4.591 3.173 7.122 2.375 10.312 C3.913 11.85 5.776 11.549 7.848 11.629 C8.29 11.65 8.733 11.67 9.189 11.692 C10.605 11.757 12.021 11.816 13.438 11.875 C14.397 11.918 15.355 11.962 16.314 12.006 C18.668 12.113 21.021 12.214 23.375 12.312 C23.375 12.643 23.375 12.972 23.375 13.312 C19.745 13.312 16.115 13.312 12.375 13.312 C12.045 15.292 11.715 17.273 11.375 19.312 C-0.086 20.207 -0.086 20.207 -3.379 18.293 C-6.009 14.771 -6.161 10.643 -5.945 6.371 C-5.364 2.635 -4.124 0.143 0 0 Z " fill="#1A110C" transform="translate(89.625,159.6875)"/>
<path d="M0 0 C3.24 1.445 5.637 3.244 8.25 5.625 C8.614 5.95 8.977 6.275 9.352 6.609 C10.238 7.402 11.119 8.201 12 9 C11.34 9.33 11.34 9.33 8 11 C8 10.34 8 9.68 8 9 C7 9.875 7 9.875 6 11 C6 11.66 6 12.32 6 13 C5.34 13 4.68 13 4 13 C4 13.66 4 14.32 4 15 C5.98 15 7.96 15 10 15 C9.218 18.475 9.218 18.475 8 20 C6.243 20.318 4.689 20.178 2.91 20.043 C0.91 19.998 -0.377 20.337 -2.25 21 C-5.45 22.018 -8.419 22.224 -11.75 22.25 C-12.222 22.259 -12.694 22.268 -13.181 22.277 C-16.36 22.25 -17.2 21.866 -20 20 C-13.73 19.67 -7.46 19.34 -1 19 C-1.33 17.68 -1.66 16.36 -2 15 C-1.67 14.34 -1.34 13.68 -1 13 C-0.34 13 0.32 13 1 13 C0.56 9.565 0.56 9.565 0 8 C-1.562 7.188 -1.562 7.188 -3 7 C-2.34 7 -1.68 7 -1 7 C-0.67 4.69 -0.34 2.38 0 0 Z " fill="#312823" transform="translate(60,215)"/>
<path d="M0 0 C1.449 1.153 1.956 1.782 2.325 3.625 C2.409 8.965 1.105 13.186 -1.143 17.964 C-1.687 19.124 -2.203 20.292 -2.717 21.465 C-5.023 26.6 -7.764 32.382 -13 35 C-15.407 35.415 -17.603 35.502 -20 35 C-21.738 33.559 -22.879 31.949 -24 30 C-23.505 29.711 -23.01 29.422 -22.5 29.125 C-22.005 28.754 -21.51 28.382 -21 28 C-21 27.34 -21 26.68 -21 26 C-19 24.875 -19 24.875 -17 24 C-17 24.66 -17 25.32 -17 26 C-16.34 26 -15.68 26 -15 26 C-15 26.66 -15 27.32 -15 28 C-12.595 27.542 -12.011 27.015 -10.5 25 C-9 23 -9 23 -7.535 22.574 C-4.801 21.551 -4.121 19.197 -2.918 16.676 C-0.9 11.436 -0.575 5.546 0 0 Z " fill="#322924" transform="translate(121,67)"/>
<path d="M0 0 C1.562 0.938 1.562 0.938 3 2 C4.09 1.066 4.09 1.066 5 0 C5.398 0.349 5.797 0.699 6.207 1.059 C6.737 1.514 7.267 1.969 7.812 2.438 C8.335 2.89 8.857 3.342 9.395 3.809 C12.695 6.258 16.012 6.197 19.98 6.316 C20.553 6.337 21.126 6.358 21.716 6.379 C23.54 6.445 25.364 6.504 27.188 6.562 C28.426 6.606 29.665 6.649 30.904 6.693 C33.936 6.8 36.968 6.902 40 7 C40 7.33 40 7.66 40 8 C33.07 8 26.14 8 19 8 C19 8.99 19 9.98 19 11 C16.034 11.571 13.216 12.07 10.188 11.938 C9.827 11.948 9.827 11.948 8 12 C7.67 12.66 7.34 13.32 7 14 C-1.288 7.757 -1.288 7.757 -3 3 C-1.938 1 -1.938 1 0 0 Z " fill="#211915" transform="translate(69,183)"/>
<path d="M0 0 C4.54 0.4 8.223 1.388 12.355 3.301 C14.558 4.237 16.64 4.642 19 5 C18.845 5.113 18.845 5.113 18.062 5.688 C16.722 7.343 16.556 8.709 16.246 10.781 C16 12 16 12 15 14 C11.803 15.399 9.73 15.111 6.43 13.939 C4.407 13.122 2.781 12.288 1 11 C0.413 9.224 0.498 8.185 0.879 6.367 C1 5 1 5 0.027 3.82 C-0.312 3.55 -0.651 3.279 -1 3 C-0.34 2.67 0.32 2.34 1 2 C0.67 1.34 0.34 0.68 0 0 Z " fill="#241B16" transform="translate(182,19)"/>
<path d="M0 0 C3.96 0.33 7.92 0.66 12 1 C11.67 2.98 11.34 4.96 11 7 C16.28 7.33 21.56 7.66 27 8 C27 8.33 27 8.66 27 9 C23.195 9.05 19.391 9.086 15.586 9.11 C14.297 9.12 13.007 9.133 11.717 9.151 C-5.518 9.379 -5.518 9.379 -11 7 C-11.388 5.469 -11.388 5.469 -11 4 C-7.376 2.827 -3.781 2.883 0 3 C0 2.01 0 1.02 0 0 Z " fill="#201712" transform="translate(88,191)"/>
<path d="M0 0 C4.08 0.531 5.936 2.574 8.625 5.438 C9.019 5.845 9.414 6.253 9.82 6.674 C10.554 7.433 11.284 8.196 12.01 8.963 C12.992 9.991 13.991 10.999 15 12 C14.588 12.268 14.175 12.536 13.75 12.812 C12 14 12 14 10.188 15.556 C7.907 17.266 6.095 17.348 3.234 17.293 C2.796 17.289 2.358 17.284 1.906 17.28 C0.52 17.263 -0.864 17.226 -2.25 17.188 C-3.195 17.172 -4.141 17.159 -5.086 17.146 C-7.391 17.114 -9.695 17.062 -12 17 C-12 16.67 -12 16.34 -12 16 C-6.06 15.67 -0.12 15.34 6 15 C0.5 10.625 0.5 10.625 -1.24 9.256 C-1.464 9.076 -1.464 9.076 -2.594 8.164 C-2.824 7.981 -2.824 7.981 -3.99 7.053 C-5 6 -5 6 -5 4 C-4.361 4.083 -3.721 4.165 -3.062 4.25 C-2.382 4.167 -1.701 4.085 -1 4 C-0.25 2 -0.25 2 0 0 Z " fill="#1F1814" transform="translate(105,155)"/>
<path d="M0 0 C0.66 0 1.32 0 2 0 C1.691 0.598 1.381 1.196 1.062 1.812 C0.222 3.544 -0.449 5.164 -1 7 C-0.34 7 0.32 7 1 7 C1.33 17.23 1.66 27.46 2 38 C2.66 35.69 3.32 33.38 4 31 C4.33 31.66 4.66 32.32 5 33 C6.307 33.227 6.307 33.227 7.941 33.195 C8.233 33.192 8.233 33.192 9.709 33.176 C10.321 33.159 10.932 33.142 11.562 33.125 C11.87 33.12 11.87 33.12 13.428 33.098 C14.952 33.074 16.476 33.041 18 33 C18 33.33 18 33.66 18 34 C16.35 34.165 16.35 34.165 8 35 C9.32 35.99 10.64 36.98 12 38 C11.25 39.562 11.25 39.562 10 41 C7.875 40.688 7.875 40.688 6 40 C6 40.66 6 41.32 6 42 C4.977 42.816 4.977 42.816 3.625 43.562 C3.184 43.811 2.743 44.06 2.289 44.316 C1.201 44.893 0.102 45.449 -1 46 C-0.34 44.35 0.32 42.7 1 41 C0.34 41 -0.32 41 -1 41 C-0.959 40.526 -0.917 40.051 -0.875 39.562 C-0.916 39.047 -0.958 38.531 -1 38 C-1.66 37.67 -2.32 37.34 -3 37 C-2.01 37 -1.02 37 0 37 C-0.33 28.75 -0.66 20.5 -1 12 C-1.99 12 -2.98 12 -4 12 C-4.579 7.463 -3.658 4.839 -1.07 1.102 C-0.717 0.738 -0.364 0.375 0 0 Z " fill="#2B211B" transform="translate(170,178)"/>
<path d="M0 0 C0.66 0.33 1.32 0.66 2 1 C2.032 2.248 2.058 3.5 1.973 4.746 C2 6 2 6 3 8 C2.67 8.66 2.34 9.32 2 10 C3.32 9.34 4.64 8.68 6 8 C6.33 10.31 6.66 12.62 7 15 C6.34 14.67 5.68 14.34 5 14 C4.01 15.98 3.02 17.96 2 20 C2.66 20 3.32 20 4 20 C4.516 27.877 4.516 27.877 2.625 30.5 C1 32 1 32 -1 32 C-1.29 29.299 -1.575 26.597 -1.854 23.895 C-1.95 22.979 -2.047 22.064 -2.146 21.148 C-3.902 4.802 -3.902 4.802 -1.625 1.438 C-1.089 0.963 -0.553 0.489 0 0 Z " fill="#130D06" transform="translate(212,99)"/>
<path d="M0 0 C0.773 0.226 1.547 0.451 2.344 0.684 C2.344 1.014 2.344 1.344 2.344 1.684 C1.982 1.655 1.982 1.655 0.148 1.508 C-7.523 1.076 -7.523 1.076 -10.406 2.621 C-11.345 3.474 -12.259 4.353 -13.152 5.254 C-16.172 8.125 -19.942 9.872 -23.656 11.684 C-23.842 11.779 -23.842 11.779 -24.781 12.259 C-32.444 16.057 -40.646 16.481 -49.04 17.089 C-49.511 17.123 -49.981 17.157 -50.467 17.192 C-51.354 17.255 -52.242 17.313 -53.13 17.367 C-57.258 17.645 -60.239 18.263 -63.578 20.723 C-68.464 23.603 -73.624 23.213 -79.128 23.095 C-80.917 23.058 -82.703 23.054 -84.492 23.055 C-85.635 23.045 -86.779 23.033 -87.922 23.02 C-88.453 23.017 -88.984 23.015 -89.532 23.013 C-92.487 22.937 -94.319 22.688 -96.656 20.684 C-95.941 20.699 -95.225 20.715 -94.488 20.731 C-91.797 20.786 -89.106 20.82 -86.415 20.848 C-85.257 20.863 -84.099 20.884 -82.941 20.91 C-75.434 21.075 -68.527 21.18 -62.149 16.602 C-60.421 15.539 -59.404 15.419 -57.391 15.375 C-56.755 15.352 -56.12 15.329 -55.466 15.306 C-55.126 15.296 -55.126 15.296 -53.406 15.246 C-39.009 14.543 -24.056 12.555 -13.656 1.684 C-9.546 -2.584 -5.246 -1.332 0 0 Z " fill="#64615D" transform="translate(182.65625,221.31640625)"/>
<path d="M0 0 C3.537 0.901 3.537 0.901 4.648 2.012 C5.111 6.402 5.111 6.402 3.273 8.824 C1.648 10.012 1.648 10.012 -0.352 10.012 C-0.341 10.425 -0.331 10.839 -0.32 11.265 C-0.278 13.139 -0.252 15.013 -0.227 16.887 C-0.21 17.538 -0.193 18.189 -0.176 18.859 C-0.169 19.485 -0.163 20.11 -0.156 20.754 C-0.146 21.33 -0.135 21.906 -0.125 22.5 C-0.352 24.012 -0.352 24.012 -2.352 26.012 C-2.352 20.072 -2.352 14.132 -2.352 8.012 C-7.632 8.012 -12.912 8.012 -18.352 8.012 C-18.022 7.352 -17.692 6.692 -17.352 6.012 C-16.352 6.012 -15.352 6.012 -14.352 6.012 C-14.022 5.352 -13.692 4.692 -13.352 4.012 C-14.012 3.682 -14.672 3.352 -15.352 3.012 C-14.352 2.012 -14.352 2.012 -12.172 1.984 C-10.821 2.022 -9.471 2.074 -8.121 2.139 C-4.765 2.223 -2.898 0.025 0 0 Z " fill="#1E130B" transform="translate(213.3515625,58.98828125)"/>
<path d="M0 0 C2.949 1.573 5.452 3.752 8.012 5.879 C8.518 6.291 9.025 6.703 9.547 7.127 C12.303 9.396 12.303 9.396 13.262 10.316 C13.262 10.646 13.262 10.976 13.262 11.316 C10.432 11.415 7.603 11.488 4.772 11.536 C3.808 11.556 2.845 11.584 1.882 11.618 C0.499 11.667 -0.882 11.689 -2.266 11.707 C-2.698 11.728 -3.13 11.748 -3.576 11.77 C-4.789 11.771 -4.789 11.771 -6.738 11.316 C-7.64 9.17 -7.91 7.936 -7.285 5.684 C-3.512 -1.381 -3.512 -1.381 0 0 Z " fill="#F7F6F4" transform="translate(98.73828125,159.68359375)"/>
<path d="M0 0 C-0.735 2.226 -1.563 4.136 -3 6 C-5.271 7.09 -7.52 7.606 -10 8 C-9.01 8 -8.02 8 -7 8 C-7 8.66 -7 9.32 -7 10 C-9.25 10.058 -11.5 10.094 -13.75 10.125 C-14.067 10.133 -14.067 10.133 -15.672 10.176 C-19.371 10.214 -21.861 10.014 -25 8 C-24.639 7.974 -24.278 7.948 -23.906 7.922 C-22.49 7.749 -21.309 7.574 -20 7 C-19.688 4.938 -19.688 4.938 -20 3 C-19.34 3 -18.68 3 -18 3 C-18 2.34 -18 1.68 -18 1 C-11.975 0.309 -6.077 -0.153 0 0 Z " fill="#140B08" transform="translate(113,233)"/>
<path d="M0 0 C0.66 0.33 1.32 0.66 2 1 C1.719 1.837 1.425 2.67 1.125 3.5 C0.963 3.964 0.8 4.428 0.633 4.906 C0.424 5.267 0.215 5.628 0 6 C-0.66 6 -1.32 6 -2 6 C-1.67 6.392 -1.34 6.784 -1 7.188 C0.434 9.787 0.528 11.056 0 14 C-1.535 15.264 -3.03 15.795 -5 16 C-6.812 15.125 -6.812 15.125 -8 14 C-8.33 14.66 -8.66 15.32 -9 16 C-9 15.34 -9 14.68 -9 14 C-9.66 14 -10.32 14 -11 14 C-11 13.34 -11 12.68 -11 12 C-11.66 11.67 -12.32 11.34 -13 11 C-11.399 9.538 -9.793 8.081 -8.188 6.625 C-7.736 6.213 -7.284 5.8 -6.818 5.375 C-1.959 0.976 -1.959 0.976 0 0 Z M-14 12 C-13.67 12.66 -13.34 13.32 -13 14 C-13.66 13.67 -14.32 13.34 -15 13 C-14.67 12.67 -14.34 12.34 -14 12 Z " fill="#18100B" transform="translate(49,129)"/>
<path d="M0 0 C2.513 1.459 4.764 3.148 7 5 C1.128 9.957 1.128 9.957 -2 11 C-3.625 10.062 -3.625 10.062 -5 9 C-5.33 9.165 -5.33 9.165 -7 10 C-7.121 9.662 -7.242 9.325 -7.367 8.977 C-7.535 8.531 -7.702 8.085 -7.875 7.625 C-8.037 7.184 -8.2 6.743 -8.367 6.289 C-9.055 4.889 -9.847 4.037 -11 3 C-7.537 0.426 -4.338 -1.168 0 0 Z " fill="#1F1411" transform="translate(89,139)"/>
<path d="M0 0 C0.66 0.33 1.32 0.66 2 1 C2.397 6.543 0.474 10.839 -3 15 C-4.625 16.875 -4.625 16.875 -6 18 C-6.66 18 -7.32 18 -8 18 C-8.861 8.319 -8.861 8.319 -5.688 4.5 C-3.967 2.722 -2.187 1.173 0 0 Z " fill="#F3F2EC" transform="translate(223,155)"/>
<path d="M0 0 C0.33 0 0.66 0 1 0 C1.103 0.763 1.206 1.526 1.312 2.312 C1.589 3.943 1.757 4.763 2.953 5.93 C3.967 6.622 4.983 7.311 6 8 C6 8.66 6 9.32 6 10 C5.34 10 4.68 10 4 10 C3.375 12 3.375 12 3 14 C3.66 14 4.32 14 5 14 C5.151 18.088 5.173 21.639 2.438 24.812 C1.963 25.204 1.489 25.596 1 26 C-1.367 22.304 -1.269 18.993 -1.188 14.688 C-1.187 14.049 -1.186 13.41 -1.186 12.752 C-1.146 8.431 -0.717 4.26 0 0 Z " fill="#25201B" transform="translate(195,147)"/>
<path d="M0 0 C0.413 0.557 0.825 1.114 1.25 1.688 C3.11 4.17 5.051 6.586 7 9 C5.562 9.562 5.562 9.562 4 10 C3.67 9.67 3.34 9.34 3 9 C3 11.31 3 13.62 3 16 C4.32 15.67 5.64 15.34 7 15 C7.33 16.65 7.66 18.3 8 20 C3.773 19.216 0.866 17.333 -2.312 14.562 C-2.662 14.262 -3.011 13.962 -3.371 13.652 C-5.286 11.919 -6.461 10.553 -7 8 C-6.526 7.876 -6.051 7.752 -5.562 7.625 C-4 7 -4 7 -3 5 C-2.667 4.5 -2.667 4.5 -1 2 C-0.67 1.34 -0.34 0.68 0 0 Z " fill="#2B211B" transform="translate(46,104)"/>
<path d="M0 0 C0.33 0 0.66 0 1 0 C1.194 1.312 1.38 2.624 1.562 3.938 C1.667 4.668 1.771 5.399 1.879 6.152 C1.919 6.762 1.959 7.372 2 8 C1.67 8.33 1.34 8.66 1 9 C1.99 9 2.98 9 4 9 C4.108 10.814 4.187 12.622 4.25 14.438 C4.267 14.696 4.267 14.696 4.352 16.002 C4.389 17.437 4.41 18.622 4 20 C1.992 20.758 1.992 20.758 0 21 C-0.125 22.438 -0.125 22.438 0 24 C-0.667 24.667 -1.333 25.333 -2 26 C-2.764 27.632 -3.392 29.305 -4 31 C-5.004 27.843 -4.953 25.704 -4.258 22.48 C-4.17 22.059 -4.082 21.637 -3.992 21.203 C-3.711 19.862 -3.419 18.525 -3.125 17.188 C-2.749 15.432 -2.378 13.675 -2.008 11.918 C-1.918 11.496 -1.828 11.074 -1.736 10.639 C-0.996 7.112 -0.439 3.576 0 0 Z M2 6 C4 7 4 7 4 7 Z " fill="#2A241E" transform="translate(86,74)"/>
<path d="M0 0 C1.786 1.546 2.441 2.879 3.125 5.125 C3.293 5.664 3.46 6.203 3.633 6.758 C3.693 6.963 3.693 6.963 4 8 C3.361 8.227 2.721 8.454 2.062 8.688 C0 10 0 10 -0.488 11.246 C-0.724 12.487 -0.868 13.744 -1 15 C-1.66 14.67 -2.32 14.34 -3 14 C-2.99 14.194 -2.99 14.194 -2.937 15.174 C-2.269 29.382 -2.269 29.382 -7 35 C-7.66 34.67 -8.32 34.34 -9 34 C-8.892 33.804 -8.892 33.804 -8.344 32.812 C-5.676 27.081 -5.791 21.957 -6.199 15.725 C-6.382 11.436 -5.943 9.076 -3.068 5.819 C-2 5 -2 5 0 5 C-0.186 4.546 -0.371 4.093 -0.562 3.625 C-1 2 -1 2 0 0 Z " fill="#221811" transform="translate(180,111)"/>
<path d="M0 0 C0.66 0 1.32 0 2 0 C2 0.66 2 1.32 2 2 C2.352 1.905 2.704 1.809 3.066 1.711 C7.503 0.715 10.764 1.484 15 3 C14.213 3.673 13.42 4.338 12.625 5 C12.184 5.371 11.743 5.743 11.289 6.125 C10 7 10 7 8 7 C7.948 7.32 7.948 7.32 7.688 8.938 C7.461 9.618 7.234 10.299 7 11 C5.306 11.706 3.853 11.81 2 12 C1.312 10.688 1.312 10.688 1 9 C2.438 7.312 2.438 7.312 4 6 C2.02 6 0.04 6 -2 6 C-2 5.34 -2 4.68 -2 4 C-1.34 4 -0.68 4 0 4 C-0.093 3.763 -0.093 3.763 -0.562 2.562 C-0.635 2.305 -0.635 2.305 -1 1 C-0.67 0.67 -0.34 0.34 0 0 Z " fill="#1D140E" transform="translate(66,224)"/>
<path d="M0 0 C4.548 -0.236 7.88 0.003 12 2 C11.649 2.433 11.299 2.866 10.938 3.312 C10 5 10 5 10.375 6.5 C10.581 6.995 10.787 7.49 11 8 C11 8.99 11 9.98 11 11 C8.69 10.67 6.38 10.34 4 10 C3.67 11.32 3.34 12.64 3 14 C2.67 13.01 2.34 12.02 2 11 C1.67 11.165 1.67 11.165 0 12 C0.615 8.413 1.566 5.346 3 2 C2.01 2 1.02 2 0 2 C0 1.34 0 0.68 0 0 Z " fill="#1D1510" transform="translate(173,18)"/>
<path d="M0 0 C0.433 0.227 0.866 0.454 1.312 0.688 C-0.062 2.188 -0.062 2.188 -1.688 3.688 C-2.347 3.688 -3.007 3.688 -3.688 3.688 C-3.211 5.783 -2.871 6.548 -1.125 7.875 C-0.651 8.143 -0.176 8.411 0.312 8.688 C0.642 7.037 0.972 5.387 1.312 3.688 C1.642 4.183 1.642 4.183 3.312 6.688 C3.972 6.357 4.632 6.028 5.312 5.688 C6.938 6.625 6.938 6.625 8.312 7.688 C7.937 7.869 7.562 8.051 7.176 8.238 C4.139 9.73 1.228 11.292 -1.609 13.137 C-2.688 13.688 -2.688 13.688 -4.688 13.688 C-5.017 14.347 -5.347 15.007 -5.688 15.688 C-6.347 16.017 -7.007 16.347 -7.688 16.688 C-8.198 10.47 -6.952 5.707 -3.188 0.688 C-1.688 -0.312 -1.688 -0.312 0 0 Z " fill="#221C17" transform="translate(89.6875,211.3125)"/>
<path d="M0 0 C0.66 0 1.32 0 2 0 C2.36 0.991 2.69 1.993 3 3 C4.111 4.349 5.101 5.058 6.625 5.938 C7.079 6.288 7.532 6.639 8 7 C8.188 8.625 8.188 8.625 8 10 C8.66 9.67 9.32 9.34 10 9 C10 9.66 10 10.32 10 11 C11.875 12.062 11.875 12.062 14 13 C14.66 13.33 15.32 13.66 16 14 C16 14.66 16 15.32 16 16 C16.66 16 17.32 16 18 16 C18.625 17.5 18.625 17.5 19 19 C17.35 19 15.7 19 14 19 C14 18.34 14 17.68 14 17 C13.078 16.535 12.153 16.077 11.212 15.652 C8.802 14.356 6.879 12.403 4.875 10.562 C4.433 10.167 3.991 9.772 3.535 9.365 C-0.812 5.418 -0.812 5.418 -2 3 C-1.25 1.312 -1.25 1.312 0 0 Z " fill="#EAEAE6" transform="translate(111,153)"/>
<path d="M0 0 C0.66 0 1.32 0 2 0 C1.995 0.534 1.99 1.067 1.984 1.617 C1.967 3.638 1.954 5.658 1.945 7.678 C1.94 8.545 1.933 9.412 1.925 10.279 C1.912 11.54 1.907 12.801 1.902 14.062 C1.897 14.817 1.892 15.571 1.886 16.348 C2.039 19.915 2.557 23.457 3 27 C-4.26 27 -11.52 27 -19 27 C-19 26.67 -19 26.34 -19 26 C-13.06 25.67 -7.12 25.34 -1 25 C-1.012 23.279 -1.023 21.558 -1.035 19.785 C-1.043 18.124 -1.049 16.462 -1.055 14.801 C-1.06 13.644 -1.067 12.487 -1.075 11.329 C-1.088 9.669 -1.093 8.008 -1.098 6.348 C-1.103 5.828 -1.108 5.308 -1.113 4.772 C-1.113 3.514 -1.062 2.257 -1 1 C-0.67 0.67 -0.34 0.34 0 0 Z " fill="#E6E6E0" transform="translate(193,150)"/>
<path d="M0 0 C2.125 0.25 2.125 0.25 4 1 C3.856 1.176 3.856 1.176 3.125 2.066 C0.573 5.461 -0.578 7.977 -0.34 12.254 C0.219 15.126 1.476 17.524 3 20 C2.34 20 1.68 20 1 20 C0.375 22 0.375 22 0 24 C-0.289 23.505 -0.578 23.01 -0.875 22.5 C-1.246 22.005 -1.617 21.51 -2 21 C-2.66 21 -3.32 21 -4 21 C-4 20.34 -4 19.68 -4 19 C-3.34 19 -2.68 19 -2 19 C-2.33 17.35 -2.66 15.7 -3 14 C-3.33 14.165 -3.33 14.165 -5 15 C-5.027 13.729 -5.046 12.458 -5.062 11.188 C-5.074 10.48 -5.086 9.772 -5.098 9.043 C-5.006 7.121 -4.862 5.719 -4 4 C-3.34 4 -2.68 4 -2 4 C-1.711 3.319 -1.422 2.639 -1.125 1.938 C-0.754 1.298 -0.383 0.659 0 0 Z " fill="#E9EAE5" transform="translate(57,157)"/>
<path d="M0 0 C1.375 0.812 1.375 0.812 2.062 2.375 C2.166 2.849 2.269 3.324 2.375 3.812 C1.385 3.812 0.395 3.812 -0.625 3.812 C-0.625 4.472 -0.625 5.132 -0.625 5.812 C-0.414 5.801 -0.414 5.801 0.652 5.742 C1.2 5.724 1.748 5.706 2.312 5.688 C2.858 5.664 3.403 5.641 3.965 5.617 C4.198 5.649 4.198 5.649 5.375 5.812 C5.705 6.472 6.035 7.132 6.375 7.812 C7.938 8.938 7.938 8.938 9.375 9.812 C7.065 9.812 4.755 9.812 2.375 9.812 C2.375 11.463 2.375 13.113 2.375 14.812 C2.045 13.822 1.715 12.833 1.375 11.812 C1.138 11.905 1.138 11.905 -0.062 12.375 C-0.32 12.447 -0.32 12.447 -1.625 12.812 C-2.625 11.812 -2.625 11.812 -2.723 10.402 C-2.711 9.857 -2.699 9.312 -2.688 8.75 C-2.678 8.202 -2.669 7.654 -2.66 7.09 C-2.649 6.668 -2.637 6.247 -2.625 5.812 C-2.955 6.143 -3.285 6.472 -3.625 6.812 C-4.617 7.17 -5.617 7.506 -6.625 7.812 C-5.166 2.353 -5.166 2.353 -3.188 0.375 C-1.625 -0.188 -1.625 -0.188 0 0 Z " fill="#251C16" transform="translate(202.625,139.1875)"/>
<path d="M0 0 C0.124 0.495 0.248 0.99 0.375 1.5 C0.581 1.995 0.787 2.49 1 3 C1.66 3 2.32 3 3 3 C3.144 2.505 3.289 2.01 3.438 1.5 C3.623 1.005 3.809 0.51 4 0 C5.562 -0.188 5.562 -0.188 7 0 C7 0.99 7 1.98 7 3 C7.66 3 8.32 3 9 3 C9 2.34 9 1.68 9 1 C9.66 1 10.32 1 11 1 C10.875 3 10.875 3 10 5 C8.428 5.23 7.049 5.123 5.473 4.945 C4 5 4 5 2.943 5.818 C1.8 7.251 1.648 8.158 1.438 9.969 C1.363 10.54 1.288 11.111 1.211 11.699 C1.141 12.293 1.072 12.888 1 13.5 C0.862 14.678 0.716 15.855 0.562 17.031 C0.502 17.553 0.441 18.074 0.379 18.611 C-0.067 20.247 -0.72 20.919 -2 22 C-2 17.667 -2 13.333 -2 9 C-2.009 8.473 -2.018 7.947 -2.027 7.404 C-1.994 5.712 -1.566 4.403 -1 2.812 C-0.814 2.283 -0.629 1.753 -0.438 1.207 C-0.293 0.809 -0.149 0.41 0 0 Z " fill="#DFDDD9" transform="translate(85,67)"/>
<path d="M0 0 C0.33 0 0.66 0 1 0 C1.292 3.894 1.543 7.789 1.757 11.688 C1.835 13.013 1.925 14.337 2.025 15.66 C2.849 26.615 2.849 26.615 0.752 30.034 C-0.816 31.413 -2.022 32.332 -4 33 C-6.375 32.312 -6.375 32.312 -8 31 C-7.548 30.184 -7.088 29.372 -6.625 28.562 C-6.497 28.336 -6.497 28.336 -5.852 27.191 C-5 26 -5 26 -3 25 C-2.621 23.809 -2.621 23.809 -2.438 22.438 C-2.293 21.633 -2.149 20.829 -2 20 C-1.67 20 -1.34 20 -1 20 C-0.67 13.4 -0.34 6.8 0 0 Z " fill="#36302D" transform="translate(71,49)"/>
<path d="M0 0 C0.66 0 1.32 0 2 0 C2 2.97 2 5.94 2 9 C6.29 9 10.58 9 15 9 C14.01 9.33 13.02 9.66 12 10 C12 10.66 12 11.32 12 12 C7.71 12 3.42 12 -1 12 C-0.67 10.68 -0.34 9.36 0 8 C-0.66 8 -1.32 8 -2 8 C-2.33 8.66 -2.66 9.32 -3 10 C-3.996 10.346 -4.996 10.679 -6 11 C-7.188 12.062 -7.188 12.062 -8 13 C-7.296 8.543 -7.296 8.543 -6.25 6.625 C-4.117 5.558 -2.248 6.408 0 7 C0 4.69 0 2.38 0 0 Z " fill="#110905" transform="translate(123,218)"/>
<path d="M0 0 C3.507 1.286 4.999 2.999 7 6 C6.649 6.268 6.299 6.536 5.938 6.812 C5.783 7.008 5.783 7.008 5 8 C5.438 9.5 5.438 9.5 6 11 C5.67 11.66 5.34 12.32 5 13 C5.66 13 6.32 13 7 13 C7.33 12.34 7.66 11.68 8 11 C8 11.66 8 12.32 8 13 C8.66 13.33 9.32 13.66 10 14 C8.095 15.548 6.233 16.963 4 18 C2.062 17.125 2.062 17.125 1 15 C1.063 12.922 1.462 11.004 2 9 C1.34 9 0.68 9 0 9 C0 8.34 0 7.68 0 7 C0.66 7 1.32 7 2 7 C2 6.01 2 5.02 2 4 C1.34 4 0.68 4 0 4 C-0.688 2.562 -0.688 2.562 -1 1 C-0.67 0.67 -0.34 0.34 0 0 Z " fill="#241D17" transform="translate(46,200)"/>
<path d="M0 0 C2.375 0.312 2.375 0.312 3.375 1.312 C3.724 5.384 2.832 8.526 1.375 12.312 C0.715 11.982 0.055 11.653 -0.625 11.312 C-1.039 9.902 -1.039 9.902 -1.25 8.25 C-1.325 7.702 -1.4 7.154 -1.477 6.59 C-1.526 6.168 -1.575 5.747 -1.625 5.312 C-2.285 5.312 -2.945 5.312 -3.625 5.312 C-3.625 8.282 -3.625 11.252 -3.625 14.312 C-2.635 13.982 -1.645 13.653 -0.625 13.312 C-0.295 13.972 0.035 14.632 0.375 15.312 C-1.062 16.938 -1.062 16.938 -2.625 18.312 C-5.642 14.415 -6.098 11.313 -5.91 6.406 C-5.398 2.644 -4.136 0.144 0 0 Z " fill="#201A16" transform="translate(89.625,159.6875)"/>
<path d="M0 0 C0.278 1.89 0.349 3.459 0.293 5.348 C0.289 5.879 0.284 6.41 0.28 6.958 C0.263 8.66 0.226 10.361 0.188 12.062 C0.172 13.214 0.159 14.366 0.146 15.518 C0.113 18.346 0.062 21.173 0 24 C-1.468 23.807 -1.468 23.807 -3 23 C-3.353 21.259 -3.488 19.844 -3.512 18.09 C-3.53 17.603 -3.548 17.116 -3.566 16.614 C-3.62 15.056 -3.654 13.497 -3.688 11.938 C-3.721 10.882 -3.755 9.827 -3.791 8.771 C-3.879 6.181 -3.939 3.592 -4 1 C-7.96 1 -11.92 1 -16 1 C-16 0.67 -16 0.34 -16 0 C-13.897 -0.198 -11.792 -0.381 -9.688 -0.562 C-9.093 -0.619 -8.498 -0.675 -7.885 -0.732 C-7.308 -0.781 -6.731 -0.829 -6.137 -0.879 C-5.608 -0.926 -5.079 -0.973 -4.534 -1.022 C-1.538 -0.979 -1.538 -0.979 0 0 Z " fill="#2D251E" transform="translate(212,67)"/>
<path d="M0 0 C0.66 0 1.32 0 2 0 C1.691 0.598 1.381 1.196 1.062 1.812 C0.222 3.544 -0.449 5.164 -1 7 C-0.34 7 0.32 7 1 7 C1.194 10.877 1.372 14.755 1.537 18.633 C1.595 19.951 1.657 21.268 1.724 22.584 C1.819 24.486 1.899 26.387 1.977 28.289 C2.009 28.871 2.041 29.452 2.074 30.051 C2.219 34.077 1.518 37.272 0 41 C-0.124 40.526 -0.248 40.051 -0.375 39.562 C-1 38 -1 38 -3 37 C-2.01 37 -1.02 37 0 37 C-0.33 28.75 -0.66 20.5 -1 12 C-1.99 12 -2.98 12 -4 12 C-4.579 7.463 -3.658 4.839 -1.07 1.102 C-0.717 0.738 -0.364 0.375 0 0 Z " fill="#231C16" transform="translate(170,178)"/>
<path d="M0 0 C0.99 0.165 0.99 0.165 6 1 C6 1.99 6 2.98 6 4 C6.996 4.346 7.996 4.679 9 5 C9.357 5.992 9.693 6.992 10 8 C10.66 8 11.32 8 12 8 C12 9.32 12 10.64 12 12 C12.66 12 13.32 12 14 12 C15 13.059 15 13.059 16 14.438 C17.336 16.27 17.914 16.957 20 18 C19.67 18.99 19.34 19.98 19 21 C11.86 15.075 4.898 8.99 0 1 C0 0.67 0 0.34 0 0 Z " fill="#E8E8E3" transform="translate(29,179)"/>
<path d="M0 0 C4.453 0.498 6.628 1.994 9.812 5.062 C10.219 5.44 10.626 5.817 11.045 6.205 C12.038 7.128 13.02 8.063 14 9 C13.34 9.99 13.34 9.99 10 15 C9.34 14.01 8.68 13.02 8 12 C6.492 11.27 6.492 11.27 4.875 10.812 C4.336 10.654 3.797 10.495 3.242 10.332 C2.832 10.222 2.422 10.113 2 10 C2.66 9.34 3.32 8.68 4 8 C4 8.66 4 9.32 4 10 C4.99 10 5.98 10 7 10 C6.188 8 6.188 8 5 6 C3.375 5.75 3.375 5.75 2 6 C2 5.34 2 4.68 2 4 C1.34 3.67 0.68 3.34 0 3 C-0.125 1.438 -0.125 1.438 0 0 Z " fill="#E8E7E4" transform="translate(84,149)"/>
<path d="M0 0 C6.6 0 13.2 0 20 0 C20 1.32 20 2.64 20 4 C17.604 4.059 15.209 4.094 12.812 4.125 C12.476 4.133 12.476 4.133 10.771 4.176 C6.704 4.215 3.595 3.996 0 2 C0 1.34 0 0.68 0 0 Z " fill="#DAD7CF" transform="translate(188,56)"/>
<path d="M0 0 C0.33 0 0.66 0 1 0 C1.33 4.29 1.66 8.58 2 13 C5 10 5 10 5.188 8.43 C5.126 7.917 5.064 7.404 5 6.875 C4.812 5.305 4.812 5.305 5 4 C6.5 3.32 6.5 3.32 8 3 C8.221 4.478 8.427 5.956 8.625 7.438 C8.689 7.858 8.754 8.279 8.82 8.713 C8.977 9.934 8.977 9.934 9 12 C8.67 12.165 8.67 12.165 7 13 C6.835 13.516 6.67 14.031 6.5 14.562 C6.335 15.037 6.17 15.511 6 16 C5.34 16 4.68 16 4 16 C4 16.66 4 17.32 4 18 C3.526 17.959 3.051 17.917 2.562 17.875 C2.047 17.916 1.531 17.958 1 18 C0.67 18.66 0.34 19.32 0 20 C0 13.4 0 6.8 0 0 Z " fill="#2C241C" transform="translate(210,117)"/>
<path d="M0 0 C0.196 1.583 0.382 3.165 0.562 4.75 C0.619 5.193 0.675 5.637 0.732 6.094 C0.988 8.411 1.019 9.93 0.402 12.227 C0.27 12.812 0.137 13.397 0 14 C0.812 14.977 0.812 14.977 2 15.625 C2.66 16.079 3.32 16.532 4 17 C3.67 17.66 3.34 18.32 3 19 C-4.154 13.713 -4.154 13.713 -5 9 C-5.276 5.989 -5.368 3.736 -4 1 C-2.626 0.428 -1.495 0 0 0 Z " fill="#2C2620" transform="translate(173,37)"/>
<path d="M0 0 C0.66 0 1.32 0 2 0 C2.185 11.522 2.185 11.522 1 17 C-0.5 16.125 -0.5 16.125 -2 15 C-2 14.34 -2 13.68 -2 13 C-3.59 11.194 -4.839 10.081 -7 9 C-6.505 8.897 -6.01 8.794 -5.5 8.688 C-5.005 8.461 -4.51 8.234 -4 8 C-4.021 7.505 -4.041 7.01 -4.062 6.5 C-4.042 6.005 -4.021 5.51 -4 5 C-2 4.312 -2 4.312 0 4 C-0.186 3.526 -0.371 3.051 -0.562 2.562 C-0.707 2.047 -0.851 1.531 -1 1 C-0.67 0.67 -0.34 0.34 0 0 Z " fill="#18110C" transform="translate(90,90)"/>
<path d="M0 0 C4.5 2.25 4.5 2.25 6.141 3.945 C6.489 4.3 6.837 4.654 7.195 5.02 C7.543 5.384 7.891 5.749 8.25 6.125 C8.614 6.498 8.977 6.87 9.352 7.254 C10.239 8.165 11.12 9.082 12 10 C9.917 10.82 8.613 11.115 6.438 10.562 C4.833 10.168 3.687 10 2 10 C1.34 11.32 0.68 12.64 0 14 C0 9.38 0 4.76 0 0 Z " fill="#DADAD8" transform="translate(33,201)"/>
<path d="M0 0 C3.14 1.191 4.827 2.47 6.391 5.477 C9.31 12.775 7.43 19.438 4.675 26.483 C2.382 31.636 -0.742 35.7 -6 38 C-4.694 35.113 -3.28 33.12 -1.062 30.875 C4.017 25.063 5.611 17.683 5.367 10.043 C4.77 6.722 3.09 4.56 1 2 C0.67 1.34 0.34 0.68 0 0 Z " fill="#6C6965" transform="translate(229,144)"/>
<path d="M0 0 C1.562 0.125 1.562 0.125 3 1 C3.688 3.062 3.688 3.062 4 5 C4.227 4.752 4.227 4.752 5.375 3.5 C7 2 7 2 9 2 C9 2.66 9 3.32 9 4 C9.66 4 10.32 4 11 4 C11 4.99 11 5.98 11 7 C10.34 7 9.68 7 9 7 C9 7.66 9 8.32 9 9 C9.66 9 10.32 9 11 9 C10.34 10.32 9.68 11.64 9 13 C5.37 9.37 1.74 5.74 -2 2 C-1.34 1.34 -0.68 0.68 0 0 Z " fill="#140E09" transform="translate(37,200)"/>
<path d="M0 0 C0.33 0 0.66 0 1 0 C1.33 4.29 1.66 8.58 2 13 C2.66 11.02 3.32 9.04 4 7 C4.33 7 4.66 7 5 7 C5.029 9.104 5.047 11.208 5.062 13.312 C5.067 13.61 5.067 13.61 5.088 15.115 C5.091 15.692 5.094 16.269 5.098 16.863 C5.103 17.392 5.108 17.921 5.114 18.466 C4.988 20.157 4.728 21.465 4 23 C3.34 23 2.68 23 2 23 C2 24.65 2 26.3 2 28 C1.67 28 1.34 28 1 28 C0.084 24.451 -0.137 21.13 -0.098 17.48 C-0.096 16.977 -0.095 16.474 -0.093 15.955 C-0.088 14.366 -0.075 12.777 -0.062 11.188 C-0.057 10.102 -0.053 9.017 -0.049 7.932 C-0.038 5.288 -0.021 2.644 0 0 Z " fill="#E2E2E0" transform="translate(72,50)"/>
<path d="M0 0 C3.368 1.443 5.538 3.303 8 6 C7.588 6.268 7.175 6.536 6.75 6.812 C5 8 5 8 3.188 9.556 C0.907 11.266 -0.905 11.348 -3.766 11.293 C-4.204 11.289 -4.642 11.284 -5.094 11.28 C-6.48 11.263 -7.864 11.226 -9.25 11.188 C-10.195 11.172 -11.141 11.159 -12.086 11.146 C-14.391 11.114 -16.695 11.062 -19 11 C-19 10.67 -19 10.34 -19 10 C-12.73 10 -6.46 10 0 10 C0 8.68 0 7.36 0 6 C0 5.34 0 4.68 0 4 C-0.66 3.67 -1.32 3.34 -2 3 C-1.34 2.01 -0.68 1.02 0 0 Z " fill="#3E3733" transform="translate(112,161)"/>
<path d="M0 0 C9.24 0 18.48 0 28 0 C28 0.33 28 0.66 28 1 C20.41 1.33 12.82 1.66 5 2 C5.33 3.98 5.66 5.96 6 8 C7.562 8.875 7.562 8.875 9 9 C7.68 9 6.36 9 5 9 C5.33 9.99 5.66 10.98 6 12 C5.67 12.165 5.67 12.165 4 13 C3.902 12.541 3.804 12.082 3.703 11.609 C2.635 7.224 1.475 4.896 -2 2 C-1.34 2 -0.68 2 0 2 C0 1.34 0 0.68 0 0 Z " fill="#3A312D" transform="translate(183,47)"/>
<path d="M0 0 C0.297 0.001 0.297 0.001 1.799 0.009 C3.684 0.02 5.568 0.045 7.453 0.07 C8.736 0.08 10.018 0.089 11.301 0.098 C14.435 0.12 17.569 0.154 20.703 0.195 C20.703 0.525 20.703 0.855 20.703 1.195 C13.773 1.195 6.843 1.195 -0.297 1.195 C-0.297 2.185 -0.297 3.175 -0.297 4.195 C-3.263 4.766 -6.081 5.266 -9.109 5.133 C-9.47 5.143 -9.47 5.143 -11.297 5.195 C-11.627 5.855 -11.957 6.515 -12.297 7.195 C-12.297 6.205 -12.297 5.215 -12.297 4.195 C-11.637 4.195 -10.977 4.195 -10.297 4.195 C-10.297 3.535 -10.297 2.875 -10.297 2.195 C-6.977 -0.104 -3.94 -0.071 0 0 Z " fill="#3B322E" transform="translate(88.296875,189.8046875)"/>
<path d="M0 0 C0.248 0.66 0.495 1.32 0.75 2 C1.162 2.66 1.575 3.32 2 4 C4.125 4.25 4.125 4.25 6 4 C6 6 6 6 5.23 6.965 C5.058 7.125 5.058 7.125 4.188 7.938 C2.846 9.199 1.609 10.436 0.375 11.812 C-0.079 12.204 -0.532 12.596 -1 13 C-3 12 -3 12 -3.562 10.688 C-3.707 10.131 -3.851 9.574 -4 9 C-4.289 8.381 -4.577 7.762 -4.875 7.125 C-5 5 -5 5 -3.949 3.633 C-2.675 2.362 -1.375 1.161 0 0 Z " fill="#EDEDE9" transform="translate(166,172)"/>
<path d="M0 0 C1.5 0.875 1.5 0.875 3 2 C3 2.66 3 3.32 3 4 C2.34 4 1.68 4 1 4 C0.67 4.66 0.34 5.32 0 6 C0 5.34 0 4.68 0 4 C-1.485 4.165 -1.485 4.165 -9 5 C-9 6.32 -9 7.64 -9 9 C-11.821 10.236 -14.707 10.107 -17.75 10.062 C-18.549 10.053 -19.348 10.044 -20.172 10.035 C-20.775 10.024 -21.378 10.012 -22 10 C-22 9.67 -22 9.34 -22 9 C-20.845 8.835 -20.845 8.835 -15 8 C-15.062 7.361 -15.124 6.721 -15.188 6.062 C-15.126 5.382 -15.064 4.701 -15 4 C-12.245 2.469 -8.87 2.891 -5.812 2.938 C-5.533 2.94 -5.533 2.94 -4.119 2.951 C-2.746 2.963 -1.373 2.979 0 3 C0 2.01 0 1.02 0 0 Z " fill="#342B24" transform="translate(208,57)"/>
<path d="M0 0 C-0.206 0.639 -0.412 1.279 -0.625 1.938 C-0.749 2.618 -0.873 3.299 -1 4 C-0.34 4.33 0.32 4.66 1 5 C-1.475 5.495 -1.475 5.495 -14 8 C-12 3 -12 3 -9.688 1.855 C-8.797 1.612 -7.901 1.39 -7 1.188 C-6.549 1.067 -6.098 0.946 -5.633 0.822 C-3.709 0.324 -1.992 0 0 0 Z " fill="#201916" transform="translate(132,191)"/>
<path d="M0 0 C0.456 0.005 0.911 0.01 1.381 0.016 C1.874 0.019 2.367 0.022 2.875 0.026 C3.133 0.03 3.133 0.03 4.439 0.051 C4.959 0.056 5.479 0.06 6.015 0.065 C7.303 0.077 8.59 0.094 9.877 0.114 C9.877 0.444 9.877 0.774 9.877 1.114 C9.594 1.08 9.594 1.08 8.162 0.91 C5.62 0.857 4.12 0.876 1.877 2.114 C0.433 5.821 0.75 10.195 0.877 14.114 C0.547 14.114 0.217 14.114 -0.123 14.114 C-0.453 17.084 -0.783 20.054 -1.123 23.114 C-1.453 23.114 -1.783 23.114 -2.123 23.114 C-2.148 19.999 -2.166 16.884 -2.178 13.769 C-2.183 12.709 -2.19 11.649 -2.199 10.588 C-2.211 9.067 -2.217 7.545 -2.221 6.024 C-2.226 5.548 -2.231 5.072 -2.237 4.581 C-2.237 3.425 -2.185 2.268 -2.123 1.114 C-1.123 0.114 -1.123 0.114 0 0 Z " fill="#C9C7C2" transform="translate(177.123291015625,185.886474609375)"/>
<path d="M0 0 C3.773 1.582 3.773 1.582 4.648 3.191 C5.17 5.876 4.922 8.413 4.688 11.125 C4.64 11.699 4.592 12.273 4.543 12.864 C3.627 22.886 3.627 22.886 2 27 C1.34 27 0.68 27 0 27 C0.061 26.516 0.121 26.033 0.184 25.535 C0.459 23.315 0.73 21.095 1 18.875 C1.095 18.114 1.191 17.354 1.289 16.57 C2.75 4.468 2.75 4.468 0 0 Z " fill="#7B7876" transform="translate(228,19)"/>
<path d="M0 0 C0.33 0 0.66 0 1 0 C1 6.93 1 13.86 1 21 C-6.875 22.125 -6.875 22.125 -11 21 C-10.01 20.34 -9.02 19.68 -8 19 C-8.495 18.856 -8.99 18.711 -9.5 18.562 C-9.995 18.377 -10.49 18.191 -11 18 C-11 17.67 -11 17.34 -11 17 C-7.37 17 -3.74 17 0 17 C0 11.39 0 5.78 0 0 Z " fill="#3B342F" transform="translate(207,72)"/>
<path d="M0 0 C3.062 1.706 5.622 3.371 8 6 C6.344 7.018 4.675 8.012 3 9 C2.62 9.236 2.239 9.472 1.848 9.715 C0.812 10.312 0.812 10.312 -1 11 C-2.25 10.25 -2.25 10.25 -3 9 C-3 8.34 -3 7.68 -3 7 C-2.34 7 -1.68 7 -1 7 C-1.103 6.773 -1.103 6.773 -1.625 5.625 C-1.749 5.089 -1.873 4.553 -2 4 C-1.062 2.938 -1.062 2.938 0 2 C0 1.34 0 0.68 0 0 Z " fill="#271D19" transform="translate(88,139)"/>
<path d="M0 0 C0.33 0 0.66 0 1 0 C1 3.63 1 7.26 1 11 C0.01 10.67 -0.98 10.34 -2 10 C-2 14.95 -2 19.9 -2 25 C-2.33 25 -2.66 25 -3 25 C-3 17.41 -3 9.82 -3 2 C-2.34 2 -1.68 2 -1 2 C-0.67 1.34 -0.34 0.68 0 0 Z " fill="#130C08" transform="translate(169,188)"/>
<path d="M0 0 C1.615 -0.282 2.859 -0.351 4.473 -0.293 C4.694 -0.291 4.694 -0.291 5.814 -0.28 C7.231 -0.263 8.646 -0.226 10.062 -0.188 C11.021 -0.172 11.98 -0.159 12.939 -0.146 C15.294 -0.113 17.647 -0.062 20 0 C19 2 19 2 17.828 2.414 C11.576 3.25 5.295 3.092 -1 3 C-0.78 1.518 -0.78 1.518 0 0 Z " fill="#F5F3F0" transform="translate(120,125)"/>
<path d="M0 0 C2 1 4 2 6 3 C6.52 4.812 6.52 4.812 6.812 7 C6.867 7.361 6.867 7.361 7.145 9.188 C7.121 9.487 7.121 9.487 7 11 C5.613 11.84 5.613 11.84 4 12 C0.341 8.763 0.328 4.66 0 0 Z " fill="#2B201A" transform="translate(24,216)"/>
<path d="M0 0 C0.474 0.021 0.949 0.041 1.438 0.062 C0.963 4.532 0.034 9.313 -2.562 13.062 C-4.164 13.258 -4.164 13.258 -5.562 13.062 C-3.823 0.153 -3.823 0.153 0 0 Z " fill="#EFEFEA" transform="translate(173.5625,133.9375)"/>
<path d="M0 0 C0.397 -0.001 0.397 -0.001 2.406 -0.008 C4.5 0.125 4.5 0.125 6.5 1.125 C6.5 1.785 6.5 2.445 6.5 3.125 C2.118 5.727 -1.632 5.019 -6.5 4.125 C-6.625 2.688 -6.625 2.688 -6.5 1.125 C-4.134 -0.058 -2.632 -0.009 0 0 Z " fill="#261D18" transform="translate(83.5,193.875)"/>
<path d="M0 0 C0.33 0 0.66 0 1 0 C1.465 1.207 1.465 1.207 1.938 2.812 C2.547 4.791 3.031 6.044 4.25 7.75 C4.374 7.956 4.374 7.956 5 9 C4.188 10.062 4.188 10.062 3 11 C2.67 11.66 2.34 12.32 2 13 C0.438 13.125 0.438 13.125 -1 13 C-1 12.34 -1 11.68 -1 11 C-1.66 11 -2.32 11 -3 11 C-2.67 8.03 -2.34 5.06 -2 2 C-1.34 2 -0.68 2 0 2 C0 1.34 0 0.68 0 0 Z " fill="#251C18" transform="translate(177,38)"/>
<path d="M0 0 C0.246 0.047 0.246 0.047 1.492 0.286 C2.027 0.382 2.562 0.479 3.113 0.579 C3.668 0.691 4.224 0.803 4.796 0.918 C5.36 1.023 5.923 1.127 6.503 1.235 C7.895 1.494 9.284 1.764 10.671 2.043 C10.671 2.373 10.671 2.703 10.671 3.043 C9.947 2.985 9.222 2.927 8.476 2.868 C-0.312 2.375 -0.312 2.375 -3.579 5.293 C-4.019 5.746 -4.46 6.198 -4.915 6.665 C-7.341 9.03 -10.353 10.468 -13.329 12.043 C-11.95 8.726 -10.307 6.958 -7.329 4.918 C-3.434 2.167 -3.434 2.167 -2.388 0.943 C-1.329 0.043 -1.329 0.043 0 0 Z " fill="#64605C" transform="translate(174.32861328125,219.95654296875)"/>
<path d="M0 0 C0.66 0.33 1.32 0.66 2 1 C2.047 2.777 2.047 2.777 1.75 4.938 C1.706 5.293 1.706 5.293 1.484 7.09 C1 9 1 9 -1 11 C-2.65 9.35 -4.3 7.7 -6 6 C-4 4 -2 2 0 0 Z " fill="#E4E3DE" transform="translate(223,155)"/>
<path d="M0 0 C0.99 0 1.98 0 3 0 C1.887 3.928 0.646 6.873 -2 10 C-2 9.34 -2 8.68 -2 8 C-2.474 8.103 -2.949 8.206 -3.438 8.312 C-3.695 8.261 -3.695 8.261 -5 8 C-5.829 6.361 -6.103 4.83 -6 3 C-4.47 1.393 -3.513 1.038 -1.312 0.875 C-1.096 0.896 -1.096 0.896 0 1 C0 0.67 0 0.34 0 0 Z " fill="#221812" transform="translate(43,104)"/>
<path d="M0 0 C0 2 0 4 0 6 C0.66 6 1.32 6 2 6 C0.25 9.875 0.25 9.875 -2 11 C-2 10.01 -2 9.02 -2 8 C-3.32 8.33 -4.64 8.66 -6 9 C-6.375 7.312 -6.375 7.312 -6 5 C-4.166 3.107 -2.13 1.547 0 0 Z " fill="#251B15" transform="translate(159,171)"/>
<path d="M0 0 C1 4 1 4 1 4 Z M-8 2 C-7.67 2.495 -7.67 2.495 -6 5 C-6.33 5.66 -6.66 6.32 -7 7 C-6.34 7 -5.68 7 -5 7 C-5 6.01 -5 5.02 -5 4 C-4.34 4 -3.68 4 -3 4 C-2.67 4.66 -2.34 5.32 -2 6 C-1.34 5.34 -0.68 4.68 0 4 C-0.375 6 -0.375 6 -1 8 C-1.66 8 -2.32 8 -3 8 C-3.33 10.31 -3.66 12.62 -4 15 C-6.092 11.431 -6.092 11.431 -5.625 9.25 C-5.419 8.838 -5.213 8.425 -5 8 C-5.66 8 -6.32 8 -7 8 C-7.33 8.66 -7.66 9.32 -8 10 C-8 7.36 -8 4.72 -8 2 Z " fill="#1C120B" transform="translate(233,151)"/>
<path d="M0 0 C0.66 0 1.32 0 2 0 C2.988 1.977 3.123 2.681 3.114 4.797 C3.113 5.078 3.113 5.078 3.113 6.496 C3.108 7.098 3.103 7.7 3.098 8.32 C3.096 8.939 3.095 9.558 3.093 10.195 C3.088 12.172 3.075 14.148 3.062 16.125 C3.057 17.465 3.053 18.805 3.049 20.145 C3.038 23.43 3.021 26.715 3 30 C2.67 30 2.34 30 2 30 C1.987 29.677 1.987 29.677 1.924 28.044 C1.829 25.636 1.729 23.228 1.628 20.82 C1.585 19.781 1.543 18.741 1.503 17.701 C1.445 16.202 1.381 14.702 1.316 13.203 C1.308 12.973 1.308 12.973 1.266 11.807 C1.114 8.448 0.541 5.461 -0.625 2.312 C-0.749 1.879 -0.873 1.446 -1 1 C-0.67 0.67 -0.34 0.34 0 0 Z " fill="#0F0A06" transform="translate(68,41)"/>
<path d="M0 0 C0.99 0.33 1.98 0.66 3 1 C2.67 1.165 2.67 1.165 1 2 C1 2.66 1 3.32 1 4 C2.331 4.343 3.664 4.676 5 5 C5.33 5.66 5.66 6.32 6 7 C6.66 7 7.32 7 8 7 C8.625 9 8.625 9 9 11 C5.916 10.909 4.586 10.571 2.332 8.375 C0.816 6.64 -0.606 4.834 -2 3 C-1.34 2.67 -0.68 2.34 0 2 C0 1.34 0 0.68 0 0 Z " fill="#E8E9E4" transform="translate(74,178)"/>
<path d="M0 0 C0.33 0 0.66 0 1 0 C2.912 15.584 2.912 15.584 -1.09 20.996 C-1.39 21.327 -1.691 21.659 -2 22 C-2.66 21.67 -3.32 21.34 -4 21 C-3.795 20.573 -3.59 20.147 -3.379 19.707 C-0.605 13.269 -0.287 6.934 0 0 Z " fill="#413936" transform="translate(175,124)"/>
<path d="M0 0 C1.466 2.025 2.05 3.236 1.884 5.766 C1.52 7.86 1.091 9.926 0.625 12 C0.322 13.416 0.023 14.833 -0.273 16.25 C-0.412 16.874 -0.55 17.498 -0.693 18.141 C-1.021 20.124 -1.052 21.993 -1 24 C-1.66 24 -2.32 24 -3 24 C-2.509 15.866 -1.648 7.983 0 0 Z " fill="#5A5351" transform="translate(93,90)"/>
<path d="M0 0 C0.639 0.021 1.279 0.041 1.938 0.062 C1.684 1.9 1.411 3.73 1.125 5.562 C1.055 6.087 0.984 6.612 0.912 7.152 C0.688 8.534 0.482 9.772 -0.062 11.062 C-1.637 11.406 -1.637 11.406 -3.062 11.062 C-3.089 9.417 -3.109 7.771 -3.125 6.125 C-3.133 5.656 -3.142 5.188 -3.15 4.705 C-3.159 3.491 -3.114 2.276 -3.062 1.062 C-2.062 0.062 -2.062 0.062 0 0 Z " fill="#CECBC5" transform="translate(82.0625,89.9375)"/>
<path d="M0 0 C0.248 0.309 0.495 0.619 0.75 0.938 C2.386 2.328 3.92 2.584 6 3 C5.552 4.171 5.091 5.337 4.625 6.5 C4.37 7.15 4.115 7.799 3.852 8.469 C3.571 8.974 3.29 9.479 3 10 C2.34 10 1.68 10 1 10 C0.148 8.469 0.148 8.469 -0.625 6.5 C-0.885 5.85 -1.146 5.201 -1.414 4.531 C-1.607 4.026 -1.801 3.521 -2 3 C-1.34 3 -0.68 3 0 3 C0 2.01 0 1.02 0 0 Z " fill="#C9C6C1" transform="translate(102,79)"/>
<path d="M0 0 C0.262 3.403 0.262 3.403 0 5 C-1.375 5.625 -1.375 5.625 -3 6 C-4.188 7.562 -4.188 7.562 -5 9 C-5 8.34 -5 7.68 -5 7 C-5.99 7 -6.98 7 -8 7 C-8 6.34 -8 5.68 -8 5 C-8.66 4.67 -9.32 4.34 -10 4 C-8.522 3.331 -7.043 2.665 -5.562 2 C-5.142 1.809 -4.721 1.618 -4.287 1.422 C-1.113 0 -1.113 0 0 0 Z " fill="#DFDED9" transform="translate(220,27)"/>
</svg>
