<?xml version="1.0" encoding="UTF-8"?>
<!-- Generator: visioncortex VTracer 0.6.12 -->
<svg version="1.1" xmlns="http://www.w3.org/2000/svg" width="128" height="128">
<path d="M0 0 C5.428 3.514 8.232 7.958 10.828 13.781 C11.074 14.33 11.321 14.88 11.574 15.445 C13.935 21.535 13.206 27.076 10.726 33.01 C6.701 41.773 0.207 46.857 -8.733 50.299 C-15.759 52.653 -22.104 50.213 -28.504 47.195 C-34.712 44.041 -39.227 37.831 -41.72 31.357 C-43.417 25.435 -43.204 16.996 -40.672 11.406 C-35.753 3.42 -29.605 -1.651 -20.462 -3.942 C-13.167 -5.508 -6.414 -3.599 0 0 Z " fill="#8F699E" transform="translate(100.171875,63.21875)"/>
<path d="M0 0 C2.124 1.56 3.922 3.365 5.69 5.312 C6.017 5.671 6.343 6.03 6.679 6.4 C10.6 11.083 11.564 16.269 11.503 22.25 C11.501 22.533 11.501 22.533 11.49 23.966 C11.3 31.081 9.145 36.673 4.19 41.875 C2.465 43.282 0.649 44.461 -1.247 45.625 C-1.712 45.927 -2.176 46.23 -2.655 46.542 C-8.63 50.293 -15.083 50.651 -21.974 49.519 C-29.47 47.546 -36.284 42.278 -40.294 35.601 C-43.691 28.585 -44.858 21.73 -42.31 14.312 C-38.953 5.66 -33.525 0.545 -25.142 -3.215 C-16.572 -6.709 -7.621 -4.907 0 0 Z " fill="#A2749D" transform="translate(59.8095703125,20.12548828125)"/>
<path d="M0 0 C1.568 0.988 2.971 2.047 4.387 3.242 C4.565 3.381 4.565 3.381 5.465 4.082 C7.099 5.694 7.36 7.007 7.621 9.285 C7.551 12.753 7.201 15.605 4.773 18.195 C2.311 20.404 -0.207 22.009 -3.523 22.559 C-7.615 22.262 -9.977 20.481 -12.668 17.496 C-14.652 14.865 -14.749 12.967 -14.738 9.742 C-14.741 8.948 -14.743 8.154 -14.746 7.336 C-14.613 5.242 -14.613 5.242 -13.613 3.242 C-12.953 3.242 -12.293 3.242 -11.613 3.242 C-11.613 2.582 -11.613 1.922 -11.613 1.242 C-8.038 -1.233 -4.015 -1.886 0 0 Z " fill="#5E2E6C" transform="translate(47.61328125,31.7578125)"/>
<path d="M0 0 C3.271 2.108 6.243 4.486 8 8 C8.66 11.59 8.16 14.179 6.188 17.25 C4.707 19.36 3.283 20.776 1 22 C-3.103 22.661 -7.48 22.33 -11 20 C-13.276 18.096 -14.69 16.229 -15.422 13.328 C-15.713 9.67 -14.988 7.546 -12.688 4.688 C-8.976 0.619 -5.556 -1.338 0 0 Z " fill="#5C2D6D" transform="translate(88,75)"/>
<path d="M0 0 C0 0.33 0 0.66 0 1 C-1.65 1 -3.3 1 -5 1 C-4.67 1.99 -4.34 2.98 -4 4 C-4.205 3.994 -4.205 3.994 -5.242 3.965 C-5.781 3.956 -6.32 3.947 -6.875 3.938 C-7.409 3.926 -7.942 3.914 -8.492 3.902 C-10 4 -10 4 -12 5 C-12.031 5.32 -12.031 5.32 -12.188 6.938 C-13 9 -13 9 -14.617 9.707 C-16.404 10.206 -18.181 10.639 -20 11 C-20 10.34 -20 9.68 -20 9 C-20.454 9.495 -20.907 9.99 -21.375 10.5 C-23 12 -23 12 -25 12 C-25 14.64 -25 17.28 -25 20 C-26.65 19.67 -28.3 19.34 -30 19 C-28.853 14.588 -27.319 11.569 -24.062 8.375 C-23.671 7.99 -23.28 7.604 -22.877 7.207 C-16.544 1.361 -8.53 -0.88 0 0 Z " fill="#A484B2" transform="translate(89,59)"/>
<path d="M0 0 C2 0.812 2 0.812 4 2 C4.062 3.562 4.062 3.562 4 5 C5.25 5.5 5.25 5.5 7 6 C8.492 6.893 9.669 7.852 11 9 C11 9.66 11 10.32 11 11 C12.5 11.625 12.5 11.625 14 12 C13.438 13.562 13.438 13.562 12 15 C9.435 15.395 7.397 14.953 5 14 C0.769 10.822 -2.581 7.203 -4 2 C-3.763 2.021 -3.763 2.021 -2.562 2.125 C-2.305 2.104 -2.305 2.104 -1 2 C-0.67 1.34 -0.34 0.68 0 0 Z " fill="#AF87AB" transform="translate(23,51)"/>
<path d="M0 0 C3.293 0.214 4.962 1.62 7.096 3.931 C13.915 11.843 13.915 11.843 14 17 C13.635 20.401 12.864 23.696 12 27 C11.67 26.34 11.34 25.68 11 25 C10.487 24.862 9.974 24.724 9.445 24.582 C9.207 24.486 9.207 24.486 8 24 C7.742 22.512 7.742 22.512 7.875 20.688 C7.977 18.506 8.001 17.005 7.438 14.875 C6.838 12.306 7.363 10.546 8 8 C7.01 7.835 7.01 7.835 2 7 C2.33 5.68 2.66 4.36 3 3 C1.68 2.67 0.36 2.34 -1 2 C-0.67 1.34 -0.34 0.68 0 0 Z " fill="#AD85AA" transform="translate(57,20)"/>
<path d="M0 0 C1.742 -0.266 1.742 -0.266 3.875 -0.25 C4.574 -0.255 5.272 -0.26 5.992 -0.266 C8.189 0.025 9.282 0.638 11 2 C9.27 3.001 7.538 3.995 5.797 4.977 C4.515 5.707 3.251 6.468 2 7.25 C-1.584 8.594 -5.394 8.673 -8.938 7.188 C-10 6 -10 6 -10.5 4.438 C-10.335 3.963 -10.17 3.489 -10 3 C-8.366 2.399 -6.726 2.179 -5 2 C-5 2.66 -5 3.32 -5 4 C-1.125 2.25 -1.125 2.25 0 0 Z " fill="#9D80A9" transform="translate(88,106)"/>
<path d="M0 0 C1.32 0.66 2.64 1.32 4 2 C3.34 3.32 2.68 4.64 2 6 C2.66 6 3.32 6 4 6 C3.988 6.229 3.988 6.229 3.93 7.391 C3.817 11.211 3.924 13.757 6 17 C5.567 16.773 5.134 16.546 4.688 16.312 C4.131 16.209 3.574 16.106 3 16 C1.312 17.438 1.312 17.438 0 19 C-2.148 12.327 -2.393 6.647 0 0 Z " fill="#B791B1" transform="translate(18,33)"/>
<path d="M0 0 C1.129 0.707 1.129 0.707 2.691 2.332 C2.566 4.457 2.566 4.457 1.691 6.332 C-0.309 7.332 -0.309 7.332 -1.454 7.078 C-1.862 6.906 -2.271 6.733 -2.691 6.555 C-2.914 6.463 -2.914 6.463 -4.039 5.998 C-4.499 5.799 -4.959 5.6 -5.434 5.395 C-5.902 5.199 -6.369 5.004 -6.852 4.803 C-8.007 4.319 -9.158 3.827 -10.309 3.332 C-9.906 1.844 -9.906 1.844 -9.309 0.332 C-7.746 0.145 -7.746 0.145 -6.309 0.332 C-7.959 0.002 -9.609 -0.328 -11.309 -0.668 C-7.128 -3.562 -4.278 -2.184 0 0 Z " fill="#A17FAD" transform="translate(99.30859375,62.66796875)"/>
<path d="M0 0 C1.25 0.812 1.25 0.812 2.25 2.812 C2.58 2.153 2.91 1.492 3.25 0.812 C4.24 1.142 5.23 1.472 6.25 1.812 C4.806 5.857 2.099 7.971 -1.75 9.812 C-3.348 10.129 -3.348 10.129 -4.75 9.812 C-6.136 7.632 -6.721 5.39 -6.75 2.812 C-5.033 0.551 -2.782 -0.298 0 0 Z " fill="#946F90" transform="translate(56.75,58.1875)"/>
<path d="M0 0 C0.66 0 1.32 0 2 0 C2.816 1.172 2.816 1.172 3.562 2.75 C3.822 3.295 4.081 3.841 4.348 4.402 C5 6 5 6 5.5 8.312 C5.665 8.869 5.83 9.426 6 10 C7.562 10.75 7.562 10.75 9 11 C8.67 11.66 8.34 12.32 8 13 C8.619 13.082 9.237 13.165 9.875 13.25 C12 14 12 14 13.25 16.062 C13.498 16.702 13.745 17.341 14 18 C12.648 18.621 12.648 18.621 11 19 C6.234 16.186 1.968 9.342 0.465 4.152 C0.231 2.759 0.059 1.411 0 0 Z " fill="#AC8DB7" transform="translate(58,90)"/>
<path d="M0 0 C1.512 0.297 1.512 0.297 3 1 C3.4 5.019 1.777 9.446 0 13 C-0.33 13.165 -0.33 13.165 -2 14 C-2 13.34 -2 12.68 -2 12 C-2.66 12 -3.32 12 -4 12 C-5.125 14 -5.125 14 -6 16 C-6.66 15.67 -7.32 15.34 -8 15 C-8.347 12.571 -7.905 10.262 -7 8 C-5.669 7.657 -4.336 7.324 -3 7 C-1.75 4.938 -1.75 4.938 -1 3 C-1 3.99 -1 4.98 -1 6 C-0.34 6 0.32 6 1 6 C0.67 4.02 0.34 2.04 0 0 Z " fill="#AF88AA" transform="translate(65,48)"/>
<path d="M0 0 C0.66 0.33 1.32 0.66 2 1 C1.811 2.614 1.54 4.005 1.125 5.562 C1.021 5.987 0.916 6.412 0.809 6.85 C0.548 7.902 0.275 8.951 0 10 C0.66 10 1.32 10 2 10 C2.33 9.34 2.66 8.68 3 8 C2.47 12.509 0.676 15.378 -2 19 C-2.33 18.34 -2.66 17.68 -3 17 C-2.441 15.711 -2.441 15.711 -1.562 14.375 C-1.275 13.929 -0.988 13.483 -0.691 13.023 C-0.463 12.686 -0.235 12.348 0 12 C-0.99 12.33 -1.98 12.66 -3 13 C-3.33 12.01 -3.66 11.02 -4 10 C-3.34 10 -2.68 10 -2 10 C-2.33 7.69 -2.66 5.38 -3 3 C-2.34 3 -1.68 3 -1 3 C-0.375 1.5 -0.375 1.5 0 0 Z " fill="#846693" transform="translate(108,85)"/>
<path d="M0 0 C0.206 0.124 0.206 0.124 1.25 0.75 C1.25 1.41 1.25 2.07 1.25 2.75 C-0.07 3.08 -1.39 3.41 -2.75 3.75 C1.54 4.08 5.83 4.41 10.25 4.75 C6.363 7.341 3.803 7.275 -0.75 6.75 C-3.847 6.069 -6.887 5.116 -9.75 3.75 C-10.08 3.09 -10.41 2.43 -10.75 1.75 C-10.008 1.791 -9.265 1.832 -8.5 1.875 C-6.366 1.893 -5.634 1.692 -3.625 0.688 C-1.75 -0.25 -1.75 -0.25 0 0 Z " fill="#967B92" transform="translate(40.75,63.25)"/>
<path d="M0 0 C1.585 0.115 3.167 0.242 4.75 0.375 C5.193 0.406 5.637 0.437 6.094 0.469 C9.081 0.732 11.481 1.241 14 3 C14.172 4.508 14.172 4.508 13.75 6.125 C13.621 6.664 13.492 7.203 13.359 7.758 C13.241 8.168 13.122 8.578 13 9 C12.34 9 11.68 9 11 9 C11 8.34 11 7.68 11 7 C9.5 6.375 9.5 6.375 8 6 C8.33 5.67 8.66 5.34 9 5 C8.675 4.903 8.675 4.903 7.031 4.414 C6.187 4.152 5.344 3.888 4.5 3.625 C4.071 3.499 3.641 3.372 3.199 3.242 C1.969 2.852 1.969 2.852 0 2 C0 1.34 0 0.68 0 0 Z " fill="#BD98B7" transform="translate(41,15)"/>
<path d="M0 0 C0.092 2.595 -0.206 3.659 -1.875 5.688 C-2.049 5.906 -2.049 5.906 -2.93 7.012 C-4 8 -4 8 -6 8 C-6 10.64 -6 13.28 -6 16 C-7.65 15.67 -9.3 15.34 -11 15 C-9.846 10.209 -7.975 7.433 -4.375 4.125 C-3.955 3.723 -3.535 3.321 -3.102 2.906 C-2.076 1.928 -1.043 0.96 0 0 Z " fill="#AC8FB7" transform="translate(70,63)"/>
<path d="M0 0 C0.66 0 1.32 0 2 0 C3.184 2.367 3.341 4.534 3.562 7.125 C3.606 7.593 3.649 8.061 3.693 8.543 C3.799 9.695 3.9 10.847 4 12 C3.34 12 2.68 12 2 12 C2 12.66 2 13.32 2 14 C1.34 14 0.68 14 0 14 C0.33 11.03 0.66 8.06 1 5 C0.01 5.33 -0.98 5.66 -2 6 C-1.719 4.997 -1.425 3.997 -1.125 3 C-0.963 2.443 -0.8 1.886 -0.633 1.312 C-0.424 0.879 -0.215 0.446 0 0 Z " fill="#A07FAF" transform="translate(108,81)"/>
<path d="M0 0 C0.33 0 0.66 0 1 0 C1.637 14.162 1.637 14.162 -2 20 C-3.605 21.211 -3.605 21.211 -5 22 C-4.67 21.34 -4.34 20.68 -4 20 C-2.713 16.89 -2.926 13.985 -3.125 10.672 C-3.084 10.12 -3.043 9.568 -3 9 C-2.34 8.67 -1.68 8.34 -1 8 C-0.586 6.152 -0.586 6.152 -0.375 3.938 C-0.3 3.204 -0.225 2.471 -0.148 1.715 C-0.099 1.149 -0.05 0.583 0 0 Z " fill="#705A6F" transform="translate(70,37)"/>
<path d="M0 0 C2.624 0.215 3.795 0.804 5.703 2.629 C6.214 3.267 6.724 3.905 7.25 4.562 C7.518 4.892 7.786 5.221 8.062 5.561 C8.717 6.367 9.36 7.183 10 8 C9.34 8.66 8.68 9.32 8 10 C8 9.34 8 8.68 8 8 C7.01 7.835 7.01 7.835 2 7 C2.33 5.68 2.66 4.36 3 3 C1.68 2.67 0.36 2.34 -1 2 C-0.67 1.34 -0.34 0.68 0 0 Z " fill="#B694B1" transform="translate(57,20)"/>
<path d="M0 0 C0 -0.66 0 -1.32 0 -2 C1.123 -2.108 2.249 -2.186 3.375 -2.25 C3.688 -2.273 3.688 -2.273 5.273 -2.391 C5.843 -2.262 6.413 -2.133 7 -2 C8.227 0.016 8.227 0.016 9 2 C6.541 1.89 4.083 1.76 1.625 1.625 C0.926 1.594 0.228 1.563 -0.492 1.531 C-1.163 1.493 -1.833 1.454 -2.523 1.414 C-3.141 1.383 -3.759 1.351 -4.396 1.319 C-6.227 0.955 -6.848 0.434 -8 -1 C-4.953 -2.604 -2.872 -1.374 0 0 Z " fill="#B18DAC" transform="translate(44,67)"/>
<path d="" fill="#F7F7F7" transform="translate(0,0)"/>
<path d="" fill="#F8F8F8" transform="translate(0,0)"/>
<path d="" fill="#F5F5F5" transform="translate(0,0)"/>
<path d="" fill="#F6F8F5" transform="translate(0,0)"/>
<path d="" fill="#F7F6F4" transform="translate(0,0)"/>
<path d="" fill="#F6F3EE" transform="translate(0,0)"/>
<path d="" fill="#F8F6F7" transform="translate(0,0)"/>
<path d="" fill="#F6FBF7" transform="translate(0,0)"/>
<path d="" fill="#F2F4EF" transform="translate(0,0)"/>
<path d="" fill="#F6F8F7" transform="translate(0,0)"/>
<path d="" fill="#F9F7F8" transform="translate(0,0)"/>
<path d="" fill="#F7F9F8" transform="translate(0,0)"/>
<path d="" fill="#F4F4F6" transform="translate(0,0)"/>
<path d="" fill="#F5F7F4" transform="translate(0,0)"/>
<path d="" fill="#FAF6F7" transform="translate(0,0)"/>
<path d="" fill="#FAF6F5" transform="translate(0,0)"/>
<path d="" fill="#F6F6F6" transform="translate(0,0)"/>
<path d="" fill="#F6F8F5" transform="translate(0,0)"/>
<path d="" fill="#F7F9F8" transform="translate(0,0)"/>
<path d="" fill="#F7F7F7" transform="translate(0,0)"/>
<path d="" fill="#F7F5FA" transform="translate(0,0)"/>
<path d="" fill="#F6F6F6" transform="translate(0,0)"/>
<path d="" fill="#F4F8F7" transform="translate(0,0)"/>
<path d="" fill="#F8FAF5" transform="translate(0,0)"/>
<path d="" fill="#F5FAF6" transform="translate(0,0)"/>
<path d="" fill="#F0F6F4" transform="translate(0,0)"/>
<path d="" fill="#F7F9F8" transform="translate(0,0)"/>
<path d="" fill="#F5F9FA" transform="translate(0,0)"/>
<path d="" fill="#F3F5F4" transform="translate(0,0)"/>
<path d="" fill="#F7F9F6" transform="translate(0,0)"/>
</svg>
