<?xml version="1.0" encoding="UTF-8"?>
<!-- Generator: visioncortex VTracer 0.6.12 -->
<svg version="1.1" xmlns="http://www.w3.org/2000/svg" width="128" height="128">
<path d="M0 0 C0.66 0 1.32 0 2 0 C2.511 0.996 2.511 0.996 2.882 2.412 C3.026 2.94 3.17 3.468 3.318 4.013 C3.393 4.303 3.393 4.303 3.77 5.773 C4.105 7.004 4.44 8.234 4.775 9.465 C5.291 11.403 5.804 13.343 6.315 15.283 C8.268 22.651 10.354 29.442 14.053 36.131 C15 38 15 38 15 40 C15.33 40.165 15.33 40.165 17 41 C17.789 41.945 17.789 41.945 18.625 43.125 C20.47 45.537 22.606 47.394 24.938 49.312 C30.865 54.293 35.411 61.011 36.184 68.867 C36.456 77.116 34.41 84.638 29 91 C22.794 96.075 17.058 97.148 9.301 97.203 C8.666 97.209 8.031 97.215 7.376 97.22 C6.036 97.23 4.695 97.236 3.355 97.24 C1.336 97.25 -0.682 97.281 -2.701 97.312 C-11.23 97.382 -21.264 97.421 -27.973 91.238 C-30.248 88.496 -33.024 85.028 -32.98 81.348 C-32.987 80.903 -32.993 80.458 -33 80 C-33.66 79.67 -34.32 79.34 -35 79 C-35.896 72.486 -35.649 64.624 -32 59 C-28.744 54.931 -25.055 51.237 -21.435 47.496 C-11.362 36.995 -7.144 24.429 -3.429 10.575 C-2.793 8.242 -2.106 5.929 -1.375 3.625 C-1.265 3.271 -1.265 3.271 -0.711 1.477 C-0.476 0.989 -0.242 0.502 0 0 Z " fill="#709ABB" transform="translate(64,17)"/>
<path d="M0 0 C0.33 0.165 0.33 0.165 2 1 C2.125 2.562 2.125 2.562 2 4 C2.66 4 3.32 4 4 4 C5.219 5.059 5.219 5.059 6.5 6.438 C9.38 9.52 11.292 10.139 15.508 10.309 C16.9 10.349 18.291 10.382 19.684 10.405 C20.634 10.426 21.585 10.46 22.534 10.508 C29.293 10.84 33.253 9.914 38.535 5.59 C39.998 4.002 40.365 3 41 1 C41.66 1 42.32 1 43 1 C42.808 6.75 41.05 10.873 37 15 C32.24 19.342 27.828 19.618 21.562 19.5 C20.742 19.515 19.922 19.531 19.076 19.547 C13.045 19.508 8.431 18.283 3.991 14.035 C0.786 10.158 -0.564 6.219 -0.176 1.25 C-0.118 0.838 -0.06 0.425 0 0 Z " fill="#486D93" transform="translate(43,84)"/>
<path d="M0 0 C0.66 0.33 1.32 0.66 2 1 C-0.098 4.291 -2.088 7.379 -5 10 C-4.639 10.049 -4.278 10.098 -3.906 10.148 C-3.442 10.223 -2.978 10.298 -2.5 10.375 C-2.268 10.41 -2.268 10.41 -1.094 10.586 C-0.733 10.723 -0.372 10.859 0 11 C0 11.66 0 12.32 0 13 C-8.25 13 -16.5 13 -25 13 C-24.67 11.35 -24.34 9.7 -24 8 C-22.438 7.188 -22.438 7.188 -21 7 C-21.66 6.67 -22.32 6.34 -23 6 C-23 5.34 -23 4.68 -23 4 C-22.445 3.985 -21.891 3.971 -21.319 3.956 C-19.246 3.894 -17.174 3.82 -15.102 3.738 C-14.208 3.704 -13.314 3.676 -12.419 3.654 C-3.723 3.426 -3.723 3.426 0 0 Z " fill="#79A2C5" transform="translate(78,99)"/>
<path d="M0 0 C0.165 0.33 0.165 0.33 1 2 C-1.55 8.313 -5.802 12.265 -12 15 C-16.013 15.999 -19.821 16.161 -23.945 16.168 C-24.597 16.171 -25.249 16.175 -25.92 16.178 C-27.29 16.183 -28.66 16.185 -30.03 16.185 C-32.126 16.188 -34.221 16.206 -36.316 16.225 C-37.651 16.228 -38.986 16.23 -40.32 16.23 C-40.633 16.234 -40.633 16.234 -42.214 16.252 C-42.799 16.249 -43.383 16.246 -43.985 16.243 C-44.496 16.244 -45.007 16.246 -45.534 16.247 C-47 16 -47 16 -50 14 C-39.77 14 -29.54 14 -19 14 C-19 13.34 -19 12.68 -19 12 C-20.094 11.586 -20.094 11.586 -21.5 11.375 C-21.964 11.3 -22.428 11.225 -22.906 11.148 C-23.267 11.099 -23.628 11.05 -24 11 C-23.625 9.5 -23.625 9.5 -23 8 C-22.34 8 -21.68 8 -21 8 C-20.438 6.977 -20.438 6.977 -20 5.625 C-18.59 1.837 -18.59 1.837 -17 1 C-15.249 1.155 -13.713 1.549 -12 2 C-12.33 4.97 -12.66 7.94 -13 11 C-14.32 11 -15.64 11 -17 11 C-17 11.66 -17 12.32 -17 13 C-11.881 12.035 -7.485 11.08 -4 7 C-2.516 4.737 -1.215 2.417 0 0 Z " fill="#718CA2" transform="translate(97,98)"/>
<path d="M0 0 C1.881 -0.277 3.368 0.02 5 1 C5.044 2.333 5.039 3.667 5 5 C5.871 5.859 5.871 5.859 7 6.625 C7.66 7.079 8.32 7.532 9 8 C9 8.66 9 9.32 9 10 C9.474 9.938 9.949 9.876 10.438 9.812 C10.695 9.843 10.695 9.843 12 10 C12.89 11.7 13.042 12.726 12.75 14.625 C12.791 14.852 12.791 14.852 13 16 C14.307 16.4 15.546 16.567 16.906 16.691 C17.267 16.793 17.628 16.895 18 17 C18 17.66 18 18.32 18 19 C14.855 19.966 12.22 20.519 9.117 19.199 C4.821 16.344 1.849 12.845 0 8 C0.009 7.456 0.018 6.912 0.027 6.352 C0.018 5.906 0.009 5.46 0 5 C-0.66 4.67 -1.32 4.34 -2 4 C-1.312 1.938 -1.312 1.938 0 0 Z " fill="#84ACCB" transform="translate(31,92)"/>
<path d="M0 0 C0.66 0.33 1.32 0.66 2 1 C1.34 2.32 0.68 3.64 0 5 C0.66 5 1.32 5 2 5 C2.25 6.438 2.25 6.438 2 8 C0.677 8.372 -0.657 8.706 -2 9 C-2 9.66 -2 10.32 -2 11 C-2.66 11 -3.32 11 -4 11 C-5.625 12.375 -5.625 12.375 -7 14 C-7 14.66 -7 15.32 -7 16 C-7.66 16 -8.32 16 -9 16 C-9 16.99 -9 17.98 -9 19 C-9.66 19 -10.32 19 -11 19 C-11.265 20.225 -11.524 21.452 -11.738 22.688 C-12.128 24.642 -12.505 25.648 -14 27 C-16.023 27.248 -17.972 27.172 -20 27 C-19.635 21.811 -16.924 19.34 -13.375 15.75 C-9.295 11.508 -5.429 7.283 -2.056 2.452 C-1.305 1.414 -1.305 1.414 0 0 Z " fill="#9BBAD4" transform="translate(51,54)"/>
<path d="M0 0 C2.063 3.094 2.816 5.412 3.688 8.938 C3.83 9.463 3.972 9.988 4.119 10.529 C4.903 13.644 5.23 15.906 4 19 C3.67 19 3.34 19 3 19 C3.048 19.247 3.048 19.247 3.289 20.496 C3.4 21.137 3.511 21.777 3.625 22.438 C3.741 23.076 3.857 23.714 3.977 24.371 C3.984 24.909 3.992 25.446 4 26 C3.34 26.33 2.68 26.66 2 27 C2.33 27.66 2.66 28.32 3 29 C2.67 29.66 2.34 30.32 2 31 C0.438 31.125 0.438 31.125 -1 31 C-0.954 30.578 -0.907 30.157 -0.859 29.723 C-0.751 28.072 -0.688 26.627 -1 25 C-3 24.375 -3 24.375 -5 24 C-5.25 21.938 -5.25 21.938 -5 20 C-4.34 20 -3.68 20 -3 20 C-3.227 19.484 -3.454 18.969 -3.688 18.438 C-4.153 14.81 -2.594 12.205 -1 9 C-0.34 10.32 0.32 11.64 1 13 C0.67 8.71 0.34 4.42 0 0 Z " fill="#709BBE" transform="translate(65,17)"/>
<path d="M0 0 C3.703 0.62 3.703 0.62 5.047 2.34 C5.279 2.867 5.511 3.394 5.75 3.938 C5.992 4.462 6.235 4.987 6.484 5.527 C7 7 7 7 7 9 C7.66 9.33 8.32 9.66 9 10 C8.01 12.31 7.02 14.62 6 17 C4.125 16.938 4.125 16.938 2 16 C1.28 14.214 0.871 12.481 0.492 10.594 C0.33 10.068 0.167 9.542 0 9 C-0.66 8.67 -1.32 8.34 -2 8 C-1.758 6.152 -1.758 6.152 -1.125 3.938 C-0.921 3.204 -0.718 2.471 -0.508 1.715 C-0.34 1.149 -0.173 0.583 0 0 Z " fill="#80A3C0" transform="translate(72,48)"/>
<path d="M0 0 C0.33 0 0.66 0 1 0 C1.442 1.755 1.804 3.472 2.125 5.25 C2.224 5.741 2.324 6.232 2.426 6.738 C2.986 9.785 3.016 11.996 2 15 C1.34 13.68 0.68 12.36 0 11 C0 11.99 0 12.98 0 14 C-0.66 14 -1.32 14 -2 14 C-2 15.98 -2 17.96 -2 20 C-2.66 20 -3.32 20 -4 20 C-3.67 21.98 -3.34 23.96 -3 26 C-4.65 26 -6.3 26 -8 26 C-3.1 9.112 -3.1 9.112 -1.25 3.438 C-1.028 2.756 -0.807 2.074 -0.578 1.371 C-0.387 0.919 -0.197 0.466 0 0 Z " fill="#A2C0D9" transform="translate(64,17)"/>
<path d="M0 0 C1.688 -0.312 1.688 -0.312 4 0 C5.914 1.449 7.43 3.192 9 5 C9.398 5.419 9.797 5.838 10.207 6.27 C12.132 8.412 13.242 9.866 13.25 12.812 C13.168 13.534 13.085 14.256 13 15 C11.68 14.34 10.36 13.68 9 13 C8.67 13.66 8.34 14.32 8 15 C7.34 14.67 6.68 14.34 6 14 C6.66 12.02 7.32 10.04 8 8 C7.01 7.67 6.02 7.34 5 7 C5 6.34 5 5.68 5 5 C4.01 5 3.02 5 2 5 C2 4.01 2 3.02 2 2 C1.34 2 0.68 2 0 2 C0 1.34 0 0.68 0 0 Z " fill="#8AABC5" transform="translate(83,64)"/>
<path d="M0 0 C3.74 1.488 3.74 1.488 4.898 3.77 C6.346 9.975 6.346 9.975 5.375 13 C4 15 4 15 1.938 15.562 C1.298 15.377 0.659 15.191 0 15 C-0.875 13.125 -0.875 13.125 -1 11 C-0.665 10.722 -0.33 10.443 0.016 10.156 C1 9 1 9 0.977 6.836 C0.861 6.024 0.745 5.212 0.625 4.375 C0.514 3.558 0.403 2.74 0.289 1.898 C0.194 1.272 0.098 0.645 0 0 Z " fill="#83A5C0" transform="translate(67,33)"/>
<path d="M0 0 C0.66 0 1.32 0 2 0 C1.851 2.685 1.717 4.264 -0.191 6.223 C-3.771 8.831 -6.623 9.559 -11 9 C-11 8.34 -11 7.68 -11 7 C-9.68 7 -8.36 7 -7 7 C-7.186 6.546 -7.371 6.093 -7.562 5.625 C-8 4 -8 4 -7 2 C-5.125 1.875 -5.125 1.875 -3 2 C-2.422 2 -1.845 2 -1.25 2 C-0.838 2 -0.425 2 0 2 C0 1.34 0 0.68 0 0 Z " fill="#86ACCC" transform="translate(91,102)"/>
<path d="M0 0 C0.598 0.495 1.196 0.99 1.812 1.5 C3.291 2.621 3.856 2.985 5.75 3.188 C6.163 3.126 6.575 3.064 7 3 C7 3.99 7 4.98 7 6 C9.64 6.33 12.28 6.66 15 7 C15 7.66 15 8.32 15 9 C11.781 9.988 9.184 10.549 6.047 9.094 C2.832 6.879 0.098 4.843 -1 1 C-0.67 0.67 -0.34 0.34 0 0 Z " fill="#90ADC4" transform="translate(34,102)"/>
<path d="M0 0 C0.66 0 1.32 0 2 0 C2.256 2.269 2.475 4.539 2.688 6.812 C2.76 7.455 2.833 8.098 2.908 8.76 C3.328 13.528 3.328 13.528 1.645 15.949 C0 17 0 17 -2 17 C-3.125 15 -3.125 15 -4 13 C-3.34 13 -2.68 13 -2 13 C-1.939 12.313 -1.879 11.626 -1.816 10.918 C-1.732 10.008 -1.647 9.098 -1.562 8.188 C-1.543 7.962 -1.543 7.962 -1.443 6.818 C-0.982 1.958 -0.982 1.958 0 0 Z " fill="#8BAFCC" transform="translate(96,84)"/>
<path d="M0 0 C-0.361 2.707 -1.005 5.1 -3 7 C-5.023 7.254 -6.972 7.172 -9 7 C-8.826 3.772 -8.826 3.772 -8 2 C-5.376 -0.039 -3.1 -1.55 0 0 Z " fill="#85ACCC" transform="translate(40,74)"/>
<path d="M0 0 C2.168 2.736 2.866 5.615 3.688 8.938 C3.83 9.463 3.972 9.988 4.119 10.529 C4.903 13.644 5.23 15.906 4 19 C3.67 19 3.34 19 3 19 C2.67 19.66 2.34 20.32 2 21 C1 20 1 20 0.938 18.32 C0.958 17.596 0.979 16.871 1 16.125 C1.07 10.704 0.564 5.387 0 0 Z " fill="#698093" transform="translate(65,17)"/>
<path d="" fill="#FAF6F5" transform="translate(0,0)"/>
<path d="" fill="#F8F8F8" transform="translate(0,0)"/>
<path d="" fill="#F7F7F7" transform="translate(0,0)"/>
<path d="" fill="#F6F7F9" transform="translate(0,0)"/>
<path d="" fill="#F8F4F1" transform="translate(0,0)"/>
<path d="" fill="#F9F8F6" transform="translate(0,0)"/>
<path d="" fill="#EEF5FB" transform="translate(0,0)"/>
<path d="" fill="#FAF9F5" transform="translate(0,0)"/>
<path d="" fill="#F8F9F3" transform="translate(0,0)"/>
<path d="" fill="#F8F8F8" transform="translate(0,0)"/>
<path d="" fill="#F6F6F6" transform="translate(0,0)"/>
<path d="" fill="#F7F7F5" transform="translate(0,0)"/>
<path d="" fill="#F9F8F6" transform="translate(0,0)"/>
<path d="" fill="#F9F8F6" transform="translate(0,0)"/>
<path d="" fill="#F5F6F8" transform="translate(0,0)"/>
<path d="" fill="#FBF3F0" transform="translate(0,0)"/>
</svg>
