<?xml version="1.0" encoding="UTF-8"?>
<!-- Generator: visioncortex VTracer 0.6.12 -->
<svg version="1.1" xmlns="http://www.w3.org/2000/svg" width="128" height="128">
<path d="M0 0 C2.25 0.875 2.25 0.875 4.25 1.875 C4.25 2.535 4.25 3.195 4.25 3.875 C4.745 4.04 5.24 4.205 5.75 4.375 C6.245 4.54 6.74 4.705 7.25 4.875 C7.25 5.535 7.25 6.195 7.25 6.875 C8.576 7.62 9.868 8.253 11.25 8.875 C15.246 10.811 19.283 13.119 20.821 17.503 C21.66 21.519 21.779 25.544 21.796 29.635 C21.812 31.81 21.92 33.967 22.037 36.139 C22.414 47.421 22.414 47.421 18.443 51.733 C16.795 53.258 15.076 54.566 13.25 55.875 C12.879 56.259 12.509 56.643 12.127 57.039 C11.25 57.875 11.25 57.875 9.125 58.375 C8.816 58.457 8.816 58.457 7.25 58.875 C7.25 59.535 7.25 60.195 7.25 60.875 C5.859 62.199 5.859 62.199 4 63.562 C3.397 64.02 2.793 64.478 2.172 64.949 C0.25 65.875 0.25 65.875 -1.656 65.781 C-4.533 64.536 -6.642 62.726 -9 60.688 C-9.97 59.866 -10.941 59.045 -11.914 58.227 C-12.391 57.825 -12.869 57.423 -13.36 57.009 C-14.616 55.984 -15.89 55.023 -17.211 54.086 C-17.579 53.824 -17.948 53.563 -18.327 53.294 C-19.309 52.609 -20.299 51.935 -21.289 51.262 C-23.696 48.977 -23.79 46.197 -23.911 43.006 C-23.931 41.91 -23.945 40.815 -23.953 39.719 C-23.959 39.135 -23.965 38.55 -23.97 37.949 C-23.98 36.718 -23.986 35.488 -23.99 34.257 C-24 32.381 -24.031 30.505 -24.062 28.629 C-24.069 27.43 -24.074 26.23 -24.078 25.031 C-24.09 24.474 -24.103 23.916 -24.116 23.342 C-24.094 19.551 -23.453 17.596 -20.75 14.875 C-20.09 14.875 -19.43 14.875 -18.75 14.875 C-18.75 14.215 -18.75 13.555 -18.75 12.875 C-17.927 11.993 -17.927 11.993 -16.773 11.105 C-16.353 10.776 -15.932 10.447 -15.499 10.107 C-15.045 9.762 -14.592 9.418 -14.125 9.062 C-13.201 8.35 -12.278 7.636 -11.355 6.922 C-10.906 6.574 -10.457 6.227 -9.994 5.869 C-8.4 4.595 -6.928 3.205 -5.438 1.812 C-3.522 0.19 -2.513 -0.444 0 0 Z " fill="#83AEB0" transform="translate(53.75,16.125)"/>
<path d="M0 0 C2.765 1.711 5.25 3.851 7.738 5.934 C8.228 6.337 8.718 6.741 9.223 7.156 C10.53 8.238 11.834 9.319 13.113 10.434 C13.48 10.711 13.846 10.989 14.224 11.276 C16.462 14.19 15.999 19.31 16.113 22.871 C16.13 23.37 16.146 23.868 16.163 24.382 C16.255 29.877 16.049 34.145 12.094 38.301 C8.012 41.753 3.335 45.027 -1.887 46.434 C-5.987 45.138 -9.015 41.449 -11.887 38.434 C-12.297 38.132 -12.707 37.831 -13.13 37.52 C-15.879 35.303 -17.147 33.497 -17.541 29.916 C-17.652 28.097 -17.674 26.29 -17.648 24.469 C-17.637 23.065 -17.689 21.672 -17.746 20.27 C-17.81 15.945 -17.578 12.656 -14.541 9.385 C-13.054 7.972 -11.5 6.702 -9.887 5.434 C-9.121 4.746 -8.356 4.058 -7.594 3.367 C-6.969 2.873 -6.343 2.38 -5.699 1.871 C-5.066 1.354 -4.433 0.837 -3.781 0.305 C-1.887 -0.566 -1.887 -0.566 0 0 Z " fill="#7FABAE" transform="translate(84.88671875,67.56640625)"/>
<path d="M0 0 C0.726 0.255 1.451 0.51 2.199 0.773 C2.615 0.918 3.031 1.062 3.459 1.21 C7.348 2.779 10.299 4.982 12.199 8.773 C14.3 16.543 14.914 28.354 11.238 35.691 C8.809 38.732 5.832 40.49 2.199 41.773 C1.539 42.048 0.879 42.323 0.199 42.605 C-3.469 42.914 -5.653 41.088 -8.413 38.863 C-13.3 33.805 -12.694 26.99 -12.613 20.398 C-12.609 19.805 -12.604 19.212 -12.599 18.601 C-12.574 16.878 -12.518 15.159 -12.445 13.438 C-12.429 12.913 -12.413 12.388 -12.396 11.847 C-12.227 9.216 -12.036 8.07 -10.35 5.947 C-8.801 4.773 -8.801 4.773 -7.363 4.336 C-5.271 3.583 -4.327 2.231 -2.961 0.516 C-1.801 -0.227 -1.801 -0.227 0 0 Z " fill="#3E7172" transform="translate(51.80078125,28.2265625)"/>
<path d="M0 0 C0.33 0 0.66 0 1 0 C1.349 4.123 1.63 8.247 1.867 12.378 C1.955 13.779 2.058 15.18 2.176 16.579 C3.2 28.847 3.2 28.847 0.285 32.684 C-1.616 34.742 -3.73 36.366 -6 38 C-6.371 38.385 -6.743 38.77 -7.125 39.166 C-8 40 -8 40 -10.125 40.5 C-10.434 40.582 -10.434 40.582 -12 41 C-12 41.66 -12 42.32 -12 43 C-13.391 44.324 -13.391 44.324 -15.25 45.688 C-15.552 45.916 -15.552 45.916 -17.078 47.074 C-19 48 -19 48 -21.172 47.77 C-23 47 -23 47 -24 45 C-23.602 45.046 -23.203 45.093 -22.793 45.141 C-18.517 45.432 -18.517 45.432 -16.934 44.109 C-16.125 43 -16.125 43 -15 41 C-16.65 41 -18.3 41 -20 41 C-20 41.66 -20 42.32 -20 43 C-21.32 43 -22.64 43 -24 43 C-24 42.34 -24 41.68 -24 41 C-24.66 41 -25.32 41 -26 41 C-26 40.34 -26 39.68 -26 39 C-25.34 39 -24.68 39 -24 39 C-23.876 38.526 -23.752 38.051 -23.625 37.562 C-23.419 37.047 -23.212 36.531 -23 36 C-22.424 35.86 -21.847 35.719 -21.254 35.574 C-16.816 34.443 -12.668 31.776 -10 28 C-8.491 23.881 -8.828 19.38 -8.938 15.062 C-8.934 13.89 -8.927 12.717 -8.916 11.545 C-8.897 8.695 -8.933 5.85 -9 3 C-8.34 3 -7.68 3 -7 3 C-5.875 5 -5.875 5 -5 7 C-4.67 6.34 -4.34 5.68 -4 5 C-3.67 7.31 -3.34 9.62 -3 12 C-2.34 12 -1.68 12 -1 12 C-0.67 8.04 -0.34 4.08 0 0 Z " fill="#739C9F" transform="translate(73,34)"/>
<path d="M0 0 C0.438 0.206 0.877 0.412 1.328 0.625 C0.998 1.285 0.668 1.945 0.328 2.625 C-1.234 2.75 -1.234 2.75 -2.672 2.625 C-2.588 3 -2.504 3.375 -2.418 3.762 C-1.697 7.383 -1.495 10.093 -2.672 13.625 C-3.163 13.878 -3.654 14.13 -4.16 14.391 C-6.215 16.068 -6.225 17.403 -6.486 19.969 C-6.527 20.515 -6.568 21.062 -6.609 21.625 C-6.643 21.898 -6.643 21.898 -6.814 23.281 C-6.945 24.828 -7.004 26.107 -6.672 27.625 C-4.84 28.957 -4.84 28.957 -2.672 29.625 C-2.205 29.773 -1.739 29.921 -1.258 30.074 C2.106 30.736 2.106 30.736 4.328 29.625 C3.998 31.275 3.668 32.925 3.328 34.625 C3.988 34.625 4.648 34.625 5.328 34.625 C4.328 36.625 4.328 36.625 3.137 37.039 C2.91 37.074 2.91 37.074 1.766 37.25 C0.961 37.374 0.157 37.498 -0.672 37.625 C-0.672 36.965 -0.672 36.305 -0.672 35.625 C-1.332 35.625 -1.992 35.625 -2.672 35.625 C-2.672 36.615 -2.672 37.605 -2.672 38.625 C-3.332 38.625 -3.992 38.625 -4.672 38.625 C-4.166 36.456 -3.672 34.625 -2.672 32.625 C-4.609 32.938 -4.609 32.938 -6.672 33.625 C-7.301 35.168 -7.301 35.168 -7.672 36.625 C-10.409 35.69 -12.56 34.624 -14.672 32.625 C-15.62 29.624 -15.683 26.863 -15.584 23.736 C-15.547 22.322 -15.584 20.923 -15.629 19.51 C-15.652 15.131 -15.348 11.831 -12.263 8.539 C-10.798 7.149 -9.251 5.883 -7.672 4.625 C-6.583 3.632 -5.498 2.633 -4.422 1.625 C-2.092 -0.469 -2.092 -0.469 0 0 Z " fill="#7DABAD" transform="translate(82.671875,68.375)"/>
<path d="M0 0 C2.25 0.875 2.25 0.875 4.25 1.875 C4.25 2.535 4.25 3.195 4.25 3.875 C4.745 4.04 5.24 4.205 5.75 4.375 C6.245 4.54 6.74 4.705 7.25 4.875 C7.25 5.535 7.25 6.195 7.25 6.875 C8.576 7.62 9.868 8.251 11.25 8.875 C14.682 10.548 18.356 12.428 20.25 15.875 C20.839 20.577 19.504 25.366 18.25 29.875 C17.59 29.875 16.93 29.875 16.25 29.875 C15.516 25.854 15.151 22.859 16.25 18.875 C16.062 16.75 16.062 16.75 15.25 14.875 C13.312 13.688 13.312 13.688 11.25 12.875 C10.59 12.545 9.93 12.215 9.25 11.875 C9.25 11.215 9.25 10.555 9.25 9.875 C7.36 8.767 5.627 7.969 3.5 7.438 C3.087 7.252 2.675 7.066 2.25 6.875 C2.172 5.34 2.172 5.34 2.25 3.875 C0.153 4.362 -1.827 4.895 -3.75 5.875 C-4.5 8 -4.5 8 -4.75 9.875 C-5.41 9.875 -6.07 9.875 -6.75 9.875 C-6.75 9.215 -6.75 8.555 -6.75 7.875 C-7.163 8.349 -7.575 8.824 -8 9.312 C-9.932 11.038 -11.232 11.441 -13.75 11.875 C-13.09 11.875 -12.43 11.875 -11.75 11.875 C-12.123 16.101 -13.676 18.452 -16.301 21.738 C-17.75 22.875 -17.75 22.875 -21.75 22.875 C-21.75 26.835 -21.75 30.795 -21.75 34.875 C-21.09 34.875 -20.43 34.875 -19.75 34.875 C-19.696 36.291 -19.657 37.708 -19.625 39.125 C-19.602 39.914 -19.579 40.703 -19.555 41.516 C-19.778 44.21 -20.409 45.573 -21.75 47.875 C-22.41 47.545 -23.07 47.215 -23.75 46.875 C-24.011 45.719 -24.011 45.719 -24.025 44.255 C-24.034 43.707 -24.044 43.159 -24.054 42.595 C-24.053 42.001 -24.052 41.406 -24.051 40.793 C-24.055 40.182 -24.059 39.572 -24.064 38.943 C-24.07 37.647 -24.07 36.352 -24.066 35.056 C-24.063 33.081 -24.086 31.106 -24.111 29.131 C-24.114 27.872 -24.114 26.614 -24.113 25.355 C-24.122 24.767 -24.132 24.178 -24.141 23.572 C-24.098 19.698 -23.533 17.645 -20.75 14.875 C-20.09 14.875 -19.43 14.875 -18.75 14.875 C-18.75 14.215 -18.75 13.555 -18.75 12.875 C-17.927 11.993 -17.927 11.993 -16.773 11.105 C-16.353 10.776 -15.932 10.447 -15.499 10.107 C-15.045 9.762 -14.592 9.418 -14.125 9.062 C-13.201 8.35 -12.278 7.636 -11.355 6.922 C-10.906 6.574 -10.457 6.227 -9.994 5.869 C-8.4 4.595 -6.928 3.205 -5.438 1.812 C-3.522 0.19 -2.513 -0.444 0 0 Z " fill="#A2C4C5" transform="translate(53.75,16.125)"/>
<path d="M0 0 C-0.082 0.474 -0.165 0.949 -0.25 1.438 C-0.209 1.695 -0.209 1.695 0 3 C1.812 3.562 1.812 3.562 4 4 C5.75 4.937 5.75 4.937 7 6 C7 6.66 7 7.32 7 8 C8.875 9.062 8.875 9.062 11 10 C13.572 11.286 14.01 12.334 15 15 C14.75 17.25 14.75 17.25 14 19 C13.34 19 12.68 19 12 19 C12 19.66 12 20.32 12 21 C11.34 20.67 10.68 20.34 10 20 C10.031 19.752 10.031 19.752 10.188 18.5 C10.157 18.252 10.157 18.252 10 17 C9.252 16.879 8.505 16.758 7.734 16.633 C4.621 16.103 3.19 14.588 1.062 12.375 C-2.322 9.129 -2.322 9.129 -4.812 8.656 C-6.446 8.876 -7.589 9.15 -9 10 C-9.688 11.562 -9.688 11.562 -10 13 C-11 13 -12 13 -13 13 C-13.112 13.429 -13.224 13.859 -13.34 14.301 C-14.27 16.695 -16.028 17.765 -18.062 19.188 C-18.44 19.46 -18.817 19.733 -19.205 20.014 C-20.132 20.682 -21.065 21.342 -22 22 C-22 21.01 -22 20.02 -22 19 C-21.34 19 -20.68 19 -20 19 C-19.876 18.587 -19.752 18.175 -19.625 17.75 C-18.824 15.508 -17.521 14.493 -15.742 12.965 C-15.497 12.646 -15.252 12.328 -15 12 C-15.33 11.34 -15.66 10.68 -16 10 C-16.188 8.438 -16.188 8.438 -16 7 C-15.34 6.67 -14.68 6.34 -14 6 C-13.34 6.33 -12.68 6.66 -12 7 C-11.876 6.505 -11.752 6.01 -11.625 5.5 C-11.419 5.005 -11.212 4.51 -11 4 C-10.34 4 -9.68 4 -9 4 C-9 4.66 -9 5.32 -9 6 C-8.34 6 -7.68 6 -7 6 C-7.227 5.381 -7.454 4.762 -7.688 4.125 C-7.791 3.424 -7.894 2.723 -8 2 C-5.725 -0.527 -3.154 -0.17 0 0 Z " fill="#83B1B3" transform="translate(56,20)"/>
<path d="M0 0 C0.619 0.474 1.237 0.949 1.875 1.438 C2.562 1.654 3.249 1.871 3.957 2.094 C5.875 3.438 5.875 3.438 6.278 4.861 C6.453 6.714 6.469 8.514 6.438 10.375 C6.461 11.009 6.485 11.642 6.51 12.295 C6.496 16.787 6.496 16.787 4.812 18.552 C2.59 19.966 0.96 20.634 -1.688 20.312 C-4.192 19.741 -6.468 18.397 -8.125 16.438 C-8.762 14.469 -8.792 12.62 -8.75 10.562 C-8.745 10.027 -8.739 9.491 -8.733 8.939 C-8.551 5.509 -8.007 3.467 -5.375 1.062 C-2.616 -0.693 -2.616 -0.693 0 0 Z " fill="#407374" transform="translate(84.125,79.5625)"/>
<path d="M0 0 C0.66 0.33 1.32 0.66 2 1 C2.358 2.561 2.565 3.939 2.688 5.523 C2.723 5.981 2.759 6.439 2.795 6.911 C2.89 8.399 2.953 9.885 3 11.375 C3.008 11.625 3.008 11.625 3.05 12.893 C3.142 18.401 2.946 22.705 -1.02 26.871 C-5.102 30.32 -9.779 33.594 -15 35 C-20.504 33.26 -24.81 27.533 -28 23 C-27.674 23.179 -27.348 23.358 -27.012 23.543 C-25.658 24.202 -24.482 24.72 -23 25 C-21.312 23.625 -21.312 23.625 -20 22 C-19.34 22 -18.68 22 -18 22 C-18.66 23.98 -19.32 25.96 -20 28 C-19.34 28 -18.68 28 -18 28 C-18 27.01 -18 26.02 -18 25 C-17.804 25.103 -17.804 25.103 -16.812 25.625 C-14.172 26.171 -12.372 25.134 -10 24 C-10.66 24 -11.32 24 -12 24 C-11.821 22.275 -11.617 20.627 -11 19 C-9.438 18.688 -9.438 18.688 -8 19 C-8.041 19.237 -8.041 19.237 -8.25 20.438 C-8.209 20.695 -8.209 20.695 -8 22 C-6 22.688 -6 22.688 -4 23 C-4.66 21.35 -5.32 19.7 -6 18 C-5.01 18.33 -4.02 18.66 -3 19 C-2.67 18.01 -2.34 17.02 -2 16 C-2 17.98 -2 19.96 -2 22 C-1.34 22 -0.68 22 0 22 C0 14.74 0 7.48 0 0 Z " fill="#799799" transform="translate(98,79)"/>
<path d="M0 0 C1.921 0.806 2.724 1.168 3.938 2.812 C4.321 5.52 4.267 8.24 4.253 10.971 C4.25 12.308 4.273 13.643 4.299 14.98 C4.301 15.831 4.302 16.681 4.301 17.531 C4.302 17.918 4.302 17.918 4.31 19.873 C3.938 21.812 3.938 21.812 2.544 23.1 C0.337 24.079 -0.828 23.605 -3.062 22.812 C-3.722 22.483 -4.383 22.153 -5.062 21.812 C-5.466 19.154 -5.391 16.469 -5.378 13.784 C-5.375 12.449 -5.398 11.116 -5.424 9.781 C-5.426 8.93 -5.427 8.078 -5.426 7.227 C-5.429 6.453 -5.432 5.679 -5.435 4.881 C-4.855 1.661 -3.389 -0.308 0 0 Z " fill="#7BA9AC" transform="translate(52.0625,37.1875)"/>
<path d="M0 0 C0.668 1.766 0.668 1.766 1 4 C-0.074 5.922 -0.074 5.922 -1.688 7.75 C-2.207 8.364 -2.726 8.977 -3.262 9.609 C-5 11 -5 11 -9 11 C-9 14.96 -9 18.92 -9 23 C-8.34 23 -7.68 23 -7 23 C-6.946 24.416 -6.907 25.833 -6.875 27.25 C-6.852 28.039 -6.829 28.828 -6.805 29.641 C-7.028 32.335 -7.659 33.698 -9 36 C-9.66 35.67 -10.32 35.34 -11 35 C-11.274 33.85 -11.274 33.85 -11.306 32.396 C-11.322 31.851 -11.338 31.307 -11.355 30.746 C-11.36 30.154 -11.366 29.563 -11.371 28.953 C-11.38 28.345 -11.389 27.737 -11.398 27.11 C-11.413 25.819 -11.422 24.528 -11.426 23.236 C-11.437 21.271 -11.486 19.309 -11.537 17.344 C-11.547 16.089 -11.554 14.833 -11.559 13.578 C-11.578 12.995 -11.598 12.411 -11.618 11.81 C-11.58 8.371 -11.013 6.639 -8.578 4.147 C-6.731 2.486 -5.13 1.312 -2.688 0.688 C-2.176 0.547 -1.664 0.406 -1.137 0.262 C-0.762 0.175 -0.386 0.089 0 0 Z " fill="#94BEC0" transform="translate(41,28)"/>
<path d="M0 0 C5.242 0.761 8.837 2.719 12.27 6.812 C14.611 10.619 13.779 15.675 13.5 19.938 C13.46 21.014 13.423 22.09 13.391 23.166 C13.303 25.781 13.166 28.389 13 31 C12.34 31 11.68 31 11 31 C11.012 30.348 11.023 29.695 11.035 29.023 C11.089 24.656 11.118 20.454 10.219 16.156 C10 15 10 15 10 13 C8.748 10.497 7.463 10.034 5.059 8.781 C4.709 8.523 4.36 8.266 4 8 C4 7.34 4 6.68 4 6 C3.526 5.897 3.051 5.794 2.562 5.688 C2.047 5.461 1.531 5.234 1 5 C0.397 3.326 0.228 1.781 0 0 Z " fill="#93BABB" transform="translate(85,70)"/>
<path d="M0 0 C0.66 0.33 1.32 0.66 2 1 C2.493 3.549 2.37 6.159 2.375 8.75 C2.399 9.467 2.424 10.183 2.449 10.922 C2.473 15.229 2.051 17.818 -0.943 21.001 C-1.117 21.166 -1.117 21.166 -2 22 C-2.171 22.18 -2.171 22.18 -3.037 23.092 C-4.294 24.278 -5.481 24.625 -7.125 25.125 C-7.664 25.293 -8.203 25.46 -8.758 25.633 C-9.168 25.754 -9.578 25.875 -10 26 C-10 25.34 -10 24.68 -10 24 C-9.34 24 -8.68 24 -8 24 C-8.031 23.598 -8.031 23.598 -8.188 21.562 C-8.191 20.184 -8.191 20.184 -8 19 C-6.625 18.125 -6.625 18.125 -5 18 C-4.34 18.33 -3.68 18.66 -3 19 C-2.01 12.73 -1.02 6.46 0 0 Z " fill="#93BCBD" transform="translate(71,47)"/>
<path d="M0 0 C1.945 -0.527 1.945 -0.527 4 0 C5.055 1.496 5.055 1.496 5.875 3.438 C7.579 6.817 7.579 6.817 9.586 7.688 C11.082 7.912 12.489 8.035 14 8 C13.67 8.165 13.67 8.165 12 9 C12.25 10.5 12.25 10.5 13 12 C15.062 12.188 15.062 12.188 17 12 C16.625 13.5 16.625 13.5 16 15 C15.34 15 14.68 15 14 15 C14 15.66 14 16.32 14 17 C13.34 16.67 12.68 16.34 12 16 C12.062 15.505 12.124 15.01 12.188 14.5 C12.126 14.005 12.064 13.51 12 13 C10.794 12.79 9.589 12.58 8.383 12.371 C6.023 11.738 4.431 10.34 2.625 8.75 C2.258 8.463 1.89 8.175 1.512 7.879 C0.071 6.634 -0.938 5.59 -1.142 3.65 C-0.977 2.266 -0.977 2.266 0 0 Z " fill="#79A7AA" transform="translate(54,24)"/>
<path d="M0 0 C0.66 0 1.32 0 2 0 C1.34 1.98 0.68 3.96 0 6 C0.66 6 1.32 6 2 6 C2 5.01 2 4.02 2 3 C2.66 3 3.32 3 4 3 C4 3.99 4 4.98 4 6 C4.66 6 5.32 6 6 6 C5.125 8.875 5.125 8.875 4 10 C5.32 9.67 6.64 9.34 8 9 C7.67 8.34 7.34 7.68 7 7 C10 6 13 5 16 4 C16 6 16 6 15.253 6.901 C14.121 7.871 12.975 8.818 11.812 9.75 C11.425 10.092 11.038 10.433 10.639 10.785 C7.786 13.076 7.786 13.076 5.731 12.877 C2.635 11.758 0.211 9.764 -2.188 7.562 C-2.53 7.263 -2.872 6.963 -3.225 6.654 C-5.149 4.931 -6.677 3.219 -8 1 C-7.674 1.179 -7.348 1.358 -7.012 1.543 C-5.658 2.202 -4.482 2.72 -3 3 C-1.312 1.625 -1.312 1.625 0 0 Z " fill="#7B9A9B" transform="translate(78,101)"/>
<path d="M0 0 C0.438 0.206 0.877 0.412 1.328 0.625 C0.998 1.285 0.668 1.945 0.328 2.625 C-1.234 2.75 -1.234 2.75 -2.672 2.625 C-2.342 3.615 -2.012 4.605 -1.672 5.625 C-2.662 5.625 -3.652 5.625 -4.672 5.625 C-4.672 6.285 -4.672 6.945 -4.672 7.625 C-5.332 7.625 -5.992 7.625 -6.672 7.625 C-6.796 8.099 -6.919 8.574 -7.047 9.062 C-7.253 9.578 -7.459 10.094 -7.672 10.625 C-8.329 10.742 -8.987 10.86 -9.664 10.98 C-10.327 11.193 -10.989 11.406 -11.672 11.625 C-12.281 13.305 -12.281 13.305 -12.422 15.5 C-12.477 16.301 -12.533 17.101 -12.59 17.926 C-12.758 22.492 -12.749 27.057 -12.672 31.625 C-13.332 31.625 -13.992 31.625 -14.672 31.625 C-14.847 28.905 -14.973 26.188 -15.056 23.465 C-15.091 22.542 -15.139 21.619 -15.2 20.698 C-15.72 12.656 -15.72 12.656 -13.197 9.516 C-11.5 7.708 -9.612 6.167 -7.672 4.625 C-6.582 3.632 -5.498 2.633 -4.422 1.625 C-2.092 -0.469 -2.092 -0.469 0 0 Z " fill="#A9CFCE" transform="translate(82.671875,68.375)"/>
<path d="M0 0 C2.035 2.77 2.25 4.824 2.125 8.188 C2.116 8.651 2.107 9.114 2.098 9.592 C2.074 10.728 2.038 11.864 2 13 C2.66 13 3.32 13 4 13 C4.054 14.416 4.093 15.833 4.125 17.25 C4.148 18.039 4.171 18.828 4.195 19.641 C3.972 22.335 3.341 23.698 2 26 C1.34 25.67 0.68 25.34 0 25 C-0.179 23.096 -0.232 21.337 -0.195 19.434 C-0.192 18.88 -0.19 18.327 -0.187 17.756 C-0.176 15.983 -0.15 14.211 -0.125 12.438 C-0.115 11.238 -0.106 10.038 -0.098 8.838 C-0.076 5.892 -0.041 2.946 0 0 Z " fill="#BCDEDE" transform="translate(30,38)"/>
<path d="M0 0 C0.474 0.021 0.949 0.041 1.438 0.062 C1.438 1.052 1.438 2.043 1.438 3.062 C0.778 3.062 0.117 3.062 -0.562 3.062 C-0.562 3.722 -0.562 4.382 -0.562 5.062 C0.097 5.062 0.758 5.062 1.438 5.062 C1.438 5.722 1.438 6.382 1.438 7.062 C2.758 7.062 4.078 7.062 5.438 7.062 C5.438 6.403 5.438 5.743 5.438 5.062 C6.969 4.43 6.969 4.43 8.938 3.938 C9.262 3.854 9.262 3.854 10.906 3.43 C11.159 3.369 11.159 3.369 12.438 3.062 C11.15 5.935 10.059 8.255 7.438 10.062 C4.498 10.655 1.76 10.759 -0.941 9.336 C-2.148 8.302 -2.877 7.498 -3.562 6.062 C-3.636 4.104 -3.231 2.965 -2.562 1.062 C-1.562 0.062 -1.562 0.062 0 0 Z " fill="#98BEBE" transform="translate(47.5625,69.9375)"/>
<path d="M0 0 C0.66 0.33 1.32 0.66 2 1 C1.67 1.598 1.34 2.196 1 2.812 C0 5 0 5 0.125 6.688 C0.084 7.121 0.043 7.554 0 8 C-1.323 8.372 -2.657 8.706 -4 9 C-4 9.66 -4 10.32 -4 11 C-5.32 11 -6.64 11 -8 11 C-8 10.34 -8 9.68 -8 9 C-8.66 9 -9.32 9 -10 9 C-10 8.34 -10 7.68 -10 7 C-9.34 7 -8.68 7 -8 7 C-7.876 6.526 -7.752 6.051 -7.625 5.562 C-7.419 5.047 -7.212 4.531 -7 4 C-5.672 3.646 -4.338 3.315 -3 3 C-2.464 2.464 -1.928 1.927 -1.375 1.375 C-0.921 0.921 -0.468 0.468 0 0 Z " fill="#7BA9AB" transform="translate(57,66)"/>
<path d="M0 0 C0.66 0.33 1.32 0.66 2 1 C2.309 2.375 2.309 2.375 2.438 4 C2.648 5.633 2.648 5.633 3 7 C4.562 7.875 4.562 7.875 6 8 C5.01 8.33 4.02 8.66 3 9 C3.66 10.98 4.32 12.96 5 15 C2.69 13.68 0.38 12.36 -2 11 C-1.34 10.67 -0.68 10.34 0 10 C-0.33 9.34 -0.66 8.68 -1 8 C-1.133 6.562 -1.133 6.562 -1.125 5 C-1.128 4.484 -1.13 3.969 -1.133 3.438 C-1 2 -1 2 0 0 Z " fill="#8DB9B9" transform="translate(70,90)"/>
<path d="M0 0 C1.5 0.312 1.5 0.312 3 1 C3.062 2.438 3.062 2.438 3 4 C3.996 5.098 3.996 5.098 5 6 C4.578 6.11 4.157 6.219 3.723 6.332 C3.449 6.411 3.449 6.411 2.062 6.812 C1.517 6.963 0.972 7.114 0.41 7.27 C-1 8 -1 8 -1.691 9.574 C-1.793 10.045 -1.895 10.515 -2 11 C-3.5 10.75 -3.5 10.75 -5 10 C-5.188 7.938 -5.188 7.938 -5 6 C-4.01 6 -3.02 6 -2 6 C-2 5.34 -2 4.68 -2 4 C-2.66 3.67 -3.32 3.34 -4 3 C-3.01 2.67 -2.02 2.34 -1 2 C-1 2.66 -1 3.32 -1 4 C-0.34 4 0.32 4 1 4 C0.67 2.68 0.34 1.36 0 0 Z " fill="#77A7A8" transform="translate(48,22)"/>
<path d="M0 0 C-1.825 2.607 -3.254 4.329 -6 6 C-6.155 6.196 -6.155 6.196 -6.938 7.188 C-8 8 -8 8 -10.062 7.75 C-12 7 -12 7 -13 5 C-12.763 5.021 -12.763 5.021 -11.562 5.125 C-11.305 5.104 -11.305 5.104 -10 5 C-9.67 4.34 -9.34 3.68 -9 3 C-9.66 2.67 -10.32 2.34 -11 2 C-7.38 -0.317 -4.222 -0.213 0 0 Z " fill="#97C3C1" transform="translate(93,104)"/>
<path d="M0 0 C0.66 0 1.32 0 2 0 C2 7.26 2 14.52 2 22 C1.34 22 0.68 22 0 22 C0.006 21.674 0.006 21.674 0.035 20.023 C0.088 15.635 0.134 11.457 -0.879 7.156 C-1 6 -1 6 0 4 C0.039 2.667 0.044 1.333 0 0 Z " fill="#ACD7D6" transform="translate(96,79)"/>
<path d="M0 0 C0.452 0.012 0.905 0.023 1.371 0.035 C1.773 0.045 1.773 0.045 3.809 0.098 C3.726 0.572 3.644 1.046 3.559 1.535 C3.641 2.051 3.724 2.566 3.809 3.098 C5.132 3.47 6.466 3.804 7.809 4.098 C7.809 4.758 7.809 5.418 7.809 6.098 C7.149 6.098 6.489 6.098 5.809 6.098 C5.809 5.438 5.809 4.778 5.809 4.098 C3.871 3.848 3.871 3.848 1.809 4.098 C1.059 6.098 1.059 6.098 0.809 8.098 C-0.691 7.41 -0.691 7.41 -2.191 6.098 C-2.537 4.31 -2.381 2.946 -2.191 1.098 C-1.191 0.098 -1.191 0.098 0 0 Z " fill="#80AFB0" transform="translate(52.19140625,19.90234375)"/>
<path d="M0 0 C0.66 0.33 1.32 0.66 2 1 C1.812 2.438 1.812 2.438 1 4 C-0.18 4.352 -0.18 4.352 -1.562 4.562 C-2.367 4.707 -3.171 4.851 -4 5 C-4 5.66 -4 6.32 -4 7 C-5.391 8.324 -5.391 8.324 -7.25 9.688 C-7.853 10.145 -8.457 10.603 -9.078 11.074 C-11 12 -11 12 -13.172 11.77 C-15 11 -15 11 -16 9 C-15.807 9.023 -15.807 9.023 -14.828 9.141 C-10.666 9.429 -10.666 9.429 -8.781 8.215 C-7.271 6.711 -6.117 5.19 -5 3.375 C-3.618 1.475 -2.175 0.816 0 0 Z " fill="#657677" transform="translate(65,70)"/>
<path d="M0 0 C0.983 0.619 1.961 1.246 2.938 1.875 C3.483 2.223 4.028 2.571 4.59 2.93 C6 4 6 4 7 6 C5.357 7.12 3.783 8.109 2 9 C1.67 9.66 1.34 10.32 1 11 C-0.203 9.421 -0.957 8.369 -1.188 6.375 C-1 5 -1 5 0 4 C0.04 2.667 0.043 1.333 0 0 Z " fill="#7DA8AB" transform="translate(42,64)"/>
<path d="" fill="#F5F5F5" transform="translate(0,0)"/>
<path d="" fill="#F7F7F7" transform="translate(0,0)"/>
<path d="" fill="#F8F9F4" transform="translate(0,0)"/>
<path d="" fill="#F8F2F4" transform="translate(0,0)"/>
<path d="" fill="#F1F3F2" transform="translate(0,0)"/>
<path d="" fill="#F6F8F7" transform="translate(0,0)"/>
<path d="" fill="#F5F7F6" transform="translate(0,0)"/>
<path d="" fill="#F8F8F8" transform="translate(0,0)"/>
<path d="" fill="#F1FAF9" transform="translate(0,0)"/>
<path d="" fill="#F9F8F4" transform="translate(0,0)"/>
<path d="" fill="#FBF7F6" transform="translate(0,0)"/>
<path d="" fill="#F7F9F8" transform="translate(0,0)"/>
<path d="" fill="#F8F8F8" transform="translate(0,0)"/>
<path d="" fill="#F8F8F8" transform="translate(0,0)"/>
<path d="" fill="#F6F8F7" transform="translate(0,0)"/>
<path d="" fill="#F7F7F9" transform="translate(0,0)"/>
<path d="" fill="#F6F6F6" transform="translate(0,0)"/>
<path d="" fill="#F1FAF9" transform="translate(0,0)"/>
<path d="" fill="#F4F4F4" transform="translate(0,0)"/>
<path d="" fill="#F6F6F6" transform="translate(0,0)"/>
<path d="" fill="#F4FAFA" transform="translate(0,0)"/>
<path d="" fill="#F3F9F7" transform="translate(0,0)"/>
<path d="" fill="#F5F3F6" transform="translate(0,0)"/>
<path d="" fill="#F4F9F3" transform="translate(0,0)"/>
<path d="" fill="#F9F5F2" transform="translate(0,0)"/>
<path d="" fill="#F5F7F2" transform="translate(0,0)"/>
</svg>
