<?xml version="1.0" encoding="UTF-8"?>
<!-- Generator: visioncortex VTracer 0.6.12 -->
<svg version="1.1" xmlns="http://www.w3.org/2000/svg" width="128" height="128">
<path d="M0 0 C-0.342 2.576 -0.822 4.086 -2.855 5.676 C-3.628 6.228 -4.405 6.774 -5.188 7.312 C-14.325 14.11 -17.939 21.534 -22 32 C-21.807 32.022 -21.807 32.022 -20.83 32.131 C-15.53 32.847 -11.641 35.102 -8 39 C-3.151 45.535 -1.802 51.66 -1.75 59.688 C-1.729 60.465 -1.709 61.243 -1.688 62.045 C-1.631 70.467 -4.321 77.805 -9.992 84.102 C-11 85 -11 85 -13.062 86 C-15 87 -15 87 -16 89 C-26.398 95.036 -39.815 96.244 -51.325 93.447 C-55.639 92.259 -59.402 90.704 -63 88 C-63.518 87.642 -64.036 87.283 -64.57 86.914 C-71.712 81.567 -75.068 74.139 -76.621 65.562 C-78.479 51.829 -72.975 37.887 -64.813 27.056 C-64.545 26.707 -64.277 26.359 -64 26 C-63.859 25.817 -63.859 25.817 -63.147 24.89 C-59.785 20.596 -56.424 16.612 -51 15 C-50.34 15 -49.68 15 -49 15 C-49 14.34 -49 13.68 -49 13 C-48.01 13 -47.02 13 -46 13 C-46 12.34 -46 11.68 -46 11 C-44.538 10.086 -44.538 10.086 -42.484 9.16 C-41.734 8.82 -40.984 8.481 -40.21 8.131 C-39.391 7.773 -38.571 7.417 -37.75 7.062 C-37.338 6.883 -36.926 6.703 -36.501 6.518 C-24.005 1.102 -13.66 -0.509 0 0 Z " fill="#C26A72" transform="translate(103,17)"/>
<path d="M0 0 C1.776 1.024 3.385 2.19 4.994 3.457 C5.255 3.655 5.255 3.655 6.576 4.656 C10.495 8.056 11.621 12.293 12.215 17.334 C12.331 19.234 12.365 21.117 12.369 23.02 C12.393 23.653 12.418 24.287 12.443 24.94 C12.477 30.365 10.696 33.676 6.95 37.531 C5.918 38.467 4.861 39.313 3.744 40.145 C3.352 40.439 2.96 40.734 2.556 41.038 C-4.123 45.874 -10.771 46.86 -18.783 47.321 C-20.006 47.457 -20.006 47.457 -22.186 48.121 C-22.786 48.232 -23.387 48.343 -24.006 48.457 C-25.28 47.567 -25.28 47.567 -26.381 46.207 C-28.151 44.232 -29.578 43.028 -32.006 41.957 C-36.093 40.088 -39.2 37.392 -40.944 33.207 C-40.964 32.63 -40.985 32.052 -41.006 31.457 C-40.676 31.292 -40.676 31.292 -39.006 30.457 C-38.346 30.787 -37.686 31.117 -37.006 31.457 C-37.006 32.117 -37.006 32.777 -37.006 33.457 C-35.551 34.095 -34.208 34.576 -32.694 35.02 C-32.289 35.145 -31.885 35.271 -31.469 35.401 C-30.316 35.759 -29.161 36.108 -28.006 36.457 C-27.758 36.552 -27.758 36.552 -26.502 37.031 C-19.777 38.945 -12.149 37.405 -6.006 34.457 C-2.554 32.306 0.54 29.857 1.74 25.84 C2.271 22.946 2.663 20.361 1.994 17.457 C0.122 14.744 -2.072 12.925 -5.006 11.457 C-7.065 11.254 -7.065 11.254 -9.444 11.207 C-9.835 11.194 -9.835 11.194 -11.815 11.129 C-14.528 11.535 -15.377 12.287 -17.006 14.457 C-17.519 16.318 -17.26 17.48 -17.006 19.457 C-15.943 21.229 -14.92 21.495 -13.006 22.332 C-12.346 22.374 -11.686 22.415 -11.006 22.457 C-10.676 21.797 -10.346 21.137 -10.006 20.457 C-9.676 19.797 -9.346 19.137 -9.006 18.457 C-6.881 18.27 -6.881 18.27 -5.006 19.457 C-4.214 21.932 -4.329 23.963 -5.006 26.457 C-7.062 29.583 -9.529 31.128 -13.162 31.938 C-18.249 32.26 -21.477 31.099 -25.498 28.039 C-29.336 24.012 -30.546 20.561 -30.444 15.02 C-30.435 14.444 -30.427 13.869 -30.418 13.276 C-30.268 9.501 -29.886 6.53 -27.303 3.602 C-26.875 3.224 -26.447 2.846 -26.006 2.457 C-25.578 2.049 -25.15 1.64 -24.709 1.219 C-18.415 -3.502 -6.94 -3.384 0 0 Z " fill="#853037" transform="translate(75.006103515625,61.542724609375)"/>
<path d="M0 0 C3.541 1.535 6.135 3.592 8 7 C8.762 11.088 8.155 14.897 6.125 18.508 C3.914 21.441 1.125 24.064 -2 26 C-2.66 25.67 -3.32 25.34 -4 25 C-3.34 23.68 -2.68 22.36 -2 21 C-2.66 20.67 -3.32 20.34 -4 20 C-3.505 19.484 -3.01 18.969 -2.5 18.438 C-0.299 15.575 -0.739 12.444 -1 9 C-2.938 9.375 -2.938 9.375 -5 10 C-5.33 10.66 -5.66 11.32 -6 12 C-8.412 11.753 -10.215 11.449 -12.312 10.25 C-13.457 8.169 -13.519 6.257 -13 4 C-10.516 -1.184 -5.003 -0.876 0 0 Z " fill="#BF676F" transform="translate(70,72)"/>
<path d="M0 0 C-0.687 3.678 -0.687 3.678 -2.086 5.117 C-3.388 5.882 -4.556 6.548 -6 7 C-7.801 6.228 -8.639 5.361 -10 4 C-10 4.99 -10 5.98 -10 7 C-10.66 7 -11.32 7 -12 7 C-12 8.32 -12 9.64 -12 11 C-14.31 11.33 -16.62 11.66 -19 12 C-19 11.01 -19 10.02 -19 9 C-18.361 9.041 -17.721 9.082 -17.062 9.125 C-16.382 9.084 -15.701 9.043 -15 9 C-14.67 8.34 -14.34 7.68 -14 7 C-14.66 7 -15.32 7 -16 7 C-16 7.66 -16 8.32 -16 9 C-16.66 8.67 -17.32 8.34 -18 8 C-18 7.34 -18 6.68 -18 6 C-20.64 5.67 -23.28 5.34 -26 5 C-26.082 5.804 -26.165 6.609 -26.25 7.438 C-26.391 8.809 -26.391 8.809 -27 10 C-30.035 11.225 -32.155 10.939 -35.25 10.062 C-35.956 9.868 -36.663 9.673 -37.391 9.473 C-37.922 9.317 -38.453 9.161 -39 9 C-37.726 6.452 -36.212 6.031 -33.688 5.062 C-33.242 4.891 -32.796 4.72 -32.336 4.544 C-21.428 0.489 -11.637 -0.433 0 0 Z " fill="#CC868E" transform="translate(103,17)"/>
<path d="M0 0 C1.562 0.312 1.562 0.312 3 1 C3 1.66 3 2.32 3 3 C4.453 3.609 5.805 4.075 7.312 4.5 C10.134 5.319 12.702 6.09 15 8 C14.979 8.495 14.959 8.99 14.938 9.5 C14.958 9.995 14.979 10.49 15 11 C16.316 11.699 17.65 12.367 19 13 C19 13.66 19 14.32 19 15 C19.66 15 20.32 15 21 15 C21 14.34 21 13.68 21 13 C22.417 13.142 23.834 13.289 25.25 13.438 C25.644 13.478 25.644 13.478 27.641 13.684 C29.824 13.976 31.877 14.421 34 15 C31.225 16.121 28.513 16.287 25.562 16.5 C22.86 16.697 20.404 16.876 17.801 17.672 C17.207 17.78 16.612 17.888 16 18 C14.727 17.109 14.727 17.109 13.625 15.75 C11.856 13.774 10.428 12.571 8 11.5 C3.936 9.641 0.764 6.964 -0.875 2.75 C-0.916 2.172 -0.958 1.595 -1 1 C-0.67 0.67 -0.34 0.34 0 0 Z " fill="#8E363E" transform="translate(35,92)"/>
<path d="M0 0 C0.176 1.371 0.176 1.371 0 3 C-1.207 4.098 -1.207 4.098 -2.812 5.062 C-3.335 5.383 -3.857 5.704 -4.395 6.035 C-4.659 6.194 -4.659 6.194 -6 7 C-6.455 7.336 -6.91 7.672 -7.379 8.019 C-10.246 9.754 -13.471 9.802 -16.75 10.188 C-17.441 10.282 -18.132 10.377 -18.844 10.475 C-28.023 11.605 -28.023 11.605 -32 10 C-32.69 8.454 -32.69 8.454 -33 7 C-32.612 6.993 -32.612 6.993 -30.648 6.957 C-23.347 6.681 -17.205 5.352 -10.408 2.64 C-9.845 2.416 -9.283 2.192 -8.703 1.961 C-8.205 1.753 -7.706 1.544 -7.192 1.33 C-6.799 1.221 -6.405 1.112 -6 1 C-5.67 1.33 -5.34 1.66 -5 2 C-3.809 1.66 -3.809 1.66 -2.438 1.062 C-1.982 0.868 -1.527 0.673 -1.059 0.473 C-0.884 0.395 -0.884 0.395 0 0 Z " fill="#A8686F" transform="translate(86,101)"/>
<path d="M0 0 C1.647 5.77 0.009 10.498 -2 16 C-1.34 16 -0.68 16 0 16 C0.054 16.979 0.093 17.958 0.125 18.938 C0.148 19.483 0.171 20.028 0.195 20.59 C0.131 21.055 0.066 21.521 0 22 C-0.66 22.33 -1.32 22.66 -2 23 C-1.977 24.707 -1.977 24.707 -1.625 26.812 C-0.653 32.837 -0.653 32.837 -1 35 C-3 35.75 -3 35.75 -5 36 C-9.015 24.603 -5.961 12.719 -1.023 2.098 C-0.686 1.405 -0.348 0.713 0 0 Z " fill="#CD828A" transform="translate(33,52)"/>
<path d="M0 0 C0.33 0 0.66 0 1 0 C0.979 0.383 0.958 0.767 0.937 1.162 C0.853 2.899 0.801 4.636 0.75 6.375 C0.716 6.978 0.683 7.582 0.648 8.203 C0.611 9.892 0.604 11.357 1 13 C3.031 14.281 3.031 14.281 5 15 C4.75 17.125 4.75 17.125 4 19 C4.99 18.34 5.98 17.68 7 17 C6.736 20.346 6.736 20.346 6 22 C4.736 22.781 3.589 23.164 2.156 23.543 C1 24 1 24 0 26 C-2.346 27.537 -3.446 28.092 -6.25 27.625 C-6.539 27.522 -6.539 27.522 -8 27 C-7.747 26.861 -7.747 26.861 -6.469 26.16 C-5.819 25.798 -5.169 25.436 -4.5 25.062 C-3.85 24.703 -3.201 24.343 -2.531 23.973 C-2.026 23.652 -1.521 23.331 -1 23 C-1 22.67 -1 22.34 -1 22 C-2.938 22.375 -2.938 22.375 -5 23 C-5.33 23.66 -5.66 24.32 -6 25 C-7.782 24.109 -8.678 23.416 -10 22 C-9.518 21.613 -9.036 21.227 -8.539 20.828 C-7.907 20.307 -7.276 19.787 -6.625 19.25 C-5.999 18.74 -5.372 18.229 -4.727 17.703 C-1.102 14.128 -0.654 10.601 -0.375 5.75 C-0.336 5.196 -0.298 4.641 -0.258 4.07 C-0.164 2.714 -0.081 1.357 0 0 Z " fill="#AD656B" transform="translate(87,80)"/>
<path d="M0 0 C1.891 -0.242 1.891 -0.242 4 0 C5.047 1.68 5.047 1.68 5.75 3.875 C5.871 4.235 5.871 4.235 6.484 6.055 C7 8 7 8 7 10 C8.391 11.438 8.391 11.438 10.25 13 C10.853 13.516 11.457 14.031 12.078 14.562 C14 16 14 16 16.156 17.055 C18.524 18.268 19.032 19.579 20 22 C13.428 20.737 7.355 16.189 3.312 10.938 C0.849 7.242 -0.698 4.465 0 0 Z " fill="#9D6067" transform="translate(29,87)"/>
<path d="M0 0 C0.66 0 1.32 0 2 0 C1.859 1.126 1.712 2.25 1.562 3.375 C1.481 4.001 1.4 4.628 1.316 5.273 C1 7 1 7 0 9 C0.254 9.013 0.254 9.013 1.539 9.078 C6.443 9.482 10.512 10.305 14 14 C14.767 15.787 14.89 17.024 15 19 C12.288 18.613 10.849 18.012 9.062 16 C6.91 13.634 5.13 13.348 2 13 C2 13.66 2 14.32 2 15 C1.34 15 0.68 15 0 15 C0 14.01 0 13.02 0 12 C-0.66 12 -1.32 12 -2 12 C-2.33 12.66 -2.66 13.32 -3 14 C-3.238 10.667 -2.471 8.942 -1 6 C-0.555 4.013 -0.256 2.019 0 0 Z " fill="#D2878F" transform="translate(79,40)"/>
<path d="M0 0 C-0.065 1.27 -0.13 2.539 -0.195 3.809 C-0.131 4.202 -0.066 4.595 0 5 C0.66 5.33 1.32 5.66 2 6 C1.34 6 0.68 6 0 6 C0 6.66 0 7.32 0 8 C-4.433 9.283 -4.433 9.283 -7 8 C-7 8.66 -7 9.32 -7 10 C-7.66 10 -8.32 10 -9 10 C-9 10.66 -9 11.32 -9 12 C-9.66 12 -10.32 12 -11 12 C-11.633 13.312 -11.633 13.312 -12.125 15 C-12.293 15.557 -12.46 16.114 -12.633 16.688 C-12.754 17.121 -12.875 17.554 -13 18 C-14.32 17.67 -15.64 17.34 -17 17 C-14.048 12.97 -11.055 8.978 -7.875 5.125 C-7.647 4.848 -7.647 4.848 -6.492 3.445 C-4.743 1.751 -2.551 0 0 0 Z " fill="#D7929A" transform="translate(51,33)"/>
<path d="M0 0 C0.33 0 0.66 0 1 0 C1.31 5.161 1.43 9.219 -1.289 13.723 C-2 15 -2 15 -2.312 17.25 C-3 19 -3 19 -4.391 19.688 C-5.918 20.201 -7.431 20.635 -9 21 C-8.34 19.35 -7.68 17.7 -7 16 C-8.32 15.34 -9.64 14.68 -11 14 C-10.505 13.711 -10.01 13.422 -9.5 13.125 C-9.005 12.754 -8.51 12.382 -8 12 C-8 11.34 -8 10.68 -8 10 C-6.35 10 -4.7 10 -3 10 C-3.021 9.68 -3.021 9.68 -3.125 8.062 C-3.084 7.382 -3.043 6.701 -3 6 C-2.34 5.67 -1.68 5.34 -1 5 C-0.621 3.809 -0.621 3.809 -0.438 2.438 C-0.293 1.633 -0.149 0.829 0 0 Z " fill="#CE7F88" transform="translate(98,79)"/>
<path d="M0 0 C2 1 2 1 2.612 2.316 C3.396 5.719 3.228 9.211 3.25 12.688 C3.271 13.465 3.291 14.243 3.312 15.045 C3.348 20.397 2.733 25.298 0 30 C-1.604 31.221 -1.604 31.221 -3 32 C-2.689 31.041 -2.376 30.083 -2.062 29.125 C-1.975 28.858 -1.975 28.858 -1.535 27.508 C-1 26 -1 26 0 24 C0.098 22.751 0.098 22.751 0.062 21.355 C0.055 20.843 0.047 20.331 0.039 19.803 C0.013 18.738 -0.013 17.673 -0.039 16.607 C-0.089 13.243 0.225 10.277 1 7 C0.01 6.67 -0.98 6.34 -2 6 C-1.34 5.67 -0.68 5.34 0 5 C0.195 3.809 0.195 3.809 0.125 2.438 C0.104 2.035 0.104 2.035 0 0 Z " fill="#8A5C61" transform="translate(98,64)"/>
<path d="M0 0 C-3.531 3.027 -3.531 3.027 -6.188 2.875 C-6.487 2.896 -6.487 2.896 -8 3 C-8.5 5.438 -8.5 5.438 -8.531 6.809 C-8.686 7.202 -8.841 7.595 -9 8 C-12.029 9.233 -14.16 8.938 -17.25 8.062 C-17.956 7.868 -18.663 7.673 -19.391 7.473 C-19.922 7.317 -20.453 7.161 -21 7 C-19.696 4.391 -18.025 3.982 -15.438 3 C-14.991 2.827 -14.545 2.654 -14.086 2.476 C-3.249 -1.625 -3.249 -1.625 0 0 Z " fill="#D9939A" transform="translate(85,19)"/>
<path d="M0 0 C3.14 1.191 4.89 2.532 6.539 5.492 C7.414 8.355 6.682 11.149 6 14 C4.062 13.312 4.062 13.312 2 12 C1.27 10.361 0.971 8.792 1 7 C1.33 6.34 1.66 5.68 2 5 C1.34 5.33 1.34 5.33 -2 7 C-2.33 5.68 -2.66 4.36 -3 3 C-2.175 3.165 -2.175 3.165 2 4 C1.34 2.68 0.68 1.36 0 0 Z " fill="#C17A81" transform="translate(92,55)"/>
<path d="M0 0 C0.18 1.367 0.18 1.367 0 3 C-1.242 4.133 -1.242 4.133 -2.875 5.125 C-3.409 5.458 -3.942 5.79 -4.492 6.133 C-7.217 7.7 -8.863 8.105 -12 8 C-10.707 5.116 -9.341 3.128 -7 1 C-6.34 1.99 -5.68 2.98 -5 4 C-4.918 3.526 -4.835 3.051 -4.75 2.562 C-4.502 2.047 -4.255 1.531 -4 1 C-1.938 0.312 -1.938 0.312 0 0 Z " fill="#CB8088" transform="translate(86,101)"/>
<path d="M0 0 C1.602 5.655 0.354 9.717 -2.184 14.898 C-2.318 15.08 -2.318 15.08 -3 16 C-3.66 16 -4.32 16 -5 16 C-4.393 10.235 -2.247 5.287 0 0 Z " fill="#DFA2AA" transform="translate(33,52)"/>
<path d="M0 0 C0.784 0.186 1.567 0.371 2.375 0.562 C4.556 1.079 4.86 1.07 7 0 C6.018 3.006 5.017 6.005 4 9 C3.811 9.565 3.621 10.129 3.426 10.711 C2.938 12.062 2.938 12.062 2 14 C1.34 14 0.68 14 0 14 C0.168 13.362 0.335 12.724 0.508 12.066 C0.714 11.232 0.92 10.397 1.125 9.562 C1.237 9.142 1.349 8.721 1.465 8.287 C1.758 7.066 1.758 7.066 2 5 C1.34 4.67 0.68 4.34 0 4 C-0.125 1.938 -0.125 1.938 0 0 Z " fill="#9B656B" transform="translate(79,35)"/>
<path d="M0 0 C1.32 0.66 2.64 1.32 4 2 C0.833 6.863 -2.391 10.463 -7 14 C-7 11.69 -7 9.38 -7 7 C-5.35 7 -3.7 7 -2 7 C-2 5.68 -2 4.36 -2 3 C-1.34 3 -0.68 3 0 3 C0 2.01 0 1.02 0 0 Z " fill="#935D62" transform="translate(93,21)"/>
<path d="M0 0 C4.29 0 8.58 0 13 0 C12.34 1.32 11.68 2.64 11 4 C9.056 4.23 7.818 4.217 5.938 3.938 C5.708 3.917 5.708 3.917 4.545 3.814 C3.215 3.652 3.215 3.652 1 3 C0.67 2.01 0.34 1.02 0 0 Z " fill="#B37A80" transform="translate(53,108)"/>
<path d="M0 0 C1.417 0.142 2.834 0.289 4.25 0.438 C4.644 0.478 4.644 0.478 6.641 0.684 C8.824 0.976 10.877 1.421 13 2 C10.225 3.121 7.513 3.287 4.562 3.5 C1.881 3.695 -0.628 3.903 -3.238 4.582 C-5 5 -5 5 -6.75 4.188 C-7.163 3.796 -7.575 3.404 -8 3 C-8 2.34 -8 1.68 -8 1 C-5.36 1.33 -2.72 1.66 0 2 C0 1.34 0 0.68 0 0 Z " fill="#90464D" transform="translate(56,105)"/>
<path d="M0 0 C2 1 2 1 2 1 Z " fill="#F7FAF6" transform="translate(101,22)"/>
<path d="" fill="#F5F6F8" transform="translate(0,0)"/>
<path d="" fill="#F8F8F6" transform="translate(0,0)"/>
<path d="" fill="#F8F7F5" transform="translate(0,0)"/>
<path d="" fill="#F6F4F7" transform="translate(0,0)"/>
<path d="" fill="#F8F8F6" transform="translate(0,0)"/>
<path d="" fill="#F5F9F8" transform="translate(0,0)"/>
<path d="" fill="#F2F8F6" transform="translate(0,0)"/>
<path d="" fill="#F6FBF5" transform="translate(0,0)"/>
<path d="" fill="#F4F8F7" transform="translate(0,0)"/>
<path d="" fill="#F5F7F6" transform="translate(0,0)"/>
<path d="" fill="#FAF6F5" transform="translate(0,0)"/>
<path d="" fill="#F5F9FA" transform="translate(0,0)"/>
<path d="" fill="#F7F5F6" transform="translate(0,0)"/>
<path d="" fill="#F6F6F4" transform="translate(0,0)"/>
<path d="" fill="#F5F9FA" transform="translate(0,0)"/>
<path d="" fill="#F5F8F1" transform="translate(0,0)"/>
<path d="" fill="#F6F8F5" transform="translate(0,0)"/>
<path d="" fill="#FBF7F6" transform="translate(0,0)"/>
<path d="" fill="#F5FAF6" transform="translate(0,0)"/>
<path d="" fill="#F5F9F8" transform="translate(0,0)"/>
</svg>
