<?xml version="1.0" encoding="UTF-8"?>
<!-- Generator: visioncortex VTracer 0.6.12 -->
<svg version="1.1" xmlns="http://www.w3.org/2000/svg" width="128" height="128">
<path d="M0 0 C2.628 0.362 4.132 0.854 5.75 2.938 C7 5 7 5 7 7 C7.585 7.287 8.17 7.575 8.773 7.871 C11.425 9.215 12.786 10.789 14.625 13.062 C17.76 16.88 17.76 16.88 20 18 C19.959 18.474 19.917 18.949 19.875 19.438 C19.916 19.953 19.958 20.469 20 21 C20.939 21.47 21.885 21.931 22.855 22.332 C24.723 23.422 25.76 25.125 26.973 26.879 C28.211 28.231 29.244 28.557 31 29 C31.098 28.599 31.196 28.198 31.297 27.785 C32.269 24.088 33.494 20.57 35 17.062 C35.166 16.661 35.332 16.26 35.503 15.846 C36 14.723 36 14.723 37 13 C37.66 13 38.32 13 39 13 C39.037 12.625 39.075 12.25 39.113 11.863 C39.615 7.957 40.738 5.215 43 2 C44.654 3.451 45.295 4.47 45.746 6.617 C45.86 7.136 45.973 7.655 46.09 8.189 C46.147 8.468 46.147 8.468 46.438 9.875 C46.694 11.05 46.952 12.224 47.211 13.398 C47.341 13.996 47.471 14.594 47.604 15.21 C48.217 17.983 48.882 20.743 49.562 23.5 C49.677 23.979 49.792 24.459 49.91 24.953 C50.688 28.1 51.739 31.012 53 34 C53.278 33.845 53.278 33.845 54.688 33.062 C56.367 32.199 57.822 31.823 59.688 31.562 C60.451 31.377 61.214 31.191 62 31 C62.688 29.438 62.688 29.438 63 28 C63.66 28 64.32 28 65 28 C65.33 27.34 65.66 26.68 66 26 C68.139 24.777 70.356 23.845 72.641 22.938 C72.863 22.849 72.863 22.849 73.985 22.402 C74.32 22.27 74.655 22.137 75 22 C72.339 33.019 68.235 43.503 64 54 C64.378 53.909 64.756 53.818 65.146 53.725 C66.867 53.313 68.59 52.906 70.312 52.5 C70.907 52.357 71.502 52.214 72.115 52.066 C72.404 51.999 72.404 51.999 73.863 51.656 C74.392 51.531 74.921 51.405 75.466 51.275 C77.012 50.998 78.433 50.951 80 51 C80 51.99 80 52.98 80 54 C79.34 54 78.68 54 78 54 C77.508 55.279 77.508 55.279 77.125 57.051 C76.056 61.198 74.197 64.538 72 68.188 C71.291 69.389 70.582 70.591 69.875 71.793 C69.548 72.346 69.22 72.9 68.883 73.47 C67.838 75.28 66.899 77.114 66 79 C68.521 80.26 69.854 79.919 72.625 79.562 C73.442 79.461 74.26 79.359 75.102 79.254 C75.415 79.212 75.415 79.212 77 79 C76.569 80.761 76.285 81.765 74.864 82.936 C74.631 83.065 74.631 83.065 73.453 83.719 C73.195 83.865 73.195 83.865 71.891 84.605 C71.349 84.901 70.808 85.196 70.25 85.5 C69.193 86.094 68.135 86.687 67.078 87.281 C66.561 87.567 66.043 87.854 65.51 88.148 C63.696 89.171 61.928 90.258 60.167 91.369 C57.281 92.929 54.536 93.169 51.304 93.225 C50.84 93.236 50.376 93.247 49.898 93.259 C45.044 93.37 40.188 93.417 35.333 93.46 C33.038 93.482 30.744 93.524 28.449 93.583 C25.664 93.655 22.88 93.691 20.094 93.703 C19.041 93.713 17.987 93.736 16.934 93.771 C9.537 94.004 5.404 92.697 -0.087 87.646 C-2.399 85.529 -4.942 84.588 -8 84 C-7.67 83.01 -7.34 82.02 -7 81 C-7.66 81 -8.32 81 -9 81 C-8.688 79.5 -8.688 79.5 -8 78 C-5.592 77.765 -3.201 78.187 -0.812 78.5 C-0.097 78.593 0.618 78.686 1.355 78.781 C1.898 78.853 2.441 78.926 3 79 C2.095 77.243 1.174 75.496 0.25 73.75 C-0.003 73.259 -0.255 72.768 -0.516 72.262 C-2.07 69.347 -3.675 67.078 -6.135 64.862 C-7.533 63.469 -8.19 61.781 -9 60 C-9.787 58.704 -10.594 57.424 -11.414 56.148 C-12 55 -12 55 -12 53 C-12.66 53 -13.32 53 -14 53 C-14.36 52.009 -14.69 51.007 -15 50 C-15.351 49.67 -15.701 49.34 -16.062 49 C-17 48 -17 48 -17.059 46.438 C-17.039 45.963 -17.02 45.489 -17 45 C-16.673 45.03 -16.673 45.03 -15.016 45.184 C-14.094 45.268 -13.172 45.353 -12.25 45.438 C-11.826 45.477 -11.402 45.516 -10.965 45.557 C-5.313 46.074 0.344 46.532 6 47 C5.569 43.374 5.131 39.749 4.688 36.125 C4.621 35.584 4.555 35.043 4.487 34.486 C3.502 26.49 2.355 18.551 0.915 10.624 C0.272 7.016 -0.149 3.665 0 0 Z " fill="#A97651" transform="translate(34,19)"/>
<path d="M0 0 C1.654 1.451 2.295 2.47 2.746 4.617 C2.86 5.136 2.973 5.655 3.09 6.189 C3.205 6.746 3.319 7.302 3.438 7.875 C3.694 9.05 3.952 10.224 4.211 11.398 C4.276 11.697 4.276 11.697 4.604 13.21 C5.217 15.983 5.882 18.743 6.562 21.5 C6.62 21.74 6.62 21.74 6.91 22.953 C7.688 26.1 8.739 29.012 10 32 C10.557 31.691 11.114 31.381 11.688 31.062 C13.367 30.199 14.822 29.823 16.688 29.562 C17.451 29.377 18.214 29.191 19 29 C19.688 27.438 19.688 27.438 20 26 C20.66 26 21.32 26 22 26 C22.33 25.34 22.66 24.68 23 24 C25.139 22.777 27.356 21.845 29.641 20.938 C30.084 20.761 30.528 20.584 30.985 20.402 C31.32 20.27 31.655 20.137 32 20 C29.339 31.019 25.235 41.503 21 52 C21.378 51.909 21.756 51.818 22.146 51.725 C23.867 51.313 25.59 50.906 27.312 50.5 C27.907 50.357 28.502 50.214 29.115 50.066 C29.404 49.999 29.404 49.999 30.863 49.656 C31.392 49.531 31.921 49.405 32.466 49.275 C34.012 48.998 35.433 48.951 37 49 C37 49.99 37 50.98 37 52 C36.34 52 35.68 52 35 52 C34.508 53.279 34.508 53.279 34.125 55.051 C33.056 59.198 31.197 62.538 29 66.188 C28.291 67.389 27.582 68.591 26.875 69.793 C26.548 70.346 26.22 70.9 25.883 71.47 C24.838 73.28 23.899 75.114 23 77 C25.521 78.26 26.854 77.919 29.625 77.562 C30.442 77.461 31.26 77.359 32.102 77.254 C32.728 77.17 33.355 77.086 34 77 C33.569 78.761 33.285 79.765 31.864 80.936 C31.399 81.194 30.933 81.452 30.453 81.719 C30.195 81.865 30.195 81.865 28.891 82.605 C28.62 82.753 28.62 82.753 27.25 83.5 C26.193 84.094 25.135 84.687 24.078 85.281 C23.561 85.567 23.043 85.854 22.51 86.148 C21.084 86.953 19.69 87.796 18.297 88.656 C14.023 91.217 14.023 91.217 11.395 90.66 C10.872 90.463 10.35 90.266 9.812 90.062 C9.283 89.868 8.753 89.673 8.207 89.473 C8.008 89.395 8.008 89.395 7 89 C7.511 84.915 8.987 81.756 10.898 78.125 C11.633 76.708 12.326 75.27 12.977 73.812 C14.707 69.985 16.031 67.322 19.852 65.375 C21 65 21 65 23 65 C23 64.34 23 63.68 23 63 C22.34 63 21.68 63 21 63 C21 61.02 21 59.04 21 57 C20.567 57.206 20.134 57.412 19.688 57.625 C18 58 18 58 16.352 57.344 C16.129 57.122 16.129 57.122 15 56 C15.059 54.101 15.248 52.687 15.688 50.875 C15.78 50.407 15.872 49.939 15.967 49.457 C16.262 48.117 16.262 48.117 17 46 C17.66 46 18.32 46 19 46 C18.625 44 18.625 44 18 42 C17.34 42 16.68 42 16 42 C16 40.35 16 38.7 16 37 C15.34 37.165 15.34 37.165 12 38 C12 37.01 12 36.02 12 35 C11.257 35.206 10.515 35.413 9.75 35.625 C7.606 36.051 6.937 35.979 4.75 35.25 C2.824 33.874 2.489 33.251 2 31 C1.67 30.67 1.34 30.34 1 30 C0.867 28.844 0.867 28.844 0.875 27.5 C0.872 27.057 0.87 26.613 0.867 26.156 C1 25 1 25 2 24 C1.835 23.856 1.835 23.856 1 23.125 C0 22 0 22 0 20 C-0.66 20 -1.32 20 -2 20 C-2.414 18.906 -2.414 18.906 -2.625 17.5 C-2.7 17.036 -2.775 16.572 -2.852 16.094 C-2.901 15.733 -2.95 15.372 -3 15 C-3.121 15.41 -3.242 15.82 -3.367 16.242 C-3.535 16.781 -3.702 17.32 -3.875 17.875 C-4.037 18.409 -4.2 18.942 -4.367 19.492 C-5.043 21.104 -5.638 21.919 -7 23 C-9.125 23.625 -9.125 23.625 -11 24 C-10.314 20.915 -9.325 18.132 -8.062 15.25 C-7.978 15.044 -7.978 15.044 -7.549 14.004 C-7.035 12.828 -7.035 12.828 -6 11 C-5.34 11 -4.68 11 -4 11 C-3.963 10.625 -3.925 10.25 -3.887 9.863 C-3.385 5.957 -2.262 3.215 0 0 Z " fill="#B2815E" transform="translate(77,21)"/>
<path d="M0 0 C5.618 5.618 5.618 5.618 7.168 8.078 C7.336 8.339 7.336 8.339 8.186 9.656 C8.516 10.182 8.847 10.708 9.188 11.25 C9.864 12.32 10.545 13.388 11.23 14.453 C11.523 14.919 11.816 15.384 12.118 15.864 C13 17 13 17 15 18 C15.113 17.732 15.113 17.732 15.688 16.375 C17.248 13.255 19.491 10.412 22 8 C22.66 8 23.32 8 24 8 C24.171 13.732 23.641 19.315 23 25 C23.554 24.711 24.109 24.422 24.68 24.125 C25.404 23.754 26.129 23.382 26.875 23 C27.594 22.629 28.314 22.257 29.055 21.875 C31 21 31 21 33 21 C31.927 25.076 30.277 28.47 28.125 32.062 C27.881 32.474 27.636 32.885 27.384 33.308 C26.618 34.56 25.811 35.777 25 37 C24.734 37.436 24.468 37.871 24.193 38.32 C21.862 41.745 21.862 41.745 19.569 42.424 C17.863 42.545 16.227 42.511 14.52 42.418 C13.906 42.406 13.293 42.394 12.661 42.382 C10.71 42.341 8.762 42.266 6.812 42.188 C4.853 42.125 2.893 42.069 0.932 42.025 C-0.286 41.996 -1.503 41.955 -2.72 41.902 C-3.268 41.885 -3.815 41.869 -4.38 41.852 C-4.863 41.833 -5.346 41.813 -5.844 41.793 C-6.225 41.861 -6.607 41.93 -7 42 C-7.33 42.66 -7.66 43.32 -8 44 C-10.378 44.35 -12.022 44.535 -14.156 43.368 C-15.298 42.499 -16.368 41.583 -17.438 40.625 C-20.755 37.834 -23.649 35.836 -28 35 C-27.67 34.01 -27.34 33.02 -27 32 C-27.66 32 -28.32 32 -29 32 C-28.688 30.5 -28.688 30.5 -28 29 C-25.592 28.765 -23.201 29.187 -20.812 29.5 C-20.455 29.546 -20.455 29.546 -18.645 29.781 C-18.102 29.853 -17.559 29.926 -17 30 C-17.66 28.35 -18.32 26.7 -19 25 C-18.278 25.309 -17.556 25.619 -16.812 25.938 C-14.904 26.746 -13.493 27.024 -11.438 27.062 C-10.203 27.258 -10.203 27.258 -9 28 C-7.01 31.295 -5 35.098 -5 39 C-3.906 39.414 -3.906 39.414 -2.5 39.625 C-2.036 39.7 -1.572 39.775 -1.094 39.852 C-0.733 39.901 -0.372 39.95 0 40 C0 38.35 0 36.7 0 35 C-0.66 35 -1.32 35 -2 35 C-2.655 33.316 -3.165 31.737 -3.625 30 C-3.759 29.523 -3.893 29.046 -4.031 28.555 C-4.362 27.372 -4.682 26.186 -5 25 C-4.041 25.311 -3.083 25.624 -2.125 25.938 C-1.858 26.025 -1.858 26.025 -0.508 26.465 C1 27 1 27 3 28 C2.505 23.38 2.505 23.38 0 0 Z " fill="#CA946E" transform="translate(54,68)"/>
<path d="M0 0 C0.66 0 1.32 0 2 0 C2.676 0.918 2.676 0.918 3.312 2.188 C4.732 4.71 6.384 6.479 8.461 8.473 C10.484 10.481 12.403 12.572 14.312 14.688 C14.493 14.884 14.493 14.884 15.409 15.878 C15.744 16.252 16.08 16.626 16.426 17.012 C16.729 17.346 17.032 17.681 17.345 18.026 C18 19 18 19 18 21 C19.231 19.94 20.46 18.878 21.688 17.812 C22.053 17.495 22.419 17.178 22.796 16.851 C25.261 14.695 27.585 12.461 29.797 10.043 C31.379 8.672 33.109 7.878 35 7 C34.434 14.679 33.812 22.343 33 30 C33.748 29.795 34.495 29.59 35.266 29.379 C36.26 29.107 37.255 28.835 38.25 28.562 C38.741 28.428 39.232 28.293 39.738 28.154 C42.485 27.404 45.234 26.678 48 26 C47.716 26.961 47.422 27.918 47.125 28.875 C46.963 29.409 46.8 29.942 46.633 30.492 C45.959 32.099 45.227 32.797 44 34 C43.324 35.375 43.324 35.375 42.688 37 C41.208 40.611 39.498 44.068 37.714 47.535 C36.633 49.654 35.668 51.714 35 54 C36.65 54 38.3 54 40 54 C40 54.33 40 54.66 40 55 C26.14 55 12.28 55 -2 55 C-2 54.67 -2 54.34 -2 54 C-1.178 54.012 -0.356 54.023 0.491 54.035 C3.557 54.068 6.622 54.048 9.688 54.012 C11.012 54.004 12.336 54.01 13.66 54.031 C24.369 54.184 24.369 54.184 27.065 52.227 C28.975 50.105 29.929 47.605 31 45 C31.862 43.747 32.754 42.513 33.688 41.312 C35.832 38.497 36.585 36.537 38 33 C34.37 34.65 30.74 36.3 27 38 C27.521 31.969 28.041 25.98 29 20 C28.34 20 27.68 20 27 20 C26.552 20.895 26.11 21.794 25.691 22.703 C24.799 24.377 23.763 25.858 22.625 27.375 C22.225 27.919 21.826 28.463 21.414 29.023 C21.181 29.185 21.181 29.185 20 30 C16.513 29.102 15.136 27.092 13.307 24.109 C13.02 23.62 12.733 23.13 12.438 22.625 C11.854 21.658 11.27 20.692 10.684 19.727 C10.405 19.265 10.126 18.804 9.839 18.329 C8.662 16.465 7.355 14.738 6 13 C6.061 13.534 6.121 14.067 6.184 14.617 C6.411 16.637 6.634 18.658 6.854 20.678 C6.95 21.545 7.047 22.412 7.146 23.279 C7.78 28.866 8.142 34.368 8 40 C2.25 38.125 2.25 38.125 0 37 C0.217 37.471 0.433 37.941 0.656 38.426 C0.935 39.048 1.213 39.671 1.5 40.312 C1.778 40.927 2.057 41.542 2.344 42.176 C2.979 43.941 3.137 45.147 3 47 C3.66 47 4.32 47 5 47 C5.414 48.094 5.414 48.094 5.625 49.5 C5.662 49.732 5.662 49.732 5.852 50.906 C5.901 51.267 5.95 51.628 6 52 C4.187 52.188 4.187 52.188 2 52 C-0.394 49.989 -1.695 47.943 -3.008 45.129 C-3.355 44.39 -3.701 43.65 -4.059 42.889 C-4.234 42.506 -4.409 42.124 -4.589 41.73 C-5.124 40.566 -5.668 39.407 -6.215 38.248 C-7.796 34.846 -9.179 31.673 -10 28 C-8.937 28.144 -7.875 28.29 -6.812 28.438 C-6.221 28.519 -5.629 28.6 -5.02 28.684 C-2.662 29.053 -0.337 29.52 2 30 C1.939 29.447 1.879 28.893 1.816 28.323 C1.589 26.217 1.366 24.111 1.146 22.004 C1.05 21.103 0.953 20.201 0.854 19.299 C0.147 12.841 -0.126 6.496 0 0 Z " fill="#7B4A26" transform="translate(49,56)"/>
<path d="M0 0 C1 2 1 2 0.674 3.122 C0.568 3.327 0.568 3.327 0.031 4.363 C-0.207 4.832 -0.445 5.301 -0.691 5.784 C-0.958 6.289 -1.225 6.793 -1.5 7.312 C-1.768 7.834 -2.037 8.355 -2.313 8.892 C-3.198 10.6 -4.097 12.301 -5 14 C-5.322 14.606 -5.644 15.211 -5.976 15.835 C-7.965 19.567 -9.974 23.288 -12 27 C-9.479 28.26 -8.146 27.919 -5.375 27.562 C-4.558 27.461 -3.74 27.359 -2.898 27.254 C-2.585 27.212 -2.585 27.212 -1 27 C-1.431 28.761 -1.715 29.765 -3.136 30.936 C-3.601 31.194 -4.067 31.452 -4.547 31.719 C-4.805 31.865 -4.805 31.865 -6.109 32.605 C-6.651 32.901 -7.192 33.196 -7.75 33.5 C-8.807 34.094 -9.865 34.687 -10.922 35.281 C-11.439 35.567 -11.957 35.854 -12.49 36.148 C-13.916 36.953 -15.31 37.796 -16.703 38.656 C-20.977 41.217 -20.977 41.217 -23.605 40.66 C-24.128 40.463 -24.65 40.266 -25.188 40.062 C-25.717 39.868 -26.247 39.673 -26.793 39.473 C-26.992 39.395 -26.992 39.395 -28 39 C-27.49 34.917 -26.012 31.761 -24.109 28.129 C-23.361 26.693 -22.643 25.242 -21.953 23.777 C-21.618 23.067 -21.283 22.357 -20.938 21.625 C-20.637 20.978 -20.337 20.331 -20.027 19.664 C-18.899 17.836 -17.856 17.041 -16 16 C-15.67 16.99 -15.34 17.98 -15 19 C-14.01 18.34 -13.02 17.68 -12 17 C-12.375 18.938 -12.375 18.938 -13 21 C-13.66 21.33 -14.32 21.66 -15 22 C-14.67 22.99 -14.34 23.98 -14 25 C-10.326 20.147 -9.497 16.152 -9.416 10.177 C-9.335 7.475 -9.25 6.33 -7.566 4.105 C-7.049 3.741 -6.533 3.376 -6 3 C-5.505 3.186 -5.01 3.371 -4.5 3.562 C-4.005 3.707 -3.51 3.851 -3 4 C-1.727 2.791 -0.953 1.498 0 0 Z " fill="#9D785D" transform="translate(112,71)"/>
<path d="M0 0 C0.33 0 0.66 0 1 0 C1.33 6.6 1.66 13.2 2 20 C-1.63 19.67 -5.26 19.34 -9 19 C-8.505 20.093 -8.01 21.186 -7.5 22.312 C-5.589 26.533 -5.589 26.533 -6 29 C-8 29.688 -8 29.688 -10 30 C-10 29.34 -10 28.68 -10 28 C-10.66 27.856 -11.32 27.711 -12 27.562 C-12.66 27.377 -13.32 27.191 -14 27 C-14.246 24.894 -13.869 22.889 -13.5 20.812 C-13.407 20.283 -13.314 19.753 -13.219 19.207 C-13.147 18.809 -13.074 18.41 -13 18 C-14.65 17.67 -16.3 17.34 -18 17 C-17.34 15.02 -16.68 13.04 -16 11 C-16.66 11 -17.32 11 -18 11 C-18.33 11.66 -18.66 12.32 -19 13 C-19.33 12.01 -19.66 11.02 -20 10 C-19.34 10 -18.68 10 -18 10 C-18.66 8.68 -19.32 7.36 -20 6 C-19.763 6.031 -19.763 6.031 -18.562 6.188 C-18.047 6.126 -17.531 6.064 -17 6 C-16.312 4.5 -16.312 4.5 -16 3 C-15.01 3.165 -15.01 3.165 -10 4 C-10 4.66 -10 5.32 -10 6 C-9.34 6 -8.68 6 -8 6 C-8 5.01 -8 4.02 -8 3 C-7.34 3 -6.68 3 -6 3 C-6 3.66 -6 4.32 -6 5 C-5.361 4.814 -4.721 4.629 -4.062 4.438 C-3.382 4.293 -2.701 4.149 -2 4 C-1.67 4.33 -1.34 4.66 -1 5 C-0.97 4.82 -0.97 4.82 -0.816 3.906 C-0.733 3.442 -0.649 2.978 -0.562 2.5 C-0.481 2.036 -0.4 1.572 -0.316 1.094 C-0.212 0.733 -0.108 0.372 0 0 Z " fill="#A7734F" transform="translate(49,66)"/>
<path d="M0 0 C0.66 0 1.32 0 2 0 C2 0.99 2 1.98 2 3 C3.65 2.34 5.3 1.68 7 1 C6.67 2.98 6.34 4.96 6 7 C6.66 7 7.32 7 8 7 C8.625 5 8.625 5 9 3 C9.196 3.957 9.381 4.915 9.562 5.875 C9.667 6.409 9.771 6.942 9.879 7.492 C10 9 10 9 9 11 C8.34 11 7.68 11 7 11 C6.67 14.3 6.34 17.6 6 21 C6.804 21.082 7.609 21.165 8.438 21.25 C9.816 21.52 9.816 21.52 11 22 C11.875 23.938 11.875 23.938 12 26 C11.67 26.66 11.34 27.32 11 28 C11.66 28 12.32 28 13 28 C13 28.66 13 29.32 13 30 C11 30.625 11 30.625 9 31 C9.33 29.35 9.66 27.7 10 26 C9.8 26.097 9.8 26.097 8.785 26.586 C3.928 28.811 -0.779 29.994 -6 31 C-6.274 26.41 -5.715 22.242 -4.711 17.78 C-3.981 14.368 -3.892 11.182 -4.125 7.691 C-3.969 5.585 -3.387 4.575 -2 3 C-1.34 3 -0.68 3 0 3 C0 2.01 0 1.02 0 0 Z " fill="#A8744F" transform="translate(87,56)"/>
<path d="M0 0 C0.66 0 1.32 0 2 0 C2.502 1.465 2.502 1.465 2.852 3.508 C2.98 4.248 3.109 4.988 3.242 5.75 C3.369 6.534 3.495 7.318 3.625 8.125 C3.759 8.886 3.893 9.646 4.031 10.43 C5.509 19.174 5.509 19.174 5 23 C4.67 23.33 4.34 23.66 4 24 C2.499 23.942 0.999 23.854 -0.5 23.75 C-2.969 23.707 -2.969 23.707 -5 24 C-5.973 25.339 -6 26.171 -6 27.809 C-6 28.202 -6 28.595 -6 29 C-6.33 29.33 -6.66 29.66 -7 30 C-7.062 31.562 -7.062 31.562 -7 33 C-6.34 33 -5.68 33 -5 33 C-5.33 34.98 -5.66 36.96 -6 39 C-4.68 39.33 -3.36 39.66 -2 40 C-2.048 40.211 -2.048 40.211 -2.289 41.277 C-2.344 41.551 -2.344 41.551 -2.625 42.938 C-2.741 43.483 -2.857 44.028 -2.977 44.59 C-2.984 45.055 -2.992 45.521 -3 46 C-2.34 46.33 -1.68 46.66 -1 47 C-1.99 47.66 -2.98 48.32 -4 49 C-4.254 48.529 -4.508 48.059 -4.77 47.574 C-6.591 44.279 -8.263 41.612 -11 39 C-11.702 37.685 -12.365 36.349 -13 35 C-13.788 33.705 -14.594 32.423 -15.414 31.148 C-16 30 -16 30 -16 28 C-16.66 28 -17.32 28 -18 28 C-18.36 27.009 -18.69 26.007 -19 25 C-19.351 24.67 -19.701 24.34 -20.062 24 C-21 23 -21 23 -21.059 21.438 C-21.039 20.963 -21.02 20.489 -21 20 C-20.673 20.03 -20.673 20.03 -19.016 20.184 C-12.013 20.828 -5.008 21.423 2 22 C1.34 14.74 0.68 7.48 0 0 Z " fill="#C19F85" transform="translate(38,44)"/>
<path d="M0 0 C0.722 0.309 1.444 0.619 2.188 0.938 C4.096 1.746 5.507 2.024 7.562 2.062 C8.797 2.258 8.797 2.258 10 3 C11.99 6.295 14 10.098 14 14 C18.433 15.283 18.433 15.283 21 14 C21 14.99 21 15.98 21 17 C20.362 16.977 19.724 16.954 19.066 16.93 C18.232 16.911 17.397 16.893 16.562 16.875 C15.739 16.852 14.915 16.829 14.066 16.805 C13.725 16.837 13.725 16.837 12 17 C11.67 17.66 11.34 18.32 11 19 C8.622 19.35 6.978 19.535 4.844 18.368 C3.702 17.499 2.632 16.583 1.562 15.625 C-1.755 12.834 -4.649 10.836 -9 10 C-8.67 9.01 -8.34 8.02 -8 7 C-8.66 7 -9.32 7 -10 7 C-9.688 5.5 -9.688 5.5 -9 4 C-6.592 3.765 -4.201 4.187 -1.812 4.5 C-1.097 4.593 -0.382 4.686 0.355 4.781 C0.898 4.853 1.441 4.926 2 5 C1.34 3.35 0.68 1.7 0 0 Z " fill="#A97551" transform="translate(35,93)"/>
<path d="M0 0 C1.654 1.451 2.295 2.47 2.746 4.617 C2.86 5.136 2.973 5.655 3.09 6.189 C3.205 6.746 3.319 7.302 3.438 7.875 C3.694 9.05 3.952 10.224 4.211 11.398 C4.276 11.697 4.276 11.697 4.604 13.21 C5.217 15.983 5.882 18.743 6.562 21.5 C6.62 21.74 6.62 21.74 6.91 22.953 C7.688 26.1 8.631 29.055 10 32 C11.625 32.312 11.625 32.312 13 32 C13 32.66 13 33.32 13 34 C11.13 35.122 9.145 35.659 7 36 C4.688 35.312 4.688 35.312 3 34 C2.312 32.438 2.312 32.438 2 31 C1.67 30.67 1.34 30.34 1 30 C0.867 28.844 0.867 28.844 0.875 27.5 C0.872 27.057 0.87 26.613 0.867 26.156 C1 25 1 25 2 24 C1.835 23.856 1.835 23.856 1 23.125 C0 22 0 22 0 20 C-0.66 20 -1.32 20 -2 20 C-2.414 18.906 -2.414 18.906 -2.625 17.5 C-2.7 17.036 -2.775 16.572 -2.852 16.094 C-2.901 15.733 -2.95 15.372 -3 15 C-3.121 15.41 -3.242 15.82 -3.367 16.242 C-3.535 16.781 -3.702 17.32 -3.875 17.875 C-4.037 18.409 -4.2 18.942 -4.367 19.492 C-5.043 21.104 -5.638 21.919 -7 23 C-9.125 23.625 -9.125 23.625 -11 24 C-10.314 20.915 -9.325 18.132 -8.062 15.25 C-7.978 15.044 -7.978 15.044 -7.549 14.004 C-7.035 12.828 -7.035 12.828 -6 11 C-5.34 11 -4.68 11 -4 11 C-3.963 10.625 -3.925 10.25 -3.887 9.863 C-3.385 5.957 -2.262 3.215 0 0 Z " fill="#B28E74" transform="translate(77,21)"/>
<path d="M0 0 C-1.593 6.596 -3.621 12.956 -6 19.312 C-6.249 19.982 -6.498 20.651 -6.754 21.34 C-8.281 25.355 -9.993 29.202 -12 33 C-12.559 31.629 -12.559 31.629 -13 30 C-12.691 29.319 -12.381 28.639 -12.062 27.938 C-10.885 25.29 -10.702 22.675 -10.625 19.812 C-10.599 19.372 -10.574 18.932 -10.547 18.478 C-10.539 17.207 -10.539 17.207 -11 15 C-13.023 13.699 -13.023 13.699 -15 13 C-14.34 13 -13.68 13 -13 13 C-13.035 12.578 -13.07 12.157 -13.105 11.723 C-13.185 10.105 -13.225 8.605 -13 7 C-11.562 6.25 -11.562 6.25 -10 6 C-9.67 5.34 -9.34 4.68 -9 4 C-7.685 3.298 -6.349 2.635 -5 2 C-4.464 1.629 -3.927 1.258 -3.375 0.875 C-2 0 -2 0 0 0 Z " fill="#93725A" transform="translate(109,41)"/>
<path d="M0 0 C2.628 0.362 4.132 0.854 5.75 2.938 C7 5 7 5 7 7 C7.557 7.227 8.114 7.454 8.688 7.688 C12.188 9.205 13.993 12.924 16 16 C14.625 16.562 14.625 16.562 13 17 C12.34 16.67 11.68 16.34 11 16 C11 16.66 11 17.32 11 18 C10.34 18 9.68 18 9 18 C8.312 16.062 8.312 16.062 8 14 C8.33 13.67 8.66 13.34 9 13 C8.34 12.67 7.68 12.34 7 12 C6.795 12.794 6.59 13.588 6.379 14.406 C6.107 15.438 5.835 16.469 5.562 17.5 C5.428 18.025 5.293 18.549 5.154 19.09 C5.022 19.586 4.89 20.082 4.754 20.594 C4.633 21.055 4.513 21.515 4.389 21.99 C4.261 22.323 4.132 22.657 4 23 C3.67 23 3.34 23 3 23 C2.567 20.529 2.14 18.057 1.718 15.584 C1.574 14.745 1.429 13.906 1.282 13.068 C0.513 8.678 -0.218 4.463 0 0 Z " fill="#B89377" transform="translate(34,19)"/>
<path d="M0 0 C-0.065 1.27 -0.13 2.539 -0.195 3.809 C-0.131 4.202 -0.066 4.595 0 5 C0.66 5.33 1.32 5.66 2 6 C2.41 7.58 2.656 8.953 2.812 10.562 C2.858 11.007 2.904 11.452 2.951 11.91 C3.27 16.455 2.018 19.919 0 24 C-0.99 23.67 -1.98 23.34 -3 23 C-2.67 21.02 -2.34 19.04 -2 17 C-1.34 17 -0.68 17 0 17 C-0.375 15 -0.375 15 -1 13 C-1.66 13 -2.32 13 -3 13 C-3 11.35 -3 9.7 -3 8 C-4.32 8.33 -5.64 8.66 -7 9 C-6.959 8.526 -6.918 8.051 -6.875 7.562 C-6.916 7.047 -6.957 6.531 -7 6 C-7.66 5.67 -8.32 5.34 -9 5 C-8.526 5.082 -8.051 5.165 -7.562 5.25 C-7.047 5.168 -6.531 5.085 -6 5 C-5.438 3.062 -5.438 3.062 -5 1 C-3.004 0.002 -2.15 -0.098 0 0 Z " fill="#B78968" transform="translate(96,50)"/>
<path d="M0 0 C1.32 0.33 2.64 0.66 4 1 C3.125 4.875 3.125 4.875 2 6 C1.938 7.562 1.938 7.562 2 9 C2.66 9 3.32 9 4 9 C3.67 10.98 3.34 12.96 3 15 C4.32 15.33 5.64 15.66 7 16 C6.952 16.211 6.952 16.211 6.711 17.277 C6.656 17.551 6.656 17.551 6.375 18.938 C6.259 19.483 6.143 20.028 6.023 20.59 C6.016 21.055 6.008 21.521 6 22 C6.66 22.33 7.32 22.66 8 23 C7.01 23.66 6.02 24.32 5 25 C4.746 24.529 4.492 24.059 4.23 23.574 C1.307 18.286 1.307 18.286 -0.812 16.312 C-1.008 16.096 -1.008 16.096 -2 15 C-1.562 12.938 -1.562 12.938 -1 11 C-1.309 10.691 -1.619 10.381 -1.938 10.062 C-3 9 -3 9 -3.137 7.77 C-3.126 6.512 -3.066 5.256 -3 4 C-2.34 4 -1.68 4 -1 4 C-0.375 2 -0.375 2 0 0 Z " fill="#AF805D" transform="translate(29,68)"/>
<path d="M0 0 C0.33 0.99 0.66 1.98 1 3 C1.66 3.33 2.32 3.66 3 4 C3.562 5.961 3.562 5.961 4 8.375 C4.547 11.375 5.033 13.618 7 16 C7.33 16 7.66 16 8 16 C8 18.64 8 21.28 8 24 C7.381 23.67 6.763 23.34 6.125 23 C4 22 4 22 2 22 C2 21.34 2 20.68 2 20 C1.34 20 0.68 20 0 20 C0 20.99 0 21.98 0 23 C-0.66 23 -1.32 23 -2 23 C-2 22.34 -2 21.68 -2 21 C-3.98 20.67 -5.96 20.34 -8 20 C-8 19.67 -8 19.34 -8 19 C-5.03 18.67 -2.06 18.34 1 18 C0.67 12.06 0.34 6.12 0 0 Z " fill="#B07E5D" transform="translate(41,49)"/>
<path d="M0 0 C-0.111 2.084 -0.241 4.167 -0.375 6.25 C-0.39 6.543 -0.39 6.543 -0.469 8.027 C-0.704 11.515 -1.175 14.003 -3 17 C-3.33 15.68 -3.66 14.36 -4 13 C-4.66 14.32 -5.32 15.64 -6 17 C-6.169 16.042 -6.335 15.084 -6.5 14.125 C-6.593 13.591 -6.686 13.058 -6.781 12.508 C-7 11 -7 11 -7 9 C-8.65 9.66 -10.3 10.32 -12 11 C-3.117 0 -3.117 0 0 0 Z " fill="#824E2A" transform="translate(84,63)"/>
<path d="M0 0 C2 0.812 2 0.812 4 2 C4 3 4 4 4 5 C5.324 5.685 6.659 6.349 8 7 C10.354 9.283 11.427 11.791 12 15 C10.562 15.125 10.562 15.125 9 15 C8.67 14.34 8.34 13.68 8 13 C7.01 13.99 6.02 14.98 5 16 C5 15.34 5 14.68 5 14 C4.01 14 3.02 14 2 14 C2.33 13.01 2.66 12.02 3 11 C1.68 10.34 0.36 9.68 -1 9 C1.875 7 1.875 7 3 7 C3 6.34 3 5.68 3 5 C2.01 5 1.02 5 0 5 C0 3.35 0 1.7 0 0 Z " fill="#B99073" transform="translate(50,35)"/>
<path d="M0 0 C0.66 0 1.32 0 2 0 C2.502 1.465 2.502 1.465 2.852 3.508 C2.98 4.248 3.109 4.988 3.242 5.75 C3.369 6.534 3.495 7.318 3.625 8.125 C3.759 8.886 3.893 9.646 4.031 10.43 C5.509 19.174 5.509 19.174 5 23 C3.317 24.683 0.903 24.426 -1.375 24.625 C-1.87 24.677 -2.365 24.728 -2.875 24.781 C-7.82 25.231 -7.82 25.231 -10 24 C-10 23.34 -10 22.68 -10 22 C-6.04 22 -2.08 22 2 22 C1.34 14.74 0.68 7.48 0 0 Z " fill="#D1B39D" transform="translate(38,44)"/>
<path d="M0 0 C0.66 0.33 1.32 0.66 2 1 C2.533 3.165 2.886 5.292 3.211 7.494 C3.438 8.848 3.438 8.848 4 11 C4.66 11 5.32 11 6 11 C6.414 12.094 6.414 12.094 6.625 13.5 C6.7 13.964 6.775 14.428 6.852 14.906 C6.876 15.087 6.876 15.087 7 16 C4.625 16.246 3.407 16.293 1.438 14.875 C-0.412 12.462 -2.06 9.91 -3 7 C-2.67 6.34 -2.34 5.68 -2 5 C-1.34 5.33 -0.68 5.66 0 6 C0 4.02 0 2.04 0 0 Z " fill="#83512C" transform="translate(48,92)"/>
<path d="M0 0 C-0.28 1.169 -0.575 2.336 -0.875 3.5 C-1.037 4.15 -1.2 4.799 -1.367 5.469 C-1.576 5.974 -1.785 6.479 -2 7 C-2.66 7 -3.32 7 -4 7 C-4.852 8.75 -4.852 8.75 -5.625 11 C-5.885 11.742 -6.146 12.485 -6.414 13.25 C-6.607 13.828 -6.801 14.405 -7 15 C-7.66 14.67 -8.32 14.34 -9 14 C-8.625 11.562 -8.625 11.562 -8.289 10.254 C-8 9 -8 9 -8 7 C-8.454 7.516 -8.907 8.031 -9.375 8.562 C-9.911 9.037 -10.448 9.511 -11 10 C-11.66 9.67 -12.32 9.34 -13 9 C-12.625 7.5 -12.625 7.5 -12 6 C-11.34 6 -10.68 6 -10 6 C-9.67 5.34 -9.34 4.68 -9 4 C-7.685 3.298 -6.349 2.635 -5 2 C-4.464 1.629 -3.927 1.258 -3.375 0.875 C-2 0 -2 0 0 0 Z " fill="#C3A794" transform="translate(109,41)"/>
<path d="M0 0 C0.66 0 1.32 0 2 0 C2 0.66 2 1.32 2 2 C3.65 2 5.3 2 7 2 C6.766 3.482 6.766 3.482 6 5 C4.142 5.341 4.142 5.341 1.746 5.293 C1.536 5.291 1.536 5.291 0.472 5.28 C-0.873 5.263 -2.217 5.226 -3.562 5.188 C-4.473 5.172 -5.384 5.159 -6.295 5.146 C-8.53 5.113 -10.765 5.062 -13 5 C-13 3.68 -13 2.36 -13 1 C-12.34 1 -11.68 1 -11 1 C-11 1.66 -11 2.32 -11 3 C-10.794 2.907 -10.794 2.907 -9.75 2.438 C-7.549 1.887 -6.139 2.336 -4 3 C-4 2.34 -4 1.68 -4 1 C-3.01 1.33 -2.02 1.66 -1 2 C-0.67 1.34 -0.34 0.68 0 0 Z " fill="#DBAB86" transform="translate(69,105)"/>
<path d="M0 0 C0.371 0.082 0.371 0.082 2.25 0.5 C6.085 1.256 9.227 1.078 13 0 C12.34 1.65 11.68 3.3 11 5 C11.99 5 12.98 5 14 5 C14 6.32 14 7.64 14 9 C10.184 8.762 7.768 7.338 4.75 5.062 C4.397 4.797 4.044 4.532 3.68 4.259 C1.951 2.91 0.996 1.991 0 0 Z " fill="#B8967D" transform="translate(31,103)"/>
<path d="M0 0 C1.938 0.25 1.938 0.25 4 1 C4.812 2.938 4.812 2.938 5 5 C4.67 5.66 4.34 6.32 4 7 C2.59 7.195 2.59 7.195 0.938 7.125 C0.39 7.107 -0.158 7.089 -0.723 7.07 C-1.144 7.047 -1.566 7.024 -2 7 C-2 7.66 -2 8.32 -2 9 C-3.532 10.052 -5.182 10.636 -7 11 C-8.375 10.25 -8.375 10.25 -9 9 C-8.67 8.34 -8.34 7.68 -8 7 C-8.66 7 -9.32 7 -10 7 C-9.688 5.5 -9.688 5.5 -9 4 C-6.592 3.765 -4.201 4.187 -1.812 4.5 C-1.097 4.593 -0.382 4.686 0.355 4.781 C0.898 4.853 1.441 4.926 2 5 C1.34 3.35 0.68 1.7 0 0 Z " fill="#D2BEAE" transform="translate(35,93)"/>
<path d="M0 0 C2.062 -0.312 2.062 -0.312 4 0 C3.67 0.99 3.34 1.98 3 3 C3 2.34 3 1.68 3 1 C2.34 1 1.68 1 1 1 C0.946 1.979 0.907 2.958 0.875 3.938 C0.863 4.21 0.863 4.21 0.805 5.59 C0.869 6.055 0.934 6.521 1 7 C1.66 7.33 2.32 7.66 3 8 C0.974 10.378 0.974 10.378 -1 11 C-4.152 10.349 -7.035 9.236 -10 8 C-9.505 7.876 -9.01 7.752 -8.5 7.625 C-8.253 7.522 -8.253 7.522 -7 7 C-7 6.34 -7 5.68 -7 5 C-6.578 5.058 -6.157 5.116 -5.723 5.176 C-4.035 5.315 -2.651 5.395 -1 5 C-0.43 3.679 -0.378 2.543 -0.277 1.113 C-0.186 0.746 -0.094 0.379 0 0 Z " fill="#B18462" transform="translate(40,95)"/>
<path d="M0 0 C1.905 2.721 3.647 5.413 4.375 8.688 C4.251 9.121 4.127 9.554 4 10 C2 10.688 2 10.688 0 11 C0 10.34 0 9.68 0 9 C-0.66 8.856 -1.32 8.711 -2 8.562 C-2.66 8.377 -3.32 8.191 -4 8 C-4.561 5.644 -3.633 3.296 -3 1 C-2.34 1.33 -1.68 1.66 -1 2 C-0.67 1.34 -0.34 0.68 0 0 Z " fill="#AB7C59" transform="translate(39,85)"/>
<path d="M0 0 C1.32 0.66 2.64 1.32 4 2 C3.67 2.289 3.34 2.578 3 2.875 C2 4 2 4 2 6 C2.66 6 3.32 6 4 6 C4 5.34 4 4.68 4 4 C4.66 4.33 5.32 4.66 6 5 C4.688 6.562 4.688 6.562 3 8 C1.312 7.688 1.312 7.688 0 7 C-0.562 8.938 -0.562 8.938 -1 11 C-0.67 11.33 -0.34 11.66 0 12 C0.362 13.326 0.697 14.659 1 16 C0.34 16 -0.32 16 -1 16 C-1 15.01 -1 14.02 -1 13 C-1.66 13 -2.32 13 -3 13 C-2.885 11.582 -2.757 10.166 -2.625 8.75 C-2.555 7.961 -2.486 7.172 -2.414 6.359 C-1.968 3.816 -1.256 2.225 0 0 Z " fill="#AF7E5B" transform="translate(41,31)"/>
<path d="M0 0 C-0.375 1.5 -0.375 1.5 -1 3 C-1.66 3 -2.32 3 -3 3 C-3.217 3.258 -3.217 3.258 -4.312 4.562 C-4.869 5.037 -5.426 5.511 -6 6 C-8.375 5.688 -8.375 5.688 -9.66 5.328 C-11.788 4.807 -13.819 4.938 -16 5 C-16 4.01 -16 3.02 -16 2 C-15.782 1.97 -15.782 1.97 -14.68 1.816 C-11.227 1.331 -7.789 0.81 -4.359 0.184 C-2.892 -0.015 -1.479 -0.03 0 0 Z " fill="#D3BBAB" transform="translate(114,70)"/>
<path d="M0 0 C1.812 0.188 1.812 0.188 4 1 C5.231 2.556 6.133 4.22 7 6 C6.01 6.33 5.02 6.66 4 7 C4 6.34 4 5.68 4 5 C3.34 5 2.68 5 2 5 C2 6.32 2 7.64 2 9 C2.99 9 3.98 9 5 9 C5 9.66 5 10.32 5 11 C4.34 11 3.68 11 3 11 C3 13.31 3 15.62 3 18 C2.67 18 2.34 18 2 18 C1.66 15.939 1.329 13.876 1 11.812 C0.905 11.234 0.809 10.656 0.711 10.061 C0.173 6.659 -0.104 3.444 0 0 Z " fill="#D2BBAB" transform="translate(34,19)"/>
<path d="M0 0 C0.673 0.787 1.338 1.58 2 2.375 C2.371 2.816 2.743 3.257 3.125 3.711 C4 5 4 5 4 7 C2.781 8.187 1.409 9.032 0 10 C0 9.34 0 8.68 0 8 C-0.66 8 -1.32 8 -2 8 C-2.33 8.66 -2.66 9.32 -3 10 C-3.75 8.375 -3.75 8.375 -4 6 C-2.884 3.832 -1.494 1.923 0 0 Z " fill="#A6724C" transform="translate(90,96)"/>
<path d="M0 0 C0.459 0.144 0.918 0.289 1.391 0.438 C6.591 2.011 6.591 2.011 9.375 1.938 C9.643 1.948 9.643 1.948 11 2 C11.602 3.504 11.602 3.504 12 5 C11.362 4.977 10.724 4.954 10.066 4.93 C9.232 4.911 8.397 4.893 7.562 4.875 C7.151 4.863 7.151 4.863 5.066 4.805 C4.384 4.869 3.703 4.934 3 5 C2.67 5.66 2.34 6.32 2 7 C0.938 6.125 0.938 6.125 0 5 C0.33 4.34 0.66 3.68 1 3 C0.01 2.67 -0.98 2.34 -2 2 C-1.34 2 -0.68 2 0 2 C0 1.34 0 0.68 0 0 Z " fill="#A27A5B" transform="translate(44,105)"/>
<path d="M0 0 C0.66 0 1.32 0 2 0 C2.219 8.65 2.219 8.65 1 11 C-0.939 11.945 -2.903 12.513 -5 13 C-4.314 9.915 -3.325 7.132 -2.062 4.25 C-1.978 4.044 -1.978 4.044 -1.549 3.004 C-1.035 1.828 -1.035 1.828 0 0 Z " fill="#C4A389" transform="translate(71,32)"/>
<path d="M0 0 C0.536 0.165 1.073 0.33 1.625 0.5 C4.464 1.098 7.113 1.087 10 1 C1.65 8 1.65 8 -2 8 C-2 7.34 -2 6.68 -2 6 C-1.34 5.67 -0.68 5.34 0 5 C0.195 3.809 0.195 3.809 0.125 2.438 C0.104 2.035 0.104 2.035 0 0 Z " fill="#CBAD94" transform="translate(98,98)"/>
<path d="M0 0 C1.485 0.33 1.485 0.33 9 2 C8.837 2.765 8.837 2.765 8.023 6.59 C8.016 7.055 8.008 7.521 8 8 C8.66 8.33 9.32 8.66 10 9 C9.01 9.66 8.02 10.32 7 11 C6.746 10.529 6.492 10.059 6.23 9.574 C4.416 6.292 2.789 3.51 0 1 C0 0.67 0 0.34 0 0 Z " fill="#CAAC95" transform="translate(27,82)"/>
<path d="M0 0 C1.468 0.619 1.468 0.619 3 2 C3.505 4.017 3.489 6.03 3.512 8.102 C3.53 8.698 3.548 9.294 3.566 9.909 C3.62 11.814 3.654 13.719 3.688 15.625 C3.721 16.917 3.755 18.208 3.791 19.5 C3.876 22.666 3.943 25.833 4 29 C3.34 28.67 2.68 28.34 2 28 C1.697 26.608 1.697 26.608 1.621 24.824 C1.587 24.166 1.554 23.508 1.519 22.83 C1.492 22.123 1.465 21.416 1.438 20.688 C1.366 19.233 1.293 17.779 1.219 16.324 C1.184 15.598 1.149 14.871 1.113 14.123 C0.951 11.076 0.704 8.039 0.438 5 C0.394 4.49 0.35 3.981 0.304 3.456 C0.205 2.304 0.103 1.152 0 0 Z " fill="#B67F5B" transform="translate(54,68)"/>
<path d="M0 0 C2 1 2 1 2 1 Z " fill="#F5F7F9" transform="translate(101,110)"/>
<path d="" fill="#F9F4F0" transform="translate(0,0)"/>
<path d="" fill="#FAF6F3" transform="translate(0,0)"/>
<path d="" fill="#FBF7F6" transform="translate(0,0)"/>
<path d="" fill="#F5F5F5" transform="translate(0,0)"/>
<path d="" fill="#F3F7FA" transform="translate(0,0)"/>
<path d="" fill="#F9F5F2" transform="translate(0,0)"/>
<path d="" fill="#F4F5F7" transform="translate(0,0)"/>
<path d="" fill="#F7F7F7" transform="translate(0,0)"/>
<path d="" fill="#F8F8F8" transform="translate(0,0)"/>
<path d="" fill="#F7F7F7" transform="translate(0,0)"/>
<path d="" fill="#FDFBEF" transform="translate(0,0)"/>
<path d="" fill="#F3F8FB" transform="translate(0,0)"/>
<path d="" fill="#F4F4F4" transform="translate(0,0)"/>
<path d="" fill="#F9FAF5" transform="translate(0,0)"/>
<path d="" fill="#FBF7F6" transform="translate(0,0)"/>
<path d="" fill="#FAF9F5" transform="translate(0,0)"/>
<path d="" fill="#F4F8F9" transform="translate(0,0)"/>
<path d="" fill="#F9F8F6" transform="translate(0,0)"/>
<path d="" fill="#F9FAF5" transform="translate(0,0)"/>
<path d="" fill="#FBF7F6" transform="translate(0,0)"/>
<path d="" fill="#F8F8F6" transform="translate(0,0)"/>
<path d="" fill="#FBF7F4" transform="translate(0,0)"/>
<path d="" fill="#F8F9F4" transform="translate(0,0)"/>
<path d="" fill="#F4F8FB" transform="translate(0,0)"/>
</svg>
