<?xml version="1.0" encoding="UTF-8"?>
<!-- Generator: visioncortex VTracer 0.6.12 -->
<svg version="1.1" xmlns="http://www.w3.org/2000/svg" width="128" height="128">
<path d="M0 0 C3.353 -0.764 6.71 -0.603 10.125 -0.523 C11.152 -0.517 12.18 -0.512 13.208 -0.509 C15.363 -0.498 17.518 -0.472 19.674 -0.432 C22.442 -0.381 25.209 -0.356 27.977 -0.341 C30.61 -0.326 33.242 -0.301 35.875 -0.273 C36.38 -0.269 36.885 -0.264 37.406 -0.259 C38.831 -0.242 40.255 -0.219 41.68 -0.193 C42.492 -0.18 43.304 -0.167 44.14 -0.154 C46 0 46 0 47 1 C47.446 4.132 47.682 7.45 46.387 10.395 C45.356 11.752 44.26 12.849 43 14 C42.697 14.278 42.697 14.278 41.164 15.684 C38.12 18.418 34.974 21.027 31.812 23.625 C28.396 26.448 25.33 29.572 22.312 32.812 C21 34 21 34 19 34 C19 34.66 19 35.32 19 36 C19.766 35.836 20.531 35.673 21.32 35.504 C26.135 34.701 31.01 34.894 35.875 34.938 C36.859 34.943 37.844 34.947 38.828 34.951 C41.219 34.962 43.609 34.979 46 35 C45.881 34.518 45.763 34.036 45.641 33.539 C45.512 32.907 45.383 32.276 45.25 31.625 C45.111 30.999 44.972 30.372 44.828 29.727 C44.885 29.157 44.942 28.587 45 28 C48.214 25.538 51.74 25.649 55.664 25.594 C56.297 25.582 56.931 25.571 57.583 25.559 C58.916 25.54 60.249 25.527 61.582 25.52 C63.627 25.5 65.667 25.438 67.711 25.375 C69.008 25.362 70.305 25.351 71.602 25.344 C72.213 25.319 72.825 25.294 73.454 25.269 C75.169 25.287 76.419 25.332 78 26 C79.705 28.617 80.152 31.541 80 34.625 C79.223 37.455 77.241 38.34 74.824 39.762 C71.097 42.292 68.108 45.761 65 49 C63.563 50.489 62.066 51.784 60.438 53.062 C59.234 54.009 58.083 54.917 57 56 C57.661 55.994 58.322 55.987 59.004 55.981 C61.452 55.966 63.897 55.998 66.344 56.043 C67.405 56.056 68.465 56.057 69.525 56.045 C72.805 56.012 75.847 56.036 79 57 C80.223 58.817 80.364 60.038 80.463 62.209 C79.811 64.731 79.179 65.531 77 67 C74.538 67.483 72.098 67.513 69.594 67.547 C69.233 67.557 69.233 67.557 67.409 67.608 C65.886 67.649 64.363 67.682 62.839 67.708 C60.508 67.75 58.178 67.812 55.848 67.879 C54.367 67.915 52.887 67.951 51.406 67.984 C50.709 68.002 50.012 68.02 49.294 68.038 C48.644 68.048 47.993 68.059 47.322 68.069 C47.037 68.075 47.037 68.075 45.593 68.102 C43.91 67.994 42.57 67.602 41 67 C40.925 67.424 40.85 67.848 40.773 68.285 C38.605 77.956 30.474 83.313 23 89 C23.474 88.963 23.948 88.927 24.437 88.889 C26.582 88.744 28.727 88.652 30.875 88.562 C31.248 88.533 31.248 88.533 33.137 88.385 C35.295 88.317 36.953 88.301 39 89 C40.444 91.217 40.917 93.37 41 96 C40.67 96.66 40.34 97.32 40 98 C38.703 98.241 38.703 98.241 37.041 98.227 C36.73 98.227 36.73 98.227 35.16 98.227 C34.487 98.216 33.814 98.206 33.121 98.195 C32.778 98.194 32.778 98.194 31.04 98.187 C28.839 98.176 26.638 98.15 24.438 98.125 C22.949 98.115 21.46 98.106 19.971 98.098 C16.314 98.076 12.657 98.042 9 98 C8.795 97.05 8.603 96.097 8.417 95.144 C8.309 94.614 8.201 94.083 8.089 93.537 C7.986 91.763 8.291 91.111 9.328 89.699 C9.951 89.012 10.592 88.341 11.25 87.688 C11.407 87.514 11.407 87.514 12.199 86.639 C13.606 85.142 14.7 84.098 16.672 83.457 C17.11 83.306 17.548 83.155 18 83 C18.535 81.574 18.535 81.574 19 80 C20.121 78.832 20.121 78.832 21.438 77.812 C21.869 77.468 22.301 77.124 22.746 76.77 C24 76 24 76 26 76 C26 75.34 26 74.68 26 74 C20.06 73.67 14.12 73.34 8 73 C8 70.69 8 68.38 8 66 C8.832 65.975 9.665 65.95 10.523 65.924 C13.615 65.83 16.706 65.73 19.798 65.628 C21.136 65.584 22.473 65.543 23.811 65.503 C25.735 65.445 27.658 65.381 29.582 65.316 C30.179 65.3 30.776 65.283 31.391 65.266 C31.951 65.246 32.512 65.226 33.089 65.205 C33.334 65.198 33.334 65.198 34.576 65.158 C36.176 64.98 37.518 64.628 39 64 C39.025 62.854 39.025 62.854 38.711 61.406 C38.594 58.978 38.878 58.158 40.392 56.199 C42.367 54.187 44.494 52.344 46.625 50.5 C47.346 49.857 48.067 49.213 48.785 48.566 C49.843 47.616 50.902 46.667 51.968 45.724 C55.111 42.938 58.061 40.004 61 37 C56.05 36.67 51.1 36.34 46 36 C46.165 37.65 46.165 37.65 47 46 C41.771 47.105 36.767 47.046 31.445 46.879 C30.535 46.855 29.624 46.831 28.713 46.807 C26.336 46.745 23.959 46.676 21.582 46.605 C19.149 46.534 16.715 46.469 14.281 46.404 C9.521 46.276 4.76 46.14 0 46 C-0.196 44.713 -0.383 43.425 -0.565 42.136 C-0.617 41.777 -0.617 41.777 -0.883 39.962 C-1 38 -1 38 0.039 35.828 C0.301 35.568 0.301 35.568 1.625 34.25 C2.181 33.683 2.736 33.116 3.309 32.531 C5.094 30.915 6.876 29.341 8.824 27.922 C10.342 26.731 11.639 25.367 13 24 C14.263 22.864 15.53 21.739 16.812 20.625 C17.13 20.347 17.448 20.068 17.775 19.781 C20.809 17.135 23.905 14.579 27 12 C18.09 12 9.18 12 0 12 C-1.371 2.403 -1.371 2.403 0 0 Z " fill="#7C8EB2" transform="translate(25,16)"/>
<path d="M0 0 C3.353 -0.764 6.71 -0.603 10.125 -0.523 C11.152 -0.517 12.18 -0.512 13.208 -0.509 C15.363 -0.498 17.518 -0.472 19.674 -0.432 C22.442 -0.381 25.209 -0.356 27.977 -0.341 C30.61 -0.326 33.242 -0.301 35.875 -0.273 C36.38 -0.269 36.885 -0.264 37.406 -0.259 C38.831 -0.242 40.255 -0.219 41.68 -0.193 C42.492 -0.18 43.304 -0.167 44.14 -0.154 C46 0 46 0 47 1 C47.446 4.132 47.682 7.45 46.387 10.395 C45.356 11.752 44.26 12.849 43 14 C42.697 14.278 42.697 14.278 41.164 15.684 C38.12 18.418 34.974 21.027 31.812 23.625 C28.396 26.448 25.33 29.572 22.312 32.812 C21 34 21 34 19 34 C18.67 34.66 18.34 35.32 18 36 C18 34.68 18 33.36 18 32 C17.67 32.165 17.67 32.165 16 33 C15.586 34.41 15.586 34.41 15.375 36.062 C15.3 36.61 15.225 37.158 15.148 37.723 C15.099 38.144 15.05 38.566 15 39 C15.374 38.838 15.748 38.675 16.133 38.508 C18.729 37.802 21.197 37.855 23.875 37.875 C24.392 37.871 24.909 37.867 25.441 37.863 C28.749 37.872 31.814 38.071 35 39 C35 39.66 35 40.32 35 41 C34.01 41 33.02 41 32 41 C32 41.66 32 42.32 32 43 C24.639 43.708 17.397 44.147 10 44 C10 43.34 10 42.68 10 42 C7.03 42.99 4.06 43.98 1 45 C15.85 45 30.7 45 46 45 C42.335 46.832 41.45 47.248 37.69 47.135 C37.28 47.126 36.87 47.116 36.447 47.107 C35.105 47.073 33.764 47.025 32.422 46.977 C31.486 46.95 30.55 46.925 29.614 46.901 C27.161 46.834 24.708 46.755 22.256 46.674 C19.749 46.593 17.242 46.523 14.734 46.453 C9.823 46.314 4.911 46.161 0 46 C-0.196 44.713 -0.383 43.425 -0.565 42.136 C-0.617 41.777 -0.617 41.777 -0.883 39.962 C-1 38 -1 38 0.039 35.828 C0.301 35.568 0.301 35.568 1.625 34.25 C2.181 33.683 2.736 33.116 3.309 32.531 C5.094 30.915 6.876 29.341 8.824 27.922 C10.342 26.731 11.639 25.367 13 24 C14.263 22.864 15.53 21.739 16.812 20.625 C17.13 20.347 17.448 20.068 17.775 19.781 C20.809 17.135 23.905 14.579 27 12 C18.09 12 9.18 12 0 12 C-1.371 2.403 -1.371 2.403 0 0 Z " fill="#6B84B4" transform="translate(25,16)"/>
<path d="M0 0 C0.33 1.32 0.66 2.64 1 4 C0.34 4 -0.32 4 -1 4 C-0.437 5.769 0.165 7.331 1 9 C2.562 9.125 2.562 9.125 4 9 C4 8.34 4 7.68 4 7 C6.64 7.33 9.28 7.66 12 8 C11.814 7.361 11.629 6.721 11.438 6.062 C11.293 5.382 11.149 4.701 11 4 C12 3 12 3 14.317 2.886 C15.327 2.887 16.337 2.892 17.348 2.902 C17.879 2.904 18.41 2.905 18.958 2.907 C20.659 2.912 22.361 2.925 24.062 2.938 C25.214 2.943 26.366 2.947 27.518 2.951 C30.345 2.962 33.173 2.979 36 3 C36.25 4.1 36.474 5.205 36.688 6.312 C36.751 6.62 36.751 6.62 37.074 8.176 C37 10 37 10 35.98 11.696 C32.979 13.672 30.154 13.498 26.629 13.547 C25.91 13.567 25.191 13.588 24.451 13.608 C22.932 13.649 21.413 13.682 19.894 13.708 C17.574 13.75 15.255 13.812 12.936 13.879 C11.458 13.915 9.981 13.951 8.504 13.984 C8.158 13.993 8.158 13.993 6.408 14.038 C3.082 14.091 0.173 14.038 -3 13 C-3.098 13.387 -3.196 13.773 -3.297 14.172 C-4.32 17.734 -5.613 21.082 -9 23 C-9.66 22.67 -10.32 22.34 -11 22 C-10.7 21.746 -10.399 21.492 -10.09 21.23 C-7.034 18.465 -7.034 18.465 -6.875 16.312 C-8.724 14.156 -11.277 14.241 -14 14 C-14 13.34 -14 12.68 -14 12 C-12.821 11.773 -11.637 11.558 -10.444 11.418 C-8.164 11.152 -6.181 10.748 -4 10 C-3.334 8.32 -3.595 7.293 -3.914 5.531 C-4 4 -4 4 -3.148 2.719 C-2.134 1.752 -1.116 0.847 0 0 Z " fill="#7A92C0" transform="translate(68,70)"/>
<path d="M0 0 C2.064 0.497 4.001 1.277 6 2 C4.35 4.64 2.7 7.28 1 10 C1.578 9.526 1.578 9.526 4.5 7.125 C4.865 6.83 5.231 6.535 5.607 6.231 C6.443 5.53 7.223 4.765 8 4 C8 3.34 8 2.68 8 2 C9.32 2.33 10.64 2.66 12 3 C10.792 4.208 9.583 5.416 8.371 6.621 C7.519 7.478 6.676 8.343 5.848 9.223 C4.935 10.184 3.97 11.096 3 12 C2.34 12 1.68 12 1 12 C0.67 12.66 0.34 13.32 0 14 C0 12.68 0 11.36 0 10 C-0.33 10.165 -0.33 10.165 -2 11 C-2.414 12.41 -2.414 12.41 -2.625 14.062 C-2.7 14.61 -2.775 15.158 -2.852 15.723 C-2.901 16.144 -2.95 16.566 -3 17 C-2.626 16.838 -2.252 16.675 -1.867 16.508 C0.729 15.802 3.197 15.855 5.875 15.875 C6.392 15.871 6.909 15.867 7.441 15.863 C10.749 15.872 13.814 16.071 17 17 C17 17.66 17 18.32 17 19 C16.01 19 15.02 19 14 19 C14 19.66 14 20.32 14 21 C6.639 21.708 -0.603 22.147 -8 22 C-8 21.34 -8 20.68 -8 20 C-10.97 20.99 -13.94 21.98 -17 23 C-2.15 23 12.7 23 28 23 C24.335 24.832 23.45 25.248 19.69 25.135 C19.28 25.126 18.87 25.116 18.447 25.107 C17.105 25.073 15.764 25.025 14.422 24.977 C13.486 24.95 12.55 24.925 11.614 24.901 C9.161 24.834 6.708 24.755 4.256 24.674 C1.749 24.593 -0.758 24.523 -3.266 24.453 C-8.177 24.314 -13.089 24.161 -18 24 C-18.197 22.715 -18.384 21.429 -18.567 20.142 C-18.672 19.426 -18.778 18.71 -18.886 17.972 C-18.998 16.042 -18.984 15.288 -17.926 13.723 C-17.66 13.449 -17.66 13.449 -16.312 12.062 C-16.053 11.78 -16.053 11.78 -14.738 10.348 C-12.825 8.864 -11.366 8.407 -9 8 C-9 8.99 -9 9.98 -9 11 C-8.814 10.361 -8.629 9.721 -8.438 9.062 C-7.91 7.957 -7.91 7.957 -7 7 C-4.687 6.332 -2.399 6.128 0 6 C-0.042 5.825 -0.042 5.825 -0.254 4.941 C-0.356 4.486 -0.458 4.031 -0.562 3.562 C-0.667 3.11 -0.771 2.658 -0.879 2.191 C-0.919 1.798 -0.959 1.405 -1 1 C-0.67 0.67 -0.34 0.34 0 0 Z " fill="#5876AE" transform="translate(43,38)"/>
<path d="M0 0 C2.765 -0.155 5.49 -0.142 8.256 -0.078 C9.284 -0.071 10.311 -0.066 11.339 -0.063 C13.495 -0.053 15.65 -0.026 17.805 0.014 C20.573 0.065 23.34 0.09 26.108 0.105 C28.741 0.119 31.374 0.145 34.006 0.172 C34.512 0.177 35.017 0.182 35.537 0.187 C36.962 0.204 38.386 0.227 39.811 0.253 C40.623 0.266 41.435 0.279 42.271 0.292 C44.131 0.446 44.131 0.446 45.131 1.446 C45.688 4.849 45.957 8.124 44.084 11.122 C42.816 12.446 41.738 13.555 40.131 14.446 C39.471 14.116 38.811 13.786 38.131 13.446 C38.19 12.141 38.19 12.141 38.569 10.571 C39.059 8.199 39.252 6.688 38.131 4.446 C38.791 4.116 39.451 3.786 40.131 3.446 C40.131 2.786 40.131 2.126 40.131 1.446 C39.471 1.446 38.811 1.446 38.131 1.446 C37.987 1.776 37.987 1.776 37.256 3.446 C36.885 4.106 36.514 4.766 36.131 5.446 C34.069 5.571 34.069 5.571 32.131 5.446 C31.801 6.106 31.471 6.766 31.131 7.446 C30.471 7.446 29.811 7.446 29.131 7.446 C29.461 6.126 29.791 4.806 30.131 3.446 C26.831 3.116 23.531 2.786 20.131 2.446 C21.188 5.969 21.188 5.969 22.131 7.446 C24.256 7.758 24.256 7.758 26.131 7.446 C26.131 8.106 26.131 8.766 26.131 9.446 C17.881 9.446 9.631 9.446 1.131 9.446 C1.131 10.106 1.131 10.766 1.131 11.446 C-0.369 12.071 -0.369 12.071 -1.869 12.446 C-2.067 11.385 -2.252 10.322 -2.431 9.258 C-2.536 8.667 -2.64 8.075 -2.748 7.465 C-2.788 6.799 -2.827 6.133 -2.869 5.446 C-2.918 5.026 -2.967 4.606 -3.018 4.173 C-3.001 1.561 -2.637 0.629 0 0 Z " fill="#728DC3" transform="translate(26.868637084960938,15.554092407226563)"/>
<path d="M0 0 C0.5 1.562 0.5 1.562 1 4 C1.236 4.544 1.472 5.088 1.715 5.648 C2.479 7.539 2.986 8.954 3 11 C1.624 12.701 0.207 13.758 -1.617 14.957 C-2.074 15.301 -2.53 15.645 -3 16 C-3 16.66 -3 17.32 -3 18 C-4.242 18.965 -4.242 18.965 -5.875 19.938 C-8.244 21.351 -9.68 22.55 -11 25 C-11.125 27.188 -11.125 27.188 -11 29 C-13.744 28.481 -16.373 27.968 -19 27 C-19 27.66 -19 28.32 -19 29 C-20.98 28.67 -22.96 28.34 -25 28 C-24.625 26 -24.625 26 -24 24 C-23.34 24 -22.68 24 -22 24 C-22.071 23.242 -22.142 22.484 -22.215 21.703 C-22.208 19.462 -22.096 19.114 -20.566 17.297 C-19.909 16.768 -19.24 16.253 -18.562 15.75 C-17.828 15.16 -17.096 14.566 -16.367 13.969 C-15.981 13.656 -15.596 13.342 -15.198 13.02 C-13.078 11.215 -11.139 9.233 -9.188 7.25 C-8.815 6.873 -8.443 6.497 -8.059 6.108 C-7.703 5.748 -7.347 5.387 -6.98 5.016 C-6.811 4.845 -6.811 4.845 -5.955 3.979 C-5.076 3.078 -4.219 2.157 -3.363 1.234 C-2 0 -2 0 0 0 Z " fill="#647FB2" transform="translate(91,50)"/>
<path d="M0 0 C0.66 0 1.32 0 2 0 C2 1.32 2 2.64 2 4 C2.378 3.929 2.757 3.857 3.147 3.783 C8.756 2.844 14.271 2.886 19.938 2.938 C20.917 2.943 21.897 2.947 22.877 2.951 C25.251 2.961 27.626 2.981 30 3 C30.165 4.815 30.165 4.815 31 14 C15.82 13.67 0.64 13.34 -15 13 C-14.67 12.34 -14.34 11.68 -14 11 C-12.152 10.586 -12.152 10.586 -9.938 10.375 C-9.204 10.3 -8.471 10.225 -7.715 10.148 C-7.432 10.124 -7.432 10.124 -6 10 C-6 10.66 -6 11.32 -6 12 C-5.597 11.837 -5.194 11.674 -4.778 11.506 C-2.634 10.896 -0.78 10.887 1.449 10.902 C1.658 10.903 1.658 10.903 2.714 10.907 C4.039 10.912 5.363 10.925 6.688 10.938 C7.589 10.943 8.491 10.947 9.393 10.951 C11.595 10.962 13.798 10.979 16 11 C16 10.34 16 9.68 16 9 C16.99 9 17.98 9 19 9 C15.139 7.194 12.171 6.737 7.938 6.875 C7.421 6.884 6.905 6.893 6.373 6.902 C5.373 6.92 4.374 6.942 3.375 6.968 C1.583 7.01 -0.208 7.009 -2 7 C-1.859 6.02 -1.712 5.041 -1.562 4.062 C-1.481 3.517 -1.4 2.972 -1.316 2.41 C-1 1 -1 1 0 0 Z " fill="#6C87BA" transform="translate(41,48)"/>
<path d="M0 0 C6.93 0 13.86 0 21 0 C21 0.66 21 1.32 21 2 C21.41 1.954 21.82 1.907 22.242 1.859 C23.901 1.748 25.359 1.723 27 2 C28.562 3.75 28.562 3.75 29 6 C28.206 7.643 27.265 8.638 26 10 C29.351 7.21 30.402 5.306 31 1 C31.33 1 31.66 1 32 1 C32.322 3.08 32.406 4.927 32 7 C30.875 8.517 29.657 9.66 28.234 10.898 C27 12 27 12 25.875 13.812 C25 15 25 15 23.438 15.375 C22.963 15.251 22.489 15.127 22 15 C21.654 14.004 21.321 13.004 21 12 C19.438 11.312 19.438 11.312 18 11 C18.66 11 19.32 11 20 11 C20 9.68 20 8.36 20 7 C13.4 7 6.8 7 0 7 C0 4.69 0 2.38 0 0 Z " fill="#5E76A5" transform="translate(33,82)"/>
<path d="M0 0 C0.715 0.102 1.431 0.204 2.168 0.309 C2.439 0.35 2.439 0.35 3.812 0.562 C3.153 2.212 2.492 3.863 1.812 5.562 C2.472 5.562 3.133 5.562 3.812 5.562 C4.438 4.062 4.438 4.062 4.812 2.562 C6.133 2.892 7.453 3.223 8.812 3.562 C8.916 3.088 9.019 2.614 9.125 2.125 C9.812 0.562 9.812 0.562 11.375 -0.125 C11.849 -0.228 12.324 -0.331 12.812 -0.438 C12.977 0.058 12.977 0.058 13.812 2.562 C12.822 2.562 11.833 2.562 10.812 2.562 C10.896 2.72 10.896 2.72 11.32 3.516 C11.966 4.873 12.48 6.094 12.812 7.562 C11.938 9.875 11.938 9.875 10.812 11.562 C11.472 11.892 12.132 12.223 12.812 12.562 C11.822 13.223 10.833 13.883 9.812 14.562 C9.648 13.407 9.648 13.407 8.812 7.562 C8.668 7.975 8.668 7.975 7.938 10.062 C7.445 11.469 7.445 11.469 6.812 12.562 C6.153 12.562 5.492 12.562 4.812 12.562 C4.483 13.223 4.153 13.883 3.812 14.562 C3.483 14.233 3.153 13.902 2.812 13.562 C2.483 14.223 2.153 14.883 1.812 15.562 C1.153 15.562 0.492 15.562 -0.188 15.562 C-0.188 13.229 -0.188 10.896 -0.188 8.562 C-0.891 8.718 -1.595 8.874 -2.32 9.035 C-10.47 10.691 -17.949 10.492 -26.188 9.562 C-26.188 8.902 -26.188 8.242 -26.188 7.562 C-17.938 7.562 -9.688 7.562 -1.188 7.562 C-1.188 6.902 -1.188 6.242 -1.188 5.562 C-1.806 5.666 -2.425 5.769 -3.062 5.875 C-3.764 5.772 -4.465 5.669 -5.188 5.562 C-6.188 3.996 -6.703 2.349 -7.188 0.562 C-4.613 -0.534 -2.744 -0.405 0 0 Z " fill="#5976AD" transform="translate(54.1875,17.4375)"/>
<path d="M0 0 C0.33 1.32 0.66 2.64 1 4 C0.34 4 -0.32 4 -1 4 C-0.437 5.769 0.165 7.331 1 9 C3.092 9.943 5.002 10.142 7.278 10.205 C7.598 10.215 7.598 10.215 9.219 10.266 C9.903 10.282 10.588 10.299 11.293 10.316 C11.646 10.327 11.646 10.327 13.432 10.379 C15.684 10.445 17.936 10.504 20.188 10.562 C21.716 10.606 23.244 10.649 24.771 10.693 C28.514 10.8 32.257 10.902 36 11 C34.89 12.358 34.281 12.945 32.534 13.285 C31.964 13.302 31.394 13.318 30.807 13.335 C30.16 13.358 29.512 13.381 28.845 13.405 C28.495 13.412 28.495 13.412 26.727 13.449 C26.006 13.471 25.286 13.493 24.544 13.515 C23.02 13.559 21.495 13.598 19.97 13.633 C17.641 13.687 15.313 13.757 12.984 13.83 C11.503 13.871 10.021 13.91 8.539 13.949 C8.192 13.96 8.192 13.96 6.433 14.012 C3.094 14.082 0.184 14.048 -3 13 C-3.098 13.387 -3.196 13.773 -3.297 14.172 C-4.32 17.734 -5.613 21.082 -9 23 C-9.66 22.67 -10.32 22.34 -11 22 C-10.7 21.746 -10.399 21.492 -10.09 21.23 C-7.034 18.465 -7.034 18.465 -6.875 16.312 C-8.724 14.156 -11.277 14.241 -14 14 C-14 13.34 -14 12.68 -14 12 C-12.821 11.773 -11.637 11.558 -10.444 11.418 C-8.164 11.152 -6.181 10.748 -4 10 C-3.334 8.32 -3.595 7.293 -3.914 5.531 C-4 4 -4 4 -3.148 2.719 C-2.134 1.752 -1.116 0.847 0 0 Z " fill="#939EB3" transform="translate(68,70)"/>
<path d="M0 0 C3.115 -0.049 6.229 -0.086 9.344 -0.11 C10.405 -0.12 11.465 -0.134 12.525 -0.151 C14.047 -0.175 15.568 -0.186 17.09 -0.195 C17.328 -0.2 17.328 -0.2 18.532 -0.227 C19.867 -0.227 19.867 -0.227 22 0 C23.175 2.35 23.143 3.431 22.562 5.922 C22.377 6.278 22.191 6.633 22 7 C20.088 7.52 18.972 7.614 17.047 7.523 C16.55 7.519 16.052 7.514 15.54 7.509 C13.942 7.488 12.347 7.431 10.75 7.375 C9.689 7.358 8.628 7.344 7.566 7.332 C2.908 7.252 -1.44 7.021 -6 6 C-5.25 4 -5.25 4 -4 2 C-1.875 1.75 -1.875 1.75 0 2 C0 1.34 0 0.68 0 0 Z " fill="#6986BD" transform="translate(42,105)"/>
<path d="M0 0 C0.546 0.004 1.093 0.009 1.655 0.013 C1.966 0.014 1.966 0.014 3.536 0.014 C4.203 0.024 4.871 0.035 5.559 0.045 C5.902 0.047 5.902 0.047 7.636 0.054 C9.827 0.065 12.017 0.09 14.208 0.116 C15.692 0.126 17.176 0.135 18.661 0.143 C22.302 0.165 25.942 0.198 29.583 0.241 C29.409 0.864 29.235 1.488 29.055 2.131 C28.561 4.337 28.675 5.223 29.583 7.241 C28.145 7.366 28.145 7.366 26.583 7.241 C26.253 6.581 25.923 5.921 25.583 5.241 C23.761 4.747 22.065 4.396 20.208 4.116 C19.677 4.031 19.146 3.946 18.599 3.858 C13.251 3.071 7.974 3.049 2.583 3.241 C2.583 4.561 2.583 5.881 2.583 7.241 C5.883 7.241 9.183 7.241 12.583 7.241 C12.583 7.901 12.583 8.561 12.583 9.241 C7.633 9.241 2.683 9.241 -2.417 9.241 C-2.747 6.931 -3.077 4.621 -3.417 2.241 C-1.417 0.241 -1.417 0.241 0 0 Z " fill="#8DA2C6" transform="translate(73.41738891601563,41.759490966796875)"/>
<path d="M0 0 C0.998 1.996 1.098 2.85 1 5 C1.374 4.838 1.748 4.675 2.133 4.508 C4.729 3.802 7.197 3.855 9.875 3.875 C10.392 3.871 10.909 3.867 11.441 3.863 C14.749 3.872 17.814 4.071 21 5 C21 5.66 21 6.32 21 7 C20.01 7 19.02 7 18 7 C18 7.66 18 8.32 18 9 C10.639 9.708 3.397 10.147 -4 10 C-4 9.34 -4 8.68 -4 8 C-4.66 7.67 -5.32 7.34 -6 7 C-5.691 6.887 -5.691 6.887 -4.125 6.312 C-1.267 4.547 -0.993 3.144 0 0 Z " fill="#6280BA" transform="translate(39,50)"/>
<path d="M0 0 C0.5 1.563 0.5 1.563 1 4 C1.201 4.579 1.402 5.158 1.609 5.754 C1.715 6.063 1.715 6.063 2.25 7.625 C2.356 7.92 2.356 7.92 2.891 9.414 C2.909 9.676 2.909 9.676 3 11 C1.672 12.273 1.672 12.273 0 13 C-2 12 -2 12 -2.414 10.809 C-2.609 9.539 -2.805 8.27 -3 7 C-3.144 7.248 -3.144 7.248 -3.875 8.5 C-4.246 8.995 -4.618 9.49 -5 10 C-5.66 10 -6.32 10 -7 10 C-7.124 10.454 -7.248 10.907 -7.375 11.375 C-8 13 -8 13 -9.875 14.062 C-10.576 14.372 -11.278 14.681 -12 15 C-13.75 16 -13.75 16 -15 17 C-15 17.66 -15 18.32 -15 19 C-17.31 19.33 -19.62 19.66 -22 20 C-7.742 5.742 -7.742 5.742 -6.284 4.292 C-5.524 3.527 -4.771 2.755 -4.036 1.966 C-2.199 0 -2.199 0 0 0 Z " fill="#7A92C2" transform="translate(91,50)"/>
<path d="M0 0 C2.688 -0.049 5.375 -0.086 8.063 -0.11 C8.978 -0.12 9.892 -0.134 10.807 -0.151 C12.12 -0.175 13.433 -0.186 14.746 -0.195 C15.141 -0.201 15.141 -0.201 17.142 -0.227 C17.755 -0.152 18.368 -0.077 19 0 C19.33 0.66 19.66 1.32 20 2 C17.69 2 15.38 2 13 2 C13 2.66 13 3.32 13 4 C14.98 4 16.96 4 19 4 C19 4.66 19 5.32 19 6 C15.865 6.165 15.865 6.165 0 7 C0 4.69 0 2.38 0 0 Z " fill="#809ACC" transform="translate(33,82)"/>
<path d="M0 0 C0.715 0.102 1.431 0.204 2.168 0.309 C2.439 0.35 2.439 0.35 3.812 0.562 C1.78 6.741 1.78 6.741 -0.219 8.438 C-1.543 9.01 -2.768 9.305 -4.188 9.562 C-4.719 9.682 -5.25 9.802 -5.797 9.926 C-12.551 11.124 -19.41 10.193 -26.188 9.562 C-26.188 8.902 -26.188 8.242 -26.188 7.562 C-17.938 7.562 -9.688 7.562 -1.188 7.562 C-1.188 6.902 -1.188 6.242 -1.188 5.562 C-1.806 5.666 -2.425 5.769 -3.062 5.875 C-3.764 5.772 -4.465 5.669 -5.188 5.562 C-6.188 3.996 -6.703 2.349 -7.188 0.562 C-4.613 -0.534 -2.744 -0.405 0 0 Z " fill="#5A7BB2" transform="translate(54.1875,17.4375)"/>
<path d="M0 0 C0.476 0.951 0.948 1.904 1.406 2.863 C2 4 2 4 3.375 5.938 C4 8 4 8 3.41 9.293 C1.083 12.48 -1.212 13.976 -5 15 C-5.33 14.67 -5.66 14.34 -6 14 C-7.333 13.96 -8.667 13.957 -10 14 C-8.845 11.497 -7.531 9.147 -6.062 6.812 C-5.744 6.303 -5.426 5.794 -5.098 5.27 C-3.811 3.781 -2.85 3.552 -1 3 C-0.312 1.438 -0.312 1.438 0 0 Z " fill="#7189B7" transform="translate(52,89)"/>
<path d="M0 0 C0.33 0.66 0.66 1.32 1 2 C0.34 2 -0.32 2 -1 2 C-1.33 3.98 -1.66 5.96 -2 8 C-2.66 8 -3.32 8 -4 8 C-4 8.66 -4 9.32 -4 10 C-3.34 10.33 -2.68 10.66 -2 11 C-1.67 11.66 -1.34 12.32 -1 13 C-2.65 13.66 -4.3 14.32 -6 15 C8.85 15 23.7 15 39 15 C35.335 16.832 34.45 17.248 30.69 17.135 C30.28 17.126 29.87 17.116 29.447 17.107 C28.105 17.073 26.764 17.025 25.422 16.977 C24.486 16.95 23.55 16.925 22.614 16.901 C20.161 16.834 17.708 16.755 15.256 16.674 C12.749 16.593 10.242 16.523 7.734 16.453 C2.823 16.314 -2.089 16.161 -7 16 C-7.199 14.715 -7.388 13.429 -7.572 12.142 C-7.678 11.426 -7.784 10.71 -7.893 9.972 C-7.999 8.011 -7.972 7.284 -6.855 5.723 C-6.305 5.175 -5.755 4.627 -5.188 4.062 C-4.645 3.497 -4.102 2.931 -3.543 2.348 C-2 1 -2 1 0 0 Z " fill="#5F7399" transform="translate(32,46)"/>
<path d="M0 0 C0.66 0 1.32 0 2 0 C2 0.66 2 1.32 2 2 C0.652 3.148 0.652 3.148 -1.062 4.375 C-2.73 5.691 -2.73 5.691 -4 7 C-3.875 9.312 -3.875 9.312 -3 11 C-7.431 12.231 -7.431 12.231 -10.312 11.062 C-10.869 10.712 -11.426 10.361 -12 10 C-12 10.66 -12 11.32 -12 12 C-12.99 11.835 -12.99 11.835 -18 11 C-17.625 9 -17.625 9 -17 7 C-16.34 7 -15.68 7 -15 7 C-14.928 6.752 -14.928 6.752 -14.562 5.5 C-14.377 5.005 -14.191 4.51 -14 4 C-12.438 3.812 -12.438 3.812 -11 4 C-11 4.66 -11 5.32 -11 6 C-11.66 6 -12.32 6 -13 6 C-13 6.99 -13 7.98 -13 9 C-12.34 9 -11.68 9 -11 9 C-11 8.34 -11 7.68 -11 7 C-9.68 7 -8.36 7 -7 7 C-7.124 6.381 -7.248 5.763 -7.375 5.125 C-7.251 4.424 -7.127 3.722 -7 3 C-5.498 2.22 -4.049 1.809 -2.41 1.395 C-1 1 -1 1 0 0 Z " fill="#5C77AB" transform="translate(84,67)"/>
<path d="M0 0 C0.33 0 0.66 0 1 0 C1 1.98 1 3.96 1 6 C-14.18 5.67 -29.36 5.34 -45 5 C-44.67 4.34 -44.34 3.68 -44 3 C-42.152 2.586 -42.152 2.586 -39.938 2.375 C-39.571 2.338 -39.571 2.338 -37.715 2.148 C-37.149 2.099 -36.583 2.05 -36 2 C-36 2.66 -36 3.32 -36 4 C-35.568 3.836 -35.136 3.673 -34.69 3.504 C-32.988 2.997 -31.719 2.896 -29.953 2.934 C-29.658 2.939 -29.658 2.939 -28.163 2.964 C-27.532 2.978 -26.9 2.993 -26.25 3.008 C-24.906 3.025 -23.563 3.042 -22.219 3.059 C-20.105 3.09 -17.992 3.125 -15.879 3.171 C-13.836 3.214 -11.793 3.237 -9.75 3.258 C-9.434 3.267 -9.434 3.267 -7.837 3.314 C-3.417 3.34 -3.417 3.34 -1.141 1.484 C-0.764 0.994 -0.388 0.505 0 0 Z " fill="#88A2D1" transform="translate(71,56)"/>
<path d="M0 0 C0.557 0.268 1.114 0.536 1.688 0.812 C1.688 1.472 1.688 2.132 1.688 2.812 C2.347 2.812 3.007 2.812 3.688 2.812 C3.688 3.802 3.688 4.793 3.688 5.812 C-2.912 5.812 -9.513 5.812 -16.312 5.812 C-15.983 4.493 -15.653 3.172 -15.312 1.812 C-14.793 1.919 -14.274 2.026 -13.738 2.137 C-7.34 3.237 -7.34 3.237 -4.562 1.312 C-4.372 1.171 -4.372 1.171 -3.41 0.457 C-2.312 -0.188 -2.312 -0.188 0 0 Z " fill="#6987BD" transform="translate(87.3125,75.1875)"/>
<path d="M0 0 C1 2 1 2 0.938 3.938 C-0.321 6.706 -1.89 7.171 -4.625 8.289 C-6 9 -6 9 -7 11 C-6.01 11.33 -5.02 11.66 -4 12 C-4.66 12 -5.32 12 -6 12 C-6 12.66 -6 13.32 -6 14 C-7.812 15.188 -7.812 15.188 -10 16 C-11.75 15.625 -11.75 15.625 -13 15 C-13 16.32 -13 17.64 -13 19 C-13.66 19 -14.32 19 -15 19 C-15.938 17.312 -15.938 17.312 -16 15 C-14.643 13.013 -12.82 11.556 -11 10 C-10.329 9.411 -9.658 8.821 -8.988 8.23 C-7.948 7.315 -6.906 6.402 -5.856 5.499 C-3.816 3.744 -1.879 1.926 0 0 Z " fill="#8198C7" transform="translate(49,30)"/>
<path d="M0 0 C0.443 -0.004 0.886 -0.008 1.342 -0.012 C3.744 -0.005 5.895 0.028 8.062 1.125 C8.75 3.188 8.75 3.188 9.062 5.125 C3.553 6.43 -1.395 5.837 -6.938 5.125 C-7.062 3.188 -7.062 3.188 -6.938 1.125 C-4.553 -0.067 -2.596 -0.022 0 0 Z " fill="#617EB8" transform="translate(82.9375,43.875)"/>
<path d="M0 0 C2.064 0.497 4.001 1.277 6 2 C5.175 3.32 5.175 3.32 1 10 C2.155 9.051 3.31 8.102 4.5 7.125 C4.865 6.83 5.231 6.535 5.607 6.231 C6.443 5.53 7.223 4.765 8 4 C8 3.34 8 2.68 8 2 C9.32 2.33 10.64 2.66 12 3 C10.792 4.208 9.583 5.416 8.371 6.621 C7.519 7.478 6.676 8.343 5.848 9.223 C4.935 10.184 3.97 11.096 3 12 C2.34 12 1.68 12 1 12 C0.67 12.66 0.34 13.32 0 14 C0.103 13.361 0.206 12.721 0.312 12.062 C0.209 11.382 0.106 10.701 0 10 C-1.621 9.289 -3.244 9.125 -5 9 C-3.625 7.5 -3.625 7.5 -2 6 C-1.34 6 -0.68 6 0 6 C-0.084 5.651 -0.168 5.301 -0.254 4.941 C-0.356 4.486 -0.458 4.031 -0.562 3.562 C-0.667 3.11 -0.771 2.658 -0.879 2.191 C-0.919 1.798 -0.959 1.405 -1 1 C-0.67 0.67 -0.34 0.34 0 0 Z " fill="#596F9B" transform="translate(43,38)"/>
<path d="M0 0 C2.64 0.33 5.28 0.66 8 1 C8 4 8 4 7 6 C6.34 6 5.68 6 5 6 C4.67 5.34 4.34 4.68 4 4 C3.807 4.349 3.613 4.699 3.414 5.059 C3.154 5.514 2.893 5.969 2.625 6.438 C2.37 6.89 2.115 7.342 1.852 7.809 C1 9 1 9 -1 10 C-0.67 8.35 -0.34 6.7 0 5 C-0.66 5 -1.32 5 -2 5 C-2 5.66 -2 6.32 -2 7 C-7.94 7 -13.88 7 -20 7 C-20 6.67 -20 6.34 -20 6 C-19.572 5.98 -19.144 5.96 -18.702 5.94 C-16.739 5.844 -14.776 5.735 -12.812 5.625 C-12.139 5.594 -11.465 5.563 -10.771 5.531 C-6.817 5.3 -3.478 4.985 0 3 C0 2.01 0 1.02 0 0 Z " fill="#4F699B" transform="translate(91,45)"/>
<path d="M0 0 C0.66 0 1.32 0 2 0 C2 1.32 2 2.64 2 4 C2.389 3.916 2.779 3.832 3.18 3.746 C8.61 2.758 13.583 3.291 19 4 C19 4.66 19 5.32 19 6 C13.309 6.641 7.735 7.137 2 7 C1.196 7 0.391 7 -0.438 7 C-0.953 7 -1.469 7 -2 7 C-1.859 6.02 -1.712 5.041 -1.562 4.062 C-1.481 3.517 -1.4 2.972 -1.316 2.41 C-1 1 -1 1 0 0 Z " fill="#7892C4" transform="translate(41,48)"/>
<path d="M0 0 C0.898 1.422 1.041 2.144 0.875 3.812 C0.559 5.129 0.559 5.129 -0.25 6.188 C-3.009 6.935 -5.472 6.797 -8.25 6.188 C-10.076 5.015 -10.925 3.955 -12.25 2.188 C-11.26 2.188 -10.27 2.188 -9.25 2.188 C-9.25 1.528 -9.25 0.868 -9.25 0.188 C-7.961 -0.034 -6.668 -0.24 -5.375 -0.438 C-4.656 -0.554 -3.936 -0.67 -3.195 -0.789 C-1.25 -0.812 -1.25 -0.812 0 0 Z " fill="#6B84B4" transform="translate(104.25,74.8125)"/>
<path d="M0 0 C0.712 0.003 1.424 0.006 2.158 0.01 C2.527 0.014 2.527 0.014 4.395 0.035 C5.144 0.04 5.894 0.044 6.666 0.049 C8.513 0.061 10.36 0.077 12.207 0.098 C12.12 0.41 12.12 0.41 11.68 1.988 C11.185 4.194 11.299 5.08 12.207 7.098 C10.77 7.223 10.77 7.223 9.207 7.098 C8.877 6.438 8.547 5.778 8.207 5.098 C7.071 4.687 7.071 4.687 5.66 4.465 C5.145 4.381 4.629 4.297 4.098 4.211 C3.827 4.172 3.827 4.172 2.457 3.973 C1.931 3.886 1.405 3.8 0.863 3.711 C-2.393 3.203 -5.499 3.012 -8.793 3.098 C-6.308 0.23 -3.666 -0.029 0 0 Z " fill="#7C95BF" transform="translate(90.79296875,41.90234375)"/>
<path d="M0 0 C1.015 1.869 0.864 3.215 0.356 5.251 C-0.285 6.316 -0.285 6.316 -1.407 6.721 C-2.914 6.812 -4.343 6.751 -5.848 6.629 C-6.368 6.606 -6.888 6.584 -7.424 6.561 C-8.712 6.501 -9.999 6.412 -11.285 6.316 C-10.625 5.986 -9.965 5.656 -9.285 5.316 C-9.117 4.16 -9.117 4.16 -9.098 2.816 C-8.895 1.469 -8.895 1.469 -8.285 0.316 C-5.611 -0.757 -2.631 -1.4 0 0 Z " fill="#7A95C9" transform="translate(64.28515625,105.68359375)"/>
<path d="M0 0 C1.904 -0.585 3.778 -0.418 5.75 -0.312 C6.276 -0.303 6.802 -0.293 7.344 -0.283 C10.648 -0.189 13.816 0.086 17 1 C17 1.66 17 2.32 17 3 C16.01 3 15.02 3 14 3 C14 3.66 14 4.32 14 5 C13.196 5.021 12.391 5.041 11.562 5.062 C11.336 5.068 11.336 5.068 10.191 5.098 C9 5 9 5 8 4 C6.481 3.928 4.958 3.916 3.438 3.938 C3.013 3.942 2.588 3.947 2.15 3.951 C1.1 3.963 0.05 3.981 -1 4 C-0.859 2.02 -0.859 2.02 0 0 Z " fill="#5977B1" transform="translate(43,54)"/>
<path d="M0 0 C2 0.375 2 0.375 4 1 C4 1.66 4 2.32 4 3 C4.601 2.924 5.201 2.847 5.82 2.769 C8.042 2.491 10.265 2.233 12.49 1.981 C13.454 1.869 14.417 1.751 15.38 1.628 C16.761 1.453 18.143 1.297 19.527 1.145 C19.96 1.085 20.392 1.026 20.837 0.965 C22.051 0.843 22.051 0.843 24 1 C24.33 1.99 24.66 2.98 25 4 C18.07 4 11.14 4 4 4 C4 4.66 4 5.32 4 6 C3.01 6.33 2.02 6.66 1 7 C0.67 4.69 0.34 2.38 0 0 Z " fill="#8399CA" transform="translate(24,21)"/>
<path d="M0 0 C0.66 0.33 1.32 0.66 2 1 C2.746 4.359 2.807 7.713 0.949 10.676 C-0.318 12.002 -1.393 13.109 -3 14 C-3.66 13.67 -4.32 13.34 -5 13 C-4.941 11.695 -4.941 11.695 -4.562 10.125 C-4.072 7.753 -3.879 6.242 -5 4 C-3.68 3.34 -2.36 2.68 -1 2 C-1.33 4.31 -1.66 6.62 -2 9 C-1.34 9 -0.68 9 0 9 C0 6.03 0 3.06 0 0 Z " fill="#778CB1" transform="translate(70,16)"/>
<path d="M0 0 C8.58 0 17.16 0 26 0 C17.6 4.2 9.088 2.845 0 2 C0 1.34 0 0.68 0 0 Z " fill="#606E8A" transform="translate(28,25)"/>
<path d="M0 0 C1.09 0.84 1.09 0.84 2.777 2.465 C3.107 1.805 3.437 1.145 3.777 0.465 C4.969 0.488 4.969 0.488 6.34 0.84 C6.795 0.951 7.25 1.062 7.719 1.176 C8.068 1.271 8.417 1.367 8.777 1.465 C8.512 2.918 8.512 2.918 7.777 4.465 C3.667 5.809 -1.153 5.945 -5.223 4.465 C-6.035 2.902 -6.035 2.902 -6.223 1.465 C-2.065 -0.904 -2.065 -0.904 0 0 Z " fill="#5878AD" transform="translate(37.22265625,18.53515625)"/>
<path d="M0 0 C-0.158 4.995 -1.11 7.777 -4.746 11.25 C-5.16 11.498 -5.574 11.745 -6 12 C-6.66 11.67 -7.32 11.34 -8 11 C-7.7 10.746 -7.399 10.492 -7.09 10.23 C-4.034 7.465 -4.034 7.465 -3.875 5.312 C-5.724 3.156 -8.277 3.241 -11 3 C-11 2.34 -11 1.68 -11 1 C-3.702 -0.148 -3.702 -0.148 0 0 Z " fill="#8AA2D0" transform="translate(65,81)"/>
<path d="M0 0 C0.33 1.32 0.66 2.64 1 4 C0.34 4 -0.32 4 -1 4 C-1.309 4.619 -1.619 5.237 -1.938 5.875 C-3.077 8.155 -3.92 8.676 -6 10 C-6 10.66 -6 11.32 -6 12 C-8.31 12.33 -10.62 12.66 -13 13 C-8.667 8.667 -4.333 4.333 0 0 Z " fill="#899FCA" transform="translate(82,57)"/>
<path d="M0 0 C0.33 1.32 0.66 2.64 1 4 C0.34 4 -0.32 4 -1 4 C-0.437 5.769 0.165 7.331 1 9 C2.562 9.625 2.562 9.625 4 10 C3 11 3 11 1.625 11.133 C1.089 11.13 0.552 11.128 0 11.125 C-0.268 11.126 -0.268 11.126 -1.625 11.133 C-3 11 -3 11 -4 10 C-4.385 7.949 -4.394 6.049 -4 4 C-2.873 2.38 -1.567 1.189 0 0 Z " fill="#8FA4CE" transform="translate(68,70)"/>
<path d="M0 0 C0.33 0.99 0.66 1.98 1 3 C1.33 2.34 1.66 1.68 2 1 C2.66 1 3.32 1 4 1 C4 2.32 4 3.64 4 5 C3.34 5 2.68 5 2 5 C2 5.66 2 6.32 2 7 C1.34 7 0.68 7 0 7 C0 7.66 0 8.32 0 9 C-1.094 9.414 -1.094 9.414 -2.5 9.625 C-2.964 9.7 -3.428 9.775 -3.906 9.852 C-4.087 9.876 -4.087 9.876 -5 10 C-5 9.34 -5 8.68 -5 8 C-4.34 8 -3.68 8 -3 8 C-2.67 6.02 -2.34 4.04 -2 2 C-1.34 2 -0.68 2 0 2 C0 1.34 0 0.68 0 0 Z " fill="#607DB7" transform="translate(33,46)"/>
<path d="M0 0 C0.41 0.084 0.82 0.168 1.242 0.254 C1.512 0.305 1.512 0.305 2.875 0.562 C3.409 0.667 3.942 0.771 4.492 0.879 C6 1 6 1 8 0 C8.354 2.009 8.501 3.06 8 5 C6.257 7.297 4.304 9.263 2 11 C1.34 11 0.68 11 0 11 C0.311 10.041 0.624 9.083 0.938 8.125 C1.025 7.858 1.025 7.858 1.465 6.508 C2 5 2 5 3 3 C2.505 2.876 2.01 2.752 1.5 2.625 C1.005 2.419 0.51 2.212 0 2 C0 1.34 0 0.68 0 0 Z " fill="#6F8AC1" transform="translate(44,37)"/>
<path d="M0 0 C2.048 -0.232 3.964 -0.362 6 0 C7.438 1.938 7.438 1.938 8 4 C7 5 7 5 5.142 5.114 C4.352 5.108 3.561 5.103 2.746 5.098 C2.536 5.097 2.536 5.097 1.472 5.093 C0.127 5.088 -1.218 5.075 -2.562 5.062 C-3.473 5.057 -4.384 5.053 -5.295 5.049 C-7.53 5.038 -9.765 5.021 -12 5 C-12 4.67 -12 4.34 -12 4 C-6.06 4 -0.12 4 6 4 C6 3.34 6 2.68 6 2 C5.381 2.186 4.763 2.371 4.125 2.562 C2 3 2 3 0 2 C0 1.34 0 0.68 0 0 Z " fill="#4A5E88" transform="translate(46,84)"/>
<path d="M0 0 C0 0.66 0 1.32 0 2 C3.63 2 7.26 2 11 2 C11 2.66 11 3.32 11 4 C8.521 4.087 6.042 4.14 3.562 4.188 C3.209 4.2 3.209 4.2 1.42 4.264 C0.746 4.273 0.073 4.283 -0.621 4.293 C-0.933 4.301 -0.933 4.301 -2.51 4.341 C-3.001 4.228 -3.493 4.116 -4 4 C-4.711 2.482 -4.711 2.482 -5 1 C-3.19 0.342 -1.952 0 0 0 Z " fill="#839CCC" transform="translate(75,47)"/>
<path d="" fill="#F8F8F8" transform="translate(0,0)"/>
<path d="" fill="#F9F8F6" transform="translate(0,0)"/>
<path d="" fill="#F8F8F6" transform="translate(0,0)"/>
<path d="" fill="#F8F8F6" transform="translate(0,0)"/>
<path d="" fill="#F8F8F8" transform="translate(0,0)"/>
<path d="" fill="#F6F6F6" transform="translate(0,0)"/>
<path d="" fill="#F3F3F5" transform="translate(0,0)"/>
<path d="" fill="#F8F8F8" transform="translate(0,0)"/>
<path d="" fill="#F4F3EF" transform="translate(0,0)"/>
<path d="" fill="#F8FEF2" transform="translate(0,0)"/>
<path d="" fill="#F8F8F6" transform="translate(0,0)"/>
<path d="" fill="#F4F5F9" transform="translate(0,0)"/>
<path d="" fill="#F6F8F7" transform="translate(0,0)"/>
<path d="" fill="#F6F8F5" transform="translate(0,0)"/>
<path d="" fill="#F6F8F7" transform="translate(0,0)"/>
<path d="" fill="#F3F8FB" transform="translate(0,0)"/>
<path d="" fill="#F6F5FB" transform="translate(0,0)"/>
<path d="" fill="#F6F4F5" transform="translate(0,0)"/>
<path d="" fill="#F6F6F6" transform="translate(0,0)"/>
<path d="" fill="#F5F5F7" transform="translate(0,0)"/>
<path d="" fill="#F8F9F4" transform="translate(0,0)"/>
<path d="" fill="#F2F3EB" transform="translate(0,0)"/>
<path d="" fill="#F6F4F9" transform="translate(0,0)"/>
<path d="" fill="#F0F4FF" transform="translate(0,0)"/>
<path d="" fill="#F4F6F1" transform="translate(0,0)"/>
<path d="" fill="#F9FBF0" transform="translate(0,0)"/>
<path d="" fill="#F6F9F2" transform="translate(0,0)"/>
<path d="" fill="#F8F8F8" transform="translate(0,0)"/>
<path d="" fill="#F5F3F8" transform="translate(0,0)"/>
<path d="" fill="#F9F8F6" transform="translate(0,0)"/>
<path d="" fill="#F8F9F3" transform="translate(0,0)"/>
<path d="" fill="#F8FAEF" transform="translate(0,0)"/>
<path d="" fill="#F8FAF5" transform="translate(0,0)"/>
<path d="" fill="#F2F9F1" transform="translate(0,0)"/>
<path d="" fill="#F4F9F3" transform="translate(0,0)"/>
<path d="" fill="#F7F9F6" transform="translate(0,0)"/>
<path d="" fill="#FBF8F3" transform="translate(0,0)"/>
<path d="" fill="#F7F9F4" transform="translate(0,0)"/>
<path d="" fill="#F4F6F5" transform="translate(0,0)"/>
<path d="" fill="#F9F8F6" transform="translate(0,0)"/>
<path d="" fill="#F8F9F4" transform="translate(0,0)"/>
<path d="" fill="#F4FAFA" transform="translate(0,0)"/>
<path d="" fill="#F6F6F8" transform="translate(0,0)"/>
<path d="" fill="#F7F7F5" transform="translate(0,0)"/>
<path d="" fill="#F4FAF6" transform="translate(0,0)"/>
<path d="" fill="#F8F6F7" transform="translate(0,0)"/>
<path d="" fill="#F4F5FA" transform="translate(0,0)"/>
<path d="" fill="#F8F7F5" transform="translate(0,0)"/>
<path d="" fill="#F0FAFC" transform="translate(0,0)"/>
<path d="" fill="#F7F7F7" transform="translate(0,0)"/>
</svg>
