<?xml version="1.0" encoding="UTF-8"?>
<!-- Generator: visioncortex VTracer 0.6.12 -->
<svg version="1.1" xmlns="http://www.w3.org/2000/svg" width="128" height="128">
<path d="M0 0 C0.294 -0.006 0.294 -0.006 1.781 -0.039 C2.419 -0.046 3.058 -0.054 3.716 -0.061 C4.371 -0.069 5.026 -0.077 5.7 -0.086 C7.09 -0.1 8.48 -0.11 9.869 -0.118 C11.99 -0.135 14.109 -0.179 16.229 -0.223 C17.579 -0.234 18.928 -0.242 20.278 -0.249 C20.594 -0.258 20.594 -0.258 22.195 -0.302 C25.33 -0.286 27.29 -0.13 29.628 2.079 C31.041 3.653 31.196 3.963 31.196 6.177 C31.856 6.177 32.516 6.177 33.196 6.177 C33.196 6.837 33.196 7.497 33.196 8.177 C33.856 8.177 34.516 8.177 35.196 8.177 C35.34 8.816 35.485 9.456 35.634 10.115 C35.819 10.795 36.005 11.476 36.196 12.177 C37.188 12.534 38.188 12.87 39.196 13.177 C39.384 14.74 39.384 14.74 39.196 16.177 C39.856 16.177 40.516 16.177 41.196 16.177 C42.202 17.231 42.202 17.231 43.255 18.697 C43.641 19.224 44.027 19.752 44.425 20.296 C44.624 20.576 44.624 20.576 45.634 21.99 C50.118 28.2 50.118 28.2 51.981 29.939 C53.196 31.177 53.196 31.177 53.196 33.177 C53.856 33.177 54.516 33.177 55.196 33.177 C56.241 34.407 57.156 35.607 58.071 36.927 C59.775 39.308 61.424 41.543 63.571 43.552 C64.107 44.088 64.644 44.625 65.196 45.177 C65.196 45.837 65.196 46.497 65.196 47.177 C65.856 47.177 66.516 47.177 67.196 47.177 C67.61 48.271 67.61 48.271 67.821 49.677 C67.858 49.909 67.858 49.909 68.048 51.083 C68.097 51.444 68.146 51.805 68.196 52.177 C65.97 53.038 64.206 53.281 61.826 53.199 C61.166 53.179 60.505 53.159 59.825 53.138 C59.472 53.124 59.472 53.124 57.684 53.056 C56.956 53.032 56.228 53.009 55.478 52.984 C53.154 52.908 50.831 52.824 48.509 52.74 C46.932 52.686 45.356 52.634 43.78 52.581 C39.918 52.452 36.057 52.317 32.196 52.177 C32.435 52.449 32.435 52.449 33.642 53.826 C34.276 54.55 34.91 55.274 35.544 55.997 C35.857 56.355 36.171 56.712 36.494 57.081 C43.196 64.734 43.196 64.734 43.196 67.177 C43.856 67.177 44.516 67.177 45.196 67.177 C45.872 68.095 45.872 68.095 46.509 69.365 C48.011 72.09 49.913 73.985 52.208 76.064 C53.196 77.177 53.196 77.177 53.196 79.177 C58.146 79.177 63.096 79.177 68.196 79.177 C68.161 78.376 68.161 78.376 67.985 74.322 C67.938 72.756 67.902 71.191 67.866 69.625 C67.836 68.543 67.796 67.462 67.743 66.381 C67.324 57.463 67.324 57.463 69.453 54.323 C72.052 52.045 73.739 51.072 77.196 51.177 C77.266 56.879 77.319 62.581 77.351 68.284 C77.367 70.932 77.388 73.58 77.422 76.227 C77.455 78.782 77.473 81.336 77.481 83.891 C77.486 84.867 77.497 85.842 77.513 86.817 C77.535 88.182 77.538 89.546 77.537 90.911 C77.54 91.299 77.54 91.299 77.557 93.266 C77.196 95.177 77.196 95.177 76.023 96.429 C73.507 97.459 71.317 97.441 68.623 97.404 C68.067 97.404 67.51 97.405 66.937 97.405 C65.103 97.404 63.269 97.388 61.434 97.372 C60.161 97.369 58.887 97.366 57.613 97.364 C54.264 97.356 50.916 97.336 47.567 97.314 C44.148 97.294 40.73 97.285 37.311 97.275 C30.606 97.253 23.901 97.219 17.196 97.177 C17.1 93.326 17.1 93.326 17.966 91.982 C18.31 91.675 18.654 91.368 19.009 91.052 C19.345 90.74 19.681 90.428 20.028 90.107 C20.414 89.8 20.799 89.493 21.196 89.177 C21.401 89.007 21.401 89.007 22.436 88.145 C24.768 86.862 26.921 86.825 29.52 86.763 C30.027 86.744 30.533 86.724 31.054 86.704 C32.664 86.645 34.274 86.598 35.884 86.552 C36.978 86.514 38.072 86.475 39.167 86.435 C41.843 86.339 44.519 86.255 47.196 86.177 C46.724 85.706 46.252 85.234 45.765 84.748 C44.868 83.85 43.974 82.948 43.091 82.036 C37.862 76.676 32.13 71.82 26.227 67.22 C25.196 66.177 25.196 66.177 25.196 64.177 C24.749 64.221 24.303 64.266 23.842 64.311 C21.741 64.14 21.263 63.562 19.856 62.029 C19.426 61.571 18.995 61.114 18.552 60.643 C18.105 60.159 17.657 59.675 17.196 59.177 C16.282 58.244 15.364 57.314 14.442 56.388 C13.98 55.921 13.518 55.455 13.042 54.974 C12.577 54.505 12.112 54.035 11.634 53.552 C11.399 53.314 11.399 53.314 10.214 52.107 C8.183 50.062 6.22 48.124 3.856 46.466 C3.308 46.041 2.76 45.615 2.196 45.177 C2.196 44.517 2.196 43.857 2.196 43.177 C8.811 42.225 15.398 42.066 22.071 42.052 C22.491 42.05 22.91 42.047 23.343 42.044 C24.562 42.038 25.781 42.041 27.001 42.044 C27.712 42.045 28.424 42.046 29.156 42.048 C31.275 42.182 33.157 42.6 35.196 43.177 C35.196 42.517 35.196 41.857 35.196 41.177 C34.256 40.727 33.314 40.281 32.364 39.851 C30.056 38.519 28.471 36.369 26.759 34.365 C25.96 33.455 25.16 32.546 24.36 31.638 C23.983 31.207 23.605 30.776 23.217 30.332 C19.794 26.457 15.979 23.087 12.084 19.703 C7.283 15.525 7.283 15.525 5.196 13.177 C5.196 12.517 5.196 11.857 5.196 11.177 C4.536 11.177 3.876 11.177 3.196 11.177 C3.196 10.517 3.196 9.857 3.196 9.177 C2.536 9.177 1.876 9.177 1.196 9.177 C-0.921 6.707 -2.56 4.184 -3.804 1.177 C-2.482 -0.145 -1.847 0.035 0 0 Z " fill="#B9AC6B" transform="translate(27.803955078125,16.822998046875)"/>
<path d="M0 0 C0.263 0.001 0.263 0.001 1.593 0.004 C3.253 0.01 4.914 0.022 6.574 0.035 C7.708 0.04 8.841 0.045 9.975 0.049 C12.737 0.06 15.499 0.077 18.262 0.098 C18.262 0.758 18.262 1.418 18.262 2.098 C18.922 2.428 19.582 2.758 20.262 3.098 C17.637 3.433 15.012 3.766 12.387 4.098 C12.014 4.145 12.014 4.145 10.125 4.387 C9.767 4.432 9.767 4.432 7.957 4.66 C7.627 4.702 7.627 4.702 5.958 4.914 C4.262 5.098 4.262 5.098 2.262 5.098 C2.418 5.435 2.574 5.773 2.734 6.121 C2.832 6.344 2.832 6.344 3.324 7.473 C3.521 7.914 3.719 8.354 3.922 8.809 C4.262 10.098 4.262 10.098 3.262 12.098 C3.581 12.056 3.581 12.056 5.199 11.848 C5.88 11.93 6.56 12.013 7.262 12.098 C7.887 14.035 7.887 14.035 8.262 16.098 C8.922 16.428 9.582 16.758 10.262 17.098 C10.592 16.438 10.922 15.778 11.262 15.098 C12.956 14.82 14.536 15.009 16.262 15.098 C15.932 16.088 15.602 17.078 15.262 18.098 C18.989 17.476 18.989 17.476 20.387 15.535 C20.675 15.061 20.964 14.586 21.262 14.098 C23.262 14.098 23.262 14.098 24.131 14.892 C24.414 15.256 24.697 15.621 24.988 15.996 C25.298 16.393 25.607 16.79 25.926 17.199 C26.243 17.619 26.56 18.04 26.887 18.473 C27.212 18.885 27.536 19.298 27.871 19.723 C30.262 22.836 30.262 22.836 30.262 25.098 C30.922 25.098 31.582 25.098 32.262 25.098 C32.938 26.016 32.938 26.016 33.574 27.285 C35.076 30.01 36.978 31.906 39.273 33.984 C40.262 35.098 40.262 35.098 40.262 37.098 C45.212 37.098 50.162 37.098 55.262 37.098 C55.227 36.297 55.227 36.297 55.051 32.242 C55.004 30.677 54.968 29.111 54.932 27.546 C54.902 26.464 54.861 25.382 54.809 24.302 C54.39 15.384 54.39 15.384 56.519 12.244 C59.117 9.966 60.805 8.993 64.262 9.098 C64.331 14.8 64.385 20.502 64.417 26.205 C64.433 28.853 64.454 31.5 64.488 34.148 C64.521 36.703 64.539 39.257 64.546 41.812 C64.552 42.787 64.563 43.762 64.579 44.738 C64.601 46.103 64.604 47.466 64.602 48.832 C64.606 49.22 64.606 49.22 64.622 51.187 C64.262 53.098 64.262 53.098 63.089 54.35 C60.573 55.38 58.383 55.362 55.689 55.325 C55.132 55.325 54.576 55.325 54.003 55.326 C52.168 55.324 50.334 55.309 48.5 55.293 C47.226 55.289 45.953 55.286 44.679 55.284 C41.33 55.277 37.981 55.257 34.633 55.235 C31.214 55.215 27.796 55.205 24.377 55.195 C17.672 55.174 10.967 55.14 4.262 55.098 C4.166 51.247 4.166 51.247 5.031 49.902 C5.375 49.596 5.72 49.289 6.074 48.973 C6.411 48.661 6.747 48.349 7.094 48.027 C7.479 47.721 7.865 47.414 8.262 47.098 C8.671 46.757 9.08 46.416 9.502 46.065 C11.834 44.783 13.986 44.745 16.586 44.684 C17.092 44.664 17.598 44.645 18.12 44.625 C19.73 44.565 21.339 44.519 22.949 44.473 C24.044 44.434 25.138 44.395 26.232 44.355 C28.909 44.26 31.585 44.176 34.262 44.098 C33.79 43.626 33.317 43.155 32.831 42.669 C31.934 41.771 31.04 40.869 30.156 39.957 C24.928 34.596 19.196 29.74 13.293 25.141 C12.262 24.098 12.262 24.098 12.262 22.098 C11.815 22.142 11.368 22.186 10.908 22.232 C8.807 22.061 8.329 21.483 6.922 19.949 C6.491 19.492 6.061 19.035 5.618 18.563 C5.17 18.08 4.723 17.596 4.262 17.098 C3.347 16.165 2.429 15.235 1.508 14.309 C1.046 13.842 0.584 13.375 0.107 12.895 C-0.357 12.425 -0.822 11.956 -1.301 11.473 C-1.769 10.996 -2.238 10.519 -2.721 10.027 C-4.752 7.982 -6.714 6.044 -9.078 4.387 C-9.626 3.961 -10.174 3.536 -10.738 3.098 C-10.738 2.438 -10.738 1.778 -10.738 1.098 C-7.156 0.062 -3.706 -0.038 0 0 Z " fill="#BFB478" transform="translate(40.73828125,58.90234375)"/>
<path d="M0 0 C0.263 0.001 0.263 0.001 1.593 0.004 C3.253 0.01 4.914 0.022 6.574 0.035 C7.708 0.04 8.841 0.045 9.975 0.049 C12.737 0.06 15.499 0.077 18.262 0.098 C18.262 0.758 18.262 1.418 18.262 2.098 C18.922 2.428 19.582 2.758 20.262 3.098 C17.637 3.433 15.012 3.766 12.387 4.098 C12.014 4.145 12.014 4.145 10.125 4.387 C9.767 4.432 9.767 4.432 7.957 4.66 C7.627 4.702 7.627 4.702 5.958 4.914 C4.262 5.098 4.262 5.098 2.262 5.098 C2.418 5.435 2.574 5.773 2.734 6.121 C2.832 6.344 2.832 6.344 3.324 7.473 C3.521 7.914 3.719 8.354 3.922 8.809 C4.262 10.098 4.262 10.098 3.262 12.098 C3.581 12.056 3.581 12.056 5.199 11.848 C5.88 11.93 6.56 12.013 7.262 12.098 C7.887 14.035 7.887 14.035 8.262 16.098 C8.922 16.428 9.582 16.758 10.262 17.098 C10.592 16.438 10.922 15.778 11.262 15.098 C12.956 14.82 14.536 15.009 16.262 15.098 C15.932 16.088 15.602 17.078 15.262 18.098 C18.989 17.476 18.989 17.476 20.387 15.535 C20.675 15.061 20.964 14.586 21.262 14.098 C23.262 14.098 23.262 14.098 24.131 14.892 C24.414 15.256 24.697 15.621 24.988 15.996 C25.298 16.393 25.607 16.79 25.926 17.199 C26.243 17.619 26.56 18.04 26.887 18.473 C27.212 18.885 27.536 19.298 27.871 19.723 C30.262 22.836 30.262 22.836 30.262 25.098 C30.922 25.098 31.582 25.098 32.262 25.098 C32.938 26.016 32.938 26.016 33.574 27.285 C35.086 30.042 37.026 31.916 39.371 33.984 C39.665 34.352 39.959 34.719 40.262 35.098 C40.097 35.428 40.097 35.428 39.262 37.098 C38.602 37.077 37.942 37.056 37.262 37.035 C36.602 37.056 35.942 37.076 35.262 37.098 C34.915 38.093 34.583 39.094 34.262 40.098 C32.438 40.922 32.438 40.922 30.262 41.098 C28.9 39.898 28.006 38.906 26.949 37.473 C24.23 34.067 21.485 31.626 17.84 29.188 C15.666 27.686 13.986 26.098 12.262 24.098 C12.262 23.438 12.262 22.778 12.262 22.098 C11.815 22.142 11.368 22.186 10.908 22.232 C8.807 22.061 8.329 21.483 6.922 19.949 C6.491 19.492 6.061 19.035 5.618 18.563 C5.17 18.08 4.723 17.596 4.262 17.098 C3.347 16.165 2.429 15.235 1.508 14.309 C1.046 13.842 0.584 13.375 0.107 12.895 C-0.357 12.425 -0.822 11.956 -1.301 11.473 C-1.769 10.996 -2.238 10.519 -2.721 10.027 C-4.752 7.982 -6.714 6.044 -9.078 4.387 C-9.626 3.961 -10.174 3.536 -10.738 3.098 C-10.738 2.438 -10.738 1.778 -10.738 1.098 C-7.156 0.062 -3.706 -0.038 0 0 Z " fill="#BEB273" transform="translate(40.73828125,58.90234375)"/>
<path d="M0 0 C0 14.52 0 29.04 0 44 C-0.66 43.67 -1.32 43.34 -2 43 C-3.365 42.94 -4.732 42.939 -6.098 42.973 C-6.899 42.985 -7.7 42.997 -8.525 43.01 C-9.798 43.035 -11.071 43.063 -12.344 43.096 C-13.574 43.126 -14.805 43.143 -16.035 43.16 C-16.403 43.169 -16.403 43.169 -18.266 43.211 C-18.838 43.141 -19.41 43.072 -20 43 C-20.33 42.34 -20.66 41.68 -21 41 C-20.645 41.012 -20.645 41.012 -18.848 41.07 C-17.919 41.089 -16.991 41.107 -16.062 41.125 C-15.594 41.142 -15.125 41.159 -14.643 41.176 C-13.285 41.195 -13.285 41.195 -11 41 C-10.67 40.34 -10.34 39.68 -10 39 C-8.59 39.023 -8.59 39.023 -6.938 39.375 C-6.39 39.486 -5.842 39.597 -5.277 39.711 C-5.067 39.759 -5.067 39.759 -4 40 C-3.478 36.866 -3.137 34.087 -4 31 C-6.923 29.479 -9.74 29.2 -13 29 C-12.344 28.937 -11.687 28.874 -11.011 28.81 C-10.348 28.542 -9.684 28.275 -9 28 C-8.692 26.158 -8.671 24.873 -8.82 23.047 C-8.861 22.025 -8.902 21.003 -8.941 19.98 C-9.028 18.369 -9.124 16.759 -9.233 15.149 C-9.794 6.186 -9.794 6.186 -7.761 3.15 C-5.042 0.769 -3.687 0 0 0 Z " fill="#BDB483" transform="translate(105,68)"/>
<path d="M0 0 C0.265 0.001 0.265 0.001 1.608 0.007 C2.209 0.007 2.809 0.007 3.428 0.007 C4.079 0.012 4.73 0.017 5.401 0.023 C5.733 0.023 5.733 0.023 7.415 0.027 C9.544 0.032 11.674 0.045 13.803 0.058 C15.244 0.063 16.685 0.067 18.126 0.071 C21.664 0.082 25.202 0.1 28.741 0.12 C28.411 2.43 28.081 4.74 27.741 7.12 C24.003 6.347 24.003 6.347 22.366 4.933 C20.741 4.12 20.741 4.12 19.221 4.437 C17.701 4.946 16.219 5.498 14.741 6.12 C14.741 5.46 14.741 4.8 14.741 4.12 C12.741 4.808 12.741 4.808 10.741 6.12 C10.109 9.2 10.109 9.2 10.741 11.12 C11.962 12.363 13.27 13.155 14.741 14.12 C14.741 14.78 14.741 15.44 14.741 16.12 C15.401 16.244 16.061 16.368 16.741 16.495 C17.071 16.598 17.071 16.598 18.741 17.12 C18.991 19.183 18.991 19.183 18.741 21.12 C19.151 21.074 19.561 21.027 19.983 20.98 C21.643 20.868 23.1 20.837 24.741 21.12 C26.64 23.624 26.741 24.953 26.741 28.12 C28.721 28.12 30.701 28.12 32.741 28.12 C32.081 29.77 31.421 31.42 30.741 33.12 C24.222 32.154 20.476 26.794 16.444 22.085 C13.865 19.084 11.252 16.11 7.928 13.933 C7.536 13.665 7.145 13.397 6.741 13.12 C6.741 12.46 6.741 11.8 6.741 11.12 C6.081 11.12 5.421 11.12 4.741 11.12 C4.741 10.46 4.741 9.8 4.741 9.12 C4.081 9.12 3.421 9.12 2.741 9.12 C0.624 6.65 -1.015 4.128 -2.259 1.12 C-1.259 0.12 -1.259 0.12 0 0 Z " fill="#C3B778" transform="translate(26.259170532226563,16.879745483398438)"/>
<path d="M0 0 C-0.165 0.639 -0.33 1.279 -0.5 1.938 C-1 4 -1 4 -1 5 C0.98 5.33 2.96 5.66 5 6 C5 6.66 5 7.32 5 8 C-7.54 8 -20.08 8 -33 8 C-29.459 2.098 -29.459 2.098 -26 1 C-23.462 0.634 -20.935 0.49 -18.375 0.375 C-17.667 0.337 -16.96 0.299 -16.23 0.26 C-10.817 -0.012 -5.419 -0.117 0 0 Z " fill="#C2B87A" transform="translate(78,103)"/>
<path d="M0 0 C0.263 0.001 0.263 0.001 1.593 0.004 C3.253 0.01 4.914 0.022 6.574 0.035 C7.708 0.04 8.841 0.045 9.975 0.049 C12.737 0.06 15.499 0.077 18.262 0.098 C18.262 0.758 18.262 1.418 18.262 2.098 C18.922 2.428 19.582 2.758 20.262 3.098 C17.637 3.433 15.012 3.766 12.387 4.098 C12.014 4.145 12.014 4.145 10.125 4.387 C9.767 4.432 9.767 4.432 7.957 4.66 C7.627 4.702 7.627 4.702 5.958 4.914 C4.262 5.098 4.262 5.098 2.262 5.098 C2.418 5.435 2.574 5.773 2.734 6.121 C2.832 6.344 2.832 6.344 3.324 7.473 C3.521 7.914 3.719 8.354 3.922 8.809 C4.262 10.098 4.262 10.098 3.262 12.098 C3.581 12.056 3.581 12.056 5.199 11.848 C5.88 11.93 6.56 12.013 7.262 12.098 C7.616 13.426 7.947 14.76 8.262 16.098 C8.963 16.428 9.664 16.758 10.387 17.098 C11.005 17.428 11.624 17.758 12.262 18.098 C12.137 20.223 12.137 20.223 11.262 22.098 C9.262 22.098 9.262 22.098 8.168 21.202 C7.778 20.788 7.387 20.375 6.984 19.949 C6.545 19.492 6.106 19.035 5.653 18.563 C5.194 18.08 4.735 17.596 4.262 17.098 C3.346 16.166 2.428 15.236 1.508 14.309 C1.046 13.842 0.584 13.375 0.107 12.895 C-0.357 12.425 -0.822 11.956 -1.301 11.473 C-1.769 10.996 -2.238 10.519 -2.721 10.027 C-4.752 7.982 -6.714 6.044 -9.078 4.387 C-9.626 3.961 -10.174 3.536 -10.738 3.098 C-10.738 2.438 -10.738 1.778 -10.738 1.098 C-7.156 0.062 -3.706 -0.038 0 0 Z " fill="#C4BC89" transform="translate(40.73828125,58.90234375)"/>
<path d="M0 0 C1.773 -0.14 3.259 -0.254 5 0 C6.062 1.188 6.062 1.188 7 3 C8.177 4.838 9.347 6.562 11 8 C13.125 7.75 13.125 7.75 15 7 C15.66 7.33 16.32 7.66 17 8 C16.67 6.68 16.34 5.36 16 4 C17.312 3.188 17.312 3.188 19 3 C19.874 4.101 20.455 5.28 21.102 6.527 C22.422 8.691 24.22 10.22 26.109 11.887 C26.403 12.254 26.697 12.621 27 13 C26.67 13.66 26.34 14.32 26 15 C25.34 14.979 24.68 14.959 24 14.938 C23.67 14.948 23.67 14.948 22 15 C21.654 15.996 21.321 16.996 21 18 C19.176 18.824 19.176 18.824 17 19 C15.638 17.8 14.744 16.809 13.688 15.375 C11.428 12.526 9.347 10.365 6.25 8.375 C2.866 6.147 1.363 3.777 0 0 Z " fill="#C1B883" transform="translate(54,81)"/>
<path d="M0 0 C10.986 -0.431 10.986 -0.431 14 2 C14.422 5.04 14.282 7.951 14 11 C13.578 10.988 13.157 10.977 12.723 10.965 C12.175 10.956 11.627 10.947 11.062 10.938 C10.517 10.926 9.972 10.914 9.41 10.902 C8 11 8 11 7 12 C5.188 12.168 5.188 12.168 3 12.188 C2.639 12.195 2.639 12.195 0.812 12.23 C0.214 12.154 -0.384 12.078 -1 12 C-2.413 9.174 -1.629 7.489 -0.746 4.555 C0 3 0 3 2.125 2.062 C2.744 2.042 3.362 2.021 4 2 C2.68 1.34 1.36 0.68 0 0 Z " fill="#B9AD6D" transform="translate(87,97)"/>
<path d="M0 0 C0.454 0.516 0.907 1.031 1.375 1.562 C1.911 2.037 2.447 2.511 3 3 C3.66 2.67 4.32 2.34 5 2 C5 2.66 5 3.32 5 4 C5.66 4 6.32 4 7 4 C7.144 4.639 7.289 5.279 7.438 5.938 C7.623 6.618 7.809 7.299 8 8 C8.992 8.357 9.992 8.693 11 9 C11.188 10.562 11.188 10.562 11 12 C11.66 12 12.32 12 13 12 C14.006 13.054 14.006 13.054 15.059 14.52 C15.445 15.047 15.831 15.575 16.229 16.119 C16.428 16.399 16.428 16.399 17.438 17.812 C18.226 18.904 19.016 19.994 19.809 21.082 C20.182 21.595 20.555 22.108 20.94 22.636 C21.838 23.791 22.73 24.764 23.805 25.75 C24.199 26.163 24.594 26.575 25 27 C24.688 29.188 24.688 29.188 24 31 C22.562 30.625 22.562 30.625 21 30 C20.67 29.34 20.34 28.68 20 28 C19.01 28 18.02 28 17 28 C17.33 26.02 17.66 24.04 18 22 C17.01 22 16.02 22 15 22 C15 21.34 15 20.68 15 20 C14.34 20 13.68 20 13 20 C11.93 18.539 11.93 18.539 10.875 16.625 C10.522 15.999 10.169 15.372 9.805 14.727 C9 13 9 13 9 11 C7.35 11.33 5.7 11.66 4 12 C4 11.34 4 10.68 4 10 C3.01 10.33 2.02 10.66 1 11 C0.12 7.261 -0.119 3.836 0 0 Z " fill="#CAC396" transform="translate(56,21)"/>
<path d="M0 0 C0.33 0 0.66 0 1 0 C1.054 1.48 1.094 2.957 1.125 4.438 C1.148 5.261 1.171 6.085 1.195 6.934 C1.131 7.616 1.066 8.297 1 9 C-1.513 10.257 -3.699 10.155 -6.444 10.161 C-6.721 10.164 -6.721 10.164 -8.124 10.176 C-9.959 10.191 -11.794 10.198 -13.629 10.203 C-14.902 10.209 -16.174 10.215 -17.447 10.22 C-20.114 10.231 -22.782 10.237 -25.449 10.24 C-28.875 10.246 -32.3 10.27 -35.726 10.298 C-38.353 10.317 -40.981 10.322 -43.609 10.324 C-44.872 10.327 -46.136 10.335 -47.399 10.348 C-49.162 10.365 -50.923 10.363 -52.686 10.356 C-52.949 10.361 -52.949 10.361 -54.281 10.384 C-55.729 10.367 -55.729 10.367 -58 10 C-58.33 9.01 -58.66 8.02 -59 7 C-39.53 7 -20.06 7 0 7 C0 4.69 0 2.38 0 0 Z " fill="#A09D87" transform="translate(103,104)"/>
<path d="M0 0 C0 8.91 0 17.82 0 27 C-0.33 27 -0.66 27 -1 27 C-1 22.38 -1 17.76 -1 13 C-1.66 13 -2.32 13 -3 13 C-3.33 15.97 -3.66 18.94 -4 22 C-4.66 22 -5.32 22 -6 22 C-6 23.98 -6 25.96 -6 28 C-6.33 28 -6.66 28 -7 28 C-7.149 24.816 -7.258 21.634 -7.33 18.448 C-7.36 17.366 -7.4 16.285 -7.453 15.204 C-7.875 6.222 -7.875 6.222 -5.673 3.146 C-1.96 0 -1.96 0 0 0 Z " fill="#CFC487" transform="translate(103,68)"/>
<path d="M0 0 C3.735 1.019 6.088 2.787 8.812 5.5 C9.126 5.809 9.44 6.118 9.764 6.436 C12 8.741 12 8.741 12 11 C12.66 11 13.32 11 14 11 C13.78 12.482 13.78 12.482 13 14 C11.385 14.282 10.141 14.351 8.527 14.293 C8.085 14.289 7.642 14.284 7.186 14.28 C5.769 14.263 4.354 14.226 2.938 14.188 C1.979 14.172 1.02 14.159 0.061 14.146 C-2.294 14.113 -4.647 14.062 -7 14 C-7 13.34 -7 12.68 -7 12 C-6.218 11.974 -5.435 11.948 -4.629 11.922 C-3.607 11.866 -2.585 11.808 -1.562 11.75 C-1.046 11.736 -0.53 11.722 0.002 11.707 C1.44 11.613 2.645 11.494 4 11 C5 9.188 5 9.188 5 7 C4.004 5.078 4.004 5.078 2.562 3.25 C2.089 2.636 1.616 2.023 1.129 1.391 C0.756 0.932 0.384 0.473 0 0 Z " fill="#D1C993" transform="translate(81,53)"/>
<path d="M0 0 C0.188 1.438 0.188 1.438 0 3 C-2.18 3.992 -4.166 4.135 -6.538 4.161 C-7.235 4.171 -7.932 4.18 -8.651 4.19 C-9.024 4.192 -9.024 4.192 -10.914 4.203 C-11.684 4.209 -12.455 4.215 -13.248 4.22 C-14.874 4.23 -16.499 4.236 -18.125 4.24 C-19.795 4.245 -21.465 4.259 -23.136 4.281 C-25.541 4.312 -27.946 4.322 -30.352 4.328 C-31.103 4.34 -31.854 4.353 -32.627 4.366 C-33.318 4.363 -34.009 4.36 -34.721 4.356 C-35.332 4.36 -35.942 4.364 -36.571 4.367 C-37.043 4.246 -37.514 4.125 -38 4 C-38.705 2.478 -38.705 2.478 -39 1 C-34.21 0.869 -29.421 0.739 -24.631 0.609 C-22.407 0.548 -20.183 0.488 -17.959 0.427 C-15.402 0.357 -12.846 0.288 -10.289 0.219 C-9.49 0.197 -8.691 0.175 -7.868 0.152 C-7.127 0.132 -6.387 0.112 -5.624 0.092 C-5.297 0.083 -5.297 0.083 -3.645 0.038 C-2.43 0.01 -1.215 0 0 0 Z " fill="#8D8869" transform="translate(96,66)"/>
<path d="M0 0 C-0.264 1.475 -0.264 1.475 -1 3 C-2.658 3.385 -2.658 3.385 -4.781 3.406 C-5.541 3.428 -6.3 3.45 -7.082 3.473 C-7.888 3.482 -7.888 3.482 -11.918 3.527 C-12.677 3.549 -13.436 3.571 -14.219 3.594 C-14.919 3.601 -15.62 3.608 -16.342 3.615 C-16.889 3.742 -17.436 3.869 -18 4 C-18.648 5.507 -18.648 5.507 -19 7 C-20.41 7.293 -20.41 7.293 -22.062 7.188 C-22.61 7.16 -23.158 7.133 -23.723 7.105 C-24.144 7.071 -24.566 7.036 -25 7 C-25.312 5.688 -25.312 5.688 -25 4 C-21.461 0.404 -16.671 0.464 -11.938 0.312 C-11.23 0.278 -10.523 0.244 -9.795 0.209 C-6.529 0.059 -3.27 -0.042 0 0 Z " fill="#E0D8A9" transform="translate(72,103)"/>
<path d="M0 0 C1.259 -0.361 1.259 -0.361 2.867 -0.341 C3.468 -0.34 4.069 -0.34 4.687 -0.34 C5.338 -0.324 5.989 -0.309 6.66 -0.293 C6.992 -0.291 6.992 -0.291 8.674 -0.28 C10.804 -0.263 12.933 -0.226 15.062 -0.188 C16.503 -0.172 17.944 -0.159 19.385 -0.146 C22.923 -0.113 26.462 -0.063 30 0 C30 0.66 30 1.32 30 2 C19.656 2.657 9.366 3.165 -1 3 C-0.679 1.521 -0.679 1.521 0 0 Z " fill="#E8E3BC" transform="translate(25,17)"/>
<path d="M0 0 C7.92 0 15.84 0 24 0 C24 0.66 24 1.32 24 2 C24.66 2.33 25.32 2.66 26 3 C22.031 3.193 18.062 3.371 14.092 3.537 C12.741 3.596 11.389 3.658 10.038 3.724 C8.1 3.817 6.162 3.898 4.223 3.977 C3.615 4.009 3.008 4.041 2.382 4.074 C1.822 4.094 1.261 4.114 0.684 4.135 C0.189 4.157 -0.307 4.18 -0.817 4.203 C-1.207 4.136 -1.598 4.069 -2 4 C-2.33 3.34 -2.66 2.68 -3 2 C-2.01 2 -1.02 2 0 2 C0 1.34 0 0.68 0 0 Z " fill="#E5DFAD" transform="translate(35,59)"/>
<path d="M0 0 C1.281 -0.242 1.281 -0.242 3 0 C4.296 1.267 5.383 2.466 6.5 3.875 C9.653 7.771 9.653 7.771 11.719 9.133 C12.142 9.419 12.564 9.705 13 10 C13 10.66 13 11.32 13 12 C15 12.625 15 12.625 17 13 C16.67 14.32 16.34 15.64 16 17 C15.457 16.422 14.915 15.845 14.355 15.25 C13.633 14.5 12.911 13.75 12.188 13 C11.831 12.618 11.475 12.237 11.107 11.844 C8.394 9.056 8.394 9.056 6.238 8.75 C6.034 8.791 6.034 8.791 5 9 C5 8.34 5 7.68 5 7 C4.34 7 3.68 7 3 7 C3 6.34 3 5.68 3 5 C2.34 5 1.68 5 1 5 C0.586 3.906 0.586 3.906 0.375 2.5 C0.3 2.036 0.225 1.572 0.148 1.094 C0.099 0.733 0.05 0.372 0 0 Z " fill="#D5CE9C" transform="translate(28,21)"/>
<path d="M0 0 C0.248 0.474 0.495 0.949 0.75 1.438 C2 3 2 3 4.125 3.375 C4.744 3.581 5.362 3.788 6 4 C6.372 6.073 6.545 7.058 6 9 C4.5 10.312 4.5 10.312 3 11 C3.33 9.68 3.66 8.36 4 7 C3.625 7.142 3.25 7.284 2.863 7.43 C1.097 7.937 -0.163 8.194 -2 8 C-4.064 6.267 -5.529 4.246 -7 2 C-5.605 1.441 -5.605 1.441 -4 1 C-2.312 1.938 -2.312 1.938 -1 3 C-0.67 2.01 -0.34 1.02 0 0 Z " fill="#C7BD86" transform="translate(63,50)"/>
<path d="M0 0 C1.773 -0.14 3.259 -0.254 5 0 C6.062 1.188 6.062 1.188 7 3 C10.304 7.568 10.304 7.568 12.812 9.125 C13.204 9.414 13.596 9.703 14 10 C13.574 11.555 13.574 11.555 13 13 C0.827 4.136 0.827 4.136 0 0 Z " fill="#CCC596" transform="translate(54,81)"/>
<path d="M0 0 C1.25 1.938 1.25 1.938 2 4 C1.34 4 0.68 4 0 4 C0.33 4.66 0.66 5.32 1 6 C2.565 6.314 3.983 6.509 5.562 6.625 C5.987 6.664 6.412 6.702 6.85 6.742 C7.899 6.837 8.949 6.919 10 7 C10 7.33 10 7.66 10 8 C4.72 8 -0.56 8 -6 8 C-4 1 -4 1 -2 -0.188 C-1.34 -0.126 -0.68 -0.064 0 0 Z " fill="#CFC488" transform="translate(63,59)"/>
<path d="M0 0 C0.454 0.516 0.907 1.031 1.375 1.562 C1.911 2.037 2.447 2.511 3 3 C3.66 2.67 4.32 2.34 5 2 C5 2.66 5 3.32 5 4 C5.66 4 6.32 4 7 4 C7.688 5.938 7.688 5.938 8 8 C6.667 9.333 5.333 10.667 4 12 C4 11.34 4 10.68 4 10 C3.01 10.33 2.02 10.66 1 11 C0.12 7.261 -0.119 3.836 0 0 Z " fill="#C5BB84" transform="translate(56,21)"/>
<path d="M0 0 C-0.165 0.639 -0.33 1.279 -0.5 1.938 C-1 4 -1 4 -1 5 C-0.01 5.165 -0.01 5.165 5 6 C5 6.66 5 7.32 5 8 C1.7 8 -1.6 8 -5 8 C-5 6.35 -5 4.7 -5 3 C-5.66 2.67 -6.32 2.34 -7 2 C-4.567 0.658 -2.811 -0.281 0 0 Z " fill="#CDC38D" transform="translate(78,103)"/>
<path d="M0 0 C0.696 0.615 1.382 1.243 2.062 1.875 C2.445 2.223 2.828 2.571 3.223 2.93 C3.479 3.283 3.736 3.636 4 4 C3.67 4.66 3.34 5.32 3 6 C2.34 5.979 1.68 5.959 1 5.938 C0.67 5.948 0.67 5.948 -1 6 C-1.346 6.996 -1.679 7.996 -2 9 C-4 9.812 -4 9.812 -6 10 C-6.33 9.34 -6.66 8.68 -7 8 C-6.34 7.67 -5.68 7.34 -5 7 C-5.99 6.01 -6.98 5.02 -8 4 C-7.25 2.938 -7.25 2.938 -6 2 C-5.67 2.093 -5.67 2.093 -4 2.562 C-3.34 2.707 -2.68 2.851 -2 3 C-0.75 1.562 -0.75 1.562 0 0 Z " fill="#D2CA97" transform="translate(77,90)"/>
<path d="M0 0 C0 1.65 0 3.3 0 5 C-0.454 4.938 -0.907 4.876 -1.375 4.812 C-3 5 -3 5 -4.076 6.22 C-5.238 8.458 -5.318 10.151 -5.414 12.668 C-5.433 13.108 -5.453 13.547 -5.473 14 C-5.532 15.396 -5.579 16.791 -5.625 18.188 C-5.663 19.137 -5.702 20.087 -5.742 21.037 C-5.838 23.358 -5.922 25.679 -6 28 C-6.33 28 -6.66 28 -7 28 C-7.149 24.816 -7.258 21.634 -7.33 18.448 C-7.36 17.366 -7.4 16.285 -7.453 15.204 C-7.875 6.222 -7.875 6.222 -5.673 3.146 C-1.96 0 -1.96 0 0 0 Z " fill="#EEEAC7" transform="translate(103,68)"/>
<path d="M0 0 C1.126 0.957 2.251 1.916 3.375 2.875 C4.001 3.409 4.628 3.942 5.273 4.492 C7 6 7 6 8.102 7.172 C9 8 9 8 11 8.375 C13 9 13 9 14.125 11 C14.414 11.66 14.703 12.32 15 13 C15.66 13.33 16.32 13.66 17 14 C17 14.66 17 15.32 17 16 C15.215 16.23 15.215 16.23 13 16 C11.651 14.784 10.658 13.725 9.562 12.312 C8.959 11.574 8.353 10.837 7.746 10.102 C7.452 9.741 7.158 9.38 6.855 9.009 C5.353 7.236 3.655 5.674 1.945 4.105 C0.835 2.807 0.441 1.638 0 0 Z " fill="#C5BE98" transform="translate(35,29)"/>
<path d="M0 0 C2 0 2 0 2.885 0.794 C3.828 1.982 4.766 3.171 5.688 4.375 C6.021 4.787 6.354 5.2 6.697 5.625 C7.007 6.025 7.317 6.424 7.637 6.836 C7.922 7.203 8.208 7.569 8.503 7.947 C8.667 8.294 8.831 8.642 9 9 C8.67 9.66 8.34 10.32 8 11 C4.238 9.408 0.607 7.187 -2 4 C-1.5 1.688 -1.5 1.688 0 0 Z " fill="#C8C294" transform="translate(62,73)"/>
<path d="M0 0 C2.062 -0.125 2.062 -0.125 4 0 C4 2.31 4 4.62 4 7 C4.66 7 5.32 7 6 7 C5.67 8.32 5.34 9.64 5 11 C3.125 10.211 1.522 9.361 0 8 C-0.8 6.014 -1.083 4.137 -1 2 C-0.67 1.34 -0.34 0.68 0 0 Z " fill="#C2B778" transform="translate(54,62)"/>
<path d="" fill="#F6F6F6" transform="translate(0,0)"/>
<path d="" fill="#FAF6F5" transform="translate(0,0)"/>
<path d="" fill="#FBF7F4" transform="translate(0,0)"/>
<path d="" fill="#F8F7F5" transform="translate(0,0)"/>
<path d="" fill="#F6F7FB" transform="translate(0,0)"/>
<path d="" fill="#FAFBF3" transform="translate(0,0)"/>
<path d="" fill="#F9F8F4" transform="translate(0,0)"/>
<path d="" fill="#F8F8F8" transform="translate(0,0)"/>
<path d="" fill="#F7F7F7" transform="translate(0,0)"/>
<path d="" fill="#F7F7F7" transform="translate(0,0)"/>
<path d="" fill="#FAF9F4" transform="translate(0,0)"/>
<path d="" fill="#F8F8F8" transform="translate(0,0)"/>
<path d="" fill="#F6F6F6" transform="translate(0,0)"/>
<path d="" fill="#F8F8F6" transform="translate(0,0)"/>
<path d="" fill="#F8F9F4" transform="translate(0,0)"/>
<path d="" fill="#FCF7F1" transform="translate(0,0)"/>
<path d="" fill="#F9F7F8" transform="translate(0,0)"/>
<path d="" fill="#FAF9F4" transform="translate(0,0)"/>
<path d="" fill="#F6F6F4" transform="translate(0,0)"/>
<path d="" fill="#F8F3ED" transform="translate(0,0)"/>
<path d="" fill="#F3F5F4" transform="translate(0,0)"/>
<path d="" fill="#F8F9F4" transform="translate(0,0)"/>
<path d="" fill="#FAF6F7" transform="translate(0,0)"/>
<path d="" fill="#F8FAF5" transform="translate(0,0)"/>
<path d="" fill="#F8F6F9" transform="translate(0,0)"/>
<path d="" fill="#FAF9F4" transform="translate(0,0)"/>
<path d="" fill="#F9F8F6" transform="translate(0,0)"/>
<path d="" fill="#F6F8F3" transform="translate(0,0)"/>
<path d="" fill="#F7F7F7" transform="translate(0,0)"/>
<path d="" fill="#F8F9F3" transform="translate(0,0)"/>
<path d="" fill="#F7F5F8" transform="translate(0,0)"/>
<path d="" fill="#F8F8F8" transform="translate(0,0)"/>
<path d="" fill="#F6F6F6" transform="translate(0,0)"/>
<path d="" fill="#F8FFF1" transform="translate(0,0)"/>
<path d="" fill="#F9FAF5" transform="translate(0,0)"/>
<path d="" fill="#F7FCF5" transform="translate(0,0)"/>
<path d="" fill="#FBF7F4" transform="translate(0,0)"/>
<path d="" fill="#F5F7F6" transform="translate(0,0)"/>
<path d="" fill="#F8F8F8" transform="translate(0,0)"/>
<path d="" fill="#F9FAF4" transform="translate(0,0)"/>
<path d="" fill="#F4F6F1" transform="translate(0,0)"/>
<path d="" fill="#F9F8F6" transform="translate(0,0)"/>
<path d="" fill="#FBF8F3" transform="translate(0,0)"/>
<path d="" fill="#F8F8F6" transform="translate(0,0)"/>
<path d="" fill="#F3F4EE" transform="translate(0,0)"/>
<path d="" fill="#F8F8F8" transform="translate(0,0)"/>
<path d="" fill="#FDF9F0" transform="translate(0,0)"/>
<path d="" fill="#FAF9F5" transform="translate(0,0)"/>
</svg>
