<?xml version="1.0" encoding="UTF-8"?>
<!-- Generator: visioncortex VTracer 0.6.12 -->
<svg version="1.1" xmlns="http://www.w3.org/2000/svg" width="128" height="128">
<path d="M0 0 C2.454 -0.025 4.907 -0.043 7.361 -0.055 C8.599 -0.062 9.836 -0.075 11.074 -0.088 C22.488 -0.134 22.488 -0.134 25.002 1.752 C25.902 2.705 26.668 3.689 27.438 4.75 C30.113 8.13 32.831 10.452 36.441 12.855 C38.363 14.267 39.638 15.828 41.027 17.746 C42.133 19.171 43.369 20.334 44.688 21.562 C46.754 23.566 47.673 25.057 48 28 C47.34 28 46.68 28 46 28 C46 28.66 46 29.32 46 30 C44.757 31.225 43.529 32.331 42.188 33.438 C41.472 34.039 40.757 34.642 40.043 35.246 C39.694 35.541 39.345 35.835 38.985 36.138 C38.103 36.91 37.266 37.734 36.438 38.562 C34.501 40.499 32.363 42.133 30.207 43.816 C29.809 44.207 29.41 44.598 29 45 C29 47 29 47 29.699 47.965 C31.943 50.173 34.159 51.821 36.949 53.289 C38 54 38 54 39 56 C40.051 56.711 40.051 56.711 41.312 57.375 C43.895 58.854 46.237 60.567 48 63 C48 63.66 48 64.32 48 65 C47.159 65.743 47.159 65.743 45.959 66.445 C45.51 66.714 45.06 66.982 44.597 67.258 C44.101 67.544 43.605 67.83 43.094 68.125 C42.838 68.277 42.838 68.277 41.542 69.045 C39.865 70.037 38.183 71.018 36.5 72 C34.204 73.351 31.91 74.707 29.617 76.062 C29.048 76.398 28.479 76.734 27.892 77.08 C24.516 79.077 21.179 81.123 17.883 83.25 C17.696 83.37 17.696 83.37 16.751 83.977 C15.054 85.07 13.365 86.173 11.686 87.293 C11.101 87.671 10.516 88.048 9.914 88.438 C9.419 88.766 8.923 89.095 8.413 89.434 C7 90 7 90 5.318 89.598 C4.883 89.4 4.448 89.203 4 89 C4.134 88.878 4.134 88.878 4.812 88.258 C7.061 86.113 9.11 83.902 11.008 81.441 C11.182 81.215 11.182 81.215 12.066 80.072 C12.767 79.155 13.46 78.232 14.145 77.303 C14.471 76.877 14.797 76.451 15.133 76.012 C15.42 75.625 15.708 75.237 16.004 74.839 C17 74 17 74 18.617 73.874 C18.845 73.895 18.845 73.895 20 74 C20 73.34 20 72.68 20 72 C20.66 72 21.32 72 22 72 C22.309 71.361 22.619 70.721 22.938 70.062 C24 68 24 68 25.625 67.25 C26.079 67.168 26.532 67.085 27 67 C25.536 63.415 23.643 61.597 20.562 59.312 C20.167 59.005 19.772 58.698 19.365 58.381 C17.648 57.075 16.281 56.092 14.215 55.418 C13.814 55.28 13.413 55.142 13 55 C13 54.34 13 53.68 13 53 C12.402 52.856 11.804 52.711 11.188 52.562 C8.578 51.892 7.547 51.199 6 49 C6 46.755 6.536 45.528 8.016 43.844 C8.865 43.005 9.728 42.18 10.602 41.367 C12.534 39.478 14.145 37.375 15.789 35.234 C17.169 33.828 18.148 33.582 20 33 C21.352 31.914 21.352 31.914 22.625 30.625 C23.05 30.205 23.476 29.785 23.914 29.352 C25.06 27.925 25.538 26.757 26 25 C25.403 24.733 24.806 24.466 24.191 24.191 C21.954 22.975 20.656 21.796 18.938 19.938 C15.525 16.355 11.779 13.271 7.908 10.197 C5.776 8.495 3.67 6.772 1.668 4.918 C1.345 4.62 1.021 4.323 0.688 4.016 C-0.242 2.643 -0.122 1.621 0 0 Z " fill="#CDBF7C" transform="translate(64,23)"/>
<path d="M0 0 C2.936 -0.025 5.872 -0.043 8.807 -0.055 C9.805 -0.06 10.803 -0.067 11.802 -0.075 C13.239 -0.088 14.676 -0.093 16.113 -0.098 C16.335 -0.1 16.335 -0.1 17.458 -0.113 C19.83 -0.114 21.823 0.022 24 1 C25.141 2.199 25.141 2.199 26.25 3.688 C28.656 6.717 31.337 9.096 34.305 11.562 C36.679 13.576 38.833 15.768 41 18 C41.77 18.772 42.54 19.543 43.312 20.312 C44.856 21.851 46.391 23.397 47.918 24.953 C51.456 28.545 54.956 31.967 59 35 C58.278 35.392 57.556 35.784 56.812 36.188 C54.816 37.38 53.276 38.641 51.68 40.328 C48.641 43.432 45.28 46.05 41.842 48.693 C39.042 50.914 37.3 52.647 36 56 C36.66 56.124 37.32 56.248 38 56.375 C38.66 56.581 39.32 56.787 40 57 C40 57.66 40 58.32 40 59 C40.446 58.954 40.892 58.907 41.352 58.859 C43.483 59.041 43.965 59.679 45.375 61.25 C47.469 63.51 49.631 65.283 52.18 67.008 C53 68 53 68 52.934 69.461 C51.555 71.734 49.53 72.448 47.188 73.5 C41.074 76.39 35.163 79.6 29.25 82.875 C28.335 83.381 27.42 83.887 26.505 84.393 C24.335 85.593 22.167 86.796 20 88 C19.917 84.601 20.966 82.69 23 80 C24.375 79 24.375 79 26 78 C29.084 75.354 31.53 73.23 32 69 C31.505 68.897 31.01 68.794 30.5 68.688 C30.005 68.461 29.51 68.234 29 68 C29.021 67.526 29.041 67.051 29.062 66.562 C29.042 66.047 29.021 65.531 29 65 C28.085 64.51 27.164 64.029 26.223 63.592 C23.935 62.485 21.818 61.13 19.688 59.75 C19.22 59.475 18.753 59.201 18.271 58.918 C16.917 58.026 15.947 57.319 15 56 C14.789 53.825 15.1 51.99 16 50 C17.161 49.029 18.255 48.435 19.613 47.77 C21.665 46.631 23.068 45.014 24.672 43.324 C26.097 41.903 27.608 40.684 29.188 39.438 C33.413 35.937 33.413 35.937 34 33 C33.082 32.28 32.156 31.569 31.199 30.901 C28.99 29.241 27.162 27.175 25.25 25.188 C21.546 21.388 17.784 18.137 13.398 15.156 C12.937 14.775 12.475 14.393 12 14 C12 13.34 12 12.68 12 12 C10.188 11 10.188 11 8 10 C6.25 9 6.25 9 5 8 C5 7.34 5 6.68 5 6 C4.68 5.856 4.68 5.856 3.062 5.125 C1 4 1 4 0.371 1.93 C0.249 1.293 0.126 0.656 0 0 Z " fill="#D9CF97" transform="translate(17,16)"/>
<path d="M0 0 C0.66 0.33 1.32 0.66 2 1 C-0.517 4.48 -3.272 7.214 -6.633 9.887 C-8 11 -8 11 -8.984 11.988 C-10.759 13.756 -12.789 15.236 -14.758 16.781 C-15.168 17.183 -15.578 17.586 -16 18 C-16 20 -16 20 -15.301 20.965 C-13.057 23.173 -10.841 24.821 -8.051 26.289 C-7 27 -7 27 -6 29 C-4.949 29.711 -4.949 29.711 -3.688 30.375 C-1.105 31.854 1.237 33.567 3 36 C3 36.66 3 37.32 3 38 C2.159 38.743 2.159 38.743 0.959 39.445 C0.51 39.714 0.06 39.982 -0.403 40.258 C-0.899 40.544 -1.395 40.83 -1.906 41.125 C-2.418 41.428 -2.931 41.732 -3.458 42.045 C-5.135 43.037 -6.817 44.018 -8.5 45 C-10.796 46.351 -13.09 47.707 -15.383 49.062 C-15.952 49.398 -16.521 49.734 -17.108 50.08 C-20.484 52.077 -23.821 54.123 -27.117 56.25 C-27.491 56.49 -27.864 56.73 -28.249 56.977 C-29.946 58.07 -31.635 59.173 -33.314 60.293 C-33.899 60.671 -34.484 61.048 -35.086 61.438 C-35.334 61.602 -35.334 61.602 -36.587 62.434 C-38 63 -38 63 -39.682 62.598 C-40.117 62.4 -40.552 62.203 -41 62 C-40.732 61.755 -40.464 61.51 -40.188 61.258 C-37.939 59.113 -35.89 56.902 -33.992 54.441 C-33.643 53.989 -33.294 53.537 -32.934 53.072 C-32.233 52.155 -31.54 51.232 -30.855 50.303 C-30.529 49.877 -30.203 49.451 -29.867 49.012 C-29.723 48.818 -29.723 48.818 -28.996 47.839 C-28 47 -28 47 -26.383 46.874 C-25.927 46.916 -25.47 46.957 -25 47 C-25 46.34 -25 45.68 -25 45 C-24.34 45 -23.68 45 -23 45 C-22.691 44.361 -22.381 43.721 -22.062 43.062 C-21 41 -21 41 -19.375 40.25 C-18.921 40.167 -18.468 40.085 -18 40 C-19.464 36.415 -21.357 34.597 -24.438 32.312 C-24.833 32.005 -25.228 31.698 -25.635 31.381 C-27.352 30.075 -28.719 29.092 -30.785 28.418 C-31.186 28.28 -31.587 28.142 -32 28 C-32 27.34 -32 26.68 -32 26 C-32.598 25.856 -33.196 25.711 -33.812 25.562 C-36.382 24.902 -37.359 24.051 -39 22 C-39 21.34 -39 20.68 -39 20 C-37.68 20.33 -36.36 20.66 -35 21 C-35.103 20.546 -35.206 20.093 -35.312 19.625 C-35.209 19.089 -35.106 18.552 -35 18 C-33.755 17.377 -32.534 16.992 -31.191 16.625 C-30 16 -30 16 -29.527 14.562 C-28.674 12.035 -26.596 11.344 -24.375 10.062 C-22.766 8.819 -22.444 7.952 -22 6 C-20.5 6.375 -20.5 6.375 -19 7 C-19 7.66 -19 8.32 -19 9 C-18.505 9.144 -18.01 9.289 -17.5 9.438 C-17.005 9.623 -16.51 9.809 -16 10 C-15.691 11.477 -15.691 11.477 -16 13 C-17.496 13.59 -17.496 13.59 -19.438 13.938 C-21.375 14.395 -21.375 14.395 -23 15 C-23.938 17.125 -23.938 17.125 -24 19 C-23.34 19 -22.68 19 -22 19 C-22 18.34 -22 17.68 -22 17 C-20.793 16.473 -20.793 16.473 -19.188 16.062 C-15.215 14.85 -13.511 12.971 -11.562 9.375 C-11.358 8.95 -11.153 8.524 -10.941 8.086 C-10 7 -10 7 -8.098 6.547 C-5.516 5.874 -4.628 4.848 -2.875 2.875 C-1.367 1.18 -1.367 1.18 0 0 Z " fill="#CEC07F" transform="translate(109,50)"/>
<path d="M0 0 C2.936 -0.025 5.872 -0.043 8.807 -0.055 C9.805 -0.06 10.803 -0.067 11.802 -0.075 C13.239 -0.088 14.676 -0.093 16.113 -0.098 C16.335 -0.1 16.335 -0.1 17.458 -0.113 C19.83 -0.114 21.823 0.022 24 1 C25.141 2.199 25.141 2.199 26.25 3.688 C28.656 6.717 31.337 9.096 34.305 11.562 C36.247 13.21 38.035 14.955 39.809 16.781 C40.639 17.631 41.487 18.463 42.348 19.281 C44.879 21.702 46.673 23.744 48 27 C47 27 46 27 45 27 C44.464 27.103 43.928 27.206 43.375 27.312 C42.921 27.209 42.468 27.106 42 27 C41.383 25.326 41.224 23.79 41 22 C39.02 22.66 37.04 23.32 35 24 C35.66 24.66 36.32 25.32 37 26 C37.195 27.508 37.195 27.508 37.125 29.125 C37.107 29.664 37.089 30.203 37.07 30.758 C37.047 31.168 37.024 31.578 37 32 C33.645 30.531 31.332 28.63 28.688 26.125 C25.508 23.198 22.416 20.891 18.574 18.867 C16.193 17.556 13.84 16.019 12 14 C12 13.34 12 12.68 12 12 C10.188 11 10.188 11 8 10 C6.25 9 6.25 9 5 8 C5 7.34 5 6.68 5 6 C4.68 5.856 4.68 5.856 3.062 5.125 C1 4 1 4 0.371 1.93 C0.249 1.293 0.126 0.656 0 0 Z " fill="#D3C37D" transform="translate(17,16)"/>
<path d="M0 0 C3.442 1.501 5.89 3.514 8.625 6.062 C9.407 6.785 10.191 7.505 10.977 8.223 C11.318 8.54 11.659 8.857 12.01 9.184 C13 10 13 10 15 11 C15.167 8.975 15.287 7.017 15 5 C13.5 4.125 13.5 4.125 12 4 C13.648 2.023 14.586 1.097 17.125 0.5 C17.744 0.665 18.362 0.83 19 1 C19.691 2.631 19.874 4.242 20 6 C20.454 5.835 20.907 5.67 21.375 5.5 C23.606 4.814 24.708 4.874 26.859 5.805 C29.152 7.085 31.178 8.521 33.25 10.125 C33.614 10.402 33.977 10.679 34.352 10.965 C35.237 11.64 36.119 12.32 37 13 C36.697 13.231 36.394 13.461 36.082 13.699 C35.663 14.025 35.244 14.351 34.812 14.688 C34.406 15.001 34 15.314 33.582 15.637 C32.201 16.827 30.949 18.054 29.676 19.355 C27.067 21.992 24.273 24.316 21.375 26.625 C14.514 32.114 14.514 32.114 13 34 C12.926 35.605 12.926 35.605 13.312 37.188 C13.432 37.717 13.552 38.247 13.676 38.793 C13.783 39.191 13.89 39.59 14 40 C9.612 40.488 9.612 40.488 7.883 39.109 C7.218 38.378 6.561 37.638 5.914 36.891 C5 36 5 36 3.25 35.75 C2.837 35.833 2.425 35.915 2 36 C2.33 35.01 2.66 34.02 3 33 C2.34 33 1.68 33 1 33 C1 32.34 1 31.68 1 31 C1.66 31 2.32 31 3 31 C3 29.35 3 27.7 3 26 C4.65 26.33 6.3 26.66 8 27 C7.918 26.361 7.835 25.721 7.75 25.062 C7.832 24.382 7.915 23.701 8 23 C9.938 22.125 9.938 22.125 12 22 C12.33 22.66 12.66 23.32 13 24 C13.33 23.01 13.66 22.02 14 21 C12.68 21 11.36 21 10 21 C10.426 19.162 10.866 17.527 12 16 C13.816 15.841 15.316 16.351 17 17 C16.875 15.125 16.875 15.125 16 13 C14.773 12.465 14.773 12.465 13.25 12.062 C9.445 11.018 7.519 8.941 5 6 C4.765 5.726 4.765 5.726 3.578 4.34 C2.37 2.905 1.178 1.459 0 0 Z " fill="#D1C17F" transform="translate(39,37)"/>
<path d="M0 0 C1.32 0.66 2.64 1.32 4 2 C3.278 2.392 2.556 2.784 1.812 3.188 C-0.182 4.379 -1.727 5.64 -3.324 7.324 C-5.928 9.982 -8.718 12.309 -11.625 14.625 C-18.486 20.114 -18.486 20.114 -20 22 C-20.074 23.605 -20.074 23.605 -19.688 25.188 C-19.568 25.717 -19.448 26.247 -19.324 26.793 C-19.217 27.191 -19.11 27.59 -19 28 C-23.388 28.488 -23.388 28.488 -25.117 27.109 C-25.782 26.378 -26.439 25.638 -27.086 24.891 C-28 24 -28 24 -29.75 23.75 C-29.956 23.791 -29.956 23.791 -31 24 C-30.67 23.01 -30.34 22.02 -30 21 C-30.66 21 -31.32 21 -32 21 C-32 20.34 -32 19.68 -32 19 C-31.34 19 -30.68 19 -30 19 C-30 17.35 -30 15.7 -30 14 C-28.35 14.33 -26.7 14.66 -25 15 C-25.041 14.68 -25.041 14.68 -25.25 13.062 C-25.168 12.382 -25.085 11.701 -25 11 C-23.062 10.125 -23.062 10.125 -21 10 C-20.67 10.66 -20.34 11.32 -20 12 C-19.897 11.546 -19.794 11.093 -19.688 10.625 C-18.769 8.453 -18.15 8.004 -16 7 C-13.678 6.545 -11.353 6.245 -9 6 C-9.33 6.165 -9.33 6.165 -11 7 C-11 7.66 -11 8.32 -11 9 C-11.99 9 -12.98 9 -14 9 C-14 9.66 -14 10.32 -14 11 C-10.2 9.931 -7.672 8.065 -4.75 5.5 C-4.573 5.346 -4.573 5.346 -3.68 4.564 C-2.054 3.1 -0.988 1.977 0 0 Z " fill="#D6C57E" transform="translate(72,49)"/>
<path d="M0 0 C0.456 0.047 0.911 0.094 1.381 0.143 C1.874 0.191 2.367 0.24 2.875 0.289 C3.133 0.317 3.133 0.317 4.439 0.459 C4.959 0.511 5.479 0.564 6.015 0.617 C7.303 0.747 8.59 0.884 9.877 1.022 C8.08 3.006 8.08 3.006 6.252 3.147 C5.798 3.105 5.344 3.064 4.877 3.022 C5.627 4.022 5.627 4.022 6.877 5.022 C7.557 4.96 8.238 4.898 8.939 4.834 C9.259 4.865 9.259 4.865 10.877 5.022 C11.582 6.645 11.751 8.267 11.877 10.022 C12.475 9.671 13.073 9.32 13.689 8.959 C15.877 8.022 15.877 8.022 17.513 8.463 C17.963 8.647 18.413 8.832 18.877 9.022 C14.804 11.286 10.728 13.546 6.651 15.803 C5.265 16.571 3.879 17.34 2.493 18.11 C0.501 19.217 -1.492 20.321 -3.487 21.424 C-4.105 21.769 -4.724 22.114 -5.362 22.469 C-5.942 22.789 -6.523 23.109 -7.121 23.439 C-7.629 23.721 -8.138 24.003 -8.662 24.294 C-10.123 25.021 -11.564 25.545 -13.123 26.022 C-11.435 21.561 -10.159 18.712 -6.123 16.022 C-2.771 13.161 1.154 9.568 1.877 5.022 C0.876 3.235 -0.442 2.161 -2.123 1.022 C-1.123 0.022 -1.123 0.022 0 0 Z " fill="#D4C37C" transform="translate(49.123291015625,77.978271484375)"/>
<path d="M0 0 C0.99 0 1.98 0 3 0 C3 0.99 3 1.98 3 3 C3.66 3 4.32 3 5 3 C6.184 4.023 6.184 4.023 7.438 5.375 C11.225 9.274 11.225 9.274 13 10 C13.474 9.629 13.949 9.258 14.438 8.875 C14.953 8.586 15.469 8.297 16 8 C17.757 8.993 18.919 10.311 20 12 C20.25 14.25 20.25 14.25 20 16 C21.98 16 23.96 16 26 16 C26 15.34 26 14.68 26 14 C26.66 14 27.32 14 28 14 C28 13.34 28 12.68 28 12 C27.01 12.33 26.02 12.66 25 13 C25.33 11.68 25.66 10.36 26 9 C30.848 9.416 32.897 11.383 36 15 C36.397 15.452 36.794 15.905 37.203 16.371 C40 19.69 40 19.69 40 22 C37.893 21.929 35.971 21.78 34 21 C33.083 19.258 33.103 18.013 33 16 C31.02 16.66 29.04 17.32 27 18 C27.66 18.66 28.32 19.32 29 20 C29.195 21.508 29.195 21.508 29.125 23.125 C29.107 23.664 29.089 24.203 29.07 24.758 C29.047 25.168 29.024 25.578 29 26 C25.645 24.531 23.332 22.63 20.688 20.125 C17.504 17.194 14.403 14.892 10.562 12.855 C5.488 10.077 2.361 6.589 0.312 1.188 C0.209 0.796 0.106 0.404 0 0 Z " fill="#E1D28F" transform="translate(25,22)"/>
<path d="M0 0 C6.087 -0.448 11.559 0.12 17 3 C18.414 4.583 18.896 5.889 19 8 C18.625 10.313 18.625 10.313 18 12 C19.32 11.01 20.64 10.02 22 9 C22.339 9.935 22.671 10.873 23 11.812 C23.186 12.335 23.371 12.857 23.562 13.395 C24.002 15.009 24.08 16.336 24 18 C22.708 18.027 21.417 18.046 20.125 18.062 C19.765 18.068 19.765 18.068 17.945 18.098 C16 18 16 18 14 17 C14 16.34 14 15.68 14 15 C13.34 15 12.68 15 12 15 C12.041 14.526 12.082 14.051 12.125 13.562 C12.084 13.047 12.043 12.531 12 12 C11.34 11.67 10.68 11.34 10 11 C10 10.67 10 10.34 10 10 C9.34 10 8.68 10 8 10 C7.732 9.361 7.464 8.721 7.188 8.062 C6.796 7.382 6.404 6.701 6 6 C4.797 5.688 4.797 5.688 3.438 5.562 C2.109 5.414 2.109 5.414 1 5 C0.194 3.284 0.148 1.926 0 0 Z " fill="#D4C27A" transform="translate(73,27)"/>
<path d="M0 0 C2.397 0.131 4.681 0.364 7 1 C8.625 2.875 8.625 2.875 9.262 3.961 C10.168 5.236 11.072 5.749 12.438 6.5 C14.996 7.919 17.268 9.61 19 12 C19 12.66 19 13.32 19 14 C18.159 14.743 18.159 14.743 16.959 15.445 C16.734 15.579 16.734 15.579 15.597 16.258 C15.349 16.401 15.349 16.401 14.094 17.125 C13.582 17.428 13.069 17.732 12.542 18.045 C10.865 19.037 9.183 20.018 7.5 21 C5.204 22.351 2.91 23.707 0.617 25.062 C0.048 25.398 -0.521 25.734 -1.108 26.08 C-4.484 28.077 -7.821 30.123 -11.117 32.25 C-11.491 32.49 -11.864 32.73 -12.249 32.977 C-13.946 34.07 -15.635 35.173 -17.314 36.293 C-17.899 36.671 -18.484 37.048 -19.086 37.438 C-19.334 37.602 -19.334 37.602 -20.587 38.434 C-22 39 -22 39 -23.682 38.598 C-24.117 38.4 -24.552 38.203 -25 38 C-22.963 36.66 -20.92 35.328 -18.875 34 C-18.253 33.595 -17.631 33.19 -16.99 32.773 C-13.709 30.661 -10.41 28.638 -6.988 26.762 C-6.351 26.412 -5.714 26.062 -5.057 25.701 C-3.83 25.036 -2.597 24.382 -1.357 23.74 C2.842 21.463 2.842 21.463 3.762 18.77 C3.801 18.478 3.801 18.478 4 17 C4.66 17 5.32 17 6 17 C6 16.34 6 15.68 6 15 C6.66 15 7.32 15 8 15 C8 14.34 8 13.68 8 13 C9.65 13 11.3 13 13 13 C13 12.34 13 11.68 13 11 C12.34 11 11.68 11 11 11 C10.711 10.526 10.422 10.051 10.125 9.562 C8.65 7.514 7.428 7.405 5 7 C5.33 6.01 5.66 5.02 6 4 C5.01 3.835 5.01 3.835 0 3 C0 2.01 0 1.02 0 0 Z " fill="#E4D898" transform="translate(93,74)"/>
<path d="M0 0 C2.454 -0.025 4.907 -0.043 7.361 -0.055 C8.599 -0.062 9.836 -0.075 11.074 -0.088 C22.488 -0.134 22.488 -0.134 25.002 1.752 C25.902 2.705 26.668 3.689 27.438 4.75 C30.109 8.125 32.817 10.45 36.43 12.84 C38.417 14.308 39.768 15.971 41.176 17.984 C42 19 42 19 44 20 C43.625 22.062 43.625 22.062 43 24 C34.965 23.815 34.965 23.815 32.77 21.961 C31.284 19.503 30.522 16.819 30 14 C29.01 14.99 28.02 15.98 27 17 C27.005 16.578 27.01 16.157 27.016 15.723 C26.989 12.753 26.874 9.855 26 7 C24 5.625 24 5.625 22 5 C21.67 4.67 21.34 4.34 21 4 C19.609 3.88 18.212 3.821 16.816 3.789 C15.963 3.761 15.109 3.732 14.256 3.703 C12.908 3.662 11.561 3.625 10.214 3.599 C8.914 3.571 7.616 3.525 6.316 3.477 C5.537 3.457 4.758 3.437 3.955 3.417 C2 3 2 3 0.73 1.47 C0.61 1.228 0.61 1.228 0 0 Z " fill="#DBCE94" transform="translate(64,23)"/>
<path d="M0 0 C-0.113 0.835 -0.241 1.668 -0.375 2.5 C-0.445 2.964 -0.514 3.428 -0.586 3.906 C-0.723 4.267 -0.859 4.628 -1 5 C-1.66 5 -2.32 5 -3 5 C-2.742 5.605 -2.484 6.209 -2.219 6.832 C-2.147 7.547 -2.074 8.263 -2 9 C-3.534 10.194 -4.759 10.89 -6.5 11.688 C-7.512 12.19 -8.523 12.697 -9.531 13.207 C-10.084 13.485 -10.637 13.763 -11.207 14.049 C-15.243 16.189 -19.091 18.677 -22.959 21.104 C-23.571 21.48 -24.182 21.855 -24.812 22.242 C-25.355 22.581 -25.898 22.92 -26.457 23.269 C-28.122 24.058 -29.182 24.154 -31 24 C-30.636 23.732 -30.273 23.464 -29.898 23.188 C-26.27 20.359 -23.602 17.413 -21.093 13.592 C-20.395 12.574 -20.395 12.574 -19 11 C-17.324 10.77 -17.324 10.77 -16 11 C-16 10.34 -16 9.68 -16 9 C-15.34 9 -14.68 9 -14 9 C-13.845 8.68 -13.845 8.68 -13.062 7.062 C-12 5 -12 5 -10.375 4.25 C-10.148 4.209 -10.148 4.209 -9 4 C-9.33 2.68 -9.66 1.36 -10 0 C-9.773 0.01 -9.773 0.01 -8.625 0.062 C-0.978 -0.232 -0.978 -0.232 0 0 Z " fill="#DBCE89" transform="translate(100,86)"/>
<path d="M0 0 C0.33 0 0.66 0 1 0 C1 2.31 1 4.62 1 7 C2.231 5.769 2.499 4.647 3 3 C6.877 6.41 6.877 6.41 7.312 8.5 C7.209 8.995 7.106 9.49 7 10 C6.959 10.32 6.959 10.32 6.75 11.938 C5.766 14.644 4.453 16.451 2 18 C0.196 18.328 -1.15 18.206 -3 18 C-3 18.66 -3 19.32 -3 20 C-3.66 20 -4.32 20 -5 20 C-5.528 16.657 -5.528 16.657 -5 15 C-3.488 14.178 -2.09 13.818 -0.41 13.457 C0.055 13.306 0.521 13.155 1 13 C1.33 12.34 1.66 11.68 2 11 C1.004 9.93 1.004 9.93 -0.438 8.875 C-0.911 8.522 -1.384 8.169 -1.871 7.805 C-2.057 7.672 -2.057 7.672 -3 7 C-3.041 7.578 -3.082 8.155 -3.125 8.75 C-4.279 11.718 -5.915 12.455 -8.625 13.973 C-10.28 15.209 -10.366 16.094 -11 18 C-12.652 18.71 -14.196 18.769 -16 19 C-15.34 20.65 -14.68 22.3 -14 24 C-16.374 22.892 -18.214 21.915 -20 20 C-19.709 19.72 -19.417 19.441 -19.117 19.152 C-15.986 16.09 -13.175 12.866 -10.43 9.453 C-9 8 -9 8 -7.516 7.52 C-5.278 6.752 -4.339 5.259 -2.875 3.438 C-1.936 2.276 -0.982 1.126 0 0 Z " fill="#DDCD87" transform="translate(90,49)"/>
<path d="M0 0 C0.33 0.165 0.33 0.165 2 1 C3.424 1.116 4.853 1.178 6.281 1.211 C7.132 1.239 7.982 1.268 8.832 1.297 C10.168 1.338 11.505 1.375 12.841 1.401 C14.135 1.429 15.426 1.475 16.719 1.523 C17.492 1.543 18.264 1.563 19.061 1.583 C21 2 21 2 22.268 3.53 C22.509 4.015 22.751 4.5 23 5 C22.66 4.939 22.319 4.879 21.969 4.816 C17.662 4.072 13.34 3.518 9 3 C9.33 4.65 9.66 6.3 10 8 C10.433 7.814 10.866 7.629 11.312 7.438 C13 7 13 7 14.625 7.125 C16 8 16 8 16.34 9.184 C16.413 9.639 16.487 10.094 16.562 10.562 C16.707 11.367 16.851 12.171 17 13 C17.66 13 18.32 13 19 13 C19.625 11.5 19.625 11.5 20 10 C20 10.66 20 11.32 20 12 C20.66 12.33 21.32 12.66 22 13 C21.67 13.165 21.67 13.165 20 14 C20.25 16.062 20.25 16.062 21 18 C21.66 18 22.32 18 23 18 C23 18.66 23 19.32 23 20 C23.566 19.954 24.132 19.907 24.715 19.859 C26.866 19.754 28.865 19.712 31 20 C32.418 22.335 32.075 23.612 31.562 26.25 C31.377 26.828 31.191 27.405 31 28 C30.34 27.67 29.68 27.34 29 27 C28.875 25.438 28.875 25.438 29 24 C28.26 24.081 27.52 24.162 26.758 24.246 C24.547 24.239 23.523 23.881 21.93 22.348 C21.233 21.596 20.549 20.834 19.875 20.062 C16.115 16.025 12.133 12.515 7.806 9.096 C1.663 4.217 1.663 4.217 0 2 C0 1.34 0 0.68 0 0 Z " fill="#D4C792" transform="translate(64,24)"/>
<path d="M0 0 C1.625 0 1.625 0 3 1 C3.688 3.062 3.688 3.062 4 5 C3.662 4.87 3.325 4.74 2.977 4.605 C1.553 4.165 0.49 3.869 -1 4 C-2.134 5.527 -2.574 7.162 -3 9 C-1.68 9 -0.36 9 1 9 C0.67 10.32 0.34 11.64 0 13 C-0.66 12.67 -1.32 12.34 -2 12 C-1.67 11.34 -1.34 10.68 -1 10 C-3.063 10.75 -3.063 10.75 -5 12 C-4.75 14.125 -4.75 14.125 -4 16 C-5.65 15.67 -7.3 15.34 -9 15 C-9.124 15.66 -9.248 16.32 -9.375 17 C-9.581 17.66 -9.788 18.32 -10 19 C-10.66 19 -11.32 19 -12 19 C-12 19.66 -12 20.32 -12 21 C-11.34 21 -10.68 21 -10 21 C-9.375 23 -9.375 23 -9 25 C-8.67 24.34 -8.34 23.68 -8 23 C-7.01 24.32 -6.02 25.64 -5 27 C-9.876 27.168 -9.876 27.168 -12 26 C-12.062 24.5 -12.062 24.5 -12 23 C-12.66 22.67 -13.32 22.34 -14 22 C-14.625 19.938 -14.625 19.938 -15 18 C-16.32 18.33 -17.64 18.66 -19 19 C-19 18.34 -19 17.68 -19 17 C-18.082 16.324 -18.082 16.324 -16.812 15.688 C-14.207 14.231 -12.372 12.475 -10.324 10.324 C-8.915 8.915 -7.429 7.684 -5.875 6.438 C-4.031 4.952 -2.612 3.604 -1.312 1.625 C-1.096 1.357 -1.096 1.357 0 0 Z " fill="#E7DB9F" transform="translate(52,49)"/>
<path d="M0 0 C0.66 0.33 1.32 0.66 2 1 C-0.517 4.48 -3.272 7.214 -6.633 9.887 C-7.842 10.871 -8.906 11.893 -10 13 C-10.989 13.887 -11.99 14.761 -13 15.625 C-13.516 16.071 -14.031 16.517 -14.562 16.977 C-16 18 -16 18 -18 18 C-18 18.66 -18 19.32 -18 20 C-18.66 20.289 -19.32 20.578 -20 20.875 C-20.33 21.061 -20.33 21.061 -22 22 C-22.5 24 -22.5 24 -22 26 C-20.062 27.062 -20.062 27.062 -18 28 C-17.25 29.625 -17.25 29.625 -17 31 C-18.32 31.33 -19.64 31.66 -21 32 C-21.124 31.34 -21.248 30.68 -21.375 30 C-21.581 29.34 -21.787 28.68 -22 28 C-22.66 28 -23.32 28 -24 28 C-25.688 26.75 -25.688 26.75 -27 25 C-26.688 22.812 -26.688 22.812 -26 21 C-27.98 21.66 -29.96 22.32 -32 23 C-30.723 20.151 -29.473 17.958 -27 16 C-26.34 16.33 -25.68 16.66 -25 17 C-24.875 19.062 -24.875 19.062 -25 21 C-24.34 21 -23.68 21 -23 21 C-22.959 20.691 -22.959 20.691 -22.75 19.125 C-22.626 18.774 -22.626 18.774 -22 17 C-20.527 16.308 -19.055 15.918 -17.488 15.484 C-14.343 14.461 -13.055 12.129 -11.562 9.375 C-11.358 8.95 -11.153 8.524 -10.941 8.086 C-10 7 -10 7 -8.098 6.547 C-5.516 5.874 -4.628 4.848 -2.875 2.875 C-1.367 1.18 -1.367 1.18 0 0 Z " fill="#CDBB74" transform="translate(109,50)"/>
<path d="M0 0 C1.5 0.375 1.5 0.375 3 1 C3 1.66 3 2.32 3 3 C3.495 3.144 3.99 3.289 4.5 3.438 C4.995 3.623 5.49 3.809 6 4 C6.312 5.484 6.312 5.484 6 7 C4.469 7.52 4.469 7.52 2.5 7.812 C0.559 8.262 0.559 8.262 -1 9 C-1.663 11.079 -1.42 12.882 -1 15 C-1.66 15 -2.32 15 -3 15 C-3 13.68 -3 12.36 -3 11 C-4.312 10.688 -4.312 10.688 -6 11 C-7.213 12.557 -8.114 14.241 -9 16 C-7.35 15.67 -5.7 15.34 -4 15 C-4.427 16.84 -4.884 18.459 -6 20 C-7.907 20.405 -9.319 19.932 -11 19 C-12.315 17.121 -12.847 15.568 -13.438 13.375 C-13.293 12.921 -13.149 12.468 -13 12 C-11.751 11.398 -10.529 10.991 -9.191 10.625 C-8 10 -8 10 -7.527 8.562 C-6.674 6.035 -4.596 5.344 -2.375 4.062 C-0.766 2.819 -0.444 1.952 0 0 Z " fill="#D9C77F" transform="translate(87,56)"/>
<path d="M0 0 C0.699 -0.001 1.397 -0.003 2.117 -0.004 C2.479 -0.002 2.479 -0.002 4.312 0.008 C5.037 0.004 5.761 0 6.508 -0.004 C6.857 -0.003 6.857 -0.003 8.625 0 C9.261 0.001 9.896 0.002 10.551 0.003 C13.182 0.197 14.787 0.584 16.629 2.508 C17.04 3.044 17.451 3.58 17.875 4.133 C20.113 7.033 20.113 7.033 22.312 8.133 C22.884 9.779 23.046 11.401 23.312 13.133 C22.352 12.849 21.394 12.555 20.438 12.258 C19.904 12.095 19.37 11.933 18.82 11.766 C17.213 11.091 16.359 10.523 15.312 9.133 C15.354 8.452 15.395 7.772 15.438 7.07 C15.396 6.431 15.355 5.792 15.312 5.133 C13.688 4.508 13.688 4.508 11.312 4.133 C10.224 3.796 9.14 3.441 8.062 3.07 C7.542 2.894 7.021 2.717 6.484 2.535 C6.098 2.402 5.711 2.27 5.312 2.133 C5.312 2.793 5.312 3.453 5.312 4.133 C4.963 4.037 4.614 3.942 4.254 3.844 C3.799 3.733 3.344 3.622 2.875 3.508 C2.649 3.45 2.649 3.45 1.504 3.156 C1.307 3.152 1.307 3.152 0.312 3.133 C-0.017 3.793 -0.348 4.453 -0.688 5.133 C-2.75 5.258 -2.75 5.258 -4.688 5.133 C-4.688 4.473 -4.688 3.813 -4.688 3.133 C-5.348 3.133 -6.008 3.133 -6.688 3.133 C-6.688 2.473 -6.688 1.813 -6.688 1.133 C-4.488 0.064 -2.415 0.004 0 0 Z " fill="#DDD4A3" transform="translate(25.6875,15.8671875)"/>
<path d="M0 0 C1.862 -0.036 3.191 0.429 5 1 C4.34 2.32 3.68 3.64 3 5 C4.65 4.67 6.3 4.34 8 4 C8 4.66 8 5.32 8 6 C6.595 6.93 6.595 6.93 4.641 7.875 C3.937 8.22 3.233 8.566 2.508 8.922 C1.755 9.281 1.003 9.641 0.25 10 C-0.48 10.356 -1.209 10.712 -1.961 11.078 C-3.331 11.746 -4.703 12.41 -6.077 13.07 C-8.061 14.029 -10.031 15.011 -12 16 C-10.902 12.614 -10.136 10.858 -7 9 C-2.125 4.711 -2.125 4.711 -1 1.625 C-0.67 1.089 -0.34 0.552 0 0 Z " fill="#F0EFC4" transform="translate(50,85)"/>
<path d="M0 0 C1.32 0.66 2.64 1.32 4 2 C3.639 2.196 3.639 2.196 1.812 3.188 C-0.182 4.38 -1.729 5.641 -3.328 7.324 C-5.918 9.968 -8.681 12.307 -11.562 14.625 C-12.031 15.007 -12.5 15.388 -12.982 15.781 C-15.613 17.915 -18.276 19.988 -21 22 C-19.998 19.765 -19.189 18.174 -17.375 16.5 C-16 15 -16 15 -15.812 12.812 C-15.843 12.513 -15.843 12.513 -16 11 C-16.99 11.33 -17.98 11.66 -19 12 C-19.188 10.625 -19.188 10.625 -19 9 C-16.447 6.297 -12.503 6.365 -9 6 C-9.33 6.165 -9.33 6.165 -11 7 C-11 7.66 -11 8.32 -11 9 C-11.99 9 -12.98 9 -14 9 C-14 9.66 -14 10.32 -14 11 C-10.2 9.931 -7.672 8.065 -4.75 5.5 C-4.573 5.346 -4.573 5.346 -3.68 4.564 C-2.054 3.1 -0.988 1.977 0 0 Z " fill="#958C62" transform="translate(72,49)"/>
<path d="M0 0 C2.454 -0.025 4.907 -0.043 7.361 -0.055 C8.599 -0.062 9.836 -0.075 11.074 -0.088 C23.105 -0.137 23.105 -0.137 26.117 2.742 C26.718 3.44 27.305 4.152 27.875 4.875 C28.182 5.227 28.489 5.579 28.805 5.941 C30.139 7.544 30.962 8.66 31.195 10.758 C31.131 11.168 31.066 11.578 31 12 C30.34 12 29.68 12 29 12 C29 11.34 29 10.68 29 10 C28.505 9.835 28.01 9.67 27.5 9.5 C27.005 9.335 26.51 9.17 26 9 C26 8.34 26 7.68 26 7 C24.062 5.938 24.062 5.938 22 5 C21.67 4.67 21.34 4.34 21 4 C19.609 3.88 18.212 3.821 16.816 3.789 C15.963 3.761 15.109 3.732 14.256 3.703 C12.908 3.662 11.561 3.625 10.214 3.599 C8.914 3.571 7.616 3.525 6.316 3.477 C5.537 3.457 4.758 3.437 3.955 3.417 C2 3 2 3 0.73 1.47 C0.61 1.228 0.61 1.228 0 0 Z " fill="#E6DFAC" transform="translate(64,23)"/>
<path d="M0 0 C0.66 0.33 1.32 0.66 2 1 C-5.246 5.99 -12.736 10.559 -20.277 15.088 C-22.329 16.322 -24.376 17.564 -26.424 18.807 C-27.737 19.597 -29.05 20.387 -30.363 21.176 C-30.971 21.546 -31.578 21.915 -32.204 22.296 C-35.114 24.033 -37.638 25.447 -41 26 C-37.607 22.18 -33.73 19.888 -29.312 17.375 C-28.566 16.944 -27.82 16.512 -27.074 16.08 C-25.516 15.178 -23.957 14.279 -22.396 13.382 C-18.832 11.33 -15.287 9.244 -11.743 7.158 C-10.645 6.512 -9.546 5.868 -8.447 5.224 C-7.776 4.83 -7.105 4.437 -6.414 4.031 C-6.12 3.859 -6.12 3.859 -4.631 2.986 C-3 2 -3 2 -1.412 0.811 C-0.946 0.543 -0.48 0.276 0 0 Z " fill="#605C48" transform="translate(109,87)"/>
<path d="M0 0 C0.99 0.99 1.98 1.98 3 3 C2.242 4.175 1.468 5.34 0.688 6.5 C0.258 7.15 -0.171 7.799 -0.613 8.469 C-2 10 -2 10 -3.668 10.219 C-4.108 10.147 -4.547 10.074 -5 10 C-4.959 10.474 -4.918 10.949 -4.875 11.438 C-4.916 11.953 -4.957 12.469 -5 13 C-5.33 13.165 -5.33 13.165 -7 14 C-7.094 14.602 -7.188 15.204 -7.285 15.824 C-8.356 19.083 -10.587 20.099 -13.438 21.812 C-13.689 21.975 -13.689 21.975 -14.963 22.795 C-17.75 24.523 -17.75 24.523 -19 25 C-19.66 24.67 -20.32 24.34 -21 24 C-20.636 23.732 -20.273 23.464 -19.898 23.188 C-16.27 20.359 -13.602 17.413 -11.093 13.592 C-10.395 12.574 -10.395 12.574 -9 11 C-7.324 10.77 -7.324 10.77 -6 11 C-6 10.34 -6 9.68 -6 9 C-5.34 9 -4.68 9 -4 9 C-3.845 8.68 -3.845 8.68 -3.062 7.062 C-2 5 -2 5 -0.375 4.25 C-0.148 4.209 -0.148 4.209 1 4 C0.67 2.68 0.34 1.36 0 0 Z " fill="#F0ECC4" transform="translate(90,86)"/>
<path d="M0 0 C0.33 0.165 0.33 0.165 2 1 C2 1.66 2 2.32 2 3 C2.66 3 3.32 3 4 3 C4 3.66 4 4.32 4 5 C4.722 4.649 5.444 4.299 6.188 3.938 C9.136 2.733 10.984 3.138 14 4 C14 3.34 14 2.68 14 2 C15.32 2.66 16.64 3.32 18 4 C17.825 4.144 17.825 4.144 16.938 4.875 C16.628 5.246 16.319 5.617 16 6 C16.33 6.66 16.66 7.32 17 8 C16.062 9.125 16.062 9.125 15 10 C14.67 9.34 14.34 8.68 14 8 C13.01 8.33 12.02 8.66 11 9 C11 8.01 11 7.02 11 6 C10.01 6 9.02 6 8 6 C8.66 6.99 8.66 6.99 12 12 C6.957 9.565 6.957 9.565 5 8 C5 7.34 5 6.68 5 6 C4.68 5.856 4.68 5.856 3.062 5.125 C1 4 1 4 0.25 1.875 C0.168 1.256 0.085 0.637 0 0 Z " fill="#D0C38C" transform="translate(17,16)"/>
<path d="M0 0 C0.376 1.322 0.707 2.657 1 4 C0.25 5.25 0.25 5.25 -1 6 C-1.516 5.959 -2.031 5.918 -2.562 5.875 C-2.8 5.896 -2.8 5.896 -4 6 C-4.052 6.289 -4.052 6.289 -4.312 7.75 C-5.251 10.822 -6.932 11.504 -9.625 13.07 C-11 14 -11 14 -12 16 C-12.66 16 -13.32 16 -14 16 C-14 16.99 -14 17.98 -14 19 C-14.66 19 -15.32 19 -16 19 C-15.34 20.65 -14.68 22.3 -14 24 C-16.374 22.892 -18.214 21.915 -20 20 C-19.709 19.72 -19.417 19.441 -19.117 19.152 C-15.986 16.09 -13.175 12.866 -10.43 9.453 C-9 8 -9 8 -7.52 7.52 C-5.272 6.751 -4.299 5.254 -2.812 3.438 C-2.54 3.108 -2.267 2.779 -1.986 2.439 C-1.318 1.631 -0.658 0.816 0 0 Z " fill="#F1E9BE" transform="translate(90,49)"/>
<path d="M0 0 C0.516 0.268 1.031 0.536 1.562 0.812 C9.536 4.785 9.536 4.785 13.438 5.562 C13.695 5.635 13.695 5.635 15 6 C15 6.66 15 7.32 15 8 C15.66 8 16.32 8 17 8 C17.852 9.312 17.852 9.312 18.625 11 C18.755 11.278 18.755 11.278 19.414 12.688 C19.511 12.904 19.511 12.904 20 14 C19.443 13.711 18.886 13.422 18.312 13.125 C16.734 12.333 15.145 11.642 13.5 11 C11.247 10.107 9.089 9.238 7 8 C7 7.34 7 6.68 7 6 C6.402 5.856 5.804 5.711 5.188 5.562 C2.618 4.902 1.641 4.051 0 2 C0 1.34 0 0.68 0 0 Z " fill="#D3CB97" transform="translate(70,70)"/>
<path d="M0 0 C-4.073 2.264 -8.148 4.524 -12.225 6.781 C-13.612 7.549 -14.998 8.319 -16.384 9.089 C-18.375 10.196 -20.369 11.299 -22.363 12.402 C-22.673 12.575 -22.673 12.575 -24.239 13.447 C-24.819 13.768 -25.399 14.088 -25.997 14.418 C-26.506 14.7 -27.014 14.982 -27.538 15.272 C-28.999 16 -30.441 16.523 -32 17 C-31.781 15.664 -31.781 15.664 -31 14 C-29.502 12.987 -28.105 12.18 -26.5 11.375 C-25.51 10.861 -24.521 10.347 -23.531 9.832 C-23.255 9.69 -23.255 9.69 -21.855 8.971 C-20.137 8.072 -18.436 7.146 -16.739 6.207 C-15.21 5.362 -13.678 4.526 -12.144 3.69 C-11.383 3.272 -10.623 2.852 -9.865 2.429 C-8.791 1.83 -7.708 1.245 -6.625 0.66 C-5.999 0.316 -5.372 -0.028 -4.727 -0.383 C-2.66 -1.121 -1.987 -0.769 0 0 Z " fill="#68644E" transform="translate(68,87)"/>
<path d="M0 0 C2.397 0.131 4.681 0.364 7 1 C8.625 2.875 8.625 2.875 9.262 3.961 C10.168 5.236 11.072 5.749 12.438 6.5 C14.93 7.886 17.464 9.537 19 12 C18.67 12.66 18.34 13.32 18 14 C17.732 13.651 17.464 13.301 17.188 12.941 C14.569 9.901 12.731 8.662 8.688 8.188 C7.46 8.104 6.23 8.034 5 8 C5.33 6.68 5.66 5.36 6 4 C5.01 3.835 5.01 3.835 0 3 C0 2.01 0 1.02 0 0 Z " fill="#D5CB9D" transform="translate(93,74)"/>
<path d="M0 0 C1.375 1.25 1.375 1.25 2 3 C1.67 3.66 1.34 4.32 1 5 C1.474 5.041 1.949 5.082 2.438 5.125 C4 6 4 6 4.422 7.402 C4.667 8.934 4.863 10.455 5 12 C1.477 10.374 -2.084 8.588 -5 6 C-5.688 3.875 -5.688 3.875 -5 2 C-3.43 0.821 -1.962 0.178 0 0 Z " fill="#D0C791" transform="translate(37,66)"/>
<path d="M0 0 C1.32 0.33 2.64 0.66 4 1 C-4.797 11.762 -4.797 11.762 -9.312 12.25 C-9.869 12.168 -10.426 12.085 -11 12 C-11 11.34 -11 10.68 -11 10 C-10.01 10 -9.02 10 -8 10 C-8 9.34 -8 8.68 -8 8 C-7.34 8 -6.68 8 -6 8 C-6 6.02 -6 4.04 -6 2 C-5.67 2.495 -5.67 2.495 -4 5 C-2 4.188 -2 4.188 0 3 C0.25 1.375 0.25 1.375 0 0 Z " fill="#E4D899" transform="translate(69,48)"/>
<path d="M0 0 C1.5 0.375 1.5 0.375 3 1 C3 1.66 3 2.32 3 3 C3.495 3.144 3.99 3.289 4.5 3.438 C4.995 3.623 5.49 3.809 6 4 C6.305 5.465 6.305 5.465 6 7 C4.539 7.695 4.539 7.695 2.625 8.125 C0.546 8.613 -1.078 9.039 -3 10 C-3.33 9.34 -3.66 8.68 -4 8 C-4.66 7.67 -5.32 7.34 -6 7 C-5.651 6.746 -5.301 6.492 -4.941 6.23 C-4.714 6.058 -4.714 6.058 -3.562 5.188 C-3.11 4.851 -2.658 4.515 -2.191 4.168 C-0.838 2.841 -0.454 1.819 0 0 Z " fill="#D2C076" transform="translate(87,56)"/>
<path d="M0 0 C0.433 0.062 0.866 0.124 1.312 0.188 C0.854 3.396 -0.189 5.262 -2.5 7.438 C-4.574 8.748 -6.3 8.453 -8.688 8.188 C-8.688 8.847 -8.688 9.507 -8.688 10.188 C-9.347 10.188 -10.007 10.188 -10.688 10.188 C-11.212 6.863 -11.212 6.863 -10.688 5.188 C-9.226 4.39 -7.826 4.05 -6.211 3.656 C-3.534 2.832 -2.792 0.31 0 0 Z " fill="#E1D38E" transform="translate(95.6875,58.8125)"/>
<path d="M0 0 C0.66 0.33 1.32 0.66 2 1 C-0.517 4.48 -3.272 7.214 -6.633 9.887 C-7.842 10.871 -8.908 11.891 -10 13 C-10.987 13.91 -11.988 14.805 -13 15.688 C-13.516 16.145 -14.031 16.603 -14.562 17.074 C-14.8 17.227 -14.8 17.227 -16 18 C-16.66 17.67 -17.32 17.34 -18 17 C-17.674 16.697 -17.348 16.394 -17.012 16.082 C-14.394 13.572 -12.39 11.327 -10.871 8.016 C-10 7 -10 7 -8.105 6.555 C-5.522 5.874 -4.631 4.851 -2.875 2.875 C-1.367 1.18 -1.367 1.18 0 0 Z " fill="#736C51" transform="translate(109,50)"/>
<path d="M0 0 C0.66 0.33 1.32 0.66 2 1 C-0.344 6.23 -0.344 6.23 -3 8 C-5.685 8.25 -8.312 8.172 -11 8 C-10.625 6.5 -10.625 6.5 -10 5 C-9.34 5 -8.68 5 -8 5 C-8 4.34 -8 3.68 -8 3 C-7.753 2.976 -7.753 2.976 -6.504 2.852 C-6.184 2.814 -6.184 2.814 -4.562 2.625 C-3.924 2.555 -3.286 2.486 -2.629 2.414 C-2.091 2.277 -1.554 2.141 -1 2 C-0.67 1.34 -0.34 0.68 0 0 Z " fill="#E5D796" transform="translate(108,47)"/>
<path d="M0 0 C0.33 0.66 0.66 1.32 1 2 C2.98 1.34 4.96 0.68 7 0 C7.289 0.66 7.578 1.32 7.875 2 C8.061 2.33 8.061 2.33 9 4 C9.66 4 10.32 4 11 4 C11 4.66 11 5.32 11 6 C9.35 6 7.7 6 6 6 C6 6.66 6 7.32 6 8 C5.34 8 4.68 8 4 8 C3 6 3 6 2.625 4.438 C2 3 2 3 0.438 2.312 C-0.037 2.209 -0.511 2.106 -1 2 C-0.67 1.34 -0.34 0.68 0 0 Z " fill="#D2C079" transform="translate(95,81)"/>
<path d="M0 0 C1.868 -0.041 3.184 0.426 5 1 C4.34 2.32 3.68 3.64 3 5 C4.65 4.67 6.3 4.34 8 4 C8 4.66 8 5.32 8 6 C5.837 7.436 3.276 7.954 0.75 8.375 C0.172 8.251 -0.405 8.127 -1 8 C-2.212 5.575 -2.079 4.294 -1.375 1.688 C-0.921 1.131 -0.468 0.574 0 0 Z " fill="#E5DAA2" transform="translate(50,85)"/>
<path d="M0 0 C5.503 2.553 9.11 5.593 12 11 C12 11.66 12 12.32 12 13 C9.736 13.189 8.037 13.044 6 12 C4.644 9.736 3.749 7.503 2.859 5.031 C2 3 2 3 0 2 C0 1.34 0 0.68 0 0 Z " fill="#D9CF9F" transform="translate(53,31)"/>
<path d="M0 0 C0.99 0 1.98 0 3 0 C3 0.99 3 1.98 3 3 C3.66 3 4.32 3 5 3 C8.492 5.791 11.303 9.46 14 13 C9.673 12.505 7.033 11.148 4 8 C2.17 5.542 0.783 2.977 0 0 Z " fill="#E1D7A3" transform="translate(25,22)"/>
<path d="M0 0 C0.256 0.002 0.256 0.002 1.549 0.014 C2.803 0.025 4.058 0.043 5.312 0.062 C4.473 2.086 4.473 2.086 3.312 4.062 C2.059 4.164 2.059 4.164 0.75 3.688 C-0.566 3.227 -0.566 3.227 -1.688 3.062 C-2.017 3.723 -2.348 4.383 -2.688 5.062 C-4.75 5.188 -4.75 5.188 -6.688 5.062 C-6.688 4.402 -6.688 3.742 -6.688 3.062 C-7.348 3.062 -8.008 3.062 -8.688 3.062 C-8.688 2.402 -8.688 1.742 -8.688 1.062 C-6.027 -0.381 -2.941 -0.049 0 0 Z " fill="#E9E1B2" transform="translate(27.6875,15.9375)"/>
<path d="M0 0 C3.223 2.148 3.223 2.148 4 3 C3.67 3.66 3.34 4.32 3 5 C0.93 4.966 -0.967 4.433 -3 4 C-1.02 6.64 0.96 9.28 3 12 C-2.75 10.125 -2.75 10.125 -5 9 C-5.409 5.892 -5.498 4.68 -3.625 2.125 C-3.089 1.754 -2.552 1.382 -2 1 C-1.34 1.33 -0.68 1.66 0 2 C0 1.34 0 0.68 0 0 Z " fill="#E0D198" transform="translate(91,68)"/>
<path d="M0 0 C2.527 -0.074 5.053 -0.129 7.581 -0.165 C8.44 -0.18 9.299 -0.2 10.159 -0.226 C11.395 -0.263 12.631 -0.278 13.867 -0.293 C14.239 -0.301 14.239 -0.301 16.121 -0.341 C18 0 18 0 19.258 1.518 C19.503 2.007 19.748 2.496 20 3 C19.66 2.939 19.319 2.879 18.969 2.816 C14.662 2.072 10.34 1.518 6 1 C6.33 2.65 6.66 4.3 7 6 C5.831 5.192 4.664 4.378 3.5 3.562 C2.85 3.11 2.201 2.658 1.531 2.191 C1.026 1.798 0.521 1.405 0 1 C0 0.67 0 0.34 0 0 Z " fill="#E3D58F" transform="translate(67,26)"/>
<path d="" fill="#F5FCF2" transform="translate(0,0)"/>
<path d="" fill="#F6F6F6" transform="translate(0,0)"/>
<path d="" fill="#F8F8F8" transform="translate(0,0)"/>
<path d="" fill="#F8F8F8" transform="translate(0,0)"/>
<path d="" fill="#F7F7F7" transform="translate(0,0)"/>
<path d="" fill="#FBFCEC" transform="translate(0,0)"/>
<path d="" fill="#F7F6F2" transform="translate(0,0)"/>
<path d="" fill="#FAF9F5" transform="translate(0,0)"/>
<path d="" fill="#F5F4FA" transform="translate(0,0)"/>
<path d="" fill="#F6FBF4" transform="translate(0,0)"/>
<path d="" fill="#F7F5FA" transform="translate(0,0)"/>
<path d="" fill="#F7F7F7" transform="translate(0,0)"/>
<path d="" fill="#FDFAF1" transform="translate(0,0)"/>
<path d="" fill="#F7F4FD" transform="translate(0,0)"/>
<path d="" fill="#F2F2F2" transform="translate(0,0)"/>
<path d="" fill="#F5F5F5" transform="translate(0,0)"/>
<path d="" fill="#F8F8F8" transform="translate(0,0)"/>
<path d="" fill="#F8F8F8" transform="translate(0,0)"/>
<path d="" fill="#F6F6F6" transform="translate(0,0)"/>
<path d="" fill="#F7F7F7" transform="translate(0,0)"/>
<path d="" fill="#F8F8F6" transform="translate(0,0)"/>
<path d="" fill="#F6F7F9" transform="translate(0,0)"/>
<path d="" fill="#F8F6F7" transform="translate(0,0)"/>
<path d="" fill="#F9F4F8" transform="translate(0,0)"/>
<path d="" fill="#F8F9F4" transform="translate(0,0)"/>
<path d="" fill="#F7F9F6" transform="translate(0,0)"/>
<path d="" fill="#F8FEF2" transform="translate(0,0)"/>
<path d="" fill="#F9FAF4" transform="translate(0,0)"/>
<path d="" fill="#FCF8ED" transform="translate(0,0)"/>
<path d="" fill="#F8F6F7" transform="translate(0,0)"/>
<path d="" fill="#F6F4F9" transform="translate(0,0)"/>
<path d="" fill="#F2F1F9" transform="translate(0,0)"/>
<path d="" fill="#F2F2F4" transform="translate(0,0)"/>
<path d="" fill="#F9FAF5" transform="translate(0,0)"/>
<path d="" fill="#F5F1E8" transform="translate(0,0)"/>
<path d="" fill="#F6FDF5" transform="translate(0,0)"/>
<path d="" fill="#F7F8F0" transform="translate(0,0)"/>
<path d="" fill="#F7F8F2" transform="translate(0,0)"/>
<path d="" fill="#FCF9F2" transform="translate(0,0)"/>
<path d="" fill="#FCF3F6" transform="translate(0,0)"/>
<path d="" fill="#FAF6EB" transform="translate(0,0)"/>
<path d="" fill="#F8F8F8" transform="translate(0,0)"/>
<path d="" fill="#F6F5FA" transform="translate(0,0)"/>
<path d="" fill="#F6FDF5" transform="translate(0,0)"/>
<path d="" fill="#FAF4F6" transform="translate(0,0)"/>
<path d="" fill="#FAF5F9" transform="translate(0,0)"/>
<path d="" fill="#F7F5F6" transform="translate(0,0)"/>
<path d="" fill="#F8FAF5" transform="translate(0,0)"/>
<path d="" fill="#F4F4F2" transform="translate(0,0)"/>
<path d="" fill="#F5F7F2" transform="translate(0,0)"/>
<path d="" fill="#F7F5F8" transform="translate(0,0)"/>
<path d="" fill="#F1F7F5" transform="translate(0,0)"/>
<path d="" fill="#FBFCEE" transform="translate(0,0)"/>
<path d="" fill="#F8FCEE" transform="translate(0,0)"/>
<path d="" fill="#F5F9FA" transform="translate(0,0)"/>
<path d="" fill="#F8F9F4" transform="translate(0,0)"/>
<path d="" fill="#F8F9F4" transform="translate(0,0)"/>
<path d="" fill="#FAF7F2" transform="translate(0,0)"/>
<path d="" fill="#F7F6F4" transform="translate(0,0)"/>
<path d="" fill="#F8FAEF" transform="translate(0,0)"/>
<path d="" fill="#F9F8F6" transform="translate(0,0)"/>
<path d="" fill="#F5FAF6" transform="translate(0,0)"/>
<path d="" fill="#F7F9F6" transform="translate(0,0)"/>
<path d="" fill="#F4F6F5" transform="translate(0,0)"/>
<path d="" fill="#F7F9F6" transform="translate(0,0)"/>
<path d="" fill="#F5FCF4" transform="translate(0,0)"/>
<path d="" fill="#F8F9F4" transform="translate(0,0)"/>
<path d="" fill="#F8F8F6" transform="translate(0,0)"/>
<path d="" fill="#F6F7F9" transform="translate(0,0)"/>
</svg>
