<?xml version="1.0" encoding="UTF-8"?>
<!-- Generator: visioncortex VTracer 0.6.12 -->
<svg version="1.1" xmlns="http://www.w3.org/2000/svg" width="128" height="128">
<path d="M0 0 C1.059 0.93 1.059 0.93 2.008 2.23 C2.355 2.704 2.701 3.178 3.059 3.666 C3.235 3.917 3.235 3.917 4.125 5.188 C4.305 5.429 4.305 5.429 5.215 6.65 C9.491 12.616 9.114 18.063 9 25.188 C8.975 26.806 8.953 28.424 8.938 30.043 C8.926 30.755 8.914 31.467 8.902 32.2 C9 34 9 34 10 36 C9.34 36 8.68 36 8 36 C8.33 44.25 8.66 52.5 9 61 C14 57 14 57 14.601 55.114 C14.596 54.79 14.596 54.79 14.568 53.149 C14.567 52.409 14.567 51.668 14.566 50.906 C14.541 50.117 14.515 49.328 14.488 48.516 C14.485 48.108 14.485 48.108 14.467 46.044 C14.448 43.886 14.399 41.731 14.343 39.574 C14.292 37.368 14.269 35.163 14.244 32.957 C14.191 28.637 14.105 24.319 14 20 C17.846 21.493 21.252 23.187 24.75 25.375 C25.244 25.666 25.737 25.958 26.246 26.258 C29.786 28.469 29.786 28.469 30.805 30.996 C30.869 31.657 30.934 32.319 31 33 C31.111 33.623 31.222 34.245 31.336 34.887 C31.385 37.143 31.379 38.174 30 40 C25.87 41.282 21.285 41.07 17 41 C18 42 18 42 19.199 42.05 C19.69 42.019 20.181 41.989 20.688 41.957 C21.221 41.936 21.755 41.914 22.305 41.893 C23.436 41.839 24.566 41.774 25.695 41.697 C25.962 41.689 25.962 41.689 27.312 41.645 C27.558 41.631 27.558 41.631 28.801 41.562 C29.197 41.706 29.592 41.851 30 42 C31.583 46.116 31.122 50.662 30.978 54.999 C30.951 55.956 30.937 56.913 30.935 57.87 C30.917 65.801 30.917 65.801 28.778 68.598 C27.245 69.855 25.657 70.916 24 72 C23.13 72.818 22.281 73.659 21.457 74.523 C19.813 76.211 18.127 77.772 16.324 79.289 C15.889 79.674 15.454 80.06 15.006 80.457 C14.127 81.235 13.228 81.991 12.311 82.723 C9.947 84.891 8.909 86.583 8.709 89.788 C8.66 92.537 8.796 95.259 9 98 C5.886 98.192 2.771 98.371 -0.344 98.537 C-1.405 98.596 -2.465 98.658 -3.525 98.724 C-5.046 98.818 -6.568 98.898 -8.09 98.977 C-8.566 99.009 -9.042 99.041 -9.532 99.074 C-10.867 99.135 -10.867 99.135 -13 99 C-14.371 96.258 -14.048 93.707 -13.961 90.721 C-13.877 86.035 -13.877 86.035 -15 84 C-15.998 83.661 -16.998 83.328 -18 83 C-19.121 81.835 -20.12 80.694 -21.125 79.438 C-24.152 75.797 -27.457 72.674 -31.067 69.615 C-33.718 67.349 -34.9 66.11 -35.221 62.545 C-35.27 61.52 -35.313 60.494 -35.352 59.469 C-35.375 58.918 -35.398 58.368 -35.422 57.8 C-35.469 56.63 -35.515 55.46 -35.558 54.29 C-35.624 52.534 -35.702 50.779 -35.781 49.023 C-35.921 45.682 -35.979 42.344 -36 39 C-36.009 38.51 -36.019 38.021 -36.029 37.517 C-36.106 30.31 -36.106 30.31 -33.636 27.384 C-31.845 26.005 -30.057 24.935 -28.062 23.875 C-27.416 23.491 -26.77 23.107 -26.104 22.711 C-21.442 20 -21.442 20 -19 20 C-19 26.6 -19 33.2 -19 40 C-20.98 40.165 -20.98 40.165 -31 41 C-31 41.33 -31 41.66 -31 42 C-29.875 42.027 -28.75 42.046 -27.625 42.062 C-26.999 42.074 -26.372 42.086 -25.727 42.098 C-24 42 -24 42 -22 41 C-20.407 41.24 -20.407 41.24 -19 42 C-18.568 43.399 -18.568 43.399 -18.488 45.16 C-18.471 45.474 -18.471 45.474 -18.381 47.064 C-18.358 47.724 -18.336 48.383 -18.312 49.062 C-18.295 49.394 -18.295 49.394 -18.209 51.072 C-18.126 52.715 -18.057 54.357 -18 56 C-15.252 55.39 -15.252 55.39 -14 54 C-13.483 51.028 -13.671 48.064 -13.812 45.062 C-13.865 43.429 -13.913 41.794 -13.957 40.16 C-13.988 39.434 -14.018 38.709 -14.05 37.961 C-14 36 -14 36 -13.487 34.535 C-12.815 32.416 -13.067 30.459 -13.254 28.281 C-14.335 11.253 -14.335 11.253 -9.572 5.525 C-3.535 -0.581 -3.535 -0.581 0 0 Z " fill="#86809F" transform="translate(67,16)"/>
<path d="M0 0 C3.846 1.493 7.252 3.187 10.75 5.375 C11.244 5.666 11.737 5.958 12.246 6.258 C15.786 8.469 15.786 8.469 16.805 10.996 C16.869 11.657 16.934 12.319 17 13 C17.111 13.623 17.222 14.245 17.336 14.887 C17.385 17.143 17.379 18.174 16 20 C11.87 21.282 7.285 21.07 3 21 C4 22 4 22 5.199 22.05 C5.69 22.019 6.181 21.989 6.688 21.957 C6.954 21.946 6.954 21.946 8.305 21.893 C9.436 21.839 10.566 21.774 11.695 21.697 C11.962 21.689 11.962 21.689 13.312 21.645 C13.804 21.617 14.295 21.59 14.801 21.562 C15.197 21.706 15.592 21.851 16 22 C17.583 26.116 17.122 30.662 16.978 34.999 C16.951 35.956 16.937 36.913 16.935 37.87 C16.917 45.801 16.917 45.801 14.778 48.598 C13.245 49.855 11.659 50.918 10 52 C9.124 52.803 8.27 53.632 7.441 54.484 C7.038 54.896 6.635 55.308 6.219 55.732 C4.967 57.034 3.716 58.337 2.465 59.641 C1.622 60.51 0.78 61.38 -0.062 62.25 C-0.483 62.696 -0.904 63.142 -1.338 63.602 C-3.753 66.073 -5.423 67.57 -9 68 C-10.246 64.401 -9.784 61.62 -9 58 C-8.01 58 -7.02 58 -6 58 C-6.046 57.559 -6.093 57.118 -6.141 56.664 C-5.914 53.978 -4.244 52.847 -2.367 51.055 C-1 50 -1 50 1.125 49.5 C3 49 3 49 3.844 47.84 C4.352 46.927 4.836 46 5.289 45.059 C5.524 44.709 5.758 44.36 6 44 C6.66 44 7.32 44 8 44 C7.67 43.01 7.34 42.02 7 41 C6.67 41.165 6.67 41.165 5 42 C5.188 40.188 5.188 40.188 6 38 C7.18 37.277 7.18 37.277 8.562 36.625 C9.922 35.926 9.922 35.926 11 35 C11.444 32.942 11.302 31.073 11 29 C10.01 29 9.02 29 8 29 C8 28.34 8 27.68 8 27 C7.34 27 6.68 27 6 27 C6 26.34 6 25.68 6 25 C5.34 25 4.68 25 4 25 C4.33 27.97 4.66 30.94 5 34 C4.34 34 3.68 34 3 34 C2.798 35.211 2.599 36.423 2.418 37.637 C1.911 39.291 1.226 39.928 -0.062 41.062 C-1.811 42.609 -1.974 42.768 -2.25 45.25 C-2.168 45.828 -2.085 46.405 -2 47 C-5.435 47.264 -5.435 47.264 -7 47 C-7.812 45.5 -7.812 45.5 -8 44 C-7.01 44 -6.02 44 -5 44 C-5.051 43.539 -5.102 43.078 -5.154 42.604 C-5.103 42.074 -5.052 41.545 -5 41 C-3.923 40.13 -3.923 40.13 -2.531 39.343 C-0.769 38.026 -0.094 37.376 0.447 35.218 C0.578 32.969 0.562 30.767 0.488 28.516 C0.481 27.7 0.474 26.884 0.467 26.044 C0.448 23.886 0.399 21.731 0.343 19.574 C0.292 17.368 0.269 15.163 0.244 12.957 C0.191 8.637 0.105 4.319 0 0 Z " fill="#8C87A1" transform="translate(81,36)"/>
<path d="M0 0 C1.059 0.93 1.059 0.93 2.008 2.23 C2.181 2.467 2.181 2.467 3.059 3.666 C3.235 3.917 3.235 3.917 4.125 5.188 C4.485 5.67 4.844 6.153 5.215 6.65 C7.372 9.66 8.699 12.265 9 16 C9.054 16.644 9.108 17.288 9.164 17.951 C9.313 20.198 9.382 22.437 9.438 24.688 C9.483 25.459 9.529 26.231 9.576 27.025 C9.619 29.179 9.63 30.937 9 33 C7.424 34.071 6.166 34.422 4.297 34.757 C3.869 34.837 3.441 34.917 3 35 C3 35.33 3 35.66 3 36 C0.03 36 -2.94 36 -6 36 C-5.67 35.835 -5.67 35.835 -4 35 C-4 34.34 -4 33.68 -4 33 C-6.97 33 -9.94 33 -13 33 C-14.694 11.669 -14.694 11.669 -9.57 5.519 C-3.523 -0.578 -3.523 -0.578 0 0 Z " fill="#6E5B91" transform="translate(67,16)"/>
<path d="M0 0 C0 6.6 0 13.2 0 20 C-4.62 20 -9.24 20 -14 20 C-14 20.99 -14 21.98 -14 23 C-14.66 23 -15.32 23 -16 23 C-16.897 18.387 -17.637 13.505 -16 9 C-12.505 4.972 -5.5 0 0 0 Z " fill="#746296" transform="translate(48,36)"/>
<path d="M0 0 C3.972 1.589 7.188 3.147 10.75 5.375 C11.244 5.666 11.737 5.958 12.246 6.258 C14.393 7.599 15.748 8.494 16.891 10.789 C17 13 17 13 16 20 C10.72 20 5.44 20 0 20 C0 13.4 0 6.8 0 0 Z " fill="#887E9F" transform="translate(81,36)"/>
<path d="M0 0 C3.489 2.533 6.489 7.01 8 11 C8.418 15.433 7.286 19.782 6 24 C5.34 24 4.68 24 4 24 C4 22.68 4 21.36 4 20 C3.34 20 2.68 20 2 20 C1.312 18.125 1.312 18.125 1 16 C1.33 15.34 1.66 14.68 2 14 C2.66 14 3.32 14 4 14 C3.812 12.5 3.812 12.5 3 11 C1.266 10.707 -0.226 10.864 -2 11 C-2 10.34 -2 9.68 -2 9 C-1.34 9 -0.68 9 0 9 C0 8.34 0 7.68 0 7 C-1.438 6.438 -1.438 6.438 -3 6 C-3.33 5.67 -3.66 5.34 -4 5 C-4.11 5.494 -4.219 5.987 -4.332 6.496 C-4.491 7.137 -4.649 7.777 -4.812 8.438 C-4.963 9.076 -5.114 9.714 -5.27 10.371 C-6 12 -6 12 -7.574 12.723 C-8.045 12.814 -8.515 12.906 -9 13 C-8.835 13.804 -8.67 14.609 -8.5 15.438 C-7.806 19.584 -7.7 23.809 -8 28 C-8.33 28.33 -8.66 28.66 -9 29 C-8.01 29.33 -7.02 29.66 -6 30 C-6 29.34 -6 28.68 -6 28 C-5.01 28 -4.02 28 -3 28 C-3.25 29.48 -3.25 29.48 -4 31 C-5.812 31.363 -5.812 31.363 -8 31.312 C-8.722 31.309 -9.444 31.305 -10.188 31.301 C-10.786 31.202 -11.384 31.102 -12 31 C-14.769 25.461 -14.252 16.923 -13 11 C-10.842 6.572 -5.6 -0.882 0 0 Z " fill="#8578A2" transform="translate(67,16)"/>
<path d="M0 0 C2.604 3.927 2.438 8.029 2.5 12.625 C2.541 13.401 2.582 14.177 2.625 14.977 C2.655 17.15 2.648 18.923 2 21 C0.421 22.074 -0.833 22.426 -2.705 22.759 C-3.132 22.839 -3.56 22.918 -4 23 C-4 23.33 -4 23.66 -4 24 C-6.97 24 -9.94 24 -13 24 C-12.34 23.67 -11.68 23.34 -11 23 C-11 22.34 -11 21.68 -11 21 C-13.97 21 -16.94 21 -20 21 C-19.67 19.68 -19.34 18.36 -19 17 C-19 17.66 -19 18.32 -19 19 C-17.686 18.886 -16.374 18.759 -15.062 18.625 C-14.697 18.59 -14.697 18.59 -12.848 18.414 C-12.238 18.277 -11.628 18.141 -11 18 C-10.67 17.34 -10.34 16.68 -10 16 C-10.99 15.67 -11.98 15.34 -13 15 C-12.361 14.876 -11.721 14.752 -11.062 14.625 C-10.382 14.419 -9.701 14.212 -9 14 C-8.67 13.34 -8.34 12.68 -8 12 C-8 12.99 -8 13.98 -8 15 C-6.68 14.67 -5.36 14.34 -4 14 C-4.33 13.01 -4.66 12.02 -5 11 C-3.68 11.33 -2.36 11.66 -1 12 C-1.012 11.385 -1.023 10.77 -1.035 10.137 C-1.044 9.328 -1.053 8.52 -1.062 7.688 C-1.074 6.887 -1.086 6.086 -1.098 5.262 C-1.011 3.255 -0.756 1.84 0 0 Z " fill="#73668E" transform="translate(74,28)"/>
<path d="M0 0 C0.719 0.035 1.439 0.07 2.18 0.105 C2.904 0.133 3.629 0.16 4.375 0.188 C4.929 0.222 5.484 0.257 6.055 0.293 C6.055 0.953 6.055 1.613 6.055 2.293 C7.705 2.293 9.355 2.293 11.055 2.293 C11.055 1.963 11.055 1.633 11.055 1.293 C13.695 1.293 16.335 1.293 19.055 1.293 C18.065 1.623 17.075 1.953 16.055 2.293 C15.762 3.484 15.762 3.484 15.867 4.855 C15.929 5.66 15.991 6.464 16.055 7.293 C14.735 6.963 13.415 6.633 12.055 6.293 C12.055 6.953 12.055 7.613 12.055 8.293 C9.029 7.705 6.04 7.067 3.055 6.293 C3.006 6.654 2.957 7.015 2.906 7.387 C2.831 7.851 2.757 8.315 2.68 8.793 C2.61 9.257 2.54 9.721 2.469 10.199 C2.332 10.56 2.195 10.921 2.055 11.293 C1.395 11.293 0.735 11.293 0.055 11.293 C0.101 11.833 0.147 12.373 0.194 12.929 C0.357 14.928 0.507 16.928 0.647 18.928 C0.71 19.795 0.779 20.661 0.854 21.527 C0.96 22.77 1.045 24.014 1.129 25.258 C1.158 25.632 1.158 25.632 1.303 27.527 C1.221 28.11 1.139 28.693 1.055 29.293 C-0.45 30.045 -0.45 30.045 -1.945 30.293 C-1.958 29.937 -1.958 29.937 -2.021 28.137 C-2.116 25.493 -2.216 22.848 -2.318 20.204 C-2.361 19.06 -2.403 17.917 -2.443 16.773 C-2.501 15.127 -2.564 13.482 -2.629 11.836 C-2.646 11.326 -2.662 10.817 -2.68 10.292 C-2.785 7.745 -3.103 5.715 -3.945 3.293 C-3.004 0.972 -2.509 0.378 0 0 Z " fill="#9591A8" transform="translate(56.9453125,48.70703125)"/>
<path d="M0 0 C1.375 0.938 1.375 0.938 1.609 2.09 C1.656 2.535 1.702 2.979 1.75 3.438 C1.926 4.812 1.926 4.812 2.375 5.938 C3.543 6.312 3.543 6.312 4.938 6.438 C5.34 6.52 5.34 6.52 7.375 6.938 C7.635 8.859 7.62 10.073 7.375 11.938 C7.375 12.659 7.375 13.381 7.375 14.125 C7.375 15.396 7.375 16.667 7.375 17.938 C12.325 18.267 17.275 18.597 22.375 18.938 C22.375 19.597 22.375 20.257 22.375 20.938 C22.09 20.93 22.09 20.93 20.647 20.89 C18.535 20.839 16.424 20.801 14.312 20.773 C13.397 20.758 12.483 20.737 11.568 20.711 C10.255 20.675 8.943 20.658 7.629 20.645 C6.838 20.629 6.047 20.613 5.233 20.597 C4.62 20.709 4.007 20.822 3.375 20.938 C2.609 22.456 2.609 22.456 2.375 23.938 C1.004 21.196 1.327 18.645 1.414 15.658 C1.458 13.226 1.45 11.152 0.375 8.938 C-0.621 8.591 -1.621 8.259 -2.625 7.938 C-3.936 6.42 -4.544 5.341 -4.938 3.375 C-4.625 1.938 -4.625 1.938 -3.312 0.688 C-1.625 -0.062 -1.625 -0.062 0 0 Z " fill="#9B96B0" transform="translate(51.625,91.0625)"/>
<path d="M0 0 C2 1 2 1 3 2 C4.199 2.05 4.199 2.05 5.688 1.957 C6.221 1.936 6.755 1.914 7.305 1.893 C8.436 1.839 9.566 1.774 10.695 1.697 C12.222 1.647 13.52 1.618 15 2 C15.961 3.93 15.961 3.93 16 6 C15.546 6.433 15.093 6.866 14.625 7.312 C12.197 9.834 12.269 12.611 12 16 C11.34 15.67 10.68 15.34 10 15 C9.805 13.59 9.805 13.59 9.875 11.938 C9.893 11.39 9.911 10.842 9.93 10.277 C9.953 9.856 9.976 9.434 10 9 C9.01 9 8.02 9 7 9 C7 8.34 7 7.68 7 7 C6.34 7 5.68 7 5 7 C5 6.34 5 5.68 5 5 C4.34 5 3.68 5 3 5 C3.33 7.97 3.66 10.94 4 14 C3.34 14 2.68 14 2 14 C1.798 15.211 1.599 16.423 1.418 17.637 C0.911 19.291 0.226 19.928 -1.062 21.062 C-2.811 22.609 -2.974 22.768 -3.25 25.25 C-3.168 25.828 -3.085 26.405 -3 27 C-6.435 27.264 -6.435 27.264 -8 27 C-8.812 25.5 -8.812 25.5 -9 24 C-8.01 24 -7.02 24 -6 24 C-6.051 23.54 -6.102 23.081 -6.155 22.607 C-6 21 -6 21 -4.915 20.1 C-4.453 19.832 -3.991 19.565 -3.516 19.289 C-1.795 18.014 -1.098 17.417 -0.604 15.308 C-0.544 13.311 -0.613 11.368 -0.75 9.375 C-0.811 8.029 -0.869 6.682 -0.922 5.336 C-0.959 4.743 -0.996 4.151 -1.034 3.541 C-1 2 -1 2 0 0 Z " fill="#A09BB4" transform="translate(82,56)"/>
<path d="M0 0 C0 6.6 0 13.2 0 20 C-4.62 20 -9.24 20 -14 20 C-14 20.99 -14 21.98 -14 23 C-14.66 23 -15.32 23 -16 23 C-16 21.35 -16 19.7 -16 18 C-11.38 18 -6.76 18 -2 18 C-2.33 17.01 -2.66 16.02 -3 15 C-3.66 14.67 -4.32 14.34 -5 14 C-4.654 11.303 -4.214 9.429 -3 7 C-3.66 6.67 -4.32 6.34 -5 6 C-4.34 6 -3.68 6 -3 6 C-3.095 5.651 -3.191 5.301 -3.289 4.941 C-3.4 4.486 -3.511 4.031 -3.625 3.562 C-3.741 3.11 -3.857 2.658 -3.977 2.191 C-3.984 1.798 -3.992 1.405 -4 1 C-2 0 -2 0 0 0 Z " fill="#6C6181" transform="translate(48,36)"/>
<path d="M0 0 C0.33 0 0.66 0 1 0 C1.02 0.378 1.04 0.756 1.06 1.146 C1.156 2.869 1.265 4.59 1.375 6.312 C1.406 6.907 1.437 7.502 1.469 8.115 C1.684 11.325 1.896 13.436 4 16 C4.625 18.188 4.625 18.188 5 20 C4.237 19.918 3.474 19.835 2.688 19.75 C1.305 19.73 1.305 19.73 0 20 C-0.93 20.926 -0.93 20.926 -1.688 22.062 C-2.121 22.702 -2.554 23.341 -3 24 C-3.66 23.67 -4.32 23.34 -5 23 C-4.678 21.664 -4.342 20.331 -4 19 C-4.227 18.299 -4.454 17.597 -4.688 16.875 C-4.791 16.256 -4.894 15.638 -5 15 C-4.35 14.745 -3.701 14.49 -3.031 14.227 C-1 13 -1 13 -0.685 11.843 C-0.642 10.379 -0.701 8.96 -0.812 7.5 C-0.865 6.511 -0.913 5.521 -0.957 4.531 C-0.988 4.094 -1.018 3.656 -1.05 3.205 C-1 2 -1 2 0 0 Z " fill="#8D88A0" transform="translate(47,59)"/>
<path d="M0 0 C0.124 0.66 0.247 1.32 0.375 2 C0.581 2.66 0.788 3.32 1 4 C1.66 4 2.32 4 3 4 C3.625 2.5 3.625 2.5 4 1 C4.33 1.66 4.66 2.32 5 3 C6.559 3.23 6.559 3.23 8.438 3.188 C9.055 3.181 9.672 3.175 10.309 3.168 C12 3 12 3 14 2 C15.625 2.938 15.625 2.938 17 4 C16.67 4.66 16.34 5.32 16 6 C15.886 7.329 15.886 7.329 15.902 8.82 C15.906 9.355 15.909 9.89 15.912 10.441 C15.92 10.997 15.929 11.553 15.938 12.125 C15.942 12.688 15.947 13.252 15.951 13.832 C15.963 15.221 15.979 16.611 16 18 C15.34 18 14.68 18 14 18 C12.784 15.647 13.131 13.969 13.562 11.438 C13.629 9.586 13.629 9.586 13 8 C9.73 6.678 6.498 6.306 3 6 C3 6.66 3 7.32 3 8 C1.512 7.723 1.512 7.723 0 7 C-0.293 5.371 -0.293 5.371 -0.188 3.438 C-0.16 2.797 -0.133 2.156 -0.105 1.496 C-0.071 1.002 -0.036 0.509 0 0 Z " fill="#ADA9BD" transform="translate(31,55)"/>
<path d="M0 0 C0.33 0.66 0.66 1.32 1 2 C0 4 0 4 -1.41 4.633 C-1.955 4.795 -2.501 4.958 -3.062 5.125 C-3.61 5.293 -4.158 5.46 -4.723 5.633 C-4.933 5.693 -4.933 5.693 -6 6 C-5.683 8.537 -5.282 10.767 -4 13 C-1.533 13.954 0.523 13.923 3 13 C3.772 11.634 3.869 10.654 3.93 9.094 C3.941 8.913 3.941 8.913 4 8 C4.33 8 4.66 8 5 8 C5 10.31 5 12.62 5 15 C0.38 15 -4.24 15 -9 15 C-9.793 9.187 -9.793 9.187 -9 6 C-6.611 3.254 -3.202 1.62 0 0 Z " fill="#8D80AB" transform="translate(41,39)"/>
<path d="M0 0 C0.124 0.495 0.248 0.99 0.375 1.5 C0.581 1.995 0.787 2.49 1 3 C1.66 3 2.32 3 3 3 C2.897 3.639 2.794 4.279 2.688 4.938 C2.791 5.618 2.894 6.299 3 7 C4.113 7.312 4.113 7.312 5.5 7.438 C6.887 7.586 6.887 7.586 8 8 C8.514 9.801 8.243 11.105 8 13 C6.855 13.081 5.709 13.139 4.562 13.188 C4.243 13.205 4.243 13.205 2.629 13.293 C2.091 13.196 1.554 13.1 1 13 C0.402 11.488 0.402 11.488 0 10 C-0.66 10 -1.32 10 -2 10 C-2.315 3.611 -2.315 3.611 -1 1.062 C-0.67 0.712 -0.34 0.361 0 0 Z " fill="#726097" transform="translate(86,39)"/>
<path d="M0 0 C0.33 0 0.66 0 1 0 C1 7.59 1 15.18 1 23 C-0.65 22.67 -2.3 22.34 -4 22 C-3.939 21.634 -3.879 21.268 -3.816 20.891 C-3.357 17.92 -2.983 14.968 -2.781 11.969 C-2.744 11.439 -2.708 10.908 -2.67 10.362 C-2.599 9.301 -2.536 8.239 -2.481 7.177 C-2.284 4.272 -2.032 2.257 0 0 Z " fill="#8E899F" transform="translate(96,60)"/>
<path d="M0 0 C0.33 0.66 0.66 1.32 1 2 C2.842 2.179 2.842 2.179 5.219 2.09 C6.077 2.069 6.935 2.049 7.793 2.029 C9.15 1.986 10.506 1.937 11.862 1.884 C13.168 1.835 14.474 1.805 15.781 1.777 C16.566 1.749 17.35 1.72 18.158 1.691 C18.766 1.793 19.374 1.895 20 2 C20.764 3.514 20.764 3.514 21 5 C20.639 5.061 20.278 5.121 19.906 5.184 C19.442 5.267 18.978 5.351 18.5 5.438 C18.268 5.478 18.268 5.478 17.094 5.684 C16.733 5.788 16.372 5.892 16 6 C16 6.33 16 6.66 16 7 C13.03 7 10.06 7 7 7 C7.66 6.67 8.32 6.34 9 6 C9 5.34 9 4.68 9 4 C6.03 4 3.06 4 0 4 C0 2.68 0 1.36 0 0 Z " fill="#5A5465" transform="translate(54,45)"/>
<path d="M0 0 C3.393 4.041 3.393 4.041 3.125 7.562 C2.965 9.958 2.894 11.82 4 14 C5.156 14.336 5.156 14.336 6.5 14.375 C7.855 14.551 7.855 14.551 9 15 C9.809 16.716 9.852 18.072 10 20 C6.653 19.809 4.638 19.089 2.188 16.75 C-1.5 12.071 -0.406 5.618 0 0 Z " fill="#A29DB5" transform="translate(32,68)"/>
<path d="M0 0 C1.438 -0.125 1.438 -0.125 3 0 C4.561 3.122 4.224 6.34 4.24 9.786 C4.25 11.062 4.281 12.336 4.312 13.611 C4.318 14.411 4.323 15.211 4.328 16.035 C4.337 16.771 4.347 17.507 4.356 18.266 C4.239 18.838 4.121 19.41 4 20 C3.01 20.33 2.02 20.66 1 21 C1 18.03 1 15.06 1 12 C0.34 12 -0.32 12 -1 12 C-0.625 10.5 -0.625 10.5 0 9 C0.66 9 1.32 9 2 9 C2 7.68 2 6.36 2 5 C1.34 5 0.68 5 0 5 C0 3.35 0 1.7 0 0 Z " fill="#9B94B2" transform="translate(70,58)"/>
<path d="M0 0 C0.365 0.006 0.365 0.006 2.215 0.035 C2.948 0.044 3.682 0.053 4.438 0.062 C5.003 0.074 5.569 0.086 6.152 0.098 C6.152 0.758 6.152 1.418 6.152 2.098 C7.802 2.098 9.452 2.098 11.152 2.098 C11.152 1.768 11.152 1.438 11.152 1.098 C13.792 1.098 16.432 1.098 19.152 1.098 C18.162 1.428 17.172 1.758 16.152 2.098 C15.859 3.289 15.859 3.289 15.965 4.66 C16.027 5.465 16.089 6.269 16.152 7.098 C15.492 7.098 14.832 7.098 14.152 7.098 C14.152 6.438 14.152 5.778 14.152 5.098 C9.862 4.768 5.572 4.438 1.152 4.098 C1.152 3.438 1.152 2.778 1.152 2.098 C-0.848 1.473 -0.848 1.473 -2.848 1.098 C-1.848 0.098 -1.848 0.098 0 0 Z " fill="#DFDCE7" transform="translate(56.84765625,48.90234375)"/>
<path d="M0 0 C0.33 0 0.66 0 1 0 C1.33 3.63 1.66 7.26 2 11 C-4.93 11 -11.86 11 -19 11 C-19 10.34 -19 9.68 -19 9 C-12.73 9 -6.46 9 0 9 C0 6.03 0 3.06 0 0 Z " fill="#67656E" transform="translate(74,103)"/>
<path d="M0 0 C0.33 0 0.66 0 1 0 C1 7.92 1 15.84 1 24 C-2.623 22.792 -3.132 22.176 -5 19 C-4.875 17.312 -4.875 17.312 -4 16 C-3.498 15.878 -2.995 15.755 -2.477 15.629 C-1.99 15.422 -1.502 15.214 -1 15 C-0.568 13.51 -0.568 13.51 -0.488 11.621 C-0.471 11.284 -0.471 11.284 -0.381 9.58 C-0.358 8.873 -0.336 8.166 -0.312 7.438 C-0.278 6.727 -0.244 6.016 -0.209 5.283 C-0.126 3.522 -0.057 1.762 0 0 Z " fill="#54515E" transform="translate(54,55)"/>
<path d="M0 0 C0.66 0 1.32 0 2 0 C2.217 3.114 2.414 6.228 2.592 9.344 C2.656 10.405 2.725 11.465 2.799 12.525 C2.905 14.046 2.992 15.567 3.074 17.09 C3.093 17.328 3.093 17.328 3.187 18.532 C3.249 19.867 3.249 19.867 3 22 C2.01 22.33 1.02 22.66 0 23 C0 15.41 0 7.82 0 0 Z " fill="#A09AB7" transform="translate(55,56)"/>
<path d="M0 0 C2.079 2.547 2.246 4.38 2.188 7.625 C2.181 8.422 2.175 9.218 2.168 10.039 C2 12 2 12 1 13 C1.99 13.33 2.98 13.66 4 14 C4 13.34 4 12.68 4 12 C4.99 12 5.98 12 7 12 C6.754 13.488 6.754 13.488 6 15 C4.152 15.293 4.152 15.293 1.938 15.188 C1.204 15.16 0.471 15.133 -0.285 15.105 C-0.851 15.071 -1.417 15.036 -2 15 C-1.389 9.991 -0.733 4.992 0 0 Z " fill="#7F6DA1" transform="translate(57,32)"/>
<path d="M0 0 C0.33 0 0.66 0 1 0 C1 1.65 1 3.3 1 5 C-3.62 5 -8.24 5 -13 5 C-13 5.99 -13 6.98 -13 8 C-13.66 8 -14.32 8 -15 8 C-15 6.35 -15 4.7 -15 3 C-10.05 3 -5.1 3 0 3 C0 2.01 0 1.02 0 0 Z " fill="#3F3A4B" transform="translate(47,51)"/>
<path d="M0 0 C2 1 2 1 2 1 Z " fill="#F5F5F5" transform="translate(81,98)"/>
<path d="" fill="#F7F7F7" transform="translate(0,0)"/>
<path d="" fill="#F7F7F9" transform="translate(0,0)"/>
<path d="" fill="#F6F6F8" transform="translate(0,0)"/>
<path d="" fill="#F5F3FE" transform="translate(0,0)"/>
<path d="" fill="#F7F7F7" transform="translate(0,0)"/>
<path d="" fill="#F7F7F9" transform="translate(0,0)"/>
<path d="" fill="#F5F4FC" transform="translate(0,0)"/>
<path d="" fill="#F8F8F6" transform="translate(0,0)"/>
<path d="" fill="#F6F7F1" transform="translate(0,0)"/>
<path d="" fill="#F8F9F4" transform="translate(0,0)"/>
<path d="" fill="#F7F8F3" transform="translate(0,0)"/>
<path d="" fill="#F8F7F5" transform="translate(0,0)"/>
<path d="" fill="#F7F7F9" transform="translate(0,0)"/>
<path d="" fill="#F6F5FA" transform="translate(0,0)"/>
<path d="" fill="#F5F5F5" transform="translate(0,0)"/>
<path d="" fill="#F6F6F6" transform="translate(0,0)"/>
<path d="" fill="#F7F7F7" transform="translate(0,0)"/>
<path d="" fill="#F4F4F2" transform="translate(0,0)"/>
<path d="" fill="#F7F7F7" transform="translate(0,0)"/>
<path d="" fill="#F8F8F8" transform="translate(0,0)"/>
<path d="" fill="#F9FAF2" transform="translate(0,0)"/>
<path d="" fill="#F8F8F6" transform="translate(0,0)"/>
<path d="" fill="#F6F8F3" transform="translate(0,0)"/>
<path d="" fill="#FAFCEF" transform="translate(0,0)"/>
<path d="" fill="#F8F9F3" transform="translate(0,0)"/>
<path d="" fill="#F4F4F6" transform="translate(0,0)"/>
<path d="" fill="#F9FAF2" transform="translate(0,0)"/>
<path d="" fill="#F8F8F8" transform="translate(0,0)"/>
<path d="" fill="#F6F1F5" transform="translate(0,0)"/>
<path d="" fill="#F8F8F6" transform="translate(0,0)"/>
<path d="" fill="#F7F9F8" transform="translate(0,0)"/>
</svg>
